M48
;GenerationSoftware,Autodesk,EAGLE,9.6.2*%
;CreationDate,2021-11-17T11:18:57Z*%
FMAT,2
ICI,OFF
METRIC,TZ,000.000
T4C0.200
T3C0.250
T2C0.254
T1C0.700
%
G90
M71
T1
X305Y14630
X1130Y17247
X16370Y610
X15100Y610
X13830Y610
X12560Y610
X10020Y610
X11290Y610
X8750Y610
X7480Y610
X6210Y610
X4940Y610
X3670Y610
X2400Y610
X1130Y610
X11290Y17247
X12560Y17247
X13830Y17247
X15100Y17247
X16370Y17247
X10020Y17247
X8750Y17247
X7480Y17247
X6210Y17247
X4940Y17247
X3670Y17247
X2400Y17247
X305Y8280
X305Y7010
X305Y5740
X305Y4470
X305Y3200
X305Y9550
X305Y10820
X305Y12090
X305Y13360
T2
X8738Y11189
X8738Y9855
X9563Y4432
X4000Y12992
X3442Y12979
X8738Y8522
X12446Y7468
X11787Y4001
X14961Y6312
X3492Y9601
X2959Y9601
X4026Y9601
X6667Y14884
X6553Y5728
X6921Y5334
X6667Y14313
X12421Y11189
X11087Y9855
X9754Y11189
X11087Y11189
X12421Y9855
X12421Y8522
X11087Y8522
X9754Y8522
X9754Y9855
X9741Y7468
X8725Y7468
X6464Y13729
X13437Y12230
X13437Y11189
X9754Y12230
X11049Y12243
X12421Y12230
X11087Y7468
X8738Y12230
T3
X2172Y9589
X2413Y4318
X3785Y4966
X3632Y2718
X8725Y15519
X14389Y14440
T4
X23114Y7493
X23114Y8255
X23114Y9144
X22352Y9144
X22352Y8255
X22352Y7493
X20320Y6350
X18415Y10922
X18415Y11684
X17653Y10922
X17653Y11684
X19685Y4826
X19050Y4826
X19050Y5461
X19685Y5461
X22352Y9906
X22352Y10668
X22352Y11303
X22352Y12065
X22352Y12827
X23114Y12827
X23114Y12065
X23114Y11303
X23114Y10668
X23114Y9906
X20828Y11303
X20828Y12065
X9538Y2350
X19050Y3404
X19050Y2642
X19050Y1880
X19050Y1118
X20066Y3658
X20066Y2896
X20066Y2134
X22860Y2896
X22860Y3658
X22860Y2134
X20066Y1118
X23114Y1118
X22352Y6731
X22352Y5969
X22352Y5207
X20320Y4826
X23114Y6731
X23114Y5969
X23114Y5207
X18415Y5461
X21590Y8255
X21590Y9144
X6553Y6921
X21590Y10668
X21590Y11303
X21590Y12065
X21590Y12827
X20828Y12827
X19939Y12827
X19939Y13589
X19939Y14224
X19939Y14859
X19939Y15494
X19939Y16256
X19939Y16891
X20828Y13589
X20828Y14224
X20828Y14859
X20828Y15494
X20828Y16256
X20828Y16891
X21590Y13589
X22352Y13589
X23114Y13589
X21590Y14224
X22352Y14224
X23114Y14224
X21590Y14859
X22352Y14859
X23114Y14859
X21590Y15494
X21590Y16256
X21590Y16891
X22352Y15494
X22352Y16256
X22352Y16891
X23114Y15494
X23114Y16256
X23114Y16891
X20828Y10668
X20828Y9906
X20828Y9144
X20828Y8255
X19939Y12065
X19939Y11303
X19939Y10668
X19939Y9906
X19939Y9144
X19939Y8255
X19050Y12065
X19050Y11303
X19050Y10668
X19050Y9906
X19050Y9144
X19050Y8255
X22352Y1143
X16383Y12992
X9538Y3238
X7506Y1930
X6807Y12586
X7760Y13297
X15342Y9614
X15659Y10097
X15354Y10592
X15672Y11125
X15354Y11608
X15011Y3937
X13373Y14326
X12827Y14122
X12332Y14453
X11811Y14097
X11354Y14465
X10833Y14084
X20320Y5461
X10363Y14427
X9843Y14122
X6439Y12040
X6820Y11582
X6464Y11125
X6794Y10592
X6426Y10109
X6845Y9614
X6413Y9169
X6985Y6528
X7671Y6452
X7722Y5817
X8585Y5245
X9398Y5448
X9779Y5004
X10363Y5321
X11024Y5537
X15659Y9106
X15367Y12738
X19050Y16891
X18415Y16891
X17780Y16891
X17196Y16878
X21590Y9906
X19050Y13589
X19050Y12954
X18415Y12446
X17653Y12446
X16891Y12065
X16891Y11430
X16891Y10795
X16891Y10160
X17653Y10160
X18415Y10160
X18415Y4826
X18415Y4191
X16256Y6223
X16256Y5334
X16256Y4064
X19050Y16256
X19050Y15494
X19050Y14859
X19050Y14224
X762Y15621
X635Y1778
X1143Y8763
X1143Y6223
X11938Y16510
X10795Y16510
X2096Y14275
X2159Y12738
X11836Y2680
X14897Y2235
X19050Y4166
X15570Y12192
M30