G04 EAGLE Gerber RS-274X export*
G75*
%MOMM*%
%FSLAX34Y34*%
%LPD*%
%INTop Copper*%
%IPPOS*%
%AMOC8*
5,1,8,0,0,1.08239X$1,22.5*%
G01*
%ADD10C,0.130000*%
%ADD11C,0.152400*%
%ADD12R,0.850000X0.300000*%
%ADD13R,0.300000X0.850000*%
%ADD14C,0.157500*%
%ADD15C,0.280800*%
%ADD16C,0.500000*%
%ADD17C,0.402900*%
%ADD18R,1.000000X1.800000*%
%ADD19R,0.850000X0.950000*%
%ADD20R,0.500000X0.900000*%
%ADD21R,0.500000X0.500000*%
%ADD22C,0.270000*%
%ADD23R,0.900000X1.000000*%
%ADD24C,0.300000*%
%ADD25C,1.050000*%
%ADD26C,0.450000*%
%ADD27C,0.304800*%
%ADD28C,0.457200*%
%ADD29C,0.431800*%
%ADD30C,0.609600*%
%ADD31C,0.406400*%
%ADD32C,0.254000*%
%ADD33C,0.330200*%
%ADD34C,0.453200*%
%ADD35C,0.508000*%
%ADD36C,0.203200*%
%ADD37C,0.200000*%

G36*
X211879Y3763D02*
X211879Y3763D01*
X211898Y3761D01*
X212000Y3783D01*
X212102Y3799D01*
X212119Y3809D01*
X212139Y3813D01*
X212228Y3866D01*
X212319Y3915D01*
X212333Y3929D01*
X212350Y3939D01*
X212417Y4018D01*
X212489Y4093D01*
X212497Y4111D01*
X212510Y4126D01*
X212549Y4222D01*
X212592Y4316D01*
X212594Y4336D01*
X212602Y4354D01*
X212620Y4521D01*
X212620Y120436D01*
X212617Y120456D01*
X212619Y120475D01*
X212597Y120577D01*
X212581Y120679D01*
X212571Y120696D01*
X212567Y120716D01*
X212514Y120805D01*
X212465Y120896D01*
X212451Y120910D01*
X212441Y120927D01*
X212362Y120994D01*
X212287Y121066D01*
X212269Y121074D01*
X212254Y121087D01*
X212158Y121126D01*
X212064Y121169D01*
X212044Y121171D01*
X212026Y121179D01*
X211859Y121197D01*
X208052Y121197D01*
X208049Y121197D01*
X208046Y121197D01*
X207926Y121177D01*
X207809Y121158D01*
X207807Y121156D01*
X207803Y121156D01*
X207696Y121098D01*
X207592Y121042D01*
X207590Y121040D01*
X207587Y121039D01*
X207504Y120950D01*
X207423Y120864D01*
X207421Y120861D01*
X207419Y120859D01*
X207369Y120749D01*
X207319Y120641D01*
X207319Y120638D01*
X207317Y120635D01*
X207292Y120469D01*
X207256Y119652D01*
X203665Y116361D01*
X201763Y116444D01*
X201743Y116442D01*
X201723Y116445D01*
X201621Y116428D01*
X201518Y116415D01*
X201500Y116407D01*
X201481Y116403D01*
X201389Y116354D01*
X201296Y116310D01*
X201282Y116296D01*
X201264Y116287D01*
X201194Y116211D01*
X201119Y116139D01*
X201110Y116121D01*
X201096Y116107D01*
X201054Y116013D01*
X201006Y115921D01*
X201003Y115901D01*
X200995Y115883D01*
X200969Y115717D01*
X200886Y113815D01*
X198622Y111740D01*
X198555Y111656D01*
X198485Y111574D01*
X198479Y111559D01*
X198470Y111547D01*
X198434Y111446D01*
X198393Y111346D01*
X198391Y111327D01*
X198387Y111315D01*
X198386Y111285D01*
X198375Y111179D01*
X198375Y110782D01*
X198389Y110692D01*
X198397Y110601D01*
X198409Y110571D01*
X198414Y110539D01*
X198457Y110458D01*
X198493Y110375D01*
X198519Y110342D01*
X198530Y110322D01*
X198553Y110300D01*
X198598Y110244D01*
X199851Y108991D01*
X199851Y104119D01*
X198505Y102773D01*
X198493Y102757D01*
X198477Y102745D01*
X198421Y102657D01*
X198361Y102574D01*
X198355Y102555D01*
X198344Y102538D01*
X198319Y102437D01*
X198289Y102338D01*
X198289Y102319D01*
X198284Y102299D01*
X198292Y102196D01*
X198295Y102093D01*
X198302Y102074D01*
X198303Y102054D01*
X198344Y101959D01*
X198379Y101862D01*
X198392Y101846D01*
X198400Y101828D01*
X198505Y101697D01*
X199851Y100351D01*
X199851Y95479D01*
X198471Y94099D01*
X198425Y94036D01*
X198406Y94015D01*
X198402Y94007D01*
X198358Y93956D01*
X198346Y93926D01*
X198327Y93900D01*
X198300Y93813D01*
X198266Y93728D01*
X198262Y93687D01*
X198255Y93665D01*
X198256Y93632D01*
X198248Y93561D01*
X198248Y92240D01*
X198262Y92150D01*
X198270Y92059D01*
X198282Y92029D01*
X198287Y91997D01*
X198330Y91916D01*
X198366Y91833D01*
X198392Y91800D01*
X198403Y91780D01*
X198426Y91758D01*
X198471Y91702D01*
X199724Y90449D01*
X199724Y85577D01*
X198378Y84231D01*
X198366Y84215D01*
X198350Y84203D01*
X198314Y84146D01*
X198288Y84119D01*
X198273Y84085D01*
X198234Y84032D01*
X198228Y84013D01*
X198217Y83996D01*
X198201Y83931D01*
X198185Y83896D01*
X198180Y83858D01*
X198162Y83796D01*
X198162Y83777D01*
X198157Y83757D01*
X198162Y83693D01*
X198158Y83652D01*
X198166Y83611D01*
X198168Y83551D01*
X198175Y83532D01*
X198176Y83512D01*
X198200Y83456D01*
X198210Y83411D01*
X198233Y83372D01*
X198252Y83320D01*
X198265Y83304D01*
X198273Y83286D01*
X198321Y83226D01*
X198336Y83200D01*
X198352Y83186D01*
X198378Y83155D01*
X199724Y81809D01*
X199724Y76937D01*
X198471Y75684D01*
X198418Y75610D01*
X198358Y75541D01*
X198346Y75511D01*
X198327Y75485D01*
X198300Y75398D01*
X198266Y75313D01*
X198262Y75272D01*
X198255Y75250D01*
X198256Y75217D01*
X198248Y75146D01*
X198248Y73825D01*
X198262Y73735D01*
X198270Y73644D01*
X198282Y73614D01*
X198287Y73582D01*
X198330Y73501D01*
X198366Y73418D01*
X198392Y73385D01*
X198403Y73365D01*
X198426Y73343D01*
X198471Y73287D01*
X199680Y72078D01*
X199680Y66606D01*
X198727Y65653D01*
X198674Y65579D01*
X198614Y65510D01*
X198602Y65480D01*
X198583Y65454D01*
X198556Y65367D01*
X198522Y65282D01*
X198518Y65241D01*
X198511Y65219D01*
X198512Y65186D01*
X198504Y65115D01*
X198504Y63790D01*
X198518Y63700D01*
X198526Y63609D01*
X198538Y63579D01*
X198543Y63547D01*
X198586Y63466D01*
X198622Y63383D01*
X198648Y63350D01*
X198659Y63330D01*
X198682Y63308D01*
X198727Y63252D01*
X199978Y62001D01*
X199978Y57129D01*
X198443Y55594D01*
X192971Y55594D01*
X191436Y57129D01*
X191436Y62001D01*
X192691Y63256D01*
X192744Y63330D01*
X192804Y63399D01*
X192816Y63429D01*
X192835Y63455D01*
X192862Y63542D01*
X192896Y63627D01*
X192900Y63668D01*
X192907Y63690D01*
X192906Y63723D01*
X192914Y63794D01*
X192914Y65115D01*
X192900Y65205D01*
X192892Y65296D01*
X192880Y65326D01*
X192875Y65358D01*
X192832Y65439D01*
X192796Y65522D01*
X192770Y65555D01*
X192759Y65575D01*
X192736Y65597D01*
X192691Y65653D01*
X191927Y66417D01*
X191911Y66429D01*
X191899Y66445D01*
X191811Y66501D01*
X191728Y66561D01*
X191709Y66567D01*
X191692Y66578D01*
X191591Y66603D01*
X191492Y66633D01*
X191473Y66633D01*
X191453Y66638D01*
X191350Y66630D01*
X191247Y66627D01*
X191228Y66620D01*
X191208Y66619D01*
X191113Y66578D01*
X191016Y66543D01*
X191000Y66530D01*
X190982Y66522D01*
X190851Y66417D01*
X189505Y65071D01*
X185271Y65071D01*
X185167Y65054D01*
X185062Y65042D01*
X185042Y65034D01*
X185028Y65032D01*
X185001Y65017D01*
X184907Y64978D01*
X181661Y63207D01*
X181601Y63160D01*
X181535Y63121D01*
X181504Y63085D01*
X181467Y63056D01*
X181425Y62992D01*
X181375Y62934D01*
X181358Y62890D01*
X181332Y62851D01*
X181312Y62777D01*
X181283Y62706D01*
X181276Y62643D01*
X181268Y62613D01*
X181270Y62587D01*
X181265Y62539D01*
X181265Y61272D01*
X179730Y59737D01*
X174858Y59737D01*
X173512Y61083D01*
X173496Y61095D01*
X173484Y61111D01*
X173396Y61167D01*
X173313Y61227D01*
X173294Y61233D01*
X173277Y61244D01*
X173176Y61269D01*
X173077Y61299D01*
X173058Y61299D01*
X173038Y61304D01*
X172935Y61296D01*
X172832Y61293D01*
X172813Y61286D01*
X172793Y61285D01*
X172698Y61244D01*
X172601Y61209D01*
X172585Y61196D01*
X172567Y61188D01*
X172436Y61083D01*
X171672Y60319D01*
X171619Y60246D01*
X171559Y60176D01*
X171547Y60146D01*
X171528Y60120D01*
X171501Y60033D01*
X171467Y59948D01*
X171463Y59907D01*
X171456Y59885D01*
X171457Y59852D01*
X171449Y59781D01*
X171449Y57948D01*
X171463Y57858D01*
X171471Y57767D01*
X171483Y57737D01*
X171488Y57705D01*
X171531Y57625D01*
X171567Y57541D01*
X171593Y57508D01*
X171604Y57488D01*
X171627Y57466D01*
X171672Y57410D01*
X172436Y56646D01*
X172452Y56634D01*
X172464Y56618D01*
X172552Y56562D01*
X172635Y56502D01*
X172654Y56496D01*
X172671Y56485D01*
X172772Y56460D01*
X172871Y56430D01*
X172890Y56430D01*
X172910Y56425D01*
X173013Y56433D01*
X173116Y56436D01*
X173135Y56443D01*
X173155Y56444D01*
X173250Y56485D01*
X173347Y56520D01*
X173363Y56533D01*
X173381Y56541D01*
X173512Y56646D01*
X174858Y57992D01*
X179730Y57992D01*
X181265Y56457D01*
X181265Y50985D01*
X180439Y50159D01*
X180386Y50085D01*
X180326Y50016D01*
X180314Y49986D01*
X180295Y49960D01*
X180268Y49873D01*
X180234Y49788D01*
X180230Y49747D01*
X180223Y49725D01*
X180224Y49692D01*
X180216Y49621D01*
X180216Y47407D01*
X180230Y47317D01*
X180238Y47226D01*
X180250Y47196D01*
X180255Y47164D01*
X180298Y47083D01*
X180334Y46999D01*
X180360Y46967D01*
X180371Y46947D01*
X180394Y46925D01*
X180439Y46869D01*
X181392Y45916D01*
X181392Y40444D01*
X179857Y38909D01*
X174985Y38909D01*
X173450Y40444D01*
X173450Y45916D01*
X174403Y46869D01*
X174456Y46943D01*
X174516Y47012D01*
X174528Y47042D01*
X174547Y47068D01*
X174574Y47155D01*
X174608Y47240D01*
X174612Y47281D01*
X174619Y47303D01*
X174618Y47336D01*
X174626Y47407D01*
X174626Y49367D01*
X174612Y49457D01*
X174604Y49548D01*
X174592Y49578D01*
X174587Y49610D01*
X174544Y49691D01*
X174508Y49775D01*
X174482Y49807D01*
X174471Y49827D01*
X174448Y49849D01*
X174403Y49905D01*
X173512Y50796D01*
X173496Y50808D01*
X173484Y50824D01*
X173397Y50880D01*
X173313Y50940D01*
X173293Y50946D01*
X173277Y50957D01*
X173176Y50982D01*
X173077Y51012D01*
X173058Y51012D01*
X173038Y51017D01*
X172935Y51009D01*
X172832Y51006D01*
X172813Y50999D01*
X172793Y50998D01*
X172698Y50957D01*
X172601Y50922D01*
X172585Y50909D01*
X172567Y50901D01*
X172436Y50796D01*
X171090Y49450D01*
X166218Y49450D01*
X164683Y50985D01*
X164683Y56457D01*
X165636Y57410D01*
X165689Y57484D01*
X165749Y57553D01*
X165761Y57583D01*
X165780Y57609D01*
X165807Y57696D01*
X165841Y57781D01*
X165845Y57822D01*
X165852Y57844D01*
X165851Y57877D01*
X165859Y57948D01*
X165859Y59781D01*
X165845Y59871D01*
X165837Y59962D01*
X165825Y59992D01*
X165820Y60024D01*
X165777Y60105D01*
X165741Y60189D01*
X165715Y60221D01*
X165704Y60241D01*
X165681Y60263D01*
X165636Y60319D01*
X164460Y61495D01*
X164415Y61528D01*
X164350Y61590D01*
X164332Y61598D01*
X164317Y61611D01*
X164278Y61627D01*
X164261Y61639D01*
X164210Y61654D01*
X164127Y61693D01*
X164107Y61695D01*
X164089Y61703D01*
X164033Y61709D01*
X164025Y61711D01*
X164014Y61711D01*
X163922Y61721D01*
X158184Y61721D01*
X155173Y64732D01*
X155099Y64785D01*
X155029Y64845D01*
X154999Y64857D01*
X154973Y64876D01*
X154886Y64903D01*
X154801Y64937D01*
X154760Y64941D01*
X154738Y64948D01*
X154706Y64947D01*
X154634Y64955D01*
X150947Y64955D01*
X150857Y64941D01*
X150766Y64933D01*
X150736Y64921D01*
X150704Y64916D01*
X150623Y64873D01*
X150539Y64837D01*
X150507Y64811D01*
X150487Y64800D01*
X150464Y64777D01*
X150408Y64732D01*
X150147Y64471D01*
X143231Y64471D01*
X143160Y64460D01*
X143088Y64458D01*
X143039Y64440D01*
X142988Y64432D01*
X142925Y64398D01*
X142857Y64373D01*
X142817Y64341D01*
X142771Y64316D01*
X142721Y64265D01*
X142665Y64220D01*
X142637Y64176D01*
X142601Y64138D01*
X142571Y64073D01*
X142532Y64013D01*
X142520Y63962D01*
X142498Y63915D01*
X142490Y63844D01*
X142472Y63774D01*
X142476Y63722D01*
X142471Y63671D01*
X142486Y63600D01*
X142491Y63529D01*
X142512Y63481D01*
X142523Y63430D01*
X142560Y63369D01*
X142588Y63303D01*
X142633Y63247D01*
X142649Y63219D01*
X142667Y63204D01*
X142693Y63172D01*
X145027Y60837D01*
X145044Y60825D01*
X145056Y60810D01*
X145143Y60754D01*
X145227Y60693D01*
X145246Y60688D01*
X145263Y60677D01*
X145363Y60651D01*
X145462Y60621D01*
X145482Y60622D01*
X145501Y60617D01*
X145604Y60625D01*
X145708Y60627D01*
X145727Y60634D01*
X145747Y60636D01*
X145841Y60676D01*
X145939Y60712D01*
X145955Y60724D01*
X145973Y60732D01*
X146104Y60837D01*
X148133Y62866D01*
X151079Y62866D01*
X153163Y60782D01*
X153163Y55739D01*
X153177Y55649D01*
X153185Y55558D01*
X153197Y55528D01*
X153202Y55496D01*
X153245Y55416D01*
X153281Y55332D01*
X153307Y55300D01*
X153318Y55279D01*
X153341Y55257D01*
X153386Y55201D01*
X154131Y54456D01*
X154131Y49648D01*
X152564Y48081D01*
X147131Y48081D01*
X147061Y48070D01*
X146989Y48068D01*
X146940Y48050D01*
X146889Y48042D01*
X146825Y48008D01*
X146758Y47983D01*
X146717Y47951D01*
X146671Y47926D01*
X146622Y47875D01*
X146566Y47830D01*
X146538Y47786D01*
X146502Y47748D01*
X146472Y47683D01*
X146433Y47623D01*
X146420Y47572D01*
X146398Y47525D01*
X146390Y47454D01*
X146373Y47384D01*
X146377Y47332D01*
X146371Y47281D01*
X146386Y47210D01*
X146392Y47139D01*
X146412Y47091D01*
X146423Y47040D01*
X146460Y46979D01*
X146488Y46913D01*
X146533Y46857D01*
X146549Y46829D01*
X146567Y46814D01*
X146593Y46782D01*
X146813Y46562D01*
X146813Y31370D01*
X145399Y29956D01*
X143955Y28512D01*
X143902Y28438D01*
X143842Y28369D01*
X143830Y28338D01*
X143811Y28312D01*
X143784Y28225D01*
X143750Y28140D01*
X143746Y28099D01*
X143739Y28077D01*
X143740Y28045D01*
X143732Y27974D01*
X143732Y20367D01*
X142987Y19622D01*
X133435Y19622D01*
X132690Y20367D01*
X132690Y30919D01*
X133435Y31664D01*
X141042Y31664D01*
X141132Y31678D01*
X141223Y31686D01*
X141252Y31698D01*
X141284Y31703D01*
X141365Y31746D01*
X141449Y31782D01*
X141481Y31808D01*
X141502Y31819D01*
X141524Y31842D01*
X141580Y31887D01*
X142524Y32831D01*
X142577Y32905D01*
X142637Y32974D01*
X142649Y33005D01*
X142668Y33031D01*
X142695Y33118D01*
X142729Y33203D01*
X142733Y33243D01*
X142740Y33266D01*
X142739Y33298D01*
X142747Y33369D01*
X142747Y44563D01*
X142733Y44653D01*
X142725Y44744D01*
X142713Y44773D01*
X142708Y44805D01*
X142665Y44886D01*
X142629Y44970D01*
X142603Y45002D01*
X142592Y45023D01*
X142569Y45045D01*
X142524Y45101D01*
X140351Y47274D01*
X140277Y47327D01*
X140208Y47387D01*
X140177Y47399D01*
X140151Y47418D01*
X140064Y47445D01*
X139979Y47479D01*
X139938Y47483D01*
X139916Y47490D01*
X139884Y47489D01*
X139813Y47497D01*
X136826Y47497D01*
X132752Y51571D01*
X131703Y52620D01*
X131645Y52662D01*
X131593Y52711D01*
X131546Y52733D01*
X131504Y52764D01*
X131435Y52785D01*
X131370Y52815D01*
X131318Y52821D01*
X131268Y52836D01*
X131197Y52834D01*
X131126Y52842D01*
X131075Y52831D01*
X131023Y52830D01*
X130955Y52805D01*
X130885Y52790D01*
X130840Y52763D01*
X130792Y52745D01*
X130736Y52700D01*
X130674Y52664D01*
X130640Y52624D01*
X130600Y52591D01*
X130561Y52531D01*
X130514Y52477D01*
X130495Y52428D01*
X130467Y52384D01*
X130449Y52315D01*
X130422Y52248D01*
X130414Y52177D01*
X130406Y52146D01*
X130408Y52123D01*
X130404Y52082D01*
X130404Y47519D01*
X130348Y47463D01*
X130306Y47405D01*
X130257Y47353D01*
X130235Y47306D01*
X130204Y47264D01*
X130183Y47195D01*
X130153Y47130D01*
X130147Y47078D01*
X130132Y47028D01*
X130134Y46957D01*
X130126Y46886D01*
X130137Y46835D01*
X130138Y46783D01*
X130163Y46715D01*
X130178Y46645D01*
X130205Y46600D01*
X130223Y46552D01*
X130268Y46496D01*
X130304Y46434D01*
X130344Y46400D01*
X130377Y46360D01*
X130437Y46321D01*
X130491Y46274D01*
X130540Y46255D01*
X130583Y46227D01*
X130653Y46209D01*
X130720Y46182D01*
X130791Y46174D01*
X130822Y46166D01*
X130845Y46168D01*
X130886Y46164D01*
X131487Y46164D01*
X132232Y45419D01*
X132232Y34867D01*
X131487Y34122D01*
X121935Y34122D01*
X121912Y34145D01*
X121896Y34156D01*
X121884Y34172D01*
X121797Y34228D01*
X121713Y34288D01*
X121693Y34294D01*
X121677Y34305D01*
X121576Y34330D01*
X121477Y34361D01*
X121457Y34360D01*
X121438Y34365D01*
X121335Y34357D01*
X121232Y34354D01*
X121213Y34347D01*
X121193Y34346D01*
X121098Y34305D01*
X121001Y34270D01*
X120985Y34257D01*
X120967Y34250D01*
X120836Y34145D01*
X119339Y32648D01*
X116392Y32648D01*
X114289Y34751D01*
X114287Y34776D01*
X114274Y34806D01*
X114269Y34838D01*
X114226Y34919D01*
X114190Y35003D01*
X114165Y35035D01*
X114154Y35055D01*
X114130Y35078D01*
X114086Y35134D01*
X112791Y36428D01*
X112717Y36481D01*
X112647Y36541D01*
X112617Y36553D01*
X112591Y36572D01*
X112504Y36599D01*
X112419Y36633D01*
X112378Y36637D01*
X112356Y36644D01*
X112324Y36643D01*
X112253Y36651D01*
X109437Y36651D01*
X107853Y38235D01*
X107837Y38247D01*
X107825Y38262D01*
X107737Y38318D01*
X107654Y38379D01*
X107635Y38384D01*
X107618Y38395D01*
X107517Y38421D01*
X107418Y38451D01*
X107399Y38450D01*
X107379Y38455D01*
X107276Y38447D01*
X107173Y38445D01*
X107154Y38438D01*
X107134Y38436D01*
X107039Y38396D01*
X106942Y38360D01*
X106926Y38348D01*
X106908Y38340D01*
X106777Y38235D01*
X105193Y36651D01*
X99785Y36651D01*
X99340Y37096D01*
X99266Y37149D01*
X99197Y37209D01*
X99166Y37221D01*
X99140Y37240D01*
X99053Y37267D01*
X98968Y37301D01*
X98928Y37305D01*
X98905Y37312D01*
X98873Y37311D01*
X98802Y37319D01*
X97783Y37319D01*
X97692Y37305D01*
X97602Y37297D01*
X97572Y37285D01*
X97540Y37280D01*
X97459Y37237D01*
X97375Y37201D01*
X97343Y37175D01*
X97322Y37164D01*
X97300Y37141D01*
X97244Y37096D01*
X97104Y36956D01*
X93932Y36956D01*
X93912Y36953D01*
X93893Y36955D01*
X93791Y36933D01*
X93689Y36917D01*
X93672Y36907D01*
X93652Y36903D01*
X93563Y36850D01*
X93472Y36801D01*
X93458Y36787D01*
X93441Y36777D01*
X93374Y36698D01*
X93302Y36623D01*
X93294Y36605D01*
X93281Y36590D01*
X93242Y36494D01*
X93199Y36400D01*
X93197Y36380D01*
X93189Y36362D01*
X93171Y36195D01*
X93171Y31523D01*
X91589Y29941D01*
X91553Y29933D01*
X91451Y29917D01*
X91434Y29907D01*
X91414Y29903D01*
X91325Y29850D01*
X91234Y29801D01*
X91220Y29787D01*
X91203Y29777D01*
X91136Y29698D01*
X91064Y29623D01*
X91056Y29605D01*
X91043Y29590D01*
X91004Y29494D01*
X90961Y29400D01*
X90959Y29380D01*
X90951Y29362D01*
X90933Y29195D01*
X90933Y28495D01*
X78801Y16363D01*
X78748Y16289D01*
X78688Y16220D01*
X78676Y16189D01*
X78657Y16163D01*
X78630Y16076D01*
X78596Y15991D01*
X78592Y15950D01*
X78585Y15928D01*
X78586Y15896D01*
X78578Y15825D01*
X78578Y14036D01*
X76515Y11973D01*
X73599Y11973D01*
X71536Y14036D01*
X71536Y16952D01*
X73599Y19015D01*
X75388Y19015D01*
X75478Y19029D01*
X75569Y19037D01*
X75598Y19049D01*
X75630Y19054D01*
X75711Y19097D01*
X75795Y19133D01*
X75827Y19159D01*
X75848Y19170D01*
X75870Y19193D01*
X75926Y19238D01*
X85882Y29194D01*
X85894Y29210D01*
X85909Y29222D01*
X85965Y29310D01*
X86026Y29393D01*
X86031Y29412D01*
X86042Y29429D01*
X86068Y29530D01*
X86098Y29629D01*
X86097Y29649D01*
X86102Y29668D01*
X86094Y29771D01*
X86092Y29874D01*
X86085Y29893D01*
X86083Y29913D01*
X86043Y30008D01*
X86007Y30105D01*
X85995Y30121D01*
X85987Y30139D01*
X85882Y30270D01*
X84629Y31523D01*
X84629Y36331D01*
X85987Y37689D01*
X85999Y37705D01*
X86014Y37717D01*
X86070Y37805D01*
X86131Y37888D01*
X86136Y37907D01*
X86147Y37924D01*
X86173Y38025D01*
X86203Y38124D01*
X86202Y38143D01*
X86207Y38163D01*
X86199Y38266D01*
X86197Y38369D01*
X86190Y38388D01*
X86188Y38408D01*
X86148Y38503D01*
X86112Y38600D01*
X86100Y38616D01*
X86092Y38634D01*
X85987Y38765D01*
X84612Y40140D01*
X84596Y40152D01*
X84584Y40167D01*
X84496Y40223D01*
X84413Y40284D01*
X84394Y40289D01*
X84377Y40300D01*
X84276Y40326D01*
X84177Y40356D01*
X84158Y40355D01*
X84138Y40360D01*
X84035Y40352D01*
X83932Y40350D01*
X83913Y40343D01*
X83893Y40341D01*
X83798Y40301D01*
X83701Y40265D01*
X83685Y40253D01*
X83667Y40245D01*
X83536Y40140D01*
X81825Y38429D01*
X76417Y38429D01*
X74850Y39996D01*
X74850Y44804D01*
X75679Y45632D01*
X75690Y45648D01*
X75706Y45661D01*
X75762Y45748D01*
X75822Y45832D01*
X75828Y45851D01*
X75839Y45868D01*
X75864Y45968D01*
X75895Y46067D01*
X75894Y46087D01*
X75899Y46106D01*
X75891Y46209D01*
X75888Y46313D01*
X75881Y46332D01*
X75880Y46352D01*
X75839Y46446D01*
X75804Y46544D01*
X75791Y46560D01*
X75784Y46578D01*
X75679Y46709D01*
X74071Y48316D01*
X74013Y48358D01*
X73961Y48408D01*
X73914Y48430D01*
X73872Y48460D01*
X73803Y48481D01*
X73738Y48511D01*
X73686Y48517D01*
X73636Y48532D01*
X73565Y48530D01*
X73494Y48538D01*
X73443Y48527D01*
X73391Y48526D01*
X73323Y48501D01*
X73253Y48486D01*
X73209Y48459D01*
X73160Y48441D01*
X73104Y48397D01*
X73042Y48360D01*
X73008Y48320D01*
X72968Y48288D01*
X72929Y48227D01*
X72882Y48173D01*
X72878Y48163D01*
X72868Y48153D01*
X72815Y48079D01*
X72755Y48009D01*
X72743Y47979D01*
X72724Y47953D01*
X72697Y47866D01*
X72663Y47781D01*
X72659Y47740D01*
X72652Y47718D01*
X72653Y47686D01*
X72645Y47614D01*
X72645Y45706D01*
X72659Y45616D01*
X72667Y45525D01*
X72679Y45495D01*
X72684Y45463D01*
X72727Y45383D01*
X72763Y45299D01*
X72789Y45267D01*
X72800Y45246D01*
X72823Y45224D01*
X72868Y45168D01*
X73232Y44804D01*
X73232Y39996D01*
X71665Y38429D01*
X66257Y38429D01*
X64690Y39996D01*
X64690Y44804D01*
X65562Y45676D01*
X65615Y45750D01*
X65675Y45819D01*
X65687Y45850D01*
X65706Y45876D01*
X65733Y45963D01*
X65767Y46048D01*
X65771Y46088D01*
X65778Y46111D01*
X65777Y46143D01*
X65785Y46214D01*
X65785Y47614D01*
X65771Y47705D01*
X65763Y47795D01*
X65751Y47825D01*
X65746Y47857D01*
X65703Y47938D01*
X65667Y48022D01*
X65658Y48033D01*
X65658Y48175D01*
X65644Y48265D01*
X65636Y48356D01*
X65624Y48386D01*
X65619Y48418D01*
X65576Y48498D01*
X65540Y48582D01*
X65514Y48614D01*
X65503Y48635D01*
X65480Y48657D01*
X65435Y48713D01*
X64461Y49687D01*
X64387Y49740D01*
X64318Y49800D01*
X64288Y49812D01*
X64262Y49831D01*
X64175Y49858D01*
X64090Y49892D01*
X64076Y49893D01*
X61874Y52095D01*
X61857Y52107D01*
X61845Y52123D01*
X61758Y52179D01*
X61674Y52239D01*
X61655Y52245D01*
X61638Y52256D01*
X61538Y52281D01*
X61439Y52311D01*
X61419Y52311D01*
X61400Y52316D01*
X61297Y52308D01*
X61193Y52305D01*
X61174Y52298D01*
X61154Y52297D01*
X61059Y52256D01*
X60962Y52221D01*
X60946Y52208D01*
X60928Y52200D01*
X60797Y52095D01*
X60783Y52081D01*
X52659Y52081D01*
X50450Y54290D01*
X50450Y66614D01*
X52659Y68823D01*
X57316Y68823D01*
X57406Y68837D01*
X57497Y68845D01*
X57527Y68857D01*
X57559Y68862D01*
X57639Y68905D01*
X57723Y68941D01*
X57756Y68967D01*
X57776Y68978D01*
X57798Y69001D01*
X57854Y69046D01*
X60418Y71610D01*
X60460Y71668D01*
X60510Y71720D01*
X60532Y71767D01*
X60562Y71809D01*
X60583Y71878D01*
X60613Y71943D01*
X60619Y71995D01*
X60634Y72045D01*
X60632Y72116D01*
X60640Y72187D01*
X60629Y72238D01*
X60628Y72290D01*
X60603Y72358D01*
X60588Y72428D01*
X60561Y72473D01*
X60543Y72521D01*
X60499Y72577D01*
X60462Y72639D01*
X60422Y72673D01*
X60390Y72713D01*
X60329Y72752D01*
X60275Y72799D01*
X60227Y72818D01*
X60183Y72846D01*
X60113Y72864D01*
X60047Y72891D01*
X59975Y72899D01*
X59944Y72907D01*
X59921Y72905D01*
X59880Y72909D01*
X51643Y72909D01*
X49434Y75118D01*
X49434Y87442D01*
X51643Y89651D01*
X59767Y89651D01*
X59806Y89611D01*
X59823Y89600D01*
X59835Y89584D01*
X59922Y89528D01*
X60006Y89468D01*
X60025Y89462D01*
X60042Y89451D01*
X60142Y89426D01*
X60241Y89395D01*
X60261Y89396D01*
X60281Y89391D01*
X60384Y89399D01*
X60487Y89402D01*
X60506Y89408D01*
X60526Y89410D01*
X60621Y89450D01*
X60718Y89486D01*
X60734Y89498D01*
X60752Y89506D01*
X60883Y89611D01*
X62677Y91405D01*
X64171Y91405D01*
X64191Y91408D01*
X64210Y91406D01*
X64312Y91428D01*
X64414Y91444D01*
X64431Y91454D01*
X64451Y91458D01*
X64540Y91511D01*
X64631Y91560D01*
X64645Y91574D01*
X64662Y91584D01*
X64729Y91663D01*
X64801Y91738D01*
X64809Y91756D01*
X64822Y91771D01*
X64861Y91867D01*
X64904Y91961D01*
X64906Y91981D01*
X64914Y91999D01*
X64932Y92166D01*
X64932Y93000D01*
X64929Y93020D01*
X64931Y93039D01*
X64909Y93141D01*
X64893Y93243D01*
X64883Y93260D01*
X64879Y93280D01*
X64826Y93369D01*
X64777Y93460D01*
X64763Y93474D01*
X64753Y93491D01*
X64674Y93558D01*
X64599Y93630D01*
X64581Y93638D01*
X64566Y93651D01*
X64470Y93690D01*
X64376Y93733D01*
X64356Y93735D01*
X64338Y93743D01*
X64171Y93761D01*
X62804Y93761D01*
X60741Y95824D01*
X60741Y98740D01*
X62804Y100803D01*
X63663Y100803D01*
X63683Y100806D01*
X63702Y100804D01*
X63804Y100826D01*
X63906Y100842D01*
X63923Y100852D01*
X63943Y100856D01*
X64032Y100909D01*
X64123Y100958D01*
X64137Y100972D01*
X64154Y100982D01*
X64221Y101061D01*
X64293Y101136D01*
X64301Y101154D01*
X64314Y101169D01*
X64353Y101265D01*
X64396Y101359D01*
X64398Y101379D01*
X64406Y101397D01*
X64424Y101564D01*
X64424Y103160D01*
X64421Y103180D01*
X64423Y103199D01*
X64401Y103301D01*
X64385Y103403D01*
X64375Y103420D01*
X64371Y103440D01*
X64318Y103529D01*
X64269Y103620D01*
X64255Y103634D01*
X64245Y103651D01*
X64166Y103718D01*
X64091Y103790D01*
X64073Y103798D01*
X64058Y103811D01*
X63962Y103850D01*
X63868Y103893D01*
X63848Y103895D01*
X63830Y103903D01*
X63663Y103921D01*
X63185Y103921D01*
X61122Y105984D01*
X61122Y108900D01*
X63185Y110963D01*
X63917Y110963D01*
X63937Y110966D01*
X63956Y110964D01*
X64058Y110986D01*
X64160Y111002D01*
X64177Y111012D01*
X64197Y111016D01*
X64286Y111069D01*
X64377Y111118D01*
X64391Y111132D01*
X64408Y111142D01*
X64475Y111221D01*
X64547Y111296D01*
X64555Y111314D01*
X64568Y111329D01*
X64607Y111425D01*
X64650Y111519D01*
X64652Y111539D01*
X64660Y111557D01*
X64678Y111724D01*
X64678Y112304D01*
X64675Y112324D01*
X64677Y112343D01*
X64655Y112445D01*
X64639Y112547D01*
X64629Y112564D01*
X64625Y112584D01*
X64572Y112673D01*
X64523Y112764D01*
X64509Y112778D01*
X64499Y112795D01*
X64420Y112862D01*
X64345Y112934D01*
X64327Y112942D01*
X64312Y112955D01*
X64216Y112994D01*
X64122Y113037D01*
X64102Y113039D01*
X64084Y113047D01*
X63917Y113065D01*
X62931Y113065D01*
X60868Y115128D01*
X60868Y118044D01*
X62931Y120107D01*
X63790Y120107D01*
X63810Y120110D01*
X63829Y120108D01*
X63931Y120130D01*
X64033Y120146D01*
X64050Y120156D01*
X64070Y120160D01*
X64159Y120213D01*
X64250Y120262D01*
X64264Y120276D01*
X64281Y120286D01*
X64348Y120365D01*
X64420Y120440D01*
X64428Y120458D01*
X64441Y120473D01*
X64480Y120569D01*
X64523Y120663D01*
X64525Y120683D01*
X64533Y120701D01*
X64551Y120868D01*
X64551Y123505D01*
X66614Y125568D01*
X69530Y125568D01*
X70302Y124796D01*
X70318Y124785D01*
X70330Y124769D01*
X70418Y124713D01*
X70501Y124653D01*
X70520Y124647D01*
X70537Y124636D01*
X70638Y124611D01*
X70737Y124580D01*
X70756Y124581D01*
X70776Y124576D01*
X70879Y124584D01*
X70982Y124587D01*
X71001Y124594D01*
X71021Y124595D01*
X71116Y124636D01*
X71213Y124671D01*
X71229Y124684D01*
X71247Y124692D01*
X71378Y124796D01*
X71595Y125013D01*
X74926Y125013D01*
X74997Y125024D01*
X75069Y125026D01*
X75118Y125044D01*
X75169Y125052D01*
X75232Y125086D01*
X75300Y125111D01*
X75340Y125143D01*
X75387Y125168D01*
X75436Y125220D01*
X75492Y125264D01*
X75520Y125308D01*
X75556Y125346D01*
X75586Y125411D01*
X75625Y125471D01*
X75638Y125522D01*
X75660Y125569D01*
X75667Y125640D01*
X75685Y125710D01*
X75681Y125762D01*
X75687Y125813D01*
X75671Y125884D01*
X75666Y125955D01*
X75645Y126003D01*
X75634Y126054D01*
X75598Y126115D01*
X75569Y126181D01*
X75525Y126237D01*
X75508Y126265D01*
X75490Y126280D01*
X75465Y126312D01*
X74076Y127701D01*
X74076Y130617D01*
X76139Y132680D01*
X79055Y132680D01*
X79301Y132434D01*
X79359Y132392D01*
X79411Y132343D01*
X79458Y132321D01*
X79500Y132291D01*
X79569Y132270D01*
X79634Y132239D01*
X79686Y132234D01*
X79736Y132218D01*
X79807Y132220D01*
X79878Y132212D01*
X79929Y132223D01*
X79981Y132225D01*
X80049Y132249D01*
X80119Y132265D01*
X80164Y132291D01*
X80212Y132309D01*
X80268Y132354D01*
X80330Y132391D01*
X80364Y132430D01*
X80404Y132463D01*
X80443Y132523D01*
X80490Y132578D01*
X80509Y132626D01*
X80537Y132670D01*
X80555Y132739D01*
X80582Y132806D01*
X80590Y132877D01*
X80598Y132908D01*
X80596Y132932D01*
X80600Y132973D01*
X80600Y134018D01*
X81345Y134763D01*
X84727Y134763D01*
X84798Y134774D01*
X84870Y134776D01*
X84919Y134794D01*
X84970Y134802D01*
X85033Y134836D01*
X85101Y134861D01*
X85141Y134893D01*
X85187Y134918D01*
X85237Y134970D01*
X85293Y135014D01*
X85321Y135058D01*
X85357Y135096D01*
X85387Y135161D01*
X85426Y135221D01*
X85438Y135272D01*
X85460Y135319D01*
X85468Y135390D01*
X85486Y135460D01*
X85482Y135512D01*
X85487Y135563D01*
X85472Y135634D01*
X85467Y135705D01*
X85446Y135753D01*
X85435Y135804D01*
X85398Y135865D01*
X85370Y135931D01*
X85325Y135987D01*
X85309Y136015D01*
X85291Y136030D01*
X85265Y136062D01*
X82819Y138508D01*
X82745Y138561D01*
X82676Y138621D01*
X82646Y138633D01*
X82620Y138652D01*
X82532Y138679D01*
X82448Y138713D01*
X82407Y138717D01*
X82385Y138724D01*
X82352Y138723D01*
X82281Y138731D01*
X79874Y138731D01*
X78307Y140298D01*
X78307Y145706D01*
X79874Y147273D01*
X84521Y147273D01*
X84591Y147284D01*
X84663Y147286D01*
X84712Y147304D01*
X84764Y147312D01*
X84827Y147346D01*
X84894Y147371D01*
X84935Y147403D01*
X84981Y147428D01*
X85030Y147480D01*
X85086Y147524D01*
X85114Y147568D01*
X85150Y147606D01*
X85180Y147671D01*
X85219Y147731D01*
X85232Y147782D01*
X85254Y147829D01*
X85262Y147900D01*
X85279Y147970D01*
X85275Y148022D01*
X85281Y148073D01*
X85266Y148144D01*
X85260Y148215D01*
X85240Y148263D01*
X85229Y148314D01*
X85192Y148375D01*
X85164Y148441D01*
X85119Y148497D01*
X85103Y148525D01*
X85085Y148540D01*
X85059Y148572D01*
X83712Y149919D01*
X83712Y152849D01*
X85784Y154921D01*
X88714Y154921D01*
X90804Y152831D01*
X90808Y152779D01*
X90820Y152750D01*
X90825Y152718D01*
X90836Y152697D01*
X90839Y152685D01*
X90869Y152634D01*
X90904Y152553D01*
X90930Y152521D01*
X90941Y152500D01*
X90961Y152481D01*
X90965Y152474D01*
X90972Y152468D01*
X91009Y152422D01*
X92026Y151405D01*
X92100Y151352D01*
X92169Y151292D01*
X92200Y151280D01*
X92226Y151261D01*
X92313Y151234D01*
X92398Y151200D01*
X92439Y151196D01*
X92461Y151189D01*
X92493Y151190D01*
X92564Y151182D01*
X96049Y151182D01*
X97616Y149615D01*
X97616Y144807D01*
X96363Y143554D01*
X96310Y143480D01*
X96250Y143411D01*
X96238Y143380D01*
X96219Y143354D01*
X96192Y143267D01*
X96158Y143182D01*
X96154Y143142D01*
X96147Y143119D01*
X96148Y143087D01*
X96140Y143016D01*
X96140Y141696D01*
X96143Y141676D01*
X96141Y141657D01*
X96163Y141555D01*
X96179Y141453D01*
X96189Y141436D01*
X96193Y141416D01*
X96246Y141327D01*
X96295Y141236D01*
X96309Y141222D01*
X96319Y141205D01*
X96398Y141138D01*
X96473Y141066D01*
X96491Y141058D01*
X96506Y141045D01*
X96602Y141006D01*
X96696Y140963D01*
X96716Y140961D01*
X96734Y140953D01*
X96901Y140935D01*
X99350Y140935D01*
X99370Y140938D01*
X99389Y140936D01*
X99491Y140958D01*
X99593Y140974D01*
X99610Y140984D01*
X99630Y140988D01*
X99719Y141041D01*
X99810Y141090D01*
X99824Y141104D01*
X99841Y141114D01*
X99908Y141193D01*
X99980Y141268D01*
X99988Y141286D01*
X100001Y141301D01*
X100040Y141397D01*
X100083Y141491D01*
X100085Y141511D01*
X100093Y141529D01*
X100111Y141696D01*
X100111Y141920D01*
X102174Y143983D01*
X105090Y143983D01*
X107153Y141920D01*
X107153Y141315D01*
X107156Y141295D01*
X107154Y141276D01*
X107176Y141174D01*
X107192Y141072D01*
X107202Y141055D01*
X107206Y141035D01*
X107259Y140946D01*
X107308Y140855D01*
X107322Y140841D01*
X107332Y140824D01*
X107411Y140757D01*
X107486Y140685D01*
X107504Y140677D01*
X107519Y140664D01*
X107615Y140625D01*
X107709Y140582D01*
X107729Y140580D01*
X107747Y140572D01*
X107914Y140554D01*
X109256Y140554D01*
X109276Y140557D01*
X109295Y140555D01*
X109397Y140577D01*
X109499Y140593D01*
X109516Y140603D01*
X109536Y140607D01*
X109625Y140660D01*
X109716Y140709D01*
X109730Y140723D01*
X109747Y140733D01*
X109814Y140812D01*
X109886Y140887D01*
X109894Y140905D01*
X109907Y140920D01*
X109946Y141016D01*
X109989Y141110D01*
X109991Y141130D01*
X109999Y141148D01*
X110017Y141315D01*
X110017Y142301D01*
X112080Y144364D01*
X114996Y144364D01*
X117059Y142301D01*
X117059Y141442D01*
X117062Y141422D01*
X117060Y141403D01*
X117082Y141301D01*
X117098Y141199D01*
X117108Y141182D01*
X117112Y141162D01*
X117165Y141073D01*
X117214Y140982D01*
X117228Y140968D01*
X117238Y140951D01*
X117317Y140884D01*
X117392Y140812D01*
X117410Y140804D01*
X117425Y140791D01*
X117521Y140752D01*
X117615Y140709D01*
X117635Y140707D01*
X117653Y140699D01*
X117820Y140681D01*
X119035Y140681D01*
X119055Y140684D01*
X119074Y140682D01*
X119176Y140704D01*
X119278Y140720D01*
X119295Y140730D01*
X119315Y140734D01*
X119404Y140787D01*
X119495Y140836D01*
X119509Y140850D01*
X119526Y140860D01*
X119593Y140939D01*
X119665Y141014D01*
X119673Y141032D01*
X119686Y141047D01*
X119725Y141143D01*
X119768Y141237D01*
X119770Y141257D01*
X119778Y141275D01*
X119796Y141442D01*
X119796Y142174D01*
X121859Y144237D01*
X124775Y144237D01*
X126838Y142174D01*
X126838Y141696D01*
X126841Y141676D01*
X126839Y141657D01*
X126861Y141555D01*
X126877Y141453D01*
X126887Y141436D01*
X126891Y141416D01*
X126944Y141327D01*
X126993Y141236D01*
X127007Y141222D01*
X127017Y141205D01*
X127096Y141138D01*
X127171Y141066D01*
X127189Y141058D01*
X127204Y141045D01*
X127300Y141006D01*
X127394Y140963D01*
X127414Y140961D01*
X127432Y140953D01*
X127599Y140935D01*
X129925Y140935D01*
X130015Y140949D01*
X130106Y140957D01*
X130136Y140969D01*
X130168Y140974D01*
X130249Y141017D01*
X130333Y141053D01*
X130365Y141079D01*
X130385Y141090D01*
X130408Y141113D01*
X130464Y141158D01*
X132273Y142967D01*
X133271Y142967D01*
X133291Y142970D01*
X133310Y142968D01*
X133412Y142990D01*
X133514Y143006D01*
X133531Y143016D01*
X133551Y143020D01*
X133640Y143073D01*
X133731Y143122D01*
X133745Y143136D01*
X133762Y143146D01*
X133829Y143225D01*
X133901Y143300D01*
X133909Y143318D01*
X133922Y143333D01*
X133961Y143429D01*
X134004Y143523D01*
X134006Y143543D01*
X134014Y143561D01*
X134032Y143728D01*
X134032Y148345D01*
X135599Y149912D01*
X141007Y149912D01*
X142574Y148345D01*
X142574Y146656D01*
X142588Y146566D01*
X142596Y146475D01*
X142608Y146446D01*
X142613Y146414D01*
X142656Y146333D01*
X142692Y146249D01*
X142718Y146217D01*
X142729Y146196D01*
X142752Y146174D01*
X142797Y146118D01*
X144566Y144349D01*
X144640Y144296D01*
X144709Y144236D01*
X144740Y144224D01*
X144766Y144205D01*
X144853Y144178D01*
X144938Y144144D01*
X144979Y144140D01*
X145001Y144133D01*
X145033Y144134D01*
X145104Y144126D01*
X145356Y144126D01*
X147428Y142054D01*
X147428Y139124D01*
X145356Y137052D01*
X142331Y137052D01*
X142311Y137049D01*
X142292Y137051D01*
X142190Y137029D01*
X142088Y137013D01*
X142071Y137003D01*
X142051Y136999D01*
X141962Y136946D01*
X141871Y136897D01*
X141857Y136883D01*
X141840Y136873D01*
X141773Y136794D01*
X141701Y136719D01*
X141693Y136701D01*
X141680Y136686D01*
X141641Y136590D01*
X141598Y136496D01*
X141596Y136476D01*
X141588Y136458D01*
X141570Y136291D01*
X141570Y136199D01*
X141389Y136018D01*
X141336Y135944D01*
X141276Y135875D01*
X141264Y135844D01*
X141245Y135818D01*
X141218Y135731D01*
X141184Y135646D01*
X141180Y135606D01*
X141173Y135583D01*
X141174Y135551D01*
X141166Y135480D01*
X141166Y127925D01*
X141160Y127912D01*
X141156Y127871D01*
X141149Y127849D01*
X141150Y127816D01*
X141142Y127745D01*
X141142Y125774D01*
X141145Y125754D01*
X141143Y125735D01*
X141165Y125633D01*
X141181Y125531D01*
X141191Y125514D01*
X141195Y125494D01*
X141248Y125405D01*
X141297Y125314D01*
X141311Y125300D01*
X141321Y125283D01*
X141400Y125216D01*
X141475Y125144D01*
X141493Y125136D01*
X141508Y125123D01*
X141604Y125084D01*
X141698Y125041D01*
X141718Y125039D01*
X141736Y125031D01*
X141903Y125013D01*
X149817Y125013D01*
X149907Y125027D01*
X149998Y125035D01*
X150028Y125047D01*
X150060Y125052D01*
X150141Y125095D01*
X150225Y125131D01*
X150257Y125157D01*
X150277Y125168D01*
X150300Y125191D01*
X150356Y125236D01*
X152212Y127092D01*
X152908Y127092D01*
X152928Y127095D01*
X152947Y127093D01*
X153049Y127115D01*
X153151Y127131D01*
X153168Y127141D01*
X153188Y127145D01*
X153277Y127198D01*
X153368Y127247D01*
X153382Y127261D01*
X153399Y127271D01*
X153466Y127350D01*
X153538Y127425D01*
X153546Y127443D01*
X153559Y127458D01*
X153598Y127554D01*
X153641Y127648D01*
X153643Y127668D01*
X153651Y127686D01*
X153669Y127853D01*
X153669Y128792D01*
X153655Y128882D01*
X153647Y128973D01*
X153635Y129003D01*
X153630Y129035D01*
X153587Y129115D01*
X153551Y129199D01*
X153525Y129231D01*
X153514Y129252D01*
X153491Y129274D01*
X153446Y129330D01*
X151749Y131027D01*
X151749Y136435D01*
X153096Y137782D01*
X153138Y137840D01*
X153187Y137892D01*
X153209Y137939D01*
X153240Y137981D01*
X153261Y138050D01*
X153291Y138115D01*
X153297Y138167D01*
X153312Y138217D01*
X153310Y138288D01*
X153318Y138359D01*
X153307Y138410D01*
X153306Y138462D01*
X153281Y138530D01*
X153266Y138600D01*
X153239Y138645D01*
X153221Y138693D01*
X153176Y138749D01*
X153140Y138811D01*
X153100Y138845D01*
X153067Y138885D01*
X153007Y138924D01*
X152953Y138971D01*
X152904Y138990D01*
X152861Y139018D01*
X152791Y139036D01*
X152725Y139063D01*
X152653Y139071D01*
X152622Y139079D01*
X152599Y139077D01*
X152558Y139081D01*
X151011Y139081D01*
X150266Y139826D01*
X150266Y158878D01*
X151011Y159623D01*
X162063Y159623D01*
X162839Y158847D01*
X162913Y158794D01*
X162983Y158734D01*
X163013Y158722D01*
X163039Y158703D01*
X163126Y158676D01*
X163211Y158642D01*
X163252Y158638D01*
X163274Y158631D01*
X163306Y158632D01*
X163378Y158624D01*
X174696Y158624D01*
X174786Y158638D01*
X174877Y158646D01*
X174907Y158658D01*
X174939Y158663D01*
X175020Y158706D01*
X175104Y158742D01*
X175136Y158768D01*
X175156Y158779D01*
X175179Y158802D01*
X175235Y158847D01*
X176011Y159623D01*
X187063Y159623D01*
X187808Y158878D01*
X187808Y139826D01*
X187063Y139081D01*
X185389Y139081D01*
X185318Y139070D01*
X185247Y139068D01*
X185198Y139050D01*
X185146Y139042D01*
X185083Y139008D01*
X185016Y138983D01*
X184975Y138951D01*
X184929Y138926D01*
X184880Y138874D01*
X184824Y138830D01*
X184796Y138786D01*
X184760Y138748D01*
X184729Y138683D01*
X184691Y138623D01*
X184678Y138572D01*
X184656Y138525D01*
X184648Y138454D01*
X184631Y138384D01*
X184635Y138332D01*
X184629Y138281D01*
X184644Y138210D01*
X184650Y138139D01*
X184670Y138091D01*
X184681Y138040D01*
X184718Y137979D01*
X184746Y137913D01*
X184791Y137857D01*
X184807Y137829D01*
X184825Y137814D01*
X184851Y137782D01*
X186198Y136435D01*
X186198Y131027D01*
X184483Y129312D01*
X184430Y129238D01*
X184370Y129169D01*
X184358Y129138D01*
X184339Y129112D01*
X184312Y129025D01*
X184278Y128940D01*
X184274Y128900D01*
X184267Y128877D01*
X184268Y128845D01*
X184260Y128774D01*
X184260Y128680D01*
X179150Y123570D01*
X171210Y123570D01*
X171120Y123556D01*
X171029Y123548D01*
X171000Y123536D01*
X170968Y123531D01*
X170887Y123488D01*
X170803Y123452D01*
X170771Y123426D01*
X170750Y123415D01*
X170728Y123392D01*
X170672Y123347D01*
X166086Y118761D01*
X166033Y118687D01*
X165973Y118618D01*
X165961Y118587D01*
X165942Y118561D01*
X165915Y118474D01*
X165881Y118389D01*
X165877Y118348D01*
X165870Y118326D01*
X165871Y118294D01*
X165863Y118223D01*
X165863Y89995D01*
X165866Y89975D01*
X165864Y89956D01*
X165886Y89854D01*
X165902Y89752D01*
X165912Y89735D01*
X165916Y89715D01*
X165969Y89626D01*
X166018Y89535D01*
X166032Y89521D01*
X166042Y89504D01*
X166121Y89437D01*
X166196Y89365D01*
X166214Y89357D01*
X166229Y89344D01*
X166325Y89305D01*
X166419Y89262D01*
X166439Y89260D01*
X166457Y89252D01*
X166624Y89234D01*
X171090Y89234D01*
X172625Y87699D01*
X172625Y82227D01*
X171545Y81147D01*
X171497Y81081D01*
X171490Y81074D01*
X171488Y81070D01*
X171432Y81004D01*
X171420Y80974D01*
X171401Y80948D01*
X171374Y80861D01*
X171340Y80776D01*
X171336Y80735D01*
X171329Y80713D01*
X171330Y80680D01*
X171322Y80609D01*
X171322Y78903D01*
X171336Y78813D01*
X171344Y78722D01*
X171356Y78692D01*
X171361Y78660D01*
X171404Y78579D01*
X171440Y78496D01*
X171466Y78463D01*
X171477Y78443D01*
X171500Y78421D01*
X171545Y78365D01*
X172309Y77601D01*
X172325Y77589D01*
X172337Y77573D01*
X172425Y77517D01*
X172508Y77457D01*
X172527Y77451D01*
X172544Y77440D01*
X172645Y77415D01*
X172744Y77385D01*
X172763Y77385D01*
X172783Y77380D01*
X172886Y77388D01*
X172989Y77391D01*
X173008Y77398D01*
X173028Y77399D01*
X173123Y77440D01*
X173220Y77475D01*
X173236Y77488D01*
X173254Y77496D01*
X173385Y77601D01*
X174731Y78947D01*
X179603Y78947D01*
X181138Y77412D01*
X181138Y76166D01*
X181150Y76088D01*
X181154Y76010D01*
X181170Y75968D01*
X181177Y75923D01*
X181214Y75854D01*
X181243Y75780D01*
X181271Y75746D01*
X181293Y75706D01*
X181350Y75652D01*
X181400Y75591D01*
X181449Y75557D01*
X181471Y75537D01*
X181496Y75525D01*
X181538Y75496D01*
X184865Y73704D01*
X184963Y73670D01*
X185059Y73631D01*
X185083Y73629D01*
X185097Y73624D01*
X185129Y73623D01*
X185226Y73613D01*
X189505Y73613D01*
X190851Y72267D01*
X190867Y72255D01*
X190879Y72239D01*
X190967Y72183D01*
X191050Y72123D01*
X191069Y72117D01*
X191086Y72106D01*
X191187Y72081D01*
X191286Y72051D01*
X191305Y72051D01*
X191325Y72046D01*
X191428Y72054D01*
X191531Y72057D01*
X191550Y72064D01*
X191570Y72065D01*
X191665Y72106D01*
X191762Y72141D01*
X191778Y72154D01*
X191796Y72162D01*
X191927Y72267D01*
X192435Y72775D01*
X192488Y72849D01*
X192548Y72918D01*
X192560Y72948D01*
X192579Y72974D01*
X192606Y73061D01*
X192640Y73146D01*
X192644Y73187D01*
X192651Y73209D01*
X192650Y73242D01*
X192658Y73313D01*
X192658Y75146D01*
X192644Y75236D01*
X192636Y75327D01*
X192624Y75357D01*
X192619Y75389D01*
X192576Y75470D01*
X192540Y75553D01*
X192514Y75586D01*
X192503Y75606D01*
X192480Y75628D01*
X192435Y75684D01*
X191182Y76937D01*
X191182Y81809D01*
X192528Y83155D01*
X192540Y83171D01*
X192556Y83183D01*
X192584Y83227D01*
X192618Y83263D01*
X192639Y83308D01*
X192672Y83354D01*
X192678Y83373D01*
X192689Y83390D01*
X192703Y83446D01*
X192721Y83486D01*
X192726Y83531D01*
X192744Y83590D01*
X192744Y83609D01*
X192749Y83629D01*
X192744Y83690D01*
X192748Y83730D01*
X192740Y83771D01*
X192738Y83835D01*
X192731Y83854D01*
X192730Y83874D01*
X192704Y83934D01*
X192696Y83971D01*
X192676Y84004D01*
X192654Y84066D01*
X192641Y84082D01*
X192633Y84100D01*
X192576Y84172D01*
X192570Y84182D01*
X192564Y84187D01*
X192528Y84231D01*
X191182Y85577D01*
X191182Y90449D01*
X192435Y91702D01*
X192488Y91776D01*
X192548Y91845D01*
X192560Y91875D01*
X192579Y91901D01*
X192606Y91988D01*
X192640Y92073D01*
X192644Y92114D01*
X192651Y92136D01*
X192650Y92169D01*
X192658Y92240D01*
X192658Y93815D01*
X192644Y93905D01*
X192636Y93996D01*
X192624Y94026D01*
X192619Y94058D01*
X192576Y94139D01*
X192540Y94222D01*
X192514Y94255D01*
X192503Y94275D01*
X192480Y94297D01*
X192435Y94353D01*
X191309Y95479D01*
X191309Y100351D01*
X192655Y101697D01*
X192667Y101713D01*
X192683Y101725D01*
X192739Y101813D01*
X192799Y101896D01*
X192805Y101915D01*
X192816Y101932D01*
X192841Y102033D01*
X192871Y102132D01*
X192871Y102151D01*
X192876Y102171D01*
X192868Y102274D01*
X192865Y102377D01*
X192858Y102396D01*
X192857Y102416D01*
X192816Y102511D01*
X192781Y102608D01*
X192768Y102624D01*
X192760Y102642D01*
X192655Y102773D01*
X191309Y104119D01*
X191309Y108991D01*
X192562Y110244D01*
X192615Y110318D01*
X192675Y110387D01*
X192687Y110417D01*
X192706Y110443D01*
X192733Y110530D01*
X192767Y110615D01*
X192771Y110656D01*
X192778Y110678D01*
X192777Y110711D01*
X192785Y110782D01*
X192785Y112877D01*
X192773Y112951D01*
X192771Y113025D01*
X192753Y113071D01*
X192746Y113120D01*
X192711Y113186D01*
X192684Y113256D01*
X192645Y113309D01*
X192630Y113337D01*
X192612Y113354D01*
X192585Y113391D01*
X191429Y114653D01*
X191524Y116822D01*
X195115Y120113D01*
X197017Y120030D01*
X197037Y120032D01*
X197057Y120029D01*
X197159Y120046D01*
X197262Y120059D01*
X197280Y120067D01*
X197299Y120071D01*
X197390Y120120D01*
X197484Y120164D01*
X197498Y120178D01*
X197516Y120187D01*
X197586Y120263D01*
X197661Y120335D01*
X197670Y120353D01*
X197684Y120367D01*
X197726Y120461D01*
X197774Y120553D01*
X197777Y120573D01*
X197785Y120591D01*
X197811Y120757D01*
X197894Y122659D01*
X201485Y125950D01*
X202313Y125914D01*
X202420Y125926D01*
X202527Y125935D01*
X202542Y125941D01*
X202557Y125943D01*
X202655Y125989D01*
X202754Y126031D01*
X202768Y126043D01*
X202779Y126048D01*
X202801Y126069D01*
X202885Y126136D01*
X205019Y128271D01*
X206756Y128271D01*
X206846Y128285D01*
X206937Y128293D01*
X206967Y128305D01*
X206999Y128310D01*
X207080Y128353D01*
X207164Y128389D01*
X207196Y128415D01*
X207216Y128426D01*
X207239Y128449D01*
X207295Y128494D01*
X207540Y128739D01*
X211859Y128739D01*
X211879Y128742D01*
X211898Y128740D01*
X212000Y128762D01*
X212102Y128778D01*
X212119Y128788D01*
X212139Y128792D01*
X212228Y128845D01*
X212319Y128894D01*
X212333Y128908D01*
X212350Y128918D01*
X212417Y128997D01*
X212489Y129072D01*
X212497Y129090D01*
X212510Y129105D01*
X212549Y129201D01*
X212592Y129295D01*
X212594Y129315D01*
X212602Y129333D01*
X212620Y129500D01*
X212620Y138557D01*
X212617Y138577D01*
X212619Y138596D01*
X212597Y138698D01*
X212581Y138800D01*
X212571Y138817D01*
X212567Y138837D01*
X212514Y138926D01*
X212465Y139017D01*
X212451Y139031D01*
X212441Y139048D01*
X212362Y139115D01*
X212287Y139187D01*
X212269Y139195D01*
X212254Y139208D01*
X212158Y139247D01*
X212064Y139290D01*
X212044Y139292D01*
X212026Y139300D01*
X211859Y139318D01*
X206217Y139318D01*
X205993Y139542D01*
X205993Y152177D01*
X206217Y152401D01*
X211859Y152401D01*
X211879Y152404D01*
X211898Y152402D01*
X212000Y152424D01*
X212102Y152440D01*
X212119Y152450D01*
X212139Y152454D01*
X212228Y152507D01*
X212319Y152556D01*
X212333Y152570D01*
X212350Y152580D01*
X212417Y152659D01*
X212489Y152734D01*
X212497Y152752D01*
X212510Y152767D01*
X212549Y152863D01*
X212592Y152957D01*
X212594Y152977D01*
X212602Y152995D01*
X212620Y153162D01*
X212620Y166675D01*
X212618Y166692D01*
X212619Y166707D01*
X212619Y166709D01*
X212619Y166714D01*
X212597Y166816D01*
X212581Y166918D01*
X212571Y166935D01*
X212567Y166955D01*
X212514Y167044D01*
X212465Y167135D01*
X212451Y167149D01*
X212441Y167166D01*
X212362Y167233D01*
X212287Y167305D01*
X212269Y167313D01*
X212254Y167326D01*
X212158Y167365D01*
X212064Y167408D01*
X212044Y167410D01*
X212026Y167418D01*
X211859Y167436D01*
X170764Y167436D01*
X170650Y167417D01*
X170533Y167400D01*
X170528Y167398D01*
X170522Y167397D01*
X170419Y167342D01*
X170314Y167289D01*
X170310Y167284D01*
X170304Y167281D01*
X170224Y167197D01*
X170142Y167113D01*
X170138Y167107D01*
X170135Y167103D01*
X170127Y167086D01*
X170061Y166966D01*
X169231Y164962D01*
X167397Y163128D01*
X165000Y162135D01*
X162406Y162135D01*
X160009Y163128D01*
X158175Y164962D01*
X158056Y165249D01*
X158018Y165310D01*
X157989Y165375D01*
X157954Y165414D01*
X157927Y165458D01*
X157871Y165504D01*
X157823Y165556D01*
X157777Y165582D01*
X157737Y165615D01*
X157670Y165641D01*
X157607Y165675D01*
X157556Y165684D01*
X157508Y165703D01*
X157436Y165706D01*
X157365Y165719D01*
X157314Y165711D01*
X157262Y165713D01*
X157193Y165693D01*
X157122Y165683D01*
X157076Y165659D01*
X157026Y165645D01*
X156967Y165604D01*
X156903Y165571D01*
X156866Y165534D01*
X156824Y165505D01*
X156781Y165447D01*
X156731Y165396D01*
X156696Y165333D01*
X156677Y165307D01*
X156669Y165285D01*
X156650Y165249D01*
X156531Y164962D01*
X154697Y163128D01*
X152300Y162135D01*
X149706Y162135D01*
X147309Y163128D01*
X145475Y164962D01*
X145356Y165249D01*
X145318Y165310D01*
X145289Y165375D01*
X145254Y165414D01*
X145227Y165458D01*
X145171Y165504D01*
X145123Y165556D01*
X145077Y165582D01*
X145037Y165615D01*
X144970Y165641D01*
X144907Y165675D01*
X144856Y165684D01*
X144808Y165703D01*
X144736Y165706D01*
X144665Y165719D01*
X144614Y165711D01*
X144562Y165713D01*
X144493Y165693D01*
X144422Y165683D01*
X144376Y165659D01*
X144326Y165645D01*
X144267Y165604D01*
X144203Y165571D01*
X144166Y165534D01*
X144124Y165505D01*
X144081Y165447D01*
X144031Y165396D01*
X143996Y165333D01*
X143977Y165307D01*
X143969Y165285D01*
X143950Y165249D01*
X143831Y164962D01*
X141997Y163128D01*
X139600Y162135D01*
X137006Y162135D01*
X134609Y163128D01*
X132775Y164962D01*
X132656Y165249D01*
X132618Y165310D01*
X132589Y165375D01*
X132554Y165414D01*
X132527Y165458D01*
X132471Y165504D01*
X132423Y165556D01*
X132377Y165582D01*
X132337Y165615D01*
X132270Y165641D01*
X132207Y165675D01*
X132156Y165684D01*
X132108Y165703D01*
X132036Y165706D01*
X131965Y165719D01*
X131914Y165711D01*
X131862Y165713D01*
X131793Y165693D01*
X131722Y165683D01*
X131676Y165659D01*
X131626Y165645D01*
X131567Y165604D01*
X131503Y165571D01*
X131466Y165534D01*
X131424Y165505D01*
X131381Y165447D01*
X131331Y165396D01*
X131296Y165333D01*
X131277Y165307D01*
X131269Y165285D01*
X131250Y165249D01*
X131131Y164962D01*
X129297Y163128D01*
X126900Y162135D01*
X124306Y162135D01*
X121909Y163128D01*
X120075Y164962D01*
X119956Y165249D01*
X119918Y165310D01*
X119889Y165375D01*
X119854Y165414D01*
X119827Y165458D01*
X119771Y165504D01*
X119723Y165556D01*
X119677Y165582D01*
X119637Y165615D01*
X119570Y165641D01*
X119507Y165675D01*
X119456Y165684D01*
X119408Y165703D01*
X119336Y165706D01*
X119265Y165719D01*
X119214Y165711D01*
X119162Y165713D01*
X119093Y165693D01*
X119022Y165683D01*
X118976Y165659D01*
X118926Y165645D01*
X118867Y165604D01*
X118803Y165571D01*
X118766Y165534D01*
X118724Y165505D01*
X118681Y165447D01*
X118631Y165396D01*
X118596Y165333D01*
X118577Y165307D01*
X118569Y165285D01*
X118550Y165249D01*
X118431Y164962D01*
X116597Y163128D01*
X114200Y162135D01*
X111606Y162135D01*
X109209Y163128D01*
X107375Y164962D01*
X107256Y165249D01*
X107219Y165310D01*
X107189Y165375D01*
X107154Y165414D01*
X107127Y165458D01*
X107071Y165504D01*
X107023Y165556D01*
X106977Y165582D01*
X106937Y165615D01*
X106870Y165640D01*
X106807Y165675D01*
X106756Y165684D01*
X106708Y165703D01*
X106636Y165706D01*
X106565Y165719D01*
X106514Y165711D01*
X106462Y165713D01*
X106393Y165693D01*
X106322Y165683D01*
X106276Y165659D01*
X106226Y165645D01*
X106167Y165604D01*
X106103Y165571D01*
X106066Y165534D01*
X106024Y165505D01*
X105981Y165447D01*
X105931Y165396D01*
X105896Y165333D01*
X105877Y165307D01*
X105870Y165285D01*
X105850Y165249D01*
X105731Y164962D01*
X103897Y163128D01*
X101500Y162135D01*
X98906Y162135D01*
X96509Y163128D01*
X94675Y164962D01*
X94556Y165249D01*
X94519Y165310D01*
X94489Y165375D01*
X94454Y165414D01*
X94427Y165458D01*
X94372Y165504D01*
X94323Y165556D01*
X94277Y165582D01*
X94237Y165615D01*
X94170Y165640D01*
X94107Y165675D01*
X94056Y165684D01*
X94008Y165703D01*
X93936Y165706D01*
X93865Y165719D01*
X93814Y165711D01*
X93762Y165713D01*
X93693Y165693D01*
X93622Y165683D01*
X93576Y165659D01*
X93526Y165645D01*
X93467Y165604D01*
X93403Y165571D01*
X93366Y165534D01*
X93324Y165505D01*
X93281Y165447D01*
X93231Y165396D01*
X93196Y165333D01*
X93177Y165307D01*
X93170Y165285D01*
X93150Y165249D01*
X93031Y164962D01*
X91197Y163128D01*
X88800Y162135D01*
X86206Y162135D01*
X83809Y163128D01*
X81975Y164962D01*
X81856Y165249D01*
X81819Y165310D01*
X81789Y165375D01*
X81754Y165414D01*
X81727Y165458D01*
X81672Y165504D01*
X81623Y165556D01*
X81577Y165582D01*
X81537Y165615D01*
X81470Y165640D01*
X81407Y165675D01*
X81356Y165684D01*
X81308Y165703D01*
X81236Y165706D01*
X81165Y165719D01*
X81114Y165711D01*
X81062Y165713D01*
X80993Y165693D01*
X80922Y165683D01*
X80876Y165659D01*
X80826Y165645D01*
X80767Y165604D01*
X80703Y165571D01*
X80666Y165534D01*
X80624Y165505D01*
X80581Y165447D01*
X80531Y165396D01*
X80496Y165333D01*
X80477Y165307D01*
X80470Y165285D01*
X80450Y165249D01*
X80331Y164962D01*
X78497Y163128D01*
X76100Y162135D01*
X73506Y162135D01*
X71109Y163128D01*
X69275Y164962D01*
X69156Y165249D01*
X69119Y165310D01*
X69089Y165375D01*
X69054Y165414D01*
X69027Y165458D01*
X68972Y165504D01*
X68923Y165556D01*
X68877Y165582D01*
X68837Y165615D01*
X68770Y165640D01*
X68707Y165675D01*
X68656Y165684D01*
X68608Y165703D01*
X68536Y165706D01*
X68465Y165719D01*
X68414Y165711D01*
X68362Y165713D01*
X68293Y165693D01*
X68222Y165683D01*
X68176Y165659D01*
X68126Y165645D01*
X68067Y165604D01*
X68003Y165571D01*
X67966Y165534D01*
X67924Y165505D01*
X67881Y165447D01*
X67831Y165396D01*
X67796Y165333D01*
X67777Y165307D01*
X67770Y165285D01*
X67750Y165249D01*
X67631Y164962D01*
X65797Y163128D01*
X63400Y162135D01*
X60806Y162135D01*
X58409Y163128D01*
X56575Y164962D01*
X56456Y165249D01*
X56419Y165310D01*
X56389Y165375D01*
X56354Y165414D01*
X56327Y165458D01*
X56272Y165504D01*
X56223Y165556D01*
X56177Y165582D01*
X56137Y165615D01*
X56070Y165640D01*
X56007Y165675D01*
X55956Y165684D01*
X55908Y165703D01*
X55836Y165706D01*
X55765Y165719D01*
X55714Y165711D01*
X55662Y165713D01*
X55593Y165693D01*
X55522Y165683D01*
X55476Y165659D01*
X55426Y165645D01*
X55367Y165604D01*
X55303Y165571D01*
X55266Y165534D01*
X55224Y165505D01*
X55181Y165447D01*
X55131Y165396D01*
X55096Y165333D01*
X55077Y165307D01*
X55070Y165285D01*
X55050Y165249D01*
X54931Y164962D01*
X53097Y163128D01*
X50700Y162135D01*
X48106Y162135D01*
X45709Y163128D01*
X43875Y164962D01*
X43756Y165249D01*
X43719Y165310D01*
X43689Y165375D01*
X43654Y165414D01*
X43627Y165458D01*
X43572Y165504D01*
X43523Y165556D01*
X43477Y165582D01*
X43437Y165615D01*
X43370Y165640D01*
X43307Y165675D01*
X43256Y165684D01*
X43208Y165703D01*
X43136Y165706D01*
X43065Y165719D01*
X43014Y165711D01*
X42962Y165713D01*
X42893Y165693D01*
X42822Y165683D01*
X42776Y165659D01*
X42726Y165645D01*
X42667Y165604D01*
X42603Y165571D01*
X42566Y165534D01*
X42524Y165505D01*
X42481Y165447D01*
X42431Y165396D01*
X42396Y165333D01*
X42377Y165307D01*
X42370Y165285D01*
X42350Y165249D01*
X42231Y164962D01*
X40397Y163128D01*
X38000Y162135D01*
X35406Y162135D01*
X33009Y163128D01*
X31175Y164962D01*
X31056Y165249D01*
X31019Y165310D01*
X30989Y165375D01*
X30954Y165414D01*
X30927Y165458D01*
X30872Y165504D01*
X30823Y165556D01*
X30777Y165582D01*
X30737Y165615D01*
X30670Y165640D01*
X30607Y165675D01*
X30556Y165684D01*
X30508Y165703D01*
X30436Y165706D01*
X30365Y165719D01*
X30314Y165711D01*
X30262Y165713D01*
X30193Y165693D01*
X30122Y165683D01*
X30076Y165659D01*
X30026Y165645D01*
X29967Y165604D01*
X29903Y165571D01*
X29866Y165534D01*
X29824Y165505D01*
X29781Y165447D01*
X29731Y165396D01*
X29696Y165333D01*
X29677Y165307D01*
X29670Y165285D01*
X29650Y165249D01*
X29531Y164962D01*
X27697Y163128D01*
X25300Y162135D01*
X22706Y162135D01*
X20309Y163128D01*
X18475Y164962D01*
X18356Y165249D01*
X18319Y165310D01*
X18289Y165375D01*
X18254Y165414D01*
X18227Y165458D01*
X18172Y165504D01*
X18123Y165556D01*
X18077Y165582D01*
X18037Y165615D01*
X17970Y165640D01*
X17907Y165675D01*
X17856Y165684D01*
X17808Y165703D01*
X17736Y165706D01*
X17665Y165719D01*
X17614Y165711D01*
X17562Y165713D01*
X17493Y165693D01*
X17422Y165683D01*
X17376Y165659D01*
X17326Y165645D01*
X17267Y165604D01*
X17203Y165571D01*
X17166Y165534D01*
X17124Y165505D01*
X17081Y165447D01*
X17031Y165396D01*
X16996Y165333D01*
X16977Y165307D01*
X16970Y165285D01*
X16950Y165249D01*
X16831Y164962D01*
X14997Y163128D01*
X12600Y162135D01*
X10006Y162135D01*
X7609Y163128D01*
X5775Y164962D01*
X5478Y165679D01*
X5427Y165762D01*
X5381Y165847D01*
X5362Y165865D01*
X5349Y165888D01*
X5274Y165950D01*
X5203Y166017D01*
X5179Y166028D01*
X5159Y166045D01*
X5068Y166079D01*
X4980Y166120D01*
X4954Y166123D01*
X4930Y166133D01*
X4832Y166137D01*
X4736Y166148D01*
X4710Y166142D01*
X4684Y166143D01*
X4590Y166116D01*
X4495Y166095D01*
X4473Y166082D01*
X4448Y166075D01*
X4368Y166019D01*
X4284Y165969D01*
X4267Y165949D01*
X4246Y165934D01*
X4187Y165856D01*
X4124Y165782D01*
X4114Y165758D01*
X4099Y165737D01*
X4069Y165644D01*
X4032Y165554D01*
X4029Y165522D01*
X4023Y165503D01*
X4023Y165470D01*
X4014Y165387D01*
X4014Y136961D01*
X4016Y136948D01*
X4015Y136939D01*
X4025Y136892D01*
X4033Y136846D01*
X4050Y136730D01*
X4052Y136724D01*
X4053Y136718D01*
X4108Y136615D01*
X4161Y136510D01*
X4166Y136506D01*
X4169Y136500D01*
X4253Y136421D01*
X4337Y136338D01*
X4343Y136335D01*
X4347Y136331D01*
X4364Y136323D01*
X4484Y136257D01*
X6742Y135322D01*
X8576Y133488D01*
X9569Y131091D01*
X9569Y128497D01*
X8576Y126100D01*
X6742Y124266D01*
X6455Y124147D01*
X6394Y124110D01*
X6329Y124080D01*
X6290Y124045D01*
X6246Y124018D01*
X6200Y123963D01*
X6148Y123914D01*
X6122Y123868D01*
X6089Y123828D01*
X6064Y123761D01*
X6029Y123698D01*
X6020Y123647D01*
X6001Y123599D01*
X5998Y123527D01*
X5985Y123456D01*
X5993Y123405D01*
X5991Y123353D01*
X6011Y123284D01*
X6021Y123213D01*
X6045Y123167D01*
X6059Y123117D01*
X6100Y123058D01*
X6133Y122994D01*
X6170Y122957D01*
X6199Y122915D01*
X6257Y122872D01*
X6308Y122822D01*
X6371Y122787D01*
X6397Y122768D01*
X6419Y122761D01*
X6455Y122741D01*
X6742Y122622D01*
X8576Y120788D01*
X9569Y118391D01*
X9569Y115797D01*
X8576Y113400D01*
X6742Y111566D01*
X6455Y111447D01*
X6394Y111410D01*
X6329Y111380D01*
X6290Y111345D01*
X6246Y111318D01*
X6200Y111263D01*
X6148Y111214D01*
X6122Y111168D01*
X6089Y111128D01*
X6064Y111061D01*
X6029Y110998D01*
X6020Y110947D01*
X6001Y110899D01*
X5998Y110827D01*
X5985Y110756D01*
X5993Y110705D01*
X5991Y110653D01*
X6011Y110584D01*
X6021Y110513D01*
X6045Y110467D01*
X6059Y110417D01*
X6100Y110358D01*
X6133Y110294D01*
X6170Y110257D01*
X6199Y110215D01*
X6257Y110172D01*
X6308Y110122D01*
X6371Y110087D01*
X6397Y110068D01*
X6419Y110061D01*
X6455Y110041D01*
X6742Y109922D01*
X8576Y108088D01*
X9569Y105691D01*
X9569Y103097D01*
X8576Y100700D01*
X6742Y98866D01*
X6455Y98747D01*
X6394Y98710D01*
X6329Y98680D01*
X6290Y98645D01*
X6246Y98618D01*
X6200Y98563D01*
X6148Y98514D01*
X6122Y98468D01*
X6089Y98428D01*
X6064Y98361D01*
X6029Y98298D01*
X6020Y98247D01*
X6001Y98199D01*
X5998Y98127D01*
X5985Y98056D01*
X5993Y98005D01*
X5991Y97953D01*
X6011Y97884D01*
X6021Y97813D01*
X6045Y97767D01*
X6059Y97717D01*
X6100Y97658D01*
X6133Y97594D01*
X6170Y97557D01*
X6199Y97515D01*
X6257Y97472D01*
X6308Y97422D01*
X6371Y97387D01*
X6397Y97368D01*
X6419Y97361D01*
X6455Y97341D01*
X6742Y97222D01*
X8576Y95388D01*
X9569Y92991D01*
X9569Y90397D01*
X8576Y88000D01*
X6742Y86166D01*
X6455Y86047D01*
X6394Y86010D01*
X6329Y85980D01*
X6290Y85945D01*
X6246Y85918D01*
X6200Y85863D01*
X6148Y85814D01*
X6122Y85768D01*
X6089Y85728D01*
X6064Y85661D01*
X6029Y85598D01*
X6020Y85547D01*
X6001Y85499D01*
X5998Y85427D01*
X5985Y85356D01*
X5993Y85305D01*
X5991Y85253D01*
X6011Y85184D01*
X6021Y85113D01*
X6045Y85067D01*
X6059Y85017D01*
X6100Y84958D01*
X6133Y84894D01*
X6170Y84857D01*
X6199Y84815D01*
X6257Y84772D01*
X6308Y84722D01*
X6371Y84687D01*
X6397Y84668D01*
X6419Y84661D01*
X6455Y84641D01*
X6742Y84522D01*
X8576Y82688D01*
X9569Y80291D01*
X9569Y77697D01*
X8576Y75300D01*
X6742Y73466D01*
X6455Y73347D01*
X6394Y73310D01*
X6329Y73280D01*
X6290Y73245D01*
X6246Y73218D01*
X6200Y73163D01*
X6148Y73114D01*
X6122Y73068D01*
X6089Y73028D01*
X6064Y72961D01*
X6029Y72898D01*
X6020Y72847D01*
X6001Y72799D01*
X5998Y72727D01*
X5985Y72656D01*
X5993Y72605D01*
X5991Y72553D01*
X6011Y72484D01*
X6021Y72413D01*
X6045Y72367D01*
X6059Y72317D01*
X6100Y72258D01*
X6133Y72194D01*
X6170Y72157D01*
X6199Y72115D01*
X6257Y72072D01*
X6308Y72022D01*
X6371Y71987D01*
X6397Y71968D01*
X6419Y71961D01*
X6455Y71941D01*
X6742Y71822D01*
X8576Y69988D01*
X9569Y67591D01*
X9569Y64997D01*
X8576Y62600D01*
X6742Y60766D01*
X6455Y60647D01*
X6394Y60610D01*
X6329Y60580D01*
X6290Y60545D01*
X6246Y60518D01*
X6200Y60463D01*
X6148Y60414D01*
X6122Y60368D01*
X6089Y60328D01*
X6064Y60261D01*
X6029Y60198D01*
X6020Y60147D01*
X6001Y60099D01*
X5998Y60027D01*
X5985Y59956D01*
X5993Y59905D01*
X5991Y59853D01*
X6011Y59784D01*
X6021Y59713D01*
X6045Y59667D01*
X6059Y59617D01*
X6100Y59558D01*
X6133Y59494D01*
X6170Y59457D01*
X6199Y59415D01*
X6257Y59372D01*
X6308Y59322D01*
X6371Y59287D01*
X6397Y59268D01*
X6419Y59261D01*
X6455Y59241D01*
X6742Y59122D01*
X8576Y57288D01*
X9569Y54891D01*
X9569Y52297D01*
X8576Y49900D01*
X6742Y48066D01*
X6455Y47947D01*
X6394Y47910D01*
X6329Y47880D01*
X6290Y47845D01*
X6246Y47818D01*
X6200Y47763D01*
X6148Y47714D01*
X6122Y47668D01*
X6089Y47628D01*
X6064Y47561D01*
X6029Y47498D01*
X6020Y47447D01*
X6001Y47399D01*
X5998Y47327D01*
X5985Y47256D01*
X5993Y47205D01*
X5991Y47153D01*
X6011Y47084D01*
X6021Y47013D01*
X6045Y46967D01*
X6059Y46917D01*
X6100Y46858D01*
X6133Y46794D01*
X6170Y46757D01*
X6199Y46715D01*
X6257Y46672D01*
X6308Y46622D01*
X6371Y46587D01*
X6397Y46568D01*
X6419Y46561D01*
X6455Y46541D01*
X6742Y46422D01*
X8576Y44588D01*
X8587Y44562D01*
X8638Y44479D01*
X8684Y44393D01*
X8703Y44375D01*
X8716Y44353D01*
X8791Y44291D01*
X8862Y44224D01*
X8886Y44213D01*
X8906Y44196D01*
X8997Y44161D01*
X9085Y44120D01*
X9111Y44117D01*
X9135Y44108D01*
X9233Y44104D01*
X9329Y44093D01*
X9355Y44098D01*
X9381Y44097D01*
X9475Y44124D01*
X9570Y44145D01*
X9592Y44159D01*
X9617Y44166D01*
X9697Y44221D01*
X9781Y44271D01*
X9798Y44291D01*
X9819Y44306D01*
X9878Y44384D01*
X9941Y44458D01*
X9951Y44483D01*
X9966Y44503D01*
X9996Y44596D01*
X10022Y44661D01*
X10023Y44662D01*
X10023Y44663D01*
X10033Y44686D01*
X10036Y44719D01*
X10042Y44737D01*
X10042Y44759D01*
X10796Y45513D01*
X20848Y45513D01*
X21593Y44768D01*
X21593Y43668D01*
X21596Y43648D01*
X21594Y43629D01*
X21616Y43527D01*
X21632Y43425D01*
X21642Y43408D01*
X21646Y43388D01*
X21699Y43299D01*
X21748Y43208D01*
X21762Y43194D01*
X21772Y43177D01*
X21851Y43110D01*
X21926Y43038D01*
X21944Y43030D01*
X21959Y43017D01*
X22055Y42978D01*
X22149Y42935D01*
X22169Y42933D01*
X22187Y42925D01*
X22354Y42907D01*
X25595Y42907D01*
X27004Y41498D01*
X27078Y41445D01*
X27147Y41385D01*
X27178Y41373D01*
X27204Y41354D01*
X27291Y41327D01*
X27376Y41293D01*
X27417Y41289D01*
X27439Y41282D01*
X27471Y41283D01*
X27542Y41275D01*
X50290Y41275D01*
X50310Y41278D01*
X50329Y41276D01*
X50431Y41298D01*
X50533Y41314D01*
X50550Y41324D01*
X50570Y41328D01*
X50659Y41381D01*
X50750Y41430D01*
X50764Y41444D01*
X50781Y41454D01*
X50848Y41533D01*
X50920Y41608D01*
X50928Y41626D01*
X50941Y41641D01*
X50980Y41737D01*
X51023Y41831D01*
X51025Y41851D01*
X51033Y41869D01*
X51051Y42036D01*
X51051Y44768D01*
X51796Y45513D01*
X61848Y45513D01*
X62593Y44768D01*
X62593Y33716D01*
X61848Y32971D01*
X51796Y32971D01*
X51051Y33716D01*
X51051Y36448D01*
X51048Y36468D01*
X51050Y36487D01*
X51028Y36589D01*
X51012Y36691D01*
X51002Y36708D01*
X50998Y36728D01*
X50945Y36817D01*
X50896Y36908D01*
X50882Y36922D01*
X50872Y36939D01*
X50793Y37006D01*
X50718Y37078D01*
X50700Y37086D01*
X50685Y37099D01*
X50589Y37138D01*
X50495Y37181D01*
X50475Y37183D01*
X50457Y37191D01*
X50290Y37209D01*
X27286Y37209D01*
X27196Y37195D01*
X27105Y37187D01*
X27076Y37175D01*
X27044Y37170D01*
X26963Y37127D01*
X26879Y37091D01*
X26847Y37065D01*
X26826Y37054D01*
X26804Y37031D01*
X26748Y36986D01*
X25595Y35833D01*
X22354Y35833D01*
X22334Y35830D01*
X22315Y35832D01*
X22213Y35810D01*
X22111Y35794D01*
X22094Y35784D01*
X22074Y35780D01*
X21985Y35727D01*
X21894Y35678D01*
X21880Y35664D01*
X21863Y35654D01*
X21796Y35575D01*
X21724Y35500D01*
X21716Y35482D01*
X21703Y35467D01*
X21664Y35371D01*
X21621Y35277D01*
X21619Y35257D01*
X21611Y35239D01*
X21593Y35072D01*
X21593Y33716D01*
X20848Y32971D01*
X10796Y32971D01*
X10051Y33716D01*
X10051Y36935D01*
X10036Y37031D01*
X10026Y37128D01*
X10016Y37152D01*
X10012Y37178D01*
X9966Y37264D01*
X9926Y37353D01*
X9909Y37372D01*
X9896Y37395D01*
X9826Y37462D01*
X9760Y37534D01*
X9737Y37546D01*
X9718Y37564D01*
X9630Y37605D01*
X9544Y37652D01*
X9519Y37657D01*
X9495Y37668D01*
X9398Y37679D01*
X9302Y37696D01*
X9276Y37692D01*
X9251Y37695D01*
X9155Y37674D01*
X9059Y37660D01*
X9036Y37648D01*
X9010Y37643D01*
X8927Y37593D01*
X8840Y37549D01*
X8821Y37530D01*
X8799Y37517D01*
X8736Y37443D01*
X8668Y37373D01*
X8652Y37345D01*
X8639Y37330D01*
X8627Y37299D01*
X8587Y37226D01*
X8576Y37200D01*
X6742Y35366D01*
X6455Y35247D01*
X6394Y35210D01*
X6329Y35180D01*
X6290Y35145D01*
X6246Y35118D01*
X6200Y35063D01*
X6148Y35014D01*
X6122Y34968D01*
X6089Y34928D01*
X6064Y34861D01*
X6029Y34798D01*
X6020Y34747D01*
X6001Y34699D01*
X5998Y34627D01*
X5985Y34556D01*
X5993Y34505D01*
X5991Y34453D01*
X6011Y34384D01*
X6021Y34313D01*
X6045Y34267D01*
X6059Y34217D01*
X6100Y34158D01*
X6133Y34094D01*
X6170Y34057D01*
X6199Y34015D01*
X6257Y33972D01*
X6308Y33922D01*
X6371Y33887D01*
X6397Y33868D01*
X6419Y33861D01*
X6455Y33841D01*
X6742Y33722D01*
X8576Y31888D01*
X9569Y29491D01*
X9569Y26897D01*
X8576Y24500D01*
X6742Y22666D01*
X4484Y21731D01*
X4384Y21669D01*
X4284Y21609D01*
X4280Y21604D01*
X4275Y21601D01*
X4200Y21511D01*
X4124Y21422D01*
X4122Y21416D01*
X4118Y21412D01*
X4076Y21303D01*
X4032Y21194D01*
X4031Y21187D01*
X4030Y21182D01*
X4029Y21164D01*
X4014Y21027D01*
X4014Y5555D01*
X4029Y5459D01*
X4039Y5362D01*
X4049Y5338D01*
X4053Y5312D01*
X4099Y5226D01*
X4139Y5137D01*
X4156Y5118D01*
X4169Y5095D01*
X4239Y5028D01*
X4305Y4956D01*
X4328Y4943D01*
X4347Y4925D01*
X4435Y4884D01*
X4521Y4837D01*
X4546Y4833D01*
X4570Y4822D01*
X4667Y4811D01*
X4763Y4793D01*
X4789Y4797D01*
X4814Y4794D01*
X4909Y4815D01*
X5006Y4829D01*
X5029Y4841D01*
X5055Y4847D01*
X5139Y4897D01*
X5225Y4941D01*
X5243Y4959D01*
X5266Y4973D01*
X5329Y5047D01*
X5397Y5116D01*
X5413Y5145D01*
X5426Y5160D01*
X5438Y5191D01*
X5478Y5263D01*
X5775Y5980D01*
X7609Y7814D01*
X10006Y8807D01*
X12600Y8807D01*
X14997Y7814D01*
X16831Y5980D01*
X16950Y5693D01*
X16988Y5632D01*
X17017Y5567D01*
X17052Y5528D01*
X17079Y5484D01*
X17135Y5438D01*
X17183Y5386D01*
X17229Y5360D01*
X17269Y5327D01*
X17336Y5301D01*
X17399Y5267D01*
X17450Y5258D01*
X17498Y5239D01*
X17570Y5236D01*
X17641Y5223D01*
X17692Y5231D01*
X17744Y5229D01*
X17813Y5249D01*
X17884Y5259D01*
X17930Y5283D01*
X17980Y5297D01*
X18039Y5338D01*
X18103Y5371D01*
X18140Y5408D01*
X18182Y5437D01*
X18225Y5495D01*
X18275Y5546D01*
X18310Y5609D01*
X18329Y5635D01*
X18337Y5657D01*
X18356Y5693D01*
X18475Y5980D01*
X20309Y7814D01*
X22706Y8807D01*
X25300Y8807D01*
X27697Y7814D01*
X29531Y5980D01*
X29650Y5693D01*
X29688Y5632D01*
X29717Y5567D01*
X29752Y5528D01*
X29779Y5484D01*
X29835Y5438D01*
X29883Y5386D01*
X29929Y5360D01*
X29969Y5327D01*
X30036Y5301D01*
X30099Y5267D01*
X30150Y5258D01*
X30198Y5239D01*
X30270Y5236D01*
X30341Y5223D01*
X30392Y5231D01*
X30444Y5229D01*
X30513Y5249D01*
X30584Y5259D01*
X30630Y5283D01*
X30680Y5297D01*
X30739Y5338D01*
X30803Y5371D01*
X30840Y5408D01*
X30882Y5437D01*
X30925Y5495D01*
X30975Y5546D01*
X31010Y5609D01*
X31029Y5635D01*
X31037Y5657D01*
X31056Y5693D01*
X31175Y5980D01*
X33009Y7814D01*
X35406Y8807D01*
X38000Y8807D01*
X40397Y7814D01*
X42231Y5980D01*
X42350Y5693D01*
X42388Y5632D01*
X42417Y5567D01*
X42452Y5528D01*
X42479Y5484D01*
X42535Y5438D01*
X42583Y5386D01*
X42629Y5360D01*
X42669Y5327D01*
X42736Y5301D01*
X42799Y5267D01*
X42850Y5258D01*
X42898Y5239D01*
X42970Y5236D01*
X43041Y5223D01*
X43092Y5231D01*
X43144Y5229D01*
X43213Y5249D01*
X43284Y5259D01*
X43330Y5283D01*
X43380Y5297D01*
X43439Y5338D01*
X43503Y5371D01*
X43540Y5408D01*
X43582Y5437D01*
X43625Y5495D01*
X43675Y5546D01*
X43710Y5609D01*
X43729Y5635D01*
X43737Y5657D01*
X43756Y5693D01*
X43875Y5980D01*
X45709Y7814D01*
X48106Y8807D01*
X50700Y8807D01*
X53097Y7814D01*
X54931Y5980D01*
X55050Y5693D01*
X55088Y5632D01*
X55117Y5567D01*
X55152Y5528D01*
X55179Y5484D01*
X55235Y5438D01*
X55283Y5386D01*
X55329Y5360D01*
X55369Y5327D01*
X55436Y5301D01*
X55499Y5267D01*
X55550Y5258D01*
X55598Y5239D01*
X55670Y5236D01*
X55741Y5223D01*
X55792Y5231D01*
X55844Y5229D01*
X55913Y5249D01*
X55984Y5259D01*
X56030Y5283D01*
X56080Y5297D01*
X56139Y5338D01*
X56203Y5371D01*
X56240Y5408D01*
X56282Y5437D01*
X56325Y5495D01*
X56375Y5546D01*
X56410Y5609D01*
X56429Y5635D01*
X56437Y5657D01*
X56456Y5693D01*
X56575Y5980D01*
X58409Y7814D01*
X60806Y8807D01*
X63400Y8807D01*
X65797Y7814D01*
X67631Y5980D01*
X67750Y5693D01*
X67788Y5632D01*
X67817Y5567D01*
X67852Y5528D01*
X67879Y5484D01*
X67935Y5438D01*
X67983Y5386D01*
X68029Y5360D01*
X68069Y5327D01*
X68136Y5301D01*
X68199Y5267D01*
X68250Y5258D01*
X68298Y5239D01*
X68370Y5236D01*
X68441Y5223D01*
X68492Y5231D01*
X68544Y5229D01*
X68613Y5249D01*
X68684Y5259D01*
X68730Y5283D01*
X68780Y5297D01*
X68839Y5338D01*
X68903Y5371D01*
X68940Y5408D01*
X68982Y5437D01*
X69025Y5495D01*
X69075Y5546D01*
X69110Y5609D01*
X69129Y5635D01*
X69137Y5657D01*
X69156Y5693D01*
X69275Y5980D01*
X71109Y7814D01*
X73506Y8807D01*
X76100Y8807D01*
X78497Y7814D01*
X80331Y5980D01*
X80450Y5693D01*
X80488Y5632D01*
X80517Y5567D01*
X80552Y5528D01*
X80579Y5484D01*
X80635Y5438D01*
X80683Y5386D01*
X80729Y5360D01*
X80769Y5327D01*
X80836Y5301D01*
X80899Y5267D01*
X80950Y5258D01*
X80998Y5239D01*
X81070Y5236D01*
X81141Y5223D01*
X81192Y5231D01*
X81244Y5229D01*
X81313Y5249D01*
X81384Y5259D01*
X81430Y5283D01*
X81480Y5297D01*
X81539Y5338D01*
X81603Y5371D01*
X81640Y5408D01*
X81682Y5437D01*
X81725Y5495D01*
X81775Y5546D01*
X81810Y5609D01*
X81829Y5635D01*
X81837Y5657D01*
X81856Y5693D01*
X81975Y5980D01*
X83809Y7814D01*
X86206Y8807D01*
X88800Y8807D01*
X91197Y7814D01*
X93031Y5980D01*
X93150Y5693D01*
X93188Y5632D01*
X93217Y5567D01*
X93252Y5528D01*
X93279Y5484D01*
X93335Y5438D01*
X93383Y5386D01*
X93429Y5360D01*
X93469Y5327D01*
X93536Y5301D01*
X93599Y5267D01*
X93650Y5258D01*
X93698Y5239D01*
X93770Y5236D01*
X93841Y5223D01*
X93892Y5231D01*
X93944Y5229D01*
X94013Y5249D01*
X94084Y5259D01*
X94130Y5283D01*
X94180Y5297D01*
X94239Y5338D01*
X94303Y5371D01*
X94340Y5408D01*
X94382Y5437D01*
X94425Y5495D01*
X94475Y5546D01*
X94510Y5609D01*
X94529Y5635D01*
X94537Y5657D01*
X94556Y5693D01*
X94675Y5980D01*
X96509Y7814D01*
X98906Y8807D01*
X101500Y8807D01*
X103897Y7814D01*
X105731Y5980D01*
X105850Y5693D01*
X105887Y5632D01*
X105917Y5567D01*
X105952Y5528D01*
X105979Y5484D01*
X106034Y5438D01*
X106083Y5386D01*
X106129Y5360D01*
X106169Y5327D01*
X106236Y5302D01*
X106299Y5267D01*
X106350Y5258D01*
X106398Y5239D01*
X106470Y5236D01*
X106541Y5223D01*
X106592Y5231D01*
X106644Y5229D01*
X106713Y5249D01*
X106784Y5259D01*
X106830Y5283D01*
X106880Y5297D01*
X106939Y5338D01*
X107003Y5371D01*
X107040Y5408D01*
X107082Y5437D01*
X107125Y5495D01*
X107175Y5546D01*
X107210Y5609D01*
X107229Y5635D01*
X107236Y5657D01*
X107256Y5693D01*
X107375Y5980D01*
X109209Y7814D01*
X111606Y8807D01*
X114200Y8807D01*
X116597Y7814D01*
X118431Y5980D01*
X118550Y5693D01*
X118587Y5632D01*
X118617Y5567D01*
X118652Y5528D01*
X118679Y5484D01*
X118734Y5438D01*
X118783Y5386D01*
X118829Y5360D01*
X118869Y5327D01*
X118936Y5302D01*
X118999Y5267D01*
X119050Y5258D01*
X119098Y5239D01*
X119170Y5236D01*
X119241Y5223D01*
X119292Y5231D01*
X119344Y5229D01*
X119413Y5249D01*
X119484Y5259D01*
X119530Y5283D01*
X119580Y5297D01*
X119639Y5338D01*
X119703Y5371D01*
X119740Y5408D01*
X119782Y5437D01*
X119825Y5495D01*
X119875Y5546D01*
X119910Y5609D01*
X119929Y5635D01*
X119936Y5657D01*
X119956Y5693D01*
X120075Y5980D01*
X121909Y7814D01*
X124306Y8807D01*
X126900Y8807D01*
X129297Y7814D01*
X131131Y5980D01*
X131250Y5693D01*
X131287Y5632D01*
X131317Y5567D01*
X131352Y5528D01*
X131379Y5484D01*
X131434Y5438D01*
X131483Y5386D01*
X131529Y5360D01*
X131569Y5327D01*
X131636Y5302D01*
X131699Y5267D01*
X131750Y5258D01*
X131798Y5239D01*
X131870Y5236D01*
X131941Y5223D01*
X131992Y5231D01*
X132044Y5229D01*
X132113Y5249D01*
X132184Y5259D01*
X132230Y5283D01*
X132280Y5297D01*
X132339Y5338D01*
X132403Y5371D01*
X132440Y5408D01*
X132482Y5437D01*
X132525Y5495D01*
X132575Y5546D01*
X132610Y5609D01*
X132629Y5635D01*
X132636Y5657D01*
X132656Y5693D01*
X132775Y5980D01*
X134609Y7814D01*
X137006Y8807D01*
X139600Y8807D01*
X141997Y7814D01*
X143831Y5980D01*
X143950Y5693D01*
X143987Y5632D01*
X144017Y5567D01*
X144052Y5528D01*
X144079Y5484D01*
X144135Y5438D01*
X144183Y5386D01*
X144229Y5360D01*
X144269Y5327D01*
X144336Y5302D01*
X144399Y5267D01*
X144450Y5258D01*
X144498Y5239D01*
X144570Y5236D01*
X144641Y5223D01*
X144692Y5231D01*
X144744Y5229D01*
X144813Y5249D01*
X144884Y5259D01*
X144930Y5283D01*
X144980Y5297D01*
X145039Y5338D01*
X145103Y5371D01*
X145140Y5408D01*
X145182Y5437D01*
X145225Y5495D01*
X145275Y5546D01*
X145310Y5609D01*
X145329Y5635D01*
X145336Y5657D01*
X145356Y5693D01*
X145475Y5980D01*
X147309Y7814D01*
X149706Y8807D01*
X152300Y8807D01*
X154697Y7814D01*
X156531Y5980D01*
X156650Y5693D01*
X156687Y5632D01*
X156717Y5567D01*
X156752Y5528D01*
X156779Y5484D01*
X156835Y5438D01*
X156883Y5386D01*
X156929Y5360D01*
X156969Y5327D01*
X157036Y5302D01*
X157099Y5267D01*
X157150Y5258D01*
X157198Y5239D01*
X157270Y5236D01*
X157341Y5223D01*
X157392Y5231D01*
X157444Y5229D01*
X157513Y5249D01*
X157584Y5259D01*
X157630Y5283D01*
X157680Y5297D01*
X157739Y5338D01*
X157803Y5371D01*
X157840Y5408D01*
X157882Y5437D01*
X157925Y5495D01*
X157975Y5546D01*
X158010Y5609D01*
X158029Y5635D01*
X158036Y5657D01*
X158056Y5693D01*
X158175Y5980D01*
X160009Y7814D01*
X162406Y8807D01*
X164716Y8807D01*
X164787Y8818D01*
X164859Y8820D01*
X164908Y8838D01*
X164959Y8846D01*
X165022Y8880D01*
X165090Y8905D01*
X165130Y8937D01*
X165177Y8962D01*
X165226Y9014D01*
X165282Y9058D01*
X165310Y9102D01*
X165346Y9140D01*
X165376Y9205D01*
X165415Y9265D01*
X165428Y9316D01*
X165450Y9363D01*
X165457Y9434D01*
X165475Y9504D01*
X165471Y9556D01*
X165477Y9607D01*
X165461Y9678D01*
X165456Y9749D01*
X165435Y9797D01*
X165424Y9848D01*
X165388Y9909D01*
X165359Y9975D01*
X165315Y10031D01*
X165298Y10059D01*
X165280Y10074D01*
X165255Y10106D01*
X164119Y11242D01*
X164119Y14158D01*
X165068Y15107D01*
X165080Y15123D01*
X165095Y15136D01*
X165151Y15223D01*
X165212Y15307D01*
X165217Y15326D01*
X165228Y15343D01*
X165254Y15443D01*
X165284Y15542D01*
X165283Y15562D01*
X165288Y15581D01*
X165280Y15684D01*
X165278Y15788D01*
X165271Y15807D01*
X165269Y15826D01*
X165229Y15921D01*
X165193Y16019D01*
X165181Y16034D01*
X165173Y16053D01*
X165068Y16184D01*
X164302Y16949D01*
X164302Y22421D01*
X165837Y23956D01*
X170709Y23956D01*
X172055Y22610D01*
X172071Y22598D01*
X172083Y22582D01*
X172171Y22526D01*
X172254Y22466D01*
X172273Y22460D01*
X172290Y22449D01*
X172391Y22424D01*
X172490Y22394D01*
X172509Y22394D01*
X172529Y22389D01*
X172632Y22397D01*
X172735Y22400D01*
X172754Y22407D01*
X172774Y22408D01*
X172869Y22449D01*
X172966Y22484D01*
X172982Y22497D01*
X173000Y22505D01*
X173131Y22610D01*
X174477Y23956D01*
X179349Y23956D01*
X180884Y22421D01*
X180884Y16949D01*
X180522Y16587D01*
X180480Y16529D01*
X180430Y16477D01*
X180408Y16430D01*
X180378Y16388D01*
X180357Y16319D01*
X180327Y16254D01*
X180321Y16202D01*
X180306Y16152D01*
X180307Y16081D01*
X180300Y16010D01*
X180311Y15959D01*
X180312Y15907D01*
X180337Y15839D01*
X180352Y15769D01*
X180379Y15724D01*
X180396Y15676D01*
X180441Y15620D01*
X180478Y15558D01*
X180518Y15524D01*
X180550Y15484D01*
X180610Y15445D01*
X180665Y15398D01*
X180713Y15379D01*
X180757Y15351D01*
X180826Y15333D01*
X180893Y15306D01*
X180964Y15298D01*
X180996Y15290D01*
X181019Y15292D01*
X181060Y15288D01*
X181933Y15288D01*
X183556Y13665D01*
X183556Y4521D01*
X183559Y4501D01*
X183557Y4482D01*
X183579Y4380D01*
X183595Y4278D01*
X183605Y4261D01*
X183609Y4241D01*
X183662Y4152D01*
X183711Y4061D01*
X183725Y4047D01*
X183735Y4030D01*
X183814Y3963D01*
X183889Y3891D01*
X183907Y3883D01*
X183922Y3870D01*
X184018Y3831D01*
X184112Y3788D01*
X184132Y3786D01*
X184150Y3778D01*
X184317Y3760D01*
X211859Y3760D01*
X211879Y3763D01*
G37*
G36*
X135910Y65615D02*
X135910Y65615D01*
X136013Y65618D01*
X136032Y65625D01*
X136052Y65626D01*
X136147Y65667D01*
X136244Y65702D01*
X136260Y65715D01*
X136278Y65723D01*
X136329Y65763D01*
X139089Y65763D01*
X139109Y65766D01*
X139128Y65764D01*
X139230Y65786D01*
X139332Y65802D01*
X139349Y65812D01*
X139369Y65816D01*
X139458Y65869D01*
X139549Y65918D01*
X139563Y65932D01*
X139580Y65942D01*
X139647Y66021D01*
X139719Y66096D01*
X139727Y66114D01*
X139740Y66129D01*
X139779Y66225D01*
X139822Y66319D01*
X139824Y66339D01*
X139832Y66357D01*
X139850Y66524D01*
X139850Y69291D01*
X139869Y69320D01*
X139929Y69403D01*
X139935Y69422D01*
X139946Y69439D01*
X139971Y69540D01*
X140002Y69638D01*
X140001Y69658D01*
X140006Y69678D01*
X139998Y69781D01*
X139995Y69884D01*
X139988Y69903D01*
X139987Y69923D01*
X139946Y70018D01*
X139911Y70115D01*
X139898Y70131D01*
X139890Y70149D01*
X139850Y70200D01*
X139850Y74291D01*
X139869Y74320D01*
X139929Y74403D01*
X139935Y74422D01*
X139946Y74439D01*
X139971Y74540D01*
X140002Y74638D01*
X140001Y74658D01*
X140006Y74678D01*
X139998Y74781D01*
X139995Y74884D01*
X139988Y74903D01*
X139987Y74923D01*
X139946Y75018D01*
X139911Y75115D01*
X139898Y75131D01*
X139890Y75149D01*
X139850Y75200D01*
X139850Y79291D01*
X139869Y79320D01*
X139929Y79403D01*
X139935Y79422D01*
X139946Y79439D01*
X139971Y79540D01*
X140002Y79638D01*
X140001Y79658D01*
X140006Y79678D01*
X139998Y79781D01*
X139995Y79884D01*
X139988Y79903D01*
X139987Y79923D01*
X139946Y80018D01*
X139911Y80115D01*
X139898Y80131D01*
X139890Y80149D01*
X139850Y80200D01*
X139850Y84291D01*
X139869Y84320D01*
X139929Y84403D01*
X139935Y84422D01*
X139946Y84439D01*
X139971Y84540D01*
X140002Y84638D01*
X140001Y84658D01*
X140006Y84678D01*
X139998Y84781D01*
X139995Y84884D01*
X139988Y84903D01*
X139987Y84923D01*
X139946Y85018D01*
X139911Y85115D01*
X139898Y85131D01*
X139890Y85149D01*
X139850Y85200D01*
X139850Y89291D01*
X139869Y89320D01*
X139929Y89403D01*
X139935Y89422D01*
X139946Y89439D01*
X139971Y89540D01*
X140002Y89638D01*
X140001Y89658D01*
X140006Y89678D01*
X139998Y89781D01*
X139995Y89884D01*
X139988Y89903D01*
X139987Y89923D01*
X139946Y90018D01*
X139911Y90115D01*
X139898Y90131D01*
X139890Y90149D01*
X139850Y90200D01*
X139850Y94291D01*
X139869Y94320D01*
X139929Y94403D01*
X139935Y94422D01*
X139946Y94439D01*
X139971Y94540D01*
X140002Y94638D01*
X140001Y94658D01*
X140006Y94678D01*
X139998Y94781D01*
X139995Y94884D01*
X139988Y94903D01*
X139987Y94923D01*
X139946Y95018D01*
X139911Y95115D01*
X139898Y95131D01*
X139890Y95149D01*
X139850Y95200D01*
X139850Y99291D01*
X139869Y99320D01*
X139929Y99403D01*
X139935Y99422D01*
X139946Y99439D01*
X139971Y99540D01*
X140002Y99638D01*
X140001Y99658D01*
X140006Y99678D01*
X139998Y99781D01*
X139995Y99884D01*
X139988Y99903D01*
X139987Y99923D01*
X139946Y100018D01*
X139911Y100115D01*
X139898Y100131D01*
X139890Y100149D01*
X139850Y100200D01*
X139850Y104291D01*
X139869Y104320D01*
X139929Y104403D01*
X139935Y104422D01*
X139946Y104439D01*
X139971Y104540D01*
X140002Y104638D01*
X140001Y104658D01*
X140006Y104678D01*
X139998Y104781D01*
X139995Y104884D01*
X139988Y104903D01*
X139987Y104923D01*
X139946Y105018D01*
X139911Y105115D01*
X139898Y105131D01*
X139890Y105149D01*
X139850Y105200D01*
X139850Y109291D01*
X139869Y109320D01*
X139929Y109403D01*
X139935Y109422D01*
X139946Y109439D01*
X139971Y109540D01*
X140002Y109638D01*
X140001Y109658D01*
X140006Y109678D01*
X139998Y109781D01*
X139995Y109884D01*
X139988Y109903D01*
X139987Y109923D01*
X139946Y110018D01*
X139911Y110115D01*
X139898Y110131D01*
X139890Y110149D01*
X139850Y110200D01*
X139850Y114291D01*
X139869Y114320D01*
X139929Y114403D01*
X139935Y114422D01*
X139946Y114439D01*
X139971Y114540D01*
X140002Y114638D01*
X140001Y114658D01*
X140006Y114678D01*
X139998Y114781D01*
X139995Y114884D01*
X139988Y114903D01*
X139987Y114923D01*
X139946Y115018D01*
X139911Y115115D01*
X139898Y115131D01*
X139890Y115149D01*
X139850Y115200D01*
X139850Y119291D01*
X139869Y119320D01*
X139929Y119403D01*
X139935Y119422D01*
X139946Y119439D01*
X139971Y119540D01*
X140002Y119638D01*
X140001Y119658D01*
X140006Y119678D01*
X139998Y119781D01*
X139995Y119884D01*
X139988Y119903D01*
X139987Y119923D01*
X139946Y120018D01*
X139911Y120115D01*
X139898Y120131D01*
X139890Y120149D01*
X139850Y120200D01*
X139850Y122960D01*
X139847Y122980D01*
X139849Y122999D01*
X139827Y123101D01*
X139811Y123203D01*
X139801Y123220D01*
X139797Y123240D01*
X139744Y123329D01*
X139695Y123420D01*
X139681Y123434D01*
X139671Y123451D01*
X139592Y123518D01*
X139517Y123590D01*
X139499Y123598D01*
X139484Y123611D01*
X139388Y123650D01*
X139294Y123693D01*
X139274Y123695D01*
X139256Y123703D01*
X139089Y123721D01*
X136322Y123721D01*
X136293Y123740D01*
X136210Y123800D01*
X136191Y123806D01*
X136174Y123817D01*
X136073Y123842D01*
X135975Y123873D01*
X135955Y123872D01*
X135935Y123877D01*
X135832Y123869D01*
X135729Y123866D01*
X135710Y123859D01*
X135690Y123858D01*
X135595Y123817D01*
X135498Y123782D01*
X135482Y123769D01*
X135464Y123761D01*
X135413Y123721D01*
X131322Y123721D01*
X131293Y123740D01*
X131210Y123800D01*
X131191Y123806D01*
X131174Y123817D01*
X131073Y123842D01*
X130975Y123873D01*
X130955Y123872D01*
X130935Y123877D01*
X130832Y123869D01*
X130729Y123866D01*
X130710Y123859D01*
X130690Y123858D01*
X130595Y123817D01*
X130498Y123782D01*
X130482Y123769D01*
X130464Y123761D01*
X130413Y123721D01*
X126322Y123721D01*
X126293Y123740D01*
X126210Y123800D01*
X126191Y123806D01*
X126174Y123817D01*
X126073Y123842D01*
X125975Y123873D01*
X125955Y123872D01*
X125935Y123877D01*
X125832Y123869D01*
X125729Y123866D01*
X125710Y123859D01*
X125690Y123858D01*
X125595Y123817D01*
X125498Y123782D01*
X125482Y123769D01*
X125464Y123761D01*
X125413Y123721D01*
X121322Y123721D01*
X121293Y123740D01*
X121210Y123800D01*
X121191Y123806D01*
X121174Y123817D01*
X121073Y123842D01*
X120975Y123873D01*
X120955Y123872D01*
X120935Y123877D01*
X120832Y123869D01*
X120729Y123866D01*
X120710Y123859D01*
X120690Y123858D01*
X120595Y123817D01*
X120498Y123782D01*
X120482Y123769D01*
X120464Y123761D01*
X120413Y123721D01*
X116322Y123721D01*
X116293Y123740D01*
X116210Y123800D01*
X116191Y123806D01*
X116174Y123817D01*
X116073Y123842D01*
X115975Y123873D01*
X115955Y123872D01*
X115935Y123877D01*
X115832Y123869D01*
X115729Y123866D01*
X115710Y123859D01*
X115690Y123858D01*
X115595Y123817D01*
X115498Y123782D01*
X115482Y123769D01*
X115464Y123761D01*
X115413Y123721D01*
X111322Y123721D01*
X111293Y123740D01*
X111210Y123800D01*
X111191Y123806D01*
X111174Y123817D01*
X111073Y123842D01*
X110975Y123873D01*
X110955Y123872D01*
X110935Y123877D01*
X110832Y123869D01*
X110729Y123866D01*
X110710Y123859D01*
X110690Y123858D01*
X110595Y123817D01*
X110498Y123782D01*
X110482Y123769D01*
X110464Y123761D01*
X110413Y123721D01*
X106322Y123721D01*
X106293Y123740D01*
X106210Y123800D01*
X106191Y123806D01*
X106174Y123817D01*
X106073Y123842D01*
X105975Y123873D01*
X105955Y123872D01*
X105935Y123877D01*
X105832Y123869D01*
X105729Y123866D01*
X105710Y123859D01*
X105690Y123858D01*
X105595Y123817D01*
X105498Y123782D01*
X105482Y123769D01*
X105464Y123761D01*
X105413Y123721D01*
X101322Y123721D01*
X101293Y123740D01*
X101210Y123800D01*
X101191Y123806D01*
X101174Y123817D01*
X101073Y123842D01*
X100975Y123873D01*
X100955Y123872D01*
X100935Y123877D01*
X100832Y123869D01*
X100729Y123866D01*
X100710Y123859D01*
X100690Y123858D01*
X100595Y123817D01*
X100498Y123782D01*
X100482Y123769D01*
X100464Y123761D01*
X100413Y123721D01*
X96322Y123721D01*
X96293Y123740D01*
X96210Y123800D01*
X96191Y123806D01*
X96174Y123817D01*
X96073Y123842D01*
X95975Y123873D01*
X95955Y123872D01*
X95935Y123877D01*
X95832Y123869D01*
X95729Y123866D01*
X95710Y123859D01*
X95690Y123858D01*
X95595Y123817D01*
X95498Y123782D01*
X95482Y123769D01*
X95464Y123761D01*
X95413Y123721D01*
X91322Y123721D01*
X91293Y123740D01*
X91210Y123800D01*
X91191Y123806D01*
X91174Y123817D01*
X91073Y123842D01*
X90975Y123873D01*
X90955Y123872D01*
X90935Y123877D01*
X90832Y123869D01*
X90729Y123866D01*
X90710Y123859D01*
X90690Y123858D01*
X90595Y123817D01*
X90498Y123782D01*
X90482Y123769D01*
X90464Y123761D01*
X90413Y123721D01*
X86322Y123721D01*
X86293Y123740D01*
X86210Y123800D01*
X86191Y123806D01*
X86174Y123817D01*
X86073Y123842D01*
X85975Y123873D01*
X85955Y123872D01*
X85935Y123877D01*
X85832Y123869D01*
X85729Y123866D01*
X85710Y123859D01*
X85690Y123858D01*
X85595Y123817D01*
X85498Y123782D01*
X85482Y123769D01*
X85464Y123761D01*
X85413Y123721D01*
X82653Y123721D01*
X82633Y123718D01*
X82614Y123720D01*
X82512Y123698D01*
X82410Y123682D01*
X82393Y123672D01*
X82373Y123668D01*
X82284Y123615D01*
X82193Y123566D01*
X82179Y123552D01*
X82162Y123542D01*
X82095Y123463D01*
X82023Y123388D01*
X82015Y123370D01*
X82002Y123355D01*
X81963Y123259D01*
X81920Y123165D01*
X81918Y123145D01*
X81910Y123127D01*
X81892Y122960D01*
X81892Y120193D01*
X81873Y120164D01*
X81813Y120081D01*
X81807Y120062D01*
X81796Y120045D01*
X81771Y119944D01*
X81740Y119846D01*
X81741Y119826D01*
X81736Y119806D01*
X81744Y119703D01*
X81747Y119600D01*
X81754Y119581D01*
X81755Y119561D01*
X81796Y119466D01*
X81831Y119369D01*
X81844Y119353D01*
X81852Y119335D01*
X81892Y119284D01*
X81892Y115193D01*
X81873Y115164D01*
X81813Y115081D01*
X81807Y115062D01*
X81796Y115045D01*
X81771Y114944D01*
X81740Y114846D01*
X81741Y114826D01*
X81736Y114806D01*
X81744Y114703D01*
X81747Y114600D01*
X81754Y114581D01*
X81755Y114561D01*
X81796Y114466D01*
X81831Y114369D01*
X81844Y114353D01*
X81852Y114335D01*
X81892Y114284D01*
X81892Y110193D01*
X81873Y110164D01*
X81813Y110081D01*
X81807Y110062D01*
X81796Y110045D01*
X81771Y109944D01*
X81740Y109845D01*
X81741Y109825D01*
X81736Y109806D01*
X81744Y109703D01*
X81747Y109600D01*
X81754Y109581D01*
X81755Y109561D01*
X81796Y109466D01*
X81831Y109369D01*
X81844Y109353D01*
X81852Y109335D01*
X81892Y109284D01*
X81892Y105193D01*
X81873Y105164D01*
X81813Y105081D01*
X81807Y105062D01*
X81796Y105045D01*
X81771Y104944D01*
X81740Y104846D01*
X81741Y104826D01*
X81736Y104806D01*
X81744Y104703D01*
X81747Y104600D01*
X81754Y104581D01*
X81755Y104561D01*
X81796Y104466D01*
X81831Y104369D01*
X81844Y104353D01*
X81852Y104335D01*
X81892Y104284D01*
X81892Y100193D01*
X81873Y100164D01*
X81813Y100081D01*
X81807Y100062D01*
X81796Y100045D01*
X81771Y99944D01*
X81740Y99846D01*
X81741Y99826D01*
X81736Y99806D01*
X81744Y99703D01*
X81747Y99600D01*
X81754Y99581D01*
X81755Y99561D01*
X81796Y99466D01*
X81831Y99369D01*
X81844Y99353D01*
X81852Y99335D01*
X81892Y99284D01*
X81892Y95193D01*
X81873Y95164D01*
X81813Y95081D01*
X81807Y95062D01*
X81796Y95045D01*
X81771Y94944D01*
X81740Y94846D01*
X81741Y94826D01*
X81736Y94806D01*
X81744Y94703D01*
X81747Y94600D01*
X81754Y94581D01*
X81755Y94561D01*
X81796Y94466D01*
X81831Y94369D01*
X81844Y94353D01*
X81852Y94335D01*
X81892Y94284D01*
X81892Y90193D01*
X81873Y90164D01*
X81813Y90081D01*
X81807Y90062D01*
X81796Y90045D01*
X81771Y89944D01*
X81740Y89846D01*
X81741Y89826D01*
X81736Y89806D01*
X81744Y89703D01*
X81747Y89600D01*
X81754Y89581D01*
X81755Y89561D01*
X81796Y89466D01*
X81831Y89369D01*
X81844Y89353D01*
X81852Y89335D01*
X81892Y89284D01*
X81892Y85193D01*
X81873Y85164D01*
X81813Y85081D01*
X81807Y85062D01*
X81796Y85045D01*
X81771Y84944D01*
X81740Y84846D01*
X81741Y84826D01*
X81736Y84806D01*
X81744Y84703D01*
X81747Y84600D01*
X81754Y84581D01*
X81755Y84561D01*
X81796Y84466D01*
X81831Y84369D01*
X81844Y84353D01*
X81852Y84335D01*
X81892Y84284D01*
X81892Y80193D01*
X81873Y80164D01*
X81813Y80081D01*
X81807Y80062D01*
X81796Y80045D01*
X81771Y79944D01*
X81740Y79846D01*
X81741Y79826D01*
X81736Y79806D01*
X81744Y79703D01*
X81747Y79600D01*
X81754Y79581D01*
X81755Y79561D01*
X81796Y79466D01*
X81831Y79369D01*
X81844Y79353D01*
X81852Y79335D01*
X81892Y79284D01*
X81892Y75193D01*
X81873Y75164D01*
X81813Y75081D01*
X81807Y75062D01*
X81796Y75045D01*
X81771Y74944D01*
X81740Y74846D01*
X81741Y74826D01*
X81736Y74806D01*
X81744Y74703D01*
X81747Y74600D01*
X81754Y74581D01*
X81755Y74561D01*
X81796Y74466D01*
X81831Y74369D01*
X81844Y74353D01*
X81852Y74335D01*
X81892Y74284D01*
X81892Y70193D01*
X81873Y70164D01*
X81813Y70081D01*
X81807Y70062D01*
X81796Y70045D01*
X81771Y69944D01*
X81740Y69846D01*
X81741Y69826D01*
X81736Y69806D01*
X81744Y69703D01*
X81747Y69600D01*
X81754Y69581D01*
X81755Y69561D01*
X81796Y69466D01*
X81831Y69369D01*
X81844Y69353D01*
X81852Y69335D01*
X81892Y69284D01*
X81892Y66524D01*
X81895Y66504D01*
X81893Y66485D01*
X81915Y66383D01*
X81931Y66281D01*
X81941Y66264D01*
X81945Y66244D01*
X81998Y66155D01*
X82047Y66064D01*
X82061Y66050D01*
X82071Y66033D01*
X82150Y65966D01*
X82225Y65894D01*
X82243Y65886D01*
X82258Y65873D01*
X82354Y65834D01*
X82448Y65791D01*
X82468Y65789D01*
X82486Y65781D01*
X82653Y65763D01*
X85420Y65763D01*
X85449Y65744D01*
X85532Y65684D01*
X85551Y65678D01*
X85568Y65667D01*
X85669Y65642D01*
X85767Y65611D01*
X85787Y65612D01*
X85807Y65607D01*
X85910Y65615D01*
X86013Y65618D01*
X86032Y65625D01*
X86052Y65626D01*
X86147Y65667D01*
X86244Y65702D01*
X86260Y65715D01*
X86278Y65723D01*
X86329Y65763D01*
X90420Y65763D01*
X90449Y65744D01*
X90532Y65684D01*
X90551Y65678D01*
X90568Y65667D01*
X90669Y65642D01*
X90767Y65611D01*
X90787Y65612D01*
X90807Y65607D01*
X90910Y65615D01*
X91013Y65618D01*
X91032Y65625D01*
X91052Y65626D01*
X91147Y65667D01*
X91244Y65702D01*
X91260Y65715D01*
X91278Y65723D01*
X91329Y65763D01*
X95420Y65763D01*
X95449Y65744D01*
X95532Y65684D01*
X95551Y65678D01*
X95568Y65667D01*
X95669Y65642D01*
X95767Y65611D01*
X95787Y65612D01*
X95807Y65607D01*
X95910Y65615D01*
X96013Y65618D01*
X96032Y65625D01*
X96052Y65626D01*
X96147Y65667D01*
X96244Y65702D01*
X96260Y65715D01*
X96278Y65723D01*
X96329Y65763D01*
X100420Y65763D01*
X100449Y65744D01*
X100532Y65684D01*
X100551Y65678D01*
X100568Y65667D01*
X100669Y65642D01*
X100767Y65611D01*
X100787Y65612D01*
X100807Y65607D01*
X100910Y65615D01*
X101013Y65618D01*
X101032Y65625D01*
X101052Y65626D01*
X101147Y65667D01*
X101244Y65702D01*
X101260Y65715D01*
X101278Y65723D01*
X101329Y65763D01*
X105420Y65763D01*
X105449Y65744D01*
X105532Y65684D01*
X105551Y65678D01*
X105568Y65667D01*
X105669Y65642D01*
X105767Y65611D01*
X105787Y65612D01*
X105807Y65607D01*
X105910Y65615D01*
X106013Y65618D01*
X106032Y65625D01*
X106052Y65626D01*
X106147Y65667D01*
X106244Y65702D01*
X106260Y65715D01*
X106278Y65723D01*
X106329Y65763D01*
X110420Y65763D01*
X110449Y65744D01*
X110532Y65684D01*
X110551Y65678D01*
X110568Y65667D01*
X110669Y65642D01*
X110767Y65611D01*
X110787Y65612D01*
X110807Y65607D01*
X110910Y65615D01*
X111013Y65618D01*
X111032Y65625D01*
X111052Y65626D01*
X111147Y65667D01*
X111244Y65702D01*
X111260Y65715D01*
X111278Y65723D01*
X111329Y65763D01*
X115420Y65763D01*
X115449Y65744D01*
X115532Y65684D01*
X115551Y65678D01*
X115568Y65667D01*
X115669Y65642D01*
X115767Y65611D01*
X115787Y65612D01*
X115807Y65607D01*
X115910Y65615D01*
X116013Y65618D01*
X116032Y65625D01*
X116052Y65626D01*
X116147Y65667D01*
X116244Y65702D01*
X116260Y65715D01*
X116278Y65723D01*
X116329Y65763D01*
X120420Y65763D01*
X120449Y65744D01*
X120532Y65684D01*
X120551Y65678D01*
X120568Y65667D01*
X120669Y65642D01*
X120767Y65611D01*
X120787Y65612D01*
X120807Y65607D01*
X120910Y65615D01*
X121013Y65618D01*
X121032Y65625D01*
X121052Y65626D01*
X121147Y65667D01*
X121244Y65702D01*
X121260Y65715D01*
X121278Y65723D01*
X121329Y65763D01*
X125420Y65763D01*
X125449Y65744D01*
X125532Y65684D01*
X125551Y65678D01*
X125568Y65667D01*
X125669Y65642D01*
X125767Y65611D01*
X125787Y65612D01*
X125807Y65607D01*
X125910Y65615D01*
X126013Y65618D01*
X126032Y65625D01*
X126052Y65626D01*
X126147Y65667D01*
X126244Y65702D01*
X126260Y65715D01*
X126278Y65723D01*
X126329Y65763D01*
X130420Y65763D01*
X130449Y65744D01*
X130532Y65684D01*
X130551Y65678D01*
X130568Y65667D01*
X130669Y65642D01*
X130767Y65611D01*
X130787Y65612D01*
X130807Y65607D01*
X130910Y65615D01*
X131013Y65618D01*
X131032Y65625D01*
X131052Y65626D01*
X131147Y65667D01*
X131244Y65702D01*
X131260Y65715D01*
X131278Y65723D01*
X131329Y65763D01*
X135420Y65763D01*
X135449Y65744D01*
X135532Y65684D01*
X135551Y65678D01*
X135568Y65667D01*
X135669Y65642D01*
X135767Y65611D01*
X135787Y65612D01*
X135807Y65607D01*
X135910Y65615D01*
G37*
G36*
X262118Y6467D02*
X262118Y6467D01*
X262117Y6467D01*
X262118Y6468D01*
X262118Y33468D01*
X262108Y33480D01*
X262107Y33479D01*
X262106Y33480D01*
X235718Y33480D01*
X235718Y53456D01*
X262106Y53456D01*
X262118Y53467D01*
X262117Y53467D01*
X262118Y53468D01*
X262118Y80468D01*
X262108Y80480D01*
X262107Y80479D01*
X262106Y80480D01*
X235718Y80480D01*
X235718Y100456D01*
X262106Y100456D01*
X262118Y100467D01*
X262117Y100467D01*
X262118Y100468D01*
X262118Y150468D01*
X262108Y150480D01*
X262107Y150479D01*
X262106Y150480D01*
X208106Y150480D01*
X208094Y150470D01*
X208095Y150469D01*
X208094Y150468D01*
X208094Y141468D01*
X208105Y141456D01*
X208105Y141457D01*
X208106Y141456D01*
X257094Y141456D01*
X257094Y127480D01*
X208106Y127480D01*
X208094Y127470D01*
X208095Y127469D01*
X208094Y127468D01*
X208094Y122468D01*
X208105Y122456D01*
X208105Y122457D01*
X208106Y122456D01*
X257094Y122456D01*
X257094Y105480D01*
X230706Y105480D01*
X230694Y105470D01*
X230695Y105469D01*
X230694Y105468D01*
X230694Y75468D01*
X230705Y75456D01*
X230705Y75457D01*
X230706Y75456D01*
X257094Y75456D01*
X257094Y58480D01*
X230706Y58480D01*
X230694Y58470D01*
X230694Y58469D01*
X230695Y58469D01*
X230694Y58468D01*
X230694Y28468D01*
X230705Y28456D01*
X230705Y28457D01*
X230706Y28456D01*
X257094Y28456D01*
X257094Y11480D01*
X217706Y11480D01*
X217694Y11470D01*
X217695Y11469D01*
X217694Y11468D01*
X217694Y6468D01*
X217705Y6456D01*
X217705Y6457D01*
X217706Y6456D01*
X262106Y6456D01*
X262118Y6467D01*
G37*
%LPC*%
G36*
X32943Y72909D02*
X32943Y72909D01*
X30734Y75118D01*
X30734Y87122D01*
X30731Y87142D01*
X30733Y87161D01*
X30711Y87263D01*
X30695Y87365D01*
X30685Y87382D01*
X30681Y87402D01*
X30628Y87491D01*
X30579Y87582D01*
X30565Y87596D01*
X30555Y87613D01*
X30476Y87680D01*
X30401Y87752D01*
X30383Y87760D01*
X30368Y87773D01*
X30272Y87812D01*
X30178Y87855D01*
X30158Y87857D01*
X30140Y87865D01*
X29973Y87883D01*
X28183Y87883D01*
X25653Y90413D01*
X25653Y93991D01*
X28183Y96521D01*
X29846Y96521D01*
X29866Y96524D01*
X29885Y96522D01*
X29987Y96544D01*
X30089Y96560D01*
X30106Y96570D01*
X30126Y96574D01*
X30215Y96627D01*
X30306Y96676D01*
X30320Y96690D01*
X30337Y96700D01*
X30404Y96779D01*
X30476Y96854D01*
X30484Y96872D01*
X30497Y96887D01*
X30536Y96983D01*
X30579Y97077D01*
X30581Y97097D01*
X30589Y97115D01*
X30607Y97282D01*
X30607Y109032D01*
X32816Y111241D01*
X40940Y111241D01*
X43149Y109032D01*
X43149Y96708D01*
X43043Y96602D01*
X43031Y96586D01*
X43016Y96574D01*
X42960Y96486D01*
X42899Y96403D01*
X42894Y96384D01*
X42883Y96367D01*
X42857Y96266D01*
X42827Y96167D01*
X42828Y96148D01*
X42823Y96128D01*
X42831Y96025D01*
X42833Y95922D01*
X42840Y95903D01*
X42842Y95883D01*
X42882Y95788D01*
X42918Y95691D01*
X42930Y95675D01*
X42938Y95657D01*
X43043Y95526D01*
X44578Y93991D01*
X44578Y90413D01*
X42979Y88815D01*
X42968Y88799D01*
X42952Y88786D01*
X42896Y88699D01*
X42836Y88615D01*
X42830Y88596D01*
X42819Y88579D01*
X42794Y88479D01*
X42763Y88380D01*
X42764Y88360D01*
X42759Y88341D01*
X42767Y88238D01*
X42770Y88134D01*
X42777Y88115D01*
X42778Y88095D01*
X42819Y88001D01*
X42854Y87903D01*
X42867Y87887D01*
X42875Y87869D01*
X42948Y87777D01*
X42954Y87768D01*
X42960Y87762D01*
X42979Y87738D01*
X43276Y87442D01*
X43276Y75118D01*
X41067Y72909D01*
X32943Y72909D01*
G37*
%LPD*%
%LPC*%
G36*
X52265Y120691D02*
X52265Y120691D01*
X50824Y122132D01*
X50750Y122185D01*
X50680Y122245D01*
X50650Y122257D01*
X50624Y122276D01*
X50537Y122303D01*
X50452Y122337D01*
X50411Y122341D01*
X50389Y122348D01*
X50357Y122347D01*
X50285Y122355D01*
X42970Y122355D01*
X42880Y122341D01*
X42789Y122333D01*
X42759Y122321D01*
X42727Y122316D01*
X42646Y122273D01*
X42562Y122237D01*
X42530Y122211D01*
X42510Y122200D01*
X42487Y122177D01*
X42483Y122173D01*
X32839Y122173D01*
X30606Y124406D01*
X30606Y127562D01*
X32839Y129795D01*
X37084Y129795D01*
X37104Y129798D01*
X37123Y129796D01*
X37225Y129818D01*
X37327Y129834D01*
X37344Y129844D01*
X37364Y129848D01*
X37453Y129901D01*
X37544Y129950D01*
X37558Y129964D01*
X37575Y129974D01*
X37642Y130053D01*
X37714Y130128D01*
X37722Y130146D01*
X37735Y130161D01*
X37774Y130257D01*
X37817Y130351D01*
X37819Y130371D01*
X37827Y130389D01*
X37845Y130556D01*
X37845Y131971D01*
X37842Y131991D01*
X37844Y132010D01*
X37822Y132112D01*
X37806Y132214D01*
X37796Y132231D01*
X37792Y132251D01*
X37739Y132340D01*
X37690Y132431D01*
X37676Y132445D01*
X37666Y132462D01*
X37587Y132529D01*
X37512Y132601D01*
X37494Y132609D01*
X37479Y132622D01*
X37383Y132661D01*
X37289Y132704D01*
X37269Y132706D01*
X37251Y132714D01*
X37084Y132732D01*
X35056Y132732D01*
X34966Y132718D01*
X34875Y132710D01*
X34845Y132698D01*
X34813Y132693D01*
X34733Y132650D01*
X34649Y132614D01*
X34617Y132588D01*
X34596Y132577D01*
X34574Y132554D01*
X34518Y132509D01*
X34073Y132064D01*
X28665Y132064D01*
X27098Y133631D01*
X27098Y138439D01*
X28665Y140006D01*
X34073Y140006D01*
X34518Y139561D01*
X34592Y139508D01*
X34661Y139448D01*
X34692Y139436D01*
X34718Y139417D01*
X34805Y139390D01*
X34890Y139356D01*
X34930Y139352D01*
X34953Y139345D01*
X34985Y139346D01*
X35056Y139338D01*
X37969Y139338D01*
X38059Y139352D01*
X38150Y139360D01*
X38180Y139372D01*
X38212Y139377D01*
X38292Y139420D01*
X38376Y139456D01*
X38408Y139482D01*
X38429Y139493D01*
X38451Y139516D01*
X38507Y139561D01*
X38952Y140006D01*
X44360Y140006D01*
X45927Y138439D01*
X45927Y133631D01*
X45690Y133394D01*
X45637Y133320D01*
X45577Y133251D01*
X45565Y133220D01*
X45546Y133194D01*
X45519Y133107D01*
X45485Y133022D01*
X45481Y132982D01*
X45474Y132959D01*
X45475Y132927D01*
X45467Y132856D01*
X45467Y130738D01*
X45470Y130718D01*
X45468Y130699D01*
X45490Y130597D01*
X45506Y130495D01*
X45516Y130478D01*
X45520Y130458D01*
X45573Y130369D01*
X45622Y130278D01*
X45636Y130264D01*
X45646Y130247D01*
X45725Y130180D01*
X45800Y130108D01*
X45818Y130100D01*
X45833Y130087D01*
X45929Y130048D01*
X46023Y130005D01*
X46043Y130003D01*
X46061Y129995D01*
X46228Y129977D01*
X50793Y129977D01*
X50883Y129991D01*
X50974Y129999D01*
X51004Y130011D01*
X51036Y130016D01*
X51117Y130059D01*
X51201Y130095D01*
X51233Y130121D01*
X51254Y130132D01*
X51276Y130155D01*
X51332Y130200D01*
X52265Y131133D01*
X60257Y131133D01*
X62182Y129208D01*
X62182Y122616D01*
X60257Y120691D01*
X52265Y120691D01*
G37*
%LPD*%
G36*
X163940Y122586D02*
X163940Y122586D01*
X164011Y122592D01*
X164059Y122612D01*
X164110Y122623D01*
X164171Y122660D01*
X164237Y122688D01*
X164293Y122733D01*
X164321Y122749D01*
X164336Y122767D01*
X164368Y122793D01*
X167797Y126222D01*
X169211Y127636D01*
X177151Y127636D01*
X177241Y127650D01*
X177332Y127658D01*
X177361Y127670D01*
X177393Y127675D01*
X177474Y127718D01*
X177558Y127754D01*
X177590Y127780D01*
X177611Y127791D01*
X177633Y127814D01*
X177689Y127859D01*
X179019Y129188D01*
X179030Y129204D01*
X179046Y129217D01*
X179102Y129304D01*
X179162Y129388D01*
X179168Y129407D01*
X179179Y129424D01*
X179204Y129524D01*
X179234Y129623D01*
X179234Y129643D01*
X179239Y129662D01*
X179231Y129765D01*
X179228Y129869D01*
X179221Y129888D01*
X179220Y129908D01*
X179179Y130002D01*
X179144Y130100D01*
X179131Y130116D01*
X179123Y130134D01*
X179019Y130265D01*
X178256Y131027D01*
X178256Y136435D01*
X179603Y137782D01*
X179645Y137840D01*
X179694Y137892D01*
X179716Y137939D01*
X179747Y137981D01*
X179768Y138050D01*
X179798Y138115D01*
X179804Y138167D01*
X179819Y138217D01*
X179817Y138288D01*
X179825Y138359D01*
X179814Y138410D01*
X179813Y138462D01*
X179788Y138530D01*
X179773Y138600D01*
X179746Y138645D01*
X179728Y138693D01*
X179683Y138749D01*
X179647Y138811D01*
X179607Y138845D01*
X179574Y138885D01*
X179514Y138924D01*
X179460Y138971D01*
X179411Y138990D01*
X179368Y139018D01*
X179298Y139036D01*
X179232Y139063D01*
X179160Y139071D01*
X179129Y139079D01*
X179106Y139077D01*
X179065Y139081D01*
X176011Y139081D01*
X175108Y139984D01*
X175034Y140037D01*
X174964Y140097D01*
X174934Y140109D01*
X174908Y140128D01*
X174821Y140155D01*
X174736Y140189D01*
X174695Y140193D01*
X174673Y140200D01*
X174641Y140199D01*
X174569Y140207D01*
X163505Y140207D01*
X163415Y140193D01*
X163324Y140185D01*
X163294Y140173D01*
X163262Y140168D01*
X163181Y140125D01*
X163097Y140089D01*
X163065Y140063D01*
X163045Y140052D01*
X163022Y140029D01*
X162966Y139984D01*
X162063Y139081D01*
X158882Y139081D01*
X158811Y139070D01*
X158740Y139068D01*
X158691Y139050D01*
X158639Y139042D01*
X158576Y139008D01*
X158509Y138983D01*
X158468Y138951D01*
X158422Y138926D01*
X158373Y138874D01*
X158317Y138830D01*
X158289Y138786D01*
X158253Y138748D01*
X158222Y138683D01*
X158184Y138623D01*
X158171Y138572D01*
X158149Y138525D01*
X158141Y138454D01*
X158124Y138384D01*
X158128Y138332D01*
X158122Y138281D01*
X158137Y138210D01*
X158143Y138139D01*
X158163Y138091D01*
X158174Y138040D01*
X158211Y137979D01*
X158239Y137913D01*
X158284Y137857D01*
X158300Y137829D01*
X158318Y137814D01*
X158344Y137782D01*
X159691Y136435D01*
X159691Y131027D01*
X158039Y129376D01*
X158028Y129360D01*
X158012Y129347D01*
X157956Y129260D01*
X157896Y129176D01*
X157890Y129157D01*
X157879Y129140D01*
X157854Y129040D01*
X157824Y128941D01*
X157824Y128921D01*
X157819Y128902D01*
X157827Y128799D01*
X157830Y128695D01*
X157837Y128676D01*
X157838Y128657D01*
X157879Y128562D01*
X157914Y128464D01*
X157927Y128448D01*
X157935Y128430D01*
X158039Y128299D01*
X163080Y123258D01*
X163082Y123189D01*
X163100Y123140D01*
X163108Y123089D01*
X163142Y123025D01*
X163167Y122958D01*
X163199Y122917D01*
X163224Y122871D01*
X163276Y122822D01*
X163320Y122766D01*
X163364Y122738D01*
X163402Y122702D01*
X163467Y122672D01*
X163527Y122633D01*
X163578Y122620D01*
X163625Y122598D01*
X163696Y122590D01*
X163766Y122573D01*
X163818Y122577D01*
X163869Y122571D01*
X163940Y122586D01*
G37*
%LPC*%
G36*
X65202Y135762D02*
X65202Y135762D01*
X63266Y137698D01*
X63192Y137751D01*
X63122Y137811D01*
X63092Y137823D01*
X63066Y137842D01*
X62979Y137869D01*
X62894Y137903D01*
X62853Y137907D01*
X62831Y137914D01*
X62799Y137913D01*
X62727Y137921D01*
X61403Y137921D01*
X61312Y137907D01*
X61222Y137899D01*
X61192Y137887D01*
X61160Y137882D01*
X61079Y137839D01*
X60995Y137803D01*
X60963Y137777D01*
X60942Y137766D01*
X60920Y137743D01*
X60864Y137698D01*
X60257Y137091D01*
X52265Y137091D01*
X50340Y139016D01*
X50340Y145608D01*
X52265Y147533D01*
X60257Y147533D01*
X61819Y145971D01*
X61877Y145929D01*
X61929Y145880D01*
X61976Y145858D01*
X62018Y145828D01*
X62087Y145807D01*
X62152Y145776D01*
X62204Y145771D01*
X62254Y145755D01*
X62325Y145757D01*
X62396Y145749D01*
X62447Y145760D01*
X62499Y145762D01*
X62567Y145786D01*
X62637Y145802D01*
X62682Y145828D01*
X62730Y145846D01*
X62786Y145891D01*
X62848Y145928D01*
X62882Y145967D01*
X62922Y146000D01*
X62961Y146060D01*
X63008Y146115D01*
X63027Y146163D01*
X63055Y146207D01*
X63073Y146276D01*
X63100Y146343D01*
X63108Y146414D01*
X63116Y146445D01*
X63114Y146469D01*
X63118Y146507D01*
X65202Y148591D01*
X68148Y148591D01*
X70232Y146507D01*
X70232Y143561D01*
X69386Y142715D01*
X69374Y142699D01*
X69359Y142686D01*
X69302Y142599D01*
X69242Y142515D01*
X69236Y142496D01*
X69226Y142479D01*
X69200Y142379D01*
X69170Y142280D01*
X69170Y142260D01*
X69166Y142241D01*
X69174Y142138D01*
X69176Y142034D01*
X69183Y142015D01*
X69185Y141995D01*
X69225Y141901D01*
X69261Y141803D01*
X69273Y141787D01*
X69281Y141769D01*
X69386Y141638D01*
X70232Y140792D01*
X70232Y137846D01*
X68148Y135762D01*
X65202Y135762D01*
G37*
%LPD*%
D10*
X1651Y1270D02*
X1651Y-48710D01*
X265811Y-48710D02*
X265811Y1270D01*
X265161Y-29210D02*
X2301Y-29210D01*
X27651Y-26018D01*
X27651Y-32402D01*
X2301Y-29210D01*
X27651Y-27910D01*
X27651Y-30510D02*
X2301Y-29210D01*
X27651Y-26610D01*
X27651Y-31810D02*
X2301Y-29210D01*
X239811Y-26018D02*
X265161Y-29210D01*
X239811Y-26018D02*
X239811Y-32402D01*
X265161Y-29210D01*
X239811Y-27910D01*
X239811Y-30510D02*
X265161Y-29210D01*
X239811Y-26610D01*
X239811Y-31810D02*
X265161Y-29210D01*
D11*
X111614Y-10511D02*
X111612Y-10386D01*
X111606Y-10261D01*
X111597Y-10136D01*
X111583Y-10012D01*
X111566Y-9888D01*
X111545Y-9764D01*
X111520Y-9642D01*
X111491Y-9520D01*
X111459Y-9399D01*
X111423Y-9279D01*
X111383Y-9160D01*
X111340Y-9043D01*
X111293Y-8927D01*
X111242Y-8812D01*
X111188Y-8700D01*
X111130Y-8588D01*
X111070Y-8479D01*
X111005Y-8372D01*
X110938Y-8266D01*
X110867Y-8163D01*
X110793Y-8062D01*
X110716Y-7963D01*
X110636Y-7867D01*
X110553Y-7773D01*
X110468Y-7682D01*
X110379Y-7593D01*
X110288Y-7508D01*
X110194Y-7425D01*
X110098Y-7345D01*
X109999Y-7268D01*
X109898Y-7194D01*
X109795Y-7123D01*
X109689Y-7056D01*
X109582Y-6991D01*
X109473Y-6931D01*
X109361Y-6873D01*
X109249Y-6819D01*
X109134Y-6768D01*
X109018Y-6721D01*
X108901Y-6678D01*
X108782Y-6638D01*
X108662Y-6602D01*
X108541Y-6570D01*
X108419Y-6541D01*
X108297Y-6516D01*
X108173Y-6495D01*
X108049Y-6478D01*
X107925Y-6464D01*
X107800Y-6455D01*
X107675Y-6449D01*
X107550Y-6447D01*
X107407Y-6449D01*
X107265Y-6455D01*
X107122Y-6465D01*
X106980Y-6478D01*
X106839Y-6496D01*
X106697Y-6517D01*
X106557Y-6542D01*
X106417Y-6571D01*
X106278Y-6604D01*
X106140Y-6641D01*
X106003Y-6681D01*
X105868Y-6725D01*
X105733Y-6773D01*
X105600Y-6825D01*
X105468Y-6880D01*
X105338Y-6939D01*
X105210Y-7001D01*
X105083Y-7067D01*
X104958Y-7136D01*
X104835Y-7208D01*
X104714Y-7284D01*
X104596Y-7363D01*
X104479Y-7446D01*
X104365Y-7531D01*
X104253Y-7620D01*
X104144Y-7711D01*
X104037Y-7806D01*
X103932Y-7903D01*
X103831Y-8004D01*
X103732Y-8107D01*
X103636Y-8212D01*
X103543Y-8321D01*
X103453Y-8432D01*
X103366Y-8545D01*
X103282Y-8660D01*
X103202Y-8778D01*
X103124Y-8898D01*
X103050Y-9020D01*
X102980Y-9144D01*
X102912Y-9270D01*
X102849Y-9398D01*
X102788Y-9527D01*
X102731Y-9658D01*
X102678Y-9790D01*
X102629Y-9924D01*
X102583Y-10059D01*
X110259Y-13672D02*
X110353Y-13580D01*
X110443Y-13486D01*
X110531Y-13389D01*
X110616Y-13289D01*
X110698Y-13187D01*
X110776Y-13082D01*
X110852Y-12975D01*
X110924Y-12866D01*
X110993Y-12755D01*
X111059Y-12641D01*
X111121Y-12526D01*
X111180Y-12409D01*
X111235Y-12290D01*
X111286Y-12170D01*
X111334Y-12048D01*
X111379Y-11925D01*
X111419Y-11801D01*
X111456Y-11675D01*
X111489Y-11548D01*
X111518Y-11421D01*
X111544Y-11292D01*
X111565Y-11163D01*
X111583Y-11033D01*
X111596Y-10903D01*
X111606Y-10773D01*
X111612Y-10642D01*
X111614Y-10511D01*
X110259Y-13672D02*
X102583Y-22703D01*
X111614Y-22703D01*
X118214Y-13672D02*
X123633Y-13672D01*
X123751Y-13674D01*
X123869Y-13680D01*
X123987Y-13689D01*
X124104Y-13703D01*
X124221Y-13720D01*
X124338Y-13741D01*
X124453Y-13766D01*
X124568Y-13795D01*
X124682Y-13828D01*
X124794Y-13864D01*
X124905Y-13904D01*
X125015Y-13947D01*
X125124Y-13994D01*
X125231Y-14044D01*
X125336Y-14099D01*
X125439Y-14156D01*
X125540Y-14217D01*
X125640Y-14281D01*
X125737Y-14348D01*
X125832Y-14418D01*
X125924Y-14492D01*
X126015Y-14568D01*
X126102Y-14648D01*
X126187Y-14730D01*
X126269Y-14815D01*
X126349Y-14902D01*
X126425Y-14993D01*
X126499Y-15085D01*
X126569Y-15180D01*
X126636Y-15277D01*
X126700Y-15377D01*
X126761Y-15478D01*
X126818Y-15581D01*
X126873Y-15686D01*
X126923Y-15793D01*
X126970Y-15902D01*
X127013Y-16012D01*
X127053Y-16123D01*
X127089Y-16235D01*
X127122Y-16349D01*
X127151Y-16464D01*
X127176Y-16579D01*
X127197Y-16696D01*
X127214Y-16813D01*
X127228Y-16930D01*
X127237Y-17048D01*
X127243Y-17166D01*
X127245Y-17284D01*
X127245Y-18187D01*
X127246Y-18187D02*
X127244Y-18320D01*
X127238Y-18452D01*
X127228Y-18584D01*
X127215Y-18716D01*
X127197Y-18848D01*
X127176Y-18978D01*
X127151Y-19109D01*
X127122Y-19238D01*
X127089Y-19366D01*
X127053Y-19494D01*
X127013Y-19620D01*
X126969Y-19745D01*
X126921Y-19869D01*
X126870Y-19991D01*
X126815Y-20112D01*
X126757Y-20231D01*
X126695Y-20349D01*
X126630Y-20464D01*
X126561Y-20578D01*
X126490Y-20689D01*
X126414Y-20798D01*
X126336Y-20905D01*
X126255Y-21010D01*
X126170Y-21112D01*
X126083Y-21212D01*
X125993Y-21309D01*
X125900Y-21404D01*
X125804Y-21495D01*
X125706Y-21584D01*
X125605Y-21670D01*
X125501Y-21753D01*
X125395Y-21833D01*
X125287Y-21909D01*
X125177Y-21983D01*
X125064Y-22053D01*
X124950Y-22120D01*
X124833Y-22183D01*
X124715Y-22243D01*
X124595Y-22300D01*
X124473Y-22353D01*
X124350Y-22402D01*
X124226Y-22448D01*
X124100Y-22490D01*
X123973Y-22528D01*
X123845Y-22563D01*
X123716Y-22594D01*
X123587Y-22621D01*
X123456Y-22644D01*
X123325Y-22664D01*
X123193Y-22679D01*
X123061Y-22691D01*
X122929Y-22699D01*
X122796Y-22703D01*
X122664Y-22703D01*
X122531Y-22699D01*
X122399Y-22691D01*
X122267Y-22679D01*
X122135Y-22664D01*
X122004Y-22644D01*
X121873Y-22621D01*
X121744Y-22594D01*
X121615Y-22563D01*
X121487Y-22528D01*
X121360Y-22490D01*
X121234Y-22448D01*
X121110Y-22402D01*
X120987Y-22353D01*
X120865Y-22300D01*
X120745Y-22243D01*
X120627Y-22183D01*
X120510Y-22120D01*
X120396Y-22053D01*
X120283Y-21983D01*
X120173Y-21909D01*
X120065Y-21833D01*
X119959Y-21753D01*
X119855Y-21670D01*
X119754Y-21584D01*
X119656Y-21495D01*
X119560Y-21404D01*
X119467Y-21309D01*
X119377Y-21212D01*
X119290Y-21112D01*
X119205Y-21010D01*
X119124Y-20905D01*
X119046Y-20798D01*
X118970Y-20689D01*
X118899Y-20578D01*
X118830Y-20464D01*
X118765Y-20349D01*
X118703Y-20231D01*
X118645Y-20112D01*
X118590Y-19991D01*
X118539Y-19869D01*
X118491Y-19745D01*
X118447Y-19620D01*
X118407Y-19494D01*
X118371Y-19366D01*
X118338Y-19238D01*
X118309Y-19109D01*
X118284Y-18978D01*
X118263Y-18848D01*
X118245Y-18716D01*
X118232Y-18584D01*
X118222Y-18452D01*
X118216Y-18320D01*
X118214Y-18187D01*
X118214Y-13672D01*
X118216Y-13495D01*
X118223Y-13317D01*
X118234Y-13140D01*
X118249Y-12964D01*
X118268Y-12788D01*
X118292Y-12612D01*
X118320Y-12437D01*
X118353Y-12262D01*
X118390Y-12089D01*
X118431Y-11916D01*
X118476Y-11745D01*
X118525Y-11575D01*
X118579Y-11406D01*
X118636Y-11238D01*
X118698Y-11072D01*
X118764Y-10907D01*
X118834Y-10744D01*
X118908Y-10583D01*
X118985Y-10424D01*
X119067Y-10266D01*
X119153Y-10111D01*
X119242Y-9958D01*
X119335Y-9807D01*
X119432Y-9658D01*
X119532Y-9512D01*
X119636Y-9368D01*
X119743Y-9227D01*
X119854Y-9089D01*
X119968Y-8953D01*
X120086Y-8820D01*
X120206Y-8690D01*
X120330Y-8563D01*
X120457Y-8439D01*
X120587Y-8319D01*
X120720Y-8201D01*
X120855Y-8087D01*
X120994Y-7976D01*
X121135Y-7869D01*
X121279Y-7765D01*
X121425Y-7665D01*
X121574Y-7568D01*
X121725Y-7475D01*
X121878Y-7386D01*
X122033Y-7300D01*
X122191Y-7218D01*
X122350Y-7141D01*
X122511Y-7067D01*
X122674Y-6997D01*
X122839Y-6931D01*
X123005Y-6869D01*
X123173Y-6812D01*
X123342Y-6758D01*
X123512Y-6709D01*
X123683Y-6664D01*
X123856Y-6623D01*
X124029Y-6586D01*
X124204Y-6553D01*
X124379Y-6525D01*
X124555Y-6501D01*
X124731Y-6482D01*
X124907Y-6467D01*
X125084Y-6456D01*
X125262Y-6449D01*
X125439Y-6447D01*
X133220Y-21800D02*
X133220Y-22703D01*
X133220Y-21800D02*
X134123Y-21800D01*
X134123Y-22703D01*
X133220Y-22703D01*
X140098Y-19091D02*
X143710Y-6447D01*
X140098Y-19091D02*
X149129Y-19091D01*
X146420Y-15478D02*
X146420Y-22703D01*
X160696Y-6447D02*
X160821Y-6449D01*
X160946Y-6455D01*
X161071Y-6464D01*
X161195Y-6478D01*
X161319Y-6495D01*
X161443Y-6516D01*
X161565Y-6541D01*
X161687Y-6570D01*
X161808Y-6602D01*
X161928Y-6638D01*
X162047Y-6678D01*
X162164Y-6721D01*
X162280Y-6768D01*
X162395Y-6819D01*
X162507Y-6873D01*
X162619Y-6931D01*
X162728Y-6991D01*
X162835Y-7056D01*
X162941Y-7123D01*
X163044Y-7194D01*
X163145Y-7268D01*
X163244Y-7345D01*
X163340Y-7425D01*
X163434Y-7508D01*
X163525Y-7593D01*
X163614Y-7682D01*
X163699Y-7773D01*
X163782Y-7867D01*
X163862Y-7963D01*
X163939Y-8062D01*
X164013Y-8163D01*
X164084Y-8266D01*
X164151Y-8372D01*
X164216Y-8479D01*
X164276Y-8588D01*
X164334Y-8700D01*
X164388Y-8812D01*
X164439Y-8927D01*
X164486Y-9043D01*
X164529Y-9160D01*
X164569Y-9279D01*
X164605Y-9399D01*
X164637Y-9520D01*
X164666Y-9642D01*
X164691Y-9764D01*
X164712Y-9888D01*
X164729Y-10012D01*
X164743Y-10136D01*
X164752Y-10261D01*
X164758Y-10386D01*
X164760Y-10511D01*
X160696Y-6447D02*
X160553Y-6449D01*
X160411Y-6455D01*
X160268Y-6465D01*
X160126Y-6478D01*
X159985Y-6496D01*
X159843Y-6517D01*
X159703Y-6542D01*
X159563Y-6571D01*
X159424Y-6604D01*
X159286Y-6641D01*
X159149Y-6681D01*
X159014Y-6725D01*
X158879Y-6773D01*
X158746Y-6825D01*
X158614Y-6880D01*
X158484Y-6939D01*
X158356Y-7001D01*
X158229Y-7067D01*
X158104Y-7136D01*
X157981Y-7208D01*
X157860Y-7284D01*
X157742Y-7363D01*
X157625Y-7446D01*
X157511Y-7531D01*
X157399Y-7620D01*
X157290Y-7711D01*
X157183Y-7806D01*
X157078Y-7903D01*
X156977Y-8004D01*
X156878Y-8107D01*
X156782Y-8212D01*
X156689Y-8321D01*
X156599Y-8432D01*
X156512Y-8545D01*
X156428Y-8660D01*
X156348Y-8778D01*
X156270Y-8898D01*
X156196Y-9020D01*
X156126Y-9144D01*
X156058Y-9270D01*
X155995Y-9398D01*
X155934Y-9527D01*
X155877Y-9658D01*
X155824Y-9790D01*
X155775Y-9924D01*
X155729Y-10059D01*
X163405Y-13672D02*
X163499Y-13580D01*
X163589Y-13486D01*
X163677Y-13389D01*
X163762Y-13289D01*
X163844Y-13187D01*
X163922Y-13082D01*
X163998Y-12975D01*
X164070Y-12866D01*
X164139Y-12755D01*
X164205Y-12641D01*
X164267Y-12526D01*
X164326Y-12409D01*
X164381Y-12290D01*
X164432Y-12170D01*
X164480Y-12048D01*
X164525Y-11925D01*
X164565Y-11801D01*
X164602Y-11675D01*
X164635Y-11548D01*
X164664Y-11421D01*
X164690Y-11292D01*
X164711Y-11163D01*
X164729Y-11033D01*
X164742Y-10903D01*
X164752Y-10773D01*
X164758Y-10642D01*
X164760Y-10511D01*
X163406Y-13672D02*
X155729Y-22703D01*
X164760Y-22703D01*
D10*
X265811Y169418D02*
X329380Y169418D01*
X329380Y1270D02*
X265811Y1270D01*
X309880Y1920D02*
X309880Y168768D01*
X306688Y143418D01*
X313072Y143418D01*
X309880Y168768D01*
X308580Y143418D01*
X311180Y143418D02*
X309880Y168768D01*
X307280Y143418D01*
X312480Y143418D02*
X309880Y168768D01*
X306688Y27270D02*
X309880Y1920D01*
X306688Y27270D02*
X313072Y27270D01*
X309880Y1920D01*
X308580Y27270D01*
X311180Y27270D02*
X309880Y1920D01*
X307280Y27270D01*
X312480Y27270D02*
X309880Y1920D01*
D11*
X290729Y54196D02*
X287117Y58712D01*
X303373Y58712D01*
X303373Y63227D02*
X303373Y54196D01*
X294342Y69827D02*
X294342Y75246D01*
X294344Y75364D01*
X294350Y75482D01*
X294359Y75600D01*
X294373Y75717D01*
X294390Y75834D01*
X294411Y75951D01*
X294436Y76066D01*
X294465Y76181D01*
X294498Y76295D01*
X294534Y76407D01*
X294574Y76518D01*
X294617Y76628D01*
X294664Y76737D01*
X294714Y76844D01*
X294769Y76949D01*
X294826Y77052D01*
X294887Y77153D01*
X294951Y77253D01*
X295018Y77350D01*
X295088Y77445D01*
X295162Y77537D01*
X295238Y77628D01*
X295318Y77715D01*
X295400Y77800D01*
X295485Y77882D01*
X295572Y77962D01*
X295663Y78038D01*
X295755Y78112D01*
X295850Y78182D01*
X295947Y78249D01*
X296047Y78313D01*
X296148Y78374D01*
X296251Y78431D01*
X296356Y78486D01*
X296463Y78536D01*
X296572Y78583D01*
X296682Y78626D01*
X296793Y78666D01*
X296905Y78702D01*
X297019Y78735D01*
X297134Y78764D01*
X297249Y78789D01*
X297366Y78810D01*
X297483Y78827D01*
X297600Y78841D01*
X297718Y78850D01*
X297836Y78856D01*
X297954Y78858D01*
X298857Y78858D01*
X298857Y78859D02*
X298990Y78857D01*
X299122Y78851D01*
X299254Y78841D01*
X299386Y78828D01*
X299518Y78810D01*
X299648Y78789D01*
X299779Y78764D01*
X299908Y78735D01*
X300036Y78702D01*
X300164Y78666D01*
X300290Y78626D01*
X300415Y78582D01*
X300539Y78534D01*
X300661Y78483D01*
X300782Y78428D01*
X300901Y78370D01*
X301019Y78308D01*
X301134Y78243D01*
X301248Y78174D01*
X301359Y78103D01*
X301468Y78027D01*
X301575Y77949D01*
X301680Y77868D01*
X301782Y77783D01*
X301882Y77696D01*
X301979Y77606D01*
X302074Y77513D01*
X302165Y77417D01*
X302254Y77319D01*
X302340Y77218D01*
X302423Y77114D01*
X302503Y77008D01*
X302579Y76900D01*
X302653Y76790D01*
X302723Y76677D01*
X302790Y76563D01*
X302853Y76446D01*
X302913Y76328D01*
X302970Y76208D01*
X303023Y76086D01*
X303072Y75963D01*
X303118Y75839D01*
X303160Y75713D01*
X303198Y75586D01*
X303233Y75458D01*
X303264Y75329D01*
X303291Y75200D01*
X303314Y75069D01*
X303334Y74938D01*
X303349Y74806D01*
X303361Y74674D01*
X303369Y74542D01*
X303373Y74409D01*
X303373Y74277D01*
X303369Y74144D01*
X303361Y74012D01*
X303349Y73880D01*
X303334Y73748D01*
X303314Y73617D01*
X303291Y73486D01*
X303264Y73357D01*
X303233Y73228D01*
X303198Y73100D01*
X303160Y72973D01*
X303118Y72847D01*
X303072Y72723D01*
X303023Y72600D01*
X302970Y72478D01*
X302913Y72358D01*
X302853Y72240D01*
X302790Y72123D01*
X302723Y72009D01*
X302653Y71896D01*
X302579Y71786D01*
X302503Y71678D01*
X302423Y71572D01*
X302340Y71468D01*
X302254Y71367D01*
X302165Y71269D01*
X302074Y71173D01*
X301979Y71080D01*
X301882Y70990D01*
X301782Y70903D01*
X301680Y70818D01*
X301575Y70737D01*
X301468Y70659D01*
X301359Y70583D01*
X301248Y70512D01*
X301134Y70443D01*
X301019Y70378D01*
X300901Y70316D01*
X300782Y70258D01*
X300661Y70203D01*
X300539Y70152D01*
X300415Y70104D01*
X300290Y70060D01*
X300164Y70020D01*
X300036Y69984D01*
X299908Y69951D01*
X299779Y69922D01*
X299648Y69897D01*
X299518Y69876D01*
X299386Y69858D01*
X299254Y69845D01*
X299122Y69835D01*
X298990Y69829D01*
X298857Y69827D01*
X294342Y69827D01*
X294165Y69829D01*
X293987Y69836D01*
X293810Y69847D01*
X293634Y69862D01*
X293458Y69881D01*
X293282Y69905D01*
X293107Y69933D01*
X292932Y69966D01*
X292759Y70003D01*
X292586Y70044D01*
X292415Y70089D01*
X292245Y70138D01*
X292076Y70192D01*
X291908Y70249D01*
X291742Y70311D01*
X291577Y70377D01*
X291414Y70447D01*
X291253Y70521D01*
X291094Y70598D01*
X290936Y70680D01*
X290781Y70766D01*
X290628Y70855D01*
X290477Y70948D01*
X290328Y71045D01*
X290182Y71145D01*
X290038Y71249D01*
X289897Y71356D01*
X289759Y71467D01*
X289623Y71581D01*
X289490Y71699D01*
X289360Y71819D01*
X289233Y71943D01*
X289109Y72070D01*
X288989Y72200D01*
X288871Y72333D01*
X288757Y72468D01*
X288646Y72607D01*
X288539Y72748D01*
X288435Y72892D01*
X288335Y73038D01*
X288238Y73187D01*
X288145Y73338D01*
X288056Y73491D01*
X287970Y73646D01*
X287888Y73804D01*
X287811Y73963D01*
X287737Y74124D01*
X287667Y74287D01*
X287601Y74452D01*
X287539Y74618D01*
X287482Y74786D01*
X287428Y74955D01*
X287379Y75125D01*
X287334Y75296D01*
X287293Y75469D01*
X287256Y75642D01*
X287223Y75817D01*
X287195Y75992D01*
X287171Y76168D01*
X287152Y76344D01*
X287137Y76520D01*
X287126Y76697D01*
X287119Y76875D01*
X287117Y77052D01*
X302470Y84833D02*
X303373Y84833D01*
X302470Y84833D02*
X302470Y85736D01*
X303373Y85736D01*
X303373Y84833D01*
X298857Y91710D02*
X298724Y91712D01*
X298592Y91718D01*
X298460Y91728D01*
X298328Y91741D01*
X298196Y91759D01*
X298066Y91780D01*
X297935Y91805D01*
X297806Y91834D01*
X297678Y91867D01*
X297550Y91903D01*
X297424Y91943D01*
X297299Y91987D01*
X297175Y92035D01*
X297053Y92086D01*
X296932Y92141D01*
X296813Y92199D01*
X296695Y92261D01*
X296580Y92326D01*
X296466Y92395D01*
X296355Y92466D01*
X296246Y92542D01*
X296139Y92620D01*
X296034Y92701D01*
X295932Y92786D01*
X295832Y92873D01*
X295735Y92963D01*
X295640Y93056D01*
X295549Y93152D01*
X295460Y93250D01*
X295374Y93351D01*
X295291Y93455D01*
X295211Y93561D01*
X295135Y93669D01*
X295061Y93779D01*
X294991Y93892D01*
X294924Y94006D01*
X294861Y94123D01*
X294801Y94241D01*
X294744Y94361D01*
X294691Y94483D01*
X294642Y94606D01*
X294596Y94730D01*
X294554Y94856D01*
X294516Y94983D01*
X294481Y95111D01*
X294450Y95240D01*
X294423Y95369D01*
X294400Y95500D01*
X294380Y95631D01*
X294365Y95763D01*
X294353Y95895D01*
X294345Y96027D01*
X294341Y96160D01*
X294341Y96292D01*
X294345Y96425D01*
X294353Y96557D01*
X294365Y96689D01*
X294380Y96821D01*
X294400Y96952D01*
X294423Y97083D01*
X294450Y97212D01*
X294481Y97341D01*
X294516Y97469D01*
X294554Y97596D01*
X294596Y97722D01*
X294642Y97846D01*
X294691Y97969D01*
X294744Y98091D01*
X294801Y98211D01*
X294861Y98329D01*
X294924Y98446D01*
X294991Y98560D01*
X295061Y98673D01*
X295135Y98783D01*
X295211Y98891D01*
X295291Y98997D01*
X295374Y99101D01*
X295460Y99202D01*
X295549Y99300D01*
X295640Y99396D01*
X295735Y99489D01*
X295832Y99579D01*
X295932Y99666D01*
X296034Y99751D01*
X296139Y99832D01*
X296246Y99910D01*
X296355Y99986D01*
X296466Y100057D01*
X296580Y100126D01*
X296695Y100191D01*
X296813Y100253D01*
X296932Y100311D01*
X297053Y100366D01*
X297175Y100417D01*
X297299Y100465D01*
X297424Y100509D01*
X297550Y100549D01*
X297678Y100585D01*
X297806Y100618D01*
X297935Y100647D01*
X298066Y100672D01*
X298196Y100693D01*
X298328Y100711D01*
X298460Y100724D01*
X298592Y100734D01*
X298724Y100740D01*
X298857Y100742D01*
X298990Y100740D01*
X299122Y100734D01*
X299254Y100724D01*
X299386Y100711D01*
X299518Y100693D01*
X299648Y100672D01*
X299779Y100647D01*
X299908Y100618D01*
X300036Y100585D01*
X300164Y100549D01*
X300290Y100509D01*
X300415Y100465D01*
X300539Y100417D01*
X300661Y100366D01*
X300782Y100311D01*
X300901Y100253D01*
X301019Y100191D01*
X301134Y100126D01*
X301248Y100057D01*
X301359Y99986D01*
X301468Y99910D01*
X301575Y99832D01*
X301680Y99751D01*
X301782Y99666D01*
X301882Y99579D01*
X301979Y99489D01*
X302074Y99396D01*
X302165Y99300D01*
X302254Y99202D01*
X302340Y99101D01*
X302423Y98997D01*
X302503Y98891D01*
X302579Y98783D01*
X302653Y98673D01*
X302723Y98560D01*
X302790Y98446D01*
X302853Y98329D01*
X302913Y98211D01*
X302970Y98091D01*
X303023Y97969D01*
X303072Y97846D01*
X303118Y97722D01*
X303160Y97596D01*
X303198Y97469D01*
X303233Y97341D01*
X303264Y97212D01*
X303291Y97083D01*
X303314Y96952D01*
X303334Y96821D01*
X303349Y96689D01*
X303361Y96557D01*
X303369Y96425D01*
X303373Y96292D01*
X303373Y96160D01*
X303369Y96027D01*
X303361Y95895D01*
X303349Y95763D01*
X303334Y95631D01*
X303314Y95500D01*
X303291Y95369D01*
X303264Y95240D01*
X303233Y95111D01*
X303198Y94983D01*
X303160Y94856D01*
X303118Y94730D01*
X303072Y94606D01*
X303023Y94483D01*
X302970Y94361D01*
X302913Y94241D01*
X302853Y94123D01*
X302790Y94006D01*
X302723Y93892D01*
X302653Y93779D01*
X302579Y93669D01*
X302503Y93561D01*
X302423Y93455D01*
X302340Y93351D01*
X302254Y93250D01*
X302165Y93152D01*
X302074Y93056D01*
X301979Y92963D01*
X301882Y92873D01*
X301782Y92786D01*
X301680Y92701D01*
X301575Y92620D01*
X301468Y92542D01*
X301359Y92466D01*
X301248Y92395D01*
X301134Y92326D01*
X301019Y92261D01*
X300901Y92199D01*
X300782Y92141D01*
X300661Y92086D01*
X300539Y92035D01*
X300415Y91987D01*
X300290Y91943D01*
X300164Y91903D01*
X300036Y91867D01*
X299908Y91834D01*
X299779Y91805D01*
X299648Y91780D01*
X299518Y91759D01*
X299386Y91741D01*
X299254Y91728D01*
X299122Y91718D01*
X298990Y91712D01*
X298857Y91710D01*
X290729Y92614D02*
X290610Y92616D01*
X290490Y92622D01*
X290371Y92632D01*
X290253Y92646D01*
X290134Y92663D01*
X290017Y92685D01*
X289900Y92710D01*
X289785Y92740D01*
X289670Y92773D01*
X289556Y92810D01*
X289444Y92850D01*
X289333Y92895D01*
X289224Y92943D01*
X289116Y92994D01*
X289010Y93049D01*
X288906Y93108D01*
X288804Y93170D01*
X288704Y93235D01*
X288606Y93304D01*
X288510Y93376D01*
X288417Y93451D01*
X288327Y93528D01*
X288239Y93609D01*
X288154Y93693D01*
X288072Y93780D01*
X287992Y93869D01*
X287916Y93961D01*
X287842Y94055D01*
X287772Y94152D01*
X287705Y94250D01*
X287641Y94351D01*
X287581Y94455D01*
X287524Y94560D01*
X287471Y94667D01*
X287421Y94775D01*
X287375Y94885D01*
X287333Y94997D01*
X287294Y95110D01*
X287259Y95224D01*
X287228Y95339D01*
X287200Y95456D01*
X287177Y95573D01*
X287157Y95690D01*
X287141Y95809D01*
X287129Y95928D01*
X287121Y96047D01*
X287117Y96166D01*
X287117Y96286D01*
X287121Y96405D01*
X287129Y96524D01*
X287141Y96643D01*
X287157Y96762D01*
X287177Y96879D01*
X287200Y96996D01*
X287228Y97113D01*
X287259Y97228D01*
X287294Y97342D01*
X287333Y97455D01*
X287375Y97567D01*
X287421Y97677D01*
X287471Y97785D01*
X287524Y97892D01*
X287581Y97997D01*
X287641Y98101D01*
X287705Y98202D01*
X287772Y98300D01*
X287842Y98397D01*
X287916Y98491D01*
X287992Y98583D01*
X288072Y98672D01*
X288154Y98759D01*
X288239Y98843D01*
X288327Y98924D01*
X288417Y99001D01*
X288510Y99076D01*
X288606Y99148D01*
X288704Y99217D01*
X288804Y99282D01*
X288906Y99344D01*
X289010Y99403D01*
X289116Y99458D01*
X289224Y99509D01*
X289333Y99557D01*
X289444Y99602D01*
X289556Y99642D01*
X289670Y99679D01*
X289785Y99712D01*
X289900Y99742D01*
X290017Y99767D01*
X290134Y99789D01*
X290253Y99806D01*
X290371Y99820D01*
X290490Y99830D01*
X290610Y99836D01*
X290729Y99838D01*
X290848Y99836D01*
X290968Y99830D01*
X291087Y99820D01*
X291205Y99806D01*
X291324Y99789D01*
X291441Y99767D01*
X291558Y99742D01*
X291673Y99712D01*
X291788Y99679D01*
X291902Y99642D01*
X292014Y99602D01*
X292125Y99557D01*
X292234Y99509D01*
X292342Y99458D01*
X292448Y99403D01*
X292552Y99344D01*
X292654Y99282D01*
X292754Y99217D01*
X292852Y99148D01*
X292948Y99076D01*
X293041Y99001D01*
X293131Y98924D01*
X293219Y98843D01*
X293304Y98759D01*
X293386Y98672D01*
X293466Y98583D01*
X293542Y98491D01*
X293616Y98397D01*
X293686Y98300D01*
X293753Y98202D01*
X293817Y98101D01*
X293877Y97997D01*
X293934Y97892D01*
X293987Y97785D01*
X294037Y97677D01*
X294083Y97567D01*
X294125Y97455D01*
X294164Y97342D01*
X294199Y97228D01*
X294230Y97113D01*
X294258Y96996D01*
X294281Y96879D01*
X294301Y96762D01*
X294317Y96643D01*
X294329Y96524D01*
X294337Y96405D01*
X294341Y96286D01*
X294341Y96166D01*
X294337Y96047D01*
X294329Y95928D01*
X294317Y95809D01*
X294301Y95690D01*
X294281Y95573D01*
X294258Y95456D01*
X294230Y95339D01*
X294199Y95224D01*
X294164Y95110D01*
X294125Y94997D01*
X294083Y94885D01*
X294037Y94775D01*
X293987Y94667D01*
X293934Y94560D01*
X293877Y94455D01*
X293817Y94351D01*
X293753Y94250D01*
X293686Y94152D01*
X293616Y94055D01*
X293542Y93961D01*
X293466Y93869D01*
X293386Y93780D01*
X293304Y93693D01*
X293219Y93609D01*
X293131Y93528D01*
X293041Y93451D01*
X292948Y93376D01*
X292852Y93304D01*
X292754Y93235D01*
X292654Y93170D01*
X292552Y93108D01*
X292448Y93049D01*
X292342Y92994D01*
X292234Y92943D01*
X292125Y92895D01*
X292014Y92850D01*
X291902Y92810D01*
X291788Y92773D01*
X291673Y92740D01*
X291558Y92710D01*
X291441Y92685D01*
X291324Y92663D01*
X291205Y92646D01*
X291087Y92632D01*
X290968Y92622D01*
X290848Y92616D01*
X290729Y92614D01*
X290729Y107342D02*
X287117Y111858D01*
X303373Y111858D01*
X303373Y116373D02*
X303373Y107342D01*
D12*
X145371Y67242D03*
X145371Y72242D03*
X145371Y77242D03*
X145371Y82242D03*
X145371Y87242D03*
X145371Y92242D03*
X145371Y97242D03*
X145371Y102242D03*
X145371Y107242D03*
X145371Y112242D03*
X145371Y117242D03*
X145371Y122242D03*
D13*
X138371Y129242D03*
X133371Y129242D03*
X128371Y129242D03*
X123371Y129242D03*
X118371Y129242D03*
X113371Y129242D03*
X108371Y129242D03*
X103371Y129242D03*
X98371Y129242D03*
X93371Y129242D03*
X88371Y129242D03*
X83371Y129242D03*
D12*
X76371Y122242D03*
X76371Y117242D03*
X76371Y112242D03*
X76371Y107242D03*
X76371Y102242D03*
X76371Y97242D03*
X76371Y92242D03*
X76371Y87242D03*
X76371Y82242D03*
X76371Y77242D03*
X76371Y72242D03*
X76371Y67242D03*
D13*
X83371Y60242D03*
X88371Y60242D03*
X93371Y60242D03*
X98371Y60242D03*
X103371Y60242D03*
X108371Y60242D03*
X113371Y60242D03*
X118371Y60242D03*
X123371Y60242D03*
X128371Y60242D03*
X133371Y60242D03*
X138371Y60242D03*
D14*
X85408Y69279D02*
X85408Y120205D01*
X136334Y120205D01*
X136334Y69279D01*
X85408Y69279D01*
X85408Y70775D02*
X136334Y70775D01*
X136334Y72271D02*
X85408Y72271D01*
X85408Y73767D02*
X136334Y73767D01*
X136334Y75263D02*
X85408Y75263D01*
X85408Y76759D02*
X136334Y76759D01*
X136334Y78255D02*
X85408Y78255D01*
X85408Y79751D02*
X136334Y79751D01*
X136334Y81247D02*
X85408Y81247D01*
X85408Y82743D02*
X136334Y82743D01*
X136334Y84239D02*
X85408Y84239D01*
X85408Y85735D02*
X136334Y85735D01*
X136334Y87231D02*
X85408Y87231D01*
X85408Y88727D02*
X136334Y88727D01*
X136334Y90223D02*
X85408Y90223D01*
X85408Y91719D02*
X136334Y91719D01*
X136334Y93215D02*
X85408Y93215D01*
X85408Y94711D02*
X136334Y94711D01*
X136334Y96207D02*
X85408Y96207D01*
X85408Y97703D02*
X136334Y97703D01*
X136334Y99199D02*
X85408Y99199D01*
X85408Y100695D02*
X136334Y100695D01*
X136334Y102191D02*
X85408Y102191D01*
X85408Y103687D02*
X136334Y103687D01*
X136334Y105183D02*
X85408Y105183D01*
X85408Y106679D02*
X136334Y106679D01*
X136334Y108175D02*
X85408Y108175D01*
X85408Y109671D02*
X136334Y109671D01*
X136334Y111167D02*
X85408Y111167D01*
X85408Y112663D02*
X136334Y112663D01*
X136334Y114159D02*
X85408Y114159D01*
X85408Y115655D02*
X136334Y115655D01*
X136334Y117151D02*
X85408Y117151D01*
X85408Y118647D02*
X136334Y118647D01*
X136334Y120143D02*
X85408Y120143D01*
D15*
X43252Y143339D02*
X43252Y145931D01*
X43252Y143339D02*
X40060Y143339D01*
X40060Y145931D01*
X43252Y145931D01*
X40060Y137331D02*
X40060Y134739D01*
X40060Y137331D02*
X43252Y137331D01*
X43252Y134739D01*
X40060Y134739D01*
X32965Y143339D02*
X32965Y145931D01*
X32965Y143339D02*
X29773Y143339D01*
X29773Y145931D01*
X32965Y145931D01*
X29773Y137331D02*
X29773Y134739D01*
X29773Y137331D02*
X32965Y137331D01*
X32965Y134739D01*
X29773Y134739D01*
X90496Y43823D02*
X90496Y41231D01*
X87304Y41231D01*
X87304Y43823D01*
X90496Y43823D01*
X87304Y35223D02*
X87304Y32631D01*
X87304Y35223D02*
X90496Y35223D01*
X90496Y32631D01*
X87304Y32631D01*
X77525Y32504D02*
X77525Y35096D01*
X80717Y35096D01*
X80717Y32504D01*
X77525Y32504D01*
X80717Y41104D02*
X80717Y43696D01*
X80717Y41104D02*
X77525Y41104D01*
X77525Y43696D01*
X80717Y43696D01*
X74974Y144598D02*
X72382Y144598D01*
X74974Y144598D02*
X74974Y141406D01*
X72382Y141406D01*
X72382Y144598D01*
X72382Y144074D02*
X74974Y144074D01*
X80982Y141406D02*
X83574Y141406D01*
X80982Y141406D02*
X80982Y144598D01*
X83574Y144598D01*
X83574Y141406D01*
X83574Y144074D02*
X80982Y144074D01*
X172331Y135327D02*
X174923Y135327D01*
X174923Y132135D01*
X172331Y132135D01*
X172331Y135327D01*
X172331Y134803D02*
X174923Y134803D01*
X180931Y132135D02*
X183523Y132135D01*
X180931Y132135D02*
X180931Y135327D01*
X183523Y135327D01*
X183523Y132135D01*
X183523Y134803D02*
X180931Y134803D01*
X165616Y132135D02*
X163024Y132135D01*
X163024Y135327D01*
X165616Y135327D01*
X165616Y132135D01*
X165616Y134803D02*
X163024Y134803D01*
X157016Y135327D02*
X154424Y135327D01*
X157016Y135327D02*
X157016Y132135D01*
X154424Y132135D01*
X154424Y135327D01*
X154424Y134803D02*
X157016Y134803D01*
X136707Y144645D02*
X136707Y147237D01*
X139899Y147237D01*
X139899Y144645D01*
X136707Y144645D01*
X139899Y153245D02*
X139899Y155837D01*
X139899Y153245D02*
X136707Y153245D01*
X136707Y155837D01*
X139899Y155837D01*
X91749Y148507D02*
X91749Y145915D01*
X91749Y148507D02*
X94941Y148507D01*
X94941Y145915D01*
X91749Y145915D01*
X94941Y154515D02*
X94941Y157107D01*
X94941Y154515D02*
X91749Y154515D01*
X91749Y157107D01*
X94941Y157107D01*
X104085Y41918D02*
X104085Y39326D01*
X100893Y39326D01*
X100893Y41918D01*
X104085Y41918D01*
X100893Y33318D02*
X100893Y30726D01*
X100893Y33318D02*
X104085Y33318D01*
X104085Y30726D01*
X100893Y30726D01*
X70557Y41104D02*
X70557Y43696D01*
X70557Y41104D02*
X67365Y41104D01*
X67365Y43696D01*
X70557Y43696D01*
X67365Y35096D02*
X67365Y32504D01*
X67365Y35096D02*
X70557Y35096D01*
X70557Y32504D01*
X67365Y32504D01*
D16*
X59221Y55852D02*
X54221Y55852D01*
X54221Y65052D01*
X59221Y65052D01*
X59221Y55852D01*
X59221Y60602D02*
X54221Y60602D01*
X40521Y65052D02*
X35521Y65052D01*
X40521Y65052D02*
X40521Y55852D01*
X35521Y55852D01*
X35521Y65052D01*
X35521Y60602D02*
X40521Y60602D01*
X39378Y107470D02*
X34378Y107470D01*
X39378Y107470D02*
X39378Y98270D01*
X34378Y98270D01*
X34378Y107470D01*
X34378Y103020D02*
X39378Y103020D01*
X53078Y98270D02*
X58078Y98270D01*
X53078Y98270D02*
X53078Y107470D01*
X58078Y107470D01*
X58078Y98270D01*
X58078Y103020D02*
X53078Y103020D01*
D15*
X113737Y41918D02*
X113737Y39326D01*
X110545Y39326D01*
X110545Y41918D01*
X113737Y41918D01*
X110545Y33318D02*
X110545Y30726D01*
X110545Y33318D02*
X113737Y33318D01*
X113737Y30726D01*
X110545Y30726D01*
X151456Y50756D02*
X151456Y53348D01*
X151456Y50756D02*
X148264Y50756D01*
X148264Y53348D01*
X151456Y53348D01*
X148264Y44748D02*
X148264Y42156D01*
X148264Y44748D02*
X151456Y44748D01*
X151456Y42156D01*
X148264Y42156D01*
D17*
X53625Y123976D02*
X53625Y127848D01*
X58897Y127848D01*
X58897Y123976D01*
X53625Y123976D01*
X53625Y127804D02*
X58897Y127804D01*
X58897Y140376D02*
X58897Y144248D01*
X58897Y140376D02*
X53625Y140376D01*
X53625Y144248D01*
X58897Y144248D01*
X58897Y144204D02*
X53625Y144204D01*
D16*
X53205Y76680D02*
X58205Y76680D01*
X53205Y76680D02*
X53205Y85880D01*
X58205Y85880D01*
X58205Y76680D01*
X58205Y81430D02*
X53205Y81430D01*
X39505Y85880D02*
X34505Y85880D01*
X39505Y85880D02*
X39505Y76680D01*
X34505Y76680D01*
X34505Y85880D01*
X34505Y81430D02*
X39505Y81430D01*
D18*
X181537Y149352D03*
X156537Y149352D03*
D19*
X138211Y25643D03*
X138211Y40143D03*
X126711Y40143D03*
X126711Y25643D03*
D20*
X210606Y145968D03*
D21*
X210606Y124968D03*
D22*
X169877Y73026D02*
X167177Y73026D01*
X167177Y76326D01*
X169877Y76326D01*
X169877Y73026D01*
X169877Y75591D02*
X167177Y75591D01*
X175817Y73026D02*
X178517Y73026D01*
X175817Y73026D02*
X175817Y76326D01*
X178517Y76326D01*
X178517Y73026D01*
X178517Y75591D02*
X175817Y75591D01*
X170004Y83313D02*
X167304Y83313D01*
X167304Y86613D01*
X170004Y86613D01*
X170004Y83313D01*
X170004Y85878D02*
X167304Y85878D01*
X175944Y83313D02*
X178644Y83313D01*
X175944Y83313D02*
X175944Y86613D01*
X178644Y86613D01*
X178644Y83313D01*
X178644Y85878D02*
X175944Y85878D01*
X176071Y44830D02*
X178771Y44830D01*
X178771Y41530D01*
X176071Y41530D01*
X176071Y44830D01*
X176071Y44095D02*
X178771Y44095D01*
X170131Y44830D02*
X167431Y44830D01*
X170131Y44830D02*
X170131Y41530D01*
X167431Y41530D01*
X167431Y44830D01*
X167431Y44095D02*
X170131Y44095D01*
X170004Y62358D02*
X167304Y62358D01*
X167304Y65658D01*
X170004Y65658D01*
X170004Y62358D01*
X170004Y64923D02*
X167304Y64923D01*
X175944Y62358D02*
X178644Y62358D01*
X175944Y62358D02*
X175944Y65658D01*
X178644Y65658D01*
X178644Y62358D01*
X178644Y64923D02*
X175944Y64923D01*
X194057Y60915D02*
X194057Y58215D01*
X194057Y60915D02*
X197357Y60915D01*
X197357Y58215D01*
X194057Y58215D01*
X194057Y60780D02*
X197357Y60780D01*
X194057Y52275D02*
X194057Y49575D01*
X194057Y52275D02*
X197357Y52275D01*
X197357Y49575D01*
X194057Y49575D01*
X194057Y52140D02*
X197357Y52140D01*
X197230Y96565D02*
X197230Y99265D01*
X197230Y96565D02*
X193930Y96565D01*
X193930Y99265D01*
X197230Y99265D01*
X197230Y99130D02*
X193930Y99130D01*
X197230Y105205D02*
X197230Y107905D01*
X197230Y105205D02*
X193930Y105205D01*
X193930Y107905D01*
X197230Y107905D01*
X197230Y107770D02*
X193930Y107770D01*
X196324Y113190D02*
X198315Y115014D01*
X196324Y113190D02*
X194095Y115622D01*
X196086Y117446D01*
X198315Y115014D01*
X197636Y115755D02*
X194240Y115755D01*
X202694Y119028D02*
X204685Y120852D01*
X202694Y119028D02*
X200465Y121460D01*
X202456Y123284D01*
X204685Y120852D01*
X204006Y121593D02*
X200610Y121593D01*
X170004Y52071D02*
X167304Y52071D01*
X167304Y55371D01*
X170004Y55371D01*
X170004Y52071D01*
X170004Y54636D02*
X167304Y54636D01*
X175944Y52071D02*
X178644Y52071D01*
X175944Y52071D02*
X175944Y55371D01*
X178644Y55371D01*
X178644Y52071D01*
X178644Y54636D02*
X175944Y54636D01*
X185719Y67692D02*
X188419Y67692D01*
X185719Y67692D02*
X185719Y70992D01*
X188419Y70992D01*
X188419Y67692D01*
X188419Y70257D02*
X185719Y70257D01*
X194359Y67692D02*
X197059Y67692D01*
X194359Y67692D02*
X194359Y70992D01*
X197059Y70992D01*
X197059Y67692D01*
X197059Y70257D02*
X194359Y70257D01*
X197103Y78023D02*
X197103Y80723D01*
X197103Y78023D02*
X193803Y78023D01*
X193803Y80723D01*
X197103Y80723D01*
X197103Y80588D02*
X193803Y80588D01*
X197103Y86663D02*
X197103Y89363D01*
X197103Y86663D02*
X193803Y86663D01*
X193803Y89363D01*
X197103Y89363D01*
X197103Y89228D02*
X193803Y89228D01*
D21*
X210566Y124968D03*
D20*
X210566Y145923D03*
D23*
X56822Y39242D03*
X56822Y23242D03*
X15822Y23242D03*
X15822Y39242D03*
D22*
X166923Y18035D02*
X169623Y18035D01*
X166923Y18035D02*
X166923Y21335D01*
X169623Y21335D01*
X169623Y18035D01*
X169623Y20600D02*
X166923Y20600D01*
X175563Y18035D02*
X178263Y18035D01*
X175563Y18035D02*
X175563Y21335D01*
X178263Y21335D01*
X178263Y18035D01*
X178263Y20600D02*
X175563Y20600D01*
D24*
X191325Y12517D02*
X191325Y5517D01*
X191325Y12517D02*
X198325Y12517D01*
X198325Y5517D01*
X191325Y5517D01*
X191325Y8367D02*
X198325Y8367D01*
X198325Y11217D02*
X191325Y11217D01*
X173785Y12517D02*
X173785Y5517D01*
X173785Y12517D02*
X180785Y12517D01*
X180785Y5517D01*
X173785Y5517D01*
X173785Y8367D02*
X180785Y8367D01*
X180785Y11217D02*
X173785Y11217D01*
D25*
X112903Y2286D03*
X125603Y2286D03*
X138303Y2286D03*
X151003Y2286D03*
X163703Y2286D03*
X100203Y2286D03*
X87503Y2286D03*
X74803Y2286D03*
X62103Y2286D03*
X49403Y2286D03*
X36703Y2286D03*
X24003Y2286D03*
X11303Y2286D03*
X112903Y168656D03*
X125603Y168656D03*
X138303Y168656D03*
X151003Y168656D03*
X163703Y168656D03*
X100203Y168656D03*
X87503Y168656D03*
X74803Y168656D03*
X62103Y168656D03*
X49403Y168656D03*
X36703Y168656D03*
X24003Y168656D03*
X11303Y168656D03*
X3048Y78994D03*
X3048Y66294D03*
X3048Y53594D03*
X3048Y40894D03*
X3048Y28194D03*
X3048Y91694D03*
X3048Y104394D03*
X3048Y117094D03*
X3048Y129794D03*
X3048Y142494D03*
D11*
X133350Y60221D02*
X133371Y60242D01*
X133350Y60221D02*
X133477Y60094D01*
X133371Y60242D02*
X133371Y53827D01*
X137668Y49530D02*
X140970Y49530D01*
X144780Y45720D01*
X144780Y32212D02*
X138211Y25643D01*
X137668Y49530D02*
X133371Y53827D01*
X144780Y45720D02*
X144780Y32212D01*
X128117Y59988D02*
X128371Y60242D01*
X128371Y48361D01*
X126711Y46701D02*
X126711Y40143D01*
X126711Y46701D02*
X128371Y48361D01*
X126711Y40143D02*
X124784Y38216D01*
X145371Y82242D02*
X145498Y82369D01*
X158325Y82369D01*
X161036Y85080D01*
X161036Y122428D01*
X155702Y127762D01*
X155702Y133713D01*
X155720Y133731D01*
X155720Y148535D01*
X156537Y149352D01*
X148362Y77242D02*
X145371Y77242D01*
X157149Y77242D01*
X163830Y83923D01*
X182227Y133731D02*
X182227Y148662D01*
X181537Y149352D01*
X170053Y125603D02*
X163830Y119380D01*
X170053Y125603D02*
X178308Y125603D01*
X182227Y129522D01*
X163830Y119380D02*
X163830Y83923D01*
X182227Y129522D02*
X182227Y133731D01*
X88900Y42527D02*
X79248Y42527D01*
X79121Y42400D01*
X76173Y72044D02*
X76371Y72242D01*
D26*
X65532Y65405D03*
D11*
X65532Y66929D01*
X70647Y72044D02*
X76173Y72044D01*
X70647Y72044D02*
X65532Y66929D01*
X65532Y65405D02*
X65532Y59730D01*
X79248Y46014D02*
X79248Y42527D01*
X79248Y46014D02*
X65532Y59730D01*
D27*
X56667Y82242D02*
X76371Y82242D01*
X56667Y82242D02*
X55705Y81280D01*
D28*
X117865Y36204D03*
D27*
X123371Y50854D02*
X123371Y60242D01*
X113139Y40622D02*
X112141Y40622D01*
X113139Y40622D02*
X123371Y50854D01*
X113448Y40622D02*
X112141Y40622D01*
D29*
X113448Y40622D02*
X117865Y36204D01*
D27*
X138371Y60242D02*
X141670Y60242D01*
X149860Y52052D01*
D30*
X36878Y102870D02*
X35433Y101425D01*
D31*
X149606Y59309D02*
X149860Y59055D01*
X149860Y52052D01*
D28*
X149606Y59309D03*
D30*
X36878Y92202D02*
X36878Y102870D01*
X38148Y92329D02*
X38148Y82423D01*
X37005Y81280D01*
X38021Y92202D02*
X38148Y92329D01*
X34925Y92202D02*
X29972Y92202D01*
D28*
X34925Y92202D03*
X29591Y92202D03*
D30*
X34925Y92202D02*
X35052Y92329D01*
D28*
X40259Y92202D03*
D30*
X36878Y92202D02*
X34925Y92202D01*
X38021Y92202D02*
X40259Y92202D01*
D11*
X38021Y92202D02*
X29591Y92202D01*
D28*
X66675Y145034D03*
D27*
X63953Y142312D02*
X56261Y142312D01*
D31*
X63953Y142312D02*
X66675Y145034D01*
D27*
X70003Y77242D02*
X76371Y77242D01*
D32*
X56721Y63960D02*
X56721Y60452D01*
D27*
X56721Y63960D02*
X70003Y77242D01*
D29*
X65532Y53800D02*
X65532Y53467D01*
X65532Y53800D02*
X58880Y60452D01*
D27*
X56721Y60452D01*
D28*
X65532Y53467D03*
X69215Y49530D03*
D29*
X69215Y42654D01*
D27*
X68961Y42400D01*
X118371Y52458D02*
X118371Y60242D01*
D28*
X95631Y40513D03*
X66675Y139319D03*
D31*
X65151Y140843D01*
D33*
X57730Y140843D01*
D11*
X56261Y142312D01*
D29*
X69215Y49784D02*
X69215Y49530D01*
X69215Y49784D02*
X65532Y53467D01*
D27*
X95631Y40513D02*
X95740Y40622D01*
D31*
X102489Y40622D01*
D27*
X108679Y46116D02*
X112029Y46116D01*
X103185Y40622D02*
X102489Y40622D01*
X103185Y40622D02*
X108679Y46116D01*
X112029Y46116D02*
X118371Y52458D01*
X138371Y129242D02*
X138371Y136953D01*
X138775Y137357D01*
X138775Y145469D01*
X138303Y145941D01*
D34*
X143891Y140589D03*
D31*
X143655Y140589D02*
X138303Y145941D01*
X143655Y140589D02*
X143891Y140589D01*
D27*
X93371Y129242D02*
X93345Y129268D01*
X93345Y147211D01*
D31*
X91549Y147211D01*
D34*
X87249Y151384D03*
D31*
X87376Y151384D01*
X91549Y147211D01*
D28*
X124206Y108077D03*
X110871Y94742D03*
X97536Y108077D03*
X110871Y108077D03*
X124206Y94742D03*
X124206Y81407D03*
X110871Y81407D03*
X97536Y81407D03*
X97536Y94742D03*
D26*
X163830Y126111D03*
D28*
X64643Y133477D03*
D26*
X95377Y28575D03*
X150114Y35560D03*
D28*
X97536Y118491D03*
X110490Y118618D03*
X124206Y118491D03*
X97409Y70866D03*
X110871Y70866D03*
X124460Y70866D03*
D26*
X196850Y19050D03*
X203200Y19050D03*
X203200Y25400D03*
X203200Y31750D03*
X203200Y38100D03*
X203200Y44450D03*
X203200Y50800D03*
X203200Y57150D03*
X203200Y63500D03*
X203200Y69850D03*
X203200Y76200D03*
X203200Y82550D03*
X203200Y88900D03*
X203200Y95250D03*
X203200Y101600D03*
X203200Y107950D03*
X203200Y132080D03*
X196850Y132080D03*
X196850Y138430D03*
X203200Y138430D03*
X203200Y144780D03*
X196850Y144780D03*
X196850Y151130D03*
X203200Y151130D03*
X196850Y158750D03*
X203200Y158750D03*
D34*
X210439Y146050D03*
D11*
X210524Y146050D02*
X210606Y145968D01*
X210524Y146050D02*
X210439Y146050D01*
X210606Y145968D02*
X209418Y144780D01*
X138211Y40143D02*
X126711Y25643D01*
D26*
X190500Y18796D03*
X184023Y18796D03*
X184150Y25400D03*
D34*
X36322Y23368D03*
X37846Y45847D03*
X21717Y92075D03*
D26*
X209550Y12700D03*
X209550Y6350D03*
X204470Y12700D03*
X204470Y6350D03*
X209550Y25400D03*
X209550Y19050D03*
X209550Y31750D03*
X209550Y38100D03*
X209550Y44450D03*
X209550Y50800D03*
X209550Y57150D03*
X209550Y63500D03*
X209550Y69850D03*
X209550Y76200D03*
X209550Y82550D03*
X209550Y88900D03*
X209550Y95250D03*
X209550Y101600D03*
X209550Y107950D03*
X209550Y115570D03*
X209550Y132080D03*
X209550Y158750D03*
X209550Y165100D03*
X203200Y165100D03*
X196850Y165100D03*
X190500Y165100D03*
X184150Y165100D03*
X177800Y165100D03*
X171958Y164973D03*
X190500Y132080D03*
X190500Y125730D03*
X186690Y120650D03*
X180340Y120650D03*
X173990Y120650D03*
X168910Y116840D03*
X168910Y110490D03*
X168910Y104140D03*
X168910Y97790D03*
X175260Y97790D03*
X181610Y97790D03*
X187960Y97790D03*
X187960Y91440D03*
X187960Y83820D03*
X187960Y77470D03*
X187960Y104140D03*
X187960Y111760D03*
X184150Y50800D03*
X184150Y44450D03*
X184150Y38100D03*
X184150Y31750D03*
X177800Y31750D03*
X171450Y31750D03*
X165100Y31750D03*
X162560Y58420D03*
X162560Y49530D03*
X162560Y36830D03*
X190500Y158750D03*
X190500Y151130D03*
X190500Y144780D03*
X190500Y138430D03*
X7620Y152400D03*
X6350Y13970D03*
X11430Y83820D03*
X11430Y58420D03*
X119380Y161290D03*
X107950Y161290D03*
X21590Y138811D03*
X21590Y123571D03*
X118364Y22987D03*
X93599Y17907D03*
X148971Y18542D03*
X190500Y25146D03*
X196850Y25400D03*
X190500Y31496D03*
X196850Y31750D03*
X190500Y37846D03*
X196850Y38100D03*
D28*
X87376Y118491D03*
X87376Y108077D03*
X87376Y94742D03*
X87376Y81407D03*
X87249Y70866D03*
X134366Y118491D03*
X134366Y108077D03*
D27*
X88371Y129242D02*
X88371Y136909D01*
X82278Y143002D01*
D35*
X56261Y125912D02*
X56007Y126166D01*
X40060Y126166D01*
X40005Y126111D01*
D28*
X40005Y126111D03*
X34417Y125984D03*
D35*
X39243Y125984D02*
X40894Y125984D01*
X39243Y125984D02*
X34417Y125984D01*
D31*
X31369Y136035D02*
X41656Y136035D01*
D35*
X41656Y126746D01*
D31*
X40894Y125984D01*
X40005Y126111D02*
X39370Y126111D01*
X39243Y125984D01*
D26*
X75057Y15494D03*
D11*
X88900Y29337D01*
X88900Y33927D01*
X76371Y122242D02*
X68267Y122242D01*
X68072Y122047D01*
D26*
X68072Y122047D03*
D11*
X77680Y129242D02*
X83371Y129242D01*
X77680Y129242D02*
X77597Y129159D01*
D26*
X77597Y129159D03*
D36*
X145371Y67242D02*
X155897Y67242D01*
X159131Y64008D01*
X168654Y64008D01*
D27*
X168654Y53721D01*
X168527Y74676D02*
X168527Y75919D01*
D36*
X157205Y72242D02*
X145371Y72242D01*
X157205Y72242D02*
X159639Y74676D01*
X168527Y74676D01*
D27*
X168910Y75059D01*
X168527Y74676D02*
X168527Y84836D01*
X168654Y84963D01*
X177167Y74676D02*
X187069Y69342D01*
X177294Y64008D01*
X177294Y53721D02*
X177421Y53594D01*
X177421Y43180D01*
X195580Y114694D02*
X196205Y115318D01*
X195580Y114694D02*
X195580Y106555D01*
D31*
X206388Y124968D02*
X210606Y124968D01*
X206388Y124968D02*
X202575Y121156D01*
D27*
X195709Y69342D02*
X195834Y69217D01*
X195709Y69342D02*
X195453Y69598D01*
X195453Y79373D01*
X195709Y59567D02*
X195707Y59565D01*
X195709Y59567D02*
X195709Y69342D01*
X195453Y88013D02*
X195453Y97788D01*
X195580Y97915D01*
D37*
X153329Y92242D02*
X145371Y92242D01*
X153329Y92242D02*
X153416Y92329D01*
D26*
X153416Y92329D03*
D37*
X156591Y97242D02*
X145371Y97242D01*
X156591Y97242D02*
X156591Y97155D01*
D26*
X156591Y97155D03*
D37*
X153409Y102242D02*
X145371Y102242D01*
X153409Y102242D02*
X153543Y102108D01*
D26*
X153543Y102108D03*
D37*
X156518Y107242D02*
X145371Y107242D01*
X156518Y107242D02*
X156718Y107442D01*
D26*
X156718Y107442D03*
D37*
X153517Y112242D02*
X145371Y112242D01*
X153517Y112242D02*
X153543Y112268D01*
D26*
X153543Y112268D03*
D37*
X154834Y117242D02*
X145371Y117242D01*
X154834Y117242D02*
X155702Y118110D01*
D26*
X155702Y118110D03*
D11*
X133371Y129242D02*
X133371Y139446D01*
X133731Y139446D01*
D26*
X133731Y139446D03*
D11*
X128371Y137313D02*
X128371Y129242D01*
X128371Y137313D02*
X128270Y137414D01*
D26*
X128270Y137414D03*
D11*
X123371Y140662D02*
X123371Y129242D01*
X123371Y140662D02*
X123317Y140716D01*
D26*
X123317Y140716D03*
D11*
X118371Y136899D02*
X118371Y129242D01*
X118371Y136899D02*
X118110Y137160D01*
D26*
X118110Y137160D03*
X113538Y140843D03*
D11*
X113371Y140676D02*
X113371Y129242D01*
X113371Y140676D02*
X113538Y140843D01*
X108371Y136993D02*
X108371Y129242D01*
X108371Y136993D02*
X108331Y137033D01*
D26*
X108331Y137033D03*
D11*
X108331Y137047D01*
X17399Y39242D02*
X15822Y39242D01*
X56694Y39370D02*
X56822Y39242D01*
X17399Y39242D02*
X16383Y40258D01*
X56566Y39242D02*
X56694Y39370D01*
D34*
X24130Y39370D03*
D11*
X24258Y39242D01*
X56566Y39242D01*
X24130Y39370D02*
X24002Y39242D01*
X15822Y39242D01*
X103371Y129242D02*
X103371Y140201D01*
X103632Y140462D01*
D26*
X103632Y140462D03*
D11*
X98371Y137360D02*
X98371Y129242D01*
X98371Y137360D02*
X98425Y137414D01*
D26*
X98425Y137414D03*
D11*
X76371Y117242D02*
X76244Y117369D01*
X65172Y117369D02*
X64389Y116586D01*
X65172Y117369D02*
X76244Y117369D01*
D26*
X64389Y116586D03*
D11*
X68427Y112242D02*
X76371Y112242D01*
X68427Y112242D02*
X68199Y112014D01*
D26*
X68199Y112014D03*
D11*
X64843Y107242D02*
X76371Y107242D01*
X64843Y107242D02*
X64643Y107442D01*
D26*
X64643Y107442D03*
D11*
X68079Y102242D02*
X76371Y102242D01*
X68079Y102242D02*
X67945Y102108D01*
D26*
X67945Y102108D03*
D11*
X64302Y97242D02*
X76371Y97242D01*
X64302Y97242D02*
X64262Y97282D01*
D26*
X64262Y97282D03*
D11*
X68540Y92242D02*
X76371Y92242D01*
X68540Y92242D02*
X68453Y92329D01*
D26*
X68453Y92329D03*
D11*
X64777Y87242D02*
X76371Y87242D01*
X64777Y87242D02*
X64135Y87884D01*
D26*
X64135Y87884D03*
D11*
X71814Y67242D02*
X76371Y67242D01*
X71814Y67242D02*
X69850Y65278D01*
X69850Y61468D01*
D26*
X69850Y61468D03*
D11*
X82311Y59182D02*
X83371Y60242D01*
X77172Y60242D02*
X76708Y60706D01*
D26*
X76708Y60706D03*
D11*
X77172Y60242D02*
X83371Y60242D01*
X88371Y60242D02*
X88371Y55859D01*
X86106Y53594D02*
X77978Y53594D01*
X77216Y54356D01*
X86106Y53594D02*
X88371Y55859D01*
D26*
X77216Y54356D03*
X85852Y48641D03*
D11*
X85852Y48651D02*
X93371Y56170D01*
X85852Y48651D02*
X85852Y48641D01*
X93371Y56170D02*
X93371Y60242D01*
X98371Y60242D02*
X98371Y55572D01*
X93980Y51181D01*
X93980Y50673D01*
D26*
X93980Y50673D03*
D11*
X103371Y55375D02*
X103371Y60242D01*
D26*
X97790Y46228D03*
D11*
X99330Y47768D01*
X99330Y51334D01*
X103371Y55375D01*
D26*
X103632Y49403D03*
D11*
X103394Y50826D02*
X108008Y55439D01*
X103394Y49641D02*
X103632Y49403D01*
X103394Y49641D02*
X103394Y50826D01*
X108008Y55439D02*
X108371Y60242D01*
X113371Y60242D02*
X113371Y54519D01*
X110008Y51156D01*
D26*
X110236Y51562D03*
D11*
X109919Y51245D02*
X110008Y51156D01*
X109919Y51245D02*
X110236Y51562D01*
D37*
X145371Y87242D02*
X156584Y87242D01*
X156591Y87249D01*
D26*
X156591Y87249D03*
D37*
X152341Y122242D02*
X145371Y122242D01*
X152341Y122242D02*
X153670Y123571D01*
D26*
X153670Y123571D03*
D11*
X168273Y19685D02*
X168273Y13333D01*
X167640Y12700D01*
D26*
X167640Y12700D03*
D11*
X176913Y19685D02*
X177285Y19313D01*
X177285Y9017D01*
M02*
