G04 EAGLE Gerber RS-274X export*
G75*
%MOMM*%
%FSLAX34Y34*%
%LPD*%
%INCopper Layer 2*%
%IPPOS*%
%AMOC8*
5,1,8,0,0,1.08239X$1,22.5*%
G01*
%ADD10C,1.050000*%
%ADD11C,0.403200*%
%ADD12C,0.457200*%
%ADD13C,0.453200*%
%ADD14C,0.152400*%

G36*
X211973Y3763D02*
X211973Y3763D01*
X211992Y3761D01*
X212094Y3783D01*
X212196Y3799D01*
X212213Y3809D01*
X212233Y3813D01*
X212322Y3866D01*
X212413Y3915D01*
X212427Y3929D01*
X212444Y3939D01*
X212511Y4018D01*
X212583Y4093D01*
X212591Y4111D01*
X212604Y4126D01*
X212643Y4222D01*
X212686Y4316D01*
X212688Y4336D01*
X212696Y4354D01*
X212714Y4521D01*
X212714Y166675D01*
X212712Y166692D01*
X212713Y166707D01*
X212713Y166709D01*
X212713Y166714D01*
X212691Y166816D01*
X212674Y166918D01*
X212665Y166935D01*
X212661Y166955D01*
X212608Y167044D01*
X212559Y167135D01*
X212545Y167149D01*
X212535Y167166D01*
X212456Y167233D01*
X212381Y167305D01*
X212363Y167313D01*
X212348Y167326D01*
X212252Y167365D01*
X212158Y167408D01*
X212138Y167410D01*
X212120Y167418D01*
X211953Y167436D01*
X170764Y167436D01*
X170650Y167417D01*
X170533Y167400D01*
X170528Y167398D01*
X170522Y167397D01*
X170419Y167342D01*
X170314Y167289D01*
X170310Y167284D01*
X170304Y167281D01*
X170224Y167197D01*
X170142Y167113D01*
X170138Y167107D01*
X170135Y167103D01*
X170127Y167086D01*
X170061Y166966D01*
X169231Y164962D01*
X167397Y163128D01*
X165000Y162135D01*
X162406Y162135D01*
X160009Y163128D01*
X158175Y164962D01*
X158056Y165249D01*
X158019Y165310D01*
X157989Y165375D01*
X157954Y165414D01*
X157927Y165458D01*
X157872Y165504D01*
X157823Y165556D01*
X157777Y165582D01*
X157737Y165615D01*
X157670Y165640D01*
X157607Y165675D01*
X157556Y165684D01*
X157508Y165703D01*
X157436Y165706D01*
X157365Y165719D01*
X157314Y165711D01*
X157262Y165713D01*
X157193Y165693D01*
X157122Y165683D01*
X157076Y165659D01*
X157026Y165645D01*
X156967Y165604D01*
X156903Y165571D01*
X156866Y165534D01*
X156824Y165505D01*
X156781Y165447D01*
X156731Y165396D01*
X156696Y165333D01*
X156677Y165307D01*
X156670Y165285D01*
X156650Y165249D01*
X156531Y164962D01*
X154697Y163128D01*
X152300Y162135D01*
X149706Y162135D01*
X147309Y163128D01*
X145475Y164962D01*
X145356Y165249D01*
X145319Y165310D01*
X145289Y165375D01*
X145254Y165414D01*
X145227Y165458D01*
X145172Y165504D01*
X145123Y165556D01*
X145077Y165582D01*
X145037Y165615D01*
X144970Y165640D01*
X144907Y165675D01*
X144856Y165684D01*
X144808Y165703D01*
X144736Y165706D01*
X144665Y165719D01*
X144614Y165711D01*
X144562Y165713D01*
X144493Y165693D01*
X144422Y165683D01*
X144376Y165659D01*
X144326Y165645D01*
X144267Y165604D01*
X144203Y165571D01*
X144166Y165534D01*
X144124Y165505D01*
X144081Y165447D01*
X144031Y165396D01*
X143996Y165333D01*
X143977Y165307D01*
X143970Y165285D01*
X143950Y165249D01*
X143831Y164962D01*
X141997Y163128D01*
X139600Y162135D01*
X137006Y162135D01*
X134609Y163128D01*
X132775Y164962D01*
X132656Y165249D01*
X132619Y165310D01*
X132589Y165375D01*
X132554Y165414D01*
X132527Y165458D01*
X132472Y165504D01*
X132423Y165556D01*
X132377Y165582D01*
X132337Y165615D01*
X132270Y165640D01*
X132207Y165675D01*
X132156Y165684D01*
X132108Y165703D01*
X132036Y165706D01*
X131965Y165719D01*
X131914Y165711D01*
X131862Y165713D01*
X131793Y165693D01*
X131722Y165683D01*
X131676Y165659D01*
X131626Y165645D01*
X131567Y165604D01*
X131503Y165571D01*
X131466Y165534D01*
X131424Y165505D01*
X131381Y165447D01*
X131331Y165396D01*
X131296Y165333D01*
X131277Y165307D01*
X131270Y165285D01*
X131250Y165249D01*
X131131Y164962D01*
X129297Y163128D01*
X126900Y162135D01*
X124306Y162135D01*
X121909Y163128D01*
X120075Y164962D01*
X119956Y165249D01*
X119919Y165310D01*
X119889Y165375D01*
X119854Y165414D01*
X119827Y165458D01*
X119772Y165504D01*
X119723Y165556D01*
X119677Y165582D01*
X119637Y165615D01*
X119570Y165640D01*
X119507Y165675D01*
X119456Y165684D01*
X119408Y165703D01*
X119336Y165706D01*
X119265Y165719D01*
X119214Y165711D01*
X119162Y165713D01*
X119093Y165693D01*
X119022Y165683D01*
X118976Y165659D01*
X118926Y165645D01*
X118867Y165604D01*
X118803Y165571D01*
X118766Y165534D01*
X118724Y165505D01*
X118681Y165447D01*
X118631Y165396D01*
X118596Y165333D01*
X118577Y165307D01*
X118570Y165285D01*
X118550Y165249D01*
X118431Y164962D01*
X116597Y163128D01*
X114200Y162135D01*
X111606Y162135D01*
X109209Y163128D01*
X107375Y164962D01*
X107256Y165249D01*
X107219Y165310D01*
X107189Y165375D01*
X107154Y165414D01*
X107127Y165458D01*
X107072Y165504D01*
X107023Y165556D01*
X106977Y165582D01*
X106937Y165615D01*
X106870Y165640D01*
X106807Y165675D01*
X106756Y165684D01*
X106708Y165703D01*
X106636Y165706D01*
X106565Y165719D01*
X106514Y165711D01*
X106462Y165713D01*
X106393Y165693D01*
X106322Y165683D01*
X106276Y165659D01*
X106226Y165645D01*
X106167Y165604D01*
X106103Y165571D01*
X106066Y165534D01*
X106024Y165505D01*
X105981Y165447D01*
X105931Y165396D01*
X105896Y165333D01*
X105877Y165307D01*
X105870Y165285D01*
X105850Y165249D01*
X105731Y164962D01*
X103897Y163128D01*
X101500Y162135D01*
X99285Y162135D01*
X99195Y162121D01*
X99104Y162113D01*
X99075Y162101D01*
X99043Y162096D01*
X98962Y162053D01*
X98878Y162017D01*
X98846Y161991D01*
X98825Y161980D01*
X98803Y161957D01*
X98747Y161912D01*
X94822Y157987D01*
X26557Y157987D01*
X26467Y157973D01*
X26376Y157965D01*
X26347Y157953D01*
X26315Y157948D01*
X26234Y157905D01*
X26150Y157869D01*
X26118Y157843D01*
X26097Y157832D01*
X26075Y157809D01*
X26019Y157764D01*
X17496Y149241D01*
X17443Y149167D01*
X17383Y149098D01*
X17371Y149067D01*
X17352Y149041D01*
X17325Y148954D01*
X17291Y148869D01*
X17287Y148828D01*
X17280Y148806D01*
X17281Y148774D01*
X17273Y148703D01*
X17273Y91327D01*
X17287Y91237D01*
X17295Y91146D01*
X17307Y91117D01*
X17312Y91085D01*
X17355Y91004D01*
X17391Y90920D01*
X17417Y90888D01*
X17428Y90867D01*
X17451Y90845D01*
X17474Y90817D01*
X17476Y90813D01*
X17479Y90810D01*
X17496Y90789D01*
X26163Y82122D01*
X26163Y42654D01*
X26177Y42564D01*
X26185Y42473D01*
X26197Y42443D01*
X26202Y42412D01*
X26245Y42331D01*
X26281Y42247D01*
X26307Y42215D01*
X26318Y42194D01*
X26341Y42172D01*
X26386Y42116D01*
X27667Y40835D01*
X27667Y37905D01*
X25595Y35833D01*
X22665Y35833D01*
X20593Y37905D01*
X20593Y40835D01*
X21874Y42116D01*
X21927Y42190D01*
X21987Y42259D01*
X21999Y42289D01*
X22018Y42316D01*
X22045Y42403D01*
X22079Y42488D01*
X22083Y42528D01*
X22090Y42551D01*
X22089Y42583D01*
X22097Y42654D01*
X22097Y80123D01*
X22083Y80213D01*
X22075Y80304D01*
X22063Y80333D01*
X22058Y80365D01*
X22015Y80446D01*
X21979Y80530D01*
X21953Y80562D01*
X21942Y80583D01*
X21919Y80605D01*
X21874Y80661D01*
X13207Y89328D01*
X13207Y150702D01*
X23341Y160836D01*
X23383Y160894D01*
X23432Y160946D01*
X23454Y160993D01*
X23485Y161035D01*
X23506Y161104D01*
X23536Y161169D01*
X23542Y161221D01*
X23557Y161271D01*
X23555Y161342D01*
X23563Y161413D01*
X23552Y161464D01*
X23551Y161516D01*
X23526Y161584D01*
X23511Y161654D01*
X23484Y161699D01*
X23466Y161747D01*
X23421Y161803D01*
X23385Y161865D01*
X23345Y161899D01*
X23312Y161939D01*
X23252Y161978D01*
X23198Y162025D01*
X23149Y162044D01*
X23105Y162072D01*
X23036Y162090D01*
X22969Y162117D01*
X22898Y162125D01*
X22867Y162133D01*
X22844Y162131D01*
X22803Y162135D01*
X22706Y162135D01*
X20309Y163128D01*
X18475Y164962D01*
X18356Y165249D01*
X18319Y165310D01*
X18289Y165375D01*
X18254Y165414D01*
X18227Y165458D01*
X18172Y165504D01*
X18123Y165556D01*
X18077Y165582D01*
X18037Y165615D01*
X17970Y165640D01*
X17907Y165675D01*
X17856Y165684D01*
X17808Y165703D01*
X17736Y165706D01*
X17665Y165719D01*
X17614Y165711D01*
X17562Y165713D01*
X17493Y165693D01*
X17422Y165683D01*
X17376Y165659D01*
X17326Y165645D01*
X17267Y165604D01*
X17203Y165571D01*
X17166Y165534D01*
X17124Y165505D01*
X17081Y165447D01*
X17031Y165396D01*
X16996Y165333D01*
X16977Y165307D01*
X16970Y165285D01*
X16950Y165249D01*
X16831Y164962D01*
X14997Y163128D01*
X12600Y162135D01*
X10006Y162135D01*
X7609Y163128D01*
X5775Y164962D01*
X5478Y165679D01*
X5427Y165762D01*
X5381Y165847D01*
X5362Y165865D01*
X5349Y165888D01*
X5274Y165950D01*
X5203Y166017D01*
X5179Y166028D01*
X5159Y166045D01*
X5068Y166079D01*
X4980Y166120D01*
X4954Y166123D01*
X4930Y166133D01*
X4832Y166137D01*
X4736Y166148D01*
X4710Y166142D01*
X4684Y166143D01*
X4590Y166116D01*
X4495Y166095D01*
X4473Y166082D01*
X4448Y166075D01*
X4368Y166019D01*
X4284Y165969D01*
X4267Y165949D01*
X4246Y165934D01*
X4187Y165856D01*
X4124Y165782D01*
X4114Y165758D01*
X4099Y165737D01*
X4069Y165644D01*
X4032Y165554D01*
X4029Y165522D01*
X4023Y165503D01*
X4023Y165470D01*
X4014Y165387D01*
X4014Y150870D01*
X4025Y150802D01*
X4026Y150734D01*
X4045Y150682D01*
X4053Y150627D01*
X4086Y150567D01*
X4109Y150502D01*
X4143Y150459D01*
X4169Y150410D01*
X4218Y150363D01*
X4261Y150309D01*
X4307Y150278D01*
X4347Y150240D01*
X4409Y150212D01*
X4467Y150174D01*
X4540Y150151D01*
X4570Y150137D01*
X4591Y150134D01*
X4626Y150123D01*
X5320Y149985D01*
X6738Y149398D01*
X8014Y148545D01*
X9099Y147460D01*
X9952Y146184D01*
X10539Y144766D01*
X10688Y144017D01*
X4775Y144017D01*
X4755Y144014D01*
X4736Y144016D01*
X4634Y143994D01*
X4532Y143977D01*
X4515Y143968D01*
X4495Y143964D01*
X4406Y143911D01*
X4315Y143862D01*
X4301Y143848D01*
X4284Y143838D01*
X4217Y143759D01*
X4145Y143684D01*
X4137Y143666D01*
X4124Y143651D01*
X4085Y143555D01*
X4042Y143461D01*
X4040Y143441D01*
X4032Y143423D01*
X4014Y143256D01*
X4014Y141732D01*
X4017Y141712D01*
X4015Y141693D01*
X4037Y141591D01*
X4053Y141489D01*
X4063Y141472D01*
X4067Y141452D01*
X4120Y141363D01*
X4169Y141272D01*
X4183Y141258D01*
X4193Y141241D01*
X4272Y141174D01*
X4347Y141103D01*
X4365Y141094D01*
X4380Y141081D01*
X4476Y141042D01*
X4570Y140999D01*
X4590Y140997D01*
X4608Y140989D01*
X4775Y140971D01*
X10688Y140971D01*
X10539Y140222D01*
X9952Y138804D01*
X9099Y137528D01*
X8014Y136443D01*
X7351Y135999D01*
X7282Y135935D01*
X7208Y135876D01*
X7193Y135851D01*
X7171Y135831D01*
X7126Y135748D01*
X7075Y135669D01*
X7068Y135641D01*
X7054Y135615D01*
X7038Y135522D01*
X7015Y135431D01*
X7018Y135401D01*
X7013Y135373D01*
X7027Y135279D01*
X7034Y135185D01*
X7046Y135158D01*
X7050Y135130D01*
X7094Y135046D01*
X7131Y134959D01*
X7154Y134930D01*
X7164Y134911D01*
X7187Y134888D01*
X7236Y134828D01*
X8576Y133488D01*
X9569Y131091D01*
X9569Y128497D01*
X8576Y126100D01*
X6742Y124266D01*
X6455Y124147D01*
X6394Y124109D01*
X6329Y124080D01*
X6290Y124045D01*
X6246Y124018D01*
X6200Y123962D01*
X6148Y123914D01*
X6122Y123868D01*
X6089Y123828D01*
X6063Y123761D01*
X6029Y123698D01*
X6020Y123647D01*
X6001Y123599D01*
X5998Y123527D01*
X5985Y123456D01*
X5993Y123405D01*
X5991Y123353D01*
X6011Y123284D01*
X6021Y123213D01*
X6045Y123167D01*
X6059Y123117D01*
X6100Y123058D01*
X6133Y122994D01*
X6170Y122957D01*
X6199Y122915D01*
X6257Y122872D01*
X6308Y122822D01*
X6371Y122787D01*
X6397Y122768D01*
X6419Y122760D01*
X6455Y122741D01*
X6742Y122622D01*
X8576Y120788D01*
X9569Y118391D01*
X9569Y115797D01*
X8576Y113400D01*
X6742Y111566D01*
X6455Y111447D01*
X6394Y111410D01*
X6329Y111380D01*
X6290Y111345D01*
X6246Y111318D01*
X6200Y111263D01*
X6148Y111214D01*
X6122Y111168D01*
X6089Y111128D01*
X6064Y111061D01*
X6029Y110998D01*
X6020Y110947D01*
X6001Y110899D01*
X5998Y110827D01*
X5985Y110756D01*
X5993Y110705D01*
X5991Y110653D01*
X6011Y110584D01*
X6021Y110513D01*
X6045Y110467D01*
X6059Y110417D01*
X6100Y110358D01*
X6133Y110294D01*
X6170Y110257D01*
X6199Y110215D01*
X6257Y110172D01*
X6308Y110122D01*
X6371Y110087D01*
X6397Y110068D01*
X6419Y110061D01*
X6455Y110041D01*
X6742Y109922D01*
X8576Y108088D01*
X9569Y105691D01*
X9569Y103097D01*
X8576Y100700D01*
X6742Y98866D01*
X6455Y98747D01*
X6394Y98710D01*
X6329Y98680D01*
X6290Y98645D01*
X6246Y98618D01*
X6200Y98563D01*
X6148Y98514D01*
X6122Y98468D01*
X6089Y98428D01*
X6064Y98361D01*
X6029Y98298D01*
X6020Y98247D01*
X6001Y98199D01*
X5998Y98127D01*
X5985Y98056D01*
X5993Y98005D01*
X5991Y97953D01*
X6011Y97884D01*
X6021Y97813D01*
X6045Y97767D01*
X6059Y97717D01*
X6100Y97658D01*
X6133Y97594D01*
X6170Y97557D01*
X6199Y97515D01*
X6257Y97472D01*
X6308Y97422D01*
X6371Y97387D01*
X6397Y97368D01*
X6419Y97361D01*
X6455Y97341D01*
X6742Y97222D01*
X8576Y95388D01*
X9569Y92991D01*
X9569Y90397D01*
X8576Y88000D01*
X6742Y86166D01*
X6455Y86047D01*
X6394Y86010D01*
X6329Y85980D01*
X6290Y85945D01*
X6246Y85918D01*
X6200Y85863D01*
X6148Y85814D01*
X6122Y85768D01*
X6089Y85728D01*
X6064Y85661D01*
X6029Y85598D01*
X6020Y85547D01*
X6001Y85499D01*
X5998Y85427D01*
X5985Y85356D01*
X5993Y85305D01*
X5991Y85253D01*
X6011Y85184D01*
X6021Y85113D01*
X6045Y85067D01*
X6059Y85017D01*
X6100Y84958D01*
X6133Y84894D01*
X6170Y84857D01*
X6199Y84815D01*
X6257Y84772D01*
X6308Y84722D01*
X6371Y84687D01*
X6397Y84668D01*
X6419Y84661D01*
X6455Y84641D01*
X6742Y84522D01*
X8576Y82688D01*
X9569Y80291D01*
X9569Y77697D01*
X8576Y75300D01*
X6742Y73466D01*
X6455Y73347D01*
X6394Y73310D01*
X6329Y73280D01*
X6290Y73245D01*
X6246Y73218D01*
X6200Y73163D01*
X6148Y73114D01*
X6122Y73068D01*
X6089Y73028D01*
X6064Y72961D01*
X6029Y72898D01*
X6020Y72847D01*
X6001Y72799D01*
X5998Y72727D01*
X5985Y72656D01*
X5993Y72605D01*
X5991Y72553D01*
X6011Y72484D01*
X6021Y72413D01*
X6045Y72367D01*
X6059Y72317D01*
X6100Y72258D01*
X6133Y72194D01*
X6170Y72157D01*
X6199Y72115D01*
X6257Y72072D01*
X6308Y72022D01*
X6371Y71987D01*
X6397Y71968D01*
X6419Y71961D01*
X6455Y71941D01*
X6742Y71822D01*
X8576Y69988D01*
X9569Y67591D01*
X9569Y64997D01*
X8576Y62600D01*
X6742Y60766D01*
X6455Y60647D01*
X6394Y60610D01*
X6329Y60580D01*
X6290Y60545D01*
X6246Y60518D01*
X6200Y60463D01*
X6148Y60414D01*
X6122Y60368D01*
X6089Y60328D01*
X6064Y60261D01*
X6029Y60198D01*
X6020Y60147D01*
X6001Y60099D01*
X5998Y60027D01*
X5985Y59956D01*
X5993Y59905D01*
X5991Y59853D01*
X6011Y59784D01*
X6021Y59713D01*
X6045Y59667D01*
X6059Y59617D01*
X6100Y59558D01*
X6133Y59494D01*
X6170Y59457D01*
X6199Y59415D01*
X6257Y59372D01*
X6308Y59322D01*
X6371Y59287D01*
X6397Y59268D01*
X6419Y59261D01*
X6455Y59241D01*
X6742Y59122D01*
X8576Y57288D01*
X9569Y54891D01*
X9569Y52297D01*
X8576Y49900D01*
X6742Y48066D01*
X6455Y47947D01*
X6394Y47910D01*
X6329Y47880D01*
X6290Y47845D01*
X6246Y47818D01*
X6200Y47763D01*
X6148Y47714D01*
X6122Y47668D01*
X6089Y47628D01*
X6064Y47561D01*
X6029Y47498D01*
X6020Y47447D01*
X6001Y47399D01*
X5998Y47327D01*
X5985Y47256D01*
X5993Y47205D01*
X5991Y47153D01*
X6011Y47084D01*
X6021Y47013D01*
X6045Y46967D01*
X6059Y46917D01*
X6100Y46858D01*
X6133Y46794D01*
X6170Y46757D01*
X6199Y46715D01*
X6257Y46672D01*
X6308Y46622D01*
X6371Y46587D01*
X6397Y46568D01*
X6419Y46561D01*
X6455Y46541D01*
X6742Y46422D01*
X8576Y44588D01*
X9569Y42191D01*
X9569Y39597D01*
X8576Y37200D01*
X6742Y35366D01*
X6455Y35247D01*
X6394Y35210D01*
X6329Y35180D01*
X6290Y35145D01*
X6246Y35118D01*
X6200Y35063D01*
X6148Y35014D01*
X6122Y34968D01*
X6089Y34928D01*
X6064Y34861D01*
X6029Y34798D01*
X6020Y34747D01*
X6001Y34699D01*
X5998Y34627D01*
X5985Y34556D01*
X5993Y34505D01*
X5991Y34453D01*
X6011Y34384D01*
X6021Y34313D01*
X6045Y34267D01*
X6059Y34217D01*
X6100Y34158D01*
X6133Y34094D01*
X6170Y34057D01*
X6199Y34015D01*
X6257Y33972D01*
X6308Y33922D01*
X6371Y33887D01*
X6397Y33868D01*
X6419Y33861D01*
X6455Y33841D01*
X6742Y33722D01*
X8576Y31888D01*
X9569Y29491D01*
X9569Y26897D01*
X8576Y24500D01*
X6742Y22666D01*
X4484Y21731D01*
X4384Y21669D01*
X4284Y21609D01*
X4280Y21604D01*
X4275Y21601D01*
X4200Y21511D01*
X4124Y21422D01*
X4122Y21416D01*
X4118Y21412D01*
X4076Y21303D01*
X4032Y21194D01*
X4031Y21187D01*
X4030Y21182D01*
X4029Y21164D01*
X4014Y21027D01*
X4014Y5555D01*
X4029Y5459D01*
X4039Y5362D01*
X4049Y5338D01*
X4053Y5312D01*
X4099Y5226D01*
X4139Y5137D01*
X4156Y5118D01*
X4169Y5095D01*
X4239Y5028D01*
X4305Y4956D01*
X4328Y4943D01*
X4347Y4925D01*
X4435Y4884D01*
X4521Y4837D01*
X4546Y4833D01*
X4570Y4822D01*
X4667Y4811D01*
X4763Y4793D01*
X4789Y4797D01*
X4814Y4794D01*
X4909Y4815D01*
X5006Y4829D01*
X5029Y4841D01*
X5055Y4847D01*
X5139Y4897D01*
X5225Y4941D01*
X5243Y4959D01*
X5266Y4973D01*
X5329Y5047D01*
X5397Y5116D01*
X5413Y5145D01*
X5426Y5160D01*
X5438Y5191D01*
X5478Y5263D01*
X5775Y5980D01*
X7609Y7814D01*
X10006Y8807D01*
X12600Y8807D01*
X14997Y7814D01*
X16831Y5980D01*
X16950Y5693D01*
X16988Y5632D01*
X17017Y5567D01*
X17052Y5528D01*
X17079Y5484D01*
X17135Y5438D01*
X17183Y5386D01*
X17229Y5360D01*
X17269Y5327D01*
X17336Y5301D01*
X17399Y5267D01*
X17450Y5258D01*
X17498Y5239D01*
X17570Y5236D01*
X17641Y5223D01*
X17692Y5231D01*
X17744Y5229D01*
X17813Y5249D01*
X17884Y5259D01*
X17930Y5283D01*
X17980Y5297D01*
X18039Y5338D01*
X18103Y5371D01*
X18140Y5408D01*
X18182Y5437D01*
X18225Y5495D01*
X18275Y5546D01*
X18310Y5609D01*
X18329Y5635D01*
X18337Y5657D01*
X18356Y5693D01*
X18475Y5980D01*
X20309Y7814D01*
X22706Y8807D01*
X25300Y8807D01*
X27697Y7814D01*
X29531Y5980D01*
X29650Y5693D01*
X29688Y5632D01*
X29717Y5567D01*
X29752Y5528D01*
X29779Y5484D01*
X29835Y5438D01*
X29883Y5386D01*
X29929Y5360D01*
X29969Y5327D01*
X30036Y5301D01*
X30099Y5267D01*
X30150Y5258D01*
X30198Y5239D01*
X30270Y5236D01*
X30341Y5223D01*
X30392Y5231D01*
X30444Y5229D01*
X30513Y5249D01*
X30584Y5259D01*
X30630Y5283D01*
X30680Y5297D01*
X30739Y5338D01*
X30803Y5371D01*
X30840Y5408D01*
X30882Y5437D01*
X30925Y5495D01*
X30975Y5546D01*
X31010Y5609D01*
X31029Y5635D01*
X31037Y5657D01*
X31056Y5693D01*
X31175Y5980D01*
X33009Y7814D01*
X35406Y8807D01*
X38000Y8807D01*
X40397Y7814D01*
X42231Y5980D01*
X42350Y5693D01*
X42388Y5632D01*
X42417Y5567D01*
X42452Y5528D01*
X42479Y5484D01*
X42535Y5438D01*
X42583Y5386D01*
X42629Y5360D01*
X42669Y5327D01*
X42736Y5301D01*
X42799Y5267D01*
X42850Y5258D01*
X42898Y5239D01*
X42970Y5236D01*
X43041Y5223D01*
X43092Y5231D01*
X43144Y5229D01*
X43213Y5249D01*
X43284Y5259D01*
X43330Y5283D01*
X43380Y5297D01*
X43439Y5338D01*
X43503Y5371D01*
X43540Y5408D01*
X43582Y5437D01*
X43625Y5495D01*
X43675Y5546D01*
X43710Y5609D01*
X43729Y5635D01*
X43737Y5657D01*
X43756Y5693D01*
X43875Y5980D01*
X45709Y7814D01*
X48106Y8807D01*
X50700Y8807D01*
X53097Y7814D01*
X54931Y5980D01*
X55050Y5693D01*
X55088Y5632D01*
X55117Y5567D01*
X55152Y5528D01*
X55179Y5484D01*
X55235Y5438D01*
X55283Y5386D01*
X55329Y5360D01*
X55369Y5327D01*
X55436Y5301D01*
X55499Y5267D01*
X55550Y5258D01*
X55598Y5239D01*
X55670Y5236D01*
X55741Y5223D01*
X55792Y5231D01*
X55844Y5229D01*
X55913Y5249D01*
X55984Y5259D01*
X56030Y5283D01*
X56080Y5297D01*
X56139Y5338D01*
X56203Y5371D01*
X56240Y5408D01*
X56282Y5437D01*
X56325Y5495D01*
X56375Y5546D01*
X56410Y5609D01*
X56429Y5635D01*
X56437Y5657D01*
X56456Y5693D01*
X56575Y5980D01*
X58409Y7814D01*
X60806Y8807D01*
X63400Y8807D01*
X65797Y7814D01*
X67631Y5980D01*
X67750Y5693D01*
X67788Y5632D01*
X67817Y5567D01*
X67852Y5528D01*
X67879Y5484D01*
X67935Y5438D01*
X67983Y5386D01*
X68029Y5360D01*
X68069Y5327D01*
X68136Y5301D01*
X68199Y5267D01*
X68250Y5258D01*
X68298Y5239D01*
X68370Y5236D01*
X68441Y5223D01*
X68492Y5231D01*
X68544Y5229D01*
X68613Y5249D01*
X68684Y5259D01*
X68730Y5283D01*
X68780Y5297D01*
X68839Y5338D01*
X68903Y5371D01*
X68940Y5408D01*
X68982Y5437D01*
X69025Y5495D01*
X69075Y5546D01*
X69110Y5609D01*
X69129Y5635D01*
X69137Y5657D01*
X69156Y5693D01*
X69275Y5980D01*
X71109Y7814D01*
X73506Y8807D01*
X74197Y8807D01*
X74287Y8821D01*
X74378Y8829D01*
X74407Y8841D01*
X74439Y8846D01*
X74520Y8889D01*
X74604Y8925D01*
X74636Y8951D01*
X74657Y8962D01*
X74679Y8985D01*
X74735Y9030D01*
X76613Y10908D01*
X76655Y10966D01*
X76704Y11018D01*
X76726Y11065D01*
X76757Y11107D01*
X76778Y11176D01*
X76808Y11241D01*
X76814Y11293D01*
X76829Y11343D01*
X76827Y11414D01*
X76835Y11485D01*
X76824Y11536D01*
X76823Y11588D01*
X76798Y11656D01*
X76783Y11726D01*
X76756Y11771D01*
X76738Y11819D01*
X76693Y11875D01*
X76657Y11937D01*
X76617Y11971D01*
X76584Y12011D01*
X76524Y12050D01*
X76470Y12097D01*
X76421Y12116D01*
X76377Y12144D01*
X76308Y12162D01*
X76241Y12189D01*
X76170Y12197D01*
X76139Y12205D01*
X76116Y12203D01*
X76075Y12207D01*
X73696Y12207D01*
X71770Y14133D01*
X71770Y16855D01*
X73696Y18781D01*
X76418Y18781D01*
X78344Y16855D01*
X78344Y14476D01*
X78355Y14406D01*
X78357Y14334D01*
X78375Y14285D01*
X78383Y14234D01*
X78417Y14170D01*
X78442Y14103D01*
X78474Y14062D01*
X78499Y14016D01*
X78551Y13967D01*
X78595Y13911D01*
X78639Y13883D01*
X78677Y13847D01*
X78742Y13817D01*
X78802Y13778D01*
X78853Y13765D01*
X78900Y13743D01*
X78971Y13735D01*
X79041Y13718D01*
X79093Y13722D01*
X79144Y13716D01*
X79215Y13731D01*
X79286Y13737D01*
X79334Y13757D01*
X79385Y13768D01*
X79446Y13805D01*
X79512Y13833D01*
X79568Y13878D01*
X79596Y13894D01*
X79611Y13912D01*
X79643Y13938D01*
X80438Y14733D01*
X164709Y14733D01*
X164799Y14747D01*
X164890Y14755D01*
X164920Y14767D01*
X164952Y14772D01*
X165033Y14815D01*
X165117Y14851D01*
X165149Y14877D01*
X165169Y14888D01*
X165192Y14911D01*
X165248Y14956D01*
X166279Y15987D01*
X169001Y15987D01*
X170927Y14061D01*
X170927Y11339D01*
X169001Y9413D01*
X167363Y9413D01*
X167267Y9398D01*
X167170Y9388D01*
X167146Y9378D01*
X167120Y9374D01*
X167034Y9328D01*
X166945Y9288D01*
X166926Y9271D01*
X166903Y9258D01*
X166836Y9188D01*
X166764Y9122D01*
X166751Y9099D01*
X166733Y9080D01*
X166692Y8992D01*
X166645Y8906D01*
X166641Y8881D01*
X166630Y8857D01*
X166619Y8760D01*
X166602Y8664D01*
X166605Y8638D01*
X166603Y8613D01*
X166623Y8518D01*
X166637Y8421D01*
X166649Y8398D01*
X166655Y8372D01*
X166705Y8289D01*
X166749Y8202D01*
X166768Y8183D01*
X166781Y8161D01*
X166855Y8098D01*
X166925Y8030D01*
X166953Y8014D01*
X166968Y8001D01*
X166999Y7989D01*
X167071Y7949D01*
X167397Y7814D01*
X169231Y5980D01*
X169956Y4230D01*
X170017Y4130D01*
X170077Y4030D01*
X170082Y4026D01*
X170086Y4021D01*
X170175Y3946D01*
X170264Y3870D01*
X170270Y3868D01*
X170275Y3864D01*
X170383Y3822D01*
X170492Y3778D01*
X170500Y3777D01*
X170505Y3776D01*
X170523Y3775D01*
X170659Y3760D01*
X211953Y3760D01*
X211973Y3763D01*
G37*
%LPC*%
G36*
X62774Y84597D02*
X62774Y84597D01*
X60848Y86523D01*
X60848Y89245D01*
X62774Y91171D01*
X64405Y91171D01*
X64425Y91174D01*
X64444Y91172D01*
X64546Y91194D01*
X64648Y91210D01*
X64665Y91220D01*
X64685Y91224D01*
X64774Y91277D01*
X64865Y91326D01*
X64879Y91340D01*
X64896Y91350D01*
X64963Y91429D01*
X65035Y91504D01*
X65043Y91522D01*
X65056Y91537D01*
X65095Y91633D01*
X65138Y91727D01*
X65140Y91747D01*
X65148Y91765D01*
X65166Y91932D01*
X65166Y93234D01*
X65163Y93254D01*
X65165Y93273D01*
X65143Y93375D01*
X65127Y93477D01*
X65117Y93494D01*
X65113Y93514D01*
X65060Y93603D01*
X65011Y93694D01*
X64997Y93708D01*
X64987Y93725D01*
X64908Y93792D01*
X64833Y93864D01*
X64815Y93872D01*
X64800Y93885D01*
X64704Y93924D01*
X64610Y93967D01*
X64590Y93969D01*
X64572Y93977D01*
X64405Y93995D01*
X62901Y93995D01*
X60975Y95921D01*
X60975Y98643D01*
X62901Y100569D01*
X63897Y100569D01*
X63917Y100572D01*
X63936Y100570D01*
X64038Y100592D01*
X64140Y100608D01*
X64157Y100618D01*
X64177Y100622D01*
X64266Y100675D01*
X64357Y100724D01*
X64371Y100738D01*
X64388Y100748D01*
X64455Y100827D01*
X64527Y100902D01*
X64535Y100920D01*
X64548Y100935D01*
X64587Y101031D01*
X64630Y101125D01*
X64632Y101145D01*
X64640Y101163D01*
X64658Y101330D01*
X64658Y103394D01*
X64655Y103414D01*
X64657Y103433D01*
X64635Y103535D01*
X64619Y103637D01*
X64609Y103654D01*
X64605Y103674D01*
X64552Y103763D01*
X64503Y103854D01*
X64489Y103868D01*
X64479Y103885D01*
X64400Y103952D01*
X64325Y104024D01*
X64307Y104032D01*
X64292Y104045D01*
X64196Y104084D01*
X64102Y104127D01*
X64082Y104129D01*
X64064Y104137D01*
X63897Y104155D01*
X63282Y104155D01*
X61356Y106081D01*
X61356Y108803D01*
X63282Y110729D01*
X64151Y110729D01*
X64171Y110732D01*
X64190Y110730D01*
X64292Y110752D01*
X64394Y110768D01*
X64411Y110778D01*
X64431Y110782D01*
X64520Y110835D01*
X64611Y110884D01*
X64625Y110898D01*
X64642Y110908D01*
X64709Y110987D01*
X64781Y111062D01*
X64789Y111080D01*
X64802Y111095D01*
X64841Y111191D01*
X64884Y111285D01*
X64886Y111305D01*
X64894Y111323D01*
X64912Y111490D01*
X64912Y112538D01*
X64909Y112558D01*
X64911Y112577D01*
X64889Y112679D01*
X64873Y112781D01*
X64863Y112798D01*
X64859Y112818D01*
X64806Y112907D01*
X64757Y112998D01*
X64743Y113012D01*
X64733Y113029D01*
X64654Y113096D01*
X64579Y113168D01*
X64561Y113176D01*
X64546Y113189D01*
X64450Y113228D01*
X64356Y113271D01*
X64336Y113273D01*
X64318Y113281D01*
X64151Y113299D01*
X63028Y113299D01*
X61102Y115225D01*
X61102Y117947D01*
X63028Y119873D01*
X64024Y119873D01*
X64044Y119876D01*
X64063Y119874D01*
X64165Y119896D01*
X64267Y119912D01*
X64284Y119922D01*
X64304Y119926D01*
X64393Y119979D01*
X64484Y120028D01*
X64498Y120042D01*
X64515Y120052D01*
X64582Y120131D01*
X64654Y120206D01*
X64662Y120224D01*
X64675Y120239D01*
X64714Y120335D01*
X64757Y120429D01*
X64759Y120449D01*
X64767Y120467D01*
X64785Y120634D01*
X64785Y123408D01*
X66711Y125334D01*
X69433Y125334D01*
X71359Y123408D01*
X71359Y120686D01*
X69433Y118760D01*
X68437Y118760D01*
X68417Y118757D01*
X68398Y118759D01*
X68296Y118737D01*
X68194Y118721D01*
X68177Y118711D01*
X68157Y118707D01*
X68068Y118654D01*
X67977Y118605D01*
X67963Y118591D01*
X67946Y118581D01*
X67879Y118502D01*
X67807Y118427D01*
X67799Y118409D01*
X67786Y118394D01*
X67747Y118298D01*
X67704Y118204D01*
X67702Y118184D01*
X67694Y118166D01*
X67676Y117999D01*
X67676Y116062D01*
X67679Y116042D01*
X67677Y116023D01*
X67699Y115921D01*
X67715Y115819D01*
X67725Y115802D01*
X67729Y115782D01*
X67782Y115693D01*
X67831Y115602D01*
X67845Y115588D01*
X67855Y115571D01*
X67934Y115504D01*
X68009Y115432D01*
X68027Y115424D01*
X68042Y115411D01*
X68138Y115372D01*
X68232Y115329D01*
X68252Y115327D01*
X68270Y115319D01*
X68437Y115301D01*
X69560Y115301D01*
X71486Y113375D01*
X71486Y110653D01*
X69560Y108727D01*
X68691Y108727D01*
X68671Y108724D01*
X68652Y108726D01*
X68550Y108704D01*
X68448Y108688D01*
X68431Y108678D01*
X68411Y108674D01*
X68322Y108621D01*
X68231Y108572D01*
X68217Y108558D01*
X68200Y108548D01*
X68133Y108469D01*
X68061Y108394D01*
X68053Y108376D01*
X68040Y108361D01*
X68001Y108265D01*
X67958Y108171D01*
X67956Y108151D01*
X67948Y108133D01*
X67930Y107966D01*
X67930Y106156D01*
X67933Y106136D01*
X67931Y106117D01*
X67953Y106015D01*
X67969Y105913D01*
X67979Y105896D01*
X67983Y105876D01*
X68036Y105787D01*
X68085Y105696D01*
X68099Y105682D01*
X68109Y105665D01*
X68188Y105598D01*
X68263Y105526D01*
X68281Y105518D01*
X68296Y105505D01*
X68392Y105466D01*
X68486Y105423D01*
X68506Y105421D01*
X68524Y105413D01*
X68691Y105395D01*
X69306Y105395D01*
X71232Y103469D01*
X71232Y100747D01*
X69306Y98821D01*
X68310Y98821D01*
X68290Y98818D01*
X68271Y98820D01*
X68169Y98798D01*
X68067Y98782D01*
X68050Y98772D01*
X68030Y98768D01*
X67941Y98715D01*
X67850Y98666D01*
X67836Y98652D01*
X67819Y98642D01*
X67752Y98563D01*
X67680Y98488D01*
X67672Y98470D01*
X67659Y98455D01*
X67620Y98359D01*
X67577Y98265D01*
X67575Y98245D01*
X67567Y98227D01*
X67549Y98060D01*
X67549Y96377D01*
X67552Y96357D01*
X67550Y96338D01*
X67572Y96236D01*
X67588Y96134D01*
X67598Y96117D01*
X67602Y96097D01*
X67655Y96008D01*
X67704Y95917D01*
X67718Y95903D01*
X67728Y95886D01*
X67807Y95819D01*
X67882Y95747D01*
X67900Y95739D01*
X67915Y95726D01*
X68011Y95687D01*
X68105Y95644D01*
X68125Y95642D01*
X68143Y95634D01*
X68310Y95616D01*
X69814Y95616D01*
X71740Y93690D01*
X71740Y90968D01*
X69814Y89042D01*
X68183Y89042D01*
X68163Y89039D01*
X68144Y89041D01*
X68042Y89019D01*
X67940Y89003D01*
X67923Y88993D01*
X67903Y88989D01*
X67814Y88936D01*
X67723Y88887D01*
X67709Y88873D01*
X67692Y88863D01*
X67625Y88784D01*
X67553Y88709D01*
X67545Y88691D01*
X67532Y88676D01*
X67493Y88580D01*
X67450Y88486D01*
X67448Y88466D01*
X67440Y88448D01*
X67422Y88281D01*
X67422Y86523D01*
X65496Y84597D01*
X62774Y84597D01*
G37*
%LPD*%
%LPC*%
G36*
X106970Y133746D02*
X106970Y133746D01*
X105044Y135672D01*
X105044Y136414D01*
X105041Y136434D01*
X105043Y136453D01*
X105021Y136555D01*
X105005Y136657D01*
X104995Y136674D01*
X104991Y136694D01*
X104938Y136783D01*
X104889Y136874D01*
X104875Y136888D01*
X104865Y136905D01*
X104786Y136972D01*
X104711Y137044D01*
X104693Y137052D01*
X104678Y137065D01*
X104582Y137104D01*
X104488Y137147D01*
X104468Y137149D01*
X104450Y137157D01*
X104283Y137175D01*
X102473Y137175D01*
X102453Y137172D01*
X102434Y137174D01*
X102332Y137152D01*
X102230Y137136D01*
X102213Y137126D01*
X102193Y137122D01*
X102104Y137069D01*
X102013Y137020D01*
X101999Y137006D01*
X101982Y136996D01*
X101915Y136917D01*
X101843Y136842D01*
X101835Y136824D01*
X101822Y136809D01*
X101783Y136713D01*
X101740Y136619D01*
X101738Y136599D01*
X101730Y136581D01*
X101712Y136414D01*
X101712Y136053D01*
X99786Y134127D01*
X97064Y134127D01*
X95138Y136053D01*
X95138Y138775D01*
X97064Y140701D01*
X99584Y140701D01*
X99604Y140704D01*
X99623Y140702D01*
X99725Y140724D01*
X99827Y140740D01*
X99844Y140750D01*
X99864Y140754D01*
X99953Y140807D01*
X100044Y140856D01*
X100058Y140870D01*
X100075Y140880D01*
X100142Y140959D01*
X100214Y141034D01*
X100222Y141052D01*
X100235Y141067D01*
X100274Y141163D01*
X100317Y141257D01*
X100319Y141277D01*
X100327Y141295D01*
X100345Y141462D01*
X100345Y141823D01*
X102271Y143749D01*
X104993Y143749D01*
X106919Y141823D01*
X106919Y141081D01*
X106922Y141061D01*
X106920Y141042D01*
X106942Y140940D01*
X106958Y140838D01*
X106968Y140821D01*
X106972Y140801D01*
X107025Y140712D01*
X107074Y140621D01*
X107088Y140607D01*
X107098Y140590D01*
X107177Y140523D01*
X107252Y140451D01*
X107270Y140443D01*
X107285Y140430D01*
X107381Y140391D01*
X107475Y140348D01*
X107495Y140346D01*
X107513Y140338D01*
X107680Y140320D01*
X109490Y140320D01*
X109510Y140323D01*
X109529Y140321D01*
X109631Y140343D01*
X109733Y140359D01*
X109750Y140369D01*
X109770Y140373D01*
X109859Y140426D01*
X109950Y140475D01*
X109964Y140489D01*
X109981Y140499D01*
X110048Y140578D01*
X110120Y140653D01*
X110128Y140671D01*
X110141Y140686D01*
X110180Y140782D01*
X110223Y140876D01*
X110225Y140896D01*
X110233Y140914D01*
X110251Y141081D01*
X110251Y142204D01*
X112177Y144130D01*
X114899Y144130D01*
X116825Y142204D01*
X116825Y141208D01*
X116828Y141188D01*
X116826Y141169D01*
X116848Y141067D01*
X116864Y140965D01*
X116874Y140948D01*
X116878Y140928D01*
X116931Y140839D01*
X116980Y140748D01*
X116994Y140734D01*
X117004Y140717D01*
X117083Y140650D01*
X117158Y140578D01*
X117176Y140570D01*
X117191Y140557D01*
X117287Y140518D01*
X117381Y140475D01*
X117401Y140473D01*
X117419Y140465D01*
X117586Y140447D01*
X119269Y140447D01*
X119289Y140450D01*
X119308Y140448D01*
X119410Y140470D01*
X119512Y140486D01*
X119529Y140496D01*
X119549Y140500D01*
X119638Y140553D01*
X119729Y140602D01*
X119743Y140616D01*
X119760Y140626D01*
X119827Y140705D01*
X119899Y140780D01*
X119907Y140798D01*
X119920Y140813D01*
X119959Y140909D01*
X120002Y141003D01*
X120004Y141023D01*
X120012Y141041D01*
X120030Y141208D01*
X120030Y142077D01*
X121956Y144003D01*
X124678Y144003D01*
X126604Y142077D01*
X126604Y141462D01*
X126607Y141442D01*
X126605Y141423D01*
X126627Y141321D01*
X126643Y141219D01*
X126653Y141202D01*
X126657Y141182D01*
X126710Y141093D01*
X126759Y141002D01*
X126773Y140988D01*
X126783Y140971D01*
X126862Y140904D01*
X126937Y140832D01*
X126955Y140824D01*
X126970Y140811D01*
X127066Y140772D01*
X127160Y140729D01*
X127180Y140727D01*
X127198Y140719D01*
X127365Y140701D01*
X129781Y140701D01*
X129782Y140700D01*
X129881Y140670D01*
X129901Y140671D01*
X129920Y140666D01*
X130023Y140674D01*
X130127Y140676D01*
X130146Y140683D01*
X130166Y140685D01*
X130260Y140725D01*
X130358Y140761D01*
X130374Y140773D01*
X130392Y140781D01*
X130523Y140886D01*
X132370Y142733D01*
X135092Y142733D01*
X137018Y140807D01*
X137018Y138085D01*
X135092Y136159D01*
X132220Y136159D01*
X132219Y136159D01*
X132120Y136190D01*
X132100Y136189D01*
X132081Y136194D01*
X131978Y136186D01*
X131874Y136184D01*
X131855Y136177D01*
X131836Y136175D01*
X131741Y136135D01*
X131643Y136099D01*
X131628Y136087D01*
X131609Y136079D01*
X131478Y135974D01*
X129631Y134127D01*
X126909Y134127D01*
X124983Y136053D01*
X124983Y136668D01*
X124980Y136688D01*
X124982Y136707D01*
X124960Y136809D01*
X124944Y136911D01*
X124934Y136928D01*
X124930Y136948D01*
X124877Y137037D01*
X124828Y137128D01*
X124814Y137142D01*
X124804Y137159D01*
X124725Y137226D01*
X124650Y137298D01*
X124632Y137306D01*
X124617Y137319D01*
X124521Y137358D01*
X124427Y137401D01*
X124407Y137403D01*
X124389Y137411D01*
X124222Y137429D01*
X122158Y137429D01*
X122138Y137426D01*
X122119Y137428D01*
X122017Y137406D01*
X121915Y137390D01*
X121898Y137380D01*
X121878Y137376D01*
X121789Y137323D01*
X121698Y137274D01*
X121684Y137260D01*
X121667Y137250D01*
X121600Y137171D01*
X121528Y137096D01*
X121520Y137078D01*
X121507Y137063D01*
X121468Y136967D01*
X121425Y136873D01*
X121423Y136853D01*
X121415Y136835D01*
X121397Y136668D01*
X121397Y135799D01*
X119471Y133873D01*
X116749Y133873D01*
X114823Y135799D01*
X114823Y136795D01*
X114820Y136815D01*
X114822Y136834D01*
X114800Y136936D01*
X114784Y137038D01*
X114774Y137055D01*
X114770Y137075D01*
X114717Y137164D01*
X114668Y137255D01*
X114654Y137269D01*
X114644Y137286D01*
X114565Y137353D01*
X114490Y137425D01*
X114472Y137433D01*
X114457Y137446D01*
X114361Y137485D01*
X114267Y137528D01*
X114247Y137530D01*
X114229Y137538D01*
X114062Y137556D01*
X112379Y137556D01*
X112359Y137553D01*
X112340Y137555D01*
X112238Y137533D01*
X112136Y137517D01*
X112119Y137507D01*
X112099Y137503D01*
X112010Y137450D01*
X111919Y137401D01*
X111905Y137387D01*
X111888Y137377D01*
X111821Y137298D01*
X111749Y137223D01*
X111741Y137205D01*
X111728Y137190D01*
X111689Y137094D01*
X111646Y137000D01*
X111644Y136980D01*
X111636Y136962D01*
X111618Y136795D01*
X111618Y135672D01*
X109692Y133746D01*
X106970Y133746D01*
G37*
%LPD*%
%LPC*%
G36*
X155230Y83962D02*
X155230Y83962D01*
X153304Y85888D01*
X153304Y88281D01*
X153303Y88292D01*
X153303Y88298D01*
X153302Y88306D01*
X153303Y88320D01*
X153281Y88422D01*
X153265Y88524D01*
X153255Y88541D01*
X153251Y88561D01*
X153198Y88650D01*
X153149Y88741D01*
X153135Y88755D01*
X153125Y88772D01*
X153046Y88839D01*
X152971Y88911D01*
X152953Y88919D01*
X152938Y88932D01*
X152842Y88971D01*
X152748Y89014D01*
X152728Y89016D01*
X152710Y89024D01*
X152543Y89042D01*
X152055Y89042D01*
X150129Y90968D01*
X150129Y93690D01*
X152055Y95616D01*
X152543Y95616D01*
X152563Y95619D01*
X152582Y95617D01*
X152684Y95639D01*
X152786Y95655D01*
X152803Y95665D01*
X152823Y95669D01*
X152912Y95722D01*
X153003Y95771D01*
X153017Y95785D01*
X153034Y95795D01*
X153101Y95874D01*
X153173Y95949D01*
X153181Y95967D01*
X153194Y95982D01*
X153233Y96078D01*
X153276Y96172D01*
X153278Y96192D01*
X153286Y96210D01*
X153304Y96377D01*
X153304Y98060D01*
X153301Y98080D01*
X153303Y98099D01*
X153281Y98201D01*
X153265Y98303D01*
X153255Y98320D01*
X153251Y98340D01*
X153198Y98429D01*
X153149Y98520D01*
X153135Y98534D01*
X153125Y98551D01*
X153046Y98618D01*
X152971Y98690D01*
X152953Y98698D01*
X152938Y98711D01*
X152842Y98750D01*
X152748Y98793D01*
X152728Y98795D01*
X152710Y98803D01*
X152543Y98821D01*
X152182Y98821D01*
X150256Y100747D01*
X150256Y103469D01*
X152182Y105395D01*
X152670Y105395D01*
X152690Y105398D01*
X152709Y105396D01*
X152811Y105418D01*
X152913Y105434D01*
X152930Y105444D01*
X152950Y105448D01*
X153039Y105501D01*
X153130Y105550D01*
X153144Y105564D01*
X153161Y105574D01*
X153228Y105653D01*
X153300Y105728D01*
X153308Y105746D01*
X153321Y105761D01*
X153360Y105857D01*
X153403Y105951D01*
X153405Y105971D01*
X153413Y105989D01*
X153431Y106156D01*
X153431Y108220D01*
X153428Y108240D01*
X153430Y108259D01*
X153408Y108361D01*
X153392Y108463D01*
X153382Y108480D01*
X153378Y108500D01*
X153325Y108589D01*
X153276Y108680D01*
X153262Y108694D01*
X153252Y108711D01*
X153173Y108778D01*
X153098Y108850D01*
X153080Y108858D01*
X153065Y108871D01*
X152969Y108910D01*
X152875Y108953D01*
X152855Y108955D01*
X152837Y108963D01*
X152670Y108981D01*
X152182Y108981D01*
X150256Y110907D01*
X150256Y113629D01*
X152357Y115730D01*
X152369Y115746D01*
X152384Y115759D01*
X152440Y115846D01*
X152501Y115930D01*
X152506Y115949D01*
X152517Y115966D01*
X152543Y116066D01*
X152573Y116165D01*
X152572Y116185D01*
X152577Y116204D01*
X152569Y116307D01*
X152567Y116411D01*
X152560Y116430D01*
X152558Y116449D01*
X152518Y116544D01*
X152482Y116642D01*
X152470Y116658D01*
X152462Y116676D01*
X152415Y116734D01*
X152415Y119621D01*
X152416Y119622D01*
X152446Y119721D01*
X152445Y119741D01*
X152450Y119760D01*
X152442Y119863D01*
X152440Y119967D01*
X152433Y119986D01*
X152431Y120006D01*
X152391Y120100D01*
X152355Y120198D01*
X152343Y120214D01*
X152335Y120232D01*
X152230Y120363D01*
X150383Y122210D01*
X150383Y124932D01*
X152309Y126858D01*
X155031Y126858D01*
X156957Y124932D01*
X156957Y122060D01*
X156957Y122059D01*
X156926Y121960D01*
X156927Y121940D01*
X156922Y121921D01*
X156930Y121818D01*
X156932Y121714D01*
X156939Y121695D01*
X156941Y121676D01*
X156981Y121581D01*
X157017Y121483D01*
X157029Y121468D01*
X157037Y121449D01*
X157142Y121318D01*
X158989Y119471D01*
X158989Y116749D01*
X156888Y114648D01*
X156876Y114632D01*
X156861Y114619D01*
X156829Y114570D01*
X156828Y114569D01*
X156827Y114567D01*
X156805Y114532D01*
X156744Y114448D01*
X156739Y114429D01*
X156728Y114412D01*
X156702Y114312D01*
X156672Y114213D01*
X156673Y114193D01*
X156668Y114174D01*
X156676Y114071D01*
X156678Y113967D01*
X156685Y113948D01*
X156687Y113928D01*
X156727Y113834D01*
X156763Y113736D01*
X156775Y113720D01*
X156783Y113702D01*
X156830Y113644D01*
X156830Y111490D01*
X156833Y111470D01*
X156831Y111451D01*
X156853Y111349D01*
X156869Y111247D01*
X156879Y111230D01*
X156883Y111210D01*
X156936Y111121D01*
X156985Y111030D01*
X156999Y111016D01*
X157009Y110999D01*
X157088Y110932D01*
X157163Y110860D01*
X157181Y110852D01*
X157196Y110839D01*
X157292Y110800D01*
X157386Y110757D01*
X157406Y110755D01*
X157424Y110747D01*
X157591Y110729D01*
X158079Y110729D01*
X160005Y108803D01*
X160005Y106081D01*
X158079Y104155D01*
X157591Y104155D01*
X157571Y104152D01*
X157552Y104154D01*
X157450Y104132D01*
X157348Y104116D01*
X157331Y104106D01*
X157311Y104102D01*
X157222Y104049D01*
X157131Y104000D01*
X157117Y103986D01*
X157100Y103976D01*
X157033Y103897D01*
X156961Y103822D01*
X156953Y103804D01*
X156940Y103789D01*
X156901Y103693D01*
X156858Y103599D01*
X156856Y103579D01*
X156848Y103561D01*
X156830Y103394D01*
X156830Y101203D01*
X156833Y101183D01*
X156831Y101164D01*
X156853Y101062D01*
X156869Y100960D01*
X156879Y100943D01*
X156883Y100923D01*
X156936Y100834D01*
X156985Y100743D01*
X156999Y100729D01*
X157009Y100712D01*
X157088Y100645D01*
X157163Y100573D01*
X157181Y100565D01*
X157196Y100552D01*
X157292Y100513D01*
X157386Y100470D01*
X157406Y100468D01*
X157424Y100460D01*
X157591Y100442D01*
X157952Y100442D01*
X159878Y98516D01*
X159878Y95794D01*
X157952Y93868D01*
X157464Y93868D01*
X157444Y93865D01*
X157425Y93867D01*
X157323Y93845D01*
X157221Y93829D01*
X157204Y93819D01*
X157184Y93815D01*
X157095Y93762D01*
X157004Y93713D01*
X156990Y93699D01*
X156973Y93689D01*
X156906Y93610D01*
X156834Y93535D01*
X156826Y93517D01*
X156813Y93502D01*
X156774Y93406D01*
X156731Y93312D01*
X156729Y93292D01*
X156721Y93274D01*
X156703Y93107D01*
X156703Y91297D01*
X156706Y91280D01*
X156704Y91264D01*
X156704Y91262D01*
X156704Y91258D01*
X156726Y91156D01*
X156742Y91054D01*
X156752Y91037D01*
X156756Y91017D01*
X156809Y90928D01*
X156858Y90837D01*
X156872Y90823D01*
X156882Y90806D01*
X156961Y90739D01*
X157036Y90667D01*
X157054Y90659D01*
X157069Y90646D01*
X157165Y90607D01*
X157259Y90564D01*
X157279Y90562D01*
X157297Y90554D01*
X157464Y90536D01*
X157952Y90536D01*
X159878Y88610D01*
X159878Y85888D01*
X157952Y83962D01*
X155230Y83962D01*
G37*
%LPD*%
%LPC*%
G36*
X94158Y36956D02*
X94158Y36956D01*
X92074Y39040D01*
X92074Y41986D01*
X94280Y44192D01*
X94333Y44266D01*
X94393Y44336D01*
X94405Y44366D01*
X94424Y44392D01*
X94451Y44479D01*
X94485Y44564D01*
X94489Y44605D01*
X94496Y44627D01*
X94495Y44659D01*
X94503Y44731D01*
X94503Y46625D01*
X94500Y46645D01*
X94502Y46664D01*
X94480Y46766D01*
X94464Y46868D01*
X94454Y46885D01*
X94450Y46905D01*
X94397Y46994D01*
X94348Y47085D01*
X94334Y47099D01*
X94324Y47116D01*
X94245Y47183D01*
X94170Y47255D01*
X94152Y47263D01*
X94137Y47276D01*
X94041Y47315D01*
X93947Y47358D01*
X93927Y47360D01*
X93909Y47368D01*
X93742Y47386D01*
X92619Y47386D01*
X90693Y49312D01*
X90693Y52034D01*
X92619Y53960D01*
X95341Y53960D01*
X97267Y52034D01*
X97267Y50276D01*
X97270Y50256D01*
X97268Y50237D01*
X97290Y50135D01*
X97306Y50033D01*
X97316Y50016D01*
X97320Y49996D01*
X97373Y49907D01*
X97422Y49816D01*
X97436Y49802D01*
X97446Y49785D01*
X97525Y49718D01*
X97600Y49646D01*
X97618Y49638D01*
X97633Y49625D01*
X97729Y49586D01*
X97823Y49543D01*
X97843Y49541D01*
X97861Y49533D01*
X98028Y49515D01*
X99187Y49515D01*
X99203Y49507D01*
X99245Y49477D01*
X99314Y49456D01*
X99379Y49426D01*
X99431Y49420D01*
X99480Y49404D01*
X99552Y49406D01*
X99623Y49398D01*
X99674Y49410D01*
X99726Y49411D01*
X99794Y49435D01*
X99864Y49451D01*
X99909Y49477D01*
X99957Y49495D01*
X100013Y49540D01*
X100075Y49577D01*
X100109Y49616D01*
X100149Y49649D01*
X100188Y49709D01*
X100235Y49764D01*
X100254Y49812D01*
X100282Y49856D01*
X100300Y49925D01*
X100327Y49992D01*
X100335Y50063D01*
X100343Y50094D01*
X100341Y50118D01*
X100345Y50159D01*
X100345Y50764D01*
X102271Y52690D01*
X104993Y52690D01*
X105650Y52033D01*
X105708Y51992D01*
X105760Y51942D01*
X105807Y51920D01*
X105849Y51890D01*
X105918Y51869D01*
X105983Y51839D01*
X106035Y51833D01*
X106085Y51817D01*
X106156Y51819D01*
X106227Y51811D01*
X106278Y51823D01*
X106330Y51824D01*
X106398Y51848D01*
X106468Y51864D01*
X106513Y51890D01*
X106561Y51908D01*
X106617Y51953D01*
X106679Y51990D01*
X106713Y52029D01*
X106753Y52062D01*
X106792Y52122D01*
X106839Y52177D01*
X106858Y52225D01*
X106886Y52269D01*
X106904Y52338D01*
X106931Y52405D01*
X106939Y52476D01*
X106947Y52507D01*
X106945Y52531D01*
X106949Y52572D01*
X106949Y52923D01*
X108875Y54849D01*
X111597Y54849D01*
X113523Y52923D01*
X113523Y50201D01*
X111597Y48275D01*
X108875Y48275D01*
X108218Y48932D01*
X108160Y48973D01*
X108108Y49023D01*
X108061Y49045D01*
X108019Y49075D01*
X107950Y49096D01*
X107885Y49126D01*
X107833Y49132D01*
X107783Y49148D01*
X107712Y49146D01*
X107641Y49154D01*
X107590Y49142D01*
X107538Y49141D01*
X107470Y49117D01*
X107400Y49101D01*
X107355Y49075D01*
X107307Y49057D01*
X107251Y49012D01*
X107189Y48975D01*
X107155Y48936D01*
X107115Y48903D01*
X107076Y48843D01*
X107029Y48788D01*
X107010Y48740D01*
X106982Y48696D01*
X106964Y48627D01*
X106937Y48560D01*
X106929Y48489D01*
X106921Y48458D01*
X106923Y48434D01*
X106919Y48393D01*
X106919Y48042D01*
X104993Y46116D01*
X102235Y46116D01*
X102219Y46124D01*
X102177Y46154D01*
X102108Y46175D01*
X102043Y46205D01*
X101991Y46211D01*
X101942Y46227D01*
X101870Y46225D01*
X101799Y46233D01*
X101748Y46221D01*
X101696Y46220D01*
X101628Y46196D01*
X101558Y46180D01*
X101513Y46154D01*
X101465Y46136D01*
X101409Y46091D01*
X101347Y46054D01*
X101313Y46015D01*
X101273Y45982D01*
X101234Y45922D01*
X101187Y45867D01*
X101168Y45819D01*
X101140Y45775D01*
X101122Y45706D01*
X101095Y45639D01*
X101087Y45568D01*
X101079Y45537D01*
X101081Y45513D01*
X101077Y45472D01*
X101077Y44867D01*
X99230Y43020D01*
X99219Y43004D01*
X99203Y42992D01*
X99147Y42904D01*
X99087Y42820D01*
X99081Y42801D01*
X99070Y42785D01*
X99045Y42684D01*
X99014Y42585D01*
X99015Y42565D01*
X99010Y42546D01*
X99018Y42443D01*
X99021Y42340D01*
X99028Y42321D01*
X99029Y42301D01*
X99070Y42206D01*
X99105Y42108D01*
X99118Y42093D01*
X99126Y42075D01*
X99188Y41997D01*
X99188Y39040D01*
X97104Y36956D01*
X94158Y36956D01*
G37*
%LPD*%
%LPC*%
G36*
X75855Y51069D02*
X75855Y51069D01*
X73929Y52995D01*
X73929Y55717D01*
X74951Y56739D01*
X74962Y56755D01*
X74978Y56767D01*
X75034Y56855D01*
X75094Y56938D01*
X75100Y56957D01*
X75111Y56974D01*
X75136Y57075D01*
X75166Y57174D01*
X75166Y57193D01*
X75171Y57213D01*
X75163Y57316D01*
X75160Y57419D01*
X75153Y57438D01*
X75152Y57458D01*
X75111Y57553D01*
X75076Y57650D01*
X75063Y57666D01*
X75055Y57684D01*
X74951Y57815D01*
X73436Y59330D01*
X73420Y59341D01*
X73408Y59357D01*
X73321Y59413D01*
X73237Y59473D01*
X73217Y59479D01*
X73201Y59490D01*
X73100Y59515D01*
X73001Y59545D01*
X72982Y59545D01*
X72962Y59550D01*
X72859Y59542D01*
X72756Y59539D01*
X72737Y59532D01*
X72717Y59531D01*
X72622Y59490D01*
X72525Y59455D01*
X72509Y59442D01*
X72491Y59434D01*
X72360Y59330D01*
X71211Y58181D01*
X68489Y58181D01*
X66563Y60107D01*
X66563Y61357D01*
X66560Y61377D01*
X66562Y61396D01*
X66540Y61498D01*
X66524Y61600D01*
X66514Y61617D01*
X66510Y61637D01*
X66457Y61726D01*
X66408Y61817D01*
X66394Y61831D01*
X66384Y61848D01*
X66305Y61915D01*
X66230Y61987D01*
X66212Y61995D01*
X66197Y62008D01*
X66101Y62047D01*
X66007Y62090D01*
X65987Y62092D01*
X65969Y62100D01*
X65802Y62118D01*
X64171Y62118D01*
X62245Y64044D01*
X62245Y66766D01*
X64171Y68692D01*
X66893Y68692D01*
X68819Y66766D01*
X68819Y65516D01*
X68822Y65496D01*
X68820Y65477D01*
X68842Y65375D01*
X68858Y65273D01*
X68868Y65256D01*
X68872Y65236D01*
X68925Y65147D01*
X68974Y65056D01*
X68988Y65042D01*
X68998Y65025D01*
X69077Y64958D01*
X69152Y64886D01*
X69170Y64878D01*
X69185Y64865D01*
X69281Y64826D01*
X69375Y64783D01*
X69395Y64781D01*
X69413Y64773D01*
X69580Y64755D01*
X71211Y64755D01*
X73122Y62844D01*
X73138Y62833D01*
X73150Y62817D01*
X73238Y62761D01*
X73321Y62701D01*
X73340Y62695D01*
X73357Y62684D01*
X73458Y62659D01*
X73557Y62629D01*
X73576Y62629D01*
X73596Y62624D01*
X73699Y62632D01*
X73802Y62635D01*
X73821Y62642D01*
X73841Y62643D01*
X73936Y62684D01*
X74033Y62719D01*
X74049Y62732D01*
X74067Y62740D01*
X74198Y62844D01*
X75347Y63993D01*
X78069Y63993D01*
X79995Y62067D01*
X79995Y59345D01*
X78973Y58323D01*
X78962Y58307D01*
X78946Y58295D01*
X78916Y58247D01*
X78906Y58237D01*
X78897Y58219D01*
X78890Y58207D01*
X78830Y58124D01*
X78824Y58105D01*
X78813Y58088D01*
X78788Y57987D01*
X78758Y57888D01*
X78758Y57869D01*
X78753Y57849D01*
X78761Y57746D01*
X78764Y57643D01*
X78771Y57624D01*
X78772Y57604D01*
X78813Y57509D01*
X78848Y57412D01*
X78861Y57396D01*
X78869Y57378D01*
X78973Y57247D01*
X80503Y55717D01*
X80503Y52995D01*
X78577Y51069D01*
X75855Y51069D01*
G37*
%LPD*%
%LPC*%
G36*
X28118Y88645D02*
X28118Y88645D01*
X26034Y90729D01*
X26034Y93675D01*
X28118Y95759D01*
X31064Y95759D01*
X31720Y95103D01*
X31736Y95092D01*
X31748Y95076D01*
X31836Y95020D01*
X31919Y94960D01*
X31938Y94954D01*
X31955Y94943D01*
X32056Y94918D01*
X32155Y94887D01*
X32174Y94888D01*
X32194Y94883D01*
X32297Y94891D01*
X32400Y94894D01*
X32419Y94901D01*
X32439Y94902D01*
X32534Y94943D01*
X32631Y94978D01*
X32647Y94991D01*
X32665Y94998D01*
X32796Y95103D01*
X33452Y95759D01*
X36398Y95759D01*
X37054Y95103D01*
X37070Y95092D01*
X37082Y95076D01*
X37170Y95020D01*
X37253Y94960D01*
X37272Y94954D01*
X37289Y94943D01*
X37390Y94918D01*
X37489Y94887D01*
X37508Y94888D01*
X37528Y94883D01*
X37631Y94891D01*
X37734Y94894D01*
X37753Y94901D01*
X37773Y94902D01*
X37868Y94943D01*
X37965Y94978D01*
X37981Y94991D01*
X37999Y94998D01*
X38130Y95103D01*
X38786Y95759D01*
X41732Y95759D01*
X43816Y93675D01*
X43816Y90729D01*
X41732Y88645D01*
X38786Y88645D01*
X38130Y89301D01*
X38114Y89312D01*
X38102Y89328D01*
X38014Y89384D01*
X37931Y89444D01*
X37912Y89450D01*
X37895Y89461D01*
X37794Y89486D01*
X37695Y89517D01*
X37676Y89516D01*
X37656Y89521D01*
X37553Y89513D01*
X37450Y89510D01*
X37431Y89503D01*
X37411Y89502D01*
X37316Y89461D01*
X37219Y89426D01*
X37203Y89413D01*
X37185Y89406D01*
X37054Y89301D01*
X36398Y88645D01*
X33452Y88645D01*
X32796Y89301D01*
X32780Y89312D01*
X32768Y89328D01*
X32680Y89384D01*
X32597Y89444D01*
X32578Y89450D01*
X32561Y89461D01*
X32460Y89486D01*
X32361Y89517D01*
X32342Y89516D01*
X32322Y89521D01*
X32219Y89513D01*
X32116Y89510D01*
X32097Y89503D01*
X32077Y89502D01*
X31982Y89461D01*
X31885Y89426D01*
X31869Y89413D01*
X31851Y89406D01*
X31720Y89301D01*
X31064Y88645D01*
X28118Y88645D01*
G37*
%LPD*%
%LPC*%
G36*
X65202Y135762D02*
X65202Y135762D01*
X63118Y137846D01*
X63118Y140792D01*
X63964Y141638D01*
X63976Y141654D01*
X63991Y141667D01*
X64048Y141754D01*
X64108Y141838D01*
X64114Y141857D01*
X64124Y141874D01*
X64150Y141974D01*
X64180Y142073D01*
X64180Y142093D01*
X64184Y142112D01*
X64176Y142215D01*
X64174Y142319D01*
X64167Y142338D01*
X64165Y142358D01*
X64125Y142452D01*
X64089Y142550D01*
X64077Y142566D01*
X64069Y142584D01*
X63964Y142715D01*
X63118Y143561D01*
X63118Y146507D01*
X65202Y148591D01*
X68148Y148591D01*
X70232Y146507D01*
X70232Y143561D01*
X69386Y142715D01*
X69374Y142699D01*
X69359Y142686D01*
X69302Y142599D01*
X69242Y142515D01*
X69236Y142496D01*
X69226Y142479D01*
X69200Y142379D01*
X69170Y142280D01*
X69170Y142260D01*
X69166Y142241D01*
X69174Y142138D01*
X69176Y142034D01*
X69183Y142015D01*
X69185Y141996D01*
X69225Y141901D01*
X69261Y141803D01*
X69273Y141787D01*
X69281Y141769D01*
X69386Y141638D01*
X70232Y140792D01*
X70232Y137846D01*
X68148Y135762D01*
X65202Y135762D01*
G37*
%LPD*%
%LPC*%
G36*
X32944Y122427D02*
X32944Y122427D01*
X30860Y124511D01*
X30860Y127457D01*
X32944Y129541D01*
X35890Y129541D01*
X36609Y128822D01*
X36625Y128810D01*
X36638Y128795D01*
X36702Y128753D01*
X36747Y128715D01*
X36772Y128705D01*
X36809Y128678D01*
X36828Y128672D01*
X36845Y128662D01*
X36938Y128638D01*
X36975Y128623D01*
X36995Y128621D01*
X37044Y128606D01*
X37064Y128606D01*
X37083Y128602D01*
X37135Y128606D01*
X37142Y128605D01*
X37153Y128605D01*
X37180Y128609D01*
X37186Y128610D01*
X37290Y128612D01*
X37309Y128619D01*
X37329Y128621D01*
X37377Y128641D01*
X37396Y128644D01*
X37436Y128666D01*
X37521Y128697D01*
X37537Y128709D01*
X37555Y128717D01*
X37597Y128751D01*
X37614Y128760D01*
X37631Y128778D01*
X37686Y128822D01*
X38532Y129668D01*
X41478Y129668D01*
X43562Y127584D01*
X43562Y124638D01*
X41478Y122554D01*
X38532Y122554D01*
X37813Y123273D01*
X37797Y123285D01*
X37784Y123300D01*
X37697Y123356D01*
X37613Y123417D01*
X37594Y123423D01*
X37577Y123433D01*
X37477Y123459D01*
X37378Y123489D01*
X37358Y123489D01*
X37339Y123493D01*
X37236Y123485D01*
X37132Y123483D01*
X37113Y123476D01*
X37094Y123474D01*
X36999Y123434D01*
X36901Y123398D01*
X36885Y123386D01*
X36867Y123378D01*
X36736Y123273D01*
X35890Y122427D01*
X32944Y122427D01*
G37*
%LPD*%
%LPC*%
G36*
X67742Y45973D02*
X67742Y45973D01*
X65658Y48057D01*
X65658Y49149D01*
X65655Y49169D01*
X65657Y49188D01*
X65635Y49290D01*
X65619Y49392D01*
X65609Y49409D01*
X65605Y49429D01*
X65552Y49518D01*
X65503Y49609D01*
X65489Y49623D01*
X65479Y49640D01*
X65400Y49707D01*
X65325Y49779D01*
X65307Y49787D01*
X65292Y49800D01*
X65196Y49839D01*
X65102Y49882D01*
X65082Y49884D01*
X65064Y49892D01*
X64897Y49910D01*
X64059Y49910D01*
X61975Y51994D01*
X61975Y54940D01*
X64059Y57024D01*
X67005Y57024D01*
X69089Y54940D01*
X69089Y53848D01*
X69092Y53828D01*
X69090Y53809D01*
X69112Y53707D01*
X69128Y53605D01*
X69138Y53588D01*
X69142Y53568D01*
X69195Y53479D01*
X69244Y53388D01*
X69258Y53374D01*
X69268Y53357D01*
X69347Y53290D01*
X69422Y53218D01*
X69440Y53210D01*
X69455Y53197D01*
X69551Y53158D01*
X69645Y53115D01*
X69665Y53113D01*
X69683Y53105D01*
X69850Y53087D01*
X70688Y53087D01*
X72772Y51003D01*
X72772Y48057D01*
X70688Y45973D01*
X67742Y45973D01*
G37*
%LPD*%
%LPC*%
G36*
X148133Y55752D02*
X148133Y55752D01*
X146049Y57836D01*
X146049Y60782D01*
X148133Y62866D01*
X151079Y62866D01*
X153163Y60782D01*
X153163Y57836D01*
X151079Y55752D01*
X148133Y55752D01*
G37*
%LPD*%
%LPC*%
G36*
X116392Y32648D02*
X116392Y32648D01*
X114309Y34731D01*
X114309Y37678D01*
X116392Y39761D01*
X119339Y39761D01*
X121422Y37678D01*
X121422Y34731D01*
X119339Y32648D01*
X116392Y32648D01*
G37*
%LPD*%
%LPC*%
G36*
X85784Y147847D02*
X85784Y147847D01*
X83712Y149919D01*
X83712Y152849D01*
X85784Y154921D01*
X88714Y154921D01*
X90786Y152849D01*
X90786Y149919D01*
X88714Y147847D01*
X85784Y147847D01*
G37*
%LPD*%
%LPC*%
G36*
X142426Y137052D02*
X142426Y137052D01*
X140354Y139124D01*
X140354Y142054D01*
X142426Y144126D01*
X145356Y144126D01*
X147428Y142054D01*
X147428Y139124D01*
X145356Y137052D01*
X142426Y137052D01*
G37*
%LPD*%
%LPC*%
G36*
X76236Y125872D02*
X76236Y125872D01*
X74310Y127798D01*
X74310Y130520D01*
X76236Y132446D01*
X78958Y132446D01*
X80884Y130520D01*
X80884Y127798D01*
X78958Y125872D01*
X76236Y125872D01*
G37*
%LPD*%
%LPC*%
G36*
X84491Y45354D02*
X84491Y45354D01*
X82565Y47280D01*
X82565Y50002D01*
X84491Y51928D01*
X87213Y51928D01*
X89139Y50002D01*
X89139Y47280D01*
X87213Y45354D01*
X84491Y45354D01*
G37*
%LPD*%
D10*
X112903Y2286D03*
X125603Y2286D03*
X138303Y2286D03*
X151003Y2286D03*
X163703Y2286D03*
X100203Y2286D03*
X87503Y2286D03*
X74803Y2286D03*
X62103Y2286D03*
X49403Y2286D03*
X36703Y2286D03*
X24003Y2286D03*
X11303Y2286D03*
X112903Y168656D03*
X125603Y168656D03*
X138303Y168656D03*
X151003Y168656D03*
X163703Y168656D03*
X100203Y168656D03*
X87503Y168656D03*
X74803Y168656D03*
X62103Y168656D03*
X49403Y168656D03*
X36703Y168656D03*
X24003Y168656D03*
X11303Y168656D03*
X3048Y78994D03*
X3048Y66294D03*
X3048Y53594D03*
X3048Y40894D03*
X3048Y28194D03*
X3048Y91694D03*
X3048Y104394D03*
X3048Y117094D03*
X3048Y129794D03*
X3048Y142494D03*
D11*
X65532Y65405D03*
D12*
X117865Y36204D03*
X149606Y59309D03*
X34925Y92202D03*
X29591Y92202D03*
X40259Y92202D03*
X66675Y145034D03*
X65532Y53467D03*
X69215Y49530D03*
X95631Y40513D03*
X66675Y139319D03*
D13*
X143891Y140589D03*
X87249Y151384D03*
D12*
X124206Y108077D03*
X110871Y94742D03*
X97536Y108077D03*
X110871Y108077D03*
X124206Y94742D03*
X124206Y81407D03*
X110871Y81407D03*
X97536Y81407D03*
X97536Y94742D03*
D11*
X163830Y126111D03*
D12*
X64643Y133477D03*
D11*
X95377Y28575D03*
X150114Y35560D03*
D12*
X97536Y118491D03*
X110490Y118618D03*
X124206Y118491D03*
X97409Y70866D03*
X110871Y70866D03*
X124460Y70866D03*
D11*
X196850Y19050D03*
X203200Y19050D03*
X203200Y25400D03*
X203200Y31750D03*
X203200Y38100D03*
X203200Y44450D03*
X203200Y50800D03*
X203200Y57150D03*
X203200Y63500D03*
X203200Y69850D03*
X203200Y76200D03*
X203200Y82550D03*
X203200Y88900D03*
X203200Y95250D03*
X203200Y101600D03*
X203200Y107950D03*
X203200Y132080D03*
X196850Y132080D03*
X196850Y138430D03*
X203200Y138430D03*
X203200Y144780D03*
X196850Y144780D03*
X196850Y151130D03*
X203200Y151130D03*
X196850Y158750D03*
X203200Y158750D03*
D13*
X210439Y146050D03*
D11*
X190500Y18796D03*
X184023Y18796D03*
X184150Y25400D03*
D13*
X36322Y23368D03*
X37846Y45847D03*
X21717Y92075D03*
D11*
X209550Y12700D03*
X209550Y6350D03*
X204470Y12700D03*
X204470Y6350D03*
X209550Y25400D03*
X209550Y19050D03*
X209550Y31750D03*
X209550Y38100D03*
X209550Y44450D03*
X209550Y50800D03*
X209550Y57150D03*
X209550Y63500D03*
X209550Y69850D03*
X209550Y76200D03*
X209550Y82550D03*
X209550Y88900D03*
X209550Y95250D03*
X209550Y101600D03*
X209550Y107950D03*
X209550Y115570D03*
X209550Y132080D03*
X209550Y158750D03*
X209550Y165100D03*
X203200Y165100D03*
X196850Y165100D03*
X190500Y165100D03*
X184150Y165100D03*
X177800Y165100D03*
X171958Y164973D03*
X190500Y132080D03*
X190500Y125730D03*
X186690Y120650D03*
X180340Y120650D03*
X173990Y120650D03*
X168910Y116840D03*
X168910Y110490D03*
X168910Y104140D03*
X168910Y97790D03*
X175260Y97790D03*
X181610Y97790D03*
X187960Y97790D03*
X187960Y91440D03*
X187960Y83820D03*
X187960Y77470D03*
X187960Y104140D03*
X187960Y111760D03*
X184150Y50800D03*
X184150Y44450D03*
X184150Y38100D03*
X184150Y31750D03*
X177800Y31750D03*
X171450Y31750D03*
X165100Y31750D03*
X162560Y58420D03*
X162560Y49530D03*
X162560Y36830D03*
X190500Y158750D03*
X190500Y151130D03*
X190500Y144780D03*
X190500Y138430D03*
X7620Y152400D03*
X6350Y13970D03*
X11430Y83820D03*
X11430Y58420D03*
X119380Y161290D03*
X107950Y161290D03*
X20320Y138811D03*
X21590Y123571D03*
X118364Y22987D03*
X93599Y17907D03*
X148971Y18542D03*
X190500Y25146D03*
X196850Y25400D03*
X190500Y31496D03*
X196850Y31750D03*
X190500Y37846D03*
X196850Y38100D03*
D12*
X87376Y118491D03*
X87376Y108077D03*
X87376Y94742D03*
X87376Y81407D03*
X87249Y70866D03*
X134366Y118491D03*
X134366Y108077D03*
X40005Y126111D03*
X34417Y125984D03*
D11*
X75057Y15494D03*
X68072Y122047D03*
X77597Y129159D03*
X153416Y92329D03*
X156591Y97155D03*
X153543Y102108D03*
X156718Y107442D03*
X153543Y112268D03*
X155702Y118110D03*
X133731Y139446D03*
X128270Y137414D03*
X123317Y140716D03*
X118110Y137160D03*
X113538Y140843D03*
X108331Y137033D03*
D13*
X24130Y39370D03*
D14*
X24130Y81280D01*
X15240Y90170D01*
X15240Y149860D01*
X25400Y160020D02*
X93980Y160020D01*
X100203Y166243D01*
X100203Y166675D01*
X25400Y160020D02*
X15240Y149860D01*
X100203Y166675D02*
X100203Y168656D01*
D11*
X103632Y140462D03*
X98425Y137414D03*
X64389Y116586D03*
X68199Y112014D03*
X64643Y107442D03*
X67945Y102108D03*
X64262Y97282D03*
X68453Y92329D03*
X64135Y87884D03*
X69850Y61468D03*
X76708Y60706D03*
X77216Y54356D03*
X85852Y48641D03*
X93980Y50673D03*
X97790Y46228D03*
X103632Y49403D03*
X110236Y51562D03*
X156591Y87249D03*
X153670Y123571D03*
X167640Y12700D03*
D14*
X81280Y12700D01*
X74803Y6223D02*
X74803Y2286D01*
X74803Y6223D02*
X81280Y12700D01*
M02*
