G04 EAGLE Gerber RS-274X export*
G75*
%MOMM*%
%FSLAX34Y34*%
%LPD*%
%INTop Copper*%
%IPPOS*%
%AMOC8*
5,1,8,0,0,1.08239X$1,22.5*%
G01*
%ADD10C,0.130000*%
%ADD11C,0.152400*%
%ADD12R,0.850000X0.300000*%
%ADD13R,0.300000X0.850000*%
%ADD14C,0.157500*%
%ADD15C,0.280800*%
%ADD16C,0.500000*%
%ADD17C,0.402900*%
%ADD18R,1.000000X1.800000*%
%ADD19R,0.850000X0.950000*%
%ADD20R,0.500000X0.900000*%
%ADD21R,0.500000X0.500000*%
%ADD22C,0.270000*%
%ADD23R,0.900000X1.000000*%
%ADD24C,0.300000*%
%ADD25C,1.050000*%
%ADD26C,0.450000*%
%ADD27C,0.304800*%
%ADD28C,0.457200*%
%ADD29C,0.431800*%
%ADD30C,0.609600*%
%ADD31C,0.406400*%
%ADD32C,0.254000*%
%ADD33C,0.330200*%
%ADD34C,0.453200*%
%ADD35C,0.508000*%
%ADD36C,0.203200*%
%ADD37C,0.200000*%

G36*
X63440Y36811D02*
X63440Y36811D01*
X63488Y36811D01*
X63560Y36837D01*
X63634Y36853D01*
X63675Y36877D01*
X63720Y36893D01*
X63780Y36940D01*
X63845Y36979D01*
X63876Y37015D01*
X63914Y37045D01*
X63990Y37149D01*
X64005Y37166D01*
X64007Y37172D01*
X64013Y37180D01*
X64208Y37518D01*
X64943Y38253D01*
X65029Y38302D01*
X65121Y38378D01*
X65214Y38452D01*
X65216Y38455D01*
X65219Y38458D01*
X65282Y38558D01*
X65347Y38659D01*
X65348Y38663D01*
X65350Y38666D01*
X65378Y38782D01*
X65407Y38897D01*
X65407Y38901D01*
X65407Y38906D01*
X65397Y39024D01*
X65388Y39143D01*
X65386Y39146D01*
X65386Y39151D01*
X65338Y39259D01*
X65291Y39369D01*
X65288Y39373D01*
X65287Y39376D01*
X65278Y39386D01*
X65187Y39500D01*
X64690Y39996D01*
X64690Y44804D01*
X65562Y45676D01*
X65615Y45750D01*
X65675Y45819D01*
X65687Y45849D01*
X65706Y45876D01*
X65733Y45963D01*
X65767Y46047D01*
X65771Y46088D01*
X65778Y46111D01*
X65777Y46143D01*
X65785Y46214D01*
X65785Y47614D01*
X65771Y47705D01*
X65763Y47795D01*
X65751Y47825D01*
X65746Y47857D01*
X65703Y47938D01*
X65667Y48022D01*
X65658Y48033D01*
X65658Y48175D01*
X65656Y48191D01*
X65657Y48205D01*
X65643Y48270D01*
X65636Y48356D01*
X65624Y48386D01*
X65619Y48418D01*
X65606Y48442D01*
X65605Y48445D01*
X65596Y48460D01*
X65576Y48498D01*
X65540Y48582D01*
X65514Y48614D01*
X65503Y48635D01*
X65480Y48657D01*
X65435Y48713D01*
X64461Y49687D01*
X64387Y49740D01*
X64318Y49800D01*
X64288Y49812D01*
X64262Y49831D01*
X64175Y49858D01*
X64090Y49892D01*
X64076Y49893D01*
X61874Y52095D01*
X61857Y52107D01*
X61845Y52123D01*
X61758Y52179D01*
X61674Y52239D01*
X61655Y52245D01*
X61638Y52256D01*
X61538Y52281D01*
X61439Y52311D01*
X61419Y52311D01*
X61399Y52316D01*
X61296Y52308D01*
X61193Y52305D01*
X61174Y52298D01*
X61154Y52297D01*
X61059Y52256D01*
X60962Y52221D01*
X60946Y52208D01*
X60928Y52200D01*
X60797Y52095D01*
X60783Y52081D01*
X52659Y52081D01*
X50450Y54290D01*
X50450Y66614D01*
X52659Y68823D01*
X57316Y68823D01*
X57406Y68837D01*
X57497Y68845D01*
X57527Y68857D01*
X57559Y68862D01*
X57639Y68905D01*
X57723Y68941D01*
X57756Y68967D01*
X57776Y68978D01*
X57798Y69001D01*
X57854Y69046D01*
X60418Y71610D01*
X60460Y71668D01*
X60510Y71720D01*
X60532Y71767D01*
X60562Y71809D01*
X60583Y71878D01*
X60613Y71943D01*
X60619Y71995D01*
X60634Y72045D01*
X60632Y72116D01*
X60640Y72187D01*
X60629Y72238D01*
X60628Y72290D01*
X60603Y72358D01*
X60588Y72428D01*
X60561Y72473D01*
X60543Y72521D01*
X60499Y72577D01*
X60462Y72639D01*
X60422Y72673D01*
X60390Y72713D01*
X60329Y72752D01*
X60275Y72799D01*
X60227Y72818D01*
X60183Y72846D01*
X60113Y72864D01*
X60047Y72891D01*
X59975Y72899D01*
X59944Y72907D01*
X59921Y72905D01*
X59880Y72909D01*
X51643Y72909D01*
X49434Y75118D01*
X49434Y87442D01*
X51643Y89651D01*
X59767Y89651D01*
X59806Y89611D01*
X59823Y89600D01*
X59835Y89584D01*
X59922Y89528D01*
X60006Y89468D01*
X60025Y89462D01*
X60042Y89451D01*
X60142Y89426D01*
X60241Y89395D01*
X60261Y89396D01*
X60281Y89391D01*
X60384Y89399D01*
X60487Y89402D01*
X60506Y89408D01*
X60526Y89410D01*
X60621Y89450D01*
X60718Y89486D01*
X60734Y89498D01*
X60752Y89506D01*
X60883Y89611D01*
X62677Y91405D01*
X64171Y91405D01*
X64191Y91408D01*
X64210Y91406D01*
X64312Y91428D01*
X64414Y91444D01*
X64431Y91454D01*
X64451Y91458D01*
X64540Y91511D01*
X64631Y91560D01*
X64645Y91574D01*
X64662Y91584D01*
X64729Y91663D01*
X64801Y91738D01*
X64809Y91756D01*
X64822Y91771D01*
X64861Y91867D01*
X64904Y91961D01*
X64906Y91981D01*
X64914Y91999D01*
X64932Y92166D01*
X64932Y93000D01*
X64929Y93020D01*
X64931Y93039D01*
X64909Y93141D01*
X64893Y93243D01*
X64883Y93260D01*
X64879Y93280D01*
X64826Y93369D01*
X64777Y93460D01*
X64763Y93474D01*
X64753Y93491D01*
X64674Y93558D01*
X64599Y93630D01*
X64581Y93638D01*
X64566Y93651D01*
X64470Y93690D01*
X64376Y93733D01*
X64356Y93735D01*
X64338Y93743D01*
X64171Y93761D01*
X62804Y93761D01*
X62284Y94281D01*
X62228Y94321D01*
X62179Y94369D01*
X62129Y94392D01*
X62084Y94425D01*
X62019Y94445D01*
X61957Y94474D01*
X61902Y94481D01*
X61849Y94497D01*
X61781Y94495D01*
X61712Y94503D01*
X61658Y94492D01*
X61603Y94491D01*
X61539Y94467D01*
X61472Y94453D01*
X61403Y94417D01*
X61372Y94406D01*
X61355Y94393D01*
X61323Y94376D01*
X60466Y93803D01*
X59548Y93423D01*
X58574Y93229D01*
X57101Y93229D01*
X57101Y102108D01*
X57098Y102128D01*
X57100Y102147D01*
X57078Y102249D01*
X57061Y102351D01*
X57052Y102368D01*
X57048Y102388D01*
X56995Y102477D01*
X56946Y102568D01*
X56932Y102582D01*
X56922Y102599D01*
X56843Y102666D01*
X56768Y102737D01*
X56750Y102746D01*
X56735Y102759D01*
X56639Y102798D01*
X56545Y102841D01*
X56525Y102843D01*
X56507Y102851D01*
X56340Y102869D01*
X55577Y102869D01*
X55577Y102871D01*
X56340Y102871D01*
X56360Y102874D01*
X56379Y102872D01*
X56481Y102894D01*
X56583Y102911D01*
X56600Y102920D01*
X56620Y102924D01*
X56709Y102977D01*
X56800Y103026D01*
X56814Y103040D01*
X56831Y103050D01*
X56898Y103129D01*
X56969Y103204D01*
X56978Y103222D01*
X56991Y103237D01*
X57030Y103333D01*
X57073Y103427D01*
X57075Y103447D01*
X57083Y103465D01*
X57101Y103632D01*
X57101Y112511D01*
X58574Y112511D01*
X59548Y112317D01*
X60466Y111937D01*
X61291Y111385D01*
X61911Y110766D01*
X61927Y110754D01*
X61940Y110738D01*
X62027Y110682D01*
X62111Y110622D01*
X62130Y110616D01*
X62147Y110605D01*
X62247Y110580D01*
X62346Y110550D01*
X62366Y110550D01*
X62385Y110545D01*
X62488Y110553D01*
X62592Y110556D01*
X62610Y110563D01*
X62630Y110565D01*
X62725Y110605D01*
X62823Y110641D01*
X62838Y110653D01*
X62857Y110661D01*
X62988Y110766D01*
X63185Y110963D01*
X63917Y110963D01*
X63937Y110966D01*
X63956Y110964D01*
X64058Y110986D01*
X64160Y111002D01*
X64177Y111012D01*
X64197Y111016D01*
X64286Y111069D01*
X64377Y111118D01*
X64391Y111132D01*
X64408Y111142D01*
X64475Y111221D01*
X64547Y111296D01*
X64555Y111314D01*
X64568Y111329D01*
X64607Y111425D01*
X64650Y111519D01*
X64652Y111539D01*
X64660Y111557D01*
X64678Y111724D01*
X64678Y112304D01*
X64675Y112324D01*
X64677Y112343D01*
X64655Y112445D01*
X64639Y112547D01*
X64629Y112564D01*
X64625Y112584D01*
X64572Y112673D01*
X64523Y112764D01*
X64509Y112778D01*
X64499Y112795D01*
X64420Y112862D01*
X64345Y112934D01*
X64327Y112942D01*
X64312Y112955D01*
X64216Y112994D01*
X64122Y113037D01*
X64102Y113039D01*
X64084Y113047D01*
X63917Y113065D01*
X62931Y113065D01*
X60868Y115128D01*
X60868Y118044D01*
X62931Y120107D01*
X63790Y120107D01*
X63810Y120110D01*
X63829Y120108D01*
X63931Y120130D01*
X64033Y120146D01*
X64050Y120156D01*
X64070Y120160D01*
X64159Y120213D01*
X64250Y120262D01*
X64264Y120276D01*
X64281Y120286D01*
X64348Y120365D01*
X64420Y120440D01*
X64428Y120458D01*
X64441Y120473D01*
X64480Y120569D01*
X64523Y120663D01*
X64525Y120683D01*
X64533Y120701D01*
X64551Y120868D01*
X64551Y123505D01*
X66614Y125568D01*
X69530Y125568D01*
X70302Y124796D01*
X70318Y124785D01*
X70330Y124769D01*
X70418Y124713D01*
X70501Y124653D01*
X70520Y124647D01*
X70537Y124636D01*
X70638Y124611D01*
X70737Y124580D01*
X70756Y124581D01*
X70776Y124576D01*
X70879Y124584D01*
X70982Y124587D01*
X71001Y124594D01*
X71021Y124595D01*
X71116Y124636D01*
X71213Y124671D01*
X71229Y124684D01*
X71247Y124692D01*
X71378Y124796D01*
X71595Y125013D01*
X74926Y125013D01*
X74997Y125024D01*
X75069Y125026D01*
X75118Y125044D01*
X75169Y125052D01*
X75232Y125086D01*
X75300Y125111D01*
X75340Y125143D01*
X75387Y125168D01*
X75436Y125220D01*
X75492Y125264D01*
X75520Y125308D01*
X75556Y125346D01*
X75586Y125411D01*
X75625Y125471D01*
X75638Y125522D01*
X75660Y125569D01*
X75667Y125640D01*
X75685Y125710D01*
X75681Y125762D01*
X75687Y125813D01*
X75671Y125884D01*
X75666Y125955D01*
X75645Y126003D01*
X75634Y126054D01*
X75598Y126115D01*
X75569Y126181D01*
X75525Y126237D01*
X75508Y126265D01*
X75490Y126280D01*
X75465Y126312D01*
X74076Y127701D01*
X74076Y130617D01*
X76139Y132680D01*
X79055Y132680D01*
X79301Y132434D01*
X79359Y132392D01*
X79411Y132343D01*
X79458Y132321D01*
X79500Y132291D01*
X79569Y132270D01*
X79634Y132239D01*
X79686Y132234D01*
X79736Y132218D01*
X79807Y132220D01*
X79878Y132212D01*
X79929Y132223D01*
X79981Y132225D01*
X80049Y132249D01*
X80119Y132265D01*
X80164Y132291D01*
X80212Y132309D01*
X80268Y132354D01*
X80330Y132391D01*
X80364Y132430D01*
X80404Y132463D01*
X80443Y132523D01*
X80490Y132578D01*
X80509Y132626D01*
X80537Y132670D01*
X80555Y132739D01*
X80582Y132806D01*
X80590Y132877D01*
X80598Y132908D01*
X80596Y132932D01*
X80600Y132973D01*
X80600Y134018D01*
X81345Y134763D01*
X84727Y134763D01*
X84798Y134774D01*
X84870Y134776D01*
X84919Y134794D01*
X84970Y134802D01*
X85033Y134836D01*
X85101Y134861D01*
X85141Y134893D01*
X85187Y134918D01*
X85237Y134970D01*
X85293Y135014D01*
X85321Y135058D01*
X85357Y135096D01*
X85387Y135161D01*
X85426Y135221D01*
X85438Y135272D01*
X85460Y135319D01*
X85468Y135390D01*
X85486Y135460D01*
X85482Y135512D01*
X85487Y135563D01*
X85472Y135634D01*
X85467Y135705D01*
X85446Y135753D01*
X85435Y135804D01*
X85398Y135865D01*
X85370Y135931D01*
X85325Y135987D01*
X85309Y136015D01*
X85291Y136030D01*
X85265Y136062D01*
X82819Y138508D01*
X82745Y138561D01*
X82676Y138621D01*
X82646Y138633D01*
X82620Y138652D01*
X82532Y138679D01*
X82448Y138713D01*
X82407Y138717D01*
X82385Y138724D01*
X82352Y138723D01*
X82281Y138731D01*
X79874Y138731D01*
X79378Y139228D01*
X79282Y139296D01*
X79185Y139367D01*
X79181Y139369D01*
X79178Y139371D01*
X79065Y139406D01*
X78951Y139442D01*
X78947Y139442D01*
X78943Y139443D01*
X78825Y139440D01*
X78705Y139439D01*
X78701Y139437D01*
X78697Y139437D01*
X78586Y139396D01*
X78473Y139357D01*
X78470Y139354D01*
X78466Y139353D01*
X78373Y139278D01*
X78280Y139205D01*
X78277Y139201D01*
X78274Y139199D01*
X78266Y139187D01*
X78180Y139070D01*
X78131Y138984D01*
X77396Y138249D01*
X76497Y137730D01*
X75493Y137461D01*
X75027Y137461D01*
X75027Y142414D01*
X75024Y142433D01*
X75026Y142453D01*
X75004Y142555D01*
X74988Y142657D01*
X74978Y142674D01*
X74974Y142694D01*
X74921Y142783D01*
X74872Y142874D01*
X74858Y142888D01*
X74848Y142905D01*
X74769Y142972D01*
X74741Y142999D01*
X74757Y143008D01*
X74824Y143087D01*
X74896Y143162D01*
X74904Y143180D01*
X74917Y143195D01*
X74956Y143292D01*
X74999Y143385D01*
X75001Y143405D01*
X75009Y143423D01*
X75027Y143590D01*
X75027Y148543D01*
X75493Y148543D01*
X76497Y148274D01*
X77396Y147755D01*
X78131Y147020D01*
X78180Y146934D01*
X78256Y146842D01*
X78330Y146749D01*
X78333Y146747D01*
X78336Y146744D01*
X78436Y146681D01*
X78537Y146616D01*
X78541Y146615D01*
X78544Y146613D01*
X78660Y146585D01*
X78775Y146556D01*
X78779Y146556D01*
X78784Y146556D01*
X78902Y146566D01*
X79021Y146575D01*
X79024Y146577D01*
X79029Y146577D01*
X79137Y146625D01*
X79247Y146672D01*
X79251Y146675D01*
X79254Y146676D01*
X79264Y146685D01*
X79378Y146776D01*
X79874Y147273D01*
X84521Y147273D01*
X84591Y147284D01*
X84663Y147286D01*
X84712Y147304D01*
X84764Y147312D01*
X84827Y147346D01*
X84894Y147371D01*
X84935Y147403D01*
X84981Y147428D01*
X85030Y147480D01*
X85086Y147524D01*
X85114Y147568D01*
X85150Y147606D01*
X85180Y147671D01*
X85219Y147731D01*
X85232Y147782D01*
X85254Y147829D01*
X85262Y147900D01*
X85279Y147970D01*
X85275Y148022D01*
X85281Y148073D01*
X85266Y148144D01*
X85260Y148215D01*
X85240Y148263D01*
X85229Y148314D01*
X85192Y148375D01*
X85164Y148441D01*
X85119Y148497D01*
X85103Y148525D01*
X85085Y148540D01*
X85059Y148572D01*
X83712Y149919D01*
X83712Y152849D01*
X85784Y154921D01*
X88714Y154921D01*
X88950Y154685D01*
X89024Y154632D01*
X89093Y154572D01*
X89124Y154560D01*
X89150Y154541D01*
X89237Y154514D01*
X89322Y154480D01*
X89363Y154476D01*
X89385Y154469D01*
X89417Y154470D01*
X89488Y154462D01*
X92757Y154462D01*
X92776Y154465D01*
X92796Y154463D01*
X92898Y154485D01*
X93000Y154501D01*
X93017Y154511D01*
X93037Y154515D01*
X93126Y154568D01*
X93217Y154617D01*
X93231Y154631D01*
X93248Y154641D01*
X93315Y154720D01*
X93342Y154748D01*
X93351Y154732D01*
X93430Y154665D01*
X93505Y154593D01*
X93523Y154585D01*
X93538Y154572D01*
X93635Y154533D01*
X93728Y154490D01*
X93748Y154488D01*
X93766Y154480D01*
X93933Y154462D01*
X98886Y154462D01*
X98886Y153996D01*
X98617Y152992D01*
X98098Y152093D01*
X97363Y151358D01*
X97277Y151309D01*
X97185Y151233D01*
X97092Y151159D01*
X97090Y151156D01*
X97087Y151153D01*
X97024Y151053D01*
X96959Y150952D01*
X96958Y150948D01*
X96956Y150945D01*
X96928Y150829D01*
X96899Y150714D01*
X96899Y150710D01*
X96899Y150705D01*
X96909Y150587D01*
X96918Y150468D01*
X96920Y150465D01*
X96920Y150460D01*
X96968Y150352D01*
X97015Y150242D01*
X97018Y150238D01*
X97019Y150235D01*
X97028Y150225D01*
X97119Y150111D01*
X97616Y149615D01*
X97616Y144807D01*
X96363Y143554D01*
X96310Y143480D01*
X96250Y143411D01*
X96238Y143380D01*
X96219Y143354D01*
X96192Y143267D01*
X96158Y143182D01*
X96154Y143142D01*
X96147Y143119D01*
X96148Y143087D01*
X96140Y143016D01*
X96140Y141696D01*
X96143Y141676D01*
X96141Y141657D01*
X96163Y141555D01*
X96179Y141453D01*
X96189Y141436D01*
X96193Y141416D01*
X96246Y141327D01*
X96295Y141236D01*
X96309Y141222D01*
X96319Y141205D01*
X96398Y141138D01*
X96473Y141066D01*
X96491Y141058D01*
X96506Y141045D01*
X96602Y141006D01*
X96696Y140963D01*
X96716Y140961D01*
X96734Y140953D01*
X96901Y140935D01*
X99350Y140935D01*
X99370Y140938D01*
X99389Y140936D01*
X99491Y140958D01*
X99593Y140974D01*
X99610Y140984D01*
X99630Y140988D01*
X99719Y141041D01*
X99810Y141090D01*
X99824Y141104D01*
X99841Y141114D01*
X99908Y141193D01*
X99980Y141268D01*
X99988Y141286D01*
X100001Y141301D01*
X100040Y141397D01*
X100083Y141491D01*
X100085Y141511D01*
X100093Y141529D01*
X100111Y141696D01*
X100111Y141920D01*
X102174Y143983D01*
X105090Y143983D01*
X107153Y141920D01*
X107153Y141315D01*
X107156Y141295D01*
X107154Y141276D01*
X107176Y141174D01*
X107192Y141072D01*
X107202Y141055D01*
X107206Y141035D01*
X107259Y140946D01*
X107308Y140855D01*
X107322Y140841D01*
X107332Y140824D01*
X107411Y140757D01*
X107486Y140685D01*
X107504Y140677D01*
X107519Y140664D01*
X107615Y140625D01*
X107709Y140582D01*
X107729Y140580D01*
X107747Y140572D01*
X107914Y140554D01*
X109256Y140554D01*
X109276Y140557D01*
X109295Y140555D01*
X109397Y140577D01*
X109499Y140593D01*
X109516Y140603D01*
X109536Y140607D01*
X109625Y140660D01*
X109716Y140709D01*
X109730Y140723D01*
X109747Y140733D01*
X109814Y140812D01*
X109886Y140887D01*
X109894Y140905D01*
X109907Y140920D01*
X109946Y141016D01*
X109989Y141110D01*
X109991Y141130D01*
X109999Y141148D01*
X110017Y141315D01*
X110017Y142301D01*
X112080Y144364D01*
X114996Y144364D01*
X117059Y142301D01*
X117059Y141442D01*
X117062Y141422D01*
X117060Y141403D01*
X117082Y141301D01*
X117098Y141199D01*
X117108Y141182D01*
X117112Y141162D01*
X117165Y141073D01*
X117214Y140982D01*
X117228Y140968D01*
X117238Y140951D01*
X117317Y140884D01*
X117392Y140812D01*
X117410Y140804D01*
X117425Y140791D01*
X117521Y140752D01*
X117615Y140709D01*
X117635Y140707D01*
X117653Y140699D01*
X117820Y140681D01*
X119035Y140681D01*
X119055Y140684D01*
X119074Y140682D01*
X119176Y140704D01*
X119278Y140720D01*
X119295Y140730D01*
X119315Y140734D01*
X119404Y140787D01*
X119495Y140836D01*
X119509Y140850D01*
X119526Y140860D01*
X119593Y140939D01*
X119665Y141014D01*
X119673Y141032D01*
X119686Y141047D01*
X119725Y141143D01*
X119768Y141237D01*
X119770Y141257D01*
X119778Y141275D01*
X119796Y141442D01*
X119796Y142174D01*
X121859Y144237D01*
X124775Y144237D01*
X126838Y142174D01*
X126838Y141696D01*
X126841Y141676D01*
X126839Y141657D01*
X126861Y141555D01*
X126877Y141453D01*
X126887Y141436D01*
X126891Y141416D01*
X126944Y141327D01*
X126993Y141236D01*
X127007Y141222D01*
X127017Y141205D01*
X127096Y141138D01*
X127171Y141066D01*
X127189Y141058D01*
X127204Y141045D01*
X127300Y141006D01*
X127394Y140963D01*
X127414Y140961D01*
X127432Y140953D01*
X127599Y140935D01*
X129925Y140935D01*
X130015Y140949D01*
X130106Y140957D01*
X130136Y140969D01*
X130168Y140974D01*
X130249Y141017D01*
X130333Y141053D01*
X130365Y141079D01*
X130385Y141090D01*
X130408Y141113D01*
X130464Y141158D01*
X132273Y142967D01*
X133271Y142967D01*
X133291Y142970D01*
X133310Y142968D01*
X133412Y142990D01*
X133514Y143006D01*
X133531Y143016D01*
X133551Y143020D01*
X133640Y143073D01*
X133731Y143122D01*
X133745Y143136D01*
X133762Y143146D01*
X133829Y143225D01*
X133901Y143300D01*
X133909Y143318D01*
X133922Y143333D01*
X133961Y143429D01*
X134004Y143523D01*
X134006Y143543D01*
X134014Y143561D01*
X134032Y143728D01*
X134032Y148345D01*
X134529Y148841D01*
X134597Y148937D01*
X134668Y149034D01*
X134670Y149038D01*
X134672Y149041D01*
X134707Y149154D01*
X134743Y149268D01*
X134743Y149272D01*
X134744Y149276D01*
X134741Y149394D01*
X134740Y149514D01*
X134738Y149518D01*
X134738Y149522D01*
X134697Y149633D01*
X134658Y149746D01*
X134655Y149749D01*
X134654Y149753D01*
X134579Y149846D01*
X134506Y149939D01*
X134502Y149942D01*
X134500Y149945D01*
X134488Y149952D01*
X134371Y150039D01*
X134285Y150088D01*
X133550Y150823D01*
X133031Y151722D01*
X132762Y152726D01*
X132762Y153192D01*
X137715Y153192D01*
X137734Y153195D01*
X137754Y153193D01*
X137856Y153215D01*
X137958Y153231D01*
X137975Y153241D01*
X137995Y153245D01*
X138084Y153298D01*
X138175Y153347D01*
X138189Y153361D01*
X138206Y153371D01*
X138273Y153450D01*
X138300Y153478D01*
X138309Y153462D01*
X138388Y153395D01*
X138463Y153323D01*
X138481Y153315D01*
X138496Y153302D01*
X138593Y153263D01*
X138686Y153220D01*
X138706Y153218D01*
X138724Y153210D01*
X138891Y153192D01*
X143844Y153192D01*
X143844Y152726D01*
X143575Y151722D01*
X143056Y150823D01*
X142321Y150088D01*
X142235Y150039D01*
X142143Y149963D01*
X142050Y149889D01*
X142048Y149886D01*
X142045Y149883D01*
X141982Y149783D01*
X141917Y149682D01*
X141916Y149678D01*
X141914Y149675D01*
X141886Y149558D01*
X141857Y149444D01*
X141857Y149440D01*
X141857Y149435D01*
X141867Y149317D01*
X141876Y149198D01*
X141878Y149195D01*
X141878Y149190D01*
X141926Y149082D01*
X141973Y148972D01*
X141976Y148968D01*
X141977Y148965D01*
X141986Y148955D01*
X142077Y148841D01*
X142574Y148345D01*
X142574Y146656D01*
X142588Y146566D01*
X142596Y146475D01*
X142608Y146446D01*
X142613Y146414D01*
X142656Y146333D01*
X142692Y146249D01*
X142718Y146217D01*
X142729Y146196D01*
X142752Y146174D01*
X142797Y146118D01*
X144566Y144349D01*
X144640Y144296D01*
X144709Y144236D01*
X144740Y144224D01*
X144766Y144205D01*
X144853Y144178D01*
X144938Y144144D01*
X144979Y144140D01*
X145001Y144133D01*
X145033Y144134D01*
X145104Y144126D01*
X145356Y144126D01*
X147428Y142054D01*
X147428Y139124D01*
X145356Y137052D01*
X142331Y137052D01*
X142311Y137049D01*
X142292Y137051D01*
X142190Y137029D01*
X142088Y137013D01*
X142071Y137003D01*
X142051Y136999D01*
X141962Y136946D01*
X141871Y136897D01*
X141857Y136883D01*
X141840Y136873D01*
X141773Y136794D01*
X141701Y136719D01*
X141693Y136701D01*
X141680Y136686D01*
X141641Y136590D01*
X141598Y136496D01*
X141596Y136476D01*
X141588Y136458D01*
X141570Y136291D01*
X141570Y136199D01*
X141389Y136018D01*
X141336Y135944D01*
X141276Y135875D01*
X141264Y135844D01*
X141245Y135818D01*
X141218Y135731D01*
X141184Y135646D01*
X141180Y135606D01*
X141173Y135583D01*
X141174Y135551D01*
X141166Y135480D01*
X141166Y127926D01*
X141160Y127912D01*
X141156Y127871D01*
X141149Y127849D01*
X141150Y127817D01*
X141142Y127745D01*
X141142Y125774D01*
X141145Y125754D01*
X141143Y125735D01*
X141165Y125633D01*
X141181Y125531D01*
X141191Y125514D01*
X141195Y125494D01*
X141248Y125405D01*
X141297Y125314D01*
X141311Y125300D01*
X141321Y125283D01*
X141400Y125216D01*
X141475Y125144D01*
X141493Y125136D01*
X141508Y125123D01*
X141604Y125084D01*
X141698Y125041D01*
X141718Y125039D01*
X141736Y125031D01*
X141903Y125013D01*
X149817Y125013D01*
X149907Y125027D01*
X149998Y125035D01*
X150028Y125047D01*
X150060Y125052D01*
X150141Y125095D01*
X150225Y125131D01*
X150257Y125157D01*
X150277Y125168D01*
X150300Y125191D01*
X150356Y125236D01*
X152212Y127092D01*
X152908Y127092D01*
X152928Y127095D01*
X152947Y127093D01*
X153049Y127115D01*
X153151Y127131D01*
X153168Y127141D01*
X153188Y127145D01*
X153277Y127198D01*
X153368Y127247D01*
X153382Y127261D01*
X153399Y127271D01*
X153466Y127350D01*
X153538Y127425D01*
X153546Y127443D01*
X153559Y127458D01*
X153598Y127554D01*
X153641Y127648D01*
X153643Y127668D01*
X153651Y127686D01*
X153669Y127853D01*
X153669Y128792D01*
X153655Y128882D01*
X153647Y128973D01*
X153635Y129003D01*
X153630Y129035D01*
X153587Y129115D01*
X153551Y129199D01*
X153525Y129231D01*
X153514Y129252D01*
X153491Y129274D01*
X153446Y129330D01*
X151749Y131027D01*
X151749Y136435D01*
X153096Y137782D01*
X153138Y137840D01*
X153187Y137892D01*
X153209Y137939D01*
X153240Y137981D01*
X153261Y138050D01*
X153291Y138115D01*
X153297Y138167D01*
X153312Y138217D01*
X153310Y138288D01*
X153318Y138359D01*
X153307Y138410D01*
X153306Y138462D01*
X153281Y138530D01*
X153266Y138600D01*
X153239Y138645D01*
X153221Y138693D01*
X153176Y138749D01*
X153140Y138811D01*
X153100Y138845D01*
X153067Y138885D01*
X153007Y138924D01*
X152953Y138971D01*
X152904Y138990D01*
X152861Y139018D01*
X152791Y139036D01*
X152725Y139063D01*
X152653Y139071D01*
X152622Y139079D01*
X152599Y139077D01*
X152558Y139081D01*
X151011Y139081D01*
X150266Y139826D01*
X150266Y158878D01*
X151011Y159623D01*
X162063Y159623D01*
X162839Y158847D01*
X162913Y158794D01*
X162983Y158734D01*
X163013Y158722D01*
X163039Y158703D01*
X163126Y158676D01*
X163211Y158642D01*
X163252Y158638D01*
X163274Y158631D01*
X163306Y158632D01*
X163378Y158624D01*
X174696Y158624D01*
X174786Y158638D01*
X174877Y158646D01*
X174907Y158658D01*
X174939Y158663D01*
X175020Y158706D01*
X175104Y158742D01*
X175136Y158768D01*
X175156Y158779D01*
X175179Y158802D01*
X175235Y158847D01*
X176011Y159623D01*
X187063Y159623D01*
X187808Y158878D01*
X187808Y139826D01*
X187063Y139081D01*
X185389Y139081D01*
X185318Y139070D01*
X185247Y139068D01*
X185198Y139050D01*
X185146Y139042D01*
X185083Y139008D01*
X185016Y138983D01*
X184975Y138951D01*
X184929Y138926D01*
X184880Y138874D01*
X184824Y138830D01*
X184796Y138786D01*
X184760Y138748D01*
X184729Y138683D01*
X184691Y138623D01*
X184678Y138572D01*
X184656Y138525D01*
X184648Y138454D01*
X184631Y138384D01*
X184635Y138332D01*
X184629Y138281D01*
X184644Y138210D01*
X184650Y138139D01*
X184670Y138091D01*
X184681Y138040D01*
X184718Y137979D01*
X184746Y137913D01*
X184791Y137857D01*
X184807Y137829D01*
X184825Y137814D01*
X184851Y137782D01*
X186198Y136435D01*
X186198Y131027D01*
X184483Y129312D01*
X184430Y129238D01*
X184370Y129169D01*
X184358Y129138D01*
X184339Y129112D01*
X184312Y129025D01*
X184278Y128940D01*
X184274Y128900D01*
X184267Y128877D01*
X184268Y128845D01*
X184260Y128774D01*
X184260Y128680D01*
X179150Y123570D01*
X171210Y123570D01*
X171120Y123556D01*
X171029Y123548D01*
X171000Y123536D01*
X170968Y123531D01*
X170887Y123488D01*
X170803Y123452D01*
X170771Y123426D01*
X170750Y123415D01*
X170728Y123392D01*
X170672Y123347D01*
X166086Y118761D01*
X166033Y118687D01*
X165973Y118618D01*
X165961Y118587D01*
X165942Y118561D01*
X165915Y118474D01*
X165881Y118389D01*
X165877Y118348D01*
X165870Y118326D01*
X165871Y118294D01*
X165863Y118223D01*
X165863Y89995D01*
X165866Y89975D01*
X165864Y89956D01*
X165886Y89854D01*
X165902Y89752D01*
X165912Y89735D01*
X165916Y89715D01*
X165969Y89626D01*
X166018Y89535D01*
X166032Y89521D01*
X166042Y89504D01*
X166121Y89437D01*
X166196Y89365D01*
X166214Y89357D01*
X166229Y89344D01*
X166325Y89305D01*
X166419Y89262D01*
X166439Y89260D01*
X166457Y89252D01*
X166624Y89234D01*
X171090Y89234D01*
X171577Y88747D01*
X171674Y88677D01*
X171769Y88607D01*
X171773Y88605D01*
X171776Y88603D01*
X171889Y88568D01*
X172003Y88532D01*
X172008Y88532D01*
X172011Y88531D01*
X172130Y88534D01*
X172249Y88536D01*
X172253Y88537D01*
X172257Y88537D01*
X172369Y88578D01*
X172481Y88617D01*
X172484Y88620D01*
X172488Y88621D01*
X172582Y88696D01*
X172675Y88769D01*
X172678Y88773D01*
X172680Y88775D01*
X172688Y88787D01*
X172774Y88904D01*
X172831Y89002D01*
X173555Y89726D01*
X174442Y90239D01*
X175432Y90504D01*
X175945Y90504D01*
X175945Y85551D01*
X175948Y85532D01*
X175946Y85512D01*
X175968Y85410D01*
X175984Y85308D01*
X175994Y85291D01*
X175998Y85271D01*
X176051Y85182D01*
X176100Y85091D01*
X176114Y85077D01*
X176124Y85060D01*
X176203Y84993D01*
X176278Y84922D01*
X176296Y84913D01*
X176311Y84900D01*
X176407Y84862D01*
X176501Y84818D01*
X176521Y84816D01*
X176539Y84808D01*
X176706Y84790D01*
X177121Y84790D01*
X177121Y84375D01*
X177124Y84355D01*
X177122Y84335D01*
X177144Y84234D01*
X177161Y84132D01*
X177170Y84115D01*
X177174Y84095D01*
X177227Y84006D01*
X177276Y83915D01*
X177290Y83901D01*
X177300Y83884D01*
X177379Y83817D01*
X177454Y83745D01*
X177472Y83737D01*
X177487Y83724D01*
X177584Y83685D01*
X177677Y83642D01*
X177697Y83640D01*
X177715Y83632D01*
X177882Y83614D01*
X182535Y83614D01*
X182535Y82801D01*
X182270Y81811D01*
X181757Y80924D01*
X181033Y80200D01*
X180191Y79713D01*
X180099Y79638D01*
X180006Y79564D01*
X180004Y79560D01*
X180001Y79558D01*
X179938Y79458D01*
X179873Y79357D01*
X179872Y79353D01*
X179870Y79349D01*
X179842Y79234D01*
X179813Y79118D01*
X179813Y79114D01*
X179812Y79110D01*
X179823Y78991D01*
X179832Y78873D01*
X179834Y78869D01*
X179834Y78865D01*
X179882Y78755D01*
X179928Y78647D01*
X179932Y78643D01*
X179933Y78640D01*
X179942Y78630D01*
X180033Y78516D01*
X181138Y77412D01*
X181138Y76166D01*
X181150Y76088D01*
X181154Y76010D01*
X181170Y75968D01*
X181177Y75923D01*
X181214Y75854D01*
X181243Y75780D01*
X181271Y75746D01*
X181293Y75706D01*
X181350Y75652D01*
X181400Y75591D01*
X181449Y75557D01*
X181471Y75537D01*
X181496Y75525D01*
X181538Y75496D01*
X184865Y73704D01*
X184963Y73670D01*
X185059Y73631D01*
X185083Y73629D01*
X185097Y73624D01*
X185129Y73623D01*
X185226Y73613D01*
X189505Y73613D01*
X190851Y72267D01*
X190867Y72255D01*
X190879Y72239D01*
X190966Y72183D01*
X191050Y72123D01*
X191070Y72117D01*
X191086Y72106D01*
X191186Y72081D01*
X191286Y72051D01*
X191305Y72051D01*
X191325Y72046D01*
X191428Y72054D01*
X191531Y72057D01*
X191550Y72064D01*
X191570Y72065D01*
X191665Y72106D01*
X191762Y72141D01*
X191778Y72154D01*
X191796Y72162D01*
X191927Y72267D01*
X192435Y72775D01*
X192481Y72839D01*
X192500Y72859D01*
X192504Y72867D01*
X192548Y72918D01*
X192560Y72948D01*
X192579Y72974D01*
X192606Y73061D01*
X192640Y73146D01*
X192644Y73187D01*
X192651Y73209D01*
X192650Y73242D01*
X192658Y73313D01*
X192658Y75146D01*
X192644Y75236D01*
X192636Y75327D01*
X192624Y75357D01*
X192619Y75389D01*
X192576Y75470D01*
X192540Y75554D01*
X192514Y75586D01*
X192503Y75606D01*
X192480Y75628D01*
X192435Y75684D01*
X191182Y76937D01*
X191182Y81809D01*
X192528Y83155D01*
X192540Y83171D01*
X192556Y83183D01*
X192612Y83271D01*
X192672Y83354D01*
X192678Y83373D01*
X192689Y83390D01*
X192714Y83491D01*
X192744Y83590D01*
X192744Y83609D01*
X192749Y83629D01*
X192741Y83732D01*
X192738Y83835D01*
X192731Y83854D01*
X192730Y83874D01*
X192689Y83969D01*
X192654Y84066D01*
X192641Y84082D01*
X192633Y84100D01*
X192528Y84231D01*
X191182Y85577D01*
X191182Y90449D01*
X192435Y91702D01*
X192488Y91776D01*
X192548Y91845D01*
X192560Y91875D01*
X192579Y91901D01*
X192606Y91988D01*
X192640Y92073D01*
X192644Y92114D01*
X192651Y92136D01*
X192650Y92169D01*
X192658Y92240D01*
X192658Y93815D01*
X192644Y93905D01*
X192636Y93996D01*
X192624Y94026D01*
X192619Y94058D01*
X192576Y94139D01*
X192540Y94222D01*
X192514Y94255D01*
X192503Y94275D01*
X192480Y94297D01*
X192455Y94329D01*
X192453Y94331D01*
X192452Y94333D01*
X192435Y94353D01*
X191309Y95479D01*
X191309Y100351D01*
X192655Y101697D01*
X192667Y101713D01*
X192683Y101725D01*
X192713Y101773D01*
X192726Y101786D01*
X192737Y101809D01*
X192739Y101813D01*
X192799Y101896D01*
X192805Y101915D01*
X192816Y101932D01*
X192841Y102033D01*
X192871Y102132D01*
X192871Y102151D01*
X192876Y102171D01*
X192868Y102274D01*
X192865Y102377D01*
X192858Y102396D01*
X192857Y102416D01*
X192816Y102511D01*
X192781Y102608D01*
X192768Y102624D01*
X192760Y102642D01*
X192655Y102773D01*
X191309Y104119D01*
X191309Y108991D01*
X192562Y110244D01*
X192615Y110318D01*
X192675Y110387D01*
X192687Y110417D01*
X192706Y110443D01*
X192733Y110530D01*
X192767Y110615D01*
X192771Y110656D01*
X192778Y110678D01*
X192777Y110711D01*
X192785Y110782D01*
X192785Y112877D01*
X192782Y112894D01*
X192784Y112911D01*
X192773Y112964D01*
X192771Y113026D01*
X192753Y113071D01*
X192746Y113120D01*
X192734Y113141D01*
X192732Y113152D01*
X192709Y113190D01*
X192684Y113256D01*
X192645Y113309D01*
X192630Y113337D01*
X192612Y113354D01*
X192585Y113391D01*
X191429Y114653D01*
X191524Y116822D01*
X195115Y120113D01*
X197017Y120030D01*
X197037Y120032D01*
X197057Y120029D01*
X197159Y120046D01*
X197262Y120059D01*
X197280Y120067D01*
X197299Y120071D01*
X197390Y120120D01*
X197484Y120164D01*
X197498Y120178D01*
X197516Y120187D01*
X197586Y120263D01*
X197661Y120335D01*
X197670Y120353D01*
X197684Y120367D01*
X197726Y120461D01*
X197774Y120553D01*
X197777Y120573D01*
X197785Y120591D01*
X197811Y120757D01*
X197894Y122659D01*
X201485Y125950D01*
X202313Y125914D01*
X202420Y125926D01*
X202527Y125935D01*
X202542Y125941D01*
X202557Y125943D01*
X202655Y125989D01*
X202754Y126031D01*
X202768Y126043D01*
X202779Y126048D01*
X202801Y126069D01*
X202884Y126136D01*
X205019Y128271D01*
X206756Y128271D01*
X206846Y128285D01*
X206937Y128293D01*
X206967Y128305D01*
X206999Y128310D01*
X207080Y128353D01*
X207164Y128389D01*
X207196Y128415D01*
X207216Y128426D01*
X207239Y128449D01*
X207295Y128494D01*
X207540Y128739D01*
X211859Y128739D01*
X211879Y128742D01*
X211898Y128740D01*
X212000Y128762D01*
X212102Y128778D01*
X212119Y128788D01*
X212139Y128792D01*
X212228Y128845D01*
X212319Y128894D01*
X212333Y128908D01*
X212350Y128918D01*
X212417Y128997D01*
X212489Y129072D01*
X212497Y129090D01*
X212510Y129105D01*
X212549Y129201D01*
X212592Y129295D01*
X212594Y129315D01*
X212602Y129333D01*
X212620Y129500D01*
X212620Y138557D01*
X212617Y138577D01*
X212619Y138596D01*
X212597Y138698D01*
X212581Y138800D01*
X212571Y138817D01*
X212567Y138837D01*
X212514Y138926D01*
X212465Y139017D01*
X212451Y139031D01*
X212441Y139048D01*
X212362Y139115D01*
X212287Y139187D01*
X212269Y139195D01*
X212254Y139208D01*
X212158Y139247D01*
X212064Y139290D01*
X212044Y139292D01*
X212026Y139300D01*
X211859Y139318D01*
X206217Y139318D01*
X205993Y139542D01*
X205993Y152177D01*
X206217Y152401D01*
X211859Y152401D01*
X211879Y152404D01*
X211898Y152402D01*
X212000Y152424D01*
X212102Y152440D01*
X212119Y152450D01*
X212139Y152454D01*
X212228Y152507D01*
X212319Y152556D01*
X212333Y152570D01*
X212350Y152580D01*
X212417Y152659D01*
X212489Y152734D01*
X212497Y152752D01*
X212510Y152767D01*
X212549Y152863D01*
X212592Y152957D01*
X212594Y152977D01*
X212602Y152995D01*
X212620Y153162D01*
X212620Y166675D01*
X212617Y166695D01*
X212619Y166714D01*
X212597Y166816D01*
X212581Y166918D01*
X212571Y166935D01*
X212567Y166955D01*
X212514Y167044D01*
X212465Y167135D01*
X212451Y167149D01*
X212441Y167166D01*
X212362Y167233D01*
X212287Y167305D01*
X212269Y167313D01*
X212254Y167326D01*
X212158Y167365D01*
X212064Y167408D01*
X212044Y167410D01*
X212026Y167418D01*
X211859Y167436D01*
X170764Y167436D01*
X170650Y167417D01*
X170533Y167400D01*
X170528Y167398D01*
X170522Y167397D01*
X170419Y167342D01*
X170314Y167289D01*
X170310Y167284D01*
X170304Y167281D01*
X170224Y167197D01*
X170142Y167113D01*
X170138Y167107D01*
X170135Y167103D01*
X170127Y167086D01*
X170061Y166966D01*
X169231Y164962D01*
X167397Y163128D01*
X165000Y162135D01*
X162406Y162135D01*
X160009Y163128D01*
X158175Y164962D01*
X158056Y165249D01*
X158019Y165310D01*
X157989Y165375D01*
X157954Y165414D01*
X157927Y165458D01*
X157872Y165504D01*
X157823Y165556D01*
X157777Y165582D01*
X157737Y165615D01*
X157670Y165640D01*
X157607Y165675D01*
X157556Y165684D01*
X157508Y165703D01*
X157436Y165706D01*
X157365Y165719D01*
X157314Y165711D01*
X157262Y165713D01*
X157193Y165693D01*
X157122Y165683D01*
X157076Y165659D01*
X157026Y165645D01*
X156967Y165604D01*
X156903Y165571D01*
X156866Y165534D01*
X156824Y165505D01*
X156781Y165447D01*
X156731Y165396D01*
X156696Y165333D01*
X156677Y165307D01*
X156670Y165285D01*
X156650Y165249D01*
X156531Y164962D01*
X154697Y163128D01*
X152300Y162135D01*
X149706Y162135D01*
X147309Y163128D01*
X145475Y164962D01*
X145356Y165249D01*
X145319Y165310D01*
X145289Y165375D01*
X145254Y165414D01*
X145227Y165458D01*
X145172Y165504D01*
X145123Y165556D01*
X145077Y165582D01*
X145037Y165615D01*
X144970Y165640D01*
X144907Y165675D01*
X144856Y165684D01*
X144808Y165703D01*
X144736Y165706D01*
X144665Y165719D01*
X144614Y165711D01*
X144562Y165713D01*
X144493Y165693D01*
X144422Y165683D01*
X144376Y165659D01*
X144326Y165645D01*
X144267Y165604D01*
X144203Y165571D01*
X144166Y165534D01*
X144124Y165505D01*
X144081Y165447D01*
X144031Y165396D01*
X143996Y165333D01*
X143977Y165307D01*
X143970Y165285D01*
X143950Y165249D01*
X143831Y164962D01*
X141997Y163128D01*
X139600Y162135D01*
X137006Y162135D01*
X134609Y163128D01*
X132775Y164962D01*
X132656Y165249D01*
X132619Y165310D01*
X132589Y165375D01*
X132554Y165414D01*
X132527Y165458D01*
X132472Y165504D01*
X132423Y165556D01*
X132377Y165582D01*
X132337Y165615D01*
X132270Y165640D01*
X132207Y165675D01*
X132156Y165684D01*
X132108Y165703D01*
X132036Y165706D01*
X131965Y165719D01*
X131914Y165711D01*
X131862Y165713D01*
X131793Y165693D01*
X131722Y165683D01*
X131676Y165659D01*
X131626Y165645D01*
X131567Y165604D01*
X131503Y165571D01*
X131466Y165534D01*
X131424Y165505D01*
X131381Y165447D01*
X131331Y165396D01*
X131296Y165333D01*
X131277Y165307D01*
X131270Y165285D01*
X131250Y165249D01*
X131131Y164962D01*
X129297Y163128D01*
X126900Y162135D01*
X124306Y162135D01*
X121909Y163128D01*
X120075Y164962D01*
X119956Y165249D01*
X119919Y165310D01*
X119889Y165375D01*
X119854Y165414D01*
X119827Y165458D01*
X119772Y165504D01*
X119723Y165556D01*
X119677Y165582D01*
X119637Y165615D01*
X119570Y165640D01*
X119507Y165675D01*
X119456Y165684D01*
X119408Y165703D01*
X119336Y165706D01*
X119265Y165719D01*
X119214Y165711D01*
X119162Y165713D01*
X119093Y165693D01*
X119022Y165683D01*
X118976Y165659D01*
X118926Y165645D01*
X118867Y165604D01*
X118803Y165571D01*
X118766Y165534D01*
X118724Y165505D01*
X118681Y165447D01*
X118631Y165396D01*
X118596Y165333D01*
X118577Y165307D01*
X118570Y165285D01*
X118550Y165249D01*
X118431Y164962D01*
X116597Y163128D01*
X114200Y162135D01*
X111606Y162135D01*
X109209Y163128D01*
X107375Y164962D01*
X107256Y165249D01*
X107219Y165310D01*
X107189Y165375D01*
X107154Y165414D01*
X107127Y165458D01*
X107072Y165504D01*
X107023Y165556D01*
X106977Y165582D01*
X106937Y165615D01*
X106870Y165640D01*
X106807Y165675D01*
X106756Y165684D01*
X106708Y165703D01*
X106636Y165706D01*
X106565Y165719D01*
X106514Y165711D01*
X106462Y165713D01*
X106393Y165693D01*
X106322Y165683D01*
X106276Y165659D01*
X106226Y165645D01*
X106167Y165604D01*
X106103Y165571D01*
X106066Y165534D01*
X106024Y165505D01*
X105981Y165447D01*
X105931Y165396D01*
X105896Y165333D01*
X105877Y165307D01*
X105870Y165285D01*
X105850Y165249D01*
X105731Y164962D01*
X103897Y163128D01*
X101500Y162135D01*
X98906Y162135D01*
X97715Y162629D01*
X97601Y162655D01*
X97488Y162684D01*
X97482Y162683D01*
X97475Y162685D01*
X97359Y162674D01*
X97243Y162665D01*
X97237Y162662D01*
X97231Y162662D01*
X97123Y162614D01*
X97016Y162568D01*
X97010Y162564D01*
X97006Y162562D01*
X96992Y162549D01*
X96885Y162464D01*
X96367Y161945D01*
X96299Y161850D01*
X96227Y161753D01*
X96226Y161749D01*
X96223Y161745D01*
X96189Y161633D01*
X96152Y161519D01*
X96152Y161514D01*
X96151Y161510D01*
X96154Y161392D01*
X96156Y161273D01*
X96157Y161269D01*
X96157Y161264D01*
X96198Y161152D01*
X96238Y161041D01*
X96240Y161037D01*
X96242Y161033D01*
X96318Y160938D01*
X96389Y160847D01*
X96393Y160844D01*
X96396Y160841D01*
X96407Y160834D01*
X96525Y160748D01*
X97363Y160264D01*
X98098Y159529D01*
X98617Y158630D01*
X98886Y157626D01*
X98886Y157160D01*
X93933Y157160D01*
X93914Y157157D01*
X93894Y157159D01*
X93792Y157137D01*
X93690Y157121D01*
X93673Y157111D01*
X93653Y157107D01*
X93564Y157054D01*
X93473Y157005D01*
X93459Y156991D01*
X93442Y156981D01*
X93375Y156902D01*
X93348Y156874D01*
X93339Y156890D01*
X93260Y156957D01*
X93185Y157029D01*
X93167Y157037D01*
X93152Y157050D01*
X93055Y157089D01*
X92962Y157132D01*
X92942Y157134D01*
X92924Y157142D01*
X92757Y157160D01*
X87804Y157160D01*
X87804Y157626D01*
X87916Y158045D01*
X87928Y158164D01*
X87941Y158281D01*
X87940Y158286D01*
X87941Y158290D01*
X87914Y158405D01*
X87889Y158522D01*
X87887Y158525D01*
X87886Y158529D01*
X87824Y158631D01*
X87763Y158733D01*
X87760Y158736D01*
X87758Y158739D01*
X87667Y158815D01*
X87576Y158893D01*
X87572Y158894D01*
X87569Y158897D01*
X87460Y158940D01*
X87348Y158985D01*
X87343Y158985D01*
X87340Y158987D01*
X87326Y158987D01*
X87181Y159003D01*
X25541Y159003D01*
X25451Y158989D01*
X25360Y158981D01*
X25331Y158969D01*
X25299Y158964D01*
X25218Y158921D01*
X25134Y158885D01*
X25102Y158859D01*
X25081Y158848D01*
X25059Y158825D01*
X25003Y158780D01*
X18639Y152416D01*
X18586Y152342D01*
X18526Y152273D01*
X18514Y152242D01*
X18495Y152216D01*
X18468Y152129D01*
X18434Y152044D01*
X18430Y152003D01*
X18423Y151981D01*
X18424Y151949D01*
X18416Y151878D01*
X18416Y46274D01*
X18419Y46254D01*
X18417Y46235D01*
X18439Y46133D01*
X18455Y46031D01*
X18465Y46014D01*
X18469Y45994D01*
X18522Y45905D01*
X18571Y45814D01*
X18585Y45800D01*
X18595Y45783D01*
X18674Y45716D01*
X18749Y45644D01*
X18767Y45636D01*
X18782Y45623D01*
X18878Y45584D01*
X18972Y45541D01*
X18992Y45539D01*
X19010Y45531D01*
X19177Y45513D01*
X20848Y45513D01*
X21593Y44768D01*
X21593Y42036D01*
X21596Y42016D01*
X21594Y41997D01*
X21616Y41895D01*
X21632Y41793D01*
X21642Y41776D01*
X21646Y41756D01*
X21699Y41667D01*
X21748Y41576D01*
X21762Y41562D01*
X21772Y41545D01*
X21851Y41478D01*
X21926Y41406D01*
X21944Y41398D01*
X21959Y41385D01*
X22055Y41346D01*
X22149Y41303D01*
X22169Y41301D01*
X22187Y41293D01*
X22354Y41275D01*
X35418Y41275D01*
X35508Y41289D01*
X35599Y41297D01*
X35629Y41309D01*
X35660Y41314D01*
X35741Y41357D01*
X35825Y41393D01*
X35837Y41403D01*
X37573Y41403D01*
X37593Y41385D01*
X37623Y41373D01*
X37650Y41354D01*
X37737Y41327D01*
X37822Y41293D01*
X37862Y41289D01*
X37885Y41282D01*
X37917Y41283D01*
X37988Y41275D01*
X50290Y41275D01*
X50310Y41278D01*
X50329Y41276D01*
X50431Y41298D01*
X50533Y41314D01*
X50550Y41324D01*
X50570Y41328D01*
X50659Y41381D01*
X50750Y41430D01*
X50764Y41444D01*
X50781Y41454D01*
X50848Y41533D01*
X50920Y41608D01*
X50928Y41626D01*
X50941Y41641D01*
X50980Y41737D01*
X51023Y41831D01*
X51025Y41851D01*
X51033Y41869D01*
X51051Y42036D01*
X51051Y44768D01*
X51796Y45513D01*
X61848Y45513D01*
X62593Y44768D01*
X62593Y37561D01*
X62600Y37513D01*
X62599Y37465D01*
X62620Y37393D01*
X62632Y37318D01*
X62655Y37275D01*
X62669Y37229D01*
X62712Y37167D01*
X62748Y37101D01*
X62782Y37067D01*
X62810Y37028D01*
X62871Y36983D01*
X62926Y36931D01*
X62970Y36911D01*
X63008Y36883D01*
X63080Y36859D01*
X63149Y36828D01*
X63197Y36822D01*
X63242Y36808D01*
X63318Y36809D01*
X63393Y36800D01*
X63440Y36811D01*
G37*
G36*
X187279Y3271D02*
X187279Y3271D01*
X187397Y3289D01*
X187401Y3291D01*
X187405Y3291D01*
X187510Y3347D01*
X187616Y3402D01*
X187619Y3405D01*
X187623Y3407D01*
X187704Y3492D01*
X187787Y3578D01*
X187789Y3582D01*
X187792Y3585D01*
X187842Y3692D01*
X187893Y3800D01*
X187894Y3804D01*
X187896Y3808D01*
X187909Y3926D01*
X187923Y4044D01*
X187922Y4049D01*
X187923Y4052D01*
X187920Y4066D01*
X187898Y4210D01*
X187792Y4604D01*
X187792Y7113D01*
X194571Y7113D01*
X194591Y7116D01*
X194610Y7114D01*
X194712Y7136D01*
X194814Y7153D01*
X194831Y7162D01*
X194851Y7166D01*
X194940Y7219D01*
X195031Y7268D01*
X195045Y7282D01*
X195062Y7292D01*
X195129Y7371D01*
X195200Y7446D01*
X195209Y7464D01*
X195222Y7479D01*
X195261Y7575D01*
X195304Y7669D01*
X195306Y7689D01*
X195314Y7707D01*
X195332Y7874D01*
X195332Y8637D01*
X195334Y8637D01*
X195334Y7874D01*
X195337Y7854D01*
X195335Y7835D01*
X195357Y7733D01*
X195374Y7631D01*
X195383Y7614D01*
X195387Y7594D01*
X195440Y7505D01*
X195489Y7414D01*
X195503Y7400D01*
X195513Y7383D01*
X195592Y7316D01*
X195667Y7245D01*
X195685Y7236D01*
X195700Y7223D01*
X195796Y7184D01*
X195890Y7141D01*
X195910Y7139D01*
X195928Y7131D01*
X196095Y7113D01*
X202874Y7113D01*
X202874Y4604D01*
X202768Y4210D01*
X202756Y4091D01*
X202743Y3974D01*
X202744Y3969D01*
X202744Y3965D01*
X202770Y3850D01*
X202795Y3733D01*
X202798Y3730D01*
X202799Y3726D01*
X202861Y3624D01*
X202922Y3522D01*
X202925Y3519D01*
X202927Y3516D01*
X203018Y3440D01*
X203109Y3362D01*
X203113Y3361D01*
X203116Y3358D01*
X203225Y3315D01*
X203337Y3270D01*
X203342Y3270D01*
X203345Y3268D01*
X203358Y3268D01*
X203503Y3252D01*
X211859Y3252D01*
X211879Y3255D01*
X211898Y3253D01*
X212000Y3275D01*
X212102Y3291D01*
X212119Y3301D01*
X212139Y3305D01*
X212228Y3358D01*
X212319Y3407D01*
X212333Y3421D01*
X212350Y3431D01*
X212417Y3510D01*
X212489Y3585D01*
X212497Y3603D01*
X212510Y3618D01*
X212549Y3714D01*
X212592Y3808D01*
X212594Y3828D01*
X212602Y3846D01*
X212620Y4013D01*
X212620Y120436D01*
X212617Y120456D01*
X212619Y120475D01*
X212597Y120577D01*
X212581Y120679D01*
X212571Y120696D01*
X212567Y120716D01*
X212514Y120805D01*
X212465Y120896D01*
X212451Y120910D01*
X212441Y120927D01*
X212362Y120994D01*
X212287Y121066D01*
X212269Y121074D01*
X212254Y121087D01*
X212158Y121126D01*
X212064Y121169D01*
X212044Y121171D01*
X212026Y121179D01*
X211859Y121197D01*
X208052Y121197D01*
X208049Y121197D01*
X208046Y121197D01*
X207926Y121177D01*
X207809Y121158D01*
X207807Y121156D01*
X207803Y121156D01*
X207696Y121098D01*
X207592Y121042D01*
X207590Y121040D01*
X207587Y121039D01*
X207504Y120950D01*
X207423Y120864D01*
X207421Y120861D01*
X207419Y120859D01*
X207369Y120749D01*
X207319Y120641D01*
X207319Y120638D01*
X207317Y120635D01*
X207292Y120469D01*
X207256Y119652D01*
X203665Y116361D01*
X201763Y116444D01*
X201743Y116442D01*
X201723Y116445D01*
X201621Y116428D01*
X201518Y116415D01*
X201500Y116407D01*
X201481Y116403D01*
X201389Y116354D01*
X201296Y116310D01*
X201282Y116296D01*
X201264Y116287D01*
X201194Y116211D01*
X201119Y116139D01*
X201110Y116121D01*
X201096Y116107D01*
X201054Y116013D01*
X201006Y115921D01*
X201003Y115901D01*
X200995Y115883D01*
X200969Y115717D01*
X200886Y113815D01*
X198622Y111740D01*
X198555Y111656D01*
X198485Y111574D01*
X198479Y111559D01*
X198470Y111547D01*
X198433Y111446D01*
X198393Y111346D01*
X198391Y111327D01*
X198387Y111316D01*
X198386Y111285D01*
X198375Y111179D01*
X198375Y110782D01*
X198389Y110692D01*
X198397Y110601D01*
X198409Y110571D01*
X198414Y110539D01*
X198457Y110458D01*
X198493Y110374D01*
X198519Y110342D01*
X198530Y110322D01*
X198553Y110300D01*
X198598Y110244D01*
X199851Y108991D01*
X199851Y104119D01*
X198505Y102773D01*
X198493Y102757D01*
X198477Y102745D01*
X198421Y102657D01*
X198361Y102574D01*
X198355Y102555D01*
X198344Y102538D01*
X198319Y102437D01*
X198289Y102338D01*
X198289Y102319D01*
X198284Y102299D01*
X198292Y102196D01*
X198295Y102093D01*
X198302Y102074D01*
X198303Y102054D01*
X198344Y101959D01*
X198379Y101862D01*
X198392Y101846D01*
X198400Y101828D01*
X198478Y101730D01*
X198482Y101723D01*
X198486Y101719D01*
X198505Y101697D01*
X199851Y100351D01*
X199851Y95479D01*
X198471Y94099D01*
X198418Y94025D01*
X198358Y93956D01*
X198346Y93926D01*
X198327Y93900D01*
X198300Y93813D01*
X198266Y93728D01*
X198262Y93687D01*
X198255Y93665D01*
X198256Y93632D01*
X198248Y93561D01*
X198248Y92240D01*
X198262Y92150D01*
X198270Y92059D01*
X198282Y92029D01*
X198287Y91997D01*
X198330Y91916D01*
X198366Y91833D01*
X198392Y91800D01*
X198403Y91780D01*
X198426Y91758D01*
X198471Y91702D01*
X199724Y90449D01*
X199724Y85577D01*
X198378Y84231D01*
X198366Y84215D01*
X198350Y84203D01*
X198294Y84115D01*
X198234Y84032D01*
X198228Y84013D01*
X198217Y83996D01*
X198192Y83895D01*
X198162Y83796D01*
X198162Y83777D01*
X198157Y83757D01*
X198165Y83654D01*
X198168Y83551D01*
X198175Y83532D01*
X198176Y83512D01*
X198217Y83417D01*
X198252Y83320D01*
X198265Y83304D01*
X198273Y83286D01*
X198378Y83155D01*
X199724Y81809D01*
X199724Y76937D01*
X198471Y75684D01*
X198418Y75610D01*
X198358Y75541D01*
X198346Y75511D01*
X198327Y75485D01*
X198300Y75398D01*
X198266Y75313D01*
X198262Y75272D01*
X198255Y75250D01*
X198256Y75217D01*
X198248Y75146D01*
X198248Y73825D01*
X198262Y73735D01*
X198270Y73644D01*
X198282Y73614D01*
X198287Y73582D01*
X198330Y73501D01*
X198366Y73417D01*
X198392Y73385D01*
X198403Y73365D01*
X198426Y73343D01*
X198471Y73287D01*
X199680Y72078D01*
X199680Y66606D01*
X198727Y65653D01*
X198674Y65579D01*
X198614Y65510D01*
X198602Y65480D01*
X198583Y65454D01*
X198556Y65367D01*
X198522Y65282D01*
X198518Y65241D01*
X198511Y65219D01*
X198512Y65186D01*
X198504Y65115D01*
X198504Y63282D01*
X198518Y63192D01*
X198526Y63101D01*
X198538Y63071D01*
X198543Y63039D01*
X198586Y62958D01*
X198622Y62875D01*
X198648Y62842D01*
X198659Y62822D01*
X198682Y62800D01*
X198727Y62744D01*
X199807Y61664D01*
X199807Y56192D01*
X198272Y54657D01*
X193400Y54657D01*
X192913Y55144D01*
X192816Y55214D01*
X192721Y55284D01*
X192717Y55286D01*
X192714Y55288D01*
X192601Y55323D01*
X192487Y55359D01*
X192482Y55359D01*
X192479Y55360D01*
X192360Y55357D01*
X192241Y55355D01*
X192237Y55354D01*
X192233Y55354D01*
X192121Y55313D01*
X192009Y55274D01*
X192006Y55271D01*
X192002Y55270D01*
X191908Y55195D01*
X191815Y55122D01*
X191812Y55118D01*
X191810Y55116D01*
X191802Y55104D01*
X191716Y54987D01*
X191659Y54889D01*
X190935Y54165D01*
X190048Y53652D01*
X189058Y53387D01*
X188545Y53387D01*
X188545Y58340D01*
X188542Y58359D01*
X188544Y58379D01*
X188522Y58481D01*
X188506Y58583D01*
X188496Y58600D01*
X188492Y58620D01*
X188439Y58709D01*
X188390Y58800D01*
X188376Y58814D01*
X188366Y58831D01*
X188287Y58898D01*
X188212Y58969D01*
X188194Y58978D01*
X188179Y58991D01*
X188083Y59029D01*
X187989Y59073D01*
X187969Y59075D01*
X187951Y59083D01*
X187784Y59101D01*
X187369Y59101D01*
X187369Y59516D01*
X187366Y59536D01*
X187368Y59555D01*
X187346Y59657D01*
X187329Y59759D01*
X187320Y59776D01*
X187316Y59796D01*
X187263Y59885D01*
X187214Y59976D01*
X187200Y59990D01*
X187190Y60007D01*
X187111Y60074D01*
X187036Y60146D01*
X187018Y60154D01*
X187003Y60167D01*
X186906Y60206D01*
X186813Y60249D01*
X186793Y60251D01*
X186775Y60259D01*
X186608Y60277D01*
X181938Y60277D01*
X181924Y60317D01*
X181916Y60368D01*
X181882Y60431D01*
X181857Y60499D01*
X181825Y60539D01*
X181800Y60585D01*
X181748Y60635D01*
X181704Y60691D01*
X181660Y60719D01*
X181622Y60755D01*
X181557Y60785D01*
X181497Y60824D01*
X181446Y60836D01*
X181399Y60858D01*
X181328Y60866D01*
X181258Y60884D01*
X181206Y60880D01*
X181155Y60885D01*
X181084Y60870D01*
X181013Y60865D01*
X180965Y60844D01*
X180914Y60833D01*
X180853Y60796D01*
X180787Y60768D01*
X180731Y60723D01*
X180703Y60707D01*
X180688Y60689D01*
X180656Y60663D01*
X179730Y59737D01*
X174858Y59737D01*
X173512Y61083D01*
X173496Y61095D01*
X173484Y61111D01*
X173396Y61167D01*
X173313Y61227D01*
X173294Y61233D01*
X173277Y61244D01*
X173176Y61269D01*
X173077Y61299D01*
X173058Y61299D01*
X173038Y61304D01*
X172935Y61296D01*
X172832Y61293D01*
X172813Y61286D01*
X172793Y61285D01*
X172698Y61244D01*
X172601Y61209D01*
X172585Y61196D01*
X172567Y61188D01*
X172436Y61083D01*
X171672Y60319D01*
X171619Y60246D01*
X171559Y60176D01*
X171547Y60146D01*
X171528Y60120D01*
X171501Y60033D01*
X171467Y59948D01*
X171463Y59907D01*
X171456Y59885D01*
X171457Y59852D01*
X171449Y59781D01*
X171449Y57948D01*
X171463Y57858D01*
X171471Y57767D01*
X171483Y57737D01*
X171488Y57705D01*
X171531Y57625D01*
X171567Y57541D01*
X171593Y57508D01*
X171604Y57488D01*
X171627Y57466D01*
X171672Y57410D01*
X172436Y56646D01*
X172452Y56634D01*
X172464Y56618D01*
X172552Y56562D01*
X172635Y56502D01*
X172654Y56496D01*
X172671Y56485D01*
X172772Y56460D01*
X172871Y56430D01*
X172890Y56430D01*
X172910Y56425D01*
X173013Y56433D01*
X173116Y56436D01*
X173135Y56443D01*
X173155Y56444D01*
X173250Y56485D01*
X173347Y56520D01*
X173363Y56533D01*
X173381Y56541D01*
X173512Y56646D01*
X174858Y57992D01*
X179730Y57992D01*
X180656Y57066D01*
X180714Y57024D01*
X180766Y56974D01*
X180813Y56952D01*
X180855Y56922D01*
X180924Y56901D01*
X180989Y56871D01*
X181041Y56865D01*
X181091Y56850D01*
X181162Y56851D01*
X181233Y56844D01*
X181284Y56855D01*
X181336Y56856D01*
X181404Y56881D01*
X181474Y56896D01*
X181519Y56923D01*
X181567Y56940D01*
X181623Y56985D01*
X181685Y57022D01*
X181719Y57062D01*
X181759Y57094D01*
X181798Y57154D01*
X181845Y57209D01*
X181864Y57257D01*
X181892Y57301D01*
X181910Y57371D01*
X181937Y57437D01*
X181945Y57508D01*
X181953Y57540D01*
X181951Y57563D01*
X181952Y57579D01*
X185847Y57579D01*
X185847Y53387D01*
X185334Y53387D01*
X184344Y53652D01*
X183457Y54165D01*
X182733Y54889D01*
X182685Y54971D01*
X182655Y55008D01*
X182632Y55051D01*
X182578Y55103D01*
X182530Y55161D01*
X182489Y55187D01*
X182454Y55220D01*
X182385Y55252D01*
X182321Y55292D01*
X182275Y55303D01*
X182231Y55324D01*
X182156Y55332D01*
X182082Y55350D01*
X182034Y55345D01*
X181987Y55351D01*
X181913Y55335D01*
X181837Y55328D01*
X181793Y55309D01*
X181746Y55299D01*
X181681Y55260D01*
X181612Y55229D01*
X181576Y55197D01*
X181535Y55172D01*
X181486Y55115D01*
X181430Y55064D01*
X181406Y55022D01*
X181375Y54985D01*
X181347Y54915D01*
X181310Y54849D01*
X181301Y54802D01*
X181283Y54757D01*
X181269Y54629D01*
X181265Y54607D01*
X181266Y54601D01*
X181265Y54591D01*
X181265Y50985D01*
X180439Y50159D01*
X180386Y50085D01*
X180326Y50016D01*
X180314Y49986D01*
X180295Y49960D01*
X180268Y49873D01*
X180234Y49788D01*
X180230Y49747D01*
X180223Y49725D01*
X180224Y49692D01*
X180216Y49621D01*
X180216Y47407D01*
X180221Y47376D01*
X180219Y47365D01*
X180231Y47312D01*
X180238Y47226D01*
X180250Y47196D01*
X180255Y47164D01*
X180268Y47140D01*
X180272Y47124D01*
X180303Y47072D01*
X180334Y47000D01*
X180360Y46967D01*
X180371Y46947D01*
X180387Y46931D01*
X180398Y46913D01*
X180414Y46899D01*
X180439Y46869D01*
X181392Y45916D01*
X181392Y40444D01*
X179857Y38909D01*
X174985Y38909D01*
X174498Y39396D01*
X174401Y39466D01*
X174306Y39536D01*
X174302Y39538D01*
X174299Y39540D01*
X174186Y39575D01*
X174072Y39611D01*
X174067Y39611D01*
X174064Y39612D01*
X173945Y39609D01*
X173826Y39607D01*
X173822Y39606D01*
X173818Y39606D01*
X173706Y39565D01*
X173594Y39526D01*
X173591Y39523D01*
X173587Y39522D01*
X173493Y39447D01*
X173400Y39374D01*
X173397Y39370D01*
X173395Y39368D01*
X173387Y39356D01*
X173301Y39239D01*
X173244Y39141D01*
X172520Y38417D01*
X171633Y37904D01*
X170643Y37639D01*
X170130Y37639D01*
X170130Y42592D01*
X170127Y42611D01*
X170129Y42631D01*
X170107Y42733D01*
X170091Y42835D01*
X170081Y42852D01*
X170077Y42872D01*
X170024Y42961D01*
X169975Y43052D01*
X169961Y43066D01*
X169951Y43083D01*
X169872Y43150D01*
X169797Y43221D01*
X169779Y43230D01*
X169764Y43243D01*
X169668Y43281D01*
X169574Y43325D01*
X169554Y43327D01*
X169536Y43335D01*
X169369Y43353D01*
X168954Y43353D01*
X168954Y43768D01*
X168951Y43788D01*
X168953Y43807D01*
X168931Y43909D01*
X168914Y44011D01*
X168905Y44028D01*
X168901Y44048D01*
X168848Y44137D01*
X168799Y44228D01*
X168785Y44242D01*
X168775Y44259D01*
X168696Y44326D01*
X168621Y44398D01*
X168603Y44406D01*
X168588Y44419D01*
X168491Y44458D01*
X168398Y44501D01*
X168378Y44503D01*
X168360Y44511D01*
X168193Y44529D01*
X163540Y44529D01*
X163540Y45342D01*
X163805Y46332D01*
X164318Y47219D01*
X165042Y47943D01*
X165884Y48430D01*
X165976Y48505D01*
X166069Y48579D01*
X166071Y48583D01*
X166074Y48585D01*
X166137Y48685D01*
X166202Y48786D01*
X166203Y48790D01*
X166205Y48794D01*
X166233Y48908D01*
X166262Y49025D01*
X166262Y49029D01*
X166263Y49033D01*
X166252Y49152D01*
X166243Y49270D01*
X166241Y49274D01*
X166241Y49278D01*
X166193Y49388D01*
X166147Y49496D01*
X166143Y49500D01*
X166142Y49503D01*
X166133Y49513D01*
X166042Y49627D01*
X164683Y50985D01*
X164683Y56457D01*
X165636Y57410D01*
X165689Y57484D01*
X165749Y57553D01*
X165761Y57583D01*
X165780Y57609D01*
X165807Y57696D01*
X165841Y57781D01*
X165845Y57822D01*
X165852Y57844D01*
X165851Y57877D01*
X165859Y57948D01*
X165859Y59781D01*
X165845Y59871D01*
X165837Y59962D01*
X165825Y59992D01*
X165820Y60024D01*
X165777Y60105D01*
X165741Y60189D01*
X165715Y60221D01*
X165704Y60241D01*
X165681Y60263D01*
X165636Y60319D01*
X164460Y61495D01*
X164415Y61528D01*
X164350Y61590D01*
X164332Y61598D01*
X164317Y61611D01*
X164278Y61627D01*
X164261Y61639D01*
X164210Y61654D01*
X164127Y61693D01*
X164107Y61695D01*
X164089Y61703D01*
X164033Y61709D01*
X164025Y61711D01*
X164014Y61711D01*
X163922Y61721D01*
X158184Y61721D01*
X155173Y64732D01*
X155099Y64785D01*
X155029Y64845D01*
X154999Y64857D01*
X154973Y64876D01*
X154886Y64903D01*
X154801Y64937D01*
X154760Y64941D01*
X154738Y64948D01*
X154706Y64947D01*
X154634Y64955D01*
X150947Y64955D01*
X150857Y64941D01*
X150766Y64933D01*
X150736Y64921D01*
X150704Y64916D01*
X150623Y64873D01*
X150539Y64837D01*
X150507Y64811D01*
X150487Y64800D01*
X150464Y64777D01*
X150408Y64732D01*
X150147Y64471D01*
X143231Y64471D01*
X143160Y64460D01*
X143088Y64458D01*
X143039Y64440D01*
X142988Y64432D01*
X142925Y64398D01*
X142857Y64373D01*
X142817Y64341D01*
X142771Y64316D01*
X142721Y64265D01*
X142665Y64220D01*
X142637Y64176D01*
X142601Y64138D01*
X142571Y64073D01*
X142532Y64013D01*
X142520Y63962D01*
X142498Y63915D01*
X142490Y63844D01*
X142472Y63774D01*
X142476Y63722D01*
X142471Y63671D01*
X142486Y63600D01*
X142491Y63529D01*
X142512Y63481D01*
X142523Y63430D01*
X142560Y63369D01*
X142588Y63303D01*
X142633Y63247D01*
X142649Y63219D01*
X142667Y63204D01*
X142693Y63172D01*
X145027Y60837D01*
X145044Y60825D01*
X145056Y60810D01*
X145143Y60754D01*
X145227Y60693D01*
X145246Y60688D01*
X145263Y60677D01*
X145363Y60651D01*
X145462Y60621D01*
X145482Y60622D01*
X145501Y60617D01*
X145604Y60625D01*
X145708Y60627D01*
X145727Y60634D01*
X145747Y60636D01*
X145841Y60676D01*
X145939Y60712D01*
X145955Y60724D01*
X145973Y60732D01*
X146104Y60837D01*
X148133Y62866D01*
X151079Y62866D01*
X153163Y60782D01*
X153163Y55739D01*
X153177Y55649D01*
X153185Y55558D01*
X153197Y55528D01*
X153202Y55496D01*
X153245Y55416D01*
X153281Y55332D01*
X153307Y55300D01*
X153318Y55279D01*
X153341Y55257D01*
X153386Y55201D01*
X154131Y54456D01*
X154131Y49648D01*
X153634Y49152D01*
X153565Y49055D01*
X153495Y48959D01*
X153493Y48955D01*
X153491Y48952D01*
X153456Y48838D01*
X153420Y48725D01*
X153420Y48721D01*
X153419Y48717D01*
X153422Y48597D01*
X153423Y48479D01*
X153425Y48475D01*
X153425Y48471D01*
X153467Y48356D01*
X153505Y48247D01*
X153508Y48244D01*
X153509Y48240D01*
X153584Y48146D01*
X153657Y48053D01*
X153661Y48051D01*
X153663Y48048D01*
X153675Y48041D01*
X153792Y47954D01*
X153878Y47905D01*
X154613Y47170D01*
X155132Y46271D01*
X155401Y45267D01*
X155401Y44801D01*
X150448Y44801D01*
X150429Y44798D01*
X150409Y44800D01*
X150307Y44778D01*
X150205Y44762D01*
X150188Y44752D01*
X150168Y44748D01*
X150079Y44695D01*
X149988Y44646D01*
X149974Y44632D01*
X149957Y44622D01*
X149890Y44543D01*
X149819Y44468D01*
X149810Y44450D01*
X149797Y44435D01*
X149759Y44339D01*
X149715Y44245D01*
X149713Y44225D01*
X149705Y44207D01*
X149687Y44040D01*
X149687Y43625D01*
X149272Y43625D01*
X149252Y43622D01*
X149232Y43624D01*
X149131Y43602D01*
X149029Y43585D01*
X149012Y43576D01*
X148992Y43572D01*
X148903Y43519D01*
X148812Y43470D01*
X148798Y43456D01*
X148781Y43446D01*
X148714Y43367D01*
X148642Y43292D01*
X148634Y43274D01*
X148621Y43259D01*
X148582Y43162D01*
X148539Y43069D01*
X148537Y43049D01*
X148529Y43031D01*
X148511Y42864D01*
X148511Y38211D01*
X147700Y38211D01*
X147652Y38216D01*
X147535Y38229D01*
X147531Y38228D01*
X147527Y38229D01*
X147410Y38202D01*
X147294Y38177D01*
X147291Y38175D01*
X147287Y38174D01*
X147185Y38112D01*
X147083Y38051D01*
X147080Y38048D01*
X147077Y38046D01*
X147001Y37954D01*
X146923Y37864D01*
X146922Y37860D01*
X146919Y37857D01*
X146876Y37747D01*
X146831Y37636D01*
X146831Y37631D01*
X146830Y37628D01*
X146829Y37615D01*
X146813Y37469D01*
X146813Y31370D01*
X145399Y29956D01*
X144342Y28899D01*
X144330Y28883D01*
X144314Y28870D01*
X144285Y28824D01*
X144263Y28801D01*
X144247Y28768D01*
X144198Y28699D01*
X144192Y28680D01*
X144181Y28663D01*
X144161Y28581D01*
X144159Y28578D01*
X144159Y28573D01*
X144156Y28563D01*
X144126Y28464D01*
X144126Y28444D01*
X144121Y28425D01*
X144129Y28322D01*
X144132Y28218D01*
X144139Y28199D01*
X144140Y28180D01*
X144181Y28085D01*
X144216Y27987D01*
X144229Y27971D01*
X144237Y27953D01*
X144342Y27822D01*
X145826Y26338D01*
X145900Y26285D01*
X145969Y26225D01*
X146000Y26213D01*
X146026Y26194D01*
X146113Y26167D01*
X146198Y26133D01*
X146239Y26129D01*
X146261Y26122D01*
X146293Y26123D01*
X146364Y26115D01*
X149881Y26115D01*
X150368Y25628D01*
X150465Y25558D01*
X150560Y25488D01*
X150564Y25486D01*
X150567Y25484D01*
X150680Y25449D01*
X150794Y25413D01*
X150799Y25413D01*
X150802Y25412D01*
X150921Y25415D01*
X151040Y25417D01*
X151044Y25418D01*
X151048Y25418D01*
X151160Y25459D01*
X151272Y25498D01*
X151275Y25501D01*
X151279Y25502D01*
X151373Y25577D01*
X151466Y25650D01*
X151469Y25654D01*
X151471Y25656D01*
X151479Y25668D01*
X151565Y25785D01*
X151622Y25883D01*
X152346Y26607D01*
X153233Y27120D01*
X154223Y27385D01*
X154736Y27385D01*
X154736Y22432D01*
X154739Y22413D01*
X154737Y22393D01*
X154759Y22291D01*
X154775Y22189D01*
X154785Y22172D01*
X154789Y22152D01*
X154842Y22063D01*
X154891Y21972D01*
X154905Y21958D01*
X154915Y21941D01*
X154994Y21874D01*
X155022Y21847D01*
X155006Y21838D01*
X154939Y21759D01*
X154867Y21684D01*
X154859Y21666D01*
X154846Y21651D01*
X154807Y21554D01*
X154764Y21461D01*
X154762Y21441D01*
X154754Y21423D01*
X154736Y21256D01*
X154736Y16303D01*
X154223Y16303D01*
X153233Y16568D01*
X152346Y17081D01*
X151622Y17805D01*
X151565Y17903D01*
X151490Y17995D01*
X151416Y18088D01*
X151412Y18090D01*
X151409Y18093D01*
X151308Y18156D01*
X151209Y18221D01*
X151205Y18222D01*
X151201Y18224D01*
X151086Y18252D01*
X150970Y18281D01*
X150966Y18280D01*
X150962Y18281D01*
X150843Y18271D01*
X150725Y18262D01*
X150721Y18260D01*
X150717Y18260D01*
X150607Y18211D01*
X150499Y18165D01*
X150495Y18162D01*
X150492Y18161D01*
X150481Y18151D01*
X150368Y18060D01*
X149881Y17573D01*
X145009Y17573D01*
X143390Y19193D01*
X143368Y19230D01*
X143319Y19321D01*
X143305Y19335D01*
X143295Y19352D01*
X143216Y19419D01*
X143141Y19491D01*
X143123Y19499D01*
X143108Y19512D01*
X143012Y19551D01*
X142918Y19594D01*
X142898Y19596D01*
X142880Y19604D01*
X142713Y19622D01*
X133599Y19622D01*
X133509Y19608D01*
X133418Y19600D01*
X133388Y19588D01*
X133356Y19583D01*
X133275Y19540D01*
X133191Y19504D01*
X133159Y19478D01*
X133139Y19467D01*
X133116Y19444D01*
X133060Y19399D01*
X132521Y18860D01*
X131942Y18525D01*
X131295Y18352D01*
X128234Y18352D01*
X128234Y24881D01*
X128231Y24901D01*
X128233Y24920D01*
X128211Y25022D01*
X128194Y25124D01*
X128185Y25141D01*
X128181Y25161D01*
X128128Y25250D01*
X128079Y25341D01*
X128065Y25355D01*
X128055Y25372D01*
X127976Y25439D01*
X127901Y25510D01*
X127883Y25519D01*
X127868Y25532D01*
X127772Y25571D01*
X127678Y25614D01*
X127658Y25616D01*
X127640Y25624D01*
X127473Y25642D01*
X125949Y25642D01*
X125929Y25639D01*
X125910Y25641D01*
X125808Y25619D01*
X125706Y25602D01*
X125689Y25593D01*
X125669Y25589D01*
X125580Y25536D01*
X125489Y25487D01*
X125475Y25473D01*
X125458Y25463D01*
X125391Y25384D01*
X125320Y25309D01*
X125311Y25291D01*
X125298Y25276D01*
X125259Y25180D01*
X125216Y25086D01*
X125214Y25066D01*
X125206Y25048D01*
X125188Y24881D01*
X125188Y18352D01*
X122127Y18352D01*
X121480Y18525D01*
X121032Y18784D01*
X120991Y18800D01*
X120954Y18823D01*
X120877Y18843D01*
X120802Y18871D01*
X120758Y18873D01*
X120716Y18883D01*
X120636Y18877D01*
X120556Y18880D01*
X120514Y18868D01*
X120471Y18864D01*
X120397Y18833D01*
X120321Y18810D01*
X120285Y18785D01*
X120244Y18768D01*
X120131Y18677D01*
X120119Y18669D01*
X120117Y18666D01*
X120113Y18663D01*
X119278Y17827D01*
X114406Y17827D01*
X113919Y18314D01*
X113822Y18384D01*
X113727Y18454D01*
X113723Y18456D01*
X113720Y18458D01*
X113607Y18493D01*
X113493Y18529D01*
X113488Y18529D01*
X113485Y18530D01*
X113366Y18527D01*
X113247Y18525D01*
X113243Y18524D01*
X113239Y18524D01*
X113127Y18483D01*
X113015Y18444D01*
X113012Y18441D01*
X113008Y18440D01*
X112914Y18365D01*
X112821Y18292D01*
X112818Y18288D01*
X112816Y18286D01*
X112808Y18274D01*
X112722Y18157D01*
X112665Y18059D01*
X111941Y17335D01*
X111054Y16822D01*
X110064Y16557D01*
X109551Y16557D01*
X109551Y21510D01*
X109548Y21529D01*
X109550Y21549D01*
X109528Y21651D01*
X109512Y21753D01*
X109502Y21770D01*
X109498Y21790D01*
X109445Y21879D01*
X109396Y21970D01*
X109382Y21984D01*
X109372Y22001D01*
X109293Y22068D01*
X109218Y22139D01*
X109200Y22148D01*
X109185Y22161D01*
X109089Y22199D01*
X108995Y22243D01*
X108975Y22245D01*
X108957Y22253D01*
X108790Y22271D01*
X108375Y22271D01*
X108375Y22686D01*
X108372Y22706D01*
X108374Y22725D01*
X108352Y22827D01*
X108335Y22929D01*
X108326Y22946D01*
X108322Y22966D01*
X108269Y23055D01*
X108220Y23146D01*
X108206Y23160D01*
X108196Y23177D01*
X108117Y23244D01*
X108042Y23316D01*
X108024Y23324D01*
X108009Y23337D01*
X107912Y23376D01*
X107819Y23419D01*
X107799Y23421D01*
X107781Y23429D01*
X107614Y23447D01*
X102961Y23447D01*
X102961Y24260D01*
X103226Y25250D01*
X103736Y26133D01*
X103777Y26240D01*
X103820Y26347D01*
X103821Y26357D01*
X103823Y26363D01*
X103824Y26385D01*
X103838Y26514D01*
X103838Y30673D01*
X111553Y30673D01*
X111572Y30676D01*
X111592Y30674D01*
X111694Y30696D01*
X111796Y30712D01*
X111813Y30722D01*
X111833Y30726D01*
X111922Y30779D01*
X112013Y30828D01*
X112027Y30842D01*
X112044Y30852D01*
X112111Y30931D01*
X112182Y31006D01*
X112191Y31024D01*
X112204Y31039D01*
X112242Y31135D01*
X112286Y31229D01*
X112288Y31249D01*
X112296Y31267D01*
X112314Y31434D01*
X112314Y32610D01*
X112311Y32630D01*
X112313Y32649D01*
X112291Y32751D01*
X112274Y32853D01*
X112265Y32870D01*
X112261Y32890D01*
X112208Y32979D01*
X112159Y33070D01*
X112145Y33084D01*
X112135Y33101D01*
X112056Y33168D01*
X111981Y33240D01*
X111963Y33248D01*
X111948Y33261D01*
X111851Y33300D01*
X111758Y33343D01*
X111738Y33345D01*
X111720Y33353D01*
X111553Y33371D01*
X103077Y33371D01*
X103058Y33368D01*
X103038Y33370D01*
X102936Y33348D01*
X102834Y33332D01*
X102817Y33322D01*
X102797Y33318D01*
X102708Y33265D01*
X102617Y33216D01*
X102603Y33202D01*
X102586Y33192D01*
X102519Y33113D01*
X102492Y33085D01*
X102483Y33101D01*
X102404Y33168D01*
X102329Y33240D01*
X102311Y33248D01*
X102296Y33261D01*
X102199Y33300D01*
X102106Y33343D01*
X102086Y33345D01*
X102068Y33353D01*
X101901Y33371D01*
X96948Y33371D01*
X96948Y33837D01*
X97217Y34841D01*
X97779Y35814D01*
X97813Y35903D01*
X97853Y35990D01*
X97856Y36018D01*
X97866Y36044D01*
X97870Y36140D01*
X97880Y36234D01*
X97874Y36262D01*
X97875Y36290D01*
X97848Y36382D01*
X97828Y36475D01*
X97814Y36499D01*
X97806Y36526D01*
X97751Y36604D01*
X97702Y36686D01*
X97680Y36704D01*
X97664Y36727D01*
X97587Y36784D01*
X97515Y36846D01*
X97489Y36856D01*
X97466Y36873D01*
X97375Y36902D01*
X97287Y36938D01*
X97252Y36942D01*
X97232Y36948D01*
X97199Y36948D01*
X97120Y36956D01*
X93932Y36956D01*
X93912Y36953D01*
X93893Y36955D01*
X93791Y36933D01*
X93689Y36917D01*
X93672Y36907D01*
X93652Y36903D01*
X93563Y36850D01*
X93472Y36801D01*
X93458Y36787D01*
X93441Y36777D01*
X93374Y36698D01*
X93302Y36623D01*
X93294Y36605D01*
X93281Y36590D01*
X93242Y36494D01*
X93199Y36400D01*
X93197Y36380D01*
X93189Y36362D01*
X93171Y36195D01*
X93171Y31523D01*
X91589Y29941D01*
X91553Y29933D01*
X91451Y29917D01*
X91434Y29907D01*
X91414Y29903D01*
X91325Y29850D01*
X91234Y29801D01*
X91220Y29787D01*
X91203Y29777D01*
X91136Y29698D01*
X91064Y29623D01*
X91056Y29605D01*
X91043Y29590D01*
X91004Y29494D01*
X90961Y29400D01*
X90959Y29380D01*
X90951Y29362D01*
X90933Y29195D01*
X90933Y28495D01*
X78801Y16363D01*
X78748Y16289D01*
X78688Y16220D01*
X78676Y16189D01*
X78657Y16163D01*
X78630Y16076D01*
X78596Y15991D01*
X78592Y15950D01*
X78585Y15928D01*
X78586Y15896D01*
X78578Y15825D01*
X78578Y14036D01*
X76515Y11973D01*
X73599Y11973D01*
X71536Y14036D01*
X71536Y16952D01*
X73599Y19015D01*
X75388Y19015D01*
X75478Y19029D01*
X75569Y19037D01*
X75598Y19049D01*
X75630Y19054D01*
X75711Y19097D01*
X75795Y19133D01*
X75827Y19159D01*
X75848Y19170D01*
X75870Y19193D01*
X75926Y19238D01*
X85882Y29194D01*
X85894Y29210D01*
X85909Y29222D01*
X85965Y29310D01*
X86026Y29393D01*
X86031Y29412D01*
X86042Y29429D01*
X86068Y29530D01*
X86098Y29629D01*
X86097Y29649D01*
X86102Y29668D01*
X86094Y29771D01*
X86092Y29874D01*
X86085Y29893D01*
X86083Y29913D01*
X86043Y30008D01*
X86007Y30105D01*
X85995Y30121D01*
X85987Y30139D01*
X85882Y30270D01*
X85379Y30773D01*
X85283Y30842D01*
X85187Y30913D01*
X85183Y30914D01*
X85179Y30917D01*
X85067Y30951D01*
X84953Y30988D01*
X84948Y30988D01*
X84944Y30989D01*
X84826Y30986D01*
X84707Y30984D01*
X84703Y30983D01*
X84698Y30983D01*
X84586Y30942D01*
X84475Y30902D01*
X84471Y30900D01*
X84467Y30898D01*
X84374Y30823D01*
X84281Y30751D01*
X84278Y30747D01*
X84275Y30745D01*
X84268Y30733D01*
X84182Y30615D01*
X83874Y30082D01*
X83139Y29347D01*
X82240Y28828D01*
X81236Y28559D01*
X80470Y28559D01*
X80470Y33212D01*
X80467Y33231D01*
X80469Y33251D01*
X80447Y33353D01*
X80431Y33455D01*
X80421Y33472D01*
X80417Y33492D01*
X80364Y33581D01*
X80315Y33672D01*
X80301Y33686D01*
X80291Y33703D01*
X80212Y33770D01*
X80137Y33841D01*
X80119Y33850D01*
X80104Y33863D01*
X80008Y33901D01*
X79914Y33945D01*
X79894Y33947D01*
X79876Y33955D01*
X79709Y33973D01*
X79294Y33973D01*
X79294Y34388D01*
X79291Y34408D01*
X79293Y34427D01*
X79271Y34529D01*
X79254Y34631D01*
X79245Y34648D01*
X79241Y34668D01*
X79188Y34757D01*
X79139Y34848D01*
X79125Y34862D01*
X79115Y34879D01*
X79036Y34946D01*
X78961Y35018D01*
X78943Y35026D01*
X78928Y35039D01*
X78831Y35078D01*
X78738Y35121D01*
X78718Y35123D01*
X78700Y35131D01*
X78533Y35149D01*
X69549Y35149D01*
X69530Y35146D01*
X69510Y35148D01*
X69408Y35126D01*
X69306Y35110D01*
X69289Y35100D01*
X69269Y35096D01*
X69180Y35043D01*
X69089Y34994D01*
X69075Y34980D01*
X69058Y34970D01*
X68991Y34891D01*
X68920Y34816D01*
X68911Y34798D01*
X68898Y34783D01*
X68860Y34687D01*
X68816Y34593D01*
X68814Y34573D01*
X68806Y34555D01*
X68788Y34388D01*
X68788Y33973D01*
X68373Y33973D01*
X68353Y33970D01*
X68333Y33972D01*
X68232Y33950D01*
X68130Y33933D01*
X68113Y33924D01*
X68093Y33920D01*
X68004Y33867D01*
X67913Y33818D01*
X67899Y33804D01*
X67882Y33794D01*
X67815Y33715D01*
X67743Y33640D01*
X67735Y33622D01*
X67722Y33607D01*
X67683Y33510D01*
X67640Y33417D01*
X67638Y33397D01*
X67630Y33379D01*
X67612Y33212D01*
X67612Y28559D01*
X66846Y28559D01*
X65842Y28828D01*
X65005Y29312D01*
X64915Y29345D01*
X64829Y29386D01*
X64801Y29389D01*
X64775Y29399D01*
X64679Y29402D01*
X64585Y29413D01*
X64557Y29407D01*
X64529Y29408D01*
X64437Y29381D01*
X64344Y29361D01*
X64320Y29346D01*
X64293Y29338D01*
X64215Y29283D01*
X64133Y29234D01*
X64115Y29213D01*
X64092Y29197D01*
X64035Y29120D01*
X63973Y29047D01*
X63963Y29021D01*
X63946Y28998D01*
X63917Y28908D01*
X63881Y28819D01*
X63877Y28784D01*
X63871Y28764D01*
X63871Y28731D01*
X63863Y28653D01*
X63863Y24765D01*
X58345Y24765D01*
X58345Y30783D01*
X61656Y30783D01*
X62303Y30610D01*
X62469Y30513D01*
X62536Y30488D01*
X62599Y30454D01*
X62650Y30445D01*
X62699Y30427D01*
X62771Y30424D01*
X62841Y30412D01*
X62893Y30419D01*
X62945Y30417D01*
X63014Y30438D01*
X63085Y30449D01*
X63131Y30472D01*
X63181Y30487D01*
X63240Y30528D01*
X63303Y30561D01*
X63340Y30599D01*
X63382Y30629D01*
X63425Y30686D01*
X63475Y30738D01*
X63497Y30785D01*
X63528Y30827D01*
X63550Y30895D01*
X63581Y30960D01*
X63587Y31012D01*
X63603Y31061D01*
X63602Y31133D01*
X63610Y31204D01*
X63600Y31275D01*
X63599Y31307D01*
X63591Y31329D01*
X63585Y31370D01*
X63420Y31985D01*
X63420Y32705D01*
X63409Y32776D01*
X63407Y32848D01*
X63389Y32897D01*
X63381Y32948D01*
X63347Y33011D01*
X63322Y33079D01*
X63290Y33120D01*
X63265Y33166D01*
X63213Y33215D01*
X63169Y33271D01*
X63125Y33299D01*
X63087Y33335D01*
X63022Y33365D01*
X62962Y33404D01*
X62911Y33417D01*
X62864Y33439D01*
X62793Y33446D01*
X62723Y33464D01*
X62671Y33460D01*
X62620Y33466D01*
X62549Y33450D01*
X62478Y33445D01*
X62430Y33424D01*
X62379Y33413D01*
X62318Y33377D01*
X62252Y33348D01*
X62196Y33304D01*
X62168Y33287D01*
X62153Y33269D01*
X62121Y33244D01*
X61848Y32971D01*
X51796Y32971D01*
X51051Y33716D01*
X51051Y36448D01*
X51048Y36468D01*
X51050Y36487D01*
X51028Y36589D01*
X51012Y36691D01*
X51002Y36708D01*
X50998Y36728D01*
X50945Y36817D01*
X50896Y36908D01*
X50882Y36922D01*
X50872Y36939D01*
X50793Y37006D01*
X50718Y37078D01*
X50700Y37086D01*
X50685Y37099D01*
X50589Y37138D01*
X50495Y37181D01*
X50475Y37183D01*
X50457Y37191D01*
X50290Y37209D01*
X22354Y37209D01*
X22334Y37206D01*
X22315Y37208D01*
X22213Y37186D01*
X22111Y37170D01*
X22094Y37160D01*
X22074Y37156D01*
X21985Y37103D01*
X21894Y37054D01*
X21880Y37040D01*
X21863Y37030D01*
X21796Y36951D01*
X21724Y36876D01*
X21716Y36858D01*
X21703Y36843D01*
X21664Y36747D01*
X21621Y36653D01*
X21619Y36633D01*
X21611Y36615D01*
X21593Y36448D01*
X21593Y33716D01*
X20848Y32971D01*
X10796Y32971D01*
X10051Y33716D01*
X10051Y36935D01*
X10036Y37031D01*
X10026Y37128D01*
X10016Y37152D01*
X10012Y37178D01*
X9966Y37264D01*
X9926Y37353D01*
X9909Y37372D01*
X9896Y37395D01*
X9826Y37462D01*
X9760Y37534D01*
X9737Y37546D01*
X9718Y37564D01*
X9630Y37605D01*
X9544Y37652D01*
X9519Y37657D01*
X9495Y37668D01*
X9398Y37679D01*
X9302Y37696D01*
X9276Y37692D01*
X9251Y37695D01*
X9155Y37674D01*
X9059Y37660D01*
X9036Y37648D01*
X9010Y37643D01*
X8926Y37593D01*
X8840Y37549D01*
X8821Y37530D01*
X8799Y37517D01*
X8736Y37442D01*
X8668Y37373D01*
X8652Y37345D01*
X8639Y37330D01*
X8627Y37299D01*
X8587Y37226D01*
X8576Y37200D01*
X6742Y35366D01*
X6455Y35247D01*
X6394Y35210D01*
X6329Y35180D01*
X6290Y35145D01*
X6246Y35118D01*
X6200Y35062D01*
X6148Y35014D01*
X6122Y34968D01*
X6089Y34928D01*
X6064Y34861D01*
X6029Y34798D01*
X6020Y34747D01*
X6001Y34699D01*
X5998Y34627D01*
X5985Y34556D01*
X5993Y34505D01*
X5991Y34453D01*
X6011Y34384D01*
X6021Y34313D01*
X6045Y34267D01*
X6059Y34217D01*
X6100Y34158D01*
X6133Y34094D01*
X6170Y34057D01*
X6199Y34015D01*
X6257Y33972D01*
X6308Y33922D01*
X6371Y33887D01*
X6397Y33868D01*
X6419Y33861D01*
X6455Y33841D01*
X6742Y33722D01*
X8576Y31888D01*
X9012Y30836D01*
X9048Y30776D01*
X9076Y30713D01*
X9113Y30673D01*
X9141Y30627D01*
X9195Y30582D01*
X9242Y30531D01*
X9289Y30504D01*
X9331Y30470D01*
X9396Y30445D01*
X9457Y30411D01*
X9510Y30401D01*
X9560Y30382D01*
X9630Y30379D01*
X9699Y30366D01*
X9752Y30374D01*
X9806Y30371D01*
X9873Y30391D01*
X9942Y30400D01*
X10011Y30431D01*
X10042Y30440D01*
X10061Y30452D01*
X10096Y30468D01*
X10341Y30610D01*
X10988Y30783D01*
X14299Y30783D01*
X14299Y24765D01*
X9156Y24765D01*
X9066Y24750D01*
X8975Y24743D01*
X8945Y24731D01*
X8913Y24725D01*
X8833Y24683D01*
X8749Y24647D01*
X8717Y24621D01*
X8696Y24610D01*
X8674Y24587D01*
X8618Y24542D01*
X6742Y22666D01*
X4329Y21667D01*
X4253Y21650D01*
X4151Y21634D01*
X4134Y21624D01*
X4114Y21620D01*
X4025Y21567D01*
X3934Y21518D01*
X3920Y21504D01*
X3903Y21494D01*
X3836Y21415D01*
X3764Y21340D01*
X3756Y21322D01*
X3743Y21307D01*
X3704Y21211D01*
X3661Y21117D01*
X3659Y21097D01*
X3651Y21079D01*
X3633Y20912D01*
X3633Y4635D01*
X3648Y4539D01*
X3658Y4442D01*
X3668Y4418D01*
X3672Y4392D01*
X3718Y4306D01*
X3758Y4217D01*
X3775Y4198D01*
X3788Y4175D01*
X3858Y4108D01*
X3924Y4036D01*
X3947Y4023D01*
X3966Y4005D01*
X4054Y3964D01*
X4140Y3917D01*
X4165Y3913D01*
X4189Y3902D01*
X4286Y3891D01*
X4382Y3874D01*
X4408Y3878D01*
X4433Y3875D01*
X4529Y3895D01*
X4625Y3909D01*
X4648Y3921D01*
X4674Y3927D01*
X4757Y3977D01*
X4844Y4021D01*
X4863Y4040D01*
X4885Y4053D01*
X4948Y4127D01*
X5016Y4197D01*
X5032Y4225D01*
X5045Y4240D01*
X5057Y4271D01*
X5097Y4344D01*
X5775Y5980D01*
X7609Y7814D01*
X10006Y8807D01*
X12600Y8807D01*
X14997Y7814D01*
X16831Y5980D01*
X16950Y5693D01*
X16987Y5632D01*
X17017Y5567D01*
X17052Y5528D01*
X17079Y5484D01*
X17134Y5438D01*
X17183Y5386D01*
X17229Y5360D01*
X17269Y5327D01*
X17336Y5302D01*
X17399Y5267D01*
X17450Y5258D01*
X17498Y5239D01*
X17570Y5236D01*
X17641Y5223D01*
X17692Y5231D01*
X17744Y5229D01*
X17813Y5249D01*
X17884Y5259D01*
X17930Y5283D01*
X17980Y5297D01*
X18039Y5338D01*
X18103Y5371D01*
X18140Y5408D01*
X18182Y5437D01*
X18225Y5495D01*
X18275Y5546D01*
X18310Y5609D01*
X18329Y5635D01*
X18336Y5657D01*
X18356Y5693D01*
X18475Y5980D01*
X20309Y7814D01*
X22706Y8807D01*
X25300Y8807D01*
X27697Y7814D01*
X29531Y5980D01*
X29650Y5693D01*
X29687Y5632D01*
X29717Y5567D01*
X29752Y5528D01*
X29779Y5484D01*
X29834Y5438D01*
X29883Y5386D01*
X29929Y5360D01*
X29969Y5327D01*
X30036Y5302D01*
X30099Y5267D01*
X30150Y5258D01*
X30198Y5239D01*
X30270Y5236D01*
X30341Y5223D01*
X30392Y5231D01*
X30444Y5229D01*
X30513Y5249D01*
X30584Y5259D01*
X30630Y5283D01*
X30680Y5297D01*
X30739Y5338D01*
X30803Y5371D01*
X30840Y5408D01*
X30882Y5437D01*
X30925Y5495D01*
X30975Y5546D01*
X31010Y5609D01*
X31029Y5635D01*
X31036Y5657D01*
X31056Y5693D01*
X31175Y5980D01*
X33009Y7814D01*
X35406Y8807D01*
X38000Y8807D01*
X40397Y7814D01*
X42231Y5980D01*
X42350Y5693D01*
X42387Y5632D01*
X42417Y5567D01*
X42452Y5528D01*
X42479Y5484D01*
X42534Y5438D01*
X42583Y5386D01*
X42629Y5360D01*
X42669Y5327D01*
X42736Y5302D01*
X42799Y5267D01*
X42850Y5258D01*
X42898Y5239D01*
X42970Y5236D01*
X43041Y5223D01*
X43092Y5231D01*
X43144Y5229D01*
X43213Y5249D01*
X43284Y5259D01*
X43330Y5283D01*
X43380Y5297D01*
X43439Y5338D01*
X43503Y5371D01*
X43540Y5408D01*
X43582Y5437D01*
X43625Y5495D01*
X43675Y5546D01*
X43710Y5609D01*
X43729Y5635D01*
X43736Y5657D01*
X43756Y5693D01*
X43875Y5980D01*
X45709Y7814D01*
X48106Y8807D01*
X50700Y8807D01*
X53097Y7814D01*
X54931Y5980D01*
X55050Y5693D01*
X55087Y5632D01*
X55117Y5567D01*
X55152Y5528D01*
X55179Y5484D01*
X55234Y5438D01*
X55283Y5386D01*
X55329Y5360D01*
X55369Y5327D01*
X55436Y5302D01*
X55499Y5267D01*
X55550Y5258D01*
X55598Y5239D01*
X55670Y5236D01*
X55741Y5223D01*
X55792Y5231D01*
X55844Y5229D01*
X55913Y5249D01*
X55984Y5259D01*
X56030Y5283D01*
X56080Y5297D01*
X56139Y5338D01*
X56203Y5371D01*
X56240Y5408D01*
X56282Y5437D01*
X56325Y5495D01*
X56375Y5546D01*
X56410Y5609D01*
X56429Y5635D01*
X56436Y5657D01*
X56456Y5693D01*
X56575Y5980D01*
X58409Y7814D01*
X60806Y8807D01*
X63400Y8807D01*
X65797Y7814D01*
X67631Y5980D01*
X67750Y5693D01*
X67787Y5632D01*
X67817Y5567D01*
X67852Y5528D01*
X67879Y5484D01*
X67934Y5438D01*
X67983Y5386D01*
X68029Y5360D01*
X68069Y5327D01*
X68136Y5302D01*
X68199Y5267D01*
X68250Y5258D01*
X68298Y5239D01*
X68370Y5236D01*
X68441Y5223D01*
X68492Y5231D01*
X68544Y5229D01*
X68613Y5249D01*
X68684Y5259D01*
X68730Y5283D01*
X68780Y5297D01*
X68839Y5338D01*
X68903Y5371D01*
X68940Y5408D01*
X68982Y5437D01*
X69025Y5495D01*
X69075Y5546D01*
X69110Y5609D01*
X69129Y5635D01*
X69136Y5657D01*
X69156Y5693D01*
X69275Y5980D01*
X71109Y7814D01*
X73506Y8807D01*
X75594Y8807D01*
X75684Y8821D01*
X75775Y8829D01*
X75804Y8841D01*
X75836Y8846D01*
X75917Y8889D01*
X76001Y8925D01*
X76033Y8951D01*
X76054Y8962D01*
X76076Y8985D01*
X76132Y9030D01*
X78787Y11685D01*
X157083Y11685D01*
X157173Y11699D01*
X157264Y11707D01*
X157293Y11719D01*
X157325Y11724D01*
X157406Y11767D01*
X157490Y11803D01*
X157522Y11829D01*
X157543Y11840D01*
X157565Y11863D01*
X157621Y11908D01*
X164079Y18366D01*
X164132Y18440D01*
X164192Y18509D01*
X164204Y18540D01*
X164223Y18566D01*
X164250Y18653D01*
X164284Y18738D01*
X164288Y18779D01*
X164295Y18801D01*
X164294Y18833D01*
X164302Y18904D01*
X164302Y22421D01*
X165837Y23956D01*
X170709Y23956D01*
X172055Y22610D01*
X172071Y22598D01*
X172083Y22582D01*
X172171Y22526D01*
X172254Y22466D01*
X172273Y22460D01*
X172290Y22449D01*
X172391Y22424D01*
X172490Y22394D01*
X172509Y22394D01*
X172529Y22389D01*
X172632Y22397D01*
X172735Y22400D01*
X172754Y22407D01*
X172774Y22408D01*
X172869Y22449D01*
X172966Y22484D01*
X172982Y22497D01*
X173000Y22505D01*
X173131Y22610D01*
X174477Y23956D01*
X179349Y23956D01*
X180884Y22421D01*
X180884Y16949D01*
X180141Y16206D01*
X180099Y16148D01*
X180049Y16096D01*
X180027Y16049D01*
X179997Y16007D01*
X179976Y15938D01*
X179946Y15873D01*
X179940Y15821D01*
X179925Y15771D01*
X179926Y15700D01*
X179919Y15629D01*
X179930Y15578D01*
X179931Y15526D01*
X179956Y15458D01*
X179971Y15388D01*
X179998Y15343D01*
X180015Y15295D01*
X180060Y15239D01*
X180097Y15177D01*
X180137Y15143D01*
X180169Y15103D01*
X180229Y15064D01*
X180284Y15017D01*
X180332Y14998D01*
X180376Y14970D01*
X180446Y14952D01*
X180512Y14925D01*
X180583Y14917D01*
X180615Y14909D01*
X180638Y14911D01*
X180679Y14907D01*
X182441Y14907D01*
X184064Y13284D01*
X184064Y4013D01*
X184067Y3993D01*
X184065Y3974D01*
X184087Y3872D01*
X184103Y3770D01*
X184113Y3753D01*
X184117Y3733D01*
X184170Y3644D01*
X184219Y3553D01*
X184233Y3539D01*
X184243Y3522D01*
X184322Y3455D01*
X184397Y3383D01*
X184415Y3375D01*
X184430Y3362D01*
X184526Y3323D01*
X184620Y3280D01*
X184640Y3278D01*
X184658Y3270D01*
X184825Y3252D01*
X187163Y3252D01*
X187279Y3271D01*
G37*
G36*
X262118Y6467D02*
X262118Y6467D01*
X262117Y6467D01*
X262118Y6468D01*
X262118Y33468D01*
X262108Y33480D01*
X262107Y33479D01*
X262106Y33480D01*
X235718Y33480D01*
X235718Y53456D01*
X262106Y53456D01*
X262118Y53467D01*
X262117Y53467D01*
X262118Y53468D01*
X262118Y80468D01*
X262108Y80480D01*
X262107Y80479D01*
X262106Y80480D01*
X235718Y80480D01*
X235718Y100456D01*
X262106Y100456D01*
X262118Y100467D01*
X262117Y100467D01*
X262118Y100468D01*
X262118Y150468D01*
X262108Y150480D01*
X262107Y150479D01*
X262106Y150480D01*
X208106Y150480D01*
X208094Y150470D01*
X208095Y150469D01*
X208094Y150468D01*
X208094Y141468D01*
X208105Y141456D01*
X208105Y141457D01*
X208106Y141456D01*
X257094Y141456D01*
X257094Y127480D01*
X208106Y127480D01*
X208094Y127470D01*
X208095Y127469D01*
X208094Y127468D01*
X208094Y122468D01*
X208105Y122456D01*
X208105Y122457D01*
X208106Y122456D01*
X257094Y122456D01*
X257094Y105480D01*
X230706Y105480D01*
X230694Y105470D01*
X230695Y105469D01*
X230694Y105468D01*
X230694Y75468D01*
X230705Y75456D01*
X230705Y75457D01*
X230706Y75456D01*
X257094Y75456D01*
X257094Y58480D01*
X230706Y58480D01*
X230694Y58470D01*
X230694Y58469D01*
X230695Y58469D01*
X230694Y58468D01*
X230694Y28468D01*
X230705Y28456D01*
X230705Y28457D01*
X230706Y28456D01*
X257094Y28456D01*
X257094Y11480D01*
X217706Y11480D01*
X217694Y11470D01*
X217695Y11469D01*
X217694Y11468D01*
X217694Y6468D01*
X217705Y6456D01*
X217705Y6457D01*
X217706Y6456D01*
X262106Y6456D01*
X262118Y6467D01*
G37*
G36*
X9355Y44098D02*
X9355Y44098D01*
X9381Y44097D01*
X9475Y44124D01*
X9570Y44145D01*
X9592Y44159D01*
X9617Y44166D01*
X9697Y44221D01*
X9781Y44271D01*
X9798Y44291D01*
X9819Y44306D01*
X9878Y44384D01*
X9941Y44458D01*
X9951Y44482D01*
X9966Y44503D01*
X9996Y44596D01*
X10033Y44686D01*
X10036Y44719D01*
X10042Y44737D01*
X10042Y44759D01*
X10796Y45513D01*
X13589Y45513D01*
X13609Y45516D01*
X13628Y45514D01*
X13730Y45536D01*
X13832Y45552D01*
X13849Y45562D01*
X13869Y45566D01*
X13958Y45619D01*
X14049Y45668D01*
X14063Y45682D01*
X14080Y45692D01*
X14147Y45771D01*
X14219Y45846D01*
X14227Y45864D01*
X14240Y45879D01*
X14279Y45975D01*
X14322Y46069D01*
X14324Y46089D01*
X14332Y46107D01*
X14350Y46274D01*
X14350Y153877D01*
X15764Y155291D01*
X21831Y161358D01*
X21858Y161395D01*
X21892Y161427D01*
X21930Y161495D01*
X21975Y161558D01*
X21989Y161602D01*
X22011Y161642D01*
X22025Y161719D01*
X22047Y161793D01*
X22046Y161839D01*
X22054Y161884D01*
X22043Y161961D01*
X22041Y162039D01*
X22025Y162082D01*
X22019Y162127D01*
X21983Y162197D01*
X21957Y162270D01*
X21928Y162306D01*
X21907Y162347D01*
X21851Y162401D01*
X21803Y162462D01*
X21764Y162487D01*
X21731Y162519D01*
X21612Y162585D01*
X21596Y162595D01*
X21591Y162596D01*
X21585Y162600D01*
X20309Y163128D01*
X18475Y164962D01*
X18356Y165249D01*
X18319Y165310D01*
X18289Y165375D01*
X18254Y165414D01*
X18227Y165458D01*
X18171Y165504D01*
X18123Y165556D01*
X18077Y165582D01*
X18037Y165615D01*
X17970Y165640D01*
X17907Y165675D01*
X17856Y165684D01*
X17808Y165703D01*
X17736Y165706D01*
X17665Y165719D01*
X17614Y165711D01*
X17562Y165713D01*
X17493Y165693D01*
X17422Y165683D01*
X17376Y165659D01*
X17326Y165645D01*
X17267Y165604D01*
X17203Y165571D01*
X17166Y165534D01*
X17124Y165505D01*
X17081Y165447D01*
X17031Y165396D01*
X16996Y165333D01*
X16977Y165307D01*
X16970Y165285D01*
X16950Y165249D01*
X16831Y164962D01*
X14997Y163128D01*
X12600Y162135D01*
X10006Y162135D01*
X7609Y163128D01*
X5775Y164962D01*
X5097Y166598D01*
X5046Y166682D01*
X5000Y166767D01*
X4982Y166785D01*
X4968Y166808D01*
X4892Y166870D01*
X4822Y166937D01*
X4798Y166948D01*
X4778Y166964D01*
X4687Y166999D01*
X4599Y167040D01*
X4573Y167043D01*
X4549Y167053D01*
X4451Y167057D01*
X4355Y167067D01*
X4329Y167062D01*
X4303Y167063D01*
X4209Y167036D01*
X4114Y167015D01*
X4092Y167002D01*
X4067Y166994D01*
X3987Y166939D01*
X3903Y166889D01*
X3886Y166869D01*
X3865Y166854D01*
X3806Y166776D01*
X3743Y166702D01*
X3733Y166678D01*
X3718Y166657D01*
X3688Y166564D01*
X3651Y166474D01*
X3648Y166441D01*
X3642Y166423D01*
X3642Y166390D01*
X3633Y166307D01*
X3633Y150946D01*
X3644Y150878D01*
X3645Y150809D01*
X3664Y150758D01*
X3672Y150703D01*
X3705Y150642D01*
X3728Y150578D01*
X3762Y150534D01*
X3788Y150486D01*
X3837Y150438D01*
X3880Y150385D01*
X3926Y150354D01*
X3966Y150316D01*
X4028Y150287D01*
X4086Y150250D01*
X4159Y150226D01*
X4189Y150213D01*
X4210Y150210D01*
X4245Y150199D01*
X5320Y149985D01*
X6738Y149398D01*
X8014Y148545D01*
X9099Y147460D01*
X9952Y146184D01*
X10539Y144766D01*
X10688Y144017D01*
X4394Y144017D01*
X4374Y144014D01*
X4355Y144016D01*
X4253Y143994D01*
X4151Y143977D01*
X4134Y143968D01*
X4114Y143964D01*
X4025Y143911D01*
X3934Y143862D01*
X3920Y143848D01*
X3903Y143838D01*
X3836Y143759D01*
X3764Y143684D01*
X3756Y143666D01*
X3743Y143651D01*
X3704Y143555D01*
X3661Y143461D01*
X3659Y143441D01*
X3651Y143423D01*
X3633Y143256D01*
X3633Y141732D01*
X3636Y141712D01*
X3634Y141693D01*
X3656Y141591D01*
X3672Y141489D01*
X3682Y141472D01*
X3686Y141452D01*
X3739Y141363D01*
X3788Y141272D01*
X3802Y141258D01*
X3812Y141241D01*
X3891Y141174D01*
X3966Y141103D01*
X3984Y141094D01*
X3999Y141081D01*
X4095Y141042D01*
X4189Y140999D01*
X4209Y140997D01*
X4227Y140989D01*
X4394Y140971D01*
X10688Y140971D01*
X10539Y140222D01*
X9952Y138804D01*
X9099Y137528D01*
X8014Y136443D01*
X7351Y135999D01*
X7282Y135935D01*
X7208Y135876D01*
X7193Y135851D01*
X7171Y135831D01*
X7126Y135748D01*
X7075Y135669D01*
X7068Y135641D01*
X7054Y135615D01*
X7038Y135522D01*
X7015Y135431D01*
X7018Y135401D01*
X7013Y135373D01*
X7027Y135279D01*
X7034Y135185D01*
X7046Y135158D01*
X7050Y135130D01*
X7094Y135046D01*
X7131Y134959D01*
X7154Y134930D01*
X7164Y134911D01*
X7187Y134888D01*
X7236Y134828D01*
X8576Y133488D01*
X9569Y131091D01*
X9569Y128497D01*
X8576Y126100D01*
X6742Y124266D01*
X6455Y124147D01*
X6394Y124109D01*
X6329Y124080D01*
X6290Y124045D01*
X6246Y124018D01*
X6200Y123962D01*
X6148Y123914D01*
X6122Y123868D01*
X6089Y123828D01*
X6063Y123761D01*
X6029Y123698D01*
X6020Y123647D01*
X6001Y123599D01*
X5998Y123527D01*
X5985Y123456D01*
X5993Y123405D01*
X5991Y123353D01*
X6011Y123284D01*
X6021Y123213D01*
X6045Y123167D01*
X6059Y123117D01*
X6100Y123058D01*
X6133Y122994D01*
X6170Y122957D01*
X6199Y122915D01*
X6257Y122872D01*
X6308Y122822D01*
X6371Y122787D01*
X6397Y122768D01*
X6419Y122760D01*
X6455Y122741D01*
X6742Y122622D01*
X8576Y120788D01*
X9569Y118391D01*
X9569Y115797D01*
X8576Y113400D01*
X6742Y111566D01*
X6455Y111447D01*
X6394Y111409D01*
X6329Y111380D01*
X6290Y111345D01*
X6246Y111318D01*
X6200Y111262D01*
X6148Y111214D01*
X6122Y111168D01*
X6089Y111128D01*
X6063Y111061D01*
X6029Y110998D01*
X6020Y110947D01*
X6001Y110899D01*
X5998Y110827D01*
X5985Y110756D01*
X5993Y110705D01*
X5991Y110653D01*
X6011Y110584D01*
X6021Y110513D01*
X6045Y110467D01*
X6059Y110417D01*
X6100Y110358D01*
X6133Y110294D01*
X6170Y110257D01*
X6199Y110215D01*
X6257Y110172D01*
X6308Y110122D01*
X6371Y110087D01*
X6397Y110068D01*
X6419Y110060D01*
X6455Y110041D01*
X6742Y109922D01*
X8576Y108088D01*
X9569Y105691D01*
X9569Y103097D01*
X8576Y100700D01*
X6742Y98866D01*
X6455Y98747D01*
X6394Y98709D01*
X6329Y98680D01*
X6290Y98645D01*
X6246Y98618D01*
X6200Y98562D01*
X6148Y98514D01*
X6122Y98468D01*
X6089Y98428D01*
X6063Y98361D01*
X6029Y98298D01*
X6020Y98247D01*
X6001Y98199D01*
X5998Y98127D01*
X5985Y98056D01*
X5993Y98005D01*
X5991Y97953D01*
X6011Y97884D01*
X6021Y97813D01*
X6045Y97767D01*
X6059Y97717D01*
X6100Y97658D01*
X6133Y97594D01*
X6170Y97557D01*
X6199Y97515D01*
X6257Y97472D01*
X6308Y97422D01*
X6371Y97387D01*
X6397Y97368D01*
X6419Y97360D01*
X6455Y97341D01*
X6742Y97222D01*
X8576Y95388D01*
X9569Y92991D01*
X9569Y90397D01*
X8576Y88000D01*
X6742Y86166D01*
X6455Y86047D01*
X6394Y86009D01*
X6329Y85980D01*
X6290Y85945D01*
X6246Y85918D01*
X6200Y85862D01*
X6148Y85814D01*
X6122Y85768D01*
X6089Y85728D01*
X6063Y85661D01*
X6029Y85598D01*
X6020Y85547D01*
X6001Y85499D01*
X5998Y85427D01*
X5985Y85356D01*
X5993Y85305D01*
X5991Y85253D01*
X6011Y85184D01*
X6021Y85113D01*
X6045Y85067D01*
X6059Y85017D01*
X6100Y84958D01*
X6133Y84894D01*
X6170Y84857D01*
X6199Y84815D01*
X6257Y84772D01*
X6308Y84722D01*
X6371Y84687D01*
X6397Y84668D01*
X6419Y84660D01*
X6455Y84641D01*
X6742Y84522D01*
X8576Y82688D01*
X9569Y80291D01*
X9569Y77697D01*
X8576Y75300D01*
X6742Y73466D01*
X6455Y73347D01*
X6394Y73310D01*
X6329Y73280D01*
X6290Y73245D01*
X6246Y73218D01*
X6200Y73162D01*
X6148Y73114D01*
X6122Y73068D01*
X6089Y73028D01*
X6064Y72961D01*
X6029Y72898D01*
X6020Y72847D01*
X6001Y72799D01*
X5998Y72727D01*
X5985Y72656D01*
X5993Y72605D01*
X5991Y72553D01*
X6011Y72484D01*
X6021Y72413D01*
X6045Y72367D01*
X6059Y72317D01*
X6100Y72258D01*
X6133Y72194D01*
X6170Y72157D01*
X6199Y72115D01*
X6257Y72072D01*
X6308Y72022D01*
X6371Y71987D01*
X6397Y71968D01*
X6419Y71961D01*
X6455Y71941D01*
X6742Y71822D01*
X8576Y69988D01*
X9569Y67591D01*
X9569Y64997D01*
X8576Y62600D01*
X6742Y60766D01*
X6455Y60647D01*
X6394Y60610D01*
X6329Y60580D01*
X6290Y60545D01*
X6246Y60518D01*
X6200Y60462D01*
X6148Y60414D01*
X6122Y60368D01*
X6089Y60328D01*
X6064Y60261D01*
X6029Y60198D01*
X6020Y60147D01*
X6001Y60099D01*
X5998Y60027D01*
X5985Y59956D01*
X5993Y59905D01*
X5991Y59853D01*
X6011Y59784D01*
X6021Y59713D01*
X6045Y59667D01*
X6059Y59617D01*
X6100Y59558D01*
X6133Y59494D01*
X6170Y59457D01*
X6199Y59415D01*
X6257Y59372D01*
X6308Y59322D01*
X6371Y59287D01*
X6397Y59268D01*
X6419Y59261D01*
X6455Y59241D01*
X6742Y59122D01*
X8576Y57288D01*
X9569Y54891D01*
X9569Y52297D01*
X8576Y49900D01*
X6742Y48066D01*
X6455Y47947D01*
X6394Y47910D01*
X6329Y47880D01*
X6290Y47845D01*
X6246Y47818D01*
X6200Y47762D01*
X6148Y47714D01*
X6122Y47668D01*
X6089Y47628D01*
X6064Y47561D01*
X6029Y47498D01*
X6020Y47447D01*
X6001Y47399D01*
X5998Y47327D01*
X5985Y47256D01*
X5993Y47205D01*
X5991Y47153D01*
X6011Y47084D01*
X6021Y47013D01*
X6045Y46967D01*
X6059Y46917D01*
X6100Y46858D01*
X6133Y46794D01*
X6170Y46757D01*
X6199Y46715D01*
X6257Y46672D01*
X6308Y46622D01*
X6371Y46587D01*
X6397Y46568D01*
X6419Y46561D01*
X6455Y46541D01*
X6742Y46422D01*
X8576Y44588D01*
X8587Y44562D01*
X8638Y44479D01*
X8684Y44393D01*
X8703Y44375D01*
X8716Y44353D01*
X8791Y44291D01*
X8862Y44224D01*
X8886Y44213D01*
X8906Y44196D01*
X8997Y44161D01*
X9085Y44120D01*
X9111Y44117D01*
X9135Y44108D01*
X9233Y44104D01*
X9329Y44093D01*
X9355Y44098D01*
G37*
%LPC*%
G36*
X32943Y72909D02*
X32943Y72909D01*
X30734Y75118D01*
X30734Y87122D01*
X30731Y87142D01*
X30733Y87161D01*
X30711Y87263D01*
X30695Y87365D01*
X30685Y87382D01*
X30681Y87402D01*
X30628Y87491D01*
X30579Y87582D01*
X30565Y87596D01*
X30555Y87613D01*
X30476Y87680D01*
X30401Y87752D01*
X30383Y87760D01*
X30368Y87773D01*
X30272Y87812D01*
X30178Y87855D01*
X30158Y87857D01*
X30140Y87865D01*
X29973Y87883D01*
X28183Y87883D01*
X25653Y90413D01*
X25653Y93991D01*
X28183Y96521D01*
X29846Y96521D01*
X29866Y96524D01*
X29885Y96522D01*
X29987Y96544D01*
X30089Y96560D01*
X30106Y96570D01*
X30126Y96574D01*
X30215Y96627D01*
X30306Y96676D01*
X30320Y96690D01*
X30337Y96700D01*
X30404Y96779D01*
X30476Y96854D01*
X30484Y96872D01*
X30497Y96887D01*
X30536Y96983D01*
X30579Y97077D01*
X30581Y97097D01*
X30589Y97115D01*
X30607Y97282D01*
X30607Y109032D01*
X32816Y111241D01*
X40940Y111241D01*
X43149Y109032D01*
X43149Y96708D01*
X43043Y96602D01*
X43031Y96586D01*
X43016Y96574D01*
X42960Y96486D01*
X42899Y96403D01*
X42894Y96384D01*
X42883Y96367D01*
X42857Y96266D01*
X42827Y96167D01*
X42828Y96148D01*
X42823Y96128D01*
X42831Y96025D01*
X42833Y95922D01*
X42840Y95903D01*
X42842Y95883D01*
X42882Y95788D01*
X42918Y95691D01*
X42930Y95675D01*
X42938Y95657D01*
X43043Y95526D01*
X44578Y93991D01*
X44578Y90413D01*
X42979Y88815D01*
X42968Y88799D01*
X42952Y88786D01*
X42896Y88699D01*
X42836Y88615D01*
X42830Y88596D01*
X42819Y88579D01*
X42794Y88479D01*
X42763Y88380D01*
X42764Y88360D01*
X42759Y88341D01*
X42767Y88238D01*
X42770Y88134D01*
X42777Y88115D01*
X42778Y88095D01*
X42819Y88001D01*
X42854Y87903D01*
X42867Y87887D01*
X42875Y87869D01*
X42979Y87738D01*
X43276Y87442D01*
X43276Y75118D01*
X41067Y72909D01*
X32943Y72909D01*
G37*
%LPD*%
%LPC*%
G36*
X52265Y120691D02*
X52265Y120691D01*
X50824Y122132D01*
X50750Y122185D01*
X50680Y122245D01*
X50650Y122257D01*
X50624Y122276D01*
X50537Y122303D01*
X50452Y122337D01*
X50411Y122341D01*
X50389Y122348D01*
X50357Y122347D01*
X50285Y122355D01*
X42970Y122355D01*
X42880Y122341D01*
X42789Y122333D01*
X42759Y122321D01*
X42727Y122316D01*
X42646Y122273D01*
X42562Y122237D01*
X42530Y122211D01*
X42510Y122200D01*
X42487Y122177D01*
X42483Y122173D01*
X32839Y122173D01*
X30606Y124406D01*
X30606Y127562D01*
X32839Y129795D01*
X37084Y129795D01*
X37104Y129798D01*
X37123Y129796D01*
X37225Y129818D01*
X37327Y129834D01*
X37344Y129844D01*
X37364Y129848D01*
X37453Y129901D01*
X37544Y129950D01*
X37558Y129964D01*
X37575Y129974D01*
X37642Y130053D01*
X37714Y130128D01*
X37722Y130146D01*
X37735Y130161D01*
X37774Y130257D01*
X37817Y130351D01*
X37819Y130371D01*
X37827Y130389D01*
X37845Y130556D01*
X37845Y131971D01*
X37842Y131991D01*
X37844Y132010D01*
X37822Y132112D01*
X37806Y132214D01*
X37796Y132231D01*
X37792Y132251D01*
X37739Y132340D01*
X37690Y132431D01*
X37676Y132445D01*
X37666Y132462D01*
X37587Y132529D01*
X37512Y132601D01*
X37494Y132609D01*
X37479Y132622D01*
X37383Y132661D01*
X37289Y132704D01*
X37269Y132706D01*
X37251Y132714D01*
X37084Y132732D01*
X35056Y132732D01*
X34966Y132718D01*
X34875Y132710D01*
X34845Y132698D01*
X34813Y132693D01*
X34733Y132650D01*
X34649Y132614D01*
X34617Y132588D01*
X34596Y132577D01*
X34574Y132554D01*
X34518Y132509D01*
X34073Y132064D01*
X28665Y132064D01*
X27098Y133631D01*
X27098Y138439D01*
X27595Y138935D01*
X27663Y139031D01*
X27734Y139128D01*
X27736Y139132D01*
X27738Y139135D01*
X27773Y139248D01*
X27809Y139362D01*
X27809Y139366D01*
X27810Y139370D01*
X27807Y139488D01*
X27806Y139608D01*
X27804Y139612D01*
X27804Y139616D01*
X27763Y139727D01*
X27724Y139840D01*
X27721Y139843D01*
X27720Y139847D01*
X27645Y139940D01*
X27572Y140033D01*
X27568Y140036D01*
X27566Y140039D01*
X27554Y140046D01*
X27437Y140133D01*
X27351Y140182D01*
X26616Y140917D01*
X26097Y141816D01*
X25828Y142820D01*
X25828Y143286D01*
X30781Y143286D01*
X30800Y143289D01*
X30820Y143287D01*
X30922Y143309D01*
X31024Y143325D01*
X31041Y143335D01*
X31061Y143339D01*
X31150Y143392D01*
X31241Y143441D01*
X31255Y143455D01*
X31272Y143465D01*
X31339Y143544D01*
X31366Y143572D01*
X31375Y143556D01*
X31454Y143489D01*
X31529Y143417D01*
X31547Y143409D01*
X31562Y143396D01*
X31659Y143357D01*
X31752Y143314D01*
X31772Y143312D01*
X31790Y143304D01*
X31957Y143286D01*
X41068Y143286D01*
X41087Y143289D01*
X41107Y143287D01*
X41209Y143309D01*
X41311Y143325D01*
X41328Y143335D01*
X41348Y143339D01*
X41437Y143392D01*
X41528Y143441D01*
X41542Y143455D01*
X41559Y143465D01*
X41626Y143544D01*
X41653Y143572D01*
X41662Y143556D01*
X41741Y143489D01*
X41816Y143417D01*
X41834Y143409D01*
X41849Y143396D01*
X41946Y143357D01*
X42039Y143314D01*
X42059Y143312D01*
X42077Y143304D01*
X42244Y143286D01*
X47197Y143286D01*
X47197Y142820D01*
X46928Y141816D01*
X46409Y140917D01*
X45674Y140182D01*
X45588Y140133D01*
X45496Y140057D01*
X45403Y139983D01*
X45401Y139980D01*
X45398Y139977D01*
X45335Y139877D01*
X45270Y139776D01*
X45269Y139772D01*
X45267Y139769D01*
X45239Y139653D01*
X45210Y139538D01*
X45210Y139534D01*
X45210Y139529D01*
X45220Y139411D01*
X45229Y139292D01*
X45231Y139289D01*
X45231Y139284D01*
X45279Y139176D01*
X45326Y139066D01*
X45329Y139062D01*
X45330Y139059D01*
X45339Y139049D01*
X45430Y138935D01*
X45927Y138439D01*
X45927Y133631D01*
X45690Y133394D01*
X45637Y133320D01*
X45577Y133251D01*
X45565Y133220D01*
X45546Y133194D01*
X45519Y133107D01*
X45485Y133022D01*
X45481Y132982D01*
X45474Y132959D01*
X45475Y132927D01*
X45467Y132856D01*
X45467Y130738D01*
X45470Y130718D01*
X45468Y130699D01*
X45490Y130597D01*
X45506Y130495D01*
X45516Y130478D01*
X45520Y130458D01*
X45573Y130369D01*
X45622Y130278D01*
X45636Y130264D01*
X45646Y130247D01*
X45725Y130180D01*
X45800Y130108D01*
X45818Y130100D01*
X45833Y130087D01*
X45929Y130048D01*
X46023Y130005D01*
X46043Y130003D01*
X46061Y129995D01*
X46228Y129977D01*
X50793Y129977D01*
X50884Y129991D01*
X50974Y129999D01*
X51004Y130011D01*
X51036Y130016D01*
X51117Y130059D01*
X51201Y130095D01*
X51233Y130121D01*
X51254Y130132D01*
X51276Y130155D01*
X51332Y130200D01*
X52265Y131133D01*
X60257Y131133D01*
X62182Y129208D01*
X62182Y122616D01*
X60257Y120691D01*
X52265Y120691D01*
G37*
%LPD*%
G36*
X110910Y65615D02*
X110910Y65615D01*
X111013Y65618D01*
X111032Y65625D01*
X111052Y65626D01*
X111147Y65667D01*
X111244Y65702D01*
X111260Y65715D01*
X111278Y65723D01*
X111329Y65763D01*
X111633Y65763D01*
X111653Y65766D01*
X111672Y65764D01*
X111774Y65786D01*
X111876Y65802D01*
X111893Y65812D01*
X111913Y65816D01*
X112002Y65869D01*
X112093Y65918D01*
X112107Y65932D01*
X112124Y65942D01*
X112191Y66021D01*
X112262Y66096D01*
X112271Y66114D01*
X112284Y66129D01*
X112323Y66225D01*
X112366Y66319D01*
X112368Y66339D01*
X112376Y66357D01*
X112394Y66524D01*
X112394Y93219D01*
X139089Y93219D01*
X139109Y93222D01*
X139128Y93220D01*
X139230Y93242D01*
X139332Y93259D01*
X139349Y93268D01*
X139369Y93272D01*
X139458Y93325D01*
X139549Y93374D01*
X139563Y93388D01*
X139580Y93398D01*
X139647Y93477D01*
X139719Y93552D01*
X139727Y93570D01*
X139740Y93585D01*
X139779Y93681D01*
X139822Y93775D01*
X139824Y93795D01*
X139832Y93813D01*
X139850Y93980D01*
X139850Y94291D01*
X139869Y94320D01*
X139929Y94403D01*
X139935Y94422D01*
X139946Y94439D01*
X139971Y94540D01*
X140002Y94638D01*
X140001Y94658D01*
X140006Y94678D01*
X139998Y94781D01*
X139995Y94884D01*
X139988Y94903D01*
X139987Y94923D01*
X139946Y95018D01*
X139911Y95115D01*
X139898Y95131D01*
X139890Y95149D01*
X139850Y95200D01*
X139850Y95504D01*
X139847Y95524D01*
X139849Y95543D01*
X139827Y95645D01*
X139811Y95747D01*
X139801Y95764D01*
X139797Y95784D01*
X139744Y95873D01*
X139695Y95964D01*
X139681Y95978D01*
X139671Y95995D01*
X139592Y96062D01*
X139517Y96133D01*
X139499Y96142D01*
X139484Y96155D01*
X139388Y96194D01*
X139294Y96237D01*
X139274Y96239D01*
X139256Y96247D01*
X139089Y96265D01*
X112394Y96265D01*
X112394Y122960D01*
X112391Y122980D01*
X112393Y122999D01*
X112371Y123101D01*
X112354Y123203D01*
X112345Y123220D01*
X112341Y123240D01*
X112288Y123329D01*
X112239Y123420D01*
X112225Y123434D01*
X112215Y123451D01*
X112136Y123518D01*
X112061Y123590D01*
X112043Y123598D01*
X112028Y123611D01*
X111932Y123650D01*
X111838Y123693D01*
X111818Y123695D01*
X111800Y123703D01*
X111633Y123721D01*
X111322Y123721D01*
X111293Y123740D01*
X111210Y123800D01*
X111191Y123806D01*
X111174Y123817D01*
X111073Y123842D01*
X110975Y123873D01*
X110955Y123872D01*
X110935Y123877D01*
X110832Y123869D01*
X110729Y123866D01*
X110710Y123859D01*
X110690Y123858D01*
X110595Y123817D01*
X110498Y123782D01*
X110482Y123769D01*
X110464Y123761D01*
X110413Y123721D01*
X110109Y123721D01*
X110089Y123718D01*
X110070Y123720D01*
X109968Y123698D01*
X109866Y123682D01*
X109849Y123672D01*
X109829Y123668D01*
X109740Y123615D01*
X109649Y123566D01*
X109635Y123552D01*
X109618Y123542D01*
X109551Y123463D01*
X109480Y123388D01*
X109471Y123370D01*
X109458Y123355D01*
X109419Y123259D01*
X109376Y123165D01*
X109374Y123145D01*
X109366Y123127D01*
X109348Y122960D01*
X109348Y96265D01*
X82653Y96265D01*
X82633Y96262D01*
X82614Y96264D01*
X82512Y96242D01*
X82410Y96225D01*
X82393Y96216D01*
X82373Y96212D01*
X82284Y96159D01*
X82193Y96110D01*
X82179Y96096D01*
X82162Y96086D01*
X82095Y96007D01*
X82023Y95932D01*
X82015Y95914D01*
X82002Y95899D01*
X81963Y95803D01*
X81920Y95709D01*
X81918Y95689D01*
X81910Y95671D01*
X81892Y95504D01*
X81892Y95193D01*
X81873Y95164D01*
X81813Y95081D01*
X81807Y95062D01*
X81796Y95045D01*
X81771Y94944D01*
X81740Y94846D01*
X81741Y94826D01*
X81736Y94806D01*
X81744Y94703D01*
X81747Y94600D01*
X81754Y94581D01*
X81755Y94561D01*
X81796Y94466D01*
X81831Y94369D01*
X81844Y94353D01*
X81852Y94335D01*
X81892Y94284D01*
X81892Y93980D01*
X81895Y93960D01*
X81893Y93941D01*
X81915Y93839D01*
X81931Y93737D01*
X81941Y93720D01*
X81945Y93700D01*
X81998Y93611D01*
X82047Y93520D01*
X82061Y93506D01*
X82071Y93489D01*
X82150Y93422D01*
X82225Y93351D01*
X82243Y93342D01*
X82258Y93329D01*
X82354Y93290D01*
X82448Y93247D01*
X82468Y93245D01*
X82486Y93237D01*
X82653Y93219D01*
X109348Y93219D01*
X109348Y66524D01*
X109351Y66504D01*
X109349Y66485D01*
X109371Y66383D01*
X109388Y66281D01*
X109397Y66264D01*
X109401Y66244D01*
X109454Y66155D01*
X109503Y66064D01*
X109517Y66050D01*
X109527Y66033D01*
X109606Y65966D01*
X109681Y65894D01*
X109699Y65886D01*
X109714Y65873D01*
X109810Y65834D01*
X109904Y65791D01*
X109924Y65789D01*
X109942Y65781D01*
X110109Y65763D01*
X110420Y65763D01*
X110449Y65744D01*
X110532Y65684D01*
X110551Y65678D01*
X110568Y65667D01*
X110669Y65642D01*
X110767Y65611D01*
X110787Y65612D01*
X110807Y65607D01*
X110910Y65615D01*
G37*
%LPC*%
G36*
X65202Y135762D02*
X65202Y135762D01*
X63266Y137698D01*
X63192Y137751D01*
X63122Y137811D01*
X63092Y137823D01*
X63066Y137842D01*
X62979Y137869D01*
X62894Y137903D01*
X62853Y137907D01*
X62831Y137914D01*
X62799Y137913D01*
X62727Y137921D01*
X61403Y137921D01*
X61313Y137907D01*
X61222Y137899D01*
X61192Y137887D01*
X61160Y137882D01*
X61079Y137839D01*
X60995Y137803D01*
X60963Y137777D01*
X60942Y137766D01*
X60920Y137743D01*
X60864Y137698D01*
X60257Y137091D01*
X52265Y137091D01*
X50340Y139016D01*
X50340Y145608D01*
X52265Y147533D01*
X60257Y147533D01*
X61819Y145971D01*
X61877Y145929D01*
X61929Y145880D01*
X61976Y145858D01*
X62018Y145828D01*
X62087Y145807D01*
X62152Y145776D01*
X62204Y145771D01*
X62254Y145755D01*
X62325Y145757D01*
X62396Y145749D01*
X62447Y145760D01*
X62499Y145762D01*
X62567Y145786D01*
X62637Y145802D01*
X62682Y145828D01*
X62730Y145846D01*
X62786Y145891D01*
X62848Y145928D01*
X62882Y145967D01*
X62922Y146000D01*
X62961Y146060D01*
X63008Y146115D01*
X63027Y146163D01*
X63055Y146207D01*
X63073Y146276D01*
X63100Y146343D01*
X63108Y146414D01*
X63116Y146445D01*
X63114Y146469D01*
X63118Y146507D01*
X65202Y148591D01*
X68148Y148591D01*
X68934Y147805D01*
X68950Y147793D01*
X68963Y147778D01*
X69050Y147722D01*
X69134Y147662D01*
X69153Y147656D01*
X69170Y147645D01*
X69270Y147620D01*
X69369Y147589D01*
X69389Y147590D01*
X69408Y147585D01*
X69511Y147593D01*
X69615Y147596D01*
X69634Y147603D01*
X69654Y147604D01*
X69748Y147644D01*
X69846Y147680D01*
X69861Y147693D01*
X69880Y147701D01*
X69915Y147729D01*
X70859Y148274D01*
X71863Y148543D01*
X72329Y148543D01*
X72329Y143590D01*
X72332Y143571D01*
X72330Y143551D01*
X72352Y143449D01*
X72368Y143347D01*
X72378Y143330D01*
X72382Y143310D01*
X72435Y143221D01*
X72484Y143130D01*
X72498Y143116D01*
X72508Y143099D01*
X72587Y143032D01*
X72615Y143005D01*
X72599Y142996D01*
X72532Y142917D01*
X72460Y142842D01*
X72452Y142824D01*
X72439Y142809D01*
X72400Y142712D01*
X72357Y142619D01*
X72355Y142599D01*
X72347Y142581D01*
X72329Y142414D01*
X72329Y137461D01*
X71863Y137461D01*
X70837Y137736D01*
X70816Y137749D01*
X70739Y137769D01*
X70664Y137797D01*
X70620Y137799D01*
X70578Y137809D01*
X70498Y137803D01*
X70418Y137806D01*
X70376Y137794D01*
X70332Y137790D01*
X70259Y137759D01*
X70182Y137736D01*
X70146Y137711D01*
X70106Y137694D01*
X69993Y137603D01*
X69981Y137595D01*
X69979Y137592D01*
X69975Y137589D01*
X68148Y135762D01*
X65202Y135762D01*
G37*
%LPD*%
G36*
X163940Y122586D02*
X163940Y122586D01*
X164011Y122592D01*
X164059Y122612D01*
X164110Y122623D01*
X164171Y122660D01*
X164237Y122688D01*
X164293Y122733D01*
X164321Y122749D01*
X164336Y122767D01*
X164368Y122793D01*
X167797Y126222D01*
X169211Y127636D01*
X169414Y127636D01*
X169484Y127647D01*
X169556Y127649D01*
X169605Y127667D01*
X169657Y127675D01*
X169720Y127709D01*
X169787Y127734D01*
X169828Y127766D01*
X169874Y127791D01*
X169923Y127842D01*
X169979Y127887D01*
X170007Y127931D01*
X170043Y127969D01*
X170073Y128034D01*
X170112Y128094D01*
X170125Y128145D01*
X170147Y128192D01*
X170155Y128263D01*
X170172Y128333D01*
X170168Y128385D01*
X170174Y128436D01*
X170159Y128507D01*
X170153Y128578D01*
X170133Y128626D01*
X170122Y128677D01*
X170085Y128738D01*
X170057Y128804D01*
X170012Y128860D01*
X169996Y128888D01*
X169978Y128903D01*
X169952Y128935D01*
X169512Y129376D01*
X169496Y129387D01*
X169483Y129403D01*
X169396Y129459D01*
X169312Y129519D01*
X169293Y129525D01*
X169276Y129536D01*
X169176Y129561D01*
X169077Y129591D01*
X169057Y129591D01*
X169038Y129596D01*
X168935Y129588D01*
X168831Y129585D01*
X168812Y129578D01*
X168793Y129577D01*
X168698Y129536D01*
X168600Y129501D01*
X168584Y129488D01*
X168566Y129480D01*
X168435Y129376D01*
X168038Y128978D01*
X167139Y128459D01*
X166135Y128190D01*
X165669Y128190D01*
X165669Y132382D01*
X173039Y132382D01*
X173058Y132385D01*
X173078Y132383D01*
X173180Y132405D01*
X173282Y132421D01*
X173299Y132431D01*
X173319Y132435D01*
X173408Y132488D01*
X173499Y132537D01*
X173513Y132551D01*
X173530Y132561D01*
X173597Y132640D01*
X173668Y132715D01*
X173677Y132733D01*
X173690Y132748D01*
X173728Y132844D01*
X173772Y132938D01*
X173774Y132958D01*
X173782Y132976D01*
X173800Y133143D01*
X173800Y134319D01*
X173797Y134339D01*
X173799Y134358D01*
X173777Y134460D01*
X173760Y134562D01*
X173751Y134579D01*
X173747Y134599D01*
X173694Y134688D01*
X173645Y134779D01*
X173631Y134793D01*
X173621Y134810D01*
X173542Y134877D01*
X173467Y134949D01*
X173449Y134957D01*
X173434Y134970D01*
X173337Y135009D01*
X173244Y135052D01*
X173224Y135054D01*
X173206Y135062D01*
X173039Y135080D01*
X164908Y135080D01*
X164889Y135077D01*
X164869Y135079D01*
X164767Y135057D01*
X164665Y135041D01*
X164648Y135031D01*
X164628Y135027D01*
X164539Y134974D01*
X164448Y134925D01*
X164434Y134911D01*
X164417Y134901D01*
X164350Y134822D01*
X164279Y134747D01*
X164270Y134729D01*
X164257Y134714D01*
X164219Y134618D01*
X164175Y134524D01*
X164173Y134504D01*
X164165Y134486D01*
X164147Y134319D01*
X164147Y133904D01*
X163732Y133904D01*
X163712Y133901D01*
X163692Y133903D01*
X163591Y133881D01*
X163489Y133864D01*
X163472Y133855D01*
X163452Y133851D01*
X163363Y133798D01*
X163272Y133749D01*
X163258Y133735D01*
X163241Y133725D01*
X163174Y133646D01*
X163102Y133571D01*
X163094Y133553D01*
X163081Y133538D01*
X163042Y133441D01*
X162999Y133348D01*
X162997Y133328D01*
X162989Y133310D01*
X162971Y133143D01*
X162971Y128190D01*
X162505Y128190D01*
X161501Y128459D01*
X160602Y128978D01*
X159867Y129713D01*
X159818Y129799D01*
X159743Y129890D01*
X159668Y129984D01*
X159665Y129986D01*
X159662Y129989D01*
X159563Y130051D01*
X159461Y130117D01*
X159457Y130118D01*
X159454Y130120D01*
X159339Y130148D01*
X159223Y130177D01*
X159219Y130177D01*
X159214Y130177D01*
X159096Y130167D01*
X158977Y130158D01*
X158974Y130156D01*
X158969Y130156D01*
X158860Y130108D01*
X158751Y130061D01*
X158747Y130058D01*
X158744Y130057D01*
X158734Y130048D01*
X158620Y129957D01*
X158039Y129376D01*
X158028Y129360D01*
X158012Y129347D01*
X157982Y129300D01*
X157969Y129286D01*
X157957Y129262D01*
X157956Y129260D01*
X157896Y129176D01*
X157890Y129157D01*
X157879Y129140D01*
X157854Y129040D01*
X157824Y128941D01*
X157824Y128921D01*
X157819Y128902D01*
X157827Y128799D01*
X157830Y128695D01*
X157837Y128676D01*
X157838Y128657D01*
X157879Y128562D01*
X157914Y128464D01*
X157927Y128448D01*
X157935Y128430D01*
X158039Y128299D01*
X163080Y123258D01*
X163082Y123189D01*
X163100Y123140D01*
X163108Y123089D01*
X163142Y123025D01*
X163167Y122958D01*
X163199Y122917D01*
X163224Y122871D01*
X163276Y122822D01*
X163320Y122766D01*
X163364Y122738D01*
X163402Y122702D01*
X163467Y122672D01*
X163527Y122633D01*
X163578Y122620D01*
X163625Y122598D01*
X163696Y122590D01*
X163766Y122573D01*
X163818Y122577D01*
X163869Y122571D01*
X163940Y122586D01*
G37*
%LPC*%
G36*
X39544Y61975D02*
X39544Y61975D01*
X39544Y70093D01*
X41017Y70093D01*
X41991Y69899D01*
X42909Y69519D01*
X43734Y68967D01*
X44436Y68265D01*
X44988Y67440D01*
X45368Y66522D01*
X45562Y65548D01*
X45562Y61975D01*
X39544Y61975D01*
G37*
%LPD*%
%LPC*%
G36*
X39544Y50811D02*
X39544Y50811D01*
X39544Y58929D01*
X45562Y58929D01*
X45562Y55355D01*
X45368Y54382D01*
X44988Y53464D01*
X44436Y52639D01*
X43734Y51937D01*
X42909Y51385D01*
X41991Y51005D01*
X41017Y50811D01*
X39544Y50811D01*
G37*
%LPD*%
%LPC*%
G36*
X30480Y61975D02*
X30480Y61975D01*
X30480Y65548D01*
X30674Y66522D01*
X31054Y67440D01*
X31606Y68265D01*
X32308Y68967D01*
X33133Y69519D01*
X34051Y69899D01*
X35025Y70093D01*
X36498Y70093D01*
X36498Y61975D01*
X30480Y61975D01*
G37*
%LPD*%
%LPC*%
G36*
X48037Y104393D02*
X48037Y104393D01*
X48037Y107966D01*
X48231Y108940D01*
X48611Y109858D01*
X49163Y110683D01*
X49865Y111385D01*
X50690Y111937D01*
X51608Y112317D01*
X52582Y112511D01*
X54055Y112511D01*
X54055Y104393D01*
X48037Y104393D01*
G37*
%LPD*%
%LPC*%
G36*
X35025Y50811D02*
X35025Y50811D01*
X34051Y51005D01*
X33133Y51385D01*
X32308Y51937D01*
X31606Y52639D01*
X31054Y53464D01*
X30674Y54382D01*
X30480Y55355D01*
X30480Y58929D01*
X36498Y58929D01*
X36498Y50811D01*
X35025Y50811D01*
G37*
%LPD*%
%LPC*%
G36*
X52582Y93229D02*
X52582Y93229D01*
X51608Y93423D01*
X50690Y93803D01*
X49865Y94355D01*
X49163Y95057D01*
X48611Y95882D01*
X48231Y96800D01*
X48037Y97774D01*
X48037Y101347D01*
X54055Y101347D01*
X54055Y93229D01*
X52582Y93229D01*
G37*
%LPD*%
%LPC*%
G36*
X196856Y10159D02*
X196856Y10159D01*
X196856Y16177D01*
X199365Y16177D01*
X200393Y15901D01*
X201314Y15369D01*
X202066Y14617D01*
X202598Y13696D01*
X202874Y12668D01*
X202874Y10159D01*
X196856Y10159D01*
G37*
%LPD*%
%LPC*%
G36*
X187792Y10159D02*
X187792Y10159D01*
X187792Y12668D01*
X188068Y13696D01*
X188600Y14617D01*
X189352Y15369D01*
X190273Y15901D01*
X191301Y16177D01*
X193810Y16177D01*
X193810Y10159D01*
X187792Y10159D01*
G37*
%LPD*%
%LPC*%
G36*
X17345Y24765D02*
X17345Y24765D01*
X17345Y30783D01*
X20656Y30783D01*
X21303Y30610D01*
X21882Y30275D01*
X22355Y29802D01*
X22690Y29223D01*
X22863Y28576D01*
X22863Y24765D01*
X17345Y24765D01*
G37*
%LPD*%
%LPC*%
G36*
X58345Y15701D02*
X58345Y15701D01*
X58345Y21719D01*
X63863Y21719D01*
X63863Y17908D01*
X63690Y17261D01*
X63355Y16682D01*
X62882Y16209D01*
X62303Y15874D01*
X61656Y15701D01*
X58345Y15701D01*
G37*
%LPD*%
%LPC*%
G36*
X49781Y24765D02*
X49781Y24765D01*
X49781Y28576D01*
X49954Y29223D01*
X50289Y29802D01*
X50762Y30275D01*
X51341Y30610D01*
X51988Y30783D01*
X55299Y30783D01*
X55299Y24765D01*
X49781Y24765D01*
G37*
%LPD*%
%LPC*%
G36*
X17345Y15701D02*
X17345Y15701D01*
X17345Y21719D01*
X22863Y21719D01*
X22863Y17907D01*
X22690Y17261D01*
X22355Y16682D01*
X21882Y16209D01*
X21303Y15874D01*
X20656Y15701D01*
X17345Y15701D01*
G37*
%LPD*%
%LPC*%
G36*
X51988Y15701D02*
X51988Y15701D01*
X51341Y15874D01*
X50762Y16209D01*
X50289Y16682D01*
X49954Y17261D01*
X49781Y17908D01*
X49781Y21719D01*
X55299Y21719D01*
X55299Y15701D01*
X51988Y15701D01*
G37*
%LPD*%
%LPC*%
G36*
X10988Y15701D02*
X10988Y15701D01*
X10341Y15874D01*
X9762Y16209D01*
X9289Y16682D01*
X8954Y17261D01*
X8781Y17908D01*
X8781Y21719D01*
X14299Y21719D01*
X14299Y15701D01*
X10988Y15701D01*
G37*
%LPD*%
%LPC*%
G36*
X32718Y145984D02*
X32718Y145984D01*
X32718Y149876D01*
X33484Y149876D01*
X34488Y149607D01*
X35387Y149088D01*
X35974Y148500D01*
X35990Y148489D01*
X36003Y148473D01*
X36090Y148417D01*
X36174Y148357D01*
X36193Y148351D01*
X36210Y148340D01*
X36310Y148315D01*
X36409Y148285D01*
X36429Y148285D01*
X36448Y148280D01*
X36551Y148288D01*
X36655Y148291D01*
X36674Y148298D01*
X36694Y148299D01*
X36788Y148340D01*
X36886Y148375D01*
X36902Y148388D01*
X36920Y148396D01*
X37051Y148500D01*
X37638Y149088D01*
X38537Y149607D01*
X39541Y149876D01*
X40307Y149876D01*
X40307Y145984D01*
X32718Y145984D01*
G37*
%LPD*%
%LPC*%
G36*
X70310Y28559D02*
X70310Y28559D01*
X70310Y32451D01*
X77772Y32451D01*
X77772Y28559D01*
X77006Y28559D01*
X76002Y28828D01*
X75103Y29347D01*
X74579Y29871D01*
X74563Y29883D01*
X74551Y29898D01*
X74464Y29954D01*
X74380Y30015D01*
X74361Y30020D01*
X74344Y30031D01*
X74243Y30056D01*
X74144Y30087D01*
X74125Y30086D01*
X74105Y30091D01*
X74002Y30083D01*
X73899Y30081D01*
X73880Y30074D01*
X73860Y30072D01*
X73765Y30032D01*
X73668Y29996D01*
X73652Y29984D01*
X73634Y29976D01*
X73503Y29871D01*
X72979Y29347D01*
X72080Y28828D01*
X71076Y28559D01*
X70310Y28559D01*
G37*
%LPD*%
%LPC*%
G36*
X178643Y86312D02*
X178643Y86312D01*
X178643Y90504D01*
X179156Y90504D01*
X180146Y90239D01*
X181033Y89726D01*
X181757Y89002D01*
X182270Y88115D01*
X182535Y87125D01*
X182535Y86312D01*
X178643Y86312D01*
G37*
%LPD*%
%LPC*%
G36*
X157434Y23193D02*
X157434Y23193D01*
X157434Y27385D01*
X157947Y27385D01*
X158937Y27120D01*
X159824Y26607D01*
X160548Y25883D01*
X161061Y24996D01*
X161326Y24006D01*
X161326Y23193D01*
X157434Y23193D01*
G37*
%LPD*%
%LPC*%
G36*
X157434Y16303D02*
X157434Y16303D01*
X157434Y20495D01*
X161326Y20495D01*
X161326Y19682D01*
X161061Y18692D01*
X160548Y17805D01*
X159824Y17081D01*
X158937Y16568D01*
X157947Y16303D01*
X157434Y16303D01*
G37*
%LPD*%
%LPC*%
G36*
X166919Y37639D02*
X166919Y37639D01*
X165929Y37904D01*
X165042Y38417D01*
X164318Y39141D01*
X163805Y40028D01*
X163540Y41018D01*
X163540Y41831D01*
X167432Y41831D01*
X167432Y37639D01*
X166919Y37639D01*
G37*
%LPD*%
%LPC*%
G36*
X106340Y16557D02*
X106340Y16557D01*
X105350Y16822D01*
X104463Y17335D01*
X103739Y18059D01*
X103226Y18946D01*
X102961Y19936D01*
X102961Y20749D01*
X106853Y20749D01*
X106853Y16557D01*
X106340Y16557D01*
G37*
%LPD*%
%LPC*%
G36*
X139652Y155890D02*
X139652Y155890D01*
X139652Y159782D01*
X140418Y159782D01*
X141422Y159513D01*
X142321Y158994D01*
X143056Y158259D01*
X143575Y157360D01*
X143844Y156356D01*
X143844Y155890D01*
X139652Y155890D01*
G37*
%LPD*%
%LPC*%
G36*
X43005Y145984D02*
X43005Y145984D01*
X43005Y149876D01*
X43771Y149876D01*
X44775Y149607D01*
X45674Y149088D01*
X46409Y148353D01*
X46928Y147454D01*
X47197Y146450D01*
X47197Y145984D01*
X43005Y145984D01*
G37*
%LPD*%
%LPC*%
G36*
X132762Y155890D02*
X132762Y155890D01*
X132762Y156356D01*
X133031Y157360D01*
X133550Y158259D01*
X134285Y158994D01*
X135184Y159513D01*
X136188Y159782D01*
X136954Y159782D01*
X136954Y155890D01*
X132762Y155890D01*
G37*
%LPD*%
%LPC*%
G36*
X25828Y145984D02*
X25828Y145984D01*
X25828Y146450D01*
X26097Y147454D01*
X26616Y148353D01*
X27351Y149088D01*
X28250Y149607D01*
X29254Y149876D01*
X30020Y149876D01*
X30020Y145984D01*
X25828Y145984D01*
G37*
%LPD*%
%LPC*%
G36*
X151209Y38211D02*
X151209Y38211D01*
X151209Y42103D01*
X155401Y42103D01*
X155401Y41637D01*
X155132Y40633D01*
X154613Y39734D01*
X153878Y38999D01*
X152979Y38480D01*
X151975Y38211D01*
X151209Y38211D01*
G37*
%LPD*%
%LPC*%
G36*
X100374Y26781D02*
X100374Y26781D01*
X99370Y27050D01*
X98471Y27569D01*
X97736Y28304D01*
X97217Y29203D01*
X96948Y30207D01*
X96948Y30673D01*
X101140Y30673D01*
X101140Y26781D01*
X100374Y26781D01*
G37*
%LPD*%
%LPC*%
G36*
X110870Y94741D02*
X110870Y94741D01*
X110870Y94743D01*
X110872Y94743D01*
X110872Y94741D01*
X110870Y94741D01*
G37*
%LPD*%
%LPC*%
G36*
X56821Y23241D02*
X56821Y23241D01*
X56821Y23243D01*
X56823Y23243D01*
X56823Y23241D01*
X56821Y23241D01*
G37*
%LPD*%
%LPC*%
G36*
X15821Y23241D02*
X15821Y23241D01*
X15821Y23243D01*
X15823Y23243D01*
X15823Y23241D01*
X15821Y23241D01*
G37*
%LPD*%
%LPC*%
G36*
X38020Y60451D02*
X38020Y60451D01*
X38020Y60453D01*
X38022Y60453D01*
X38022Y60451D01*
X38020Y60451D01*
G37*
%LPD*%
D10*
X1651Y1270D02*
X1651Y-48710D01*
X265811Y-48710D02*
X265811Y1270D01*
X265161Y-29210D02*
X2301Y-29210D01*
X27651Y-26018D01*
X27651Y-32402D01*
X2301Y-29210D01*
X27651Y-27910D01*
X27651Y-30510D02*
X2301Y-29210D01*
X27651Y-26610D01*
X27651Y-31810D02*
X2301Y-29210D01*
X239811Y-26018D02*
X265161Y-29210D01*
X239811Y-26018D02*
X239811Y-32402D01*
X265161Y-29210D01*
X239811Y-27910D01*
X239811Y-30510D02*
X265161Y-29210D01*
X239811Y-26610D01*
X239811Y-31810D02*
X265161Y-29210D01*
D11*
X111614Y-10511D02*
X111612Y-10386D01*
X111606Y-10261D01*
X111597Y-10136D01*
X111583Y-10012D01*
X111566Y-9888D01*
X111545Y-9764D01*
X111520Y-9642D01*
X111491Y-9520D01*
X111459Y-9399D01*
X111423Y-9279D01*
X111383Y-9160D01*
X111340Y-9043D01*
X111293Y-8927D01*
X111242Y-8812D01*
X111188Y-8700D01*
X111130Y-8588D01*
X111070Y-8479D01*
X111005Y-8372D01*
X110938Y-8266D01*
X110867Y-8163D01*
X110793Y-8062D01*
X110716Y-7963D01*
X110636Y-7867D01*
X110553Y-7773D01*
X110468Y-7682D01*
X110379Y-7593D01*
X110288Y-7508D01*
X110194Y-7425D01*
X110098Y-7345D01*
X109999Y-7268D01*
X109898Y-7194D01*
X109795Y-7123D01*
X109689Y-7056D01*
X109582Y-6991D01*
X109473Y-6931D01*
X109361Y-6873D01*
X109249Y-6819D01*
X109134Y-6768D01*
X109018Y-6721D01*
X108901Y-6678D01*
X108782Y-6638D01*
X108662Y-6602D01*
X108541Y-6570D01*
X108419Y-6541D01*
X108297Y-6516D01*
X108173Y-6495D01*
X108049Y-6478D01*
X107925Y-6464D01*
X107800Y-6455D01*
X107675Y-6449D01*
X107550Y-6447D01*
X107407Y-6449D01*
X107265Y-6455D01*
X107122Y-6465D01*
X106980Y-6478D01*
X106839Y-6496D01*
X106697Y-6517D01*
X106557Y-6542D01*
X106417Y-6571D01*
X106278Y-6604D01*
X106140Y-6641D01*
X106003Y-6681D01*
X105868Y-6725D01*
X105733Y-6773D01*
X105600Y-6825D01*
X105468Y-6880D01*
X105338Y-6939D01*
X105210Y-7001D01*
X105083Y-7067D01*
X104958Y-7136D01*
X104835Y-7208D01*
X104714Y-7284D01*
X104596Y-7363D01*
X104479Y-7446D01*
X104365Y-7531D01*
X104253Y-7620D01*
X104144Y-7711D01*
X104037Y-7806D01*
X103932Y-7903D01*
X103831Y-8004D01*
X103732Y-8107D01*
X103636Y-8212D01*
X103543Y-8321D01*
X103453Y-8432D01*
X103366Y-8545D01*
X103282Y-8660D01*
X103202Y-8778D01*
X103124Y-8898D01*
X103050Y-9020D01*
X102980Y-9144D01*
X102912Y-9270D01*
X102849Y-9398D01*
X102788Y-9527D01*
X102731Y-9658D01*
X102678Y-9790D01*
X102629Y-9924D01*
X102583Y-10059D01*
X110259Y-13672D02*
X110353Y-13580D01*
X110443Y-13486D01*
X110531Y-13389D01*
X110616Y-13289D01*
X110698Y-13187D01*
X110776Y-13082D01*
X110852Y-12975D01*
X110924Y-12866D01*
X110993Y-12755D01*
X111059Y-12641D01*
X111121Y-12526D01*
X111180Y-12409D01*
X111235Y-12290D01*
X111286Y-12170D01*
X111334Y-12048D01*
X111379Y-11925D01*
X111419Y-11801D01*
X111456Y-11675D01*
X111489Y-11548D01*
X111518Y-11421D01*
X111544Y-11292D01*
X111565Y-11163D01*
X111583Y-11033D01*
X111596Y-10903D01*
X111606Y-10773D01*
X111612Y-10642D01*
X111614Y-10511D01*
X110259Y-13672D02*
X102583Y-22703D01*
X111614Y-22703D01*
X118214Y-13672D02*
X123633Y-13672D01*
X123751Y-13674D01*
X123869Y-13680D01*
X123987Y-13689D01*
X124104Y-13703D01*
X124221Y-13720D01*
X124338Y-13741D01*
X124453Y-13766D01*
X124568Y-13795D01*
X124682Y-13828D01*
X124794Y-13864D01*
X124905Y-13904D01*
X125015Y-13947D01*
X125124Y-13994D01*
X125231Y-14044D01*
X125336Y-14099D01*
X125439Y-14156D01*
X125540Y-14217D01*
X125640Y-14281D01*
X125737Y-14348D01*
X125832Y-14418D01*
X125924Y-14492D01*
X126015Y-14568D01*
X126102Y-14648D01*
X126187Y-14730D01*
X126269Y-14815D01*
X126349Y-14902D01*
X126425Y-14993D01*
X126499Y-15085D01*
X126569Y-15180D01*
X126636Y-15277D01*
X126700Y-15377D01*
X126761Y-15478D01*
X126818Y-15581D01*
X126873Y-15686D01*
X126923Y-15793D01*
X126970Y-15902D01*
X127013Y-16012D01*
X127053Y-16123D01*
X127089Y-16235D01*
X127122Y-16349D01*
X127151Y-16464D01*
X127176Y-16579D01*
X127197Y-16696D01*
X127214Y-16813D01*
X127228Y-16930D01*
X127237Y-17048D01*
X127243Y-17166D01*
X127245Y-17284D01*
X127245Y-18187D01*
X127246Y-18187D02*
X127244Y-18320D01*
X127238Y-18452D01*
X127228Y-18584D01*
X127215Y-18716D01*
X127197Y-18848D01*
X127176Y-18978D01*
X127151Y-19109D01*
X127122Y-19238D01*
X127089Y-19366D01*
X127053Y-19494D01*
X127013Y-19620D01*
X126969Y-19745D01*
X126921Y-19869D01*
X126870Y-19991D01*
X126815Y-20112D01*
X126757Y-20231D01*
X126695Y-20349D01*
X126630Y-20464D01*
X126561Y-20578D01*
X126490Y-20689D01*
X126414Y-20798D01*
X126336Y-20905D01*
X126255Y-21010D01*
X126170Y-21112D01*
X126083Y-21212D01*
X125993Y-21309D01*
X125900Y-21404D01*
X125804Y-21495D01*
X125706Y-21584D01*
X125605Y-21670D01*
X125501Y-21753D01*
X125395Y-21833D01*
X125287Y-21909D01*
X125177Y-21983D01*
X125064Y-22053D01*
X124950Y-22120D01*
X124833Y-22183D01*
X124715Y-22243D01*
X124595Y-22300D01*
X124473Y-22353D01*
X124350Y-22402D01*
X124226Y-22448D01*
X124100Y-22490D01*
X123973Y-22528D01*
X123845Y-22563D01*
X123716Y-22594D01*
X123587Y-22621D01*
X123456Y-22644D01*
X123325Y-22664D01*
X123193Y-22679D01*
X123061Y-22691D01*
X122929Y-22699D01*
X122796Y-22703D01*
X122664Y-22703D01*
X122531Y-22699D01*
X122399Y-22691D01*
X122267Y-22679D01*
X122135Y-22664D01*
X122004Y-22644D01*
X121873Y-22621D01*
X121744Y-22594D01*
X121615Y-22563D01*
X121487Y-22528D01*
X121360Y-22490D01*
X121234Y-22448D01*
X121110Y-22402D01*
X120987Y-22353D01*
X120865Y-22300D01*
X120745Y-22243D01*
X120627Y-22183D01*
X120510Y-22120D01*
X120396Y-22053D01*
X120283Y-21983D01*
X120173Y-21909D01*
X120065Y-21833D01*
X119959Y-21753D01*
X119855Y-21670D01*
X119754Y-21584D01*
X119656Y-21495D01*
X119560Y-21404D01*
X119467Y-21309D01*
X119377Y-21212D01*
X119290Y-21112D01*
X119205Y-21010D01*
X119124Y-20905D01*
X119046Y-20798D01*
X118970Y-20689D01*
X118899Y-20578D01*
X118830Y-20464D01*
X118765Y-20349D01*
X118703Y-20231D01*
X118645Y-20112D01*
X118590Y-19991D01*
X118539Y-19869D01*
X118491Y-19745D01*
X118447Y-19620D01*
X118407Y-19494D01*
X118371Y-19366D01*
X118338Y-19238D01*
X118309Y-19109D01*
X118284Y-18978D01*
X118263Y-18848D01*
X118245Y-18716D01*
X118232Y-18584D01*
X118222Y-18452D01*
X118216Y-18320D01*
X118214Y-18187D01*
X118214Y-13672D01*
X118216Y-13495D01*
X118223Y-13317D01*
X118234Y-13140D01*
X118249Y-12964D01*
X118268Y-12788D01*
X118292Y-12612D01*
X118320Y-12437D01*
X118353Y-12262D01*
X118390Y-12089D01*
X118431Y-11916D01*
X118476Y-11745D01*
X118525Y-11575D01*
X118579Y-11406D01*
X118636Y-11238D01*
X118698Y-11072D01*
X118764Y-10907D01*
X118834Y-10744D01*
X118908Y-10583D01*
X118985Y-10424D01*
X119067Y-10266D01*
X119153Y-10111D01*
X119242Y-9958D01*
X119335Y-9807D01*
X119432Y-9658D01*
X119532Y-9512D01*
X119636Y-9368D01*
X119743Y-9227D01*
X119854Y-9089D01*
X119968Y-8953D01*
X120086Y-8820D01*
X120206Y-8690D01*
X120330Y-8563D01*
X120457Y-8439D01*
X120587Y-8319D01*
X120720Y-8201D01*
X120855Y-8087D01*
X120994Y-7976D01*
X121135Y-7869D01*
X121279Y-7765D01*
X121425Y-7665D01*
X121574Y-7568D01*
X121725Y-7475D01*
X121878Y-7386D01*
X122033Y-7300D01*
X122191Y-7218D01*
X122350Y-7141D01*
X122511Y-7067D01*
X122674Y-6997D01*
X122839Y-6931D01*
X123005Y-6869D01*
X123173Y-6812D01*
X123342Y-6758D01*
X123512Y-6709D01*
X123683Y-6664D01*
X123856Y-6623D01*
X124029Y-6586D01*
X124204Y-6553D01*
X124379Y-6525D01*
X124555Y-6501D01*
X124731Y-6482D01*
X124907Y-6467D01*
X125084Y-6456D01*
X125262Y-6449D01*
X125439Y-6447D01*
X133220Y-21800D02*
X133220Y-22703D01*
X133220Y-21800D02*
X134123Y-21800D01*
X134123Y-22703D01*
X133220Y-22703D01*
X140098Y-19091D02*
X143710Y-6447D01*
X140098Y-19091D02*
X149129Y-19091D01*
X146420Y-15478D02*
X146420Y-22703D01*
X160696Y-6447D02*
X160821Y-6449D01*
X160946Y-6455D01*
X161071Y-6464D01*
X161195Y-6478D01*
X161319Y-6495D01*
X161443Y-6516D01*
X161565Y-6541D01*
X161687Y-6570D01*
X161808Y-6602D01*
X161928Y-6638D01*
X162047Y-6678D01*
X162164Y-6721D01*
X162280Y-6768D01*
X162395Y-6819D01*
X162507Y-6873D01*
X162619Y-6931D01*
X162728Y-6991D01*
X162835Y-7056D01*
X162941Y-7123D01*
X163044Y-7194D01*
X163145Y-7268D01*
X163244Y-7345D01*
X163340Y-7425D01*
X163434Y-7508D01*
X163525Y-7593D01*
X163614Y-7682D01*
X163699Y-7773D01*
X163782Y-7867D01*
X163862Y-7963D01*
X163939Y-8062D01*
X164013Y-8163D01*
X164084Y-8266D01*
X164151Y-8372D01*
X164216Y-8479D01*
X164276Y-8588D01*
X164334Y-8700D01*
X164388Y-8812D01*
X164439Y-8927D01*
X164486Y-9043D01*
X164529Y-9160D01*
X164569Y-9279D01*
X164605Y-9399D01*
X164637Y-9520D01*
X164666Y-9642D01*
X164691Y-9764D01*
X164712Y-9888D01*
X164729Y-10012D01*
X164743Y-10136D01*
X164752Y-10261D01*
X164758Y-10386D01*
X164760Y-10511D01*
X160696Y-6447D02*
X160553Y-6449D01*
X160411Y-6455D01*
X160268Y-6465D01*
X160126Y-6478D01*
X159985Y-6496D01*
X159843Y-6517D01*
X159703Y-6542D01*
X159563Y-6571D01*
X159424Y-6604D01*
X159286Y-6641D01*
X159149Y-6681D01*
X159014Y-6725D01*
X158879Y-6773D01*
X158746Y-6825D01*
X158614Y-6880D01*
X158484Y-6939D01*
X158356Y-7001D01*
X158229Y-7067D01*
X158104Y-7136D01*
X157981Y-7208D01*
X157860Y-7284D01*
X157742Y-7363D01*
X157625Y-7446D01*
X157511Y-7531D01*
X157399Y-7620D01*
X157290Y-7711D01*
X157183Y-7806D01*
X157078Y-7903D01*
X156977Y-8004D01*
X156878Y-8107D01*
X156782Y-8212D01*
X156689Y-8321D01*
X156599Y-8432D01*
X156512Y-8545D01*
X156428Y-8660D01*
X156348Y-8778D01*
X156270Y-8898D01*
X156196Y-9020D01*
X156126Y-9144D01*
X156058Y-9270D01*
X155995Y-9398D01*
X155934Y-9527D01*
X155877Y-9658D01*
X155824Y-9790D01*
X155775Y-9924D01*
X155729Y-10059D01*
X163405Y-13672D02*
X163499Y-13580D01*
X163589Y-13486D01*
X163677Y-13389D01*
X163762Y-13289D01*
X163844Y-13187D01*
X163922Y-13082D01*
X163998Y-12975D01*
X164070Y-12866D01*
X164139Y-12755D01*
X164205Y-12641D01*
X164267Y-12526D01*
X164326Y-12409D01*
X164381Y-12290D01*
X164432Y-12170D01*
X164480Y-12048D01*
X164525Y-11925D01*
X164565Y-11801D01*
X164602Y-11675D01*
X164635Y-11548D01*
X164664Y-11421D01*
X164690Y-11292D01*
X164711Y-11163D01*
X164729Y-11033D01*
X164742Y-10903D01*
X164752Y-10773D01*
X164758Y-10642D01*
X164760Y-10511D01*
X163406Y-13672D02*
X155729Y-22703D01*
X164760Y-22703D01*
D10*
X265811Y169418D02*
X329380Y169418D01*
X329380Y1270D02*
X265811Y1270D01*
X309880Y1920D02*
X309880Y168768D01*
X306688Y143418D01*
X313072Y143418D01*
X309880Y168768D01*
X308580Y143418D01*
X311180Y143418D02*
X309880Y168768D01*
X307280Y143418D01*
X312480Y143418D02*
X309880Y168768D01*
X306688Y27270D02*
X309880Y1920D01*
X306688Y27270D02*
X313072Y27270D01*
X309880Y1920D01*
X308580Y27270D01*
X311180Y27270D02*
X309880Y1920D01*
X307280Y27270D01*
X312480Y27270D02*
X309880Y1920D01*
D11*
X290729Y54196D02*
X287117Y58712D01*
X303373Y58712D01*
X303373Y63227D02*
X303373Y54196D01*
X294342Y69827D02*
X294342Y75246D01*
X294344Y75364D01*
X294350Y75482D01*
X294359Y75600D01*
X294373Y75717D01*
X294390Y75834D01*
X294411Y75951D01*
X294436Y76066D01*
X294465Y76181D01*
X294498Y76295D01*
X294534Y76407D01*
X294574Y76518D01*
X294617Y76628D01*
X294664Y76737D01*
X294714Y76844D01*
X294769Y76949D01*
X294826Y77052D01*
X294887Y77153D01*
X294951Y77253D01*
X295018Y77350D01*
X295088Y77445D01*
X295162Y77537D01*
X295238Y77628D01*
X295318Y77715D01*
X295400Y77800D01*
X295485Y77882D01*
X295572Y77962D01*
X295663Y78038D01*
X295755Y78112D01*
X295850Y78182D01*
X295947Y78249D01*
X296047Y78313D01*
X296148Y78374D01*
X296251Y78431D01*
X296356Y78486D01*
X296463Y78536D01*
X296572Y78583D01*
X296682Y78626D01*
X296793Y78666D01*
X296905Y78702D01*
X297019Y78735D01*
X297134Y78764D01*
X297249Y78789D01*
X297366Y78810D01*
X297483Y78827D01*
X297600Y78841D01*
X297718Y78850D01*
X297836Y78856D01*
X297954Y78858D01*
X298857Y78858D01*
X298857Y78859D02*
X298990Y78857D01*
X299122Y78851D01*
X299254Y78841D01*
X299386Y78828D01*
X299518Y78810D01*
X299648Y78789D01*
X299779Y78764D01*
X299908Y78735D01*
X300036Y78702D01*
X300164Y78666D01*
X300290Y78626D01*
X300415Y78582D01*
X300539Y78534D01*
X300661Y78483D01*
X300782Y78428D01*
X300901Y78370D01*
X301019Y78308D01*
X301134Y78243D01*
X301248Y78174D01*
X301359Y78103D01*
X301468Y78027D01*
X301575Y77949D01*
X301680Y77868D01*
X301782Y77783D01*
X301882Y77696D01*
X301979Y77606D01*
X302074Y77513D01*
X302165Y77417D01*
X302254Y77319D01*
X302340Y77218D01*
X302423Y77114D01*
X302503Y77008D01*
X302579Y76900D01*
X302653Y76790D01*
X302723Y76677D01*
X302790Y76563D01*
X302853Y76446D01*
X302913Y76328D01*
X302970Y76208D01*
X303023Y76086D01*
X303072Y75963D01*
X303118Y75839D01*
X303160Y75713D01*
X303198Y75586D01*
X303233Y75458D01*
X303264Y75329D01*
X303291Y75200D01*
X303314Y75069D01*
X303334Y74938D01*
X303349Y74806D01*
X303361Y74674D01*
X303369Y74542D01*
X303373Y74409D01*
X303373Y74277D01*
X303369Y74144D01*
X303361Y74012D01*
X303349Y73880D01*
X303334Y73748D01*
X303314Y73617D01*
X303291Y73486D01*
X303264Y73357D01*
X303233Y73228D01*
X303198Y73100D01*
X303160Y72973D01*
X303118Y72847D01*
X303072Y72723D01*
X303023Y72600D01*
X302970Y72478D01*
X302913Y72358D01*
X302853Y72240D01*
X302790Y72123D01*
X302723Y72009D01*
X302653Y71896D01*
X302579Y71786D01*
X302503Y71678D01*
X302423Y71572D01*
X302340Y71468D01*
X302254Y71367D01*
X302165Y71269D01*
X302074Y71173D01*
X301979Y71080D01*
X301882Y70990D01*
X301782Y70903D01*
X301680Y70818D01*
X301575Y70737D01*
X301468Y70659D01*
X301359Y70583D01*
X301248Y70512D01*
X301134Y70443D01*
X301019Y70378D01*
X300901Y70316D01*
X300782Y70258D01*
X300661Y70203D01*
X300539Y70152D01*
X300415Y70104D01*
X300290Y70060D01*
X300164Y70020D01*
X300036Y69984D01*
X299908Y69951D01*
X299779Y69922D01*
X299648Y69897D01*
X299518Y69876D01*
X299386Y69858D01*
X299254Y69845D01*
X299122Y69835D01*
X298990Y69829D01*
X298857Y69827D01*
X294342Y69827D01*
X294165Y69829D01*
X293987Y69836D01*
X293810Y69847D01*
X293634Y69862D01*
X293458Y69881D01*
X293282Y69905D01*
X293107Y69933D01*
X292932Y69966D01*
X292759Y70003D01*
X292586Y70044D01*
X292415Y70089D01*
X292245Y70138D01*
X292076Y70192D01*
X291908Y70249D01*
X291742Y70311D01*
X291577Y70377D01*
X291414Y70447D01*
X291253Y70521D01*
X291094Y70598D01*
X290936Y70680D01*
X290781Y70766D01*
X290628Y70855D01*
X290477Y70948D01*
X290328Y71045D01*
X290182Y71145D01*
X290038Y71249D01*
X289897Y71356D01*
X289759Y71467D01*
X289623Y71581D01*
X289490Y71699D01*
X289360Y71819D01*
X289233Y71943D01*
X289109Y72070D01*
X288989Y72200D01*
X288871Y72333D01*
X288757Y72468D01*
X288646Y72607D01*
X288539Y72748D01*
X288435Y72892D01*
X288335Y73038D01*
X288238Y73187D01*
X288145Y73338D01*
X288056Y73491D01*
X287970Y73646D01*
X287888Y73804D01*
X287811Y73963D01*
X287737Y74124D01*
X287667Y74287D01*
X287601Y74452D01*
X287539Y74618D01*
X287482Y74786D01*
X287428Y74955D01*
X287379Y75125D01*
X287334Y75296D01*
X287293Y75469D01*
X287256Y75642D01*
X287223Y75817D01*
X287195Y75992D01*
X287171Y76168D01*
X287152Y76344D01*
X287137Y76520D01*
X287126Y76697D01*
X287119Y76875D01*
X287117Y77052D01*
X302470Y84833D02*
X303373Y84833D01*
X302470Y84833D02*
X302470Y85736D01*
X303373Y85736D01*
X303373Y84833D01*
X298857Y91710D02*
X298724Y91712D01*
X298592Y91718D01*
X298460Y91728D01*
X298328Y91741D01*
X298196Y91759D01*
X298066Y91780D01*
X297935Y91805D01*
X297806Y91834D01*
X297678Y91867D01*
X297550Y91903D01*
X297424Y91943D01*
X297299Y91987D01*
X297175Y92035D01*
X297053Y92086D01*
X296932Y92141D01*
X296813Y92199D01*
X296695Y92261D01*
X296580Y92326D01*
X296466Y92395D01*
X296355Y92466D01*
X296246Y92542D01*
X296139Y92620D01*
X296034Y92701D01*
X295932Y92786D01*
X295832Y92873D01*
X295735Y92963D01*
X295640Y93056D01*
X295549Y93152D01*
X295460Y93250D01*
X295374Y93351D01*
X295291Y93455D01*
X295211Y93561D01*
X295135Y93669D01*
X295061Y93779D01*
X294991Y93892D01*
X294924Y94006D01*
X294861Y94123D01*
X294801Y94241D01*
X294744Y94361D01*
X294691Y94483D01*
X294642Y94606D01*
X294596Y94730D01*
X294554Y94856D01*
X294516Y94983D01*
X294481Y95111D01*
X294450Y95240D01*
X294423Y95369D01*
X294400Y95500D01*
X294380Y95631D01*
X294365Y95763D01*
X294353Y95895D01*
X294345Y96027D01*
X294341Y96160D01*
X294341Y96292D01*
X294345Y96425D01*
X294353Y96557D01*
X294365Y96689D01*
X294380Y96821D01*
X294400Y96952D01*
X294423Y97083D01*
X294450Y97212D01*
X294481Y97341D01*
X294516Y97469D01*
X294554Y97596D01*
X294596Y97722D01*
X294642Y97846D01*
X294691Y97969D01*
X294744Y98091D01*
X294801Y98211D01*
X294861Y98329D01*
X294924Y98446D01*
X294991Y98560D01*
X295061Y98673D01*
X295135Y98783D01*
X295211Y98891D01*
X295291Y98997D01*
X295374Y99101D01*
X295460Y99202D01*
X295549Y99300D01*
X295640Y99396D01*
X295735Y99489D01*
X295832Y99579D01*
X295932Y99666D01*
X296034Y99751D01*
X296139Y99832D01*
X296246Y99910D01*
X296355Y99986D01*
X296466Y100057D01*
X296580Y100126D01*
X296695Y100191D01*
X296813Y100253D01*
X296932Y100311D01*
X297053Y100366D01*
X297175Y100417D01*
X297299Y100465D01*
X297424Y100509D01*
X297550Y100549D01*
X297678Y100585D01*
X297806Y100618D01*
X297935Y100647D01*
X298066Y100672D01*
X298196Y100693D01*
X298328Y100711D01*
X298460Y100724D01*
X298592Y100734D01*
X298724Y100740D01*
X298857Y100742D01*
X298990Y100740D01*
X299122Y100734D01*
X299254Y100724D01*
X299386Y100711D01*
X299518Y100693D01*
X299648Y100672D01*
X299779Y100647D01*
X299908Y100618D01*
X300036Y100585D01*
X300164Y100549D01*
X300290Y100509D01*
X300415Y100465D01*
X300539Y100417D01*
X300661Y100366D01*
X300782Y100311D01*
X300901Y100253D01*
X301019Y100191D01*
X301134Y100126D01*
X301248Y100057D01*
X301359Y99986D01*
X301468Y99910D01*
X301575Y99832D01*
X301680Y99751D01*
X301782Y99666D01*
X301882Y99579D01*
X301979Y99489D01*
X302074Y99396D01*
X302165Y99300D01*
X302254Y99202D01*
X302340Y99101D01*
X302423Y98997D01*
X302503Y98891D01*
X302579Y98783D01*
X302653Y98673D01*
X302723Y98560D01*
X302790Y98446D01*
X302853Y98329D01*
X302913Y98211D01*
X302970Y98091D01*
X303023Y97969D01*
X303072Y97846D01*
X303118Y97722D01*
X303160Y97596D01*
X303198Y97469D01*
X303233Y97341D01*
X303264Y97212D01*
X303291Y97083D01*
X303314Y96952D01*
X303334Y96821D01*
X303349Y96689D01*
X303361Y96557D01*
X303369Y96425D01*
X303373Y96292D01*
X303373Y96160D01*
X303369Y96027D01*
X303361Y95895D01*
X303349Y95763D01*
X303334Y95631D01*
X303314Y95500D01*
X303291Y95369D01*
X303264Y95240D01*
X303233Y95111D01*
X303198Y94983D01*
X303160Y94856D01*
X303118Y94730D01*
X303072Y94606D01*
X303023Y94483D01*
X302970Y94361D01*
X302913Y94241D01*
X302853Y94123D01*
X302790Y94006D01*
X302723Y93892D01*
X302653Y93779D01*
X302579Y93669D01*
X302503Y93561D01*
X302423Y93455D01*
X302340Y93351D01*
X302254Y93250D01*
X302165Y93152D01*
X302074Y93056D01*
X301979Y92963D01*
X301882Y92873D01*
X301782Y92786D01*
X301680Y92701D01*
X301575Y92620D01*
X301468Y92542D01*
X301359Y92466D01*
X301248Y92395D01*
X301134Y92326D01*
X301019Y92261D01*
X300901Y92199D01*
X300782Y92141D01*
X300661Y92086D01*
X300539Y92035D01*
X300415Y91987D01*
X300290Y91943D01*
X300164Y91903D01*
X300036Y91867D01*
X299908Y91834D01*
X299779Y91805D01*
X299648Y91780D01*
X299518Y91759D01*
X299386Y91741D01*
X299254Y91728D01*
X299122Y91718D01*
X298990Y91712D01*
X298857Y91710D01*
X290729Y92614D02*
X290610Y92616D01*
X290490Y92622D01*
X290371Y92632D01*
X290253Y92646D01*
X290134Y92663D01*
X290017Y92685D01*
X289900Y92710D01*
X289785Y92740D01*
X289670Y92773D01*
X289556Y92810D01*
X289444Y92850D01*
X289333Y92895D01*
X289224Y92943D01*
X289116Y92994D01*
X289010Y93049D01*
X288906Y93108D01*
X288804Y93170D01*
X288704Y93235D01*
X288606Y93304D01*
X288510Y93376D01*
X288417Y93451D01*
X288327Y93528D01*
X288239Y93609D01*
X288154Y93693D01*
X288072Y93780D01*
X287992Y93869D01*
X287916Y93961D01*
X287842Y94055D01*
X287772Y94152D01*
X287705Y94250D01*
X287641Y94351D01*
X287581Y94455D01*
X287524Y94560D01*
X287471Y94667D01*
X287421Y94775D01*
X287375Y94885D01*
X287333Y94997D01*
X287294Y95110D01*
X287259Y95224D01*
X287228Y95339D01*
X287200Y95456D01*
X287177Y95573D01*
X287157Y95690D01*
X287141Y95809D01*
X287129Y95928D01*
X287121Y96047D01*
X287117Y96166D01*
X287117Y96286D01*
X287121Y96405D01*
X287129Y96524D01*
X287141Y96643D01*
X287157Y96762D01*
X287177Y96879D01*
X287200Y96996D01*
X287228Y97113D01*
X287259Y97228D01*
X287294Y97342D01*
X287333Y97455D01*
X287375Y97567D01*
X287421Y97677D01*
X287471Y97785D01*
X287524Y97892D01*
X287581Y97997D01*
X287641Y98101D01*
X287705Y98202D01*
X287772Y98300D01*
X287842Y98397D01*
X287916Y98491D01*
X287992Y98583D01*
X288072Y98672D01*
X288154Y98759D01*
X288239Y98843D01*
X288327Y98924D01*
X288417Y99001D01*
X288510Y99076D01*
X288606Y99148D01*
X288704Y99217D01*
X288804Y99282D01*
X288906Y99344D01*
X289010Y99403D01*
X289116Y99458D01*
X289224Y99509D01*
X289333Y99557D01*
X289444Y99602D01*
X289556Y99642D01*
X289670Y99679D01*
X289785Y99712D01*
X289900Y99742D01*
X290017Y99767D01*
X290134Y99789D01*
X290253Y99806D01*
X290371Y99820D01*
X290490Y99830D01*
X290610Y99836D01*
X290729Y99838D01*
X290848Y99836D01*
X290968Y99830D01*
X291087Y99820D01*
X291205Y99806D01*
X291324Y99789D01*
X291441Y99767D01*
X291558Y99742D01*
X291673Y99712D01*
X291788Y99679D01*
X291902Y99642D01*
X292014Y99602D01*
X292125Y99557D01*
X292234Y99509D01*
X292342Y99458D01*
X292448Y99403D01*
X292552Y99344D01*
X292654Y99282D01*
X292754Y99217D01*
X292852Y99148D01*
X292948Y99076D01*
X293041Y99001D01*
X293131Y98924D01*
X293219Y98843D01*
X293304Y98759D01*
X293386Y98672D01*
X293466Y98583D01*
X293542Y98491D01*
X293616Y98397D01*
X293686Y98300D01*
X293753Y98202D01*
X293817Y98101D01*
X293877Y97997D01*
X293934Y97892D01*
X293987Y97785D01*
X294037Y97677D01*
X294083Y97567D01*
X294125Y97455D01*
X294164Y97342D01*
X294199Y97228D01*
X294230Y97113D01*
X294258Y96996D01*
X294281Y96879D01*
X294301Y96762D01*
X294317Y96643D01*
X294329Y96524D01*
X294337Y96405D01*
X294341Y96286D01*
X294341Y96166D01*
X294337Y96047D01*
X294329Y95928D01*
X294317Y95809D01*
X294301Y95690D01*
X294281Y95573D01*
X294258Y95456D01*
X294230Y95339D01*
X294199Y95224D01*
X294164Y95110D01*
X294125Y94997D01*
X294083Y94885D01*
X294037Y94775D01*
X293987Y94667D01*
X293934Y94560D01*
X293877Y94455D01*
X293817Y94351D01*
X293753Y94250D01*
X293686Y94152D01*
X293616Y94055D01*
X293542Y93961D01*
X293466Y93869D01*
X293386Y93780D01*
X293304Y93693D01*
X293219Y93609D01*
X293131Y93528D01*
X293041Y93451D01*
X292948Y93376D01*
X292852Y93304D01*
X292754Y93235D01*
X292654Y93170D01*
X292552Y93108D01*
X292448Y93049D01*
X292342Y92994D01*
X292234Y92943D01*
X292125Y92895D01*
X292014Y92850D01*
X291902Y92810D01*
X291788Y92773D01*
X291673Y92740D01*
X291558Y92710D01*
X291441Y92685D01*
X291324Y92663D01*
X291205Y92646D01*
X291087Y92632D01*
X290968Y92622D01*
X290848Y92616D01*
X290729Y92614D01*
X290729Y107342D02*
X287117Y111858D01*
X303373Y111858D01*
X303373Y116373D02*
X303373Y107342D01*
D12*
X145371Y67242D03*
X145371Y72242D03*
X145371Y77242D03*
X145371Y82242D03*
X145371Y87242D03*
X145371Y92242D03*
X145371Y97242D03*
X145371Y102242D03*
X145371Y107242D03*
X145371Y112242D03*
X145371Y117242D03*
X145371Y122242D03*
D13*
X138371Y129242D03*
X133371Y129242D03*
X128371Y129242D03*
X123371Y129242D03*
X118371Y129242D03*
X113371Y129242D03*
X108371Y129242D03*
X103371Y129242D03*
X98371Y129242D03*
X93371Y129242D03*
X88371Y129242D03*
X83371Y129242D03*
D12*
X76371Y122242D03*
X76371Y117242D03*
X76371Y112242D03*
X76371Y107242D03*
X76371Y102242D03*
X76371Y97242D03*
X76371Y92242D03*
X76371Y87242D03*
X76371Y82242D03*
X76371Y77242D03*
X76371Y72242D03*
X76371Y67242D03*
D13*
X83371Y60242D03*
X88371Y60242D03*
X93371Y60242D03*
X98371Y60242D03*
X103371Y60242D03*
X108371Y60242D03*
X113371Y60242D03*
X118371Y60242D03*
X123371Y60242D03*
X128371Y60242D03*
X133371Y60242D03*
X138371Y60242D03*
D14*
X85408Y69279D02*
X85408Y120205D01*
X136334Y120205D01*
X136334Y69279D01*
X85408Y69279D01*
X85408Y70775D02*
X136334Y70775D01*
X136334Y72271D02*
X85408Y72271D01*
X85408Y73767D02*
X136334Y73767D01*
X136334Y75263D02*
X85408Y75263D01*
X85408Y76759D02*
X136334Y76759D01*
X136334Y78255D02*
X85408Y78255D01*
X85408Y79751D02*
X136334Y79751D01*
X136334Y81247D02*
X85408Y81247D01*
X85408Y82743D02*
X136334Y82743D01*
X136334Y84239D02*
X85408Y84239D01*
X85408Y85735D02*
X136334Y85735D01*
X136334Y87231D02*
X85408Y87231D01*
X85408Y88727D02*
X136334Y88727D01*
X136334Y90223D02*
X85408Y90223D01*
X85408Y91719D02*
X136334Y91719D01*
X136334Y93215D02*
X85408Y93215D01*
X85408Y94711D02*
X136334Y94711D01*
X136334Y96207D02*
X85408Y96207D01*
X85408Y97703D02*
X136334Y97703D01*
X136334Y99199D02*
X85408Y99199D01*
X85408Y100695D02*
X136334Y100695D01*
X136334Y102191D02*
X85408Y102191D01*
X85408Y103687D02*
X136334Y103687D01*
X136334Y105183D02*
X85408Y105183D01*
X85408Y106679D02*
X136334Y106679D01*
X136334Y108175D02*
X85408Y108175D01*
X85408Y109671D02*
X136334Y109671D01*
X136334Y111167D02*
X85408Y111167D01*
X85408Y112663D02*
X136334Y112663D01*
X136334Y114159D02*
X85408Y114159D01*
X85408Y115655D02*
X136334Y115655D01*
X136334Y117151D02*
X85408Y117151D01*
X85408Y118647D02*
X136334Y118647D01*
X136334Y120143D02*
X85408Y120143D01*
D15*
X43252Y143339D02*
X43252Y145931D01*
X43252Y143339D02*
X40060Y143339D01*
X40060Y145931D01*
X43252Y145931D01*
X40060Y137331D02*
X40060Y134739D01*
X40060Y137331D02*
X43252Y137331D01*
X43252Y134739D01*
X40060Y134739D01*
X32965Y143339D02*
X32965Y145931D01*
X32965Y143339D02*
X29773Y143339D01*
X29773Y145931D01*
X32965Y145931D01*
X29773Y137331D02*
X29773Y134739D01*
X29773Y137331D02*
X32965Y137331D01*
X32965Y134739D01*
X29773Y134739D01*
X90496Y43823D02*
X90496Y41231D01*
X87304Y41231D01*
X87304Y43823D01*
X90496Y43823D01*
X87304Y35223D02*
X87304Y32631D01*
X87304Y35223D02*
X90496Y35223D01*
X90496Y32631D01*
X87304Y32631D01*
X77525Y32504D02*
X77525Y35096D01*
X80717Y35096D01*
X80717Y32504D01*
X77525Y32504D01*
X80717Y41104D02*
X80717Y43696D01*
X80717Y41104D02*
X77525Y41104D01*
X77525Y43696D01*
X80717Y43696D01*
X74974Y144598D02*
X72382Y144598D01*
X74974Y144598D02*
X74974Y141406D01*
X72382Y141406D01*
X72382Y144598D01*
X72382Y144074D02*
X74974Y144074D01*
X80982Y141406D02*
X83574Y141406D01*
X80982Y141406D02*
X80982Y144598D01*
X83574Y144598D01*
X83574Y141406D01*
X83574Y144074D02*
X80982Y144074D01*
X172331Y135327D02*
X174923Y135327D01*
X174923Y132135D01*
X172331Y132135D01*
X172331Y135327D01*
X172331Y134803D02*
X174923Y134803D01*
X180931Y132135D02*
X183523Y132135D01*
X180931Y132135D02*
X180931Y135327D01*
X183523Y135327D01*
X183523Y132135D01*
X183523Y134803D02*
X180931Y134803D01*
X165616Y132135D02*
X163024Y132135D01*
X163024Y135327D01*
X165616Y135327D01*
X165616Y132135D01*
X165616Y134803D02*
X163024Y134803D01*
X157016Y135327D02*
X154424Y135327D01*
X157016Y135327D02*
X157016Y132135D01*
X154424Y132135D01*
X154424Y135327D01*
X154424Y134803D02*
X157016Y134803D01*
X136707Y144645D02*
X136707Y147237D01*
X139899Y147237D01*
X139899Y144645D01*
X136707Y144645D01*
X139899Y153245D02*
X139899Y155837D01*
X139899Y153245D02*
X136707Y153245D01*
X136707Y155837D01*
X139899Y155837D01*
X91749Y148507D02*
X91749Y145915D01*
X91749Y148507D02*
X94941Y148507D01*
X94941Y145915D01*
X91749Y145915D01*
X94941Y154515D02*
X94941Y157107D01*
X94941Y154515D02*
X91749Y154515D01*
X91749Y157107D01*
X94941Y157107D01*
X104085Y41918D02*
X104085Y39326D01*
X100893Y39326D01*
X100893Y41918D01*
X104085Y41918D01*
X100893Y33318D02*
X100893Y30726D01*
X100893Y33318D02*
X104085Y33318D01*
X104085Y30726D01*
X100893Y30726D01*
X70557Y41104D02*
X70557Y43696D01*
X70557Y41104D02*
X67365Y41104D01*
X67365Y43696D01*
X70557Y43696D01*
X67365Y35096D02*
X67365Y32504D01*
X67365Y35096D02*
X70557Y35096D01*
X70557Y32504D01*
X67365Y32504D01*
D16*
X59221Y55852D02*
X54221Y55852D01*
X54221Y65052D01*
X59221Y65052D01*
X59221Y55852D01*
X59221Y60602D02*
X54221Y60602D01*
X40521Y65052D02*
X35521Y65052D01*
X40521Y65052D02*
X40521Y55852D01*
X35521Y55852D01*
X35521Y65052D01*
X35521Y60602D02*
X40521Y60602D01*
X39378Y107470D02*
X34378Y107470D01*
X39378Y107470D02*
X39378Y98270D01*
X34378Y98270D01*
X34378Y107470D01*
X34378Y103020D02*
X39378Y103020D01*
X53078Y98270D02*
X58078Y98270D01*
X53078Y98270D02*
X53078Y107470D01*
X58078Y107470D01*
X58078Y98270D01*
X58078Y103020D02*
X53078Y103020D01*
D15*
X113737Y41918D02*
X113737Y39326D01*
X110545Y39326D01*
X110545Y41918D01*
X113737Y41918D01*
X110545Y33318D02*
X110545Y30726D01*
X110545Y33318D02*
X113737Y33318D01*
X113737Y30726D01*
X110545Y30726D01*
X151456Y50756D02*
X151456Y53348D01*
X151456Y50756D02*
X148264Y50756D01*
X148264Y53348D01*
X151456Y53348D01*
X148264Y44748D02*
X148264Y42156D01*
X148264Y44748D02*
X151456Y44748D01*
X151456Y42156D01*
X148264Y42156D01*
D17*
X53625Y123976D02*
X53625Y127848D01*
X58897Y127848D01*
X58897Y123976D01*
X53625Y123976D01*
X53625Y127804D02*
X58897Y127804D01*
X58897Y140376D02*
X58897Y144248D01*
X58897Y140376D02*
X53625Y140376D01*
X53625Y144248D01*
X58897Y144248D01*
X58897Y144204D02*
X53625Y144204D01*
D16*
X53205Y76680D02*
X58205Y76680D01*
X53205Y76680D02*
X53205Y85880D01*
X58205Y85880D01*
X58205Y76680D01*
X58205Y81430D02*
X53205Y81430D01*
X39505Y85880D02*
X34505Y85880D01*
X39505Y85880D02*
X39505Y76680D01*
X34505Y76680D01*
X34505Y85880D01*
X34505Y81430D02*
X39505Y81430D01*
D18*
X181537Y149352D03*
X156537Y149352D03*
D19*
X138211Y25643D03*
X138211Y40143D03*
X126711Y40143D03*
X126711Y25643D03*
D20*
X210606Y145968D03*
D21*
X210606Y124968D03*
D22*
X169877Y73026D02*
X167177Y73026D01*
X167177Y76326D01*
X169877Y76326D01*
X169877Y73026D01*
X169877Y75591D02*
X167177Y75591D01*
X175817Y73026D02*
X178517Y73026D01*
X175817Y73026D02*
X175817Y76326D01*
X178517Y76326D01*
X178517Y73026D01*
X178517Y75591D02*
X175817Y75591D01*
X170004Y83313D02*
X167304Y83313D01*
X167304Y86613D01*
X170004Y86613D01*
X170004Y83313D01*
X170004Y85878D02*
X167304Y85878D01*
X175944Y83313D02*
X178644Y83313D01*
X175944Y83313D02*
X175944Y86613D01*
X178644Y86613D01*
X178644Y83313D01*
X178644Y85878D02*
X175944Y85878D01*
X176071Y44830D02*
X178771Y44830D01*
X178771Y41530D01*
X176071Y41530D01*
X176071Y44830D01*
X176071Y44095D02*
X178771Y44095D01*
X170131Y44830D02*
X167431Y44830D01*
X170131Y44830D02*
X170131Y41530D01*
X167431Y41530D01*
X167431Y44830D01*
X167431Y44095D02*
X170131Y44095D01*
X170004Y62358D02*
X167304Y62358D01*
X167304Y65658D01*
X170004Y65658D01*
X170004Y62358D01*
X170004Y64923D02*
X167304Y64923D01*
X175944Y62358D02*
X178644Y62358D01*
X175944Y62358D02*
X175944Y65658D01*
X178644Y65658D01*
X178644Y62358D01*
X178644Y64923D02*
X175944Y64923D01*
X194486Y60578D02*
X197186Y60578D01*
X197186Y57278D01*
X194486Y57278D01*
X194486Y60578D01*
X194486Y59843D02*
X197186Y59843D01*
X188546Y60578D02*
X185846Y60578D01*
X188546Y60578D02*
X188546Y57278D01*
X185846Y57278D01*
X185846Y60578D01*
X185846Y59843D02*
X188546Y59843D01*
X197230Y96565D02*
X197230Y99265D01*
X197230Y96565D02*
X193930Y96565D01*
X193930Y99265D01*
X197230Y99265D01*
X197230Y99130D02*
X193930Y99130D01*
X197230Y105205D02*
X197230Y107905D01*
X197230Y105205D02*
X193930Y105205D01*
X193930Y107905D01*
X197230Y107905D01*
X197230Y107770D02*
X193930Y107770D01*
X196324Y113190D02*
X198315Y115014D01*
X196324Y113190D02*
X194095Y115622D01*
X196086Y117446D01*
X198315Y115014D01*
X197636Y115755D02*
X194240Y115755D01*
X202694Y119028D02*
X204685Y120852D01*
X202694Y119028D02*
X200465Y121460D01*
X202456Y123284D01*
X204685Y120852D01*
X204006Y121593D02*
X200610Y121593D01*
X170004Y52071D02*
X167304Y52071D01*
X167304Y55371D01*
X170004Y55371D01*
X170004Y52071D01*
X170004Y54636D02*
X167304Y54636D01*
X175944Y52071D02*
X178644Y52071D01*
X175944Y52071D02*
X175944Y55371D01*
X178644Y55371D01*
X178644Y52071D01*
X178644Y54636D02*
X175944Y54636D01*
X185719Y67692D02*
X188419Y67692D01*
X185719Y67692D02*
X185719Y70992D01*
X188419Y70992D01*
X188419Y67692D01*
X188419Y70257D02*
X185719Y70257D01*
X194359Y67692D02*
X197059Y67692D01*
X194359Y67692D02*
X194359Y70992D01*
X197059Y70992D01*
X197059Y67692D01*
X197059Y70257D02*
X194359Y70257D01*
X197103Y78023D02*
X197103Y80723D01*
X197103Y78023D02*
X193803Y78023D01*
X193803Y80723D01*
X197103Y80723D01*
X197103Y80588D02*
X193803Y80588D01*
X197103Y86663D02*
X197103Y89363D01*
X197103Y86663D02*
X193803Y86663D01*
X193803Y89363D01*
X197103Y89363D01*
X197103Y89228D02*
X193803Y89228D01*
D21*
X210566Y124968D03*
D22*
X157435Y23494D02*
X154735Y23494D01*
X157435Y23494D02*
X157435Y20194D01*
X154735Y20194D01*
X154735Y23494D01*
X154735Y22759D02*
X157435Y22759D01*
X148795Y23494D02*
X146095Y23494D01*
X148795Y23494D02*
X148795Y20194D01*
X146095Y20194D01*
X146095Y23494D01*
X146095Y22759D02*
X148795Y22759D01*
X118192Y23748D02*
X115492Y23748D01*
X118192Y23748D02*
X118192Y20448D01*
X115492Y20448D01*
X115492Y23748D01*
X115492Y23013D02*
X118192Y23013D01*
X109552Y23748D02*
X106852Y23748D01*
X109552Y23748D02*
X109552Y20448D01*
X106852Y20448D01*
X106852Y23748D01*
X106852Y23013D02*
X109552Y23013D01*
D20*
X210566Y145923D03*
D23*
X56822Y39242D03*
X56822Y23242D03*
X15822Y23242D03*
X15822Y39242D03*
D22*
X166923Y18035D02*
X169623Y18035D01*
X166923Y18035D02*
X166923Y21335D01*
X169623Y21335D01*
X169623Y18035D01*
X169623Y20600D02*
X166923Y20600D01*
X175563Y18035D02*
X178263Y18035D01*
X175563Y18035D02*
X175563Y21335D01*
X178263Y21335D01*
X178263Y18035D01*
X178263Y20600D02*
X175563Y20600D01*
D24*
X191833Y12136D02*
X191833Y5136D01*
X191833Y12136D02*
X198833Y12136D01*
X198833Y5136D01*
X191833Y5136D01*
X191833Y7986D02*
X198833Y7986D01*
X198833Y10836D02*
X191833Y10836D01*
X174293Y12136D02*
X174293Y5136D01*
X174293Y12136D02*
X181293Y12136D01*
X181293Y5136D01*
X174293Y5136D01*
X174293Y7986D02*
X181293Y7986D01*
X181293Y10836D02*
X174293Y10836D01*
D25*
X112903Y2286D03*
X125603Y2286D03*
X138303Y2286D03*
X151003Y2286D03*
X163703Y2286D03*
X100203Y2286D03*
X87503Y2286D03*
X74803Y2286D03*
X62103Y2286D03*
X49403Y2286D03*
X36703Y2286D03*
X24003Y2286D03*
X11303Y2286D03*
X112903Y168656D03*
X125603Y168656D03*
X138303Y168656D03*
X151003Y168656D03*
X163703Y168656D03*
X100203Y168656D03*
X87503Y168656D03*
X74803Y168656D03*
X62103Y168656D03*
X49403Y168656D03*
X36703Y168656D03*
X24003Y168656D03*
X11303Y168656D03*
X3048Y78994D03*
X3048Y66294D03*
X3048Y53594D03*
X3048Y40894D03*
X3048Y28194D03*
X3048Y91694D03*
X3048Y104394D03*
X3048Y117094D03*
X3048Y129794D03*
X3048Y142494D03*
D11*
X133350Y60221D02*
X133371Y60242D01*
X133350Y60221D02*
X133477Y60094D01*
X133371Y60242D02*
X133371Y53827D01*
X137668Y49530D02*
X140970Y49530D01*
X144780Y45720D01*
X144780Y32212D02*
X138211Y25643D01*
X137668Y49530D02*
X133371Y53827D01*
X144780Y45720D02*
X144780Y32212D01*
X143646Y25643D02*
X138211Y25643D01*
X143646Y25643D02*
X147445Y21844D01*
X128117Y59988D02*
X128371Y60242D01*
X128371Y48361D01*
X126711Y46701D02*
X126711Y40143D01*
X126711Y46701D02*
X128371Y48361D01*
X126711Y40143D02*
X124784Y38216D01*
X121613Y32419D01*
X117889Y28695D01*
X117889Y24012D01*
X116842Y22098D01*
X145371Y82242D02*
X145498Y82369D01*
X158325Y82369D01*
X161036Y85080D01*
X161036Y122428D01*
X155702Y127762D01*
X155702Y133713D01*
X155720Y133731D01*
X155720Y148535D01*
X156537Y149352D01*
X148362Y77242D02*
X145371Y77242D01*
X157149Y77242D01*
X163830Y83923D01*
X182227Y133731D02*
X182227Y148662D01*
X181537Y149352D01*
X170053Y125603D02*
X163830Y119380D01*
X170053Y125603D02*
X178308Y125603D01*
X182227Y129522D01*
X163830Y119380D02*
X163830Y83923D01*
X182227Y129522D02*
X182227Y133731D01*
X88900Y42527D02*
X79248Y42527D01*
X79121Y42400D01*
X76173Y72044D02*
X76371Y72242D01*
D26*
X65532Y65405D03*
D11*
X65532Y66929D01*
X70647Y72044D02*
X76173Y72044D01*
X70647Y72044D02*
X65532Y66929D01*
X65532Y65405D02*
X65532Y59730D01*
X79248Y46014D02*
X79248Y42527D01*
X79248Y46014D02*
X65532Y59730D01*
D27*
X56667Y82242D02*
X76371Y82242D01*
X56667Y82242D02*
X55705Y81280D01*
D28*
X117865Y36204D03*
D27*
X123371Y50854D02*
X123371Y60242D01*
X113139Y40622D02*
X112141Y40622D01*
X113139Y40622D02*
X123371Y50854D01*
X113448Y40622D02*
X112141Y40622D01*
D29*
X113448Y40622D02*
X117865Y36204D01*
D27*
X138371Y60242D02*
X141670Y60242D01*
X149860Y52052D01*
D30*
X36878Y102870D02*
X35433Y101425D01*
D31*
X149606Y59309D02*
X149860Y59055D01*
X149860Y52052D01*
D28*
X149606Y59309D03*
D30*
X36878Y92202D02*
X36878Y102870D01*
X38148Y92329D02*
X38148Y82423D01*
X37005Y81280D01*
X38021Y92202D02*
X38148Y92329D01*
X34925Y92202D02*
X29972Y92202D01*
D28*
X34925Y92202D03*
X29591Y92202D03*
D30*
X34925Y92202D02*
X35052Y92329D01*
D28*
X40259Y92202D03*
D30*
X36878Y92202D02*
X34925Y92202D01*
X38021Y92202D02*
X40259Y92202D01*
D11*
X38021Y92202D02*
X29591Y92202D01*
D28*
X66675Y145034D03*
D27*
X63953Y142312D02*
X56261Y142312D01*
D31*
X63953Y142312D02*
X66675Y145034D01*
D27*
X70003Y77242D02*
X76371Y77242D01*
D32*
X56721Y63960D02*
X56721Y60452D01*
D27*
X56721Y63960D02*
X70003Y77242D01*
D29*
X65532Y53800D02*
X65532Y53467D01*
X65532Y53800D02*
X58880Y60452D01*
D27*
X56721Y60452D01*
D28*
X65532Y53467D03*
X69215Y49530D03*
D29*
X69215Y42654D01*
D27*
X68961Y42400D01*
X118371Y52458D02*
X118371Y60242D01*
D28*
X95631Y40513D03*
X66675Y139319D03*
D31*
X65151Y140843D01*
D33*
X57730Y140843D01*
D11*
X56261Y142312D01*
D29*
X69215Y49784D02*
X69215Y49530D01*
X69215Y49784D02*
X65532Y53467D01*
D27*
X95631Y40513D02*
X95740Y40622D01*
D31*
X102489Y40622D01*
D27*
X108679Y46116D02*
X112029Y46116D01*
X103185Y40622D02*
X102489Y40622D01*
X103185Y40622D02*
X108679Y46116D01*
X112029Y46116D02*
X118371Y52458D01*
X138371Y129242D02*
X138371Y136953D01*
X138775Y137357D01*
X138775Y145469D01*
X138303Y145941D01*
D34*
X143891Y140589D03*
D31*
X143655Y140589D02*
X138303Y145941D01*
X143655Y140589D02*
X143891Y140589D01*
D27*
X93371Y129242D02*
X93345Y129268D01*
X93345Y147211D01*
D31*
X91549Y147211D01*
D34*
X87249Y151384D03*
D31*
X87376Y151384D01*
X91549Y147211D01*
D28*
X124206Y108077D03*
X110871Y94742D03*
X97536Y108077D03*
X110871Y108077D03*
X124206Y94742D03*
X124206Y81407D03*
X110871Y81407D03*
X97536Y81407D03*
X97536Y94742D03*
D26*
X163830Y126111D03*
D28*
X64643Y133477D03*
D26*
X95377Y28575D03*
X150114Y35560D03*
D28*
X97536Y118491D03*
X110490Y118618D03*
X124206Y118491D03*
X97409Y70866D03*
X110871Y70866D03*
X124460Y70866D03*
D34*
X209550Y6350D03*
X209550Y12700D03*
X209550Y19050D03*
X209550Y25400D03*
X209550Y31750D03*
X209550Y38100D03*
X209550Y44450D03*
X209550Y50800D03*
X209550Y57150D03*
X209550Y63500D03*
X209550Y69850D03*
X209550Y76200D03*
X209550Y82550D03*
X209550Y88900D03*
X209550Y95250D03*
X209550Y101600D03*
X209550Y107950D03*
X209550Y114300D03*
X162560Y58420D03*
X162560Y40640D03*
X162560Y49530D03*
X184150Y31750D03*
X184150Y38100D03*
X209550Y132080D03*
X209550Y158750D03*
X209550Y165100D03*
X203200Y165100D03*
X196850Y165100D03*
X190500Y165100D03*
X190500Y158750D03*
X190500Y152400D03*
X190500Y146050D03*
X190500Y139700D03*
X190500Y133350D03*
X187706Y128778D03*
X184150Y124460D03*
X179705Y120142D03*
X168910Y115570D03*
X168910Y109220D03*
X168910Y102870D03*
X175260Y102870D03*
X187833Y102743D03*
X187706Y109474D03*
X184150Y114300D03*
D26*
X196850Y19050D03*
X203200Y19050D03*
X203200Y25400D03*
X203200Y31750D03*
X203200Y38100D03*
X203200Y44450D03*
X196850Y31750D03*
X196850Y25400D03*
X190500Y31750D03*
X190500Y38100D03*
X190500Y44450D03*
X196850Y38100D03*
X203200Y50800D03*
X203200Y57150D03*
X203200Y63500D03*
X203200Y69850D03*
X203200Y76200D03*
X203200Y82550D03*
X203200Y88900D03*
X203200Y95250D03*
X203200Y101600D03*
X203200Y107950D03*
X203200Y132080D03*
X196850Y132080D03*
X196850Y138430D03*
X203200Y138430D03*
X203200Y144780D03*
X196850Y144780D03*
X196850Y151130D03*
X203200Y151130D03*
X196850Y158750D03*
X203200Y158750D03*
D34*
X210439Y146050D03*
D11*
X210524Y146050D02*
X210606Y145968D01*
X210524Y146050D02*
X210439Y146050D01*
X210606Y145968D02*
X209418Y144780D01*
X138211Y40143D02*
X126711Y25643D01*
D26*
X188468Y76454D03*
X190500Y18796D03*
X190500Y25400D03*
X184023Y18796D03*
X184150Y25400D03*
D34*
X181991Y102743D03*
X175387Y108966D03*
X175514Y115570D03*
X168910Y96520D03*
X175260Y96393D03*
X182245Y96393D03*
X188087Y96393D03*
X188341Y89281D03*
X188468Y82804D03*
X177292Y31750D03*
X170561Y31877D03*
X163703Y31750D03*
X193167Y124460D03*
X187960Y119761D03*
X203962Y6350D03*
X203835Y12700D03*
X183896Y164973D03*
X177165Y165100D03*
X36322Y23368D03*
X37846Y45847D03*
X21717Y92075D03*
D27*
X88371Y129242D02*
X88371Y136909D01*
X82278Y143002D01*
D35*
X56261Y125912D02*
X56007Y126166D01*
X40060Y126166D01*
X40005Y126111D01*
D28*
X40005Y126111D03*
X34417Y125984D03*
D35*
X39243Y125984D02*
X40894Y125984D01*
X39243Y125984D02*
X34417Y125984D01*
D31*
X31369Y136035D02*
X41656Y136035D01*
D35*
X41656Y126746D01*
D31*
X40894Y125984D01*
X40005Y126111D02*
X39370Y126111D01*
X39243Y125984D01*
D26*
X75057Y15494D03*
D11*
X88900Y29337D01*
X88900Y33927D01*
X76371Y122242D02*
X68267Y122242D01*
X68072Y122047D01*
D26*
X68072Y122047D03*
D11*
X77680Y129242D02*
X83371Y129242D01*
X77680Y129242D02*
X77597Y129159D01*
D26*
X77597Y129159D03*
D36*
X145371Y67242D02*
X155897Y67242D01*
X159131Y64008D01*
X168654Y64008D01*
D27*
X168654Y53721D01*
X168527Y74676D02*
X168527Y75919D01*
D36*
X157205Y72242D02*
X145371Y72242D01*
X157205Y72242D02*
X159639Y74676D01*
X168527Y74676D01*
D27*
X168910Y75059D01*
X168527Y74676D02*
X168527Y84836D01*
X168654Y84963D01*
X177167Y74676D02*
X187069Y69342D01*
X177294Y64008D01*
X177294Y53721D02*
X177421Y53594D01*
X177421Y43180D01*
X195580Y114694D02*
X196205Y115318D01*
X195580Y114694D02*
X195580Y106555D01*
D31*
X206388Y124968D02*
X210606Y124968D01*
X206388Y124968D02*
X202575Y121156D01*
D27*
X195709Y69342D02*
X195834Y69217D01*
X195709Y69342D02*
X195453Y69598D01*
X195453Y79373D01*
X195709Y59055D02*
X195836Y58928D01*
X195709Y59055D02*
X195709Y69342D01*
X195453Y88013D02*
X195453Y97788D01*
X195580Y97915D01*
D37*
X153329Y92242D02*
X145371Y92242D01*
X153329Y92242D02*
X153416Y92329D01*
D26*
X153416Y92329D03*
D37*
X156591Y97242D02*
X145371Y97242D01*
X156591Y97242D02*
X156591Y97155D01*
D26*
X156591Y97155D03*
D37*
X153409Y102242D02*
X145371Y102242D01*
X153409Y102242D02*
X153543Y102108D01*
D26*
X153543Y102108D03*
D37*
X156518Y107242D02*
X145371Y107242D01*
X156518Y107242D02*
X156718Y107442D01*
D26*
X156718Y107442D03*
D37*
X153517Y112242D02*
X145371Y112242D01*
X153517Y112242D02*
X153543Y112268D01*
D26*
X153543Y112268D03*
D37*
X154834Y117242D02*
X145371Y117242D01*
X154834Y117242D02*
X155702Y118110D01*
D26*
X155702Y118110D03*
D11*
X133371Y129242D02*
X133371Y139446D01*
X133731Y139446D01*
D26*
X133731Y139446D03*
D11*
X128371Y137313D02*
X128371Y129242D01*
X128371Y137313D02*
X128270Y137414D01*
D26*
X128270Y137414D03*
D11*
X123371Y140662D02*
X123371Y129242D01*
X123371Y140662D02*
X123317Y140716D01*
D26*
X123317Y140716D03*
D11*
X118371Y136899D02*
X118371Y129242D01*
X118371Y136899D02*
X118110Y137160D01*
D26*
X118110Y137160D03*
X113538Y140843D03*
D11*
X113371Y140676D02*
X113371Y129242D01*
X113371Y140676D02*
X113538Y140843D01*
X108371Y136993D02*
X108371Y129242D01*
X108371Y136993D02*
X108331Y137033D01*
D26*
X108331Y137033D03*
D11*
X108331Y137047D01*
X17399Y39242D02*
X15822Y39242D01*
X17399Y39242D02*
X36575Y39242D01*
X36703Y39370D01*
X56694Y39370D02*
X56822Y39242D01*
X16383Y153035D02*
X24384Y161036D01*
X16383Y153035D02*
X16383Y40258D01*
X17399Y39242D01*
X24384Y161036D02*
X92583Y161036D01*
X56566Y39242D02*
X36575Y39242D01*
X56566Y39242D02*
X56694Y39370D01*
X92583Y161036D02*
X100203Y168656D01*
X103371Y140201D02*
X103371Y129242D01*
X103371Y140201D02*
X103632Y140462D01*
D26*
X103632Y140462D03*
D11*
X98371Y137360D02*
X98371Y129242D01*
X98371Y137360D02*
X98425Y137414D01*
D26*
X98425Y137414D03*
D11*
X76371Y117242D02*
X76244Y117369D01*
X65172Y117369D02*
X64389Y116586D01*
X65172Y117369D02*
X76244Y117369D01*
D26*
X64389Y116586D03*
D11*
X68427Y112242D02*
X76371Y112242D01*
X68427Y112242D02*
X68199Y112014D01*
D26*
X68199Y112014D03*
D11*
X64843Y107242D02*
X76371Y107242D01*
X64843Y107242D02*
X64643Y107442D01*
D26*
X64643Y107442D03*
D11*
X68079Y102242D02*
X76371Y102242D01*
X68079Y102242D02*
X67945Y102108D01*
D26*
X67945Y102108D03*
D11*
X64302Y97242D02*
X76371Y97242D01*
X64302Y97242D02*
X64262Y97282D01*
D26*
X64262Y97282D03*
D11*
X68540Y92242D02*
X76371Y92242D01*
X68540Y92242D02*
X68453Y92329D01*
D26*
X68453Y92329D03*
D11*
X64777Y87242D02*
X76371Y87242D01*
X64777Y87242D02*
X64135Y87884D01*
D26*
X64135Y87884D03*
D11*
X71814Y67242D02*
X76371Y67242D01*
X71814Y67242D02*
X69850Y65278D01*
X69850Y61468D01*
D26*
X69850Y61468D03*
D11*
X82311Y59182D02*
X83371Y60242D01*
X77172Y60242D02*
X76708Y60706D01*
D26*
X76708Y60706D03*
D11*
X77172Y60242D02*
X83371Y60242D01*
X88371Y60242D02*
X88371Y55859D01*
X86106Y53594D02*
X77978Y53594D01*
X77216Y54356D01*
X86106Y53594D02*
X88371Y55859D01*
D26*
X77216Y54356D03*
X85852Y48641D03*
D11*
X85852Y48651D02*
X93371Y56170D01*
X85852Y48651D02*
X85852Y48641D01*
X93371Y56170D02*
X93371Y60242D01*
X98371Y60242D02*
X98371Y55572D01*
X93980Y51181D01*
X93980Y50673D01*
D26*
X93980Y50673D03*
D11*
X103371Y55375D02*
X103371Y60242D01*
D26*
X97790Y46228D03*
D11*
X99330Y47768D01*
X99330Y51334D01*
X103371Y55375D01*
D26*
X103632Y49403D03*
D11*
X103394Y50826D02*
X108008Y55439D01*
X103394Y49641D02*
X103632Y49403D01*
X103394Y49641D02*
X103394Y50826D01*
X108008Y55439D02*
X108371Y60242D01*
X113371Y60242D02*
X113371Y54519D01*
X110008Y51156D01*
D26*
X110236Y51562D03*
D11*
X109919Y51245D02*
X110008Y51156D01*
X109919Y51245D02*
X110236Y51562D01*
D37*
X145371Y87242D02*
X156584Y87242D01*
X156591Y87249D01*
D26*
X156591Y87249D03*
D37*
X152341Y122242D02*
X145371Y122242D01*
X152341Y122242D02*
X153670Y123571D01*
D26*
X153670Y123571D03*
D11*
X158240Y9652D02*
X79629Y9652D01*
X74803Y4826D01*
X158240Y9652D02*
X168273Y19685D01*
X74803Y4826D02*
X74803Y2286D01*
X176913Y19685D02*
X177793Y18805D01*
X177793Y8636D01*
M02*
