G04 EAGLE Gerber RS-274X export*
G75*
%MOMM*%
%FSLAX34Y34*%
%LPD*%
%INCopper Layer 15*%
%IPPOS*%
%AMOC8*
5,1,8,0,0,1.08239X$1,22.5*%
G01*
%ADD10C,1.050000*%
%ADD11C,0.403200*%
%ADD12C,0.457200*%
%ADD13C,0.453200*%

G36*
X211978Y3255D02*
X211978Y3255D01*
X211997Y3253D01*
X212099Y3275D01*
X212201Y3291D01*
X212218Y3301D01*
X212238Y3305D01*
X212327Y3358D01*
X212418Y3407D01*
X212432Y3421D01*
X212449Y3431D01*
X212516Y3510D01*
X212588Y3585D01*
X212596Y3603D01*
X212609Y3618D01*
X212648Y3714D01*
X212691Y3808D01*
X212693Y3828D01*
X212701Y3846D01*
X212719Y4013D01*
X212719Y166675D01*
X212716Y166695D01*
X212718Y166714D01*
X212696Y166816D01*
X212680Y166918D01*
X212670Y166935D01*
X212666Y166955D01*
X212613Y167044D01*
X212564Y167135D01*
X212550Y167149D01*
X212540Y167166D01*
X212461Y167233D01*
X212386Y167305D01*
X212368Y167313D01*
X212353Y167326D01*
X212257Y167365D01*
X212163Y167408D01*
X212143Y167410D01*
X212125Y167418D01*
X211958Y167436D01*
X170764Y167436D01*
X170650Y167417D01*
X170533Y167400D01*
X170528Y167398D01*
X170522Y167397D01*
X170419Y167342D01*
X170314Y167289D01*
X170310Y167284D01*
X170304Y167281D01*
X170224Y167197D01*
X170142Y167113D01*
X170138Y167107D01*
X170135Y167103D01*
X170127Y167086D01*
X170061Y166966D01*
X169231Y164962D01*
X167397Y163128D01*
X165000Y162135D01*
X162406Y162135D01*
X160009Y163128D01*
X158175Y164962D01*
X158056Y165249D01*
X158019Y165310D01*
X157989Y165375D01*
X157954Y165414D01*
X157927Y165458D01*
X157872Y165504D01*
X157823Y165556D01*
X157777Y165582D01*
X157737Y165615D01*
X157670Y165640D01*
X157607Y165675D01*
X157556Y165684D01*
X157508Y165703D01*
X157436Y165706D01*
X157365Y165719D01*
X157314Y165711D01*
X157262Y165713D01*
X157193Y165693D01*
X157122Y165683D01*
X157076Y165659D01*
X157026Y165645D01*
X156967Y165604D01*
X156903Y165571D01*
X156866Y165534D01*
X156824Y165505D01*
X156781Y165447D01*
X156731Y165396D01*
X156696Y165333D01*
X156677Y165307D01*
X156670Y165285D01*
X156650Y165249D01*
X156531Y164962D01*
X155672Y164103D01*
X155619Y164029D01*
X155559Y163960D01*
X155547Y163929D01*
X155528Y163903D01*
X155501Y163816D01*
X155467Y163731D01*
X155463Y163691D01*
X155456Y163668D01*
X155457Y163636D01*
X155449Y163565D01*
X155449Y126756D01*
X155464Y126666D01*
X155471Y126575D01*
X155483Y126545D01*
X155489Y126513D01*
X155531Y126432D01*
X155567Y126348D01*
X155593Y126316D01*
X155604Y126296D01*
X155627Y126273D01*
X155672Y126217D01*
X156957Y124932D01*
X156957Y122060D01*
X156957Y122059D01*
X156926Y121960D01*
X156927Y121940D01*
X156922Y121921D01*
X156930Y121818D01*
X156932Y121714D01*
X156939Y121695D01*
X156941Y121676D01*
X156981Y121581D01*
X157017Y121483D01*
X157029Y121468D01*
X157037Y121449D01*
X157142Y121318D01*
X158989Y119471D01*
X158989Y116749D01*
X156888Y114648D01*
X156876Y114632D01*
X156861Y114619D01*
X156805Y114532D01*
X156744Y114448D01*
X156739Y114429D01*
X156728Y114412D01*
X156702Y114312D01*
X156672Y114213D01*
X156673Y114193D01*
X156668Y114174D01*
X156676Y114071D01*
X156678Y113967D01*
X156685Y113948D01*
X156687Y113928D01*
X156727Y113834D01*
X156763Y113736D01*
X156775Y113720D01*
X156783Y113702D01*
X156830Y113644D01*
X156830Y111490D01*
X156833Y111470D01*
X156831Y111451D01*
X156853Y111349D01*
X156869Y111247D01*
X156879Y111230D01*
X156883Y111210D01*
X156936Y111121D01*
X156985Y111030D01*
X156999Y111016D01*
X157009Y110999D01*
X157088Y110932D01*
X157163Y110860D01*
X157181Y110852D01*
X157196Y110839D01*
X157292Y110800D01*
X157386Y110757D01*
X157406Y110755D01*
X157424Y110747D01*
X157591Y110729D01*
X158079Y110729D01*
X160005Y108803D01*
X160005Y106081D01*
X158079Y104155D01*
X157591Y104155D01*
X157571Y104152D01*
X157552Y104154D01*
X157450Y104132D01*
X157348Y104116D01*
X157331Y104106D01*
X157311Y104102D01*
X157222Y104049D01*
X157131Y104000D01*
X157117Y103986D01*
X157100Y103976D01*
X157033Y103897D01*
X156961Y103822D01*
X156953Y103804D01*
X156940Y103789D01*
X156901Y103693D01*
X156858Y103599D01*
X156856Y103579D01*
X156848Y103561D01*
X156830Y103394D01*
X156830Y101203D01*
X156833Y101183D01*
X156831Y101164D01*
X156853Y101062D01*
X156869Y100960D01*
X156879Y100943D01*
X156883Y100923D01*
X156936Y100834D01*
X156985Y100743D01*
X156999Y100729D01*
X157009Y100712D01*
X157088Y100645D01*
X157163Y100573D01*
X157181Y100565D01*
X157196Y100552D01*
X157292Y100513D01*
X157386Y100470D01*
X157406Y100468D01*
X157424Y100460D01*
X157591Y100442D01*
X157952Y100442D01*
X159878Y98516D01*
X159878Y95794D01*
X157952Y93868D01*
X157464Y93868D01*
X157444Y93865D01*
X157425Y93867D01*
X157323Y93845D01*
X157221Y93829D01*
X157204Y93819D01*
X157184Y93815D01*
X157095Y93762D01*
X157004Y93713D01*
X156990Y93699D01*
X156973Y93689D01*
X156906Y93610D01*
X156834Y93535D01*
X156826Y93517D01*
X156813Y93502D01*
X156774Y93406D01*
X156731Y93312D01*
X156729Y93292D01*
X156721Y93274D01*
X156703Y93107D01*
X156703Y91297D01*
X156706Y91277D01*
X156704Y91258D01*
X156726Y91156D01*
X156742Y91054D01*
X156752Y91037D01*
X156756Y91017D01*
X156809Y90928D01*
X156858Y90837D01*
X156872Y90823D01*
X156882Y90806D01*
X156961Y90739D01*
X157036Y90667D01*
X157054Y90659D01*
X157069Y90646D01*
X157165Y90607D01*
X157259Y90564D01*
X157279Y90562D01*
X157297Y90554D01*
X157464Y90536D01*
X157952Y90536D01*
X159878Y88610D01*
X159878Y85888D01*
X157952Y83962D01*
X155230Y83962D01*
X153304Y85888D01*
X153304Y88281D01*
X153301Y88301D01*
X153303Y88320D01*
X153281Y88422D01*
X153265Y88524D01*
X153255Y88541D01*
X153251Y88561D01*
X153198Y88650D01*
X153149Y88741D01*
X153135Y88755D01*
X153125Y88772D01*
X153046Y88839D01*
X152971Y88911D01*
X152953Y88919D01*
X152938Y88932D01*
X152842Y88971D01*
X152748Y89014D01*
X152728Y89016D01*
X152710Y89024D01*
X152543Y89042D01*
X152055Y89042D01*
X150129Y90968D01*
X150129Y93690D01*
X152055Y95616D01*
X152543Y95616D01*
X152563Y95619D01*
X152582Y95617D01*
X152684Y95639D01*
X152786Y95655D01*
X152803Y95665D01*
X152823Y95669D01*
X152912Y95722D01*
X153003Y95771D01*
X153017Y95785D01*
X153034Y95795D01*
X153101Y95874D01*
X153173Y95949D01*
X153181Y95967D01*
X153194Y95982D01*
X153233Y96078D01*
X153276Y96172D01*
X153278Y96192D01*
X153286Y96210D01*
X153304Y96377D01*
X153304Y98060D01*
X153301Y98080D01*
X153303Y98099D01*
X153281Y98201D01*
X153265Y98303D01*
X153255Y98320D01*
X153251Y98340D01*
X153198Y98429D01*
X153149Y98520D01*
X153135Y98534D01*
X153125Y98551D01*
X153046Y98618D01*
X152971Y98690D01*
X152953Y98698D01*
X152938Y98711D01*
X152842Y98750D01*
X152748Y98793D01*
X152728Y98795D01*
X152710Y98803D01*
X152543Y98821D01*
X152182Y98821D01*
X150256Y100747D01*
X150256Y103469D01*
X152182Y105395D01*
X152670Y105395D01*
X152690Y105398D01*
X152709Y105396D01*
X152811Y105418D01*
X152913Y105434D01*
X152930Y105444D01*
X152950Y105448D01*
X153039Y105501D01*
X153130Y105550D01*
X153144Y105564D01*
X153161Y105574D01*
X153228Y105653D01*
X153300Y105728D01*
X153308Y105746D01*
X153321Y105761D01*
X153360Y105857D01*
X153403Y105951D01*
X153405Y105971D01*
X153413Y105989D01*
X153431Y106156D01*
X153431Y108220D01*
X153428Y108240D01*
X153430Y108259D01*
X153408Y108361D01*
X153392Y108463D01*
X153382Y108480D01*
X153378Y108500D01*
X153325Y108589D01*
X153276Y108680D01*
X153262Y108694D01*
X153252Y108711D01*
X153173Y108778D01*
X153098Y108850D01*
X153080Y108858D01*
X153065Y108871D01*
X152969Y108910D01*
X152875Y108953D01*
X152855Y108955D01*
X152837Y108963D01*
X152670Y108981D01*
X152182Y108981D01*
X150256Y110907D01*
X150256Y113629D01*
X152357Y115730D01*
X152369Y115746D01*
X152384Y115759D01*
X152440Y115846D01*
X152501Y115930D01*
X152506Y115949D01*
X152517Y115966D01*
X152543Y116066D01*
X152573Y116165D01*
X152572Y116185D01*
X152577Y116204D01*
X152569Y116307D01*
X152567Y116411D01*
X152560Y116430D01*
X152558Y116449D01*
X152518Y116544D01*
X152482Y116642D01*
X152470Y116658D01*
X152462Y116676D01*
X152415Y116734D01*
X152415Y119621D01*
X152416Y119622D01*
X152446Y119721D01*
X152445Y119741D01*
X152450Y119760D01*
X152442Y119863D01*
X152440Y119967D01*
X152433Y119986D01*
X152431Y120006D01*
X152391Y120100D01*
X152355Y120198D01*
X152343Y120214D01*
X152335Y120232D01*
X152230Y120363D01*
X150383Y122210D01*
X150383Y124932D01*
X151151Y125700D01*
X151192Y125758D01*
X151242Y125810D01*
X151264Y125857D01*
X151294Y125899D01*
X151315Y125968D01*
X151345Y126033D01*
X151351Y126085D01*
X151366Y126135D01*
X151365Y126206D01*
X151373Y126277D01*
X151361Y126328D01*
X151360Y126380D01*
X151335Y126448D01*
X151320Y126518D01*
X151294Y126562D01*
X151276Y126611D01*
X151231Y126667D01*
X151194Y126729D01*
X151155Y126763D01*
X151122Y126803D01*
X151062Y126842D01*
X151007Y126889D01*
X150959Y126908D01*
X150915Y126936D01*
X150846Y126954D01*
X150779Y126981D01*
X150708Y126989D01*
X150677Y126997D01*
X150653Y126995D01*
X150612Y126999D01*
X89027Y126999D01*
X88937Y126985D01*
X88846Y126977D01*
X88816Y126965D01*
X88784Y126960D01*
X88704Y126917D01*
X88620Y126881D01*
X88588Y126855D01*
X88567Y126844D01*
X88545Y126821D01*
X88489Y126776D01*
X79853Y118140D01*
X79800Y118066D01*
X79740Y117997D01*
X79728Y117967D01*
X79709Y117941D01*
X79682Y117854D01*
X79648Y117769D01*
X79644Y117728D01*
X79637Y117705D01*
X79638Y117673D01*
X79630Y117602D01*
X79630Y68072D01*
X79645Y67982D01*
X79652Y67891D01*
X79664Y67861D01*
X79670Y67829D01*
X79712Y67749D01*
X79748Y67665D01*
X79774Y67633D01*
X79785Y67612D01*
X79808Y67590D01*
X79853Y67534D01*
X82393Y64994D01*
X82467Y64941D01*
X82536Y64881D01*
X82566Y64869D01*
X82592Y64850D01*
X82679Y64823D01*
X82764Y64789D01*
X82805Y64785D01*
X82828Y64778D01*
X82860Y64779D01*
X82931Y64771D01*
X169292Y64771D01*
X169292Y5984D01*
X169302Y5920D01*
X169303Y5854D01*
X169326Y5774D01*
X169332Y5742D01*
X169341Y5725D01*
X169350Y5693D01*
X170166Y3722D01*
X170228Y3622D01*
X170288Y3522D01*
X170293Y3518D01*
X170296Y3513D01*
X170386Y3438D01*
X170475Y3362D01*
X170481Y3360D01*
X170485Y3356D01*
X170593Y3314D01*
X170703Y3270D01*
X170710Y3269D01*
X170715Y3268D01*
X170733Y3267D01*
X170870Y3252D01*
X211958Y3252D01*
X211978Y3255D01*
G37*
G36*
X109875Y36834D02*
X109875Y36834D01*
X109894Y36832D01*
X109996Y36854D01*
X110098Y36871D01*
X110115Y36880D01*
X110135Y36884D01*
X110224Y36937D01*
X110315Y36986D01*
X110329Y37000D01*
X110346Y37010D01*
X110413Y37089D01*
X110485Y37164D01*
X110493Y37182D01*
X110506Y37197D01*
X110545Y37293D01*
X110588Y37387D01*
X110590Y37407D01*
X110598Y37425D01*
X110616Y37592D01*
X110616Y47514D01*
X110615Y47523D01*
X110615Y47528D01*
X110613Y47536D01*
X110615Y47553D01*
X110593Y47655D01*
X110577Y47757D01*
X110567Y47774D01*
X110563Y47794D01*
X110510Y47883D01*
X110461Y47974D01*
X110447Y47988D01*
X110437Y48005D01*
X110358Y48072D01*
X110283Y48144D01*
X110265Y48152D01*
X110250Y48165D01*
X110154Y48204D01*
X110060Y48247D01*
X110040Y48249D01*
X110022Y48257D01*
X109855Y48275D01*
X108875Y48275D01*
X108218Y48932D01*
X108160Y48973D01*
X108108Y49023D01*
X108061Y49045D01*
X108019Y49075D01*
X107950Y49096D01*
X107885Y49126D01*
X107833Y49132D01*
X107783Y49148D01*
X107712Y49146D01*
X107641Y49154D01*
X107590Y49142D01*
X107538Y49141D01*
X107470Y49117D01*
X107400Y49101D01*
X107355Y49075D01*
X107307Y49057D01*
X107251Y49012D01*
X107189Y48975D01*
X107155Y48936D01*
X107115Y48903D01*
X107076Y48843D01*
X107029Y48788D01*
X107010Y48740D01*
X106982Y48696D01*
X106964Y48627D01*
X106937Y48560D01*
X106929Y48489D01*
X106921Y48458D01*
X106923Y48434D01*
X106919Y48393D01*
X106919Y48042D01*
X104993Y46116D01*
X102235Y46116D01*
X102219Y46124D01*
X102177Y46154D01*
X102108Y46175D01*
X102043Y46205D01*
X101991Y46211D01*
X101942Y46227D01*
X101870Y46225D01*
X101799Y46233D01*
X101748Y46221D01*
X101696Y46220D01*
X101628Y46196D01*
X101558Y46180D01*
X101513Y46154D01*
X101465Y46136D01*
X101409Y46091D01*
X101347Y46054D01*
X101313Y46015D01*
X101273Y45982D01*
X101234Y45922D01*
X101187Y45867D01*
X101168Y45819D01*
X101140Y45775D01*
X101122Y45706D01*
X101095Y45639D01*
X101087Y45568D01*
X101079Y45537D01*
X101081Y45513D01*
X101077Y45472D01*
X101077Y44867D01*
X99151Y42941D01*
X96429Y42941D01*
X94503Y44867D01*
X94503Y46625D01*
X94500Y46645D01*
X94502Y46664D01*
X94480Y46766D01*
X94464Y46868D01*
X94454Y46885D01*
X94450Y46905D01*
X94397Y46994D01*
X94348Y47085D01*
X94334Y47099D01*
X94324Y47116D01*
X94245Y47183D01*
X94170Y47255D01*
X94152Y47263D01*
X94137Y47276D01*
X94041Y47315D01*
X93947Y47358D01*
X93927Y47360D01*
X93909Y47368D01*
X93742Y47386D01*
X92619Y47386D01*
X90693Y49312D01*
X90693Y52034D01*
X92619Y53960D01*
X95341Y53960D01*
X97267Y52034D01*
X97267Y50276D01*
X97270Y50256D01*
X97268Y50237D01*
X97290Y50135D01*
X97306Y50033D01*
X97316Y50016D01*
X97320Y49996D01*
X97373Y49907D01*
X97422Y49816D01*
X97436Y49802D01*
X97446Y49785D01*
X97525Y49718D01*
X97600Y49646D01*
X97618Y49638D01*
X97633Y49625D01*
X97729Y49586D01*
X97823Y49543D01*
X97843Y49541D01*
X97861Y49533D01*
X98028Y49515D01*
X99187Y49515D01*
X99203Y49507D01*
X99245Y49477D01*
X99314Y49456D01*
X99379Y49426D01*
X99431Y49420D01*
X99480Y49404D01*
X99552Y49406D01*
X99623Y49398D01*
X99674Y49410D01*
X99726Y49411D01*
X99794Y49435D01*
X99864Y49451D01*
X99909Y49477D01*
X99957Y49495D01*
X100013Y49540D01*
X100075Y49577D01*
X100109Y49616D01*
X100149Y49649D01*
X100188Y49709D01*
X100235Y49764D01*
X100254Y49812D01*
X100282Y49856D01*
X100300Y49925D01*
X100327Y49992D01*
X100335Y50063D01*
X100343Y50094D01*
X100341Y50118D01*
X100345Y50159D01*
X100345Y50764D01*
X102271Y52690D01*
X104993Y52690D01*
X105650Y52033D01*
X105708Y51992D01*
X105760Y51942D01*
X105807Y51920D01*
X105849Y51890D01*
X105918Y51869D01*
X105983Y51839D01*
X106035Y51833D01*
X106085Y51817D01*
X106156Y51819D01*
X106227Y51811D01*
X106278Y51823D01*
X106330Y51824D01*
X106398Y51848D01*
X106468Y51864D01*
X106513Y51890D01*
X106561Y51908D01*
X106617Y51953D01*
X106679Y51990D01*
X106713Y52029D01*
X106753Y52062D01*
X106792Y52122D01*
X106839Y52177D01*
X106858Y52225D01*
X106886Y52269D01*
X106904Y52338D01*
X106931Y52405D01*
X106939Y52476D01*
X106947Y52507D01*
X106945Y52531D01*
X106949Y52572D01*
X106949Y52923D01*
X108875Y54849D01*
X109855Y54849D01*
X109875Y54852D01*
X109894Y54850D01*
X109996Y54872D01*
X110098Y54888D01*
X110115Y54898D01*
X110135Y54902D01*
X110224Y54955D01*
X110315Y55004D01*
X110329Y55018D01*
X110346Y55028D01*
X110413Y55107D01*
X110485Y55182D01*
X110493Y55200D01*
X110506Y55215D01*
X110545Y55311D01*
X110588Y55405D01*
X110590Y55425D01*
X110598Y55443D01*
X110616Y55610D01*
X110616Y59182D01*
X110613Y59202D01*
X110615Y59221D01*
X110593Y59323D01*
X110577Y59425D01*
X110567Y59442D01*
X110563Y59462D01*
X110510Y59551D01*
X110461Y59642D01*
X110447Y59656D01*
X110437Y59673D01*
X110358Y59740D01*
X110283Y59812D01*
X110265Y59820D01*
X110250Y59833D01*
X110154Y59872D01*
X110060Y59915D01*
X110040Y59917D01*
X110022Y59925D01*
X109855Y59943D01*
X80756Y59943D01*
X80736Y59940D01*
X80717Y59942D01*
X80615Y59920D01*
X80513Y59904D01*
X80496Y59894D01*
X80476Y59890D01*
X80387Y59837D01*
X80296Y59788D01*
X80282Y59774D01*
X80265Y59764D01*
X80198Y59685D01*
X80126Y59610D01*
X80118Y59592D01*
X80105Y59577D01*
X80066Y59481D01*
X80023Y59387D01*
X80021Y59371D01*
X78973Y58323D01*
X78962Y58307D01*
X78946Y58295D01*
X78890Y58207D01*
X78830Y58124D01*
X78824Y58105D01*
X78813Y58088D01*
X78788Y57987D01*
X78758Y57888D01*
X78758Y57869D01*
X78753Y57849D01*
X78761Y57746D01*
X78764Y57643D01*
X78771Y57624D01*
X78772Y57604D01*
X78813Y57509D01*
X78848Y57412D01*
X78861Y57396D01*
X78869Y57378D01*
X78973Y57247D01*
X80503Y55717D01*
X80503Y52995D01*
X78577Y51069D01*
X75855Y51069D01*
X73929Y52995D01*
X73929Y55717D01*
X74951Y56739D01*
X74962Y56755D01*
X74978Y56767D01*
X75034Y56855D01*
X75094Y56938D01*
X75100Y56957D01*
X75111Y56974D01*
X75136Y57075D01*
X75166Y57174D01*
X75166Y57193D01*
X75171Y57213D01*
X75163Y57316D01*
X75160Y57419D01*
X75153Y57438D01*
X75152Y57458D01*
X75111Y57553D01*
X75076Y57650D01*
X75063Y57666D01*
X75055Y57684D01*
X74951Y57815D01*
X73436Y59330D01*
X73420Y59341D01*
X73408Y59357D01*
X73321Y59413D01*
X73237Y59473D01*
X73217Y59479D01*
X73201Y59490D01*
X73100Y59515D01*
X73001Y59545D01*
X72982Y59545D01*
X72962Y59550D01*
X72859Y59542D01*
X72756Y59539D01*
X72737Y59532D01*
X72717Y59531D01*
X72622Y59490D01*
X72525Y59455D01*
X72509Y59442D01*
X72491Y59434D01*
X72360Y59330D01*
X71211Y58181D01*
X68489Y58181D01*
X66563Y60107D01*
X66563Y61357D01*
X66560Y61377D01*
X66562Y61396D01*
X66540Y61498D01*
X66524Y61600D01*
X66514Y61617D01*
X66510Y61637D01*
X66457Y61726D01*
X66408Y61817D01*
X66394Y61831D01*
X66384Y61848D01*
X66305Y61915D01*
X66230Y61987D01*
X66212Y61995D01*
X66197Y62008D01*
X66101Y62047D01*
X66007Y62090D01*
X65987Y62092D01*
X65969Y62100D01*
X65802Y62118D01*
X64171Y62118D01*
X62245Y64044D01*
X62245Y66766D01*
X64171Y68692D01*
X66893Y68692D01*
X68819Y66766D01*
X68819Y65516D01*
X68822Y65496D01*
X68820Y65477D01*
X68842Y65375D01*
X68858Y65273D01*
X68868Y65256D01*
X68872Y65236D01*
X68925Y65147D01*
X68974Y65056D01*
X68988Y65042D01*
X68998Y65025D01*
X69077Y64958D01*
X69152Y64886D01*
X69170Y64878D01*
X69185Y64865D01*
X69281Y64826D01*
X69375Y64783D01*
X69395Y64781D01*
X69413Y64773D01*
X69580Y64755D01*
X71211Y64755D01*
X73122Y62844D01*
X73138Y62833D01*
X73150Y62817D01*
X73238Y62761D01*
X73321Y62701D01*
X73340Y62695D01*
X73357Y62684D01*
X73458Y62659D01*
X73557Y62629D01*
X73576Y62629D01*
X73596Y62624D01*
X73699Y62632D01*
X73802Y62635D01*
X73821Y62642D01*
X73841Y62643D01*
X73936Y62684D01*
X74033Y62719D01*
X74049Y62732D01*
X74067Y62740D01*
X74198Y62844D01*
X75214Y63860D01*
X75267Y63934D01*
X75327Y64004D01*
X75339Y64034D01*
X75358Y64060D01*
X75385Y64147D01*
X75419Y64232D01*
X75423Y64273D01*
X75430Y64295D01*
X75429Y64327D01*
X75437Y64399D01*
X75437Y119827D01*
X85786Y130176D01*
X150368Y130176D01*
X150388Y130179D01*
X150407Y130177D01*
X150509Y130199D01*
X150611Y130216D01*
X150628Y130225D01*
X150648Y130229D01*
X150737Y130282D01*
X150828Y130331D01*
X150842Y130345D01*
X150859Y130355D01*
X150926Y130434D01*
X150998Y130509D01*
X151006Y130527D01*
X151019Y130542D01*
X151058Y130638D01*
X151101Y130732D01*
X151103Y130752D01*
X151111Y130770D01*
X151129Y130937D01*
X151129Y160909D01*
X151126Y160929D01*
X151128Y160948D01*
X151106Y161050D01*
X151090Y161152D01*
X151080Y161169D01*
X151076Y161189D01*
X151023Y161278D01*
X150974Y161369D01*
X150960Y161383D01*
X150950Y161400D01*
X150871Y161467D01*
X150796Y161539D01*
X150778Y161547D01*
X150763Y161560D01*
X150667Y161599D01*
X150573Y161642D01*
X150553Y161644D01*
X150535Y161652D01*
X150368Y161670D01*
X50546Y161670D01*
X50526Y161667D01*
X50507Y161669D01*
X50405Y161647D01*
X50303Y161631D01*
X50286Y161621D01*
X50266Y161617D01*
X50177Y161564D01*
X50086Y161515D01*
X50072Y161501D01*
X50055Y161491D01*
X49988Y161412D01*
X49917Y161337D01*
X49908Y161319D01*
X49895Y161304D01*
X49856Y161208D01*
X49813Y161114D01*
X49811Y161094D01*
X49803Y161076D01*
X49785Y160909D01*
X49785Y64262D01*
X49800Y64172D01*
X49807Y64081D01*
X49819Y64051D01*
X49825Y64019D01*
X49867Y63939D01*
X49903Y63855D01*
X49929Y63823D01*
X49940Y63802D01*
X49963Y63780D01*
X49989Y63747D01*
X49990Y63745D01*
X49992Y63744D01*
X50008Y63724D01*
X76678Y37054D01*
X76752Y37001D01*
X76821Y36941D01*
X76851Y36929D01*
X76877Y36910D01*
X76964Y36883D01*
X77049Y36849D01*
X77090Y36845D01*
X77113Y36838D01*
X77145Y36839D01*
X77216Y36831D01*
X109855Y36831D01*
X109875Y36834D01*
G37*
G36*
X166771Y12450D02*
X166771Y12450D01*
X166790Y12448D01*
X166892Y12470D01*
X166994Y12487D01*
X167011Y12496D01*
X167031Y12500D01*
X167120Y12553D01*
X167211Y12602D01*
X167225Y12616D01*
X167242Y12626D01*
X167309Y12705D01*
X167381Y12780D01*
X167389Y12798D01*
X167402Y12813D01*
X167441Y12909D01*
X167484Y13003D01*
X167486Y13023D01*
X167494Y13041D01*
X167512Y13208D01*
X167512Y28720D01*
X167501Y28790D01*
X167499Y28862D01*
X167481Y28911D01*
X167473Y28962D01*
X167439Y29026D01*
X167414Y29093D01*
X167382Y29134D01*
X167357Y29180D01*
X167306Y29229D01*
X167261Y29285D01*
X167217Y29313D01*
X167179Y29349D01*
X167114Y29379D01*
X167054Y29418D01*
X167003Y29431D01*
X166956Y29453D01*
X166885Y29461D01*
X166815Y29478D01*
X166763Y29474D01*
X166712Y29480D01*
X166641Y29465D01*
X166570Y29459D01*
X166522Y29439D01*
X166471Y29428D01*
X166410Y29391D01*
X166344Y29363D01*
X166288Y29318D01*
X166260Y29302D01*
X166245Y29284D01*
X166213Y29258D01*
X165168Y28213D01*
X162238Y28213D01*
X160166Y30285D01*
X160166Y33215D01*
X162238Y35287D01*
X165168Y35287D01*
X166213Y34242D01*
X166271Y34200D01*
X166323Y34151D01*
X166370Y34129D01*
X166412Y34098D01*
X166481Y34077D01*
X166546Y34047D01*
X166598Y34041D01*
X166648Y34026D01*
X166719Y34028D01*
X166790Y34020D01*
X166841Y34031D01*
X166893Y34032D01*
X166961Y34057D01*
X167031Y34072D01*
X167075Y34099D01*
X167124Y34117D01*
X167180Y34162D01*
X167242Y34198D01*
X167276Y34238D01*
X167316Y34271D01*
X167355Y34331D01*
X167402Y34385D01*
X167421Y34434D01*
X167449Y34478D01*
X167467Y34547D01*
X167494Y34614D01*
X167502Y34685D01*
X167510Y34716D01*
X167508Y34739D01*
X167512Y34780D01*
X167512Y38753D01*
X167501Y38823D01*
X167499Y38895D01*
X167481Y38944D01*
X167473Y38995D01*
X167439Y39059D01*
X167414Y39126D01*
X167382Y39167D01*
X167357Y39213D01*
X167306Y39262D01*
X167261Y39318D01*
X167217Y39346D01*
X167179Y39382D01*
X167114Y39412D01*
X167054Y39451D01*
X167003Y39464D01*
X166956Y39486D01*
X166885Y39494D01*
X166815Y39511D01*
X166763Y39507D01*
X166712Y39513D01*
X166641Y39498D01*
X166570Y39492D01*
X166522Y39472D01*
X166471Y39461D01*
X166410Y39424D01*
X166344Y39396D01*
X166288Y39351D01*
X166260Y39335D01*
X166245Y39317D01*
X166213Y39291D01*
X164025Y37103D01*
X161095Y37103D01*
X159023Y39175D01*
X159023Y42105D01*
X161095Y44177D01*
X164025Y44177D01*
X166213Y41989D01*
X166271Y41947D01*
X166323Y41898D01*
X166370Y41876D01*
X166412Y41845D01*
X166481Y41824D01*
X166546Y41794D01*
X166598Y41788D01*
X166648Y41773D01*
X166719Y41775D01*
X166790Y41767D01*
X166841Y41778D01*
X166893Y41779D01*
X166961Y41804D01*
X167031Y41819D01*
X167075Y41846D01*
X167124Y41864D01*
X167180Y41909D01*
X167242Y41945D01*
X167276Y41985D01*
X167316Y42018D01*
X167355Y42078D01*
X167402Y42132D01*
X167421Y42181D01*
X167449Y42225D01*
X167467Y42294D01*
X167494Y42361D01*
X167502Y42432D01*
X167510Y42463D01*
X167508Y42486D01*
X167512Y42527D01*
X167512Y47643D01*
X167501Y47713D01*
X167499Y47785D01*
X167481Y47834D01*
X167473Y47885D01*
X167439Y47949D01*
X167414Y48016D01*
X167382Y48057D01*
X167357Y48103D01*
X167306Y48152D01*
X167261Y48208D01*
X167217Y48236D01*
X167179Y48272D01*
X167114Y48302D01*
X167054Y48341D01*
X167003Y48354D01*
X166956Y48376D01*
X166885Y48384D01*
X166815Y48401D01*
X166763Y48397D01*
X166712Y48403D01*
X166641Y48388D01*
X166570Y48382D01*
X166522Y48362D01*
X166471Y48351D01*
X166410Y48314D01*
X166344Y48286D01*
X166288Y48241D01*
X166260Y48225D01*
X166245Y48207D01*
X166213Y48181D01*
X164025Y45993D01*
X161095Y45993D01*
X159023Y48065D01*
X159023Y50995D01*
X161095Y53067D01*
X164025Y53067D01*
X166213Y50879D01*
X166271Y50837D01*
X166323Y50788D01*
X166370Y50766D01*
X166412Y50735D01*
X166481Y50714D01*
X166546Y50684D01*
X166598Y50678D01*
X166648Y50663D01*
X166719Y50665D01*
X166790Y50657D01*
X166841Y50668D01*
X166893Y50669D01*
X166961Y50694D01*
X167031Y50709D01*
X167075Y50736D01*
X167124Y50754D01*
X167180Y50799D01*
X167242Y50835D01*
X167276Y50875D01*
X167316Y50908D01*
X167355Y50968D01*
X167402Y51022D01*
X167421Y51071D01*
X167449Y51115D01*
X167467Y51184D01*
X167494Y51251D01*
X167502Y51322D01*
X167510Y51353D01*
X167508Y51376D01*
X167512Y51417D01*
X167512Y56533D01*
X167501Y56603D01*
X167499Y56675D01*
X167481Y56724D01*
X167473Y56775D01*
X167439Y56839D01*
X167414Y56906D01*
X167382Y56947D01*
X167357Y56993D01*
X167306Y57042D01*
X167261Y57098D01*
X167217Y57126D01*
X167179Y57162D01*
X167114Y57192D01*
X167054Y57231D01*
X167003Y57244D01*
X166956Y57266D01*
X166885Y57274D01*
X166815Y57291D01*
X166763Y57287D01*
X166712Y57293D01*
X166641Y57278D01*
X166570Y57272D01*
X166522Y57252D01*
X166471Y57241D01*
X166410Y57204D01*
X166344Y57176D01*
X166288Y57131D01*
X166260Y57115D01*
X166245Y57097D01*
X166213Y57071D01*
X164025Y54883D01*
X161095Y54883D01*
X159023Y56955D01*
X159023Y59885D01*
X159941Y60803D01*
X159983Y60861D01*
X160032Y60913D01*
X160054Y60960D01*
X160085Y61002D01*
X160106Y61071D01*
X160136Y61136D01*
X160142Y61188D01*
X160157Y61238D01*
X160155Y61309D01*
X160163Y61380D01*
X160152Y61431D01*
X160151Y61483D01*
X160126Y61551D01*
X160111Y61621D01*
X160084Y61665D01*
X160066Y61714D01*
X160021Y61770D01*
X159985Y61832D01*
X159945Y61866D01*
X159912Y61906D01*
X159852Y61945D01*
X159798Y61992D01*
X159749Y62011D01*
X159705Y62039D01*
X159636Y62057D01*
X159569Y62084D01*
X159498Y62092D01*
X159467Y62100D01*
X159444Y62098D01*
X159403Y62102D01*
X112776Y62102D01*
X112756Y62099D01*
X112737Y62101D01*
X112635Y62079D01*
X112533Y62063D01*
X112516Y62053D01*
X112496Y62049D01*
X112407Y61996D01*
X112316Y61947D01*
X112302Y61933D01*
X112285Y61923D01*
X112218Y61844D01*
X112147Y61769D01*
X112138Y61751D01*
X112125Y61736D01*
X112086Y61640D01*
X112043Y61546D01*
X112041Y61526D01*
X112033Y61508D01*
X112015Y61341D01*
X112015Y54747D01*
X112030Y54657D01*
X112037Y54566D01*
X112049Y54536D01*
X112055Y54504D01*
X112097Y54423D01*
X112133Y54339D01*
X112159Y54307D01*
X112170Y54287D01*
X112193Y54264D01*
X112238Y54208D01*
X113523Y52923D01*
X113523Y50201D01*
X112238Y48916D01*
X112185Y48842D01*
X112125Y48772D01*
X112113Y48742D01*
X112094Y48716D01*
X112067Y48629D01*
X112033Y48544D01*
X112029Y48503D01*
X112022Y48481D01*
X112023Y48449D01*
X112015Y48377D01*
X112015Y35178D01*
X75626Y35178D01*
X46862Y63942D01*
X46862Y113792D01*
X46859Y113812D01*
X46861Y113831D01*
X46839Y113933D01*
X46823Y114035D01*
X46813Y114052D01*
X46809Y114072D01*
X46756Y114161D01*
X46707Y114252D01*
X46693Y114266D01*
X46683Y114283D01*
X46604Y114350D01*
X46529Y114422D01*
X46511Y114430D01*
X46496Y114443D01*
X46400Y114482D01*
X46306Y114525D01*
X46286Y114527D01*
X46268Y114535D01*
X46101Y114553D01*
X24638Y114553D01*
X24618Y114550D01*
X24599Y114552D01*
X24497Y114530D01*
X24395Y114514D01*
X24378Y114504D01*
X24358Y114500D01*
X24269Y114447D01*
X24178Y114398D01*
X24164Y114384D01*
X24147Y114374D01*
X24080Y114295D01*
X24009Y114220D01*
X24000Y114202D01*
X23987Y114187D01*
X23948Y114091D01*
X23905Y113997D01*
X23903Y113977D01*
X23895Y113959D01*
X23877Y113792D01*
X23877Y95232D01*
X23892Y95142D01*
X23899Y95051D01*
X23911Y95021D01*
X23917Y94990D01*
X23959Y94909D01*
X23995Y94825D01*
X24021Y94793D01*
X24032Y94772D01*
X24055Y94750D01*
X24100Y94694D01*
X25254Y93540D01*
X25254Y90610D01*
X24100Y89456D01*
X24047Y89382D01*
X23987Y89313D01*
X23975Y89282D01*
X23956Y89256D01*
X23929Y89169D01*
X23895Y89084D01*
X23891Y89044D01*
X23884Y89021D01*
X23885Y88989D01*
X23877Y88918D01*
X23877Y74295D01*
X23892Y74205D01*
X23899Y74114D01*
X23911Y74084D01*
X23917Y74052D01*
X23959Y73972D01*
X23995Y73888D01*
X24021Y73856D01*
X24032Y73835D01*
X24055Y73813D01*
X24100Y73757D01*
X85187Y12670D01*
X85261Y12617D01*
X85330Y12557D01*
X85360Y12545D01*
X85386Y12526D01*
X85473Y12499D01*
X85558Y12465D01*
X85599Y12461D01*
X85622Y12454D01*
X85654Y12455D01*
X85725Y12447D01*
X166751Y12447D01*
X166771Y12450D01*
G37*
G36*
X81859Y12331D02*
X81859Y12331D01*
X81930Y12333D01*
X81979Y12351D01*
X82031Y12360D01*
X82094Y12393D01*
X82161Y12418D01*
X82202Y12450D01*
X82248Y12475D01*
X82297Y12526D01*
X82353Y12571D01*
X82382Y12615D01*
X82418Y12653D01*
X82448Y12718D01*
X82486Y12778D01*
X82499Y12829D01*
X82521Y12876D01*
X82529Y12947D01*
X82547Y13017D01*
X82542Y13069D01*
X82548Y13120D01*
X82533Y13191D01*
X82527Y13262D01*
X82507Y13310D01*
X82496Y13361D01*
X82459Y13422D01*
X82431Y13488D01*
X82386Y13544D01*
X82370Y13572D01*
X82352Y13587D01*
X82326Y13619D01*
X21081Y74864D01*
X21081Y87777D01*
X21078Y87797D01*
X21080Y87816D01*
X21058Y87918D01*
X21042Y88020D01*
X21032Y88037D01*
X21028Y88057D01*
X20975Y88146D01*
X20926Y88237D01*
X20912Y88251D01*
X20902Y88268D01*
X20823Y88335D01*
X20748Y88407D01*
X20730Y88415D01*
X20715Y88428D01*
X20619Y88467D01*
X20525Y88510D01*
X20505Y88512D01*
X20487Y88520D01*
X20320Y88538D01*
X20252Y88538D01*
X18180Y90610D01*
X18180Y93540D01*
X20252Y95612D01*
X20320Y95612D01*
X20340Y95615D01*
X20359Y95613D01*
X20461Y95635D01*
X20563Y95651D01*
X20580Y95661D01*
X20600Y95665D01*
X20689Y95718D01*
X20780Y95767D01*
X20794Y95781D01*
X20811Y95791D01*
X20878Y95870D01*
X20950Y95945D01*
X20958Y95963D01*
X20971Y95978D01*
X21010Y96074D01*
X21053Y96168D01*
X21055Y96188D01*
X21063Y96206D01*
X21081Y96373D01*
X21081Y117476D01*
X44831Y117476D01*
X44851Y117479D01*
X44870Y117477D01*
X44972Y117499D01*
X45074Y117516D01*
X45091Y117525D01*
X45111Y117529D01*
X45200Y117582D01*
X45291Y117631D01*
X45305Y117645D01*
X45322Y117655D01*
X45389Y117734D01*
X45461Y117809D01*
X45469Y117827D01*
X45482Y117842D01*
X45521Y117938D01*
X45564Y118032D01*
X45566Y118052D01*
X45574Y118070D01*
X45592Y118237D01*
X45592Y161036D01*
X45589Y161056D01*
X45591Y161075D01*
X45569Y161177D01*
X45553Y161279D01*
X45543Y161296D01*
X45539Y161316D01*
X45486Y161405D01*
X45437Y161496D01*
X45423Y161510D01*
X45413Y161527D01*
X45334Y161594D01*
X45259Y161666D01*
X45241Y161674D01*
X45226Y161687D01*
X45130Y161726D01*
X45036Y161769D01*
X45016Y161771D01*
X44998Y161779D01*
X44831Y161797D01*
X15254Y161797D01*
X15207Y161790D01*
X15201Y161790D01*
X15183Y161787D01*
X15123Y161786D01*
X15044Y161763D01*
X15011Y161758D01*
X14994Y161748D01*
X14962Y161739D01*
X14948Y161733D01*
X14849Y161672D01*
X14848Y161671D01*
X14794Y161642D01*
X14786Y161634D01*
X14749Y161612D01*
X14745Y161607D01*
X14739Y161603D01*
X14665Y161514D01*
X14589Y161425D01*
X14587Y161419D01*
X14582Y161414D01*
X14541Y161306D01*
X14497Y161197D01*
X14496Y161189D01*
X14494Y161184D01*
X14494Y161165D01*
X14479Y161030D01*
X14479Y13081D01*
X14482Y13061D01*
X14480Y13042D01*
X14502Y12940D01*
X14519Y12838D01*
X14528Y12821D01*
X14532Y12801D01*
X14585Y12712D01*
X14634Y12621D01*
X14648Y12607D01*
X14658Y12590D01*
X14737Y12523D01*
X14812Y12452D01*
X14830Y12443D01*
X14845Y12430D01*
X14941Y12391D01*
X15035Y12348D01*
X15055Y12346D01*
X15073Y12338D01*
X15240Y12320D01*
X81788Y12320D01*
X81859Y12331D01*
G37*
%LPC*%
G36*
X62774Y84597D02*
X62774Y84597D01*
X60848Y86523D01*
X60848Y89245D01*
X62774Y91171D01*
X64405Y91171D01*
X64425Y91174D01*
X64444Y91172D01*
X64546Y91194D01*
X64648Y91210D01*
X64665Y91220D01*
X64685Y91224D01*
X64774Y91277D01*
X64865Y91326D01*
X64879Y91340D01*
X64896Y91350D01*
X64963Y91429D01*
X65035Y91504D01*
X65043Y91522D01*
X65056Y91537D01*
X65095Y91633D01*
X65138Y91727D01*
X65140Y91747D01*
X65148Y91765D01*
X65166Y91932D01*
X65166Y93234D01*
X65163Y93254D01*
X65165Y93273D01*
X65143Y93375D01*
X65127Y93477D01*
X65117Y93494D01*
X65113Y93514D01*
X65060Y93603D01*
X65011Y93694D01*
X64997Y93708D01*
X64987Y93725D01*
X64908Y93792D01*
X64833Y93864D01*
X64815Y93872D01*
X64800Y93885D01*
X64704Y93924D01*
X64610Y93967D01*
X64590Y93969D01*
X64572Y93977D01*
X64405Y93995D01*
X62901Y93995D01*
X60975Y95921D01*
X60975Y98643D01*
X62901Y100569D01*
X63897Y100569D01*
X63917Y100572D01*
X63936Y100570D01*
X64038Y100592D01*
X64140Y100608D01*
X64157Y100618D01*
X64177Y100622D01*
X64266Y100675D01*
X64357Y100724D01*
X64371Y100738D01*
X64388Y100748D01*
X64455Y100827D01*
X64527Y100902D01*
X64535Y100920D01*
X64548Y100935D01*
X64587Y101031D01*
X64630Y101125D01*
X64632Y101145D01*
X64640Y101163D01*
X64658Y101330D01*
X64658Y103394D01*
X64655Y103414D01*
X64657Y103433D01*
X64635Y103535D01*
X64619Y103637D01*
X64609Y103654D01*
X64605Y103674D01*
X64552Y103763D01*
X64503Y103854D01*
X64489Y103868D01*
X64479Y103885D01*
X64400Y103952D01*
X64325Y104024D01*
X64307Y104032D01*
X64292Y104045D01*
X64196Y104084D01*
X64102Y104127D01*
X64082Y104129D01*
X64064Y104137D01*
X63897Y104155D01*
X63282Y104155D01*
X61356Y106081D01*
X61356Y108803D01*
X63282Y110729D01*
X64151Y110729D01*
X64171Y110732D01*
X64190Y110730D01*
X64292Y110752D01*
X64394Y110768D01*
X64411Y110778D01*
X64431Y110782D01*
X64520Y110835D01*
X64611Y110884D01*
X64625Y110898D01*
X64642Y110908D01*
X64709Y110987D01*
X64781Y111062D01*
X64789Y111080D01*
X64802Y111095D01*
X64841Y111191D01*
X64884Y111285D01*
X64886Y111305D01*
X64894Y111323D01*
X64912Y111490D01*
X64912Y112538D01*
X64909Y112558D01*
X64911Y112577D01*
X64889Y112679D01*
X64873Y112781D01*
X64863Y112798D01*
X64859Y112818D01*
X64806Y112907D01*
X64757Y112998D01*
X64743Y113012D01*
X64733Y113029D01*
X64654Y113096D01*
X64579Y113168D01*
X64561Y113176D01*
X64546Y113189D01*
X64450Y113228D01*
X64356Y113271D01*
X64336Y113273D01*
X64318Y113281D01*
X64151Y113299D01*
X63028Y113299D01*
X61102Y115225D01*
X61102Y117947D01*
X63028Y119873D01*
X64024Y119873D01*
X64044Y119876D01*
X64063Y119874D01*
X64165Y119896D01*
X64267Y119912D01*
X64284Y119922D01*
X64304Y119926D01*
X64393Y119979D01*
X64484Y120028D01*
X64498Y120042D01*
X64515Y120052D01*
X64582Y120131D01*
X64654Y120206D01*
X64662Y120224D01*
X64675Y120239D01*
X64714Y120335D01*
X64757Y120429D01*
X64759Y120449D01*
X64767Y120467D01*
X64785Y120634D01*
X64785Y123408D01*
X66711Y125334D01*
X69433Y125334D01*
X71359Y123408D01*
X71359Y120686D01*
X69433Y118760D01*
X68437Y118760D01*
X68417Y118757D01*
X68398Y118759D01*
X68296Y118737D01*
X68194Y118721D01*
X68177Y118711D01*
X68157Y118707D01*
X68068Y118654D01*
X67977Y118605D01*
X67963Y118591D01*
X67946Y118581D01*
X67879Y118502D01*
X67807Y118427D01*
X67799Y118409D01*
X67786Y118394D01*
X67747Y118298D01*
X67704Y118204D01*
X67702Y118184D01*
X67694Y118166D01*
X67676Y117999D01*
X67676Y116062D01*
X67679Y116042D01*
X67677Y116023D01*
X67699Y115921D01*
X67715Y115819D01*
X67725Y115802D01*
X67729Y115782D01*
X67782Y115693D01*
X67831Y115602D01*
X67845Y115588D01*
X67855Y115571D01*
X67934Y115504D01*
X68009Y115432D01*
X68027Y115424D01*
X68042Y115411D01*
X68138Y115372D01*
X68232Y115329D01*
X68252Y115327D01*
X68270Y115319D01*
X68437Y115301D01*
X69560Y115301D01*
X71486Y113375D01*
X71486Y110653D01*
X69560Y108727D01*
X68691Y108727D01*
X68671Y108724D01*
X68652Y108726D01*
X68550Y108704D01*
X68448Y108688D01*
X68431Y108678D01*
X68411Y108674D01*
X68322Y108621D01*
X68231Y108572D01*
X68217Y108558D01*
X68200Y108548D01*
X68133Y108469D01*
X68061Y108394D01*
X68053Y108376D01*
X68040Y108361D01*
X68001Y108265D01*
X67958Y108171D01*
X67956Y108151D01*
X67948Y108133D01*
X67930Y107966D01*
X67930Y106156D01*
X67933Y106136D01*
X67931Y106117D01*
X67953Y106015D01*
X67969Y105913D01*
X67979Y105896D01*
X67983Y105876D01*
X68036Y105787D01*
X68085Y105696D01*
X68099Y105682D01*
X68109Y105665D01*
X68188Y105598D01*
X68263Y105526D01*
X68281Y105518D01*
X68296Y105505D01*
X68392Y105466D01*
X68486Y105423D01*
X68506Y105421D01*
X68524Y105413D01*
X68691Y105395D01*
X69306Y105395D01*
X71232Y103469D01*
X71232Y100747D01*
X69306Y98821D01*
X68310Y98821D01*
X68290Y98818D01*
X68271Y98820D01*
X68169Y98798D01*
X68067Y98782D01*
X68050Y98772D01*
X68030Y98768D01*
X67941Y98715D01*
X67850Y98666D01*
X67836Y98652D01*
X67819Y98642D01*
X67752Y98563D01*
X67680Y98488D01*
X67672Y98470D01*
X67659Y98455D01*
X67620Y98359D01*
X67577Y98265D01*
X67575Y98245D01*
X67567Y98227D01*
X67549Y98060D01*
X67549Y96377D01*
X67552Y96357D01*
X67550Y96338D01*
X67572Y96236D01*
X67588Y96134D01*
X67598Y96117D01*
X67602Y96097D01*
X67655Y96008D01*
X67704Y95917D01*
X67718Y95903D01*
X67728Y95886D01*
X67807Y95819D01*
X67882Y95747D01*
X67900Y95739D01*
X67915Y95726D01*
X68011Y95687D01*
X68105Y95644D01*
X68125Y95642D01*
X68143Y95634D01*
X68310Y95616D01*
X69814Y95616D01*
X71740Y93690D01*
X71740Y90968D01*
X69814Y89042D01*
X68183Y89042D01*
X68163Y89039D01*
X68144Y89041D01*
X68042Y89019D01*
X67940Y89003D01*
X67923Y88993D01*
X67903Y88989D01*
X67814Y88936D01*
X67723Y88887D01*
X67709Y88873D01*
X67692Y88863D01*
X67625Y88784D01*
X67553Y88709D01*
X67545Y88691D01*
X67532Y88676D01*
X67493Y88580D01*
X67450Y88486D01*
X67448Y88466D01*
X67440Y88448D01*
X67422Y88281D01*
X67422Y86523D01*
X65496Y84597D01*
X62774Y84597D01*
G37*
%LPD*%
%LPC*%
G36*
X106970Y133746D02*
X106970Y133746D01*
X105044Y135672D01*
X105044Y136414D01*
X105041Y136434D01*
X105043Y136453D01*
X105021Y136555D01*
X105005Y136657D01*
X104995Y136674D01*
X104991Y136694D01*
X104938Y136783D01*
X104889Y136874D01*
X104875Y136888D01*
X104865Y136905D01*
X104786Y136972D01*
X104711Y137044D01*
X104693Y137052D01*
X104678Y137065D01*
X104582Y137104D01*
X104488Y137147D01*
X104468Y137149D01*
X104450Y137157D01*
X104283Y137175D01*
X102473Y137175D01*
X102453Y137172D01*
X102434Y137174D01*
X102332Y137152D01*
X102230Y137136D01*
X102213Y137126D01*
X102193Y137122D01*
X102104Y137069D01*
X102013Y137020D01*
X101999Y137006D01*
X101982Y136996D01*
X101915Y136917D01*
X101843Y136842D01*
X101835Y136824D01*
X101822Y136809D01*
X101783Y136713D01*
X101740Y136619D01*
X101738Y136599D01*
X101730Y136581D01*
X101712Y136414D01*
X101712Y136053D01*
X99786Y134127D01*
X97064Y134127D01*
X95138Y136053D01*
X95138Y138775D01*
X97064Y140701D01*
X99584Y140701D01*
X99604Y140704D01*
X99623Y140702D01*
X99725Y140724D01*
X99827Y140740D01*
X99844Y140750D01*
X99864Y140754D01*
X99953Y140807D01*
X100044Y140856D01*
X100058Y140870D01*
X100075Y140880D01*
X100142Y140959D01*
X100214Y141034D01*
X100222Y141052D01*
X100235Y141067D01*
X100274Y141163D01*
X100317Y141257D01*
X100319Y141277D01*
X100327Y141295D01*
X100345Y141462D01*
X100345Y141823D01*
X102271Y143749D01*
X104993Y143749D01*
X106919Y141823D01*
X106919Y141081D01*
X106922Y141061D01*
X106920Y141042D01*
X106942Y140940D01*
X106958Y140838D01*
X106968Y140821D01*
X106972Y140801D01*
X107025Y140712D01*
X107074Y140621D01*
X107088Y140607D01*
X107098Y140590D01*
X107177Y140523D01*
X107252Y140451D01*
X107270Y140443D01*
X107285Y140430D01*
X107381Y140391D01*
X107475Y140348D01*
X107495Y140346D01*
X107513Y140338D01*
X107680Y140320D01*
X109490Y140320D01*
X109510Y140323D01*
X109529Y140321D01*
X109631Y140343D01*
X109733Y140359D01*
X109750Y140369D01*
X109770Y140373D01*
X109859Y140426D01*
X109950Y140475D01*
X109964Y140489D01*
X109981Y140499D01*
X110048Y140578D01*
X110120Y140653D01*
X110128Y140671D01*
X110141Y140686D01*
X110180Y140782D01*
X110223Y140876D01*
X110225Y140896D01*
X110233Y140914D01*
X110251Y141081D01*
X110251Y142204D01*
X112177Y144130D01*
X114899Y144130D01*
X116825Y142204D01*
X116825Y141208D01*
X116828Y141188D01*
X116826Y141169D01*
X116848Y141067D01*
X116864Y140965D01*
X116874Y140948D01*
X116878Y140928D01*
X116931Y140839D01*
X116980Y140748D01*
X116994Y140734D01*
X117004Y140717D01*
X117083Y140650D01*
X117158Y140578D01*
X117176Y140570D01*
X117191Y140557D01*
X117287Y140518D01*
X117381Y140475D01*
X117401Y140473D01*
X117419Y140465D01*
X117586Y140447D01*
X119269Y140447D01*
X119289Y140450D01*
X119308Y140448D01*
X119410Y140470D01*
X119512Y140486D01*
X119529Y140496D01*
X119549Y140500D01*
X119638Y140553D01*
X119729Y140602D01*
X119743Y140616D01*
X119760Y140626D01*
X119827Y140705D01*
X119899Y140780D01*
X119907Y140798D01*
X119920Y140813D01*
X119959Y140909D01*
X120002Y141003D01*
X120004Y141023D01*
X120012Y141041D01*
X120030Y141208D01*
X120030Y142077D01*
X121956Y144003D01*
X124678Y144003D01*
X126604Y142077D01*
X126604Y141462D01*
X126607Y141442D01*
X126605Y141423D01*
X126627Y141321D01*
X126643Y141219D01*
X126653Y141202D01*
X126657Y141182D01*
X126710Y141093D01*
X126759Y141002D01*
X126773Y140988D01*
X126783Y140971D01*
X126862Y140904D01*
X126937Y140832D01*
X126955Y140824D01*
X126970Y140811D01*
X127066Y140772D01*
X127160Y140729D01*
X127180Y140727D01*
X127198Y140719D01*
X127365Y140701D01*
X129781Y140701D01*
X129782Y140700D01*
X129881Y140670D01*
X129901Y140671D01*
X129920Y140666D01*
X130023Y140674D01*
X130127Y140676D01*
X130146Y140683D01*
X130166Y140685D01*
X130260Y140725D01*
X130358Y140761D01*
X130374Y140773D01*
X130392Y140781D01*
X130523Y140886D01*
X132370Y142733D01*
X135092Y142733D01*
X137018Y140807D01*
X137018Y138085D01*
X135092Y136159D01*
X132220Y136159D01*
X132219Y136159D01*
X132120Y136190D01*
X132100Y136189D01*
X132081Y136194D01*
X131978Y136186D01*
X131874Y136184D01*
X131855Y136177D01*
X131836Y136175D01*
X131741Y136135D01*
X131643Y136099D01*
X131628Y136087D01*
X131609Y136079D01*
X131478Y135974D01*
X129631Y134127D01*
X126909Y134127D01*
X124983Y136053D01*
X124983Y136668D01*
X124980Y136688D01*
X124982Y136707D01*
X124960Y136809D01*
X124944Y136911D01*
X124934Y136928D01*
X124930Y136948D01*
X124877Y137037D01*
X124828Y137128D01*
X124814Y137142D01*
X124804Y137159D01*
X124725Y137226D01*
X124650Y137298D01*
X124632Y137306D01*
X124617Y137319D01*
X124521Y137358D01*
X124427Y137401D01*
X124407Y137403D01*
X124389Y137411D01*
X124222Y137429D01*
X122158Y137429D01*
X122138Y137426D01*
X122119Y137428D01*
X122017Y137406D01*
X121915Y137390D01*
X121898Y137380D01*
X121878Y137376D01*
X121789Y137323D01*
X121698Y137274D01*
X121684Y137260D01*
X121667Y137250D01*
X121600Y137171D01*
X121528Y137096D01*
X121520Y137078D01*
X121507Y137063D01*
X121468Y136967D01*
X121425Y136873D01*
X121423Y136853D01*
X121415Y136835D01*
X121397Y136668D01*
X121397Y135799D01*
X119471Y133873D01*
X116749Y133873D01*
X114823Y135799D01*
X114823Y136795D01*
X114820Y136815D01*
X114822Y136834D01*
X114800Y136936D01*
X114784Y137038D01*
X114774Y137055D01*
X114770Y137075D01*
X114717Y137164D01*
X114668Y137255D01*
X114654Y137269D01*
X114644Y137286D01*
X114565Y137353D01*
X114490Y137425D01*
X114472Y137433D01*
X114457Y137446D01*
X114361Y137485D01*
X114267Y137528D01*
X114247Y137530D01*
X114229Y137538D01*
X114062Y137556D01*
X112379Y137556D01*
X112359Y137553D01*
X112340Y137555D01*
X112238Y137533D01*
X112136Y137517D01*
X112119Y137507D01*
X112099Y137503D01*
X112010Y137450D01*
X111919Y137401D01*
X111905Y137387D01*
X111888Y137377D01*
X111821Y137298D01*
X111749Y137223D01*
X111741Y137205D01*
X111728Y137190D01*
X111689Y137094D01*
X111646Y137000D01*
X111644Y136980D01*
X111636Y136962D01*
X111618Y136795D01*
X111618Y135672D01*
X109692Y133746D01*
X106970Y133746D01*
G37*
%LPD*%
%LPC*%
G36*
X63170Y129920D02*
X63170Y129920D01*
X61086Y132004D01*
X61086Y134950D01*
X63170Y137034D01*
X66116Y137034D01*
X68200Y134950D01*
X68200Y132004D01*
X66116Y129920D01*
X63170Y129920D01*
G37*
%LPD*%
%LPC*%
G36*
X36381Y42310D02*
X36381Y42310D01*
X34309Y44382D01*
X34309Y47312D01*
X36381Y49384D01*
X39311Y49384D01*
X41383Y47312D01*
X41383Y44382D01*
X39311Y42310D01*
X36381Y42310D01*
G37*
%LPD*%
%LPC*%
G36*
X34857Y19831D02*
X34857Y19831D01*
X32785Y21903D01*
X32785Y24833D01*
X34857Y26905D01*
X37787Y26905D01*
X39859Y24833D01*
X39859Y21903D01*
X37787Y19831D01*
X34857Y19831D01*
G37*
%LPD*%
%LPC*%
G36*
X76236Y125872D02*
X76236Y125872D01*
X74310Y127798D01*
X74310Y130520D01*
X76236Y132446D01*
X78958Y132446D01*
X80884Y130520D01*
X80884Y127798D01*
X78958Y125872D01*
X76236Y125872D01*
G37*
%LPD*%
%LPC*%
G36*
X84491Y45354D02*
X84491Y45354D01*
X82565Y47280D01*
X82565Y50002D01*
X84491Y51928D01*
X87213Y51928D01*
X89139Y50002D01*
X89139Y47280D01*
X87213Y45354D01*
X84491Y45354D01*
G37*
%LPD*%
%LPC*%
G36*
X148753Y32273D02*
X148753Y32273D01*
X146827Y34199D01*
X146827Y36921D01*
X148753Y38847D01*
X151475Y38847D01*
X153401Y36921D01*
X153401Y34199D01*
X151475Y32273D01*
X148753Y32273D01*
G37*
%LPD*%
%LPC*%
G36*
X94016Y25288D02*
X94016Y25288D01*
X92090Y27214D01*
X92090Y29936D01*
X94016Y31862D01*
X96738Y31862D01*
X98664Y29936D01*
X98664Y27214D01*
X96738Y25288D01*
X94016Y25288D01*
G37*
%LPD*%
D10*
X112903Y2286D03*
X125603Y2286D03*
X138303Y2286D03*
X151003Y2286D03*
X163703Y2286D03*
X100203Y2286D03*
X87503Y2286D03*
X74803Y2286D03*
X62103Y2286D03*
X49403Y2286D03*
X36703Y2286D03*
X24003Y2286D03*
X11303Y2286D03*
X112903Y168656D03*
X125603Y168656D03*
X138303Y168656D03*
X151003Y168656D03*
X163703Y168656D03*
X100203Y168656D03*
X87503Y168656D03*
X74803Y168656D03*
X62103Y168656D03*
X49403Y168656D03*
X36703Y168656D03*
X24003Y168656D03*
X11303Y168656D03*
X3048Y78994D03*
X3048Y66294D03*
X3048Y53594D03*
X3048Y40894D03*
X3048Y28194D03*
X3048Y91694D03*
X3048Y104394D03*
X3048Y117094D03*
X3048Y129794D03*
X3048Y142494D03*
D11*
X65532Y65405D03*
D12*
X117865Y36204D03*
X149606Y59309D03*
X34925Y92202D03*
X29591Y92202D03*
X40259Y92202D03*
X66675Y145034D03*
X65532Y53467D03*
X69215Y49530D03*
X95631Y40513D03*
X66675Y139319D03*
D13*
X143891Y140589D03*
X87249Y151384D03*
D12*
X124206Y108077D03*
X110871Y94742D03*
X97536Y108077D03*
X110871Y108077D03*
X124206Y94742D03*
X124206Y81407D03*
X110871Y81407D03*
X97536Y81407D03*
X97536Y94742D03*
D11*
X163830Y126111D03*
D12*
X64643Y133477D03*
D11*
X95377Y28575D03*
X150114Y35560D03*
D12*
X97536Y118491D03*
X110490Y118618D03*
X124206Y118491D03*
X97409Y70866D03*
X110871Y70866D03*
X124460Y70866D03*
D13*
X209550Y6350D03*
X209550Y12700D03*
X209550Y19050D03*
X209550Y25400D03*
X209550Y31750D03*
X209550Y38100D03*
X209550Y44450D03*
X209550Y50800D03*
X209550Y57150D03*
X209550Y63500D03*
X209550Y69850D03*
X209550Y76200D03*
X209550Y82550D03*
X209550Y88900D03*
X209550Y95250D03*
X209550Y101600D03*
X209550Y107950D03*
X209550Y114300D03*
X162560Y58420D03*
X162560Y40640D03*
X162560Y49530D03*
X184150Y31750D03*
X184150Y38100D03*
X209550Y132080D03*
X209550Y158750D03*
X209550Y165100D03*
X203200Y165100D03*
X196850Y165100D03*
X190500Y165100D03*
X190500Y158750D03*
X190500Y152400D03*
X190500Y146050D03*
X190500Y139700D03*
X190500Y133350D03*
X187706Y128778D03*
X184150Y124460D03*
X179705Y120142D03*
X168910Y115570D03*
X168910Y109220D03*
X168910Y102870D03*
X175260Y102870D03*
X187833Y102743D03*
X187706Y109474D03*
X184150Y114300D03*
D11*
X196850Y19050D03*
X203200Y19050D03*
X203200Y25400D03*
X203200Y31750D03*
X203200Y38100D03*
X203200Y44450D03*
X196850Y31750D03*
X196850Y25400D03*
X190500Y31750D03*
X190500Y38100D03*
X190500Y44450D03*
X196850Y38100D03*
X203200Y50800D03*
X203200Y57150D03*
X203200Y63500D03*
X203200Y69850D03*
X203200Y76200D03*
X203200Y82550D03*
X203200Y88900D03*
X203200Y95250D03*
X203200Y101600D03*
X203200Y107950D03*
X203200Y132080D03*
X196850Y132080D03*
X196850Y138430D03*
X203200Y138430D03*
X203200Y144780D03*
X196850Y144780D03*
X196850Y151130D03*
X203200Y151130D03*
X196850Y158750D03*
X203200Y158750D03*
D13*
X210439Y146050D03*
D11*
X188468Y76454D03*
X190500Y18796D03*
X190500Y25400D03*
X184023Y18796D03*
X184150Y25400D03*
D13*
X181991Y102743D03*
X175387Y108966D03*
X175514Y115570D03*
X168910Y96520D03*
X175260Y96393D03*
X182245Y96393D03*
X188087Y96393D03*
X188341Y89281D03*
X188468Y82804D03*
X177292Y31750D03*
X170561Y31877D03*
X163703Y31750D03*
X193167Y124460D03*
X187960Y119761D03*
X203962Y6350D03*
X203835Y12700D03*
X183896Y164973D03*
X177165Y165100D03*
X36322Y23368D03*
X37846Y45847D03*
X21717Y92075D03*
D12*
X40005Y126111D03*
X34417Y125984D03*
D11*
X75057Y15494D03*
X68072Y122047D03*
X77597Y129159D03*
X153416Y92329D03*
X156591Y97155D03*
X153543Y102108D03*
X156718Y107442D03*
X153543Y112268D03*
X155702Y118110D03*
X133731Y139446D03*
X128270Y137414D03*
X123317Y140716D03*
X118110Y137160D03*
X113538Y140843D03*
X108331Y137033D03*
X103632Y140462D03*
X98425Y137414D03*
X64389Y116586D03*
X68199Y112014D03*
X64643Y107442D03*
X67945Y102108D03*
X64262Y97282D03*
X68453Y92329D03*
X64135Y87884D03*
X69850Y61468D03*
X76708Y60706D03*
X77216Y54356D03*
X85852Y48641D03*
X93980Y50673D03*
X97790Y46228D03*
X103632Y49403D03*
X110236Y51562D03*
X156591Y87249D03*
X153670Y123571D03*
M02*
