G04 EAGLE Gerber RS-274X export*
G75*
%MOMM*%
%FSLAX34Y34*%
%LPD*%
%INSilkscreen Top*%
%IPPOS*%
%AMOC8*
5,1,8,0,0,1.08239X$1,22.5*%
G01*
%ADD10C,0.076200*%
%ADD11C,0.250000*%
%ADD12C,0.120000*%
%ADD13C,0.100000*%
%ADD14C,0.200000*%
%ADD15C,0.050800*%
%ADD16C,0.203200*%
%ADD17C,0.127000*%


D10*
X184602Y21237D02*
X185829Y21237D01*
X185829Y17145D01*
X183374Y17145D01*
X183296Y17147D01*
X183218Y17152D01*
X183141Y17162D01*
X183064Y17175D01*
X182988Y17191D01*
X182913Y17211D01*
X182839Y17235D01*
X182766Y17262D01*
X182694Y17293D01*
X182624Y17327D01*
X182556Y17364D01*
X182489Y17405D01*
X182424Y17449D01*
X182362Y17495D01*
X182302Y17545D01*
X182244Y17597D01*
X182189Y17652D01*
X182137Y17710D01*
X182087Y17770D01*
X182041Y17832D01*
X181997Y17897D01*
X181956Y17964D01*
X181919Y18032D01*
X181885Y18102D01*
X181854Y18174D01*
X181827Y18247D01*
X181803Y18321D01*
X181783Y18396D01*
X181767Y18472D01*
X181754Y18549D01*
X181744Y18626D01*
X181739Y18704D01*
X181737Y18782D01*
X181737Y22874D01*
X181739Y22954D01*
X181745Y23034D01*
X181755Y23114D01*
X181768Y23193D01*
X181786Y23272D01*
X181807Y23349D01*
X181833Y23425D01*
X181862Y23500D01*
X181894Y23574D01*
X181930Y23646D01*
X181970Y23716D01*
X182013Y23783D01*
X182059Y23849D01*
X182109Y23912D01*
X182161Y23973D01*
X182216Y24032D01*
X182275Y24087D01*
X182335Y24139D01*
X182399Y24189D01*
X182465Y24235D01*
X182532Y24278D01*
X182602Y24318D01*
X182674Y24354D01*
X182748Y24386D01*
X182822Y24415D01*
X182899Y24441D01*
X182976Y24462D01*
X183055Y24480D01*
X183134Y24493D01*
X183214Y24503D01*
X183294Y24509D01*
X183374Y24511D01*
X185829Y24511D01*
D11*
X148371Y59742D02*
X148373Y59812D01*
X148379Y59882D01*
X148389Y59951D01*
X148402Y60020D01*
X148420Y60088D01*
X148441Y60155D01*
X148466Y60220D01*
X148495Y60284D01*
X148527Y60347D01*
X148563Y60407D01*
X148602Y60465D01*
X148644Y60521D01*
X148689Y60575D01*
X148737Y60626D01*
X148788Y60674D01*
X148842Y60719D01*
X148898Y60761D01*
X148956Y60800D01*
X149016Y60836D01*
X149079Y60868D01*
X149143Y60897D01*
X149208Y60922D01*
X149275Y60943D01*
X149343Y60961D01*
X149412Y60974D01*
X149481Y60984D01*
X149551Y60990D01*
X149621Y60992D01*
X149691Y60990D01*
X149761Y60984D01*
X149830Y60974D01*
X149899Y60961D01*
X149967Y60943D01*
X150034Y60922D01*
X150099Y60897D01*
X150163Y60868D01*
X150226Y60836D01*
X150286Y60800D01*
X150344Y60761D01*
X150400Y60719D01*
X150454Y60674D01*
X150505Y60626D01*
X150553Y60575D01*
X150598Y60521D01*
X150640Y60465D01*
X150679Y60407D01*
X150715Y60347D01*
X150747Y60284D01*
X150776Y60220D01*
X150801Y60155D01*
X150822Y60088D01*
X150840Y60020D01*
X150853Y59951D01*
X150863Y59882D01*
X150869Y59812D01*
X150871Y59742D01*
X150869Y59672D01*
X150863Y59602D01*
X150853Y59533D01*
X150840Y59464D01*
X150822Y59396D01*
X150801Y59329D01*
X150776Y59264D01*
X150747Y59200D01*
X150715Y59137D01*
X150679Y59077D01*
X150640Y59019D01*
X150598Y58963D01*
X150553Y58909D01*
X150505Y58858D01*
X150454Y58810D01*
X150400Y58765D01*
X150344Y58723D01*
X150286Y58684D01*
X150226Y58648D01*
X150163Y58616D01*
X150099Y58587D01*
X150034Y58562D01*
X149967Y58541D01*
X149899Y58523D01*
X149830Y58510D01*
X149761Y58500D01*
X149691Y58494D01*
X149621Y58492D01*
X149551Y58494D01*
X149481Y58500D01*
X149412Y58510D01*
X149343Y58523D01*
X149275Y58541D01*
X149208Y58562D01*
X149143Y58587D01*
X149079Y58616D01*
X149016Y58648D01*
X148956Y58684D01*
X148898Y58723D01*
X148842Y58765D01*
X148788Y58810D01*
X148737Y58858D01*
X148689Y58909D01*
X148644Y58963D01*
X148602Y59019D01*
X148563Y59077D01*
X148527Y59137D01*
X148495Y59200D01*
X148466Y59264D01*
X148441Y59329D01*
X148420Y59396D01*
X148402Y59464D01*
X148389Y59533D01*
X148379Y59602D01*
X148373Y59672D01*
X148371Y59742D01*
D10*
X104699Y91313D02*
X104699Y98171D01*
X103937Y91313D02*
X105461Y91313D01*
X105461Y98171D02*
X103937Y98171D01*
X109782Y91313D02*
X111306Y91313D01*
X109782Y91313D02*
X109705Y91315D01*
X109628Y91321D01*
X109551Y91331D01*
X109475Y91344D01*
X109400Y91362D01*
X109326Y91383D01*
X109253Y91408D01*
X109181Y91437D01*
X109111Y91469D01*
X109042Y91504D01*
X108976Y91544D01*
X108911Y91586D01*
X108849Y91632D01*
X108789Y91681D01*
X108732Y91732D01*
X108677Y91787D01*
X108626Y91844D01*
X108577Y91904D01*
X108531Y91966D01*
X108489Y92031D01*
X108449Y92097D01*
X108414Y92166D01*
X108382Y92236D01*
X108353Y92308D01*
X108328Y92381D01*
X108307Y92455D01*
X108289Y92530D01*
X108276Y92606D01*
X108266Y92683D01*
X108260Y92760D01*
X108258Y92837D01*
X108258Y96647D01*
X108260Y96724D01*
X108266Y96801D01*
X108276Y96878D01*
X108289Y96954D01*
X108307Y97029D01*
X108328Y97103D01*
X108353Y97176D01*
X108382Y97248D01*
X108414Y97318D01*
X108449Y97387D01*
X108489Y97453D01*
X108531Y97518D01*
X108577Y97580D01*
X108626Y97640D01*
X108677Y97697D01*
X108732Y97752D01*
X108789Y97803D01*
X108849Y97852D01*
X108911Y97898D01*
X108976Y97940D01*
X109042Y97980D01*
X109111Y98015D01*
X109181Y98047D01*
X109253Y98076D01*
X109326Y98101D01*
X109400Y98122D01*
X109475Y98140D01*
X109551Y98153D01*
X109628Y98163D01*
X109705Y98169D01*
X109782Y98171D01*
X111306Y98171D01*
X113995Y91313D02*
X115900Y91313D01*
X115985Y91315D01*
X116071Y91321D01*
X116156Y91330D01*
X116240Y91344D01*
X116324Y91361D01*
X116407Y91382D01*
X116489Y91406D01*
X116569Y91434D01*
X116649Y91466D01*
X116727Y91502D01*
X116803Y91540D01*
X116877Y91583D01*
X116949Y91628D01*
X117020Y91677D01*
X117088Y91729D01*
X117153Y91783D01*
X117216Y91841D01*
X117277Y91902D01*
X117335Y91965D01*
X117389Y92030D01*
X117441Y92098D01*
X117490Y92169D01*
X117535Y92241D01*
X117578Y92315D01*
X117616Y92391D01*
X117652Y92469D01*
X117684Y92549D01*
X117712Y92629D01*
X117736Y92711D01*
X117757Y92794D01*
X117774Y92878D01*
X117788Y92962D01*
X117797Y93047D01*
X117803Y93133D01*
X117805Y93218D01*
X117803Y93303D01*
X117797Y93389D01*
X117788Y93474D01*
X117774Y93558D01*
X117757Y93642D01*
X117736Y93725D01*
X117712Y93807D01*
X117684Y93887D01*
X117652Y93967D01*
X117616Y94045D01*
X117578Y94121D01*
X117535Y94195D01*
X117490Y94267D01*
X117441Y94338D01*
X117389Y94406D01*
X117335Y94471D01*
X117277Y94534D01*
X117216Y94595D01*
X117153Y94653D01*
X117088Y94707D01*
X117020Y94759D01*
X116949Y94808D01*
X116877Y94853D01*
X116803Y94896D01*
X116727Y94934D01*
X116649Y94970D01*
X116569Y95002D01*
X116489Y95030D01*
X116407Y95054D01*
X116324Y95075D01*
X116240Y95092D01*
X116156Y95106D01*
X116071Y95115D01*
X115985Y95121D01*
X115900Y95123D01*
X116281Y98171D02*
X113995Y98171D01*
X116281Y98171D02*
X116358Y98169D01*
X116435Y98163D01*
X116512Y98153D01*
X116588Y98140D01*
X116663Y98122D01*
X116737Y98101D01*
X116810Y98076D01*
X116882Y98047D01*
X116952Y98015D01*
X117021Y97980D01*
X117087Y97940D01*
X117152Y97898D01*
X117214Y97852D01*
X117274Y97803D01*
X117331Y97752D01*
X117386Y97697D01*
X117437Y97640D01*
X117486Y97580D01*
X117532Y97518D01*
X117574Y97453D01*
X117614Y97387D01*
X117649Y97318D01*
X117681Y97248D01*
X117710Y97176D01*
X117735Y97103D01*
X117756Y97029D01*
X117774Y96954D01*
X117787Y96878D01*
X117797Y96801D01*
X117803Y96724D01*
X117805Y96647D01*
X117803Y96570D01*
X117797Y96493D01*
X117787Y96416D01*
X117774Y96340D01*
X117756Y96265D01*
X117735Y96191D01*
X117710Y96118D01*
X117681Y96046D01*
X117649Y95976D01*
X117614Y95907D01*
X117574Y95841D01*
X117532Y95776D01*
X117486Y95714D01*
X117437Y95654D01*
X117386Y95597D01*
X117331Y95542D01*
X117274Y95491D01*
X117214Y95442D01*
X117152Y95396D01*
X117087Y95354D01*
X117021Y95314D01*
X116952Y95279D01*
X116882Y95247D01*
X116810Y95218D01*
X116737Y95193D01*
X116663Y95172D01*
X116588Y95154D01*
X116512Y95141D01*
X116435Y95131D01*
X116358Y95125D01*
X116281Y95123D01*
X114757Y95123D01*
X45212Y151765D02*
X45212Y153289D01*
X45212Y151765D02*
X45210Y151688D01*
X45204Y151611D01*
X45194Y151534D01*
X45181Y151458D01*
X45163Y151383D01*
X45142Y151309D01*
X45117Y151236D01*
X45088Y151164D01*
X45056Y151094D01*
X45021Y151025D01*
X44981Y150959D01*
X44939Y150894D01*
X44893Y150832D01*
X44844Y150772D01*
X44793Y150715D01*
X44738Y150660D01*
X44681Y150609D01*
X44621Y150560D01*
X44559Y150514D01*
X44494Y150472D01*
X44428Y150432D01*
X44359Y150397D01*
X44289Y150365D01*
X44217Y150336D01*
X44144Y150311D01*
X44070Y150290D01*
X43995Y150272D01*
X43919Y150259D01*
X43842Y150249D01*
X43765Y150243D01*
X43688Y150241D01*
X39878Y150241D01*
X39801Y150243D01*
X39724Y150249D01*
X39647Y150259D01*
X39571Y150272D01*
X39496Y150290D01*
X39422Y150311D01*
X39349Y150336D01*
X39277Y150365D01*
X39207Y150397D01*
X39138Y150432D01*
X39072Y150472D01*
X39007Y150514D01*
X38945Y150560D01*
X38885Y150609D01*
X38828Y150660D01*
X38773Y150715D01*
X38722Y150772D01*
X38673Y150832D01*
X38627Y150894D01*
X38585Y150959D01*
X38545Y151025D01*
X38510Y151094D01*
X38478Y151164D01*
X38449Y151236D01*
X38424Y151309D01*
X38403Y151383D01*
X38385Y151458D01*
X38372Y151534D01*
X38362Y151611D01*
X38356Y151688D01*
X38354Y151765D01*
X38354Y153289D01*
X39878Y155978D02*
X38354Y157883D01*
X45212Y157883D01*
X45212Y155978D02*
X45212Y159788D01*
X34544Y153394D02*
X34544Y151870D01*
X34542Y151793D01*
X34536Y151716D01*
X34526Y151639D01*
X34513Y151563D01*
X34495Y151488D01*
X34474Y151414D01*
X34449Y151341D01*
X34420Y151269D01*
X34388Y151199D01*
X34353Y151130D01*
X34313Y151064D01*
X34271Y150999D01*
X34225Y150937D01*
X34176Y150877D01*
X34125Y150820D01*
X34070Y150765D01*
X34013Y150714D01*
X33953Y150665D01*
X33891Y150619D01*
X33826Y150577D01*
X33760Y150537D01*
X33691Y150502D01*
X33621Y150470D01*
X33549Y150441D01*
X33476Y150416D01*
X33402Y150395D01*
X33327Y150377D01*
X33251Y150364D01*
X33174Y150354D01*
X33097Y150348D01*
X33020Y150346D01*
X29210Y150346D01*
X29133Y150348D01*
X29056Y150354D01*
X28979Y150364D01*
X28903Y150377D01*
X28828Y150395D01*
X28754Y150416D01*
X28681Y150441D01*
X28609Y150470D01*
X28539Y150502D01*
X28470Y150537D01*
X28404Y150577D01*
X28339Y150619D01*
X28277Y150665D01*
X28217Y150714D01*
X28160Y150765D01*
X28105Y150820D01*
X28054Y150877D01*
X28005Y150937D01*
X27959Y150999D01*
X27917Y151064D01*
X27877Y151130D01*
X27842Y151199D01*
X27810Y151269D01*
X27781Y151341D01*
X27756Y151414D01*
X27735Y151488D01*
X27717Y151563D01*
X27704Y151639D01*
X27694Y151716D01*
X27688Y151793D01*
X27686Y151870D01*
X27686Y153394D01*
X27686Y158179D02*
X27688Y158261D01*
X27694Y158342D01*
X27703Y158423D01*
X27717Y158504D01*
X27734Y158583D01*
X27755Y158662D01*
X27780Y158740D01*
X27809Y158816D01*
X27841Y158891D01*
X27877Y158965D01*
X27916Y159037D01*
X27958Y159106D01*
X28004Y159174D01*
X28053Y159239D01*
X28105Y159302D01*
X28160Y159362D01*
X28218Y159420D01*
X28278Y159475D01*
X28341Y159527D01*
X28406Y159576D01*
X28474Y159622D01*
X28544Y159664D01*
X28615Y159703D01*
X28689Y159739D01*
X28764Y159771D01*
X28840Y159800D01*
X28918Y159825D01*
X28997Y159846D01*
X29076Y159863D01*
X29157Y159877D01*
X29238Y159886D01*
X29319Y159892D01*
X29401Y159894D01*
X27686Y158179D02*
X27688Y158087D01*
X27694Y157995D01*
X27703Y157903D01*
X27717Y157811D01*
X27734Y157721D01*
X27755Y157631D01*
X27780Y157542D01*
X27809Y157454D01*
X27841Y157367D01*
X27877Y157282D01*
X27916Y157199D01*
X27959Y157117D01*
X28005Y157037D01*
X28055Y156959D01*
X28107Y156883D01*
X28163Y156810D01*
X28222Y156739D01*
X28284Y156670D01*
X28349Y156604D01*
X28416Y156541D01*
X28486Y156481D01*
X28558Y156423D01*
X28633Y156369D01*
X28710Y156318D01*
X28789Y156270D01*
X28870Y156226D01*
X28953Y156185D01*
X29037Y156147D01*
X29123Y156113D01*
X29210Y156083D01*
X30735Y159322D02*
X30676Y159381D01*
X30615Y159437D01*
X30552Y159490D01*
X30486Y159541D01*
X30418Y159588D01*
X30348Y159632D01*
X30276Y159673D01*
X30202Y159711D01*
X30127Y159745D01*
X30050Y159776D01*
X29972Y159803D01*
X29892Y159827D01*
X29812Y159848D01*
X29731Y159864D01*
X29649Y159877D01*
X29567Y159887D01*
X29484Y159892D01*
X29401Y159894D01*
X30734Y159322D02*
X34544Y156083D01*
X34544Y159893D01*
X85979Y16433D02*
X92837Y16433D01*
X85979Y16433D02*
X85979Y18338D01*
X85981Y18423D01*
X85987Y18509D01*
X85996Y18594D01*
X86010Y18678D01*
X86027Y18762D01*
X86048Y18845D01*
X86072Y18927D01*
X86100Y19007D01*
X86132Y19087D01*
X86168Y19165D01*
X86206Y19241D01*
X86249Y19315D01*
X86294Y19387D01*
X86343Y19458D01*
X86395Y19526D01*
X86449Y19591D01*
X86507Y19654D01*
X86568Y19715D01*
X86631Y19773D01*
X86696Y19827D01*
X86764Y19879D01*
X86835Y19928D01*
X86907Y19973D01*
X86981Y20016D01*
X87057Y20054D01*
X87135Y20090D01*
X87215Y20122D01*
X87295Y20150D01*
X87377Y20174D01*
X87460Y20195D01*
X87544Y20212D01*
X87628Y20226D01*
X87713Y20235D01*
X87799Y20241D01*
X87884Y20243D01*
X87969Y20241D01*
X88055Y20235D01*
X88140Y20226D01*
X88224Y20212D01*
X88308Y20195D01*
X88391Y20174D01*
X88473Y20150D01*
X88553Y20122D01*
X88633Y20090D01*
X88711Y20054D01*
X88787Y20016D01*
X88861Y19973D01*
X88933Y19928D01*
X89004Y19879D01*
X89072Y19827D01*
X89137Y19773D01*
X89200Y19715D01*
X89261Y19654D01*
X89319Y19591D01*
X89373Y19526D01*
X89425Y19458D01*
X89474Y19387D01*
X89519Y19315D01*
X89562Y19241D01*
X89600Y19165D01*
X89636Y19087D01*
X89668Y19007D01*
X89696Y18927D01*
X89720Y18845D01*
X89741Y18762D01*
X89758Y18678D01*
X89772Y18594D01*
X89781Y18509D01*
X89787Y18423D01*
X89789Y18338D01*
X89789Y16433D01*
X89789Y18719D02*
X92837Y20243D01*
X87503Y23241D02*
X85979Y25146D01*
X92837Y25146D01*
X92837Y23241D02*
X92837Y27051D01*
X82423Y21314D02*
X82423Y19790D01*
X82421Y19713D01*
X82415Y19636D01*
X82405Y19559D01*
X82392Y19483D01*
X82374Y19408D01*
X82353Y19334D01*
X82328Y19261D01*
X82299Y19189D01*
X82267Y19119D01*
X82232Y19050D01*
X82192Y18984D01*
X82150Y18919D01*
X82104Y18857D01*
X82055Y18797D01*
X82004Y18740D01*
X81949Y18685D01*
X81892Y18634D01*
X81832Y18585D01*
X81770Y18539D01*
X81705Y18497D01*
X81639Y18457D01*
X81570Y18422D01*
X81500Y18390D01*
X81428Y18361D01*
X81355Y18336D01*
X81281Y18315D01*
X81206Y18297D01*
X81130Y18284D01*
X81053Y18274D01*
X80976Y18268D01*
X80899Y18266D01*
X77089Y18266D01*
X77012Y18268D01*
X76935Y18274D01*
X76858Y18284D01*
X76782Y18297D01*
X76707Y18315D01*
X76633Y18336D01*
X76560Y18361D01*
X76488Y18390D01*
X76418Y18422D01*
X76349Y18457D01*
X76283Y18497D01*
X76218Y18539D01*
X76156Y18585D01*
X76096Y18634D01*
X76039Y18685D01*
X75984Y18740D01*
X75933Y18797D01*
X75884Y18857D01*
X75838Y18919D01*
X75796Y18984D01*
X75756Y19050D01*
X75721Y19119D01*
X75689Y19189D01*
X75660Y19261D01*
X75635Y19334D01*
X75614Y19408D01*
X75596Y19483D01*
X75583Y19559D01*
X75573Y19636D01*
X75567Y19713D01*
X75565Y19790D01*
X75565Y21314D01*
X82423Y24003D02*
X82423Y26289D01*
X82421Y26366D01*
X82415Y26443D01*
X82405Y26520D01*
X82392Y26596D01*
X82374Y26671D01*
X82353Y26745D01*
X82328Y26818D01*
X82299Y26890D01*
X82267Y26960D01*
X82232Y27029D01*
X82192Y27095D01*
X82150Y27160D01*
X82104Y27222D01*
X82055Y27282D01*
X82004Y27339D01*
X81949Y27394D01*
X81892Y27445D01*
X81832Y27494D01*
X81770Y27540D01*
X81705Y27582D01*
X81639Y27622D01*
X81570Y27657D01*
X81500Y27689D01*
X81428Y27718D01*
X81355Y27743D01*
X81281Y27764D01*
X81206Y27782D01*
X81130Y27795D01*
X81053Y27805D01*
X80976Y27811D01*
X80899Y27813D01*
X80137Y27813D01*
X80060Y27811D01*
X79983Y27805D01*
X79906Y27795D01*
X79830Y27782D01*
X79755Y27764D01*
X79681Y27743D01*
X79608Y27718D01*
X79536Y27689D01*
X79466Y27657D01*
X79397Y27622D01*
X79331Y27582D01*
X79266Y27540D01*
X79204Y27494D01*
X79144Y27445D01*
X79087Y27394D01*
X79032Y27339D01*
X78981Y27282D01*
X78932Y27222D01*
X78886Y27160D01*
X78844Y27095D01*
X78804Y27029D01*
X78769Y26960D01*
X78737Y26890D01*
X78708Y26818D01*
X78683Y26745D01*
X78662Y26671D01*
X78644Y26596D01*
X78631Y26520D01*
X78621Y26443D01*
X78615Y26366D01*
X78613Y26289D01*
X78613Y24003D01*
X75565Y24003D01*
X75565Y27813D01*
X75057Y148590D02*
X76581Y148590D01*
X75057Y148590D02*
X74980Y148592D01*
X74903Y148598D01*
X74826Y148608D01*
X74750Y148621D01*
X74675Y148639D01*
X74601Y148660D01*
X74528Y148685D01*
X74456Y148714D01*
X74386Y148746D01*
X74317Y148781D01*
X74251Y148821D01*
X74186Y148863D01*
X74124Y148909D01*
X74064Y148958D01*
X74007Y149009D01*
X73952Y149064D01*
X73901Y149121D01*
X73852Y149181D01*
X73806Y149243D01*
X73764Y149308D01*
X73724Y149374D01*
X73689Y149443D01*
X73657Y149513D01*
X73628Y149585D01*
X73603Y149658D01*
X73582Y149732D01*
X73564Y149807D01*
X73551Y149883D01*
X73541Y149960D01*
X73535Y150037D01*
X73533Y150114D01*
X73533Y153924D01*
X73535Y154001D01*
X73541Y154078D01*
X73551Y154155D01*
X73564Y154231D01*
X73582Y154306D01*
X73603Y154380D01*
X73628Y154453D01*
X73657Y154525D01*
X73689Y154595D01*
X73724Y154664D01*
X73764Y154730D01*
X73806Y154795D01*
X73852Y154857D01*
X73901Y154917D01*
X73952Y154974D01*
X74007Y155029D01*
X74064Y155080D01*
X74124Y155129D01*
X74186Y155175D01*
X74251Y155217D01*
X74317Y155257D01*
X74386Y155292D01*
X74456Y155324D01*
X74528Y155353D01*
X74601Y155378D01*
X74675Y155399D01*
X74750Y155417D01*
X74826Y155430D01*
X74903Y155440D01*
X74980Y155446D01*
X75057Y155448D01*
X76581Y155448D01*
X79270Y150495D02*
X79272Y150580D01*
X79278Y150666D01*
X79287Y150751D01*
X79301Y150835D01*
X79318Y150919D01*
X79339Y151002D01*
X79363Y151084D01*
X79391Y151164D01*
X79423Y151244D01*
X79459Y151322D01*
X79497Y151398D01*
X79540Y151472D01*
X79585Y151544D01*
X79634Y151615D01*
X79686Y151683D01*
X79740Y151748D01*
X79798Y151811D01*
X79859Y151872D01*
X79922Y151930D01*
X79987Y151984D01*
X80055Y152036D01*
X80126Y152085D01*
X80198Y152130D01*
X80272Y152173D01*
X80348Y152211D01*
X80426Y152247D01*
X80506Y152279D01*
X80586Y152307D01*
X80668Y152331D01*
X80751Y152352D01*
X80835Y152369D01*
X80919Y152383D01*
X81004Y152392D01*
X81090Y152398D01*
X81175Y152400D01*
X81260Y152398D01*
X81346Y152392D01*
X81431Y152383D01*
X81515Y152369D01*
X81599Y152352D01*
X81682Y152331D01*
X81764Y152307D01*
X81844Y152279D01*
X81924Y152247D01*
X82002Y152211D01*
X82078Y152173D01*
X82152Y152130D01*
X82224Y152085D01*
X82295Y152036D01*
X82363Y151984D01*
X82428Y151930D01*
X82491Y151872D01*
X82552Y151811D01*
X82610Y151748D01*
X82664Y151683D01*
X82716Y151615D01*
X82765Y151544D01*
X82810Y151472D01*
X82853Y151398D01*
X82891Y151322D01*
X82927Y151244D01*
X82959Y151164D01*
X82987Y151084D01*
X83011Y151002D01*
X83032Y150919D01*
X83049Y150835D01*
X83063Y150751D01*
X83072Y150666D01*
X83078Y150580D01*
X83080Y150495D01*
X83078Y150410D01*
X83072Y150324D01*
X83063Y150239D01*
X83049Y150155D01*
X83032Y150071D01*
X83011Y149988D01*
X82987Y149906D01*
X82959Y149826D01*
X82927Y149746D01*
X82891Y149668D01*
X82853Y149592D01*
X82810Y149518D01*
X82765Y149446D01*
X82716Y149375D01*
X82664Y149307D01*
X82610Y149242D01*
X82552Y149179D01*
X82491Y149118D01*
X82428Y149060D01*
X82363Y149006D01*
X82295Y148954D01*
X82224Y148905D01*
X82152Y148860D01*
X82078Y148817D01*
X82002Y148779D01*
X81924Y148743D01*
X81844Y148711D01*
X81764Y148683D01*
X81682Y148659D01*
X81599Y148638D01*
X81515Y148621D01*
X81431Y148607D01*
X81346Y148598D01*
X81260Y148592D01*
X81175Y148590D01*
X81090Y148592D01*
X81004Y148598D01*
X80919Y148607D01*
X80835Y148621D01*
X80751Y148638D01*
X80668Y148659D01*
X80586Y148683D01*
X80506Y148711D01*
X80426Y148743D01*
X80348Y148779D01*
X80272Y148817D01*
X80198Y148860D01*
X80126Y148905D01*
X80055Y148954D01*
X79987Y149006D01*
X79922Y149060D01*
X79859Y149118D01*
X79798Y149179D01*
X79740Y149242D01*
X79686Y149307D01*
X79634Y149375D01*
X79585Y149446D01*
X79540Y149518D01*
X79497Y149592D01*
X79459Y149668D01*
X79423Y149746D01*
X79391Y149826D01*
X79363Y149906D01*
X79339Y149988D01*
X79318Y150071D01*
X79301Y150155D01*
X79287Y150239D01*
X79278Y150324D01*
X79272Y150410D01*
X79270Y150495D01*
X79651Y153924D02*
X79653Y154001D01*
X79659Y154078D01*
X79669Y154155D01*
X79682Y154231D01*
X79700Y154306D01*
X79721Y154380D01*
X79746Y154453D01*
X79775Y154525D01*
X79807Y154595D01*
X79842Y154664D01*
X79882Y154730D01*
X79924Y154795D01*
X79970Y154857D01*
X80019Y154917D01*
X80070Y154974D01*
X80125Y155029D01*
X80182Y155080D01*
X80242Y155129D01*
X80304Y155175D01*
X80369Y155217D01*
X80435Y155257D01*
X80504Y155292D01*
X80574Y155324D01*
X80646Y155353D01*
X80719Y155378D01*
X80793Y155399D01*
X80868Y155417D01*
X80944Y155430D01*
X81021Y155440D01*
X81098Y155446D01*
X81175Y155448D01*
X81252Y155446D01*
X81329Y155440D01*
X81406Y155430D01*
X81482Y155417D01*
X81557Y155399D01*
X81631Y155378D01*
X81704Y155353D01*
X81776Y155324D01*
X81846Y155292D01*
X81915Y155257D01*
X81981Y155217D01*
X82046Y155175D01*
X82108Y155129D01*
X82168Y155080D01*
X82225Y155029D01*
X82280Y154974D01*
X82331Y154917D01*
X82380Y154857D01*
X82426Y154795D01*
X82468Y154730D01*
X82508Y154664D01*
X82543Y154595D01*
X82575Y154525D01*
X82604Y154453D01*
X82629Y154380D01*
X82650Y154306D01*
X82668Y154231D01*
X82681Y154155D01*
X82691Y154078D01*
X82697Y154001D01*
X82699Y153924D01*
X82697Y153847D01*
X82691Y153770D01*
X82681Y153693D01*
X82668Y153617D01*
X82650Y153542D01*
X82629Y153468D01*
X82604Y153395D01*
X82575Y153323D01*
X82543Y153253D01*
X82508Y153184D01*
X82468Y153118D01*
X82426Y153053D01*
X82380Y152991D01*
X82331Y152931D01*
X82280Y152874D01*
X82225Y152819D01*
X82168Y152768D01*
X82108Y152719D01*
X82046Y152673D01*
X81981Y152631D01*
X81915Y152591D01*
X81846Y152556D01*
X81776Y152524D01*
X81704Y152495D01*
X81631Y152470D01*
X81557Y152449D01*
X81482Y152431D01*
X81406Y152418D01*
X81329Y152408D01*
X81252Y152402D01*
X81175Y152400D01*
X81098Y152402D01*
X81021Y152408D01*
X80944Y152418D01*
X80868Y152431D01*
X80793Y152449D01*
X80719Y152470D01*
X80646Y152495D01*
X80574Y152524D01*
X80504Y152556D01*
X80435Y152591D01*
X80369Y152631D01*
X80304Y152673D01*
X80242Y152719D01*
X80182Y152768D01*
X80125Y152819D01*
X80070Y152874D01*
X80019Y152931D01*
X79970Y152991D01*
X79924Y153053D01*
X79882Y153118D01*
X79842Y153184D01*
X79807Y153253D01*
X79775Y153323D01*
X79746Y153395D01*
X79721Y153468D01*
X79700Y153542D01*
X79682Y153617D01*
X79669Y153693D01*
X79659Y153770D01*
X79653Y153847D01*
X79651Y153924D01*
X175238Y121031D02*
X176762Y121031D01*
X175238Y121031D02*
X175161Y121033D01*
X175084Y121039D01*
X175007Y121049D01*
X174931Y121062D01*
X174856Y121080D01*
X174782Y121101D01*
X174709Y121126D01*
X174637Y121155D01*
X174567Y121187D01*
X174498Y121222D01*
X174432Y121262D01*
X174367Y121304D01*
X174305Y121350D01*
X174245Y121399D01*
X174188Y121450D01*
X174133Y121505D01*
X174082Y121562D01*
X174033Y121622D01*
X173987Y121684D01*
X173945Y121749D01*
X173905Y121815D01*
X173870Y121884D01*
X173838Y121954D01*
X173809Y122026D01*
X173784Y122099D01*
X173763Y122173D01*
X173745Y122248D01*
X173732Y122324D01*
X173722Y122401D01*
X173716Y122478D01*
X173714Y122555D01*
X173714Y126365D01*
X173716Y126442D01*
X173722Y126519D01*
X173732Y126596D01*
X173745Y126672D01*
X173763Y126747D01*
X173784Y126821D01*
X173809Y126894D01*
X173838Y126966D01*
X173870Y127036D01*
X173905Y127105D01*
X173945Y127171D01*
X173987Y127236D01*
X174033Y127298D01*
X174082Y127358D01*
X174133Y127415D01*
X174188Y127470D01*
X174245Y127521D01*
X174305Y127570D01*
X174367Y127616D01*
X174432Y127658D01*
X174498Y127698D01*
X174567Y127733D01*
X174637Y127765D01*
X174709Y127794D01*
X174782Y127819D01*
X174856Y127840D01*
X174931Y127858D01*
X175007Y127871D01*
X175084Y127881D01*
X175161Y127887D01*
X175238Y127889D01*
X176762Y127889D01*
X179451Y124841D02*
X181737Y124841D01*
X181814Y124839D01*
X181891Y124833D01*
X181968Y124823D01*
X182044Y124810D01*
X182119Y124792D01*
X182193Y124771D01*
X182266Y124746D01*
X182338Y124717D01*
X182408Y124685D01*
X182477Y124650D01*
X182543Y124610D01*
X182608Y124568D01*
X182670Y124522D01*
X182730Y124473D01*
X182787Y124422D01*
X182842Y124367D01*
X182893Y124310D01*
X182942Y124250D01*
X182988Y124188D01*
X183030Y124123D01*
X183070Y124057D01*
X183105Y123988D01*
X183137Y123918D01*
X183166Y123846D01*
X183191Y123773D01*
X183212Y123699D01*
X183230Y123624D01*
X183243Y123548D01*
X183253Y123471D01*
X183259Y123394D01*
X183261Y123317D01*
X183261Y122936D01*
X183259Y122851D01*
X183253Y122765D01*
X183244Y122680D01*
X183230Y122596D01*
X183213Y122512D01*
X183192Y122429D01*
X183168Y122347D01*
X183140Y122267D01*
X183108Y122187D01*
X183072Y122109D01*
X183034Y122033D01*
X182991Y121959D01*
X182946Y121887D01*
X182897Y121816D01*
X182845Y121748D01*
X182791Y121683D01*
X182733Y121620D01*
X182672Y121559D01*
X182609Y121501D01*
X182544Y121447D01*
X182476Y121395D01*
X182405Y121346D01*
X182333Y121301D01*
X182259Y121258D01*
X182183Y121220D01*
X182105Y121184D01*
X182025Y121152D01*
X181945Y121124D01*
X181863Y121100D01*
X181780Y121079D01*
X181696Y121062D01*
X181612Y121048D01*
X181527Y121039D01*
X181441Y121033D01*
X181356Y121031D01*
X181271Y121033D01*
X181185Y121039D01*
X181100Y121048D01*
X181016Y121062D01*
X180932Y121079D01*
X180849Y121100D01*
X180767Y121124D01*
X180687Y121152D01*
X180607Y121184D01*
X180529Y121220D01*
X180453Y121258D01*
X180379Y121301D01*
X180307Y121346D01*
X180236Y121395D01*
X180168Y121447D01*
X180103Y121501D01*
X180040Y121559D01*
X179979Y121620D01*
X179921Y121683D01*
X179867Y121748D01*
X179815Y121816D01*
X179766Y121887D01*
X179721Y121959D01*
X179678Y122033D01*
X179640Y122109D01*
X179604Y122187D01*
X179572Y122267D01*
X179544Y122347D01*
X179520Y122429D01*
X179499Y122512D01*
X179482Y122596D01*
X179468Y122680D01*
X179459Y122765D01*
X179453Y122851D01*
X179451Y122936D01*
X179451Y124841D01*
X179453Y124950D01*
X179459Y125058D01*
X179468Y125167D01*
X179482Y125275D01*
X179499Y125382D01*
X179521Y125489D01*
X179546Y125595D01*
X179574Y125700D01*
X179607Y125804D01*
X179643Y125906D01*
X179683Y126007D01*
X179726Y126107D01*
X179773Y126205D01*
X179824Y126302D01*
X179878Y126396D01*
X179935Y126489D01*
X179995Y126579D01*
X180059Y126668D01*
X180126Y126754D01*
X180195Y126837D01*
X180268Y126918D01*
X180344Y126996D01*
X180422Y127072D01*
X180503Y127145D01*
X180586Y127214D01*
X180672Y127281D01*
X180761Y127345D01*
X180851Y127405D01*
X180944Y127462D01*
X181038Y127516D01*
X181135Y127567D01*
X181233Y127614D01*
X181333Y127657D01*
X181434Y127697D01*
X181536Y127733D01*
X181640Y127766D01*
X181745Y127794D01*
X181851Y127819D01*
X181958Y127841D01*
X182065Y127858D01*
X182173Y127872D01*
X182282Y127881D01*
X182390Y127887D01*
X182499Y127889D01*
X159639Y121412D02*
X158115Y121412D01*
X158038Y121414D01*
X157961Y121420D01*
X157884Y121430D01*
X157808Y121443D01*
X157733Y121461D01*
X157659Y121482D01*
X157586Y121507D01*
X157514Y121536D01*
X157444Y121568D01*
X157375Y121603D01*
X157309Y121643D01*
X157244Y121685D01*
X157182Y121731D01*
X157122Y121780D01*
X157065Y121831D01*
X157010Y121886D01*
X156959Y121943D01*
X156910Y122003D01*
X156864Y122065D01*
X156822Y122130D01*
X156782Y122196D01*
X156747Y122265D01*
X156715Y122335D01*
X156686Y122407D01*
X156661Y122480D01*
X156640Y122554D01*
X156622Y122629D01*
X156609Y122705D01*
X156599Y122782D01*
X156593Y122859D01*
X156591Y122936D01*
X156591Y126746D01*
X156593Y126823D01*
X156599Y126900D01*
X156609Y126977D01*
X156622Y127053D01*
X156640Y127128D01*
X156661Y127202D01*
X156686Y127275D01*
X156715Y127347D01*
X156747Y127417D01*
X156782Y127486D01*
X156822Y127552D01*
X156864Y127617D01*
X156910Y127679D01*
X156959Y127739D01*
X157010Y127796D01*
X157065Y127851D01*
X157122Y127902D01*
X157182Y127951D01*
X157244Y127997D01*
X157309Y128039D01*
X157375Y128079D01*
X157444Y128114D01*
X157514Y128146D01*
X157586Y128175D01*
X157659Y128200D01*
X157733Y128221D01*
X157808Y128239D01*
X157884Y128252D01*
X157961Y128262D01*
X158038Y128268D01*
X158115Y128270D01*
X159639Y128270D01*
X162328Y128270D02*
X162328Y127508D01*
X162328Y128270D02*
X166138Y128270D01*
X164233Y121412D01*
X132842Y144399D02*
X132842Y145923D01*
X132842Y144399D02*
X132840Y144322D01*
X132834Y144245D01*
X132824Y144168D01*
X132811Y144092D01*
X132793Y144017D01*
X132772Y143943D01*
X132747Y143870D01*
X132718Y143798D01*
X132686Y143728D01*
X132651Y143659D01*
X132611Y143593D01*
X132569Y143528D01*
X132523Y143466D01*
X132474Y143406D01*
X132423Y143349D01*
X132368Y143294D01*
X132311Y143243D01*
X132251Y143194D01*
X132189Y143148D01*
X132124Y143106D01*
X132058Y143066D01*
X131989Y143031D01*
X131919Y142999D01*
X131847Y142970D01*
X131774Y142945D01*
X131700Y142924D01*
X131625Y142906D01*
X131549Y142893D01*
X131472Y142883D01*
X131395Y142877D01*
X131318Y142875D01*
X127508Y142875D01*
X127431Y142877D01*
X127354Y142883D01*
X127277Y142893D01*
X127201Y142906D01*
X127126Y142924D01*
X127052Y142945D01*
X126979Y142970D01*
X126907Y142999D01*
X126837Y143031D01*
X126768Y143066D01*
X126702Y143106D01*
X126637Y143148D01*
X126575Y143194D01*
X126515Y143243D01*
X126458Y143294D01*
X126403Y143349D01*
X126352Y143406D01*
X126303Y143466D01*
X126257Y143528D01*
X126215Y143593D01*
X126175Y143659D01*
X126140Y143728D01*
X126108Y143798D01*
X126079Y143870D01*
X126054Y143943D01*
X126033Y144017D01*
X126015Y144092D01*
X126002Y144168D01*
X125992Y144245D01*
X125986Y144322D01*
X125984Y144399D01*
X125984Y145923D01*
X127508Y148612D02*
X125984Y150517D01*
X132842Y150517D01*
X132842Y148612D02*
X132842Y152422D01*
X127508Y155470D02*
X125984Y157375D01*
X132842Y157375D01*
X132842Y155470D02*
X132842Y159280D01*
X106299Y147066D02*
X106299Y145542D01*
X106297Y145465D01*
X106291Y145388D01*
X106281Y145311D01*
X106268Y145235D01*
X106250Y145160D01*
X106229Y145086D01*
X106204Y145013D01*
X106175Y144941D01*
X106143Y144871D01*
X106108Y144802D01*
X106068Y144736D01*
X106026Y144671D01*
X105980Y144609D01*
X105931Y144549D01*
X105880Y144492D01*
X105825Y144437D01*
X105768Y144386D01*
X105708Y144337D01*
X105646Y144291D01*
X105581Y144249D01*
X105515Y144209D01*
X105446Y144174D01*
X105376Y144142D01*
X105304Y144113D01*
X105231Y144088D01*
X105157Y144067D01*
X105082Y144049D01*
X105006Y144036D01*
X104929Y144026D01*
X104852Y144020D01*
X104775Y144018D01*
X100965Y144018D01*
X100888Y144020D01*
X100811Y144026D01*
X100734Y144036D01*
X100658Y144049D01*
X100583Y144067D01*
X100509Y144088D01*
X100436Y144113D01*
X100364Y144142D01*
X100294Y144174D01*
X100225Y144209D01*
X100159Y144249D01*
X100094Y144291D01*
X100032Y144337D01*
X99972Y144386D01*
X99915Y144437D01*
X99860Y144492D01*
X99809Y144549D01*
X99760Y144609D01*
X99714Y144671D01*
X99672Y144736D01*
X99632Y144802D01*
X99597Y144871D01*
X99565Y144941D01*
X99536Y145013D01*
X99511Y145086D01*
X99490Y145160D01*
X99472Y145235D01*
X99459Y145311D01*
X99449Y145388D01*
X99443Y145465D01*
X99441Y145542D01*
X99441Y147066D01*
X100965Y149755D02*
X99441Y151660D01*
X106299Y151660D01*
X106299Y149755D02*
X106299Y153565D01*
X99441Y158709D02*
X99443Y158791D01*
X99449Y158872D01*
X99458Y158953D01*
X99472Y159034D01*
X99489Y159113D01*
X99510Y159192D01*
X99535Y159270D01*
X99564Y159346D01*
X99596Y159421D01*
X99632Y159495D01*
X99671Y159567D01*
X99713Y159636D01*
X99759Y159704D01*
X99808Y159769D01*
X99860Y159832D01*
X99915Y159892D01*
X99973Y159950D01*
X100033Y160005D01*
X100096Y160057D01*
X100161Y160106D01*
X100229Y160152D01*
X100299Y160194D01*
X100370Y160233D01*
X100444Y160269D01*
X100519Y160301D01*
X100595Y160330D01*
X100673Y160355D01*
X100752Y160376D01*
X100831Y160393D01*
X100912Y160407D01*
X100993Y160416D01*
X101074Y160422D01*
X101156Y160424D01*
X99441Y158709D02*
X99443Y158617D01*
X99449Y158525D01*
X99458Y158433D01*
X99472Y158341D01*
X99489Y158251D01*
X99510Y158161D01*
X99535Y158072D01*
X99564Y157984D01*
X99596Y157897D01*
X99632Y157812D01*
X99671Y157729D01*
X99714Y157647D01*
X99760Y157567D01*
X99810Y157489D01*
X99862Y157413D01*
X99918Y157340D01*
X99977Y157269D01*
X100039Y157200D01*
X100104Y157134D01*
X100171Y157071D01*
X100241Y157011D01*
X100313Y156953D01*
X100388Y156899D01*
X100465Y156848D01*
X100544Y156800D01*
X100625Y156756D01*
X100708Y156715D01*
X100792Y156677D01*
X100878Y156643D01*
X100965Y156613D01*
X102490Y159852D02*
X102431Y159911D01*
X102370Y159967D01*
X102307Y160020D01*
X102241Y160071D01*
X102173Y160118D01*
X102103Y160162D01*
X102031Y160203D01*
X101957Y160241D01*
X101882Y160275D01*
X101805Y160306D01*
X101727Y160333D01*
X101647Y160357D01*
X101567Y160378D01*
X101486Y160394D01*
X101404Y160407D01*
X101322Y160417D01*
X101239Y160422D01*
X101156Y160424D01*
X102489Y159852D02*
X106299Y156613D01*
X106299Y160423D01*
X106807Y13186D02*
X106807Y11662D01*
X106805Y11585D01*
X106799Y11508D01*
X106789Y11431D01*
X106776Y11355D01*
X106758Y11280D01*
X106737Y11206D01*
X106712Y11133D01*
X106683Y11061D01*
X106651Y10991D01*
X106616Y10922D01*
X106576Y10856D01*
X106534Y10791D01*
X106488Y10729D01*
X106439Y10669D01*
X106388Y10612D01*
X106333Y10557D01*
X106276Y10506D01*
X106216Y10457D01*
X106154Y10411D01*
X106089Y10369D01*
X106023Y10329D01*
X105954Y10294D01*
X105884Y10262D01*
X105812Y10233D01*
X105739Y10208D01*
X105665Y10187D01*
X105590Y10169D01*
X105514Y10156D01*
X105437Y10146D01*
X105360Y10140D01*
X105283Y10138D01*
X101473Y10138D01*
X101396Y10140D01*
X101319Y10146D01*
X101242Y10156D01*
X101166Y10169D01*
X101091Y10187D01*
X101017Y10208D01*
X100944Y10233D01*
X100872Y10262D01*
X100802Y10294D01*
X100733Y10329D01*
X100667Y10369D01*
X100602Y10411D01*
X100540Y10457D01*
X100480Y10506D01*
X100423Y10557D01*
X100368Y10612D01*
X100317Y10669D01*
X100268Y10729D01*
X100222Y10791D01*
X100180Y10856D01*
X100140Y10922D01*
X100105Y10991D01*
X100073Y11061D01*
X100044Y11133D01*
X100019Y11206D01*
X99998Y11280D01*
X99980Y11355D01*
X99967Y11431D01*
X99957Y11508D01*
X99951Y11585D01*
X99949Y11662D01*
X99949Y13186D01*
X101473Y15875D02*
X99949Y17780D01*
X106807Y17780D01*
X106807Y15875D02*
X106807Y19685D01*
X106807Y22733D02*
X106807Y24638D01*
X106805Y24723D01*
X106799Y24809D01*
X106790Y24894D01*
X106776Y24978D01*
X106759Y25062D01*
X106738Y25145D01*
X106714Y25227D01*
X106686Y25307D01*
X106654Y25387D01*
X106618Y25465D01*
X106580Y25541D01*
X106537Y25615D01*
X106492Y25687D01*
X106443Y25758D01*
X106391Y25826D01*
X106337Y25891D01*
X106279Y25954D01*
X106218Y26015D01*
X106155Y26073D01*
X106090Y26127D01*
X106022Y26179D01*
X105951Y26228D01*
X105879Y26273D01*
X105805Y26316D01*
X105729Y26354D01*
X105651Y26390D01*
X105571Y26422D01*
X105491Y26450D01*
X105409Y26474D01*
X105326Y26495D01*
X105242Y26512D01*
X105158Y26526D01*
X105073Y26535D01*
X104987Y26541D01*
X104902Y26543D01*
X104817Y26541D01*
X104731Y26535D01*
X104646Y26526D01*
X104562Y26512D01*
X104478Y26495D01*
X104395Y26474D01*
X104313Y26450D01*
X104233Y26422D01*
X104153Y26390D01*
X104075Y26354D01*
X103999Y26316D01*
X103925Y26273D01*
X103853Y26228D01*
X103782Y26179D01*
X103714Y26127D01*
X103649Y26073D01*
X103586Y26015D01*
X103525Y25954D01*
X103467Y25891D01*
X103413Y25826D01*
X103361Y25758D01*
X103312Y25687D01*
X103267Y25615D01*
X103224Y25541D01*
X103186Y25465D01*
X103150Y25387D01*
X103118Y25307D01*
X103090Y25227D01*
X103066Y25145D01*
X103045Y25062D01*
X103028Y24978D01*
X103014Y24894D01*
X103005Y24809D01*
X102999Y24723D01*
X102997Y24638D01*
X99949Y25019D02*
X99949Y22733D01*
X99949Y25019D02*
X99951Y25096D01*
X99957Y25173D01*
X99967Y25250D01*
X99980Y25326D01*
X99998Y25401D01*
X100019Y25475D01*
X100044Y25548D01*
X100073Y25620D01*
X100105Y25690D01*
X100140Y25759D01*
X100180Y25825D01*
X100222Y25890D01*
X100268Y25952D01*
X100317Y26012D01*
X100368Y26069D01*
X100423Y26124D01*
X100480Y26175D01*
X100540Y26224D01*
X100602Y26270D01*
X100667Y26312D01*
X100733Y26352D01*
X100802Y26387D01*
X100872Y26419D01*
X100944Y26448D01*
X101017Y26473D01*
X101091Y26494D01*
X101166Y26512D01*
X101242Y26525D01*
X101319Y26535D01*
X101396Y26541D01*
X101473Y26543D01*
X101550Y26541D01*
X101627Y26535D01*
X101704Y26525D01*
X101780Y26512D01*
X101855Y26494D01*
X101929Y26473D01*
X102002Y26448D01*
X102074Y26419D01*
X102144Y26387D01*
X102213Y26352D01*
X102279Y26312D01*
X102344Y26270D01*
X102406Y26224D01*
X102466Y26175D01*
X102523Y26124D01*
X102578Y26069D01*
X102629Y26012D01*
X102678Y25952D01*
X102724Y25890D01*
X102766Y25825D01*
X102806Y25759D01*
X102841Y25690D01*
X102873Y25620D01*
X102902Y25548D01*
X102927Y25475D01*
X102948Y25401D01*
X102966Y25326D01*
X102979Y25250D01*
X102989Y25173D01*
X102995Y25096D01*
X102997Y25019D01*
X102997Y23495D01*
X72898Y14202D02*
X72898Y12678D01*
X72896Y12601D01*
X72890Y12524D01*
X72880Y12447D01*
X72867Y12371D01*
X72849Y12296D01*
X72828Y12222D01*
X72803Y12149D01*
X72774Y12077D01*
X72742Y12007D01*
X72707Y11938D01*
X72667Y11872D01*
X72625Y11807D01*
X72579Y11745D01*
X72530Y11685D01*
X72479Y11628D01*
X72424Y11573D01*
X72367Y11522D01*
X72307Y11473D01*
X72245Y11427D01*
X72180Y11385D01*
X72114Y11345D01*
X72045Y11310D01*
X71975Y11278D01*
X71903Y11249D01*
X71830Y11224D01*
X71756Y11203D01*
X71681Y11185D01*
X71605Y11172D01*
X71528Y11162D01*
X71451Y11156D01*
X71374Y11154D01*
X67564Y11154D01*
X67487Y11156D01*
X67410Y11162D01*
X67333Y11172D01*
X67257Y11185D01*
X67182Y11203D01*
X67108Y11224D01*
X67035Y11249D01*
X66963Y11278D01*
X66893Y11310D01*
X66824Y11345D01*
X66758Y11385D01*
X66693Y11427D01*
X66631Y11473D01*
X66571Y11522D01*
X66514Y11573D01*
X66459Y11628D01*
X66408Y11685D01*
X66359Y11745D01*
X66313Y11807D01*
X66271Y11872D01*
X66231Y11938D01*
X66196Y12007D01*
X66164Y12077D01*
X66135Y12149D01*
X66110Y12222D01*
X66089Y12296D01*
X66071Y12371D01*
X66058Y12447D01*
X66048Y12524D01*
X66042Y12601D01*
X66040Y12678D01*
X66040Y14202D01*
X67564Y16891D02*
X66040Y18796D01*
X72898Y18796D01*
X72898Y16891D02*
X72898Y20701D01*
X72898Y23749D02*
X72898Y26035D01*
X72896Y26112D01*
X72890Y26189D01*
X72880Y26266D01*
X72867Y26342D01*
X72849Y26417D01*
X72828Y26491D01*
X72803Y26564D01*
X72774Y26636D01*
X72742Y26706D01*
X72707Y26775D01*
X72667Y26841D01*
X72625Y26906D01*
X72579Y26968D01*
X72530Y27028D01*
X72479Y27085D01*
X72424Y27140D01*
X72367Y27191D01*
X72307Y27240D01*
X72245Y27286D01*
X72180Y27328D01*
X72114Y27368D01*
X72045Y27403D01*
X71975Y27435D01*
X71903Y27464D01*
X71830Y27489D01*
X71756Y27510D01*
X71681Y27528D01*
X71605Y27541D01*
X71528Y27551D01*
X71451Y27557D01*
X71374Y27559D01*
X70612Y27559D01*
X70535Y27557D01*
X70458Y27551D01*
X70381Y27541D01*
X70305Y27528D01*
X70230Y27510D01*
X70156Y27489D01*
X70083Y27464D01*
X70011Y27435D01*
X69941Y27403D01*
X69872Y27368D01*
X69806Y27328D01*
X69741Y27286D01*
X69679Y27240D01*
X69619Y27191D01*
X69562Y27140D01*
X69507Y27085D01*
X69456Y27028D01*
X69407Y26968D01*
X69361Y26906D01*
X69319Y26841D01*
X69279Y26775D01*
X69244Y26706D01*
X69212Y26636D01*
X69183Y26564D01*
X69158Y26491D01*
X69137Y26417D01*
X69119Y26342D01*
X69106Y26266D01*
X69096Y26189D01*
X69090Y26112D01*
X69088Y26035D01*
X69088Y23749D01*
X66040Y23749D01*
X66040Y27559D01*
D12*
X49921Y53452D02*
X44821Y53452D01*
X44821Y67452D02*
X49921Y67452D01*
D10*
X16764Y56642D02*
X15240Y56642D01*
X15163Y56644D01*
X15086Y56650D01*
X15009Y56660D01*
X14933Y56673D01*
X14858Y56691D01*
X14784Y56712D01*
X14711Y56737D01*
X14639Y56766D01*
X14569Y56798D01*
X14500Y56833D01*
X14434Y56873D01*
X14369Y56915D01*
X14307Y56961D01*
X14247Y57010D01*
X14190Y57061D01*
X14135Y57116D01*
X14084Y57173D01*
X14035Y57233D01*
X13989Y57295D01*
X13947Y57360D01*
X13907Y57426D01*
X13872Y57495D01*
X13840Y57565D01*
X13811Y57637D01*
X13786Y57710D01*
X13765Y57784D01*
X13747Y57859D01*
X13734Y57935D01*
X13724Y58012D01*
X13718Y58089D01*
X13716Y58166D01*
X13716Y61976D01*
X13718Y62053D01*
X13724Y62130D01*
X13734Y62207D01*
X13747Y62283D01*
X13765Y62358D01*
X13786Y62432D01*
X13811Y62505D01*
X13840Y62577D01*
X13872Y62647D01*
X13907Y62716D01*
X13947Y62782D01*
X13989Y62847D01*
X14035Y62909D01*
X14084Y62969D01*
X14135Y63026D01*
X14190Y63081D01*
X14247Y63132D01*
X14307Y63181D01*
X14369Y63227D01*
X14434Y63269D01*
X14500Y63309D01*
X14569Y63344D01*
X14639Y63376D01*
X14711Y63405D01*
X14784Y63430D01*
X14858Y63451D01*
X14933Y63469D01*
X15009Y63482D01*
X15086Y63492D01*
X15163Y63498D01*
X15240Y63500D01*
X16764Y63500D01*
X19453Y61976D02*
X21358Y63500D01*
X21358Y56642D01*
X19453Y56642D02*
X23263Y56642D01*
X26311Y58166D02*
X27835Y63500D01*
X26311Y58166D02*
X30121Y58166D01*
X28978Y59690D02*
X28978Y56642D01*
D12*
X43678Y109870D02*
X48778Y109870D01*
X48778Y95870D02*
X43678Y95870D01*
D10*
X14605Y99949D02*
X13081Y99949D01*
X13004Y99951D01*
X12927Y99957D01*
X12850Y99967D01*
X12774Y99980D01*
X12699Y99998D01*
X12625Y100019D01*
X12552Y100044D01*
X12480Y100073D01*
X12410Y100105D01*
X12341Y100140D01*
X12275Y100180D01*
X12210Y100222D01*
X12148Y100268D01*
X12088Y100317D01*
X12031Y100368D01*
X11976Y100423D01*
X11925Y100480D01*
X11876Y100540D01*
X11830Y100602D01*
X11788Y100667D01*
X11748Y100733D01*
X11713Y100802D01*
X11681Y100872D01*
X11652Y100944D01*
X11627Y101017D01*
X11606Y101091D01*
X11588Y101166D01*
X11575Y101242D01*
X11565Y101319D01*
X11559Y101396D01*
X11557Y101473D01*
X11557Y105283D01*
X11559Y105360D01*
X11565Y105437D01*
X11575Y105514D01*
X11588Y105590D01*
X11606Y105665D01*
X11627Y105739D01*
X11652Y105812D01*
X11681Y105884D01*
X11713Y105954D01*
X11748Y106023D01*
X11788Y106089D01*
X11830Y106154D01*
X11876Y106216D01*
X11925Y106276D01*
X11976Y106333D01*
X12031Y106388D01*
X12088Y106439D01*
X12148Y106488D01*
X12210Y106534D01*
X12275Y106576D01*
X12341Y106616D01*
X12410Y106651D01*
X12480Y106683D01*
X12552Y106712D01*
X12625Y106737D01*
X12699Y106758D01*
X12774Y106776D01*
X12850Y106789D01*
X12927Y106799D01*
X13004Y106805D01*
X13081Y106807D01*
X14605Y106807D01*
X17294Y105283D02*
X19199Y106807D01*
X19199Y99949D01*
X17294Y99949D02*
X21104Y99949D01*
X24152Y103759D02*
X26438Y103759D01*
X26515Y103757D01*
X26592Y103751D01*
X26669Y103741D01*
X26745Y103728D01*
X26820Y103710D01*
X26894Y103689D01*
X26967Y103664D01*
X27039Y103635D01*
X27109Y103603D01*
X27178Y103568D01*
X27244Y103528D01*
X27309Y103486D01*
X27371Y103440D01*
X27431Y103391D01*
X27488Y103340D01*
X27543Y103285D01*
X27594Y103228D01*
X27643Y103168D01*
X27689Y103106D01*
X27731Y103041D01*
X27771Y102975D01*
X27806Y102906D01*
X27838Y102836D01*
X27867Y102764D01*
X27892Y102691D01*
X27913Y102617D01*
X27931Y102542D01*
X27944Y102466D01*
X27954Y102389D01*
X27960Y102312D01*
X27962Y102235D01*
X27962Y101854D01*
X27960Y101769D01*
X27954Y101683D01*
X27945Y101598D01*
X27931Y101514D01*
X27914Y101430D01*
X27893Y101347D01*
X27869Y101265D01*
X27841Y101185D01*
X27809Y101105D01*
X27773Y101027D01*
X27735Y100951D01*
X27692Y100877D01*
X27647Y100805D01*
X27598Y100734D01*
X27546Y100666D01*
X27492Y100601D01*
X27434Y100538D01*
X27373Y100477D01*
X27310Y100419D01*
X27245Y100365D01*
X27177Y100313D01*
X27106Y100264D01*
X27034Y100219D01*
X26960Y100176D01*
X26884Y100138D01*
X26806Y100102D01*
X26726Y100070D01*
X26646Y100042D01*
X26564Y100018D01*
X26481Y99997D01*
X26397Y99980D01*
X26313Y99966D01*
X26228Y99957D01*
X26142Y99951D01*
X26057Y99949D01*
X25972Y99951D01*
X25886Y99957D01*
X25801Y99966D01*
X25717Y99980D01*
X25633Y99997D01*
X25550Y100018D01*
X25468Y100042D01*
X25388Y100070D01*
X25308Y100102D01*
X25230Y100138D01*
X25154Y100176D01*
X25080Y100219D01*
X25008Y100264D01*
X24937Y100313D01*
X24869Y100365D01*
X24804Y100419D01*
X24741Y100477D01*
X24680Y100538D01*
X24622Y100601D01*
X24568Y100666D01*
X24516Y100734D01*
X24467Y100805D01*
X24422Y100877D01*
X24379Y100951D01*
X24341Y101027D01*
X24305Y101105D01*
X24273Y101185D01*
X24245Y101265D01*
X24221Y101347D01*
X24200Y101430D01*
X24183Y101514D01*
X24169Y101598D01*
X24160Y101683D01*
X24154Y101769D01*
X24152Y101854D01*
X24152Y103759D01*
X24154Y103868D01*
X24160Y103976D01*
X24169Y104085D01*
X24183Y104193D01*
X24200Y104300D01*
X24222Y104407D01*
X24247Y104513D01*
X24275Y104618D01*
X24308Y104722D01*
X24344Y104824D01*
X24384Y104925D01*
X24427Y105025D01*
X24474Y105123D01*
X24525Y105220D01*
X24579Y105314D01*
X24636Y105407D01*
X24696Y105497D01*
X24760Y105586D01*
X24827Y105672D01*
X24896Y105755D01*
X24969Y105836D01*
X25045Y105914D01*
X25123Y105990D01*
X25204Y106063D01*
X25287Y106132D01*
X25373Y106199D01*
X25462Y106263D01*
X25552Y106323D01*
X25645Y106380D01*
X25739Y106434D01*
X25836Y106485D01*
X25934Y106532D01*
X26034Y106575D01*
X26135Y106615D01*
X26237Y106651D01*
X26341Y106684D01*
X26446Y106712D01*
X26552Y106737D01*
X26659Y106759D01*
X26766Y106776D01*
X26874Y106790D01*
X26983Y106799D01*
X27091Y106805D01*
X27200Y106807D01*
X116459Y13059D02*
X116459Y11535D01*
X116457Y11458D01*
X116451Y11381D01*
X116441Y11304D01*
X116428Y11228D01*
X116410Y11153D01*
X116389Y11079D01*
X116364Y11006D01*
X116335Y10934D01*
X116303Y10864D01*
X116268Y10795D01*
X116228Y10729D01*
X116186Y10664D01*
X116140Y10602D01*
X116091Y10542D01*
X116040Y10485D01*
X115985Y10430D01*
X115928Y10379D01*
X115868Y10330D01*
X115806Y10284D01*
X115741Y10242D01*
X115675Y10202D01*
X115606Y10167D01*
X115536Y10135D01*
X115464Y10106D01*
X115391Y10081D01*
X115317Y10060D01*
X115242Y10042D01*
X115166Y10029D01*
X115089Y10019D01*
X115012Y10013D01*
X114935Y10011D01*
X111125Y10011D01*
X111048Y10013D01*
X110971Y10019D01*
X110894Y10029D01*
X110818Y10042D01*
X110743Y10060D01*
X110669Y10081D01*
X110596Y10106D01*
X110524Y10135D01*
X110454Y10167D01*
X110385Y10202D01*
X110319Y10242D01*
X110254Y10284D01*
X110192Y10330D01*
X110132Y10379D01*
X110075Y10430D01*
X110020Y10485D01*
X109969Y10542D01*
X109920Y10602D01*
X109874Y10664D01*
X109832Y10729D01*
X109792Y10795D01*
X109757Y10864D01*
X109725Y10934D01*
X109696Y11006D01*
X109671Y11079D01*
X109650Y11153D01*
X109632Y11228D01*
X109619Y11304D01*
X109609Y11381D01*
X109603Y11458D01*
X109601Y11535D01*
X109601Y13059D01*
X111125Y15748D02*
X109601Y17653D01*
X116459Y17653D01*
X116459Y15748D02*
X116459Y19558D01*
X110363Y22606D02*
X109601Y22606D01*
X109601Y26416D01*
X116459Y24511D01*
X149225Y30988D02*
X150749Y30988D01*
X149225Y30988D02*
X149148Y30990D01*
X149071Y30996D01*
X148994Y31006D01*
X148918Y31019D01*
X148843Y31037D01*
X148769Y31058D01*
X148696Y31083D01*
X148624Y31112D01*
X148554Y31144D01*
X148485Y31179D01*
X148419Y31219D01*
X148354Y31261D01*
X148292Y31307D01*
X148232Y31356D01*
X148175Y31407D01*
X148120Y31462D01*
X148069Y31519D01*
X148020Y31579D01*
X147974Y31641D01*
X147932Y31706D01*
X147892Y31772D01*
X147857Y31841D01*
X147825Y31911D01*
X147796Y31983D01*
X147771Y32056D01*
X147750Y32130D01*
X147732Y32205D01*
X147719Y32281D01*
X147709Y32358D01*
X147703Y32435D01*
X147701Y32512D01*
X147701Y36322D01*
X147703Y36399D01*
X147709Y36476D01*
X147719Y36553D01*
X147732Y36629D01*
X147750Y36704D01*
X147771Y36778D01*
X147796Y36851D01*
X147825Y36923D01*
X147857Y36993D01*
X147892Y37062D01*
X147932Y37128D01*
X147974Y37193D01*
X148020Y37255D01*
X148069Y37315D01*
X148120Y37372D01*
X148175Y37427D01*
X148232Y37478D01*
X148292Y37527D01*
X148354Y37573D01*
X148419Y37615D01*
X148485Y37655D01*
X148554Y37690D01*
X148624Y37722D01*
X148696Y37751D01*
X148769Y37776D01*
X148843Y37797D01*
X148918Y37815D01*
X148994Y37828D01*
X149071Y37838D01*
X149148Y37844D01*
X149225Y37846D01*
X150749Y37846D01*
X153438Y36322D02*
X155343Y37846D01*
X155343Y30988D01*
X153438Y30988D02*
X157248Y30988D01*
X160296Y32893D02*
X160298Y32978D01*
X160304Y33064D01*
X160313Y33149D01*
X160327Y33233D01*
X160344Y33317D01*
X160365Y33400D01*
X160389Y33482D01*
X160417Y33562D01*
X160449Y33642D01*
X160485Y33720D01*
X160523Y33796D01*
X160566Y33870D01*
X160611Y33942D01*
X160660Y34013D01*
X160712Y34081D01*
X160766Y34146D01*
X160824Y34209D01*
X160885Y34270D01*
X160948Y34328D01*
X161013Y34382D01*
X161081Y34434D01*
X161152Y34483D01*
X161224Y34528D01*
X161298Y34571D01*
X161374Y34609D01*
X161452Y34645D01*
X161532Y34677D01*
X161612Y34705D01*
X161694Y34729D01*
X161777Y34750D01*
X161861Y34767D01*
X161945Y34781D01*
X162030Y34790D01*
X162116Y34796D01*
X162201Y34798D01*
X162286Y34796D01*
X162372Y34790D01*
X162457Y34781D01*
X162541Y34767D01*
X162625Y34750D01*
X162708Y34729D01*
X162790Y34705D01*
X162870Y34677D01*
X162950Y34645D01*
X163028Y34609D01*
X163104Y34571D01*
X163178Y34528D01*
X163250Y34483D01*
X163321Y34434D01*
X163389Y34382D01*
X163454Y34328D01*
X163517Y34270D01*
X163578Y34209D01*
X163636Y34146D01*
X163690Y34081D01*
X163742Y34013D01*
X163791Y33942D01*
X163836Y33870D01*
X163879Y33796D01*
X163917Y33720D01*
X163953Y33642D01*
X163985Y33562D01*
X164013Y33482D01*
X164037Y33400D01*
X164058Y33317D01*
X164075Y33233D01*
X164089Y33149D01*
X164098Y33064D01*
X164104Y32978D01*
X164106Y32893D01*
X164104Y32808D01*
X164098Y32722D01*
X164089Y32637D01*
X164075Y32553D01*
X164058Y32469D01*
X164037Y32386D01*
X164013Y32304D01*
X163985Y32224D01*
X163953Y32144D01*
X163917Y32066D01*
X163879Y31990D01*
X163836Y31916D01*
X163791Y31844D01*
X163742Y31773D01*
X163690Y31705D01*
X163636Y31640D01*
X163578Y31577D01*
X163517Y31516D01*
X163454Y31458D01*
X163389Y31404D01*
X163321Y31352D01*
X163250Y31303D01*
X163178Y31258D01*
X163104Y31215D01*
X163028Y31177D01*
X162950Y31141D01*
X162870Y31109D01*
X162790Y31081D01*
X162708Y31057D01*
X162625Y31036D01*
X162541Y31019D01*
X162457Y31005D01*
X162372Y30996D01*
X162286Y30990D01*
X162201Y30988D01*
X162116Y30990D01*
X162030Y30996D01*
X161945Y31005D01*
X161861Y31019D01*
X161777Y31036D01*
X161694Y31057D01*
X161612Y31081D01*
X161532Y31109D01*
X161452Y31141D01*
X161374Y31177D01*
X161298Y31215D01*
X161224Y31258D01*
X161152Y31303D01*
X161081Y31352D01*
X161013Y31404D01*
X160948Y31458D01*
X160885Y31516D01*
X160824Y31577D01*
X160766Y31640D01*
X160712Y31705D01*
X160660Y31773D01*
X160611Y31844D01*
X160566Y31916D01*
X160523Y31990D01*
X160485Y32066D01*
X160449Y32144D01*
X160417Y32224D01*
X160389Y32304D01*
X160365Y32386D01*
X160344Y32469D01*
X160327Y32553D01*
X160313Y32637D01*
X160304Y32722D01*
X160298Y32808D01*
X160296Y32893D01*
X160677Y36322D02*
X160679Y36399D01*
X160685Y36476D01*
X160695Y36553D01*
X160708Y36629D01*
X160726Y36704D01*
X160747Y36778D01*
X160772Y36851D01*
X160801Y36923D01*
X160833Y36993D01*
X160868Y37062D01*
X160908Y37128D01*
X160950Y37193D01*
X160996Y37255D01*
X161045Y37315D01*
X161096Y37372D01*
X161151Y37427D01*
X161208Y37478D01*
X161268Y37527D01*
X161330Y37573D01*
X161395Y37615D01*
X161461Y37655D01*
X161530Y37690D01*
X161600Y37722D01*
X161672Y37751D01*
X161745Y37776D01*
X161819Y37797D01*
X161894Y37815D01*
X161970Y37828D01*
X162047Y37838D01*
X162124Y37844D01*
X162201Y37846D01*
X162278Y37844D01*
X162355Y37838D01*
X162432Y37828D01*
X162508Y37815D01*
X162583Y37797D01*
X162657Y37776D01*
X162730Y37751D01*
X162802Y37722D01*
X162872Y37690D01*
X162941Y37655D01*
X163007Y37615D01*
X163072Y37573D01*
X163134Y37527D01*
X163194Y37478D01*
X163251Y37427D01*
X163306Y37372D01*
X163357Y37315D01*
X163406Y37255D01*
X163452Y37193D01*
X163494Y37128D01*
X163534Y37062D01*
X163569Y36993D01*
X163601Y36923D01*
X163630Y36851D01*
X163655Y36778D01*
X163676Y36704D01*
X163694Y36629D01*
X163707Y36553D01*
X163717Y36476D01*
X163723Y36399D01*
X163725Y36322D01*
X163723Y36245D01*
X163717Y36168D01*
X163707Y36091D01*
X163694Y36015D01*
X163676Y35940D01*
X163655Y35866D01*
X163630Y35793D01*
X163601Y35721D01*
X163569Y35651D01*
X163534Y35582D01*
X163494Y35516D01*
X163452Y35451D01*
X163406Y35389D01*
X163357Y35329D01*
X163306Y35272D01*
X163251Y35217D01*
X163194Y35166D01*
X163134Y35117D01*
X163072Y35071D01*
X163007Y35029D01*
X162941Y34989D01*
X162872Y34954D01*
X162802Y34922D01*
X162730Y34893D01*
X162657Y34868D01*
X162583Y34847D01*
X162508Y34829D01*
X162432Y34816D01*
X162355Y34806D01*
X162278Y34800D01*
X162201Y34798D01*
X162124Y34800D01*
X162047Y34806D01*
X161970Y34816D01*
X161894Y34829D01*
X161819Y34847D01*
X161745Y34868D01*
X161672Y34893D01*
X161600Y34922D01*
X161530Y34954D01*
X161461Y34989D01*
X161395Y35029D01*
X161330Y35071D01*
X161268Y35117D01*
X161208Y35166D01*
X161151Y35217D01*
X161096Y35272D01*
X161045Y35329D01*
X160996Y35389D01*
X160950Y35451D01*
X160908Y35516D01*
X160868Y35582D01*
X160833Y35651D01*
X160801Y35721D01*
X160772Y35793D01*
X160747Y35866D01*
X160726Y35940D01*
X160708Y36015D01*
X160695Y36091D01*
X160685Y36168D01*
X160679Y36245D01*
X160677Y36322D01*
D12*
X60761Y131661D02*
X60761Y136563D01*
X51761Y136563D02*
X51761Y131661D01*
D10*
X51562Y150495D02*
X58420Y150495D01*
X58420Y153543D01*
X53086Y156195D02*
X51562Y158100D01*
X58420Y158100D01*
X58420Y156195D02*
X58420Y160005D01*
D12*
X48905Y74280D02*
X43805Y74280D01*
X43805Y88280D02*
X48905Y88280D01*
D10*
X18542Y85470D02*
X18542Y78232D01*
X21759Y78232D01*
X28548Y83661D02*
X28546Y83745D01*
X28540Y83828D01*
X28531Y83911D01*
X28517Y83994D01*
X28500Y84075D01*
X28479Y84156D01*
X28454Y84236D01*
X28426Y84315D01*
X28394Y84392D01*
X28358Y84468D01*
X28319Y84542D01*
X28277Y84614D01*
X28231Y84684D01*
X28182Y84752D01*
X28130Y84817D01*
X28076Y84880D01*
X28018Y84941D01*
X27957Y84999D01*
X27894Y85053D01*
X27829Y85105D01*
X27761Y85154D01*
X27691Y85200D01*
X27619Y85242D01*
X27545Y85281D01*
X27469Y85317D01*
X27392Y85349D01*
X27313Y85377D01*
X27233Y85402D01*
X27152Y85423D01*
X27071Y85440D01*
X26988Y85454D01*
X26905Y85463D01*
X26822Y85469D01*
X26738Y85471D01*
X26738Y85470D02*
X26644Y85468D01*
X26550Y85462D01*
X26456Y85453D01*
X26362Y85439D01*
X26270Y85422D01*
X26178Y85401D01*
X26087Y85377D01*
X25997Y85349D01*
X25908Y85317D01*
X25820Y85281D01*
X25735Y85242D01*
X25650Y85200D01*
X25568Y85154D01*
X25487Y85105D01*
X25409Y85053D01*
X25333Y84997D01*
X25259Y84939D01*
X25187Y84877D01*
X25118Y84813D01*
X25052Y84746D01*
X24988Y84676D01*
X24928Y84604D01*
X24870Y84529D01*
X24815Y84452D01*
X24764Y84373D01*
X24716Y84292D01*
X24671Y84209D01*
X24629Y84125D01*
X24591Y84038D01*
X24557Y83950D01*
X24526Y83861D01*
X27945Y82253D02*
X28007Y82315D01*
X28066Y82379D01*
X28122Y82447D01*
X28175Y82516D01*
X28225Y82588D01*
X28272Y82662D01*
X28315Y82738D01*
X28355Y82816D01*
X28391Y82895D01*
X28423Y82976D01*
X28452Y83059D01*
X28478Y83143D01*
X28499Y83227D01*
X28517Y83313D01*
X28530Y83399D01*
X28540Y83486D01*
X28546Y83574D01*
X28548Y83661D01*
X27944Y82253D02*
X24526Y78232D01*
X28548Y78232D01*
D13*
X165037Y141852D02*
X173037Y141852D01*
X173037Y156852D02*
X165037Y156852D01*
D10*
X162647Y152781D02*
X164933Y149543D01*
X167219Y152781D01*
X164933Y149543D02*
X164933Y145923D01*
X171982Y152782D02*
X172064Y152780D01*
X172145Y152774D01*
X172226Y152765D01*
X172307Y152751D01*
X172386Y152734D01*
X172465Y152713D01*
X172543Y152688D01*
X172619Y152659D01*
X172694Y152627D01*
X172768Y152591D01*
X172840Y152552D01*
X172909Y152510D01*
X172977Y152464D01*
X173042Y152415D01*
X173105Y152363D01*
X173165Y152308D01*
X173223Y152250D01*
X173278Y152190D01*
X173330Y152127D01*
X173379Y152062D01*
X173425Y151994D01*
X173467Y151925D01*
X173506Y151853D01*
X173542Y151779D01*
X173574Y151704D01*
X173603Y151628D01*
X173628Y151550D01*
X173649Y151471D01*
X173666Y151392D01*
X173680Y151311D01*
X173689Y151230D01*
X173695Y151149D01*
X173697Y151067D01*
X171982Y152781D02*
X171890Y152779D01*
X171798Y152773D01*
X171706Y152764D01*
X171614Y152750D01*
X171524Y152733D01*
X171434Y152712D01*
X171345Y152687D01*
X171257Y152658D01*
X171170Y152626D01*
X171085Y152590D01*
X171002Y152551D01*
X170920Y152508D01*
X170840Y152462D01*
X170762Y152412D01*
X170686Y152360D01*
X170613Y152304D01*
X170542Y152245D01*
X170473Y152183D01*
X170407Y152118D01*
X170344Y152051D01*
X170284Y151981D01*
X170226Y151909D01*
X170172Y151834D01*
X170121Y151757D01*
X170073Y151678D01*
X170029Y151597D01*
X169988Y151514D01*
X169950Y151430D01*
X169916Y151344D01*
X169886Y151257D01*
X173125Y149733D02*
X173184Y149792D01*
X173240Y149853D01*
X173293Y149916D01*
X173344Y149982D01*
X173391Y150050D01*
X173435Y150120D01*
X173476Y150192D01*
X173514Y150266D01*
X173548Y150341D01*
X173579Y150418D01*
X173606Y150496D01*
X173630Y150576D01*
X173651Y150656D01*
X173667Y150737D01*
X173680Y150819D01*
X173690Y150901D01*
X173695Y150984D01*
X173697Y151067D01*
X173125Y149733D02*
X169886Y145923D01*
X173696Y145923D01*
D14*
X138461Y19433D02*
X138523Y19431D01*
X138584Y19425D01*
X138645Y19416D01*
X138705Y19403D01*
X138764Y19386D01*
X138822Y19365D01*
X138879Y19341D01*
X138934Y19314D01*
X138987Y19283D01*
X139039Y19249D01*
X139088Y19212D01*
X139135Y19172D01*
X139179Y19129D01*
X139220Y19084D01*
X139259Y19036D01*
X139295Y18985D01*
X139327Y18933D01*
X139356Y18879D01*
X139382Y18823D01*
X139404Y18765D01*
X139423Y18707D01*
X139438Y18647D01*
X139449Y18586D01*
X139457Y18525D01*
X139461Y18464D01*
X139461Y18402D01*
X139457Y18341D01*
X139449Y18280D01*
X139438Y18219D01*
X139423Y18159D01*
X139404Y18101D01*
X139382Y18043D01*
X139356Y17987D01*
X139327Y17933D01*
X139295Y17881D01*
X139259Y17830D01*
X139220Y17782D01*
X139179Y17737D01*
X139135Y17694D01*
X139088Y17654D01*
X139039Y17617D01*
X138987Y17583D01*
X138934Y17552D01*
X138879Y17525D01*
X138822Y17501D01*
X138764Y17480D01*
X138705Y17463D01*
X138645Y17450D01*
X138584Y17441D01*
X138523Y17435D01*
X138461Y17433D01*
X138399Y17435D01*
X138338Y17441D01*
X138277Y17450D01*
X138217Y17463D01*
X138158Y17480D01*
X138100Y17501D01*
X138043Y17525D01*
X137988Y17552D01*
X137935Y17583D01*
X137883Y17617D01*
X137834Y17654D01*
X137787Y17694D01*
X137743Y17737D01*
X137702Y17782D01*
X137663Y17830D01*
X137627Y17881D01*
X137595Y17933D01*
X137566Y17987D01*
X137540Y18043D01*
X137518Y18101D01*
X137499Y18159D01*
X137484Y18219D01*
X137473Y18280D01*
X137465Y18341D01*
X137461Y18402D01*
X137461Y18464D01*
X137465Y18525D01*
X137473Y18586D01*
X137484Y18647D01*
X137499Y18707D01*
X137518Y18765D01*
X137540Y18823D01*
X137566Y18879D01*
X137595Y18933D01*
X137627Y18985D01*
X137663Y19036D01*
X137702Y19084D01*
X137743Y19129D01*
X137787Y19172D01*
X137834Y19212D01*
X137883Y19249D01*
X137935Y19283D01*
X137988Y19314D01*
X138043Y19341D01*
X138100Y19365D01*
X138158Y19386D01*
X138217Y19403D01*
X138277Y19416D01*
X138338Y19425D01*
X138399Y19431D01*
X138461Y19433D01*
D10*
X129540Y13399D02*
X127254Y16637D01*
X129540Y13399D02*
X131826Y16637D01*
X129540Y13399D02*
X129540Y9779D01*
X134493Y15113D02*
X136398Y16637D01*
X136398Y9779D01*
X134493Y9779D02*
X138303Y9779D01*
D15*
X168173Y91390D02*
X168173Y98502D01*
X168173Y91390D02*
X171334Y91390D01*
X173876Y91390D02*
X175851Y91390D01*
X175938Y91392D01*
X176026Y91398D01*
X176113Y91407D01*
X176199Y91421D01*
X176285Y91438D01*
X176369Y91459D01*
X176453Y91484D01*
X176536Y91513D01*
X176617Y91545D01*
X176697Y91580D01*
X176775Y91619D01*
X176852Y91662D01*
X176926Y91708D01*
X176998Y91757D01*
X177068Y91809D01*
X177136Y91865D01*
X177201Y91923D01*
X177264Y91984D01*
X177323Y92048D01*
X177380Y92115D01*
X177434Y92183D01*
X177485Y92255D01*
X177532Y92328D01*
X177577Y92403D01*
X177618Y92481D01*
X177655Y92560D01*
X177689Y92640D01*
X177719Y92722D01*
X177746Y92805D01*
X177769Y92890D01*
X177788Y92975D01*
X177803Y93061D01*
X177815Y93148D01*
X177823Y93235D01*
X177827Y93322D01*
X177827Y93410D01*
X177823Y93497D01*
X177815Y93584D01*
X177803Y93671D01*
X177788Y93757D01*
X177769Y93842D01*
X177746Y93927D01*
X177719Y94010D01*
X177689Y94092D01*
X177655Y94172D01*
X177618Y94251D01*
X177577Y94329D01*
X177532Y94404D01*
X177485Y94477D01*
X177434Y94549D01*
X177380Y94617D01*
X177323Y94684D01*
X177264Y94748D01*
X177201Y94809D01*
X177136Y94867D01*
X177068Y94923D01*
X176998Y94975D01*
X176926Y95024D01*
X176852Y95070D01*
X176775Y95113D01*
X176697Y95152D01*
X176617Y95187D01*
X176536Y95219D01*
X176453Y95248D01*
X176369Y95273D01*
X176285Y95294D01*
X176199Y95311D01*
X176113Y95325D01*
X176026Y95334D01*
X175938Y95340D01*
X175851Y95342D01*
X176246Y98502D02*
X173876Y98502D01*
X176246Y98502D02*
X176325Y98500D01*
X176403Y98494D01*
X176481Y98484D01*
X176559Y98471D01*
X176636Y98453D01*
X176712Y98432D01*
X176786Y98407D01*
X176860Y98378D01*
X176932Y98346D01*
X177002Y98310D01*
X177070Y98270D01*
X177136Y98227D01*
X177200Y98181D01*
X177262Y98132D01*
X177321Y98080D01*
X177377Y98025D01*
X177431Y97967D01*
X177481Y97907D01*
X177529Y97844D01*
X177573Y97779D01*
X177614Y97712D01*
X177652Y97643D01*
X177686Y97572D01*
X177717Y97499D01*
X177744Y97425D01*
X177767Y97350D01*
X177786Y97274D01*
X177802Y97196D01*
X177814Y97118D01*
X177822Y97040D01*
X177826Y96961D01*
X177826Y96883D01*
X177822Y96804D01*
X177814Y96726D01*
X177802Y96648D01*
X177786Y96570D01*
X177767Y96494D01*
X177744Y96419D01*
X177717Y96345D01*
X177686Y96272D01*
X177652Y96201D01*
X177614Y96132D01*
X177573Y96065D01*
X177529Y96000D01*
X177481Y95937D01*
X177431Y95877D01*
X177377Y95819D01*
X177321Y95764D01*
X177262Y95712D01*
X177200Y95663D01*
X177136Y95617D01*
X177070Y95574D01*
X177002Y95534D01*
X176932Y95498D01*
X176860Y95466D01*
X176786Y95437D01*
X176712Y95412D01*
X176636Y95391D01*
X176559Y95373D01*
X176481Y95360D01*
X176403Y95350D01*
X176325Y95344D01*
X176246Y95342D01*
X176246Y95341D02*
X174666Y95341D01*
X171334Y100534D02*
X169753Y100534D01*
X169675Y100536D01*
X169598Y100542D01*
X169521Y100551D01*
X169445Y100564D01*
X169369Y100581D01*
X169294Y100602D01*
X169221Y100626D01*
X169148Y100654D01*
X169077Y100686D01*
X169008Y100721D01*
X168941Y100759D01*
X168875Y100800D01*
X168812Y100845D01*
X168751Y100893D01*
X168692Y100943D01*
X168636Y100997D01*
X168582Y101053D01*
X168532Y101112D01*
X168484Y101173D01*
X168439Y101236D01*
X168398Y101302D01*
X168360Y101369D01*
X168325Y101438D01*
X168293Y101509D01*
X168265Y101582D01*
X168241Y101655D01*
X168220Y101730D01*
X168203Y101806D01*
X168190Y101882D01*
X168181Y101959D01*
X168175Y102036D01*
X168173Y102114D01*
X168173Y106066D01*
X168175Y106144D01*
X168181Y106221D01*
X168190Y106298D01*
X168203Y106374D01*
X168220Y106450D01*
X168241Y106525D01*
X168265Y106598D01*
X168293Y106671D01*
X168325Y106742D01*
X168360Y106811D01*
X168398Y106878D01*
X168439Y106944D01*
X168484Y107007D01*
X168532Y107068D01*
X168582Y107127D01*
X168636Y107183D01*
X168692Y107237D01*
X168751Y107287D01*
X168812Y107335D01*
X168875Y107380D01*
X168941Y107421D01*
X169008Y107459D01*
X169077Y107494D01*
X169148Y107526D01*
X169221Y107554D01*
X169294Y107578D01*
X169369Y107599D01*
X169445Y107616D01*
X169521Y107629D01*
X169598Y107638D01*
X169675Y107644D01*
X169753Y107646D01*
X171334Y107646D01*
X173906Y100534D02*
X175882Y100534D01*
X175969Y100536D01*
X176057Y100542D01*
X176144Y100551D01*
X176230Y100565D01*
X176316Y100582D01*
X176400Y100603D01*
X176484Y100628D01*
X176567Y100657D01*
X176648Y100689D01*
X176728Y100724D01*
X176806Y100763D01*
X176883Y100806D01*
X176957Y100852D01*
X177029Y100901D01*
X177099Y100953D01*
X177167Y101009D01*
X177232Y101067D01*
X177295Y101128D01*
X177354Y101192D01*
X177411Y101259D01*
X177465Y101327D01*
X177516Y101399D01*
X177563Y101472D01*
X177608Y101547D01*
X177649Y101625D01*
X177686Y101704D01*
X177720Y101784D01*
X177750Y101866D01*
X177777Y101949D01*
X177800Y102034D01*
X177819Y102119D01*
X177834Y102205D01*
X177846Y102292D01*
X177854Y102379D01*
X177858Y102466D01*
X177858Y102554D01*
X177854Y102641D01*
X177846Y102728D01*
X177834Y102815D01*
X177819Y102901D01*
X177800Y102986D01*
X177777Y103071D01*
X177750Y103154D01*
X177720Y103236D01*
X177686Y103316D01*
X177649Y103395D01*
X177608Y103473D01*
X177563Y103548D01*
X177516Y103621D01*
X177465Y103693D01*
X177411Y103761D01*
X177354Y103828D01*
X177295Y103892D01*
X177232Y103953D01*
X177167Y104011D01*
X177099Y104067D01*
X177029Y104119D01*
X176957Y104168D01*
X176883Y104214D01*
X176806Y104257D01*
X176728Y104296D01*
X176648Y104331D01*
X176567Y104363D01*
X176484Y104392D01*
X176400Y104417D01*
X176316Y104438D01*
X176230Y104455D01*
X176144Y104469D01*
X176057Y104478D01*
X175969Y104484D01*
X175882Y104486D01*
X176277Y107646D02*
X173906Y107646D01*
X176277Y107646D02*
X176356Y107644D01*
X176434Y107638D01*
X176512Y107628D01*
X176590Y107615D01*
X176667Y107597D01*
X176743Y107576D01*
X176817Y107551D01*
X176891Y107522D01*
X176963Y107490D01*
X177033Y107454D01*
X177101Y107414D01*
X177167Y107371D01*
X177231Y107325D01*
X177293Y107276D01*
X177352Y107224D01*
X177408Y107169D01*
X177462Y107111D01*
X177512Y107051D01*
X177560Y106988D01*
X177604Y106923D01*
X177645Y106856D01*
X177683Y106787D01*
X177717Y106716D01*
X177748Y106643D01*
X177775Y106569D01*
X177798Y106494D01*
X177817Y106418D01*
X177833Y106340D01*
X177845Y106262D01*
X177853Y106184D01*
X177857Y106105D01*
X177857Y106027D01*
X177853Y105948D01*
X177845Y105870D01*
X177833Y105792D01*
X177817Y105714D01*
X177798Y105638D01*
X177775Y105563D01*
X177748Y105489D01*
X177717Y105416D01*
X177683Y105345D01*
X177645Y105276D01*
X177604Y105209D01*
X177560Y105144D01*
X177512Y105081D01*
X177462Y105021D01*
X177408Y104963D01*
X177352Y104908D01*
X177293Y104856D01*
X177231Y104807D01*
X177167Y104761D01*
X177101Y104718D01*
X177033Y104678D01*
X176963Y104642D01*
X176891Y104610D01*
X176817Y104581D01*
X176743Y104556D01*
X176667Y104535D01*
X176590Y104517D01*
X176512Y104504D01*
X176434Y104494D01*
X176356Y104488D01*
X176277Y104486D01*
X176277Y104485D02*
X174696Y104485D01*
X187705Y38658D02*
X189286Y38658D01*
X187705Y38658D02*
X187627Y38660D01*
X187550Y38666D01*
X187473Y38675D01*
X187397Y38688D01*
X187321Y38705D01*
X187246Y38726D01*
X187173Y38750D01*
X187100Y38778D01*
X187029Y38810D01*
X186960Y38845D01*
X186893Y38883D01*
X186827Y38924D01*
X186764Y38969D01*
X186703Y39017D01*
X186644Y39067D01*
X186588Y39121D01*
X186534Y39177D01*
X186484Y39236D01*
X186436Y39297D01*
X186391Y39360D01*
X186350Y39426D01*
X186312Y39493D01*
X186277Y39562D01*
X186245Y39633D01*
X186217Y39706D01*
X186193Y39779D01*
X186172Y39854D01*
X186155Y39930D01*
X186142Y40006D01*
X186133Y40083D01*
X186127Y40160D01*
X186125Y40238D01*
X186125Y44190D01*
X186127Y44268D01*
X186133Y44345D01*
X186142Y44422D01*
X186155Y44498D01*
X186172Y44574D01*
X186193Y44649D01*
X186217Y44722D01*
X186245Y44795D01*
X186277Y44866D01*
X186312Y44935D01*
X186350Y45002D01*
X186391Y45068D01*
X186436Y45131D01*
X186484Y45192D01*
X186534Y45251D01*
X186588Y45307D01*
X186644Y45361D01*
X186703Y45411D01*
X186764Y45459D01*
X186827Y45504D01*
X186893Y45545D01*
X186960Y45583D01*
X187029Y45618D01*
X187100Y45650D01*
X187173Y45678D01*
X187246Y45702D01*
X187321Y45723D01*
X187397Y45740D01*
X187473Y45753D01*
X187550Y45762D01*
X187627Y45768D01*
X187705Y45770D01*
X189286Y45770D01*
X193438Y45770D02*
X191858Y40238D01*
X195809Y40238D01*
X194624Y41819D02*
X194624Y38658D01*
X171969Y109424D02*
X170388Y109424D01*
X170310Y109426D01*
X170233Y109432D01*
X170156Y109441D01*
X170080Y109454D01*
X170004Y109471D01*
X169929Y109492D01*
X169856Y109516D01*
X169783Y109544D01*
X169712Y109576D01*
X169643Y109611D01*
X169576Y109649D01*
X169510Y109690D01*
X169447Y109735D01*
X169386Y109783D01*
X169327Y109833D01*
X169271Y109887D01*
X169217Y109943D01*
X169167Y110002D01*
X169119Y110063D01*
X169074Y110126D01*
X169033Y110192D01*
X168995Y110259D01*
X168960Y110328D01*
X168928Y110399D01*
X168900Y110472D01*
X168876Y110545D01*
X168855Y110620D01*
X168838Y110696D01*
X168825Y110772D01*
X168816Y110849D01*
X168810Y110926D01*
X168808Y111004D01*
X168808Y114956D01*
X168810Y115034D01*
X168816Y115111D01*
X168825Y115188D01*
X168838Y115264D01*
X168855Y115340D01*
X168876Y115415D01*
X168900Y115488D01*
X168928Y115561D01*
X168960Y115632D01*
X168995Y115701D01*
X169033Y115768D01*
X169074Y115834D01*
X169119Y115897D01*
X169167Y115958D01*
X169217Y116017D01*
X169271Y116073D01*
X169327Y116127D01*
X169386Y116177D01*
X169447Y116225D01*
X169510Y116270D01*
X169576Y116311D01*
X169643Y116349D01*
X169712Y116384D01*
X169783Y116416D01*
X169856Y116444D01*
X169929Y116468D01*
X170004Y116489D01*
X170080Y116506D01*
X170156Y116519D01*
X170233Y116528D01*
X170310Y116534D01*
X170388Y116536D01*
X171969Y116536D01*
X176122Y112585D02*
X178492Y112585D01*
X176122Y112585D02*
X176044Y112587D01*
X175967Y112593D01*
X175890Y112602D01*
X175814Y112615D01*
X175738Y112632D01*
X175663Y112653D01*
X175590Y112677D01*
X175517Y112705D01*
X175446Y112737D01*
X175377Y112772D01*
X175310Y112810D01*
X175244Y112851D01*
X175181Y112896D01*
X175120Y112944D01*
X175061Y112994D01*
X175005Y113048D01*
X174951Y113104D01*
X174901Y113163D01*
X174853Y113224D01*
X174808Y113287D01*
X174767Y113353D01*
X174729Y113420D01*
X174694Y113489D01*
X174662Y113560D01*
X174634Y113633D01*
X174610Y113706D01*
X174589Y113781D01*
X174572Y113857D01*
X174559Y113933D01*
X174550Y114010D01*
X174544Y114087D01*
X174542Y114165D01*
X174541Y114165D02*
X174541Y114560D01*
X174543Y114647D01*
X174549Y114735D01*
X174558Y114822D01*
X174572Y114908D01*
X174589Y114994D01*
X174610Y115078D01*
X174635Y115162D01*
X174664Y115245D01*
X174696Y115326D01*
X174731Y115406D01*
X174770Y115484D01*
X174813Y115561D01*
X174859Y115635D01*
X174908Y115707D01*
X174960Y115777D01*
X175016Y115845D01*
X175074Y115910D01*
X175135Y115973D01*
X175199Y116032D01*
X175266Y116089D01*
X175334Y116143D01*
X175406Y116194D01*
X175479Y116241D01*
X175554Y116286D01*
X175632Y116327D01*
X175711Y116364D01*
X175791Y116398D01*
X175873Y116428D01*
X175956Y116455D01*
X176041Y116478D01*
X176126Y116497D01*
X176212Y116512D01*
X176299Y116524D01*
X176386Y116532D01*
X176473Y116536D01*
X176561Y116536D01*
X176648Y116532D01*
X176735Y116524D01*
X176822Y116512D01*
X176908Y116497D01*
X176993Y116478D01*
X177078Y116455D01*
X177161Y116428D01*
X177243Y116398D01*
X177323Y116364D01*
X177402Y116327D01*
X177480Y116286D01*
X177555Y116241D01*
X177628Y116194D01*
X177700Y116143D01*
X177768Y116089D01*
X177835Y116032D01*
X177899Y115973D01*
X177960Y115910D01*
X178018Y115845D01*
X178074Y115777D01*
X178126Y115707D01*
X178175Y115635D01*
X178221Y115561D01*
X178264Y115484D01*
X178303Y115406D01*
X178338Y115326D01*
X178370Y115245D01*
X178399Y115162D01*
X178424Y115078D01*
X178445Y114994D01*
X178462Y114908D01*
X178476Y114822D01*
X178485Y114735D01*
X178491Y114647D01*
X178493Y114560D01*
X178492Y114560D02*
X178492Y112585D01*
X178490Y112475D01*
X178484Y112364D01*
X178475Y112255D01*
X178461Y112145D01*
X178444Y112036D01*
X178423Y111928D01*
X178398Y111820D01*
X178370Y111714D01*
X178337Y111608D01*
X178301Y111504D01*
X178262Y111401D01*
X178219Y111299D01*
X178172Y111199D01*
X178122Y111101D01*
X178069Y111004D01*
X178012Y110910D01*
X177952Y110817D01*
X177888Y110727D01*
X177822Y110639D01*
X177752Y110553D01*
X177680Y110470D01*
X177605Y110389D01*
X177527Y110311D01*
X177446Y110236D01*
X177363Y110164D01*
X177277Y110094D01*
X177189Y110028D01*
X177099Y109964D01*
X177006Y109904D01*
X176911Y109847D01*
X176815Y109794D01*
X176717Y109744D01*
X176617Y109697D01*
X176515Y109654D01*
X176412Y109615D01*
X176308Y109579D01*
X176202Y109546D01*
X176096Y109518D01*
X175988Y109493D01*
X175880Y109472D01*
X175771Y109455D01*
X175661Y109441D01*
X175552Y109432D01*
X175441Y109426D01*
X175331Y109424D01*
X190069Y51618D02*
X190069Y50037D01*
X190067Y49959D01*
X190061Y49882D01*
X190052Y49805D01*
X190039Y49729D01*
X190022Y49653D01*
X190001Y49578D01*
X189977Y49505D01*
X189949Y49432D01*
X189917Y49361D01*
X189882Y49292D01*
X189844Y49225D01*
X189803Y49159D01*
X189758Y49096D01*
X189710Y49035D01*
X189660Y48976D01*
X189606Y48920D01*
X189550Y48866D01*
X189491Y48816D01*
X189430Y48768D01*
X189367Y48723D01*
X189301Y48682D01*
X189234Y48644D01*
X189165Y48609D01*
X189094Y48577D01*
X189021Y48549D01*
X188948Y48525D01*
X188873Y48504D01*
X188797Y48487D01*
X188721Y48474D01*
X188644Y48465D01*
X188567Y48459D01*
X188489Y48457D01*
X184537Y48457D01*
X184537Y48456D02*
X184459Y48458D01*
X184382Y48464D01*
X184305Y48473D01*
X184229Y48486D01*
X184153Y48503D01*
X184078Y48524D01*
X184004Y48548D01*
X183932Y48576D01*
X183861Y48608D01*
X183792Y48643D01*
X183724Y48681D01*
X183659Y48722D01*
X183595Y48767D01*
X183534Y48815D01*
X183475Y48866D01*
X183419Y48919D01*
X183366Y48975D01*
X183315Y49034D01*
X183267Y49095D01*
X183222Y49159D01*
X183181Y49224D01*
X183143Y49292D01*
X183108Y49361D01*
X183076Y49432D01*
X183048Y49504D01*
X183024Y49578D01*
X183003Y49653D01*
X182986Y49729D01*
X182973Y49805D01*
X182964Y49882D01*
X182958Y49959D01*
X182956Y50037D01*
X182957Y50037D02*
X182957Y51618D01*
X184537Y54190D02*
X182957Y56165D01*
X190069Y56165D01*
X190069Y54190D02*
X190069Y58141D01*
X186513Y61048D02*
X186365Y61050D01*
X186218Y61055D01*
X186070Y61065D01*
X185923Y61078D01*
X185776Y61094D01*
X185630Y61115D01*
X185485Y61139D01*
X185339Y61167D01*
X185195Y61198D01*
X185052Y61233D01*
X184909Y61272D01*
X184768Y61314D01*
X184627Y61360D01*
X184488Y61409D01*
X184350Y61462D01*
X184213Y61518D01*
X184078Y61578D01*
X183945Y61641D01*
X183945Y61640D02*
X183874Y61666D01*
X183805Y61696D01*
X183737Y61730D01*
X183671Y61767D01*
X183607Y61807D01*
X183545Y61851D01*
X183486Y61897D01*
X183429Y61947D01*
X183375Y62000D01*
X183323Y62055D01*
X183275Y62113D01*
X183229Y62173D01*
X183187Y62236D01*
X183148Y62301D01*
X183112Y62367D01*
X183080Y62436D01*
X183052Y62505D01*
X183027Y62577D01*
X183006Y62649D01*
X182988Y62723D01*
X182975Y62797D01*
X182965Y62872D01*
X182959Y62947D01*
X182957Y63023D01*
X182959Y63099D01*
X182965Y63174D01*
X182975Y63249D01*
X182988Y63323D01*
X183006Y63397D01*
X183027Y63469D01*
X183052Y63541D01*
X183080Y63610D01*
X183112Y63679D01*
X183148Y63745D01*
X183187Y63810D01*
X183229Y63873D01*
X183275Y63933D01*
X183323Y63991D01*
X183375Y64046D01*
X183429Y64099D01*
X183486Y64149D01*
X183545Y64195D01*
X183607Y64239D01*
X183671Y64279D01*
X183737Y64316D01*
X183805Y64350D01*
X183874Y64380D01*
X183945Y64406D01*
X184078Y64469D01*
X184213Y64529D01*
X184350Y64585D01*
X184488Y64638D01*
X184627Y64687D01*
X184768Y64733D01*
X184909Y64775D01*
X185052Y64814D01*
X185195Y64849D01*
X185339Y64880D01*
X185485Y64908D01*
X185630Y64932D01*
X185776Y64953D01*
X185923Y64969D01*
X186070Y64982D01*
X186218Y64992D01*
X186365Y64997D01*
X186513Y64999D01*
X186513Y61048D02*
X186661Y61050D01*
X186808Y61055D01*
X186956Y61065D01*
X187103Y61078D01*
X187250Y61094D01*
X187396Y61115D01*
X187541Y61139D01*
X187687Y61167D01*
X187831Y61198D01*
X187974Y61233D01*
X188117Y61272D01*
X188258Y61314D01*
X188399Y61360D01*
X188538Y61409D01*
X188676Y61462D01*
X188813Y61518D01*
X188948Y61578D01*
X189081Y61641D01*
X189081Y61640D02*
X189152Y61666D01*
X189221Y61696D01*
X189289Y61730D01*
X189355Y61767D01*
X189419Y61807D01*
X189481Y61851D01*
X189540Y61897D01*
X189597Y61947D01*
X189651Y62000D01*
X189703Y62055D01*
X189751Y62113D01*
X189797Y62173D01*
X189839Y62236D01*
X189878Y62301D01*
X189914Y62367D01*
X189946Y62436D01*
X189974Y62506D01*
X189999Y62577D01*
X190020Y62649D01*
X190038Y62723D01*
X190051Y62797D01*
X190061Y62872D01*
X190067Y62947D01*
X190069Y63023D01*
X189081Y64406D02*
X188948Y64469D01*
X188813Y64529D01*
X188676Y64585D01*
X188538Y64638D01*
X188399Y64687D01*
X188258Y64733D01*
X188117Y64775D01*
X187974Y64814D01*
X187831Y64849D01*
X187687Y64880D01*
X187541Y64908D01*
X187396Y64932D01*
X187250Y64953D01*
X187103Y64969D01*
X186956Y64982D01*
X186808Y64992D01*
X186661Y64997D01*
X186513Y64999D01*
X189081Y64406D02*
X189152Y64380D01*
X189221Y64350D01*
X189289Y64316D01*
X189355Y64279D01*
X189419Y64239D01*
X189481Y64195D01*
X189540Y64149D01*
X189597Y64099D01*
X189651Y64046D01*
X189703Y63991D01*
X189751Y63933D01*
X189797Y63873D01*
X189839Y63810D01*
X189878Y63745D01*
X189914Y63679D01*
X189946Y63610D01*
X189974Y63540D01*
X189999Y63469D01*
X190020Y63397D01*
X190038Y63323D01*
X190051Y63249D01*
X190061Y63174D01*
X190067Y63099D01*
X190069Y63023D01*
X188489Y61443D02*
X184537Y64604D01*
X189915Y95553D02*
X189915Y97134D01*
X189915Y95553D02*
X189913Y95475D01*
X189907Y95398D01*
X189898Y95321D01*
X189885Y95245D01*
X189868Y95169D01*
X189847Y95094D01*
X189823Y95021D01*
X189795Y94948D01*
X189763Y94877D01*
X189728Y94808D01*
X189690Y94741D01*
X189649Y94675D01*
X189604Y94612D01*
X189556Y94551D01*
X189506Y94492D01*
X189452Y94436D01*
X189396Y94382D01*
X189337Y94332D01*
X189276Y94284D01*
X189213Y94239D01*
X189147Y94198D01*
X189080Y94160D01*
X189011Y94125D01*
X188940Y94093D01*
X188867Y94065D01*
X188794Y94041D01*
X188719Y94020D01*
X188643Y94003D01*
X188567Y93990D01*
X188490Y93981D01*
X188413Y93975D01*
X188335Y93973D01*
X184383Y93973D01*
X184383Y93972D02*
X184305Y93974D01*
X184228Y93980D01*
X184151Y93989D01*
X184075Y94002D01*
X183999Y94019D01*
X183924Y94040D01*
X183850Y94064D01*
X183778Y94092D01*
X183707Y94124D01*
X183638Y94159D01*
X183570Y94197D01*
X183505Y94238D01*
X183441Y94283D01*
X183380Y94331D01*
X183321Y94382D01*
X183265Y94435D01*
X183212Y94491D01*
X183161Y94550D01*
X183113Y94611D01*
X183068Y94675D01*
X183027Y94740D01*
X182989Y94808D01*
X182954Y94877D01*
X182922Y94948D01*
X182894Y95020D01*
X182870Y95094D01*
X182849Y95169D01*
X182832Y95245D01*
X182819Y95321D01*
X182810Y95398D01*
X182804Y95475D01*
X182802Y95553D01*
X182803Y95553D02*
X182803Y97134D01*
X184383Y99706D02*
X182803Y101681D01*
X189915Y101681D01*
X189915Y99706D02*
X189915Y103657D01*
X186754Y108144D02*
X186754Y110515D01*
X186754Y108144D02*
X186752Y108066D01*
X186746Y107989D01*
X186737Y107912D01*
X186724Y107836D01*
X186707Y107760D01*
X186686Y107685D01*
X186662Y107612D01*
X186634Y107539D01*
X186602Y107468D01*
X186567Y107399D01*
X186529Y107332D01*
X186488Y107266D01*
X186443Y107203D01*
X186395Y107142D01*
X186345Y107083D01*
X186291Y107027D01*
X186235Y106973D01*
X186176Y106923D01*
X186115Y106875D01*
X186052Y106830D01*
X185986Y106789D01*
X185919Y106751D01*
X185850Y106716D01*
X185779Y106684D01*
X185706Y106656D01*
X185633Y106632D01*
X185558Y106611D01*
X185482Y106594D01*
X185406Y106581D01*
X185329Y106572D01*
X185252Y106566D01*
X185174Y106564D01*
X184779Y106564D01*
X184779Y106563D02*
X184692Y106565D01*
X184604Y106571D01*
X184517Y106580D01*
X184431Y106594D01*
X184345Y106611D01*
X184261Y106632D01*
X184177Y106657D01*
X184094Y106686D01*
X184013Y106718D01*
X183933Y106753D01*
X183855Y106792D01*
X183778Y106835D01*
X183704Y106881D01*
X183632Y106930D01*
X183562Y106982D01*
X183494Y107038D01*
X183429Y107096D01*
X183366Y107157D01*
X183307Y107221D01*
X183250Y107288D01*
X183196Y107356D01*
X183145Y107428D01*
X183098Y107501D01*
X183053Y107576D01*
X183012Y107654D01*
X182975Y107733D01*
X182941Y107813D01*
X182911Y107895D01*
X182884Y107978D01*
X182861Y108063D01*
X182842Y108148D01*
X182827Y108234D01*
X182815Y108321D01*
X182807Y108408D01*
X182803Y108495D01*
X182803Y108583D01*
X182807Y108670D01*
X182815Y108757D01*
X182827Y108844D01*
X182842Y108930D01*
X182861Y109015D01*
X182884Y109100D01*
X182911Y109183D01*
X182941Y109265D01*
X182975Y109345D01*
X183012Y109424D01*
X183053Y109502D01*
X183098Y109577D01*
X183145Y109650D01*
X183196Y109722D01*
X183250Y109790D01*
X183307Y109857D01*
X183366Y109921D01*
X183429Y109982D01*
X183494Y110040D01*
X183562Y110096D01*
X183632Y110148D01*
X183704Y110197D01*
X183778Y110243D01*
X183855Y110286D01*
X183933Y110325D01*
X184013Y110360D01*
X184094Y110392D01*
X184177Y110421D01*
X184261Y110446D01*
X184345Y110467D01*
X184431Y110484D01*
X184517Y110498D01*
X184604Y110507D01*
X184692Y110513D01*
X184779Y110515D01*
X186754Y110515D01*
X186864Y110513D01*
X186975Y110507D01*
X187084Y110498D01*
X187194Y110484D01*
X187303Y110467D01*
X187411Y110446D01*
X187519Y110421D01*
X187625Y110393D01*
X187731Y110360D01*
X187835Y110324D01*
X187938Y110285D01*
X188040Y110242D01*
X188140Y110195D01*
X188238Y110145D01*
X188335Y110092D01*
X188429Y110035D01*
X188522Y109975D01*
X188612Y109911D01*
X188700Y109845D01*
X188786Y109775D01*
X188869Y109703D01*
X188950Y109628D01*
X189028Y109550D01*
X189103Y109469D01*
X189175Y109386D01*
X189245Y109300D01*
X189311Y109212D01*
X189375Y109122D01*
X189435Y109029D01*
X189492Y108935D01*
X189545Y108838D01*
X189595Y108740D01*
X189642Y108640D01*
X189685Y108538D01*
X189724Y108435D01*
X189760Y108331D01*
X189793Y108225D01*
X189821Y108119D01*
X189846Y108011D01*
X189867Y107903D01*
X189884Y107794D01*
X189898Y107684D01*
X189907Y107575D01*
X189913Y107464D01*
X189915Y107354D01*
X193706Y121682D02*
X194871Y122749D01*
X193705Y121682D02*
X193647Y121631D01*
X193586Y121583D01*
X193523Y121538D01*
X193458Y121496D01*
X193390Y121458D01*
X193321Y121422D01*
X193251Y121391D01*
X193178Y121362D01*
X193105Y121338D01*
X193030Y121316D01*
X192955Y121299D01*
X192878Y121285D01*
X192801Y121275D01*
X192724Y121269D01*
X192647Y121267D01*
X192569Y121269D01*
X192492Y121274D01*
X192415Y121283D01*
X192338Y121296D01*
X192262Y121312D01*
X192188Y121333D01*
X192114Y121356D01*
X192041Y121384D01*
X191970Y121415D01*
X191901Y121450D01*
X191833Y121487D01*
X191767Y121529D01*
X191704Y121573D01*
X191642Y121620D01*
X191583Y121671D01*
X191527Y121724D01*
X191473Y121780D01*
X191473Y121779D02*
X188804Y124692D01*
X188804Y124693D02*
X188753Y124751D01*
X188705Y124812D01*
X188660Y124875D01*
X188618Y124940D01*
X188580Y125008D01*
X188544Y125077D01*
X188513Y125147D01*
X188484Y125220D01*
X188460Y125293D01*
X188438Y125368D01*
X188421Y125443D01*
X188407Y125520D01*
X188397Y125597D01*
X188391Y125674D01*
X188389Y125751D01*
X188391Y125829D01*
X188396Y125906D01*
X188405Y125983D01*
X188418Y126060D01*
X188434Y126136D01*
X188455Y126210D01*
X188478Y126284D01*
X188506Y126357D01*
X188537Y126428D01*
X188572Y126497D01*
X188609Y126565D01*
X188651Y126631D01*
X188695Y126694D01*
X188742Y126756D01*
X188793Y126815D01*
X188846Y126871D01*
X188902Y126925D01*
X188901Y126925D02*
X190066Y127993D01*
X193565Y131199D02*
X193627Y131253D01*
X193691Y131304D01*
X193757Y131352D01*
X193826Y131397D01*
X193897Y131439D01*
X193969Y131478D01*
X194044Y131513D01*
X194119Y131544D01*
X194197Y131572D01*
X194275Y131597D01*
X194354Y131618D01*
X194435Y131635D01*
X194516Y131648D01*
X194597Y131658D01*
X194679Y131664D01*
X194761Y131666D01*
X194844Y131664D01*
X194926Y131659D01*
X195007Y131650D01*
X195088Y131637D01*
X195169Y131620D01*
X195248Y131599D01*
X195327Y131575D01*
X195404Y131548D01*
X195480Y131516D01*
X195554Y131482D01*
X195627Y131444D01*
X195698Y131402D01*
X195767Y131357D01*
X195834Y131310D01*
X195898Y131259D01*
X195960Y131205D01*
X196020Y131148D01*
X196077Y131089D01*
X193565Y131199D02*
X193498Y131135D01*
X193434Y131068D01*
X193372Y130999D01*
X193313Y130928D01*
X193257Y130854D01*
X193205Y130777D01*
X193155Y130699D01*
X193109Y130619D01*
X193065Y130537D01*
X193026Y130453D01*
X192989Y130368D01*
X192956Y130281D01*
X192927Y130194D01*
X192901Y130105D01*
X192879Y130015D01*
X192861Y129924D01*
X192846Y129832D01*
X192835Y129740D01*
X192828Y129648D01*
X192824Y129555D01*
X192825Y129463D01*
X192829Y129370D01*
X192836Y129278D01*
X192848Y129186D01*
X192863Y129094D01*
X192882Y129004D01*
X192905Y128914D01*
X192931Y128825D01*
X192960Y128737D01*
X192994Y128651D01*
X193031Y128566D01*
X196575Y129669D02*
X196578Y129755D01*
X196579Y129841D01*
X196575Y129927D01*
X196567Y130012D01*
X196556Y130098D01*
X196540Y130182D01*
X196521Y130266D01*
X196498Y130349D01*
X196472Y130430D01*
X196441Y130511D01*
X196408Y130590D01*
X196370Y130667D01*
X196330Y130743D01*
X196285Y130816D01*
X196238Y130888D01*
X196188Y130958D01*
X196134Y131025D01*
X196077Y131089D01*
X196574Y129669D02*
X196768Y124487D01*
X199681Y127156D01*
X198087Y133199D02*
X198475Y135698D01*
X203280Y130455D01*
X201824Y129120D02*
X204737Y131790D01*
X162712Y48972D02*
X155580Y48972D01*
X162712Y48972D02*
X162712Y52142D01*
X161127Y54690D02*
X155580Y56274D01*
X161127Y54690D02*
X161127Y58652D01*
X159542Y57463D02*
X162712Y57463D01*
X200812Y63577D02*
X207924Y63577D01*
X207924Y66738D01*
X207924Y69280D02*
X207924Y71650D01*
X207922Y71728D01*
X207916Y71805D01*
X207907Y71882D01*
X207894Y71958D01*
X207877Y72034D01*
X207856Y72109D01*
X207832Y72182D01*
X207804Y72255D01*
X207772Y72326D01*
X207737Y72395D01*
X207699Y72462D01*
X207658Y72528D01*
X207613Y72591D01*
X207565Y72652D01*
X207515Y72711D01*
X207461Y72767D01*
X207405Y72821D01*
X207346Y72871D01*
X207285Y72919D01*
X207222Y72964D01*
X207156Y73005D01*
X207089Y73043D01*
X207020Y73078D01*
X206949Y73110D01*
X206876Y73138D01*
X206803Y73162D01*
X206728Y73183D01*
X206652Y73200D01*
X206576Y73213D01*
X206499Y73222D01*
X206422Y73228D01*
X206344Y73230D01*
X206344Y73231D02*
X205553Y73231D01*
X205553Y73230D02*
X205475Y73228D01*
X205398Y73222D01*
X205321Y73213D01*
X205245Y73200D01*
X205169Y73183D01*
X205094Y73162D01*
X205021Y73138D01*
X204948Y73110D01*
X204877Y73078D01*
X204808Y73043D01*
X204741Y73005D01*
X204675Y72964D01*
X204612Y72919D01*
X204551Y72871D01*
X204492Y72821D01*
X204436Y72767D01*
X204382Y72711D01*
X204332Y72652D01*
X204284Y72591D01*
X204239Y72528D01*
X204198Y72462D01*
X204160Y72395D01*
X204125Y72326D01*
X204093Y72255D01*
X204065Y72182D01*
X204041Y72109D01*
X204020Y72034D01*
X204003Y71958D01*
X203990Y71882D01*
X203981Y71805D01*
X203975Y71728D01*
X203973Y71650D01*
X203973Y69280D01*
X200812Y69280D01*
X200812Y73231D01*
X190423Y80414D02*
X183311Y80414D01*
X190423Y80414D02*
X190423Y83575D01*
X186472Y86117D02*
X186472Y88488D01*
X186474Y88566D01*
X186480Y88643D01*
X186489Y88720D01*
X186502Y88796D01*
X186519Y88872D01*
X186540Y88947D01*
X186564Y89020D01*
X186592Y89093D01*
X186624Y89164D01*
X186659Y89233D01*
X186697Y89300D01*
X186738Y89366D01*
X186783Y89429D01*
X186831Y89490D01*
X186881Y89549D01*
X186935Y89605D01*
X186991Y89659D01*
X187050Y89709D01*
X187111Y89757D01*
X187174Y89802D01*
X187240Y89843D01*
X187307Y89881D01*
X187376Y89916D01*
X187447Y89948D01*
X187520Y89976D01*
X187593Y90000D01*
X187668Y90021D01*
X187744Y90038D01*
X187820Y90051D01*
X187897Y90060D01*
X187974Y90066D01*
X188052Y90068D01*
X188447Y90068D01*
X188534Y90066D01*
X188622Y90060D01*
X188709Y90051D01*
X188795Y90037D01*
X188881Y90020D01*
X188965Y89999D01*
X189049Y89974D01*
X189132Y89945D01*
X189213Y89913D01*
X189293Y89878D01*
X189371Y89839D01*
X189448Y89796D01*
X189522Y89750D01*
X189594Y89701D01*
X189664Y89649D01*
X189732Y89593D01*
X189797Y89535D01*
X189860Y89474D01*
X189919Y89410D01*
X189976Y89343D01*
X190030Y89275D01*
X190081Y89203D01*
X190128Y89130D01*
X190173Y89055D01*
X190214Y88977D01*
X190251Y88898D01*
X190285Y88818D01*
X190315Y88736D01*
X190342Y88653D01*
X190365Y88568D01*
X190384Y88483D01*
X190399Y88397D01*
X190411Y88310D01*
X190419Y88223D01*
X190423Y88136D01*
X190423Y88048D01*
X190419Y87961D01*
X190411Y87874D01*
X190399Y87787D01*
X190384Y87701D01*
X190365Y87616D01*
X190342Y87531D01*
X190315Y87448D01*
X190285Y87366D01*
X190251Y87286D01*
X190214Y87207D01*
X190173Y87129D01*
X190128Y87054D01*
X190081Y86981D01*
X190030Y86909D01*
X189976Y86841D01*
X189919Y86774D01*
X189860Y86710D01*
X189797Y86649D01*
X189732Y86591D01*
X189664Y86535D01*
X189594Y86483D01*
X189522Y86434D01*
X189448Y86388D01*
X189371Y86345D01*
X189293Y86306D01*
X189213Y86271D01*
X189132Y86239D01*
X189049Y86210D01*
X188965Y86185D01*
X188881Y86164D01*
X188795Y86147D01*
X188709Y86133D01*
X188622Y86124D01*
X188534Y86118D01*
X188447Y86116D01*
X188447Y86117D02*
X186472Y86117D01*
X186362Y86119D01*
X186252Y86125D01*
X186142Y86134D01*
X186032Y86148D01*
X185923Y86165D01*
X185815Y86186D01*
X185707Y86211D01*
X185601Y86239D01*
X185495Y86272D01*
X185391Y86308D01*
X185288Y86347D01*
X185186Y86390D01*
X185086Y86437D01*
X184988Y86487D01*
X184892Y86540D01*
X184797Y86597D01*
X184704Y86657D01*
X184614Y86721D01*
X184526Y86787D01*
X184440Y86857D01*
X184357Y86929D01*
X184276Y87004D01*
X184198Y87082D01*
X184123Y87163D01*
X184051Y87246D01*
X183981Y87332D01*
X183915Y87420D01*
X183851Y87510D01*
X183791Y87603D01*
X183735Y87697D01*
X183681Y87794D01*
X183631Y87892D01*
X183584Y87992D01*
X183541Y88094D01*
X183502Y88197D01*
X183466Y88301D01*
X183433Y88407D01*
X183405Y88513D01*
X183380Y88621D01*
X183359Y88729D01*
X183342Y88838D01*
X183328Y88948D01*
X183319Y89057D01*
X183313Y89168D01*
X183311Y89278D01*
D16*
X49702Y17242D02*
X22942Y17242D01*
X22942Y45242D02*
X49702Y45242D01*
X15322Y32542D02*
X15322Y29942D01*
X57322Y29942D02*
X57322Y32542D01*
D17*
X28272Y31242D02*
X28274Y31440D01*
X28282Y31637D01*
X28294Y31834D01*
X28311Y32031D01*
X28333Y32227D01*
X28359Y32423D01*
X28391Y32618D01*
X28427Y32812D01*
X28468Y33006D01*
X28513Y33198D01*
X28564Y33389D01*
X28619Y33579D01*
X28678Y33767D01*
X28743Y33954D01*
X28811Y34139D01*
X28885Y34323D01*
X28963Y34504D01*
X29045Y34684D01*
X29132Y34861D01*
X29223Y35037D01*
X29318Y35210D01*
X29417Y35381D01*
X29521Y35549D01*
X29629Y35714D01*
X29740Y35877D01*
X29856Y36037D01*
X29976Y36195D01*
X30099Y36349D01*
X30226Y36500D01*
X30357Y36648D01*
X30492Y36793D01*
X30630Y36934D01*
X30771Y37072D01*
X30916Y37207D01*
X31064Y37338D01*
X31215Y37465D01*
X31369Y37588D01*
X31527Y37708D01*
X31687Y37824D01*
X31850Y37935D01*
X32015Y38043D01*
X32183Y38147D01*
X32354Y38246D01*
X32527Y38341D01*
X32703Y38432D01*
X32880Y38519D01*
X33060Y38601D01*
X33241Y38679D01*
X33425Y38753D01*
X33610Y38821D01*
X33797Y38886D01*
X33985Y38945D01*
X34175Y39000D01*
X34366Y39051D01*
X34558Y39096D01*
X34752Y39137D01*
X34946Y39173D01*
X35141Y39205D01*
X35337Y39231D01*
X35533Y39253D01*
X35730Y39270D01*
X35927Y39282D01*
X36124Y39290D01*
X36322Y39292D01*
X36520Y39290D01*
X36717Y39282D01*
X36914Y39270D01*
X37111Y39253D01*
X37307Y39231D01*
X37503Y39205D01*
X37698Y39173D01*
X37892Y39137D01*
X38086Y39096D01*
X38278Y39051D01*
X38469Y39000D01*
X38659Y38945D01*
X38847Y38886D01*
X39034Y38821D01*
X39219Y38753D01*
X39403Y38679D01*
X39584Y38601D01*
X39764Y38519D01*
X39941Y38432D01*
X40117Y38341D01*
X40290Y38246D01*
X40461Y38147D01*
X40629Y38043D01*
X40794Y37935D01*
X40957Y37824D01*
X41117Y37708D01*
X41275Y37588D01*
X41429Y37465D01*
X41580Y37338D01*
X41728Y37207D01*
X41873Y37072D01*
X42014Y36934D01*
X42152Y36793D01*
X42287Y36648D01*
X42418Y36500D01*
X42545Y36349D01*
X42668Y36195D01*
X42788Y36037D01*
X42904Y35877D01*
X43015Y35714D01*
X43123Y35549D01*
X43227Y35381D01*
X43326Y35210D01*
X43421Y35037D01*
X43512Y34861D01*
X43599Y34684D01*
X43681Y34504D01*
X43759Y34323D01*
X43833Y34139D01*
X43901Y33954D01*
X43966Y33767D01*
X44025Y33579D01*
X44080Y33389D01*
X44131Y33198D01*
X44176Y33006D01*
X44217Y32812D01*
X44253Y32618D01*
X44285Y32423D01*
X44311Y32227D01*
X44333Y32031D01*
X44350Y31834D01*
X44362Y31637D01*
X44370Y31440D01*
X44372Y31242D01*
X44370Y31044D01*
X44362Y30847D01*
X44350Y30650D01*
X44333Y30453D01*
X44311Y30257D01*
X44285Y30061D01*
X44253Y29866D01*
X44217Y29672D01*
X44176Y29478D01*
X44131Y29286D01*
X44080Y29095D01*
X44025Y28905D01*
X43966Y28717D01*
X43901Y28530D01*
X43833Y28345D01*
X43759Y28161D01*
X43681Y27980D01*
X43599Y27800D01*
X43512Y27623D01*
X43421Y27447D01*
X43326Y27274D01*
X43227Y27103D01*
X43123Y26935D01*
X43015Y26770D01*
X42904Y26607D01*
X42788Y26447D01*
X42668Y26289D01*
X42545Y26135D01*
X42418Y25984D01*
X42287Y25836D01*
X42152Y25691D01*
X42014Y25550D01*
X41873Y25412D01*
X41728Y25277D01*
X41580Y25146D01*
X41429Y25019D01*
X41275Y24896D01*
X41117Y24776D01*
X40957Y24660D01*
X40794Y24549D01*
X40629Y24441D01*
X40461Y24337D01*
X40290Y24238D01*
X40117Y24143D01*
X39941Y24052D01*
X39764Y23965D01*
X39584Y23883D01*
X39403Y23805D01*
X39219Y23731D01*
X39034Y23663D01*
X38847Y23598D01*
X38659Y23539D01*
X38469Y23484D01*
X38278Y23433D01*
X38086Y23388D01*
X37892Y23347D01*
X37698Y23311D01*
X37503Y23279D01*
X37307Y23253D01*
X37111Y23231D01*
X36914Y23214D01*
X36717Y23202D01*
X36520Y23194D01*
X36322Y23192D01*
X36124Y23194D01*
X35927Y23202D01*
X35730Y23214D01*
X35533Y23231D01*
X35337Y23253D01*
X35141Y23279D01*
X34946Y23311D01*
X34752Y23347D01*
X34558Y23388D01*
X34366Y23433D01*
X34175Y23484D01*
X33985Y23539D01*
X33797Y23598D01*
X33610Y23663D01*
X33425Y23731D01*
X33241Y23805D01*
X33060Y23883D01*
X32880Y23965D01*
X32703Y24052D01*
X32527Y24143D01*
X32354Y24238D01*
X32183Y24337D01*
X32015Y24441D01*
X31850Y24549D01*
X31687Y24660D01*
X31527Y24776D01*
X31369Y24896D01*
X31215Y25019D01*
X31064Y25146D01*
X30916Y25277D01*
X30771Y25412D01*
X30630Y25550D01*
X30492Y25691D01*
X30357Y25836D01*
X30226Y25984D01*
X30099Y26135D01*
X29976Y26289D01*
X29856Y26447D01*
X29740Y26607D01*
X29629Y26770D01*
X29521Y26935D01*
X29417Y27103D01*
X29318Y27274D01*
X29223Y27447D01*
X29132Y27623D01*
X29045Y27800D01*
X28963Y27980D01*
X28885Y28161D01*
X28811Y28345D01*
X28743Y28530D01*
X28678Y28717D01*
X28619Y28905D01*
X28564Y29095D01*
X28513Y29286D01*
X28468Y29478D01*
X28427Y29672D01*
X28391Y29866D01*
X28359Y30061D01*
X28333Y30257D01*
X28311Y30453D01*
X28294Y30650D01*
X28282Y30847D01*
X28274Y31044D01*
X28272Y31242D01*
X28369Y12587D02*
X29710Y12587D01*
X29710Y12588D02*
X29781Y12586D01*
X29853Y12580D01*
X29923Y12571D01*
X29993Y12558D01*
X30063Y12541D01*
X30131Y12520D01*
X30198Y12496D01*
X30264Y12468D01*
X30328Y12437D01*
X30391Y12402D01*
X30451Y12364D01*
X30510Y12323D01*
X30566Y12279D01*
X30620Y12232D01*
X30671Y12183D01*
X30719Y12130D01*
X30765Y12075D01*
X30807Y12018D01*
X30847Y11958D01*
X30883Y11897D01*
X30916Y11833D01*
X30945Y11768D01*
X30971Y11702D01*
X30994Y11634D01*
X31013Y11565D01*
X31028Y11495D01*
X31039Y11425D01*
X31047Y11354D01*
X31051Y11283D01*
X31051Y11211D01*
X31047Y11140D01*
X31039Y11069D01*
X31028Y10999D01*
X31013Y10929D01*
X30994Y10860D01*
X30971Y10792D01*
X30945Y10726D01*
X30916Y10661D01*
X30883Y10597D01*
X30847Y10536D01*
X30807Y10476D01*
X30765Y10419D01*
X30719Y10364D01*
X30671Y10311D01*
X30620Y10262D01*
X30566Y10215D01*
X30510Y10171D01*
X30451Y10130D01*
X30391Y10092D01*
X30328Y10057D01*
X30264Y10026D01*
X30198Y9998D01*
X30131Y9974D01*
X30063Y9953D01*
X29993Y9936D01*
X29923Y9923D01*
X29853Y9914D01*
X29781Y9908D01*
X29710Y9906D01*
X28369Y9906D01*
X28369Y14732D01*
X29710Y14732D01*
X29775Y14730D01*
X29839Y14724D01*
X29903Y14714D01*
X29967Y14701D01*
X30029Y14683D01*
X30090Y14662D01*
X30150Y14638D01*
X30208Y14609D01*
X30265Y14577D01*
X30319Y14542D01*
X30371Y14504D01*
X30421Y14462D01*
X30468Y14418D01*
X30512Y14371D01*
X30554Y14321D01*
X30592Y14269D01*
X30627Y14215D01*
X30659Y14158D01*
X30688Y14100D01*
X30712Y14040D01*
X30733Y13979D01*
X30751Y13917D01*
X30764Y13853D01*
X30774Y13789D01*
X30780Y13725D01*
X30782Y13660D01*
X30780Y13595D01*
X30774Y13531D01*
X30764Y13467D01*
X30751Y13403D01*
X30733Y13341D01*
X30712Y13280D01*
X30688Y13220D01*
X30659Y13162D01*
X30627Y13105D01*
X30592Y13051D01*
X30554Y12999D01*
X30512Y12949D01*
X30468Y12902D01*
X30421Y12858D01*
X30371Y12816D01*
X30319Y12778D01*
X30265Y12743D01*
X30208Y12711D01*
X30150Y12682D01*
X30090Y12658D01*
X30029Y12637D01*
X29967Y12619D01*
X29903Y12606D01*
X29839Y12596D01*
X29775Y12590D01*
X29710Y12588D01*
X34501Y14732D02*
X34501Y9906D01*
X33161Y14732D02*
X35842Y14732D01*
X38464Y14732D02*
X38464Y9906D01*
X41145Y9906D02*
X38464Y14732D01*
X41145Y14732D02*
X41145Y9906D01*
X44133Y13660D02*
X45474Y14732D01*
X45474Y9906D01*
X44133Y9906D02*
X46815Y9906D01*
D10*
X148996Y15825D02*
X148996Y23191D01*
X151042Y23191D01*
X151131Y23189D01*
X151220Y23183D01*
X151309Y23173D01*
X151397Y23160D01*
X151485Y23143D01*
X151572Y23121D01*
X151657Y23096D01*
X151742Y23068D01*
X151825Y23035D01*
X151907Y22999D01*
X151987Y22960D01*
X152065Y22917D01*
X152141Y22871D01*
X152216Y22821D01*
X152288Y22768D01*
X152357Y22712D01*
X152424Y22653D01*
X152489Y22592D01*
X152550Y22527D01*
X152609Y22460D01*
X152665Y22391D01*
X152718Y22319D01*
X152768Y22244D01*
X152814Y22168D01*
X152857Y22090D01*
X152896Y22010D01*
X152932Y21928D01*
X152965Y21845D01*
X152993Y21760D01*
X153018Y21675D01*
X153040Y21588D01*
X153057Y21500D01*
X153070Y21412D01*
X153080Y21323D01*
X153086Y21234D01*
X153088Y21145D01*
X153086Y21056D01*
X153080Y20967D01*
X153070Y20878D01*
X153057Y20790D01*
X153040Y20702D01*
X153018Y20615D01*
X152993Y20530D01*
X152965Y20445D01*
X152932Y20362D01*
X152896Y20280D01*
X152857Y20200D01*
X152814Y20122D01*
X152768Y20046D01*
X152718Y19971D01*
X152665Y19899D01*
X152609Y19830D01*
X152550Y19763D01*
X152489Y19698D01*
X152424Y19637D01*
X152357Y19578D01*
X152288Y19522D01*
X152216Y19469D01*
X152141Y19419D01*
X152065Y19373D01*
X151987Y19330D01*
X151907Y19291D01*
X151825Y19255D01*
X151742Y19222D01*
X151657Y19194D01*
X151572Y19169D01*
X151485Y19147D01*
X151397Y19130D01*
X151309Y19117D01*
X151220Y19107D01*
X151131Y19101D01*
X151042Y19099D01*
X148996Y19099D01*
X151451Y19099D02*
X153088Y15825D01*
X160353Y21350D02*
X160351Y21435D01*
X160345Y21520D01*
X160335Y21604D01*
X160322Y21688D01*
X160304Y21772D01*
X160283Y21854D01*
X160258Y21935D01*
X160229Y22015D01*
X160196Y22094D01*
X160160Y22171D01*
X160120Y22246D01*
X160077Y22320D01*
X160031Y22391D01*
X159981Y22460D01*
X159928Y22527D01*
X159872Y22591D01*
X159813Y22652D01*
X159752Y22711D01*
X159688Y22767D01*
X159621Y22820D01*
X159552Y22870D01*
X159481Y22916D01*
X159407Y22959D01*
X159332Y22999D01*
X159255Y23035D01*
X159176Y23068D01*
X159096Y23097D01*
X159015Y23122D01*
X158933Y23143D01*
X158849Y23161D01*
X158765Y23174D01*
X158681Y23184D01*
X158596Y23190D01*
X158511Y23192D01*
X158511Y23191D02*
X158415Y23189D01*
X158319Y23183D01*
X158224Y23173D01*
X158129Y23160D01*
X158034Y23142D01*
X157941Y23121D01*
X157848Y23096D01*
X157757Y23067D01*
X157666Y23035D01*
X157577Y22999D01*
X157490Y22959D01*
X157404Y22916D01*
X157320Y22870D01*
X157238Y22820D01*
X157158Y22766D01*
X157081Y22710D01*
X157006Y22650D01*
X156933Y22588D01*
X156863Y22522D01*
X156795Y22454D01*
X156730Y22383D01*
X156669Y22310D01*
X156610Y22234D01*
X156554Y22155D01*
X156502Y22075D01*
X156453Y21992D01*
X156407Y21908D01*
X156365Y21822D01*
X156327Y21734D01*
X156292Y21645D01*
X156260Y21554D01*
X159738Y19918D02*
X159798Y19977D01*
X159855Y20039D01*
X159910Y20103D01*
X159961Y20170D01*
X160010Y20239D01*
X160056Y20309D01*
X160099Y20382D01*
X160139Y20456D01*
X160175Y20532D01*
X160208Y20610D01*
X160238Y20689D01*
X160265Y20769D01*
X160288Y20850D01*
X160307Y20932D01*
X160323Y21014D01*
X160336Y21098D01*
X160345Y21182D01*
X160350Y21266D01*
X160352Y21350D01*
X159738Y19917D02*
X156260Y15825D01*
X160352Y15825D01*
D17*
X201930Y13780D02*
X201930Y4255D01*
M02*
