G04 EAGLE Gerber RS-274X export*
G75*
%MOMM*%
%FSLAX34Y34*%
%LPD*%
%INSoldermask Top*%
%IPPOS*%
%AMOC8*
5,1,8,0,0,1.08239X$1,22.5*%
G01*
%ADD10R,0.977000X0.427000*%
%ADD11R,0.427000X0.977000*%
%ADD12C,0.268850*%
%ADD13C,0.406869*%
%ADD14C,0.631119*%
%ADD15C,0.531859*%
%ADD16R,1.127000X1.927000*%
%ADD17R,0.977000X1.077000*%
%ADD18C,0.400200*%
%ADD19R,0.627000X0.627000*%
%ADD20R,0.627000X1.027000*%
%ADD21R,1.027000X1.127000*%
%ADD22C,0.428259*%
%ADD23C,1.177000*%


D10*
X145371Y67242D03*
X145371Y72242D03*
X145371Y77242D03*
X145371Y82242D03*
X145371Y87242D03*
X145371Y92242D03*
X145371Y97242D03*
X145371Y102242D03*
X145371Y107242D03*
X145371Y112242D03*
X145371Y117242D03*
X145371Y122242D03*
D11*
X138371Y129242D03*
X133371Y129242D03*
X128371Y129242D03*
X123371Y129242D03*
X118371Y129242D03*
X113371Y129242D03*
X108371Y129242D03*
X103371Y129242D03*
X98371Y129242D03*
X93371Y129242D03*
X88371Y129242D03*
X83371Y129242D03*
D10*
X76371Y122242D03*
X76371Y117242D03*
X76371Y112242D03*
X76371Y107242D03*
X76371Y102242D03*
X76371Y97242D03*
X76371Y92242D03*
X76371Y87242D03*
X76371Y82242D03*
X76371Y77242D03*
X76371Y72242D03*
X76371Y67242D03*
D11*
X83371Y60242D03*
X88371Y60242D03*
X93371Y60242D03*
X98371Y60242D03*
X103371Y60242D03*
X108371Y60242D03*
X113371Y60242D03*
X118371Y60242D03*
X123371Y60242D03*
X128371Y60242D03*
X133371Y60242D03*
X138371Y60242D03*
D12*
X85330Y69201D02*
X85330Y120283D01*
X136412Y120283D01*
X136412Y69201D01*
X85330Y69201D01*
X85330Y71756D02*
X136412Y71756D01*
X136412Y74311D02*
X85330Y74311D01*
X85330Y76866D02*
X136412Y76866D01*
X136412Y79421D02*
X85330Y79421D01*
X85330Y81976D02*
X136412Y81976D01*
X136412Y84531D02*
X85330Y84531D01*
X85330Y87086D02*
X136412Y87086D01*
X136412Y89641D02*
X85330Y89641D01*
X85330Y92196D02*
X136412Y92196D01*
X136412Y94751D02*
X85330Y94751D01*
X85330Y97306D02*
X136412Y97306D01*
X136412Y99861D02*
X85330Y99861D01*
X85330Y102416D02*
X136412Y102416D01*
X136412Y104971D02*
X85330Y104971D01*
X85330Y107526D02*
X136412Y107526D01*
X136412Y110081D02*
X85330Y110081D01*
X85330Y112636D02*
X136412Y112636D01*
X136412Y115191D02*
X85330Y115191D01*
X85330Y117746D02*
X136412Y117746D01*
D13*
X43257Y143334D02*
X43257Y145936D01*
X43257Y143334D02*
X40055Y143334D01*
X40055Y145936D01*
X43257Y145936D01*
X40055Y137336D02*
X40055Y134734D01*
X40055Y137336D02*
X43257Y137336D01*
X43257Y134734D01*
X40055Y134734D01*
X32970Y143334D02*
X32970Y145936D01*
X32970Y143334D02*
X29768Y143334D01*
X29768Y145936D01*
X32970Y145936D01*
X29768Y137336D02*
X29768Y134734D01*
X29768Y137336D02*
X32970Y137336D01*
X32970Y134734D01*
X29768Y134734D01*
X90501Y43828D02*
X90501Y41226D01*
X87299Y41226D01*
X87299Y43828D01*
X90501Y43828D01*
X87299Y35228D02*
X87299Y32626D01*
X87299Y35228D02*
X90501Y35228D01*
X90501Y32626D01*
X87299Y32626D01*
X77520Y32499D02*
X77520Y35101D01*
X80722Y35101D01*
X80722Y32499D01*
X77520Y32499D01*
X80722Y41099D02*
X80722Y43701D01*
X80722Y41099D02*
X77520Y41099D01*
X77520Y43701D01*
X80722Y43701D01*
X74979Y144603D02*
X72377Y144603D01*
X74979Y144603D02*
X74979Y141401D01*
X72377Y141401D01*
X72377Y144603D01*
X80977Y141401D02*
X83579Y141401D01*
X80977Y141401D02*
X80977Y144603D01*
X83579Y144603D01*
X83579Y141401D01*
X172326Y135332D02*
X174928Y135332D01*
X174928Y132130D01*
X172326Y132130D01*
X172326Y135332D01*
X180926Y132130D02*
X183528Y132130D01*
X180926Y132130D02*
X180926Y135332D01*
X183528Y135332D01*
X183528Y132130D01*
X165621Y132130D02*
X163019Y132130D01*
X163019Y135332D01*
X165621Y135332D01*
X165621Y132130D01*
X157021Y135332D02*
X154419Y135332D01*
X157021Y135332D02*
X157021Y132130D01*
X154419Y132130D01*
X154419Y135332D01*
X136702Y144640D02*
X136702Y147242D01*
X139904Y147242D01*
X139904Y144640D01*
X136702Y144640D01*
X139904Y153240D02*
X139904Y155842D01*
X139904Y153240D02*
X136702Y153240D01*
X136702Y155842D01*
X139904Y155842D01*
X91744Y148512D02*
X91744Y145910D01*
X91744Y148512D02*
X94946Y148512D01*
X94946Y145910D01*
X91744Y145910D01*
X94946Y154510D02*
X94946Y157112D01*
X94946Y154510D02*
X91744Y154510D01*
X91744Y157112D01*
X94946Y157112D01*
X104090Y41923D02*
X104090Y39321D01*
X100888Y39321D01*
X100888Y41923D01*
X104090Y41923D01*
X100888Y33323D02*
X100888Y30721D01*
X100888Y33323D02*
X104090Y33323D01*
X104090Y30721D01*
X100888Y30721D01*
X70562Y41099D02*
X70562Y43701D01*
X70562Y41099D02*
X67360Y41099D01*
X67360Y43701D01*
X70562Y43701D01*
X67360Y35101D02*
X67360Y32499D01*
X67360Y35101D02*
X70562Y35101D01*
X70562Y32499D01*
X67360Y32499D01*
D14*
X59201Y55872D02*
X54241Y55872D01*
X54241Y65032D01*
X59201Y65032D01*
X59201Y55872D01*
X59201Y61867D02*
X54241Y61867D01*
X40501Y65032D02*
X35541Y65032D01*
X40501Y65032D02*
X40501Y55872D01*
X35541Y55872D01*
X35541Y65032D01*
X35541Y61867D02*
X40501Y61867D01*
X39358Y107450D02*
X34398Y107450D01*
X39358Y107450D02*
X39358Y98290D01*
X34398Y98290D01*
X34398Y107450D01*
X34398Y104285D02*
X39358Y104285D01*
X53098Y98290D02*
X58058Y98290D01*
X53098Y98290D02*
X53098Y107450D01*
X58058Y107450D01*
X58058Y98290D01*
X58058Y104285D02*
X53098Y104285D01*
D13*
X113742Y41923D02*
X113742Y39321D01*
X110540Y39321D01*
X110540Y41923D01*
X113742Y41923D01*
X110540Y33323D02*
X110540Y30721D01*
X110540Y33323D02*
X113742Y33323D01*
X113742Y30721D01*
X110540Y30721D01*
X151461Y50751D02*
X151461Y53353D01*
X151461Y50751D02*
X148259Y50751D01*
X148259Y53353D01*
X151461Y53353D01*
X148259Y44753D02*
X148259Y42151D01*
X148259Y44753D02*
X151461Y44753D01*
X151461Y42151D01*
X148259Y42151D01*
D15*
X53635Y123986D02*
X53635Y127838D01*
X58887Y127838D01*
X58887Y123986D01*
X53635Y123986D01*
X58887Y140386D02*
X58887Y144238D01*
X58887Y140386D02*
X53635Y140386D01*
X53635Y144238D01*
X58887Y144238D01*
D14*
X58185Y76700D02*
X53225Y76700D01*
X53225Y85860D01*
X58185Y85860D01*
X58185Y76700D01*
X58185Y82695D02*
X53225Y82695D01*
X39485Y85860D02*
X34525Y85860D01*
X39485Y85860D02*
X39485Y76700D01*
X34525Y76700D01*
X34525Y85860D01*
X34525Y82695D02*
X39485Y82695D01*
D16*
X181537Y149352D03*
X156537Y149352D03*
D17*
X138211Y25643D03*
X138211Y40143D03*
X126711Y40143D03*
X126711Y25643D03*
D18*
X167193Y73042D02*
X169861Y73042D01*
X167193Y73042D02*
X167193Y76310D01*
X169861Y76310D01*
X169861Y73042D01*
X175833Y73042D02*
X178501Y73042D01*
X175833Y73042D02*
X175833Y76310D01*
X178501Y76310D01*
X178501Y73042D01*
X169988Y83329D02*
X167320Y83329D01*
X167320Y86597D01*
X169988Y86597D01*
X169988Y83329D01*
X175960Y83329D02*
X178628Y83329D01*
X175960Y83329D02*
X175960Y86597D01*
X178628Y86597D01*
X178628Y83329D01*
X178755Y44814D02*
X176087Y44814D01*
X178755Y44814D02*
X178755Y41546D01*
X176087Y41546D01*
X176087Y44814D01*
X170115Y44814D02*
X167447Y44814D01*
X170115Y44814D02*
X170115Y41546D01*
X167447Y41546D01*
X167447Y44814D01*
X167320Y62374D02*
X169988Y62374D01*
X167320Y62374D02*
X167320Y65642D01*
X169988Y65642D01*
X169988Y62374D01*
X175960Y62374D02*
X178628Y62374D01*
X175960Y62374D02*
X175960Y65642D01*
X178628Y65642D01*
X178628Y62374D01*
X194502Y60562D02*
X197170Y60562D01*
X197170Y57294D01*
X194502Y57294D01*
X194502Y60562D01*
X188530Y60562D02*
X185862Y60562D01*
X188530Y60562D02*
X188530Y57294D01*
X185862Y57294D01*
X185862Y60562D01*
X197214Y96581D02*
X197214Y99249D01*
X197214Y96581D02*
X193946Y96581D01*
X193946Y99249D01*
X197214Y99249D01*
X197214Y105221D02*
X197214Y107889D01*
X197214Y105221D02*
X193946Y105221D01*
X193946Y107889D01*
X197214Y107889D01*
X196325Y113213D02*
X198292Y115015D01*
X196325Y113213D02*
X194118Y115621D01*
X196085Y117423D01*
X198292Y115015D01*
X196459Y117015D02*
X195640Y117015D01*
X202695Y119051D02*
X204662Y120853D01*
X202695Y119051D02*
X200488Y121459D01*
X202455Y123261D01*
X204662Y120853D01*
X202829Y122853D02*
X202010Y122853D01*
X169988Y52087D02*
X167320Y52087D01*
X167320Y55355D01*
X169988Y55355D01*
X169988Y52087D01*
X175960Y52087D02*
X178628Y52087D01*
X175960Y52087D02*
X175960Y55355D01*
X178628Y55355D01*
X178628Y52087D01*
X185735Y67708D02*
X188403Y67708D01*
X185735Y67708D02*
X185735Y70976D01*
X188403Y70976D01*
X188403Y67708D01*
X194375Y67708D02*
X197043Y67708D01*
X194375Y67708D02*
X194375Y70976D01*
X197043Y70976D01*
X197043Y67708D01*
X197087Y78039D02*
X197087Y80707D01*
X197087Y78039D02*
X193819Y78039D01*
X193819Y80707D01*
X197087Y80707D01*
X197087Y86679D02*
X197087Y89347D01*
X197087Y86679D02*
X193819Y86679D01*
X193819Y89347D01*
X197087Y89347D01*
D19*
X210566Y124968D03*
D18*
X157419Y23478D02*
X154751Y23478D01*
X157419Y23478D02*
X157419Y20210D01*
X154751Y20210D01*
X154751Y23478D01*
X148779Y23478D02*
X146111Y23478D01*
X148779Y23478D02*
X148779Y20210D01*
X146111Y20210D01*
X146111Y23478D01*
X118176Y23732D02*
X115508Y23732D01*
X118176Y23732D02*
X118176Y20464D01*
X115508Y20464D01*
X115508Y23732D01*
X109536Y23732D02*
X106868Y23732D01*
X109536Y23732D02*
X109536Y20464D01*
X106868Y20464D01*
X106868Y23732D01*
D20*
X210566Y145923D03*
D21*
X56822Y39242D03*
X56822Y23242D03*
X15822Y23242D03*
X15822Y39242D03*
D18*
X166939Y18051D02*
X169607Y18051D01*
X166939Y18051D02*
X166939Y21319D01*
X169607Y21319D01*
X169607Y18051D01*
X175579Y18051D02*
X178247Y18051D01*
X175579Y18051D02*
X175579Y21319D01*
X178247Y21319D01*
X178247Y18051D01*
D22*
X191839Y12130D02*
X191839Y5142D01*
X191839Y12130D02*
X198827Y12130D01*
X198827Y5142D01*
X191839Y5142D01*
X191839Y9211D02*
X198827Y9211D01*
X174299Y12130D02*
X174299Y5142D01*
X174299Y12130D02*
X181287Y12130D01*
X181287Y5142D01*
X174299Y5142D01*
X174299Y9211D02*
X181287Y9211D01*
D23*
X112903Y2286D03*
X125603Y2286D03*
X138303Y2286D03*
X151003Y2286D03*
X163703Y2286D03*
X100203Y2286D03*
X87503Y2286D03*
X74803Y2286D03*
X62103Y2286D03*
X49403Y2286D03*
X36703Y2286D03*
X24003Y2286D03*
X11303Y2286D03*
X112903Y168656D03*
X125603Y168656D03*
X138303Y168656D03*
X151003Y168656D03*
X163703Y168656D03*
X100203Y168656D03*
X87503Y168656D03*
X74803Y168656D03*
X62103Y168656D03*
X49403Y168656D03*
X36703Y168656D03*
X24003Y168656D03*
X11303Y168656D03*
X3048Y78994D03*
X3048Y66294D03*
X3048Y53594D03*
X3048Y40894D03*
X3048Y28194D03*
X3048Y91694D03*
X3048Y104394D03*
X3048Y117094D03*
X3048Y129794D03*
X3048Y142494D03*
M02*
