G04 EAGLE Gerber RS-274X export*
G75*
%MOMM*%
%FSLAX34Y34*%
%LPD*%
%INSolderpaste Top*%
%IPPOS*%
%AMOC8*
5,1,8,0,0,1.08239X$1,22.5*%
G01*
%ADD10R,0.850000X0.300000*%
%ADD11R,0.300000X0.850000*%
%ADD12R,1.000000X1.000000*%
%ADD13C,0.280800*%
%ADD14C,0.500000*%
%ADD15C,0.402900*%
%ADD16R,1.000000X1.800000*%
%ADD17R,0.850000X0.950000*%
%ADD18C,0.270000*%
%ADD19R,0.900000X1.000000*%
%ADD20C,0.300000*%


D10*
X145371Y67242D03*
X145371Y72242D03*
X145371Y77242D03*
X145371Y82242D03*
X145371Y87242D03*
X145371Y92242D03*
X145371Y97242D03*
X145371Y102242D03*
X145371Y107242D03*
X145371Y112242D03*
X145371Y117242D03*
X145371Y122242D03*
D11*
X138371Y129242D03*
X133371Y129242D03*
X128371Y129242D03*
X123371Y129242D03*
X118371Y129242D03*
X113371Y129242D03*
X108371Y129242D03*
X103371Y129242D03*
X98371Y129242D03*
X93371Y129242D03*
X88371Y129242D03*
X83371Y129242D03*
D10*
X76371Y122242D03*
X76371Y117242D03*
X76371Y112242D03*
X76371Y107242D03*
X76371Y102242D03*
X76371Y97242D03*
X76371Y92242D03*
X76371Y87242D03*
X76371Y82242D03*
X76371Y77242D03*
X76371Y72242D03*
X76371Y67242D03*
D11*
X83371Y60242D03*
X88371Y60242D03*
X93371Y60242D03*
X98371Y60242D03*
X103371Y60242D03*
X108371Y60242D03*
X113371Y60242D03*
X118371Y60242D03*
X123371Y60242D03*
X128371Y60242D03*
X133371Y60242D03*
X138371Y60242D03*
D12*
X130871Y74742D03*
X117621Y74742D03*
X104121Y74742D03*
X90871Y74742D03*
X130871Y87992D03*
X130871Y101492D03*
X130871Y114742D03*
X90871Y114742D03*
X104121Y114742D03*
X117621Y114742D03*
X117621Y101492D03*
X117621Y87992D03*
X104121Y87992D03*
X90871Y87992D03*
X104121Y101492D03*
X90871Y101492D03*
D13*
X43252Y143339D02*
X43252Y145931D01*
X43252Y143339D02*
X40060Y143339D01*
X40060Y145931D01*
X43252Y145931D01*
X40060Y137331D02*
X40060Y134739D01*
X40060Y137331D02*
X43252Y137331D01*
X43252Y134739D01*
X40060Y134739D01*
X32965Y143339D02*
X32965Y145931D01*
X32965Y143339D02*
X29773Y143339D01*
X29773Y145931D01*
X32965Y145931D01*
X29773Y137331D02*
X29773Y134739D01*
X29773Y137331D02*
X32965Y137331D01*
X32965Y134739D01*
X29773Y134739D01*
X90496Y43823D02*
X90496Y41231D01*
X87304Y41231D01*
X87304Y43823D01*
X90496Y43823D01*
X87304Y35223D02*
X87304Y32631D01*
X87304Y35223D02*
X90496Y35223D01*
X90496Y32631D01*
X87304Y32631D01*
X77525Y32504D02*
X77525Y35096D01*
X80717Y35096D01*
X80717Y32504D01*
X77525Y32504D01*
X80717Y41104D02*
X80717Y43696D01*
X80717Y41104D02*
X77525Y41104D01*
X77525Y43696D01*
X80717Y43696D01*
X74974Y144598D02*
X72382Y144598D01*
X74974Y144598D02*
X74974Y141406D01*
X72382Y141406D01*
X72382Y144598D01*
X72382Y144074D02*
X74974Y144074D01*
X80982Y141406D02*
X83574Y141406D01*
X80982Y141406D02*
X80982Y144598D01*
X83574Y144598D01*
X83574Y141406D01*
X83574Y144074D02*
X80982Y144074D01*
X172331Y135327D02*
X174923Y135327D01*
X174923Y132135D01*
X172331Y132135D01*
X172331Y135327D01*
X172331Y134803D02*
X174923Y134803D01*
X180931Y132135D02*
X183523Y132135D01*
X180931Y132135D02*
X180931Y135327D01*
X183523Y135327D01*
X183523Y132135D01*
X183523Y134803D02*
X180931Y134803D01*
X165616Y132135D02*
X163024Y132135D01*
X163024Y135327D01*
X165616Y135327D01*
X165616Y132135D01*
X165616Y134803D02*
X163024Y134803D01*
X157016Y135327D02*
X154424Y135327D01*
X157016Y135327D02*
X157016Y132135D01*
X154424Y132135D01*
X154424Y135327D01*
X154424Y134803D02*
X157016Y134803D01*
X136707Y144645D02*
X136707Y147237D01*
X139899Y147237D01*
X139899Y144645D01*
X136707Y144645D01*
X139899Y153245D02*
X139899Y155837D01*
X139899Y153245D02*
X136707Y153245D01*
X136707Y155837D01*
X139899Y155837D01*
X91749Y148507D02*
X91749Y145915D01*
X91749Y148507D02*
X94941Y148507D01*
X94941Y145915D01*
X91749Y145915D01*
X94941Y154515D02*
X94941Y157107D01*
X94941Y154515D02*
X91749Y154515D01*
X91749Y157107D01*
X94941Y157107D01*
X104085Y41918D02*
X104085Y39326D01*
X100893Y39326D01*
X100893Y41918D01*
X104085Y41918D01*
X100893Y33318D02*
X100893Y30726D01*
X100893Y33318D02*
X104085Y33318D01*
X104085Y30726D01*
X100893Y30726D01*
X70557Y41104D02*
X70557Y43696D01*
X70557Y41104D02*
X67365Y41104D01*
X67365Y43696D01*
X70557Y43696D01*
X67365Y35096D02*
X67365Y32504D01*
X67365Y35096D02*
X70557Y35096D01*
X70557Y32504D01*
X67365Y32504D01*
D14*
X59221Y55852D02*
X54221Y55852D01*
X54221Y65052D01*
X59221Y65052D01*
X59221Y55852D01*
X59221Y60602D02*
X54221Y60602D01*
X40521Y65052D02*
X35521Y65052D01*
X40521Y65052D02*
X40521Y55852D01*
X35521Y55852D01*
X35521Y65052D01*
X35521Y60602D02*
X40521Y60602D01*
X39378Y107470D02*
X34378Y107470D01*
X39378Y107470D02*
X39378Y98270D01*
X34378Y98270D01*
X34378Y107470D01*
X34378Y103020D02*
X39378Y103020D01*
X53078Y98270D02*
X58078Y98270D01*
X53078Y98270D02*
X53078Y107470D01*
X58078Y107470D01*
X58078Y98270D01*
X58078Y103020D02*
X53078Y103020D01*
D13*
X113737Y41918D02*
X113737Y39326D01*
X110545Y39326D01*
X110545Y41918D01*
X113737Y41918D01*
X110545Y33318D02*
X110545Y30726D01*
X110545Y33318D02*
X113737Y33318D01*
X113737Y30726D01*
X110545Y30726D01*
X151456Y50756D02*
X151456Y53348D01*
X151456Y50756D02*
X148264Y50756D01*
X148264Y53348D01*
X151456Y53348D01*
X148264Y44748D02*
X148264Y42156D01*
X148264Y44748D02*
X151456Y44748D01*
X151456Y42156D01*
X148264Y42156D01*
D15*
X53625Y123976D02*
X53625Y127848D01*
X58897Y127848D01*
X58897Y123976D01*
X53625Y123976D01*
X53625Y127804D02*
X58897Y127804D01*
X58897Y140376D02*
X58897Y144248D01*
X58897Y140376D02*
X53625Y140376D01*
X53625Y144248D01*
X58897Y144248D01*
X58897Y144204D02*
X53625Y144204D01*
D14*
X53205Y76680D02*
X58205Y76680D01*
X53205Y76680D02*
X53205Y85880D01*
X58205Y85880D01*
X58205Y76680D01*
X58205Y81430D02*
X53205Y81430D01*
X39505Y85880D02*
X34505Y85880D01*
X39505Y85880D02*
X39505Y76680D01*
X34505Y76680D01*
X34505Y85880D01*
X34505Y81430D02*
X39505Y81430D01*
D16*
X181537Y149352D03*
X156537Y149352D03*
D17*
X138211Y25643D03*
X138211Y40143D03*
X126711Y40143D03*
X126711Y25643D03*
D18*
X167177Y73026D02*
X169877Y73026D01*
X167177Y73026D02*
X167177Y76326D01*
X169877Y76326D01*
X169877Y73026D01*
X169877Y75591D02*
X167177Y75591D01*
X175817Y73026D02*
X178517Y73026D01*
X175817Y73026D02*
X175817Y76326D01*
X178517Y76326D01*
X178517Y73026D01*
X178517Y75591D02*
X175817Y75591D01*
X170004Y83313D02*
X167304Y83313D01*
X167304Y86613D01*
X170004Y86613D01*
X170004Y83313D01*
X170004Y85878D02*
X167304Y85878D01*
X175944Y83313D02*
X178644Y83313D01*
X175944Y83313D02*
X175944Y86613D01*
X178644Y86613D01*
X178644Y83313D01*
X178644Y85878D02*
X175944Y85878D01*
X176071Y44830D02*
X178771Y44830D01*
X178771Y41530D01*
X176071Y41530D01*
X176071Y44830D01*
X176071Y44095D02*
X178771Y44095D01*
X170131Y44830D02*
X167431Y44830D01*
X170131Y44830D02*
X170131Y41530D01*
X167431Y41530D01*
X167431Y44830D01*
X167431Y44095D02*
X170131Y44095D01*
X170004Y62358D02*
X167304Y62358D01*
X167304Y65658D01*
X170004Y65658D01*
X170004Y62358D01*
X170004Y64923D02*
X167304Y64923D01*
X175944Y62358D02*
X178644Y62358D01*
X175944Y62358D02*
X175944Y65658D01*
X178644Y65658D01*
X178644Y62358D01*
X178644Y64923D02*
X175944Y64923D01*
X194057Y60915D02*
X194057Y58215D01*
X194057Y60915D02*
X197357Y60915D01*
X197357Y58215D01*
X194057Y58215D01*
X194057Y60780D02*
X197357Y60780D01*
X194057Y52275D02*
X194057Y49575D01*
X194057Y52275D02*
X197357Y52275D01*
X197357Y49575D01*
X194057Y49575D01*
X194057Y52140D02*
X197357Y52140D01*
X197230Y96565D02*
X197230Y99265D01*
X197230Y96565D02*
X193930Y96565D01*
X193930Y99265D01*
X197230Y99265D01*
X197230Y99130D02*
X193930Y99130D01*
X197230Y105205D02*
X197230Y107905D01*
X197230Y105205D02*
X193930Y105205D01*
X193930Y107905D01*
X197230Y107905D01*
X197230Y107770D02*
X193930Y107770D01*
X196324Y113190D02*
X198315Y115014D01*
X196324Y113190D02*
X194095Y115622D01*
X196086Y117446D01*
X198315Y115014D01*
X197636Y115755D02*
X194240Y115755D01*
X202694Y119028D02*
X204685Y120852D01*
X202694Y119028D02*
X200465Y121460D01*
X202456Y123284D01*
X204685Y120852D01*
X204006Y121593D02*
X200610Y121593D01*
X170004Y52071D02*
X167304Y52071D01*
X167304Y55371D01*
X170004Y55371D01*
X170004Y52071D01*
X170004Y54636D02*
X167304Y54636D01*
X175944Y52071D02*
X178644Y52071D01*
X175944Y52071D02*
X175944Y55371D01*
X178644Y55371D01*
X178644Y52071D01*
X178644Y54636D02*
X175944Y54636D01*
X185719Y67692D02*
X188419Y67692D01*
X185719Y67692D02*
X185719Y70992D01*
X188419Y70992D01*
X188419Y67692D01*
X188419Y70257D02*
X185719Y70257D01*
X194359Y67692D02*
X197059Y67692D01*
X194359Y67692D02*
X194359Y70992D01*
X197059Y70992D01*
X197059Y67692D01*
X197059Y70257D02*
X194359Y70257D01*
X197103Y78023D02*
X197103Y80723D01*
X197103Y78023D02*
X193803Y78023D01*
X193803Y80723D01*
X197103Y80723D01*
X197103Y80588D02*
X193803Y80588D01*
X197103Y86663D02*
X197103Y89363D01*
X197103Y86663D02*
X193803Y86663D01*
X193803Y89363D01*
X197103Y89363D01*
X197103Y89228D02*
X193803Y89228D01*
D19*
X56822Y39242D03*
X56822Y23242D03*
X15822Y23242D03*
X15822Y39242D03*
D18*
X166923Y18035D02*
X169623Y18035D01*
X166923Y18035D02*
X166923Y21335D01*
X169623Y21335D01*
X169623Y18035D01*
X169623Y20600D02*
X166923Y20600D01*
X175563Y18035D02*
X178263Y18035D01*
X175563Y18035D02*
X175563Y21335D01*
X178263Y21335D01*
X178263Y18035D01*
X178263Y20600D02*
X175563Y20600D01*
D20*
X191325Y12517D02*
X191325Y5517D01*
X191325Y12517D02*
X198325Y12517D01*
X198325Y5517D01*
X191325Y5517D01*
X191325Y8367D02*
X198325Y8367D01*
X198325Y11217D02*
X191325Y11217D01*
X173785Y12517D02*
X173785Y5517D01*
X173785Y12517D02*
X180785Y12517D01*
X180785Y5517D01*
X173785Y5517D01*
X173785Y8367D02*
X180785Y8367D01*
X180785Y11217D02*
X173785Y11217D01*
M02*
