G04 EAGLE Gerber RS-274X export*
G75*
%MOMM*%
%FSLAX34Y34*%
%LPD*%
%INCopper Layer 15*%
%IPPOS*%
%AMOC8*
5,1,8,0,0,1.08239X$1,22.5*%
G01*
%ADD10C,1.050000*%
%ADD11C,0.403200*%
%ADD12C,0.457200*%
%ADD13C,0.453200*%

G36*
X233878Y7573D02*
X233878Y7573D01*
X233897Y7571D01*
X233999Y7593D01*
X234101Y7609D01*
X234118Y7619D01*
X234138Y7623D01*
X234227Y7676D01*
X234318Y7725D01*
X234332Y7739D01*
X234349Y7749D01*
X234416Y7828D01*
X234488Y7903D01*
X234496Y7921D01*
X234509Y7936D01*
X234548Y8032D01*
X234591Y8126D01*
X234593Y8146D01*
X234601Y8164D01*
X234619Y8331D01*
X234619Y102870D01*
X234616Y102890D01*
X234618Y102909D01*
X234596Y103011D01*
X234580Y103113D01*
X234570Y103130D01*
X234566Y103150D01*
X234513Y103239D01*
X234464Y103330D01*
X234450Y103344D01*
X234440Y103361D01*
X234361Y103428D01*
X234286Y103500D01*
X234268Y103508D01*
X234253Y103521D01*
X234157Y103560D01*
X234063Y103603D01*
X234043Y103605D01*
X234025Y103613D01*
X233858Y103631D01*
X196341Y103631D01*
X196341Y170485D01*
X196339Y170502D01*
X196340Y170517D01*
X196340Y170519D01*
X196340Y170524D01*
X196318Y170626D01*
X196301Y170728D01*
X196292Y170745D01*
X196288Y170765D01*
X196235Y170854D01*
X196186Y170945D01*
X196172Y170959D01*
X196162Y170976D01*
X196083Y171043D01*
X196008Y171115D01*
X195990Y171123D01*
X195975Y171136D01*
X195879Y171175D01*
X195785Y171218D01*
X195765Y171220D01*
X195747Y171228D01*
X195580Y171246D01*
X170764Y171246D01*
X170650Y171227D01*
X170533Y171210D01*
X170528Y171208D01*
X170522Y171207D01*
X170419Y171152D01*
X170314Y171099D01*
X170310Y171094D01*
X170304Y171091D01*
X170224Y171007D01*
X170142Y170923D01*
X170138Y170917D01*
X170135Y170913D01*
X170127Y170896D01*
X170061Y170776D01*
X169231Y168772D01*
X167397Y166938D01*
X165000Y165945D01*
X162406Y165945D01*
X160009Y166938D01*
X158175Y168772D01*
X158056Y169059D01*
X158019Y169120D01*
X157989Y169185D01*
X157954Y169224D01*
X157927Y169268D01*
X157872Y169314D01*
X157823Y169366D01*
X157777Y169392D01*
X157737Y169425D01*
X157670Y169450D01*
X157607Y169485D01*
X157556Y169494D01*
X157508Y169513D01*
X157436Y169516D01*
X157365Y169529D01*
X157314Y169521D01*
X157262Y169523D01*
X157193Y169503D01*
X157122Y169493D01*
X157076Y169469D01*
X157026Y169455D01*
X156967Y169414D01*
X156903Y169381D01*
X156866Y169344D01*
X156824Y169315D01*
X156781Y169257D01*
X156731Y169206D01*
X156696Y169143D01*
X156677Y169117D01*
X156670Y169095D01*
X156650Y169059D01*
X156531Y168772D01*
X154697Y166938D01*
X154649Y166918D01*
X154549Y166856D01*
X154449Y166797D01*
X154445Y166792D01*
X154440Y166789D01*
X154365Y166699D01*
X154289Y166610D01*
X154287Y166604D01*
X154283Y166599D01*
X154241Y166491D01*
X154197Y166382D01*
X154196Y166374D01*
X154195Y166369D01*
X154194Y166351D01*
X154179Y166215D01*
X154179Y131429D01*
X154182Y131409D01*
X154180Y131390D01*
X154202Y131288D01*
X154219Y131186D01*
X154228Y131169D01*
X154232Y131149D01*
X154285Y131060D01*
X154334Y130969D01*
X154348Y130955D01*
X154358Y130938D01*
X154437Y130871D01*
X154512Y130799D01*
X154530Y130791D01*
X154545Y130778D01*
X154641Y130739D01*
X154735Y130696D01*
X154755Y130694D01*
X154773Y130686D01*
X154940Y130668D01*
X155031Y130668D01*
X156957Y128742D01*
X156957Y125870D01*
X156957Y125869D01*
X156926Y125770D01*
X156927Y125750D01*
X156922Y125731D01*
X156930Y125628D01*
X156932Y125524D01*
X156939Y125505D01*
X156941Y125486D01*
X156981Y125391D01*
X157017Y125293D01*
X157029Y125278D01*
X157037Y125259D01*
X157142Y125128D01*
X158989Y123281D01*
X158989Y120559D01*
X156888Y118458D01*
X156876Y118442D01*
X156861Y118429D01*
X156829Y118380D01*
X156828Y118379D01*
X156827Y118377D01*
X156805Y118342D01*
X156744Y118258D01*
X156739Y118239D01*
X156728Y118222D01*
X156702Y118122D01*
X156672Y118023D01*
X156673Y118003D01*
X156668Y117984D01*
X156676Y117881D01*
X156678Y117777D01*
X156685Y117758D01*
X156687Y117738D01*
X156727Y117644D01*
X156763Y117546D01*
X156775Y117530D01*
X156783Y117512D01*
X156830Y117454D01*
X156830Y115300D01*
X156833Y115280D01*
X156831Y115261D01*
X156853Y115159D01*
X156869Y115057D01*
X156879Y115040D01*
X156883Y115020D01*
X156936Y114931D01*
X156985Y114840D01*
X156999Y114826D01*
X157009Y114809D01*
X157088Y114742D01*
X157163Y114670D01*
X157181Y114662D01*
X157196Y114649D01*
X157292Y114610D01*
X157386Y114567D01*
X157406Y114565D01*
X157424Y114557D01*
X157591Y114539D01*
X158079Y114539D01*
X160005Y112613D01*
X160005Y109891D01*
X158079Y107965D01*
X157591Y107965D01*
X157571Y107962D01*
X157552Y107964D01*
X157450Y107942D01*
X157348Y107926D01*
X157331Y107916D01*
X157311Y107912D01*
X157222Y107859D01*
X157131Y107810D01*
X157117Y107796D01*
X157100Y107786D01*
X157033Y107707D01*
X156961Y107632D01*
X156953Y107614D01*
X156940Y107599D01*
X156901Y107503D01*
X156858Y107409D01*
X156856Y107389D01*
X156848Y107371D01*
X156830Y107204D01*
X156830Y105013D01*
X156833Y104993D01*
X156831Y104974D01*
X156853Y104872D01*
X156869Y104770D01*
X156879Y104753D01*
X156883Y104733D01*
X156936Y104644D01*
X156985Y104553D01*
X156999Y104539D01*
X157009Y104522D01*
X157088Y104455D01*
X157163Y104383D01*
X157181Y104375D01*
X157196Y104362D01*
X157292Y104323D01*
X157386Y104280D01*
X157406Y104278D01*
X157424Y104270D01*
X157591Y104252D01*
X157952Y104252D01*
X159878Y102326D01*
X159878Y99604D01*
X157952Y97678D01*
X157464Y97678D01*
X157444Y97675D01*
X157425Y97677D01*
X157323Y97655D01*
X157221Y97639D01*
X157204Y97629D01*
X157184Y97625D01*
X157095Y97572D01*
X157004Y97523D01*
X156990Y97509D01*
X156973Y97499D01*
X156906Y97420D01*
X156834Y97345D01*
X156826Y97327D01*
X156813Y97312D01*
X156774Y97216D01*
X156731Y97122D01*
X156729Y97102D01*
X156721Y97084D01*
X156703Y96917D01*
X156703Y95107D01*
X156706Y95090D01*
X156704Y95074D01*
X156704Y95072D01*
X156704Y95068D01*
X156726Y94966D01*
X156742Y94864D01*
X156752Y94847D01*
X156756Y94827D01*
X156809Y94738D01*
X156858Y94647D01*
X156872Y94633D01*
X156882Y94616D01*
X156961Y94549D01*
X157036Y94477D01*
X157054Y94469D01*
X157069Y94456D01*
X157165Y94417D01*
X157259Y94374D01*
X157279Y94372D01*
X157297Y94364D01*
X157464Y94346D01*
X157952Y94346D01*
X159878Y92420D01*
X159878Y89698D01*
X157952Y87772D01*
X155230Y87772D01*
X153304Y89698D01*
X153304Y92091D01*
X153303Y92102D01*
X153303Y92108D01*
X153302Y92116D01*
X153303Y92130D01*
X153281Y92232D01*
X153265Y92334D01*
X153255Y92351D01*
X153251Y92371D01*
X153198Y92460D01*
X153149Y92551D01*
X153135Y92565D01*
X153125Y92582D01*
X153046Y92649D01*
X152971Y92721D01*
X152953Y92729D01*
X152938Y92742D01*
X152842Y92781D01*
X152748Y92824D01*
X152728Y92826D01*
X152710Y92834D01*
X152543Y92852D01*
X152055Y92852D01*
X150129Y94778D01*
X150129Y97500D01*
X152055Y99426D01*
X152543Y99426D01*
X152563Y99429D01*
X152582Y99427D01*
X152684Y99449D01*
X152786Y99465D01*
X152803Y99475D01*
X152823Y99479D01*
X152912Y99532D01*
X153003Y99581D01*
X153017Y99595D01*
X153034Y99605D01*
X153101Y99684D01*
X153173Y99759D01*
X153181Y99777D01*
X153194Y99792D01*
X153233Y99888D01*
X153276Y99982D01*
X153278Y100002D01*
X153286Y100020D01*
X153304Y100187D01*
X153304Y101870D01*
X153301Y101890D01*
X153303Y101909D01*
X153281Y102011D01*
X153265Y102113D01*
X153255Y102130D01*
X153251Y102150D01*
X153198Y102239D01*
X153149Y102330D01*
X153135Y102344D01*
X153125Y102361D01*
X153046Y102428D01*
X152971Y102500D01*
X152953Y102508D01*
X152938Y102521D01*
X152842Y102560D01*
X152748Y102603D01*
X152728Y102605D01*
X152710Y102613D01*
X152543Y102631D01*
X152182Y102631D01*
X150256Y104557D01*
X150256Y107279D01*
X152182Y109205D01*
X152670Y109205D01*
X152690Y109208D01*
X152709Y109206D01*
X152811Y109228D01*
X152913Y109244D01*
X152930Y109254D01*
X152950Y109258D01*
X153039Y109311D01*
X153130Y109360D01*
X153144Y109374D01*
X153161Y109384D01*
X153228Y109463D01*
X153300Y109538D01*
X153308Y109556D01*
X153321Y109571D01*
X153360Y109667D01*
X153403Y109761D01*
X153405Y109781D01*
X153413Y109799D01*
X153431Y109966D01*
X153431Y112030D01*
X153428Y112050D01*
X153430Y112069D01*
X153408Y112171D01*
X153392Y112273D01*
X153382Y112290D01*
X153378Y112310D01*
X153325Y112399D01*
X153276Y112490D01*
X153262Y112504D01*
X153252Y112521D01*
X153173Y112588D01*
X153098Y112660D01*
X153080Y112668D01*
X153065Y112681D01*
X152969Y112720D01*
X152875Y112763D01*
X152855Y112765D01*
X152837Y112773D01*
X152670Y112791D01*
X152182Y112791D01*
X150256Y114717D01*
X150256Y117439D01*
X152357Y119540D01*
X152369Y119556D01*
X152384Y119569D01*
X152440Y119656D01*
X152501Y119740D01*
X152506Y119759D01*
X152517Y119776D01*
X152543Y119876D01*
X152573Y119975D01*
X152572Y119995D01*
X152577Y120014D01*
X152569Y120117D01*
X152567Y120221D01*
X152560Y120240D01*
X152558Y120259D01*
X152518Y120354D01*
X152482Y120452D01*
X152470Y120468D01*
X152462Y120486D01*
X152415Y120544D01*
X152415Y123431D01*
X152416Y123432D01*
X152446Y123531D01*
X152445Y123551D01*
X152450Y123570D01*
X152442Y123673D01*
X152440Y123777D01*
X152433Y123796D01*
X152431Y123816D01*
X152391Y123910D01*
X152355Y124008D01*
X152343Y124024D01*
X152335Y124042D01*
X152230Y124173D01*
X150383Y126020D01*
X150383Y128742D01*
X151913Y130272D01*
X151954Y130330D01*
X152004Y130382D01*
X152026Y130429D01*
X152056Y130471D01*
X152077Y130540D01*
X152107Y130605D01*
X152113Y130657D01*
X152128Y130707D01*
X152127Y130778D01*
X152135Y130849D01*
X152123Y130900D01*
X152122Y130952D01*
X152097Y131020D01*
X152082Y131090D01*
X152056Y131134D01*
X152038Y131183D01*
X151993Y131239D01*
X151956Y131301D01*
X151917Y131335D01*
X151884Y131375D01*
X151824Y131414D01*
X151769Y131461D01*
X151721Y131480D01*
X151677Y131508D01*
X151608Y131526D01*
X151541Y131553D01*
X151470Y131561D01*
X151439Y131569D01*
X151415Y131567D01*
X151374Y131571D01*
X87630Y131571D01*
X87540Y131557D01*
X87449Y131549D01*
X87419Y131537D01*
X87387Y131532D01*
X87307Y131489D01*
X87223Y131453D01*
X87191Y131427D01*
X87170Y131416D01*
X87148Y131393D01*
X87092Y131348D01*
X78202Y122458D01*
X78149Y122384D01*
X78089Y122315D01*
X78077Y122285D01*
X78058Y122259D01*
X78031Y122172D01*
X77997Y122087D01*
X77993Y122046D01*
X77986Y122023D01*
X77987Y121991D01*
X77979Y121920D01*
X77979Y69850D01*
X77982Y69830D01*
X77980Y69811D01*
X78002Y69709D01*
X78019Y69607D01*
X78028Y69590D01*
X78032Y69570D01*
X78085Y69481D01*
X78134Y69390D01*
X78148Y69376D01*
X78158Y69359D01*
X78237Y69292D01*
X78312Y69221D01*
X78330Y69212D01*
X78345Y69199D01*
X78441Y69160D01*
X78535Y69117D01*
X78555Y69115D01*
X78573Y69107D01*
X78740Y69089D01*
X168595Y69089D01*
X170689Y66995D01*
X170689Y8331D01*
X170692Y8311D01*
X170690Y8292D01*
X170712Y8190D01*
X170729Y8088D01*
X170738Y8071D01*
X170742Y8051D01*
X170795Y7962D01*
X170844Y7871D01*
X170858Y7857D01*
X170868Y7840D01*
X170947Y7773D01*
X171022Y7701D01*
X171040Y7693D01*
X171055Y7680D01*
X171151Y7641D01*
X171245Y7598D01*
X171265Y7596D01*
X171283Y7588D01*
X171450Y7570D01*
X233858Y7570D01*
X233878Y7573D01*
G37*
G36*
X109875Y40644D02*
X109875Y40644D01*
X109894Y40642D01*
X109996Y40664D01*
X110098Y40681D01*
X110115Y40690D01*
X110135Y40694D01*
X110224Y40747D01*
X110315Y40796D01*
X110329Y40810D01*
X110346Y40820D01*
X110413Y40899D01*
X110485Y40974D01*
X110493Y40992D01*
X110506Y41007D01*
X110545Y41103D01*
X110588Y41197D01*
X110590Y41217D01*
X110598Y41235D01*
X110616Y41402D01*
X110616Y51324D01*
X110615Y51333D01*
X110615Y51338D01*
X110613Y51346D01*
X110615Y51363D01*
X110593Y51465D01*
X110577Y51567D01*
X110567Y51584D01*
X110563Y51604D01*
X110510Y51693D01*
X110461Y51784D01*
X110447Y51798D01*
X110437Y51815D01*
X110358Y51882D01*
X110283Y51954D01*
X110265Y51962D01*
X110250Y51975D01*
X110154Y52014D01*
X110060Y52057D01*
X110040Y52059D01*
X110022Y52067D01*
X109855Y52085D01*
X108875Y52085D01*
X108218Y52742D01*
X108160Y52783D01*
X108108Y52833D01*
X108061Y52855D01*
X108019Y52885D01*
X107950Y52906D01*
X107885Y52936D01*
X107833Y52942D01*
X107783Y52958D01*
X107712Y52956D01*
X107641Y52964D01*
X107590Y52952D01*
X107538Y52951D01*
X107470Y52927D01*
X107400Y52911D01*
X107355Y52885D01*
X107307Y52867D01*
X107251Y52822D01*
X107189Y52785D01*
X107155Y52746D01*
X107115Y52713D01*
X107076Y52653D01*
X107029Y52598D01*
X107010Y52550D01*
X106982Y52506D01*
X106964Y52437D01*
X106937Y52370D01*
X106929Y52299D01*
X106921Y52268D01*
X106923Y52244D01*
X106919Y52203D01*
X106919Y51852D01*
X104993Y49926D01*
X102235Y49926D01*
X102219Y49934D01*
X102177Y49964D01*
X102108Y49985D01*
X102043Y50015D01*
X101991Y50021D01*
X101942Y50037D01*
X101870Y50035D01*
X101799Y50043D01*
X101748Y50031D01*
X101696Y50030D01*
X101628Y50006D01*
X101558Y49990D01*
X101513Y49964D01*
X101465Y49946D01*
X101409Y49901D01*
X101347Y49864D01*
X101313Y49825D01*
X101273Y49792D01*
X101234Y49732D01*
X101187Y49677D01*
X101168Y49629D01*
X101140Y49585D01*
X101122Y49516D01*
X101095Y49449D01*
X101087Y49378D01*
X101079Y49347D01*
X101081Y49323D01*
X101077Y49282D01*
X101077Y48677D01*
X99151Y46751D01*
X96429Y46751D01*
X94503Y48677D01*
X94503Y50435D01*
X94500Y50455D01*
X94502Y50474D01*
X94480Y50576D01*
X94464Y50678D01*
X94454Y50695D01*
X94450Y50715D01*
X94397Y50804D01*
X94348Y50895D01*
X94334Y50909D01*
X94324Y50926D01*
X94245Y50993D01*
X94170Y51065D01*
X94152Y51073D01*
X94137Y51086D01*
X94041Y51125D01*
X93947Y51168D01*
X93927Y51170D01*
X93909Y51178D01*
X93742Y51196D01*
X92619Y51196D01*
X90693Y53122D01*
X90693Y55844D01*
X92619Y57770D01*
X95341Y57770D01*
X97267Y55844D01*
X97267Y54086D01*
X97270Y54066D01*
X97268Y54047D01*
X97290Y53945D01*
X97306Y53843D01*
X97316Y53826D01*
X97320Y53806D01*
X97373Y53717D01*
X97422Y53626D01*
X97436Y53612D01*
X97446Y53595D01*
X97525Y53528D01*
X97600Y53456D01*
X97618Y53448D01*
X97633Y53435D01*
X97729Y53396D01*
X97823Y53353D01*
X97843Y53351D01*
X97861Y53343D01*
X98028Y53325D01*
X99187Y53325D01*
X99203Y53317D01*
X99245Y53287D01*
X99314Y53266D01*
X99379Y53236D01*
X99431Y53230D01*
X99480Y53214D01*
X99552Y53216D01*
X99623Y53208D01*
X99674Y53220D01*
X99726Y53221D01*
X99794Y53245D01*
X99864Y53261D01*
X99909Y53287D01*
X99957Y53305D01*
X100013Y53350D01*
X100075Y53387D01*
X100109Y53426D01*
X100149Y53459D01*
X100188Y53519D01*
X100235Y53574D01*
X100254Y53622D01*
X100282Y53666D01*
X100300Y53735D01*
X100327Y53802D01*
X100335Y53873D01*
X100343Y53904D01*
X100341Y53928D01*
X100345Y53969D01*
X100345Y54574D01*
X102271Y56500D01*
X104993Y56500D01*
X105650Y55843D01*
X105708Y55802D01*
X105760Y55752D01*
X105807Y55730D01*
X105849Y55700D01*
X105918Y55679D01*
X105983Y55649D01*
X106035Y55643D01*
X106085Y55627D01*
X106156Y55629D01*
X106227Y55621D01*
X106278Y55633D01*
X106330Y55634D01*
X106398Y55658D01*
X106468Y55674D01*
X106513Y55700D01*
X106561Y55718D01*
X106617Y55763D01*
X106679Y55800D01*
X106713Y55839D01*
X106753Y55872D01*
X106792Y55932D01*
X106839Y55987D01*
X106858Y56035D01*
X106886Y56079D01*
X106904Y56148D01*
X106931Y56215D01*
X106939Y56286D01*
X106947Y56317D01*
X106945Y56341D01*
X106949Y56382D01*
X106949Y56733D01*
X108875Y58659D01*
X109855Y58659D01*
X109875Y58662D01*
X109894Y58660D01*
X109996Y58682D01*
X110098Y58698D01*
X110115Y58708D01*
X110135Y58712D01*
X110224Y58765D01*
X110315Y58814D01*
X110329Y58828D01*
X110346Y58838D01*
X110413Y58917D01*
X110485Y58992D01*
X110493Y59010D01*
X110506Y59025D01*
X110545Y59121D01*
X110588Y59215D01*
X110590Y59235D01*
X110598Y59253D01*
X110616Y59420D01*
X110616Y65532D01*
X110613Y65552D01*
X110615Y65571D01*
X110593Y65673D01*
X110577Y65775D01*
X110567Y65792D01*
X110563Y65812D01*
X110510Y65901D01*
X110461Y65992D01*
X110447Y66006D01*
X110437Y66023D01*
X110358Y66090D01*
X110283Y66162D01*
X110265Y66170D01*
X110250Y66183D01*
X110154Y66222D01*
X110060Y66265D01*
X110040Y66267D01*
X110022Y66275D01*
X109855Y66293D01*
X80756Y66293D01*
X80736Y66290D01*
X80717Y66292D01*
X80615Y66270D01*
X80513Y66254D01*
X80496Y66244D01*
X80476Y66240D01*
X80387Y66187D01*
X80296Y66138D01*
X80282Y66124D01*
X80265Y66114D01*
X80198Y66035D01*
X80126Y65960D01*
X80118Y65942D01*
X80105Y65927D01*
X80066Y65831D01*
X80023Y65737D01*
X80021Y65717D01*
X80013Y65699D01*
X79995Y65532D01*
X79995Y63155D01*
X78973Y62133D01*
X78962Y62117D01*
X78946Y62105D01*
X78890Y62017D01*
X78830Y61934D01*
X78824Y61915D01*
X78813Y61898D01*
X78788Y61797D01*
X78758Y61698D01*
X78758Y61679D01*
X78753Y61659D01*
X78761Y61556D01*
X78764Y61453D01*
X78771Y61434D01*
X78772Y61414D01*
X78813Y61319D01*
X78848Y61222D01*
X78861Y61206D01*
X78869Y61188D01*
X78973Y61057D01*
X80503Y59527D01*
X80503Y56805D01*
X78577Y54879D01*
X75855Y54879D01*
X73929Y56805D01*
X73929Y59527D01*
X74951Y60549D01*
X74962Y60565D01*
X74978Y60577D01*
X75034Y60665D01*
X75094Y60748D01*
X75100Y60767D01*
X75111Y60784D01*
X75136Y60885D01*
X75166Y60984D01*
X75166Y61003D01*
X75171Y61023D01*
X75163Y61126D01*
X75160Y61229D01*
X75153Y61248D01*
X75152Y61268D01*
X75111Y61363D01*
X75076Y61460D01*
X75063Y61476D01*
X75055Y61494D01*
X74951Y61625D01*
X73436Y63140D01*
X73420Y63151D01*
X73408Y63167D01*
X73320Y63223D01*
X73237Y63283D01*
X73218Y63289D01*
X73201Y63300D01*
X73100Y63325D01*
X73001Y63355D01*
X72982Y63355D01*
X72962Y63360D01*
X72859Y63352D01*
X72756Y63349D01*
X72737Y63342D01*
X72717Y63341D01*
X72622Y63300D01*
X72525Y63265D01*
X72509Y63252D01*
X72491Y63244D01*
X72360Y63140D01*
X71211Y61991D01*
X68489Y61991D01*
X66563Y63917D01*
X66563Y65167D01*
X66560Y65187D01*
X66562Y65206D01*
X66540Y65308D01*
X66524Y65410D01*
X66514Y65427D01*
X66510Y65447D01*
X66457Y65536D01*
X66408Y65627D01*
X66394Y65641D01*
X66384Y65658D01*
X66305Y65725D01*
X66230Y65797D01*
X66212Y65805D01*
X66197Y65818D01*
X66101Y65857D01*
X66007Y65900D01*
X65987Y65902D01*
X65969Y65910D01*
X65802Y65928D01*
X64171Y65928D01*
X62245Y67854D01*
X62245Y70576D01*
X64171Y72502D01*
X66893Y72502D01*
X68819Y70576D01*
X68819Y69326D01*
X68822Y69306D01*
X68820Y69287D01*
X68842Y69185D01*
X68858Y69083D01*
X68868Y69066D01*
X68872Y69046D01*
X68925Y68957D01*
X68974Y68866D01*
X68988Y68852D01*
X68998Y68835D01*
X69077Y68768D01*
X69152Y68696D01*
X69170Y68688D01*
X69185Y68675D01*
X69281Y68636D01*
X69375Y68593D01*
X69395Y68591D01*
X69413Y68583D01*
X69580Y68565D01*
X71211Y68565D01*
X73122Y66654D01*
X73138Y66643D01*
X73150Y66627D01*
X73238Y66571D01*
X73321Y66511D01*
X73340Y66505D01*
X73357Y66494D01*
X73458Y66469D01*
X73557Y66439D01*
X73576Y66439D01*
X73596Y66434D01*
X73699Y66442D01*
X73802Y66445D01*
X73821Y66452D01*
X73841Y66453D01*
X73936Y66494D01*
X74033Y66529D01*
X74049Y66542D01*
X74067Y66550D01*
X74198Y66654D01*
X75214Y67670D01*
X75267Y67744D01*
X75327Y67814D01*
X75339Y67844D01*
X75358Y67870D01*
X75385Y67957D01*
X75419Y68042D01*
X75423Y68083D01*
X75430Y68105D01*
X75429Y68137D01*
X75437Y68209D01*
X75437Y123637D01*
X85786Y133986D01*
X150368Y133986D01*
X150388Y133989D01*
X150407Y133987D01*
X150509Y134009D01*
X150611Y134026D01*
X150628Y134035D01*
X150648Y134039D01*
X150737Y134092D01*
X150828Y134141D01*
X150842Y134155D01*
X150859Y134165D01*
X150926Y134244D01*
X150998Y134319D01*
X151006Y134337D01*
X151019Y134352D01*
X151058Y134448D01*
X151101Y134542D01*
X151103Y134562D01*
X151111Y134580D01*
X151129Y134747D01*
X151129Y164719D01*
X151126Y164739D01*
X151128Y164758D01*
X151106Y164860D01*
X151090Y164962D01*
X151080Y164979D01*
X151076Y164999D01*
X151023Y165088D01*
X150974Y165179D01*
X150960Y165193D01*
X150950Y165210D01*
X150871Y165277D01*
X150796Y165349D01*
X150778Y165357D01*
X150763Y165370D01*
X150667Y165409D01*
X150573Y165452D01*
X150553Y165454D01*
X150535Y165462D01*
X150368Y165480D01*
X50546Y165480D01*
X50526Y165477D01*
X50507Y165479D01*
X50405Y165457D01*
X50303Y165441D01*
X50286Y165431D01*
X50266Y165427D01*
X50177Y165374D01*
X50086Y165325D01*
X50072Y165311D01*
X50055Y165301D01*
X49988Y165222D01*
X49917Y165147D01*
X49908Y165129D01*
X49895Y165114D01*
X49856Y165018D01*
X49813Y164924D01*
X49811Y164904D01*
X49803Y164886D01*
X49785Y164719D01*
X49785Y68072D01*
X49800Y67982D01*
X49807Y67891D01*
X49819Y67861D01*
X49825Y67829D01*
X49867Y67749D01*
X49903Y67665D01*
X49929Y67633D01*
X49940Y67612D01*
X49963Y67590D01*
X49989Y67557D01*
X49990Y67555D01*
X49992Y67554D01*
X50008Y67534D01*
X76678Y40864D01*
X76752Y40811D01*
X76821Y40751D01*
X76851Y40739D01*
X76877Y40720D01*
X76964Y40693D01*
X77049Y40659D01*
X77090Y40655D01*
X77113Y40648D01*
X77145Y40649D01*
X77216Y40641D01*
X109855Y40641D01*
X109875Y40644D01*
G37*
G36*
X166771Y16260D02*
X166771Y16260D01*
X166790Y16258D01*
X166892Y16280D01*
X166994Y16297D01*
X167011Y16306D01*
X167031Y16310D01*
X167120Y16363D01*
X167211Y16412D01*
X167225Y16426D01*
X167242Y16436D01*
X167309Y16515D01*
X167381Y16590D01*
X167389Y16608D01*
X167402Y16623D01*
X167441Y16719D01*
X167484Y16813D01*
X167486Y16833D01*
X167494Y16851D01*
X167512Y17018D01*
X167512Y65151D01*
X167509Y65171D01*
X167511Y65190D01*
X167489Y65292D01*
X167473Y65394D01*
X167463Y65411D01*
X167459Y65431D01*
X167406Y65520D01*
X167357Y65611D01*
X167343Y65625D01*
X167333Y65642D01*
X167254Y65709D01*
X167179Y65781D01*
X167161Y65789D01*
X167146Y65802D01*
X167050Y65841D01*
X166956Y65884D01*
X166936Y65886D01*
X166918Y65894D01*
X166751Y65912D01*
X165364Y65912D01*
X165293Y65901D01*
X165221Y65899D01*
X165172Y65881D01*
X165121Y65873D01*
X165058Y65839D01*
X164990Y65814D01*
X164950Y65782D01*
X164904Y65757D01*
X164854Y65706D01*
X164798Y65661D01*
X164770Y65617D01*
X164734Y65579D01*
X164704Y65514D01*
X164665Y65454D01*
X164653Y65403D01*
X164631Y65356D01*
X164623Y65285D01*
X164605Y65215D01*
X164609Y65163D01*
X164603Y65112D01*
X164619Y65041D01*
X164624Y64970D01*
X164645Y64922D01*
X164656Y64871D01*
X164693Y64810D01*
X164721Y64744D01*
X164765Y64688D01*
X164782Y64660D01*
X164800Y64645D01*
X164825Y64613D01*
X165847Y63591D01*
X165847Y60869D01*
X163921Y58943D01*
X161199Y58943D01*
X159273Y60869D01*
X159273Y63591D01*
X160295Y64613D01*
X160336Y64671D01*
X160386Y64723D01*
X160408Y64770D01*
X160438Y64812D01*
X160459Y64881D01*
X160489Y64946D01*
X160495Y64998D01*
X160510Y65048D01*
X160509Y65119D01*
X160517Y65190D01*
X160505Y65241D01*
X160504Y65293D01*
X160479Y65361D01*
X160464Y65431D01*
X160438Y65475D01*
X160420Y65524D01*
X160375Y65580D01*
X160338Y65642D01*
X160299Y65676D01*
X160266Y65716D01*
X160206Y65755D01*
X160151Y65802D01*
X160103Y65821D01*
X160059Y65849D01*
X159990Y65867D01*
X159923Y65894D01*
X159852Y65902D01*
X159821Y65910D01*
X159797Y65908D01*
X159756Y65912D01*
X112776Y65912D01*
X112756Y65909D01*
X112737Y65911D01*
X112635Y65889D01*
X112533Y65873D01*
X112516Y65863D01*
X112496Y65859D01*
X112407Y65806D01*
X112316Y65757D01*
X112302Y65743D01*
X112285Y65733D01*
X112218Y65654D01*
X112147Y65579D01*
X112138Y65561D01*
X112125Y65546D01*
X112086Y65450D01*
X112043Y65356D01*
X112041Y65336D01*
X112033Y65318D01*
X112015Y65151D01*
X112015Y58557D01*
X112030Y58467D01*
X112037Y58376D01*
X112049Y58346D01*
X112055Y58314D01*
X112097Y58233D01*
X112133Y58149D01*
X112159Y58117D01*
X112170Y58097D01*
X112193Y58074D01*
X112238Y58018D01*
X113523Y56733D01*
X113523Y54011D01*
X112238Y52726D01*
X112185Y52652D01*
X112125Y52582D01*
X112113Y52552D01*
X112094Y52526D01*
X112067Y52439D01*
X112033Y52354D01*
X112029Y52313D01*
X112022Y52291D01*
X112023Y52259D01*
X112015Y52187D01*
X112015Y38988D01*
X75626Y38988D01*
X46862Y67752D01*
X46862Y117602D01*
X46859Y117622D01*
X46861Y117641D01*
X46839Y117743D01*
X46823Y117845D01*
X46813Y117862D01*
X46809Y117882D01*
X46756Y117971D01*
X46707Y118062D01*
X46693Y118076D01*
X46683Y118093D01*
X46604Y118160D01*
X46529Y118232D01*
X46511Y118240D01*
X46496Y118253D01*
X46400Y118292D01*
X46306Y118335D01*
X46286Y118337D01*
X46268Y118345D01*
X46101Y118363D01*
X24638Y118363D01*
X24618Y118360D01*
X24599Y118362D01*
X24497Y118340D01*
X24395Y118324D01*
X24378Y118314D01*
X24358Y118310D01*
X24269Y118257D01*
X24178Y118208D01*
X24164Y118194D01*
X24147Y118184D01*
X24080Y118105D01*
X24009Y118030D01*
X24000Y118012D01*
X23987Y117997D01*
X23948Y117901D01*
X23905Y117807D01*
X23903Y117787D01*
X23895Y117769D01*
X23877Y117602D01*
X23877Y99042D01*
X23892Y98952D01*
X23899Y98861D01*
X23911Y98831D01*
X23917Y98800D01*
X23959Y98719D01*
X23995Y98635D01*
X24021Y98603D01*
X24032Y98582D01*
X24055Y98560D01*
X24100Y98504D01*
X25254Y97350D01*
X25254Y94420D01*
X24100Y93266D01*
X24047Y93192D01*
X23987Y93123D01*
X23975Y93092D01*
X23956Y93066D01*
X23929Y92979D01*
X23895Y92894D01*
X23891Y92854D01*
X23884Y92831D01*
X23885Y92799D01*
X23877Y92728D01*
X23877Y78105D01*
X23892Y78015D01*
X23899Y77924D01*
X23911Y77894D01*
X23917Y77862D01*
X23959Y77782D01*
X23995Y77698D01*
X24021Y77666D01*
X24032Y77645D01*
X24055Y77623D01*
X24100Y77567D01*
X85187Y16480D01*
X85261Y16427D01*
X85330Y16367D01*
X85360Y16355D01*
X85386Y16336D01*
X85473Y16309D01*
X85558Y16275D01*
X85599Y16271D01*
X85622Y16264D01*
X85654Y16265D01*
X85725Y16257D01*
X166751Y16257D01*
X166771Y16260D01*
G37*
G36*
X81859Y16141D02*
X81859Y16141D01*
X81930Y16143D01*
X81979Y16161D01*
X82031Y16170D01*
X82094Y16203D01*
X82161Y16228D01*
X82202Y16260D01*
X82248Y16285D01*
X82297Y16336D01*
X82353Y16381D01*
X82382Y16425D01*
X82418Y16463D01*
X82448Y16528D01*
X82486Y16588D01*
X82499Y16639D01*
X82521Y16686D01*
X82529Y16757D01*
X82547Y16827D01*
X82542Y16879D01*
X82548Y16930D01*
X82533Y17001D01*
X82527Y17072D01*
X82507Y17120D01*
X82496Y17171D01*
X82459Y17232D01*
X82431Y17298D01*
X82386Y17354D01*
X82370Y17382D01*
X82352Y17397D01*
X82326Y17429D01*
X21081Y78674D01*
X21081Y91587D01*
X21078Y91607D01*
X21080Y91626D01*
X21058Y91728D01*
X21042Y91830D01*
X21032Y91847D01*
X21028Y91867D01*
X20975Y91956D01*
X20926Y92047D01*
X20912Y92061D01*
X20902Y92078D01*
X20823Y92145D01*
X20748Y92217D01*
X20730Y92225D01*
X20715Y92238D01*
X20619Y92277D01*
X20525Y92320D01*
X20505Y92322D01*
X20487Y92330D01*
X20320Y92348D01*
X20252Y92348D01*
X18180Y94420D01*
X18180Y97350D01*
X20252Y99422D01*
X20320Y99422D01*
X20340Y99425D01*
X20359Y99423D01*
X20461Y99445D01*
X20563Y99461D01*
X20580Y99471D01*
X20600Y99475D01*
X20689Y99528D01*
X20780Y99577D01*
X20794Y99591D01*
X20811Y99601D01*
X20878Y99680D01*
X20950Y99755D01*
X20958Y99773D01*
X20971Y99788D01*
X21010Y99884D01*
X21053Y99978D01*
X21055Y99998D01*
X21063Y100016D01*
X21081Y100183D01*
X21081Y121286D01*
X44831Y121286D01*
X44851Y121289D01*
X44870Y121287D01*
X44972Y121309D01*
X45074Y121326D01*
X45091Y121335D01*
X45111Y121339D01*
X45200Y121392D01*
X45291Y121441D01*
X45305Y121455D01*
X45322Y121465D01*
X45389Y121544D01*
X45461Y121619D01*
X45469Y121637D01*
X45482Y121652D01*
X45521Y121748D01*
X45564Y121842D01*
X45566Y121862D01*
X45574Y121880D01*
X45592Y122047D01*
X45592Y164846D01*
X45589Y164866D01*
X45591Y164885D01*
X45569Y164987D01*
X45553Y165089D01*
X45543Y165106D01*
X45539Y165126D01*
X45486Y165215D01*
X45437Y165306D01*
X45423Y165320D01*
X45413Y165337D01*
X45334Y165404D01*
X45259Y165476D01*
X45241Y165484D01*
X45226Y165497D01*
X45130Y165536D01*
X45036Y165579D01*
X45016Y165581D01*
X44998Y165589D01*
X44831Y165607D01*
X15254Y165607D01*
X15207Y165600D01*
X15201Y165600D01*
X15183Y165597D01*
X15123Y165596D01*
X15044Y165573D01*
X15011Y165568D01*
X14994Y165558D01*
X14962Y165549D01*
X14948Y165543D01*
X14849Y165482D01*
X14848Y165481D01*
X14794Y165452D01*
X14786Y165444D01*
X14749Y165422D01*
X14745Y165417D01*
X14739Y165413D01*
X14665Y165324D01*
X14589Y165235D01*
X14587Y165229D01*
X14582Y165224D01*
X14541Y165116D01*
X14497Y165007D01*
X14496Y164999D01*
X14494Y164994D01*
X14494Y164975D01*
X14479Y164840D01*
X14479Y89545D01*
X14494Y89455D01*
X14501Y89364D01*
X14513Y89334D01*
X14519Y89302D01*
X14561Y89221D01*
X14597Y89137D01*
X14623Y89105D01*
X14634Y89085D01*
X14657Y89062D01*
X14702Y89006D01*
X14717Y88991D01*
X14717Y86269D01*
X14702Y86254D01*
X14649Y86180D01*
X14589Y86110D01*
X14577Y86080D01*
X14558Y86054D01*
X14531Y85967D01*
X14497Y85882D01*
X14493Y85841D01*
X14486Y85819D01*
X14487Y85787D01*
X14479Y85715D01*
X14479Y64145D01*
X14494Y64055D01*
X14501Y63964D01*
X14513Y63934D01*
X14519Y63902D01*
X14561Y63821D01*
X14597Y63737D01*
X14623Y63705D01*
X14634Y63685D01*
X14657Y63662D01*
X14702Y63606D01*
X14717Y63591D01*
X14717Y60869D01*
X14702Y60854D01*
X14649Y60780D01*
X14589Y60710D01*
X14577Y60680D01*
X14558Y60654D01*
X14531Y60567D01*
X14497Y60482D01*
X14493Y60441D01*
X14486Y60419D01*
X14487Y60387D01*
X14479Y60315D01*
X14479Y16891D01*
X14482Y16871D01*
X14480Y16852D01*
X14502Y16750D01*
X14519Y16648D01*
X14528Y16631D01*
X14532Y16611D01*
X14585Y16522D01*
X14634Y16431D01*
X14648Y16417D01*
X14658Y16400D01*
X14737Y16333D01*
X14812Y16262D01*
X14830Y16253D01*
X14845Y16240D01*
X14941Y16201D01*
X15035Y16158D01*
X15055Y16156D01*
X15073Y16148D01*
X15240Y16130D01*
X81788Y16130D01*
X81859Y16141D01*
G37*
%LPC*%
G36*
X62774Y88407D02*
X62774Y88407D01*
X60848Y90333D01*
X60848Y93055D01*
X62774Y94981D01*
X64405Y94981D01*
X64425Y94984D01*
X64444Y94982D01*
X64546Y95004D01*
X64648Y95020D01*
X64665Y95030D01*
X64685Y95034D01*
X64774Y95087D01*
X64865Y95136D01*
X64879Y95150D01*
X64896Y95160D01*
X64963Y95239D01*
X65035Y95314D01*
X65043Y95332D01*
X65056Y95347D01*
X65095Y95443D01*
X65138Y95537D01*
X65140Y95557D01*
X65148Y95575D01*
X65166Y95742D01*
X65166Y97044D01*
X65163Y97064D01*
X65165Y97083D01*
X65143Y97185D01*
X65127Y97287D01*
X65117Y97304D01*
X65113Y97324D01*
X65060Y97413D01*
X65011Y97504D01*
X64997Y97518D01*
X64987Y97535D01*
X64908Y97602D01*
X64833Y97674D01*
X64815Y97682D01*
X64800Y97695D01*
X64704Y97734D01*
X64610Y97777D01*
X64590Y97779D01*
X64572Y97787D01*
X64405Y97805D01*
X62901Y97805D01*
X60975Y99731D01*
X60975Y102453D01*
X62901Y104379D01*
X63897Y104379D01*
X63917Y104382D01*
X63936Y104380D01*
X64038Y104402D01*
X64140Y104418D01*
X64157Y104428D01*
X64177Y104432D01*
X64266Y104485D01*
X64357Y104534D01*
X64371Y104548D01*
X64388Y104558D01*
X64455Y104637D01*
X64527Y104712D01*
X64535Y104730D01*
X64548Y104745D01*
X64587Y104841D01*
X64630Y104935D01*
X64632Y104955D01*
X64640Y104973D01*
X64658Y105140D01*
X64658Y107204D01*
X64655Y107224D01*
X64657Y107243D01*
X64635Y107345D01*
X64619Y107447D01*
X64609Y107464D01*
X64605Y107484D01*
X64552Y107573D01*
X64503Y107664D01*
X64489Y107678D01*
X64479Y107695D01*
X64400Y107762D01*
X64325Y107834D01*
X64307Y107842D01*
X64292Y107855D01*
X64196Y107894D01*
X64102Y107937D01*
X64082Y107939D01*
X64064Y107947D01*
X63897Y107965D01*
X63282Y107965D01*
X61356Y109891D01*
X61356Y112613D01*
X63282Y114539D01*
X64151Y114539D01*
X64171Y114542D01*
X64190Y114540D01*
X64292Y114562D01*
X64394Y114578D01*
X64411Y114588D01*
X64431Y114592D01*
X64520Y114645D01*
X64611Y114694D01*
X64625Y114708D01*
X64642Y114718D01*
X64709Y114797D01*
X64781Y114872D01*
X64789Y114890D01*
X64802Y114905D01*
X64841Y115001D01*
X64884Y115095D01*
X64886Y115115D01*
X64894Y115133D01*
X64912Y115300D01*
X64912Y116348D01*
X64909Y116368D01*
X64911Y116387D01*
X64889Y116489D01*
X64873Y116591D01*
X64863Y116608D01*
X64859Y116628D01*
X64806Y116717D01*
X64757Y116808D01*
X64743Y116822D01*
X64733Y116839D01*
X64654Y116906D01*
X64579Y116978D01*
X64561Y116986D01*
X64546Y116999D01*
X64450Y117038D01*
X64356Y117081D01*
X64336Y117083D01*
X64318Y117091D01*
X64151Y117109D01*
X63028Y117109D01*
X61102Y119035D01*
X61102Y121757D01*
X63028Y123683D01*
X64024Y123683D01*
X64044Y123686D01*
X64063Y123684D01*
X64165Y123706D01*
X64267Y123722D01*
X64284Y123732D01*
X64304Y123736D01*
X64393Y123789D01*
X64484Y123838D01*
X64498Y123852D01*
X64515Y123862D01*
X64582Y123941D01*
X64654Y124016D01*
X64662Y124034D01*
X64675Y124049D01*
X64714Y124145D01*
X64757Y124239D01*
X64759Y124259D01*
X64767Y124277D01*
X64785Y124444D01*
X64785Y127218D01*
X66711Y129144D01*
X69433Y129144D01*
X71359Y127218D01*
X71359Y124496D01*
X69433Y122570D01*
X68437Y122570D01*
X68417Y122567D01*
X68398Y122569D01*
X68296Y122547D01*
X68194Y122531D01*
X68177Y122521D01*
X68157Y122517D01*
X68068Y122464D01*
X67977Y122415D01*
X67963Y122401D01*
X67946Y122391D01*
X67879Y122312D01*
X67807Y122237D01*
X67799Y122219D01*
X67786Y122204D01*
X67747Y122108D01*
X67704Y122014D01*
X67702Y121994D01*
X67694Y121976D01*
X67676Y121809D01*
X67676Y119872D01*
X67679Y119852D01*
X67677Y119833D01*
X67699Y119731D01*
X67715Y119629D01*
X67725Y119612D01*
X67729Y119592D01*
X67782Y119503D01*
X67831Y119412D01*
X67845Y119398D01*
X67855Y119381D01*
X67934Y119314D01*
X68009Y119242D01*
X68027Y119234D01*
X68042Y119221D01*
X68138Y119182D01*
X68232Y119139D01*
X68252Y119137D01*
X68270Y119129D01*
X68437Y119111D01*
X69560Y119111D01*
X71486Y117185D01*
X71486Y114463D01*
X69560Y112537D01*
X68691Y112537D01*
X68671Y112534D01*
X68652Y112536D01*
X68550Y112514D01*
X68448Y112498D01*
X68431Y112488D01*
X68411Y112484D01*
X68322Y112431D01*
X68231Y112382D01*
X68217Y112368D01*
X68200Y112358D01*
X68133Y112279D01*
X68061Y112204D01*
X68053Y112186D01*
X68040Y112171D01*
X68001Y112075D01*
X67958Y111981D01*
X67956Y111961D01*
X67948Y111943D01*
X67930Y111776D01*
X67930Y109966D01*
X67933Y109946D01*
X67931Y109927D01*
X67953Y109825D01*
X67969Y109723D01*
X67979Y109706D01*
X67983Y109686D01*
X68036Y109597D01*
X68085Y109506D01*
X68099Y109492D01*
X68109Y109475D01*
X68188Y109408D01*
X68263Y109336D01*
X68281Y109328D01*
X68296Y109315D01*
X68392Y109276D01*
X68486Y109233D01*
X68506Y109231D01*
X68524Y109223D01*
X68691Y109205D01*
X69306Y109205D01*
X71232Y107279D01*
X71232Y104557D01*
X69306Y102631D01*
X68310Y102631D01*
X68290Y102628D01*
X68271Y102630D01*
X68169Y102608D01*
X68067Y102592D01*
X68050Y102582D01*
X68030Y102578D01*
X67941Y102525D01*
X67850Y102476D01*
X67836Y102462D01*
X67819Y102452D01*
X67752Y102373D01*
X67680Y102298D01*
X67672Y102280D01*
X67659Y102265D01*
X67620Y102169D01*
X67577Y102075D01*
X67575Y102055D01*
X67567Y102037D01*
X67549Y101870D01*
X67549Y100187D01*
X67552Y100167D01*
X67550Y100148D01*
X67572Y100046D01*
X67588Y99944D01*
X67598Y99927D01*
X67602Y99907D01*
X67655Y99818D01*
X67704Y99727D01*
X67718Y99713D01*
X67728Y99696D01*
X67807Y99629D01*
X67882Y99557D01*
X67900Y99549D01*
X67915Y99536D01*
X68011Y99497D01*
X68105Y99454D01*
X68125Y99452D01*
X68143Y99444D01*
X68310Y99426D01*
X69814Y99426D01*
X71740Y97500D01*
X71740Y94778D01*
X69814Y92852D01*
X68183Y92852D01*
X68163Y92849D01*
X68144Y92851D01*
X68042Y92829D01*
X67940Y92813D01*
X67923Y92803D01*
X67903Y92799D01*
X67814Y92746D01*
X67723Y92697D01*
X67709Y92683D01*
X67692Y92673D01*
X67625Y92594D01*
X67553Y92519D01*
X67545Y92501D01*
X67532Y92486D01*
X67493Y92390D01*
X67450Y92296D01*
X67448Y92276D01*
X67440Y92258D01*
X67422Y92091D01*
X67422Y90333D01*
X65496Y88407D01*
X62774Y88407D01*
G37*
%LPD*%
%LPC*%
G36*
X106970Y137556D02*
X106970Y137556D01*
X105044Y139482D01*
X105044Y140224D01*
X105041Y140244D01*
X105043Y140263D01*
X105021Y140365D01*
X105005Y140467D01*
X104995Y140484D01*
X104991Y140504D01*
X104938Y140593D01*
X104889Y140684D01*
X104875Y140698D01*
X104865Y140715D01*
X104786Y140782D01*
X104711Y140854D01*
X104693Y140862D01*
X104678Y140875D01*
X104582Y140914D01*
X104488Y140957D01*
X104468Y140959D01*
X104450Y140967D01*
X104283Y140985D01*
X102473Y140985D01*
X102453Y140982D01*
X102434Y140984D01*
X102332Y140962D01*
X102230Y140946D01*
X102213Y140936D01*
X102193Y140932D01*
X102104Y140879D01*
X102013Y140830D01*
X101999Y140816D01*
X101982Y140806D01*
X101915Y140727D01*
X101843Y140652D01*
X101835Y140634D01*
X101822Y140619D01*
X101783Y140523D01*
X101740Y140429D01*
X101738Y140409D01*
X101730Y140391D01*
X101712Y140224D01*
X101712Y139863D01*
X99786Y137937D01*
X97064Y137937D01*
X95138Y139863D01*
X95138Y142585D01*
X97064Y144511D01*
X99584Y144511D01*
X99604Y144514D01*
X99623Y144512D01*
X99725Y144534D01*
X99827Y144550D01*
X99844Y144560D01*
X99864Y144564D01*
X99953Y144617D01*
X100044Y144666D01*
X100058Y144680D01*
X100075Y144690D01*
X100142Y144769D01*
X100214Y144844D01*
X100222Y144862D01*
X100235Y144877D01*
X100274Y144973D01*
X100317Y145067D01*
X100319Y145087D01*
X100327Y145105D01*
X100345Y145272D01*
X100345Y145633D01*
X102271Y147559D01*
X104993Y147559D01*
X106919Y145633D01*
X106919Y144891D01*
X106922Y144871D01*
X106920Y144852D01*
X106942Y144750D01*
X106958Y144648D01*
X106968Y144631D01*
X106972Y144611D01*
X107025Y144522D01*
X107074Y144431D01*
X107088Y144417D01*
X107098Y144400D01*
X107177Y144333D01*
X107252Y144261D01*
X107270Y144253D01*
X107285Y144240D01*
X107381Y144201D01*
X107475Y144158D01*
X107495Y144156D01*
X107513Y144148D01*
X107680Y144130D01*
X109490Y144130D01*
X109510Y144133D01*
X109529Y144131D01*
X109631Y144153D01*
X109733Y144169D01*
X109750Y144179D01*
X109770Y144183D01*
X109859Y144236D01*
X109950Y144285D01*
X109964Y144299D01*
X109981Y144309D01*
X110048Y144388D01*
X110120Y144463D01*
X110128Y144481D01*
X110141Y144496D01*
X110180Y144592D01*
X110223Y144686D01*
X110225Y144706D01*
X110233Y144724D01*
X110251Y144891D01*
X110251Y146014D01*
X112177Y147940D01*
X114899Y147940D01*
X116825Y146014D01*
X116825Y145018D01*
X116828Y144998D01*
X116826Y144979D01*
X116848Y144877D01*
X116864Y144775D01*
X116874Y144758D01*
X116878Y144738D01*
X116931Y144649D01*
X116980Y144558D01*
X116994Y144544D01*
X117004Y144527D01*
X117083Y144460D01*
X117158Y144388D01*
X117176Y144380D01*
X117191Y144367D01*
X117287Y144328D01*
X117381Y144285D01*
X117401Y144283D01*
X117419Y144275D01*
X117586Y144257D01*
X119269Y144257D01*
X119289Y144260D01*
X119308Y144258D01*
X119410Y144280D01*
X119512Y144296D01*
X119529Y144306D01*
X119549Y144310D01*
X119638Y144363D01*
X119729Y144412D01*
X119743Y144426D01*
X119760Y144436D01*
X119827Y144515D01*
X119899Y144590D01*
X119907Y144608D01*
X119920Y144623D01*
X119959Y144719D01*
X120002Y144813D01*
X120004Y144833D01*
X120012Y144851D01*
X120030Y145018D01*
X120030Y145887D01*
X121956Y147813D01*
X124678Y147813D01*
X126604Y145887D01*
X126604Y145272D01*
X126607Y145252D01*
X126605Y145233D01*
X126627Y145131D01*
X126643Y145029D01*
X126653Y145012D01*
X126657Y144992D01*
X126710Y144903D01*
X126759Y144812D01*
X126773Y144798D01*
X126783Y144781D01*
X126862Y144714D01*
X126937Y144642D01*
X126955Y144634D01*
X126970Y144621D01*
X127066Y144582D01*
X127160Y144539D01*
X127180Y144537D01*
X127198Y144529D01*
X127365Y144511D01*
X129781Y144511D01*
X129782Y144510D01*
X129881Y144480D01*
X129901Y144481D01*
X129920Y144476D01*
X130023Y144484D01*
X130127Y144486D01*
X130146Y144493D01*
X130166Y144495D01*
X130260Y144535D01*
X130358Y144571D01*
X130374Y144583D01*
X130392Y144591D01*
X130523Y144696D01*
X132370Y146543D01*
X135092Y146543D01*
X137018Y144617D01*
X137018Y141895D01*
X135092Y139969D01*
X132220Y139969D01*
X132219Y139969D01*
X132120Y140000D01*
X132100Y139999D01*
X132081Y140004D01*
X131978Y139996D01*
X131874Y139994D01*
X131855Y139987D01*
X131836Y139985D01*
X131741Y139945D01*
X131643Y139909D01*
X131628Y139897D01*
X131609Y139889D01*
X131478Y139784D01*
X129631Y137937D01*
X126909Y137937D01*
X124983Y139863D01*
X124983Y140478D01*
X124980Y140498D01*
X124982Y140517D01*
X124960Y140619D01*
X124944Y140721D01*
X124934Y140738D01*
X124930Y140758D01*
X124877Y140847D01*
X124828Y140938D01*
X124814Y140952D01*
X124804Y140969D01*
X124725Y141036D01*
X124650Y141108D01*
X124632Y141116D01*
X124617Y141129D01*
X124521Y141168D01*
X124427Y141211D01*
X124407Y141213D01*
X124389Y141221D01*
X124222Y141239D01*
X122158Y141239D01*
X122138Y141236D01*
X122119Y141238D01*
X122017Y141216D01*
X121915Y141200D01*
X121898Y141190D01*
X121878Y141186D01*
X121789Y141133D01*
X121698Y141084D01*
X121684Y141070D01*
X121667Y141060D01*
X121600Y140981D01*
X121528Y140906D01*
X121520Y140888D01*
X121507Y140873D01*
X121468Y140777D01*
X121425Y140683D01*
X121423Y140663D01*
X121415Y140645D01*
X121397Y140478D01*
X121397Y139609D01*
X119471Y137683D01*
X116749Y137683D01*
X114823Y139609D01*
X114823Y140605D01*
X114820Y140625D01*
X114822Y140644D01*
X114800Y140746D01*
X114784Y140848D01*
X114774Y140865D01*
X114770Y140885D01*
X114717Y140974D01*
X114668Y141065D01*
X114654Y141079D01*
X114644Y141096D01*
X114565Y141163D01*
X114490Y141235D01*
X114472Y141243D01*
X114457Y141256D01*
X114361Y141295D01*
X114267Y141338D01*
X114247Y141340D01*
X114229Y141348D01*
X114062Y141366D01*
X112379Y141366D01*
X112359Y141363D01*
X112340Y141365D01*
X112238Y141343D01*
X112136Y141327D01*
X112119Y141317D01*
X112099Y141313D01*
X112010Y141260D01*
X111919Y141211D01*
X111905Y141197D01*
X111888Y141187D01*
X111821Y141108D01*
X111749Y141033D01*
X111741Y141015D01*
X111728Y141000D01*
X111689Y140904D01*
X111646Y140810D01*
X111644Y140790D01*
X111636Y140772D01*
X111618Y140605D01*
X111618Y139482D01*
X109692Y137556D01*
X106970Y137556D01*
G37*
%LPD*%
%LPC*%
G36*
X63170Y133730D02*
X63170Y133730D01*
X61086Y135814D01*
X61086Y138760D01*
X63170Y140844D01*
X66116Y140844D01*
X68200Y138760D01*
X68200Y135814D01*
X66116Y133730D01*
X63170Y133730D01*
G37*
%LPD*%
%LPC*%
G36*
X36381Y46120D02*
X36381Y46120D01*
X34309Y48192D01*
X34309Y51122D01*
X36381Y53194D01*
X39311Y53194D01*
X41383Y51122D01*
X41383Y48192D01*
X39311Y46120D01*
X36381Y46120D01*
G37*
%LPD*%
%LPC*%
G36*
X22665Y39643D02*
X22665Y39643D01*
X20593Y41715D01*
X20593Y44645D01*
X22665Y46717D01*
X25595Y46717D01*
X27667Y44645D01*
X27667Y41715D01*
X25595Y39643D01*
X22665Y39643D01*
G37*
%LPD*%
%LPC*%
G36*
X34857Y23641D02*
X34857Y23641D01*
X32785Y25713D01*
X32785Y28643D01*
X34857Y30715D01*
X37787Y30715D01*
X39859Y28643D01*
X39859Y25713D01*
X37787Y23641D01*
X34857Y23641D01*
G37*
%LPD*%
%LPC*%
G36*
X19467Y136159D02*
X19467Y136159D01*
X17541Y138085D01*
X17541Y140807D01*
X19467Y142733D01*
X22189Y142733D01*
X24115Y140807D01*
X24115Y138085D01*
X22189Y136159D01*
X19467Y136159D01*
G37*
%LPD*%
%LPC*%
G36*
X76236Y129682D02*
X76236Y129682D01*
X74310Y131608D01*
X74310Y134330D01*
X76236Y136256D01*
X78958Y136256D01*
X80884Y134330D01*
X80884Y131608D01*
X78958Y129682D01*
X76236Y129682D01*
G37*
%LPD*%
%LPC*%
G36*
X19086Y124729D02*
X19086Y124729D01*
X17160Y126655D01*
X17160Y129377D01*
X19086Y131303D01*
X21808Y131303D01*
X23734Y129377D01*
X23734Y126655D01*
X21808Y124729D01*
X19086Y124729D01*
G37*
%LPD*%
%LPC*%
G36*
X161199Y50053D02*
X161199Y50053D01*
X159273Y51979D01*
X159273Y54701D01*
X161199Y56627D01*
X163921Y56627D01*
X165847Y54701D01*
X165847Y51979D01*
X163921Y50053D01*
X161199Y50053D01*
G37*
%LPD*%
%LPC*%
G36*
X84491Y49164D02*
X84491Y49164D01*
X82565Y51090D01*
X82565Y53812D01*
X84491Y55738D01*
X87213Y55738D01*
X89139Y53812D01*
X89139Y51090D01*
X87213Y49164D01*
X84491Y49164D01*
G37*
%LPD*%
%LPC*%
G36*
X161199Y37353D02*
X161199Y37353D01*
X159273Y39279D01*
X159273Y42001D01*
X161199Y43927D01*
X163921Y43927D01*
X165847Y42001D01*
X165847Y39279D01*
X163921Y37353D01*
X161199Y37353D01*
G37*
%LPD*%
%LPC*%
G36*
X148753Y36083D02*
X148753Y36083D01*
X146827Y38009D01*
X146827Y40731D01*
X148753Y42657D01*
X151475Y42657D01*
X153401Y40731D01*
X153401Y38009D01*
X151475Y36083D01*
X148753Y36083D01*
G37*
%LPD*%
%LPC*%
G36*
X94016Y29098D02*
X94016Y29098D01*
X92090Y31024D01*
X92090Y33746D01*
X94016Y35672D01*
X96738Y35672D01*
X98664Y33746D01*
X98664Y31024D01*
X96738Y29098D01*
X94016Y29098D01*
G37*
%LPD*%
%LPC*%
G36*
X117003Y23510D02*
X117003Y23510D01*
X115077Y25436D01*
X115077Y28158D01*
X117003Y30084D01*
X119725Y30084D01*
X121651Y28158D01*
X121651Y25436D01*
X119725Y23510D01*
X117003Y23510D01*
G37*
%LPD*%
%LPC*%
G36*
X94016Y20208D02*
X94016Y20208D01*
X92090Y22134D01*
X92090Y24856D01*
X94016Y26782D01*
X96738Y26782D01*
X98664Y24856D01*
X98664Y22134D01*
X96738Y20208D01*
X94016Y20208D01*
G37*
%LPD*%
%LPC*%
G36*
X147610Y19065D02*
X147610Y19065D01*
X145684Y20991D01*
X145684Y23713D01*
X147610Y25639D01*
X150332Y25639D01*
X152258Y23713D01*
X152258Y20991D01*
X150332Y19065D01*
X147610Y19065D01*
G37*
%LPD*%
D10*
X112903Y6096D03*
X125603Y6096D03*
X138303Y6096D03*
X151003Y6096D03*
X163703Y6096D03*
X100203Y6096D03*
X87503Y6096D03*
X74803Y6096D03*
X62103Y6096D03*
X49403Y6096D03*
X36703Y6096D03*
X24003Y6096D03*
X11303Y6096D03*
X112903Y172466D03*
X125603Y172466D03*
X138303Y172466D03*
X151003Y172466D03*
X163703Y172466D03*
X100203Y172466D03*
X87503Y172466D03*
X74803Y172466D03*
X62103Y172466D03*
X49403Y172466D03*
X36703Y172466D03*
X24003Y172466D03*
X11303Y172466D03*
X3048Y82804D03*
X3048Y70104D03*
X3048Y57404D03*
X3048Y44704D03*
X3048Y32004D03*
X3048Y95504D03*
X3048Y108204D03*
X3048Y120904D03*
X3048Y133604D03*
X3048Y146304D03*
D11*
X65532Y69215D03*
D12*
X117865Y40014D03*
X149606Y63119D03*
X34925Y96012D03*
X29591Y96012D03*
X40259Y96012D03*
X66675Y148844D03*
X65532Y57277D03*
X69215Y53340D03*
X95631Y44323D03*
X66675Y143129D03*
D13*
X143891Y144399D03*
X87249Y155194D03*
D12*
X124206Y111887D03*
X110871Y98552D03*
X97536Y111887D03*
X110871Y111887D03*
X124206Y98552D03*
X124206Y85217D03*
X110871Y85217D03*
X97536Y85217D03*
X97536Y98552D03*
D11*
X163830Y129921D03*
D12*
X64643Y137287D03*
D11*
X95377Y32385D03*
X150114Y39370D03*
D12*
X97536Y122301D03*
X110490Y122428D03*
X124206Y122301D03*
X97409Y74676D03*
X110871Y74676D03*
X124460Y74676D03*
D11*
X204470Y54610D03*
D13*
X36322Y27178D03*
X37846Y49657D03*
X21717Y95885D03*
D11*
X190500Y135890D03*
X162560Y62230D03*
X162560Y53340D03*
X162560Y40640D03*
X190500Y162560D03*
X190500Y154940D03*
X190500Y148590D03*
X190500Y142240D03*
X7620Y156210D03*
X6350Y17780D03*
X11430Y87630D03*
X11430Y62230D03*
X20828Y139446D03*
X20447Y128016D03*
X118364Y26797D03*
X148971Y22352D03*
X187960Y41656D03*
D12*
X87376Y122301D03*
X87376Y111887D03*
X87376Y98552D03*
X87376Y85217D03*
X87249Y74676D03*
X134366Y122301D03*
X134366Y111887D03*
D11*
X231140Y74930D03*
X231140Y82550D03*
X231140Y91440D03*
X223520Y91440D03*
X223520Y82550D03*
X223520Y74930D03*
X204470Y63500D03*
X195580Y48260D03*
X187960Y48260D03*
X187960Y54610D03*
X195580Y54610D03*
X223520Y99060D03*
X231140Y99060D03*
X95377Y23495D03*
X187960Y34036D03*
X187960Y26416D03*
X187960Y18796D03*
X187960Y11176D03*
X200660Y36576D03*
X200660Y28956D03*
X200660Y21336D03*
X228600Y28956D03*
X228600Y36576D03*
X228600Y21336D03*
X195707Y11176D03*
X231140Y11176D03*
X223520Y67310D03*
X223520Y59690D03*
X223520Y52070D03*
X204470Y48260D03*
X231140Y67310D03*
X231140Y59690D03*
X231140Y52070D03*
X215900Y82550D03*
X215900Y91440D03*
X215900Y99060D03*
X208280Y99060D03*
X199390Y99060D03*
X190500Y114427D03*
X190500Y106680D03*
X190500Y99060D03*
X223647Y11176D03*
X177800Y99060D03*
X179070Y106680D03*
X179070Y114427D03*
X168910Y99060D03*
X168910Y106680D03*
X169037Y114427D03*
X190500Y92710D03*
X190500Y85090D03*
X195580Y63500D03*
X187960Y63500D03*
X203454Y11303D03*
X190373Y129032D03*
X172593Y168148D03*
X180594Y168275D03*
D12*
X40005Y129921D03*
X34417Y129794D03*
D11*
X75057Y19304D03*
X221361Y130810D03*
X221234Y161671D03*
X68072Y125857D03*
X77597Y132969D03*
X153416Y96139D03*
X156591Y100965D03*
X153543Y105918D03*
X156718Y111252D03*
X225552Y145034D03*
X153543Y116078D03*
X225425Y151511D03*
X155702Y121920D03*
X133731Y143256D03*
X128270Y141224D03*
X123317Y144526D03*
X118110Y140970D03*
X113538Y144653D03*
X108331Y140843D03*
D13*
X24130Y43180D03*
D11*
X103632Y144272D03*
X98425Y141224D03*
X64389Y120396D03*
X68199Y115824D03*
X64643Y111252D03*
X67945Y105918D03*
X64262Y101092D03*
X68453Y96139D03*
X64135Y91694D03*
X69850Y65278D03*
X76708Y64516D03*
X77216Y58166D03*
X85852Y52451D03*
X93980Y54483D03*
X97790Y50038D03*
X103632Y53213D03*
X110236Y55372D03*
X156591Y91059D03*
X153670Y127381D03*
M02*
