G04 EAGLE Gerber RS-274X export*
G75*
%MOMM*%
%FSLAX34Y34*%
%LPD*%
%INCopper Layer 2*%
%IPPOS*%
%AMOC8*
5,1,8,0,0,1.08239X$1,22.5*%
G01*
%ADD10C,1.050000*%
%ADD11C,0.403200*%
%ADD12C,0.457200*%
%ADD13C,0.453200*%
%ADD14C,0.152400*%

G36*
X233878Y7573D02*
X233878Y7573D01*
X233897Y7571D01*
X233999Y7593D01*
X234101Y7609D01*
X234118Y7619D01*
X234138Y7623D01*
X234227Y7676D01*
X234318Y7725D01*
X234332Y7739D01*
X234349Y7749D01*
X234416Y7828D01*
X234488Y7903D01*
X234496Y7921D01*
X234509Y7936D01*
X234548Y8032D01*
X234591Y8126D01*
X234593Y8146D01*
X234601Y8164D01*
X234619Y8331D01*
X234619Y170485D01*
X234617Y170502D01*
X234618Y170517D01*
X234618Y170519D01*
X234618Y170524D01*
X234596Y170626D01*
X234580Y170728D01*
X234570Y170745D01*
X234566Y170765D01*
X234513Y170854D01*
X234464Y170945D01*
X234450Y170959D01*
X234440Y170976D01*
X234361Y171043D01*
X234286Y171115D01*
X234268Y171123D01*
X234253Y171136D01*
X234157Y171175D01*
X234063Y171218D01*
X234043Y171220D01*
X234025Y171228D01*
X233858Y171246D01*
X170764Y171246D01*
X170650Y171227D01*
X170533Y171210D01*
X170528Y171208D01*
X170522Y171207D01*
X170419Y171152D01*
X170314Y171099D01*
X170310Y171094D01*
X170304Y171091D01*
X170224Y171007D01*
X170142Y170923D01*
X170138Y170917D01*
X170135Y170913D01*
X170127Y170896D01*
X170061Y170776D01*
X169231Y168772D01*
X167397Y166938D01*
X165000Y165945D01*
X162406Y165945D01*
X160009Y166938D01*
X158175Y168772D01*
X158056Y169059D01*
X158019Y169120D01*
X157989Y169185D01*
X157954Y169224D01*
X157927Y169268D01*
X157872Y169314D01*
X157823Y169366D01*
X157777Y169392D01*
X157737Y169425D01*
X157670Y169450D01*
X157607Y169485D01*
X157556Y169494D01*
X157508Y169513D01*
X157436Y169516D01*
X157365Y169529D01*
X157314Y169521D01*
X157262Y169523D01*
X157193Y169503D01*
X157122Y169493D01*
X157076Y169469D01*
X157026Y169455D01*
X156967Y169414D01*
X156903Y169381D01*
X156866Y169344D01*
X156824Y169315D01*
X156781Y169257D01*
X156731Y169206D01*
X156696Y169143D01*
X156677Y169117D01*
X156670Y169095D01*
X156650Y169059D01*
X156531Y168772D01*
X154697Y166938D01*
X152300Y165945D01*
X149706Y165945D01*
X147309Y166938D01*
X145475Y168772D01*
X145356Y169059D01*
X145319Y169120D01*
X145289Y169185D01*
X145254Y169224D01*
X145227Y169268D01*
X145172Y169314D01*
X145123Y169366D01*
X145077Y169392D01*
X145037Y169425D01*
X144970Y169450D01*
X144907Y169485D01*
X144856Y169494D01*
X144808Y169513D01*
X144736Y169516D01*
X144665Y169529D01*
X144614Y169521D01*
X144562Y169523D01*
X144493Y169503D01*
X144422Y169493D01*
X144376Y169469D01*
X144326Y169455D01*
X144267Y169414D01*
X144203Y169381D01*
X144166Y169344D01*
X144124Y169315D01*
X144081Y169257D01*
X144031Y169206D01*
X143996Y169143D01*
X143977Y169117D01*
X143970Y169095D01*
X143950Y169059D01*
X143831Y168772D01*
X141997Y166938D01*
X139600Y165945D01*
X137006Y165945D01*
X134609Y166938D01*
X132775Y168772D01*
X132656Y169059D01*
X132619Y169120D01*
X132589Y169185D01*
X132554Y169224D01*
X132527Y169268D01*
X132472Y169314D01*
X132423Y169366D01*
X132377Y169392D01*
X132337Y169425D01*
X132270Y169450D01*
X132207Y169485D01*
X132156Y169494D01*
X132108Y169513D01*
X132036Y169516D01*
X131965Y169529D01*
X131914Y169521D01*
X131862Y169523D01*
X131793Y169503D01*
X131722Y169493D01*
X131676Y169469D01*
X131626Y169455D01*
X131567Y169414D01*
X131503Y169381D01*
X131466Y169344D01*
X131424Y169315D01*
X131381Y169257D01*
X131331Y169206D01*
X131296Y169143D01*
X131277Y169117D01*
X131270Y169095D01*
X131250Y169059D01*
X131131Y168772D01*
X129297Y166938D01*
X126900Y165945D01*
X124306Y165945D01*
X121909Y166938D01*
X120075Y168772D01*
X119956Y169059D01*
X119919Y169120D01*
X119889Y169185D01*
X119854Y169224D01*
X119827Y169268D01*
X119772Y169314D01*
X119723Y169366D01*
X119677Y169392D01*
X119637Y169425D01*
X119570Y169450D01*
X119507Y169485D01*
X119456Y169494D01*
X119408Y169513D01*
X119336Y169516D01*
X119265Y169529D01*
X119214Y169521D01*
X119162Y169523D01*
X119093Y169503D01*
X119022Y169493D01*
X118976Y169469D01*
X118926Y169455D01*
X118867Y169414D01*
X118803Y169381D01*
X118766Y169344D01*
X118724Y169315D01*
X118681Y169257D01*
X118631Y169206D01*
X118596Y169143D01*
X118577Y169117D01*
X118570Y169095D01*
X118550Y169059D01*
X118431Y168772D01*
X116597Y166938D01*
X114200Y165945D01*
X111606Y165945D01*
X109209Y166938D01*
X107375Y168772D01*
X107256Y169059D01*
X107219Y169120D01*
X107189Y169185D01*
X107154Y169224D01*
X107127Y169268D01*
X107072Y169314D01*
X107023Y169366D01*
X106977Y169392D01*
X106937Y169425D01*
X106870Y169450D01*
X106807Y169485D01*
X106756Y169494D01*
X106708Y169513D01*
X106636Y169516D01*
X106565Y169529D01*
X106514Y169521D01*
X106462Y169523D01*
X106393Y169503D01*
X106322Y169493D01*
X106276Y169469D01*
X106226Y169455D01*
X106167Y169414D01*
X106103Y169381D01*
X106066Y169344D01*
X106024Y169315D01*
X105981Y169257D01*
X105931Y169206D01*
X105896Y169143D01*
X105877Y169117D01*
X105870Y169095D01*
X105850Y169059D01*
X105731Y168772D01*
X103897Y166938D01*
X101500Y165945D01*
X99285Y165945D01*
X99195Y165931D01*
X99104Y165923D01*
X99075Y165911D01*
X99043Y165906D01*
X98962Y165863D01*
X98878Y165827D01*
X98846Y165801D01*
X98825Y165790D01*
X98803Y165767D01*
X98747Y165722D01*
X94822Y161797D01*
X26557Y161797D01*
X26467Y161783D01*
X26376Y161775D01*
X26347Y161763D01*
X26315Y161758D01*
X26234Y161715D01*
X26150Y161679D01*
X26118Y161653D01*
X26097Y161642D01*
X26075Y161619D01*
X26019Y161574D01*
X17496Y153051D01*
X17443Y152977D01*
X17383Y152908D01*
X17371Y152877D01*
X17352Y152851D01*
X17325Y152764D01*
X17291Y152679D01*
X17287Y152638D01*
X17280Y152616D01*
X17281Y152584D01*
X17273Y152513D01*
X17273Y95137D01*
X17287Y95047D01*
X17295Y94956D01*
X17307Y94927D01*
X17312Y94895D01*
X17355Y94814D01*
X17391Y94730D01*
X17417Y94698D01*
X17428Y94677D01*
X17451Y94655D01*
X17474Y94627D01*
X17476Y94623D01*
X17479Y94620D01*
X17496Y94599D01*
X26163Y85932D01*
X26163Y46464D01*
X26177Y46374D01*
X26185Y46283D01*
X26197Y46253D01*
X26202Y46222D01*
X26245Y46141D01*
X26281Y46057D01*
X26307Y46025D01*
X26318Y46004D01*
X26341Y45982D01*
X26386Y45926D01*
X27667Y44645D01*
X27667Y41715D01*
X25595Y39643D01*
X22665Y39643D01*
X20593Y41715D01*
X20593Y44645D01*
X21874Y45926D01*
X21927Y46000D01*
X21987Y46069D01*
X21999Y46099D01*
X22018Y46126D01*
X22045Y46213D01*
X22079Y46298D01*
X22083Y46338D01*
X22090Y46361D01*
X22089Y46393D01*
X22097Y46464D01*
X22097Y83933D01*
X22083Y84023D01*
X22075Y84114D01*
X22063Y84143D01*
X22058Y84175D01*
X22015Y84256D01*
X21979Y84340D01*
X21953Y84372D01*
X21942Y84393D01*
X21919Y84415D01*
X21874Y84471D01*
X13207Y93138D01*
X13207Y154512D01*
X23341Y164646D01*
X23383Y164704D01*
X23432Y164756D01*
X23454Y164803D01*
X23485Y164845D01*
X23506Y164914D01*
X23536Y164979D01*
X23542Y165031D01*
X23557Y165081D01*
X23555Y165152D01*
X23563Y165223D01*
X23552Y165274D01*
X23551Y165326D01*
X23526Y165394D01*
X23511Y165464D01*
X23484Y165509D01*
X23466Y165557D01*
X23421Y165613D01*
X23385Y165675D01*
X23345Y165709D01*
X23312Y165749D01*
X23252Y165788D01*
X23198Y165835D01*
X23149Y165854D01*
X23105Y165882D01*
X23036Y165900D01*
X22969Y165927D01*
X22898Y165935D01*
X22867Y165943D01*
X22844Y165941D01*
X22803Y165945D01*
X22706Y165945D01*
X20309Y166938D01*
X18475Y168772D01*
X18356Y169059D01*
X18319Y169120D01*
X18289Y169185D01*
X18254Y169224D01*
X18227Y169268D01*
X18172Y169314D01*
X18123Y169366D01*
X18077Y169392D01*
X18037Y169425D01*
X17970Y169450D01*
X17907Y169485D01*
X17856Y169494D01*
X17808Y169513D01*
X17736Y169516D01*
X17665Y169529D01*
X17614Y169521D01*
X17562Y169523D01*
X17493Y169503D01*
X17422Y169493D01*
X17376Y169469D01*
X17326Y169455D01*
X17267Y169414D01*
X17203Y169381D01*
X17166Y169344D01*
X17124Y169315D01*
X17081Y169257D01*
X17031Y169206D01*
X16996Y169143D01*
X16977Y169117D01*
X16970Y169095D01*
X16950Y169059D01*
X16831Y168772D01*
X14997Y166938D01*
X12600Y165945D01*
X10006Y165945D01*
X7609Y166938D01*
X5775Y168772D01*
X5478Y169489D01*
X5427Y169572D01*
X5381Y169657D01*
X5362Y169675D01*
X5349Y169698D01*
X5274Y169760D01*
X5203Y169827D01*
X5179Y169838D01*
X5159Y169855D01*
X5068Y169889D01*
X4980Y169930D01*
X4954Y169933D01*
X4930Y169943D01*
X4832Y169947D01*
X4736Y169958D01*
X4710Y169952D01*
X4684Y169953D01*
X4590Y169926D01*
X4495Y169905D01*
X4473Y169892D01*
X4448Y169885D01*
X4368Y169829D01*
X4284Y169779D01*
X4267Y169759D01*
X4246Y169744D01*
X4187Y169666D01*
X4124Y169592D01*
X4114Y169568D01*
X4099Y169547D01*
X4069Y169454D01*
X4032Y169364D01*
X4029Y169332D01*
X4023Y169313D01*
X4023Y169280D01*
X4014Y169197D01*
X4014Y154680D01*
X4025Y154612D01*
X4026Y154544D01*
X4045Y154492D01*
X4053Y154437D01*
X4086Y154377D01*
X4109Y154312D01*
X4143Y154269D01*
X4169Y154220D01*
X4218Y154173D01*
X4261Y154119D01*
X4307Y154088D01*
X4347Y154050D01*
X4409Y154022D01*
X4467Y153984D01*
X4540Y153961D01*
X4570Y153947D01*
X4591Y153944D01*
X4626Y153933D01*
X5320Y153795D01*
X6738Y153208D01*
X8014Y152355D01*
X9099Y151270D01*
X9952Y149994D01*
X10539Y148576D01*
X10688Y147827D01*
X4775Y147827D01*
X4755Y147824D01*
X4736Y147826D01*
X4634Y147804D01*
X4532Y147787D01*
X4515Y147778D01*
X4495Y147774D01*
X4406Y147721D01*
X4315Y147672D01*
X4301Y147658D01*
X4284Y147648D01*
X4217Y147569D01*
X4145Y147494D01*
X4137Y147476D01*
X4124Y147461D01*
X4085Y147365D01*
X4042Y147271D01*
X4040Y147251D01*
X4032Y147233D01*
X4014Y147066D01*
X4014Y145542D01*
X4017Y145522D01*
X4015Y145503D01*
X4037Y145401D01*
X4053Y145299D01*
X4063Y145282D01*
X4067Y145262D01*
X4120Y145173D01*
X4169Y145082D01*
X4183Y145068D01*
X4193Y145051D01*
X4272Y144984D01*
X4347Y144913D01*
X4365Y144904D01*
X4380Y144891D01*
X4476Y144852D01*
X4570Y144809D01*
X4590Y144807D01*
X4608Y144799D01*
X4775Y144781D01*
X10688Y144781D01*
X10539Y144032D01*
X9952Y142614D01*
X9099Y141338D01*
X8014Y140253D01*
X7351Y139809D01*
X7282Y139745D01*
X7208Y139686D01*
X7193Y139661D01*
X7171Y139641D01*
X7126Y139558D01*
X7075Y139479D01*
X7068Y139451D01*
X7054Y139425D01*
X7038Y139332D01*
X7015Y139241D01*
X7018Y139211D01*
X7013Y139183D01*
X7027Y139089D01*
X7034Y138995D01*
X7046Y138968D01*
X7050Y138940D01*
X7094Y138856D01*
X7131Y138769D01*
X7154Y138740D01*
X7164Y138721D01*
X7187Y138698D01*
X7236Y138638D01*
X8576Y137298D01*
X9569Y134901D01*
X9569Y132307D01*
X8576Y129910D01*
X6742Y128076D01*
X6455Y127957D01*
X6394Y127919D01*
X6329Y127890D01*
X6290Y127855D01*
X6246Y127828D01*
X6200Y127772D01*
X6148Y127724D01*
X6122Y127678D01*
X6089Y127638D01*
X6063Y127571D01*
X6029Y127508D01*
X6020Y127457D01*
X6001Y127409D01*
X5998Y127337D01*
X5985Y127266D01*
X5993Y127215D01*
X5991Y127163D01*
X6011Y127094D01*
X6021Y127023D01*
X6045Y126977D01*
X6059Y126927D01*
X6100Y126868D01*
X6133Y126804D01*
X6170Y126767D01*
X6199Y126725D01*
X6257Y126682D01*
X6308Y126632D01*
X6371Y126597D01*
X6397Y126578D01*
X6419Y126570D01*
X6455Y126551D01*
X6742Y126432D01*
X8576Y124598D01*
X9569Y122201D01*
X9569Y119607D01*
X8576Y117210D01*
X6742Y115376D01*
X6455Y115257D01*
X6394Y115220D01*
X6329Y115190D01*
X6290Y115155D01*
X6246Y115128D01*
X6200Y115073D01*
X6148Y115024D01*
X6122Y114978D01*
X6089Y114938D01*
X6064Y114871D01*
X6029Y114808D01*
X6020Y114757D01*
X6001Y114709D01*
X5998Y114637D01*
X5985Y114566D01*
X5993Y114515D01*
X5991Y114463D01*
X6011Y114394D01*
X6021Y114323D01*
X6045Y114277D01*
X6059Y114227D01*
X6100Y114168D01*
X6133Y114104D01*
X6170Y114067D01*
X6199Y114025D01*
X6257Y113982D01*
X6308Y113932D01*
X6371Y113897D01*
X6397Y113878D01*
X6419Y113871D01*
X6455Y113851D01*
X6742Y113732D01*
X8576Y111898D01*
X9569Y109501D01*
X9569Y106907D01*
X8576Y104510D01*
X6742Y102676D01*
X6455Y102557D01*
X6394Y102520D01*
X6329Y102490D01*
X6290Y102455D01*
X6246Y102428D01*
X6200Y102373D01*
X6148Y102324D01*
X6122Y102278D01*
X6089Y102238D01*
X6064Y102171D01*
X6029Y102108D01*
X6020Y102057D01*
X6001Y102009D01*
X5998Y101937D01*
X5985Y101866D01*
X5993Y101815D01*
X5991Y101763D01*
X6011Y101694D01*
X6021Y101623D01*
X6045Y101577D01*
X6059Y101527D01*
X6100Y101468D01*
X6133Y101404D01*
X6170Y101367D01*
X6199Y101325D01*
X6257Y101282D01*
X6308Y101232D01*
X6371Y101197D01*
X6397Y101178D01*
X6419Y101171D01*
X6455Y101151D01*
X6742Y101032D01*
X8576Y99198D01*
X9569Y96801D01*
X9569Y94207D01*
X8576Y91810D01*
X6742Y89976D01*
X6455Y89857D01*
X6394Y89820D01*
X6329Y89790D01*
X6290Y89755D01*
X6246Y89728D01*
X6200Y89673D01*
X6148Y89624D01*
X6122Y89578D01*
X6089Y89538D01*
X6064Y89471D01*
X6029Y89408D01*
X6020Y89357D01*
X6001Y89309D01*
X5998Y89237D01*
X5985Y89166D01*
X5993Y89115D01*
X5991Y89063D01*
X6011Y88994D01*
X6021Y88923D01*
X6045Y88877D01*
X6059Y88827D01*
X6100Y88768D01*
X6133Y88704D01*
X6170Y88667D01*
X6199Y88625D01*
X6257Y88582D01*
X6308Y88532D01*
X6371Y88497D01*
X6397Y88478D01*
X6419Y88471D01*
X6455Y88451D01*
X6742Y88332D01*
X8576Y86498D01*
X9569Y84101D01*
X9569Y81507D01*
X8576Y79110D01*
X6742Y77276D01*
X6455Y77157D01*
X6394Y77120D01*
X6329Y77090D01*
X6290Y77055D01*
X6246Y77028D01*
X6200Y76973D01*
X6148Y76924D01*
X6122Y76878D01*
X6089Y76838D01*
X6064Y76771D01*
X6029Y76708D01*
X6020Y76657D01*
X6001Y76609D01*
X5998Y76537D01*
X5985Y76466D01*
X5993Y76415D01*
X5991Y76363D01*
X6011Y76294D01*
X6021Y76223D01*
X6045Y76177D01*
X6059Y76127D01*
X6100Y76068D01*
X6133Y76004D01*
X6170Y75967D01*
X6199Y75925D01*
X6257Y75882D01*
X6308Y75832D01*
X6371Y75797D01*
X6397Y75778D01*
X6419Y75771D01*
X6455Y75751D01*
X6742Y75632D01*
X8576Y73798D01*
X9569Y71401D01*
X9569Y68807D01*
X8576Y66410D01*
X6742Y64576D01*
X6455Y64457D01*
X6394Y64420D01*
X6329Y64390D01*
X6290Y64355D01*
X6246Y64328D01*
X6200Y64273D01*
X6148Y64224D01*
X6122Y64178D01*
X6089Y64138D01*
X6064Y64071D01*
X6029Y64008D01*
X6020Y63957D01*
X6001Y63909D01*
X5998Y63837D01*
X5985Y63766D01*
X5993Y63715D01*
X5991Y63663D01*
X6011Y63594D01*
X6021Y63523D01*
X6045Y63477D01*
X6059Y63427D01*
X6100Y63368D01*
X6133Y63304D01*
X6170Y63267D01*
X6199Y63225D01*
X6257Y63182D01*
X6308Y63132D01*
X6371Y63097D01*
X6397Y63078D01*
X6419Y63071D01*
X6455Y63051D01*
X6742Y62932D01*
X8576Y61098D01*
X9569Y58701D01*
X9569Y56107D01*
X8576Y53710D01*
X6742Y51876D01*
X6455Y51757D01*
X6394Y51720D01*
X6329Y51690D01*
X6290Y51655D01*
X6246Y51628D01*
X6200Y51573D01*
X6148Y51524D01*
X6122Y51478D01*
X6089Y51438D01*
X6064Y51371D01*
X6029Y51308D01*
X6020Y51257D01*
X6001Y51209D01*
X5998Y51137D01*
X5985Y51066D01*
X5993Y51015D01*
X5991Y50963D01*
X6011Y50894D01*
X6021Y50823D01*
X6045Y50777D01*
X6059Y50727D01*
X6100Y50668D01*
X6133Y50604D01*
X6170Y50567D01*
X6199Y50525D01*
X6257Y50482D01*
X6308Y50432D01*
X6371Y50397D01*
X6397Y50378D01*
X6419Y50371D01*
X6455Y50351D01*
X6742Y50232D01*
X8576Y48398D01*
X9569Y46001D01*
X9569Y43407D01*
X8576Y41010D01*
X6742Y39176D01*
X6455Y39057D01*
X6394Y39020D01*
X6329Y38990D01*
X6290Y38955D01*
X6246Y38928D01*
X6200Y38873D01*
X6148Y38824D01*
X6122Y38778D01*
X6089Y38738D01*
X6064Y38671D01*
X6029Y38608D01*
X6020Y38557D01*
X6001Y38509D01*
X5998Y38437D01*
X5985Y38366D01*
X5993Y38315D01*
X5991Y38263D01*
X6011Y38194D01*
X6021Y38123D01*
X6045Y38077D01*
X6059Y38027D01*
X6100Y37968D01*
X6133Y37904D01*
X6170Y37867D01*
X6199Y37825D01*
X6257Y37782D01*
X6308Y37732D01*
X6371Y37697D01*
X6397Y37678D01*
X6419Y37671D01*
X6455Y37651D01*
X6742Y37532D01*
X8576Y35698D01*
X9569Y33301D01*
X9569Y30707D01*
X8576Y28310D01*
X6742Y26476D01*
X4484Y25541D01*
X4384Y25479D01*
X4284Y25419D01*
X4280Y25414D01*
X4275Y25411D01*
X4200Y25321D01*
X4124Y25232D01*
X4122Y25226D01*
X4118Y25222D01*
X4076Y25113D01*
X4032Y25004D01*
X4031Y24997D01*
X4030Y24992D01*
X4029Y24974D01*
X4014Y24837D01*
X4014Y9365D01*
X4029Y9269D01*
X4039Y9172D01*
X4049Y9148D01*
X4053Y9122D01*
X4099Y9036D01*
X4139Y8947D01*
X4156Y8928D01*
X4169Y8905D01*
X4239Y8838D01*
X4305Y8766D01*
X4328Y8753D01*
X4347Y8735D01*
X4435Y8694D01*
X4521Y8647D01*
X4546Y8643D01*
X4570Y8632D01*
X4667Y8621D01*
X4763Y8603D01*
X4789Y8607D01*
X4814Y8604D01*
X4909Y8625D01*
X5006Y8639D01*
X5029Y8651D01*
X5055Y8657D01*
X5139Y8707D01*
X5225Y8751D01*
X5243Y8769D01*
X5266Y8783D01*
X5329Y8857D01*
X5397Y8926D01*
X5413Y8955D01*
X5426Y8970D01*
X5438Y9001D01*
X5478Y9073D01*
X5775Y9790D01*
X7609Y11624D01*
X10006Y12617D01*
X12600Y12617D01*
X14997Y11624D01*
X16831Y9790D01*
X16950Y9503D01*
X16988Y9442D01*
X17017Y9377D01*
X17052Y9338D01*
X17079Y9294D01*
X17135Y9248D01*
X17183Y9196D01*
X17229Y9170D01*
X17269Y9137D01*
X17336Y9111D01*
X17399Y9077D01*
X17450Y9068D01*
X17498Y9049D01*
X17570Y9046D01*
X17641Y9033D01*
X17692Y9041D01*
X17744Y9039D01*
X17813Y9059D01*
X17884Y9069D01*
X17930Y9093D01*
X17980Y9107D01*
X18039Y9148D01*
X18103Y9181D01*
X18140Y9218D01*
X18182Y9247D01*
X18225Y9305D01*
X18275Y9356D01*
X18310Y9419D01*
X18329Y9445D01*
X18337Y9467D01*
X18356Y9503D01*
X18475Y9790D01*
X20309Y11624D01*
X22706Y12617D01*
X25300Y12617D01*
X27697Y11624D01*
X29531Y9790D01*
X29650Y9503D01*
X29688Y9442D01*
X29717Y9377D01*
X29752Y9338D01*
X29779Y9294D01*
X29835Y9248D01*
X29883Y9196D01*
X29929Y9170D01*
X29969Y9137D01*
X30036Y9111D01*
X30099Y9077D01*
X30150Y9068D01*
X30198Y9049D01*
X30270Y9046D01*
X30341Y9033D01*
X30392Y9041D01*
X30444Y9039D01*
X30513Y9059D01*
X30584Y9069D01*
X30630Y9093D01*
X30680Y9107D01*
X30739Y9148D01*
X30803Y9181D01*
X30840Y9218D01*
X30882Y9247D01*
X30925Y9305D01*
X30975Y9356D01*
X31010Y9419D01*
X31029Y9445D01*
X31037Y9467D01*
X31056Y9503D01*
X31175Y9790D01*
X33009Y11624D01*
X35406Y12617D01*
X38000Y12617D01*
X40397Y11624D01*
X42231Y9790D01*
X42350Y9503D01*
X42388Y9442D01*
X42417Y9377D01*
X42452Y9338D01*
X42479Y9294D01*
X42535Y9248D01*
X42583Y9196D01*
X42629Y9170D01*
X42669Y9137D01*
X42736Y9111D01*
X42799Y9077D01*
X42850Y9068D01*
X42898Y9049D01*
X42970Y9046D01*
X43041Y9033D01*
X43092Y9041D01*
X43144Y9039D01*
X43213Y9059D01*
X43284Y9069D01*
X43330Y9093D01*
X43380Y9107D01*
X43439Y9148D01*
X43503Y9181D01*
X43540Y9218D01*
X43582Y9247D01*
X43625Y9305D01*
X43675Y9356D01*
X43710Y9419D01*
X43729Y9445D01*
X43737Y9467D01*
X43756Y9503D01*
X43875Y9790D01*
X45709Y11624D01*
X48106Y12617D01*
X50700Y12617D01*
X53097Y11624D01*
X54931Y9790D01*
X55050Y9503D01*
X55088Y9442D01*
X55117Y9377D01*
X55152Y9338D01*
X55179Y9294D01*
X55235Y9248D01*
X55283Y9196D01*
X55329Y9170D01*
X55369Y9137D01*
X55436Y9111D01*
X55499Y9077D01*
X55550Y9068D01*
X55598Y9049D01*
X55670Y9046D01*
X55741Y9033D01*
X55792Y9041D01*
X55844Y9039D01*
X55913Y9059D01*
X55984Y9069D01*
X56030Y9093D01*
X56080Y9107D01*
X56139Y9148D01*
X56203Y9181D01*
X56240Y9218D01*
X56282Y9247D01*
X56325Y9305D01*
X56375Y9356D01*
X56410Y9419D01*
X56429Y9445D01*
X56437Y9467D01*
X56456Y9503D01*
X56575Y9790D01*
X58409Y11624D01*
X60806Y12617D01*
X63400Y12617D01*
X65797Y11624D01*
X67631Y9790D01*
X67750Y9503D01*
X67788Y9442D01*
X67817Y9377D01*
X67852Y9338D01*
X67879Y9294D01*
X67935Y9248D01*
X67983Y9196D01*
X68029Y9170D01*
X68069Y9137D01*
X68136Y9111D01*
X68199Y9077D01*
X68250Y9068D01*
X68298Y9049D01*
X68370Y9046D01*
X68441Y9033D01*
X68492Y9041D01*
X68544Y9039D01*
X68613Y9059D01*
X68684Y9069D01*
X68730Y9093D01*
X68780Y9107D01*
X68839Y9148D01*
X68903Y9181D01*
X68940Y9218D01*
X68982Y9247D01*
X69025Y9305D01*
X69075Y9356D01*
X69110Y9419D01*
X69129Y9445D01*
X69137Y9467D01*
X69156Y9503D01*
X69275Y9790D01*
X71109Y11624D01*
X73506Y12617D01*
X76100Y12617D01*
X78497Y11624D01*
X80331Y9790D01*
X80450Y9503D01*
X80488Y9442D01*
X80517Y9377D01*
X80552Y9338D01*
X80579Y9294D01*
X80635Y9248D01*
X80683Y9196D01*
X80729Y9170D01*
X80769Y9137D01*
X80836Y9111D01*
X80899Y9077D01*
X80950Y9068D01*
X80998Y9049D01*
X81070Y9046D01*
X81141Y9033D01*
X81192Y9041D01*
X81244Y9039D01*
X81313Y9059D01*
X81384Y9069D01*
X81430Y9093D01*
X81480Y9107D01*
X81539Y9148D01*
X81603Y9181D01*
X81640Y9218D01*
X81682Y9247D01*
X81725Y9305D01*
X81775Y9356D01*
X81810Y9419D01*
X81829Y9445D01*
X81837Y9467D01*
X81856Y9503D01*
X81975Y9790D01*
X83809Y11624D01*
X86206Y12617D01*
X88800Y12617D01*
X91197Y11624D01*
X93031Y9790D01*
X93150Y9503D01*
X93188Y9442D01*
X93217Y9377D01*
X93252Y9338D01*
X93279Y9294D01*
X93335Y9248D01*
X93383Y9196D01*
X93429Y9170D01*
X93469Y9137D01*
X93536Y9111D01*
X93599Y9077D01*
X93650Y9068D01*
X93698Y9049D01*
X93770Y9046D01*
X93841Y9033D01*
X93892Y9041D01*
X93944Y9039D01*
X94013Y9059D01*
X94084Y9069D01*
X94130Y9093D01*
X94180Y9107D01*
X94239Y9148D01*
X94303Y9181D01*
X94340Y9218D01*
X94382Y9247D01*
X94425Y9305D01*
X94475Y9356D01*
X94510Y9419D01*
X94529Y9445D01*
X94537Y9467D01*
X94556Y9503D01*
X94675Y9790D01*
X96509Y11624D01*
X98906Y12617D01*
X101500Y12617D01*
X103897Y11624D01*
X105731Y9790D01*
X105850Y9503D01*
X105888Y9442D01*
X105917Y9377D01*
X105952Y9338D01*
X105979Y9294D01*
X106035Y9248D01*
X106083Y9196D01*
X106129Y9170D01*
X106169Y9137D01*
X106236Y9111D01*
X106299Y9077D01*
X106350Y9068D01*
X106398Y9049D01*
X106470Y9046D01*
X106541Y9033D01*
X106592Y9041D01*
X106644Y9039D01*
X106713Y9059D01*
X106784Y9069D01*
X106830Y9093D01*
X106880Y9107D01*
X106939Y9148D01*
X107003Y9181D01*
X107040Y9218D01*
X107082Y9247D01*
X107125Y9305D01*
X107175Y9356D01*
X107210Y9419D01*
X107229Y9445D01*
X107237Y9467D01*
X107256Y9503D01*
X107375Y9790D01*
X109209Y11624D01*
X111606Y12617D01*
X114200Y12617D01*
X116597Y11624D01*
X118431Y9790D01*
X118550Y9503D01*
X118587Y9442D01*
X118617Y9377D01*
X118652Y9338D01*
X118679Y9294D01*
X118735Y9248D01*
X118783Y9196D01*
X118829Y9170D01*
X118869Y9137D01*
X118936Y9112D01*
X118999Y9077D01*
X119050Y9068D01*
X119098Y9049D01*
X119170Y9046D01*
X119241Y9033D01*
X119292Y9041D01*
X119344Y9039D01*
X119413Y9059D01*
X119484Y9069D01*
X119530Y9093D01*
X119580Y9107D01*
X119639Y9148D01*
X119703Y9181D01*
X119740Y9218D01*
X119782Y9247D01*
X119825Y9305D01*
X119875Y9356D01*
X119910Y9419D01*
X119929Y9445D01*
X119936Y9467D01*
X119956Y9503D01*
X120075Y9790D01*
X121909Y11624D01*
X124306Y12617D01*
X126900Y12617D01*
X129297Y11624D01*
X131131Y9790D01*
X131250Y9503D01*
X131287Y9442D01*
X131317Y9377D01*
X131352Y9338D01*
X131379Y9294D01*
X131435Y9248D01*
X131483Y9196D01*
X131529Y9170D01*
X131569Y9137D01*
X131636Y9112D01*
X131699Y9077D01*
X131750Y9068D01*
X131798Y9049D01*
X131870Y9046D01*
X131941Y9033D01*
X131992Y9041D01*
X132044Y9039D01*
X132113Y9059D01*
X132184Y9069D01*
X132230Y9093D01*
X132280Y9107D01*
X132339Y9148D01*
X132403Y9181D01*
X132440Y9218D01*
X132482Y9247D01*
X132525Y9305D01*
X132575Y9356D01*
X132610Y9419D01*
X132629Y9445D01*
X132636Y9467D01*
X132656Y9503D01*
X132775Y9790D01*
X134609Y11624D01*
X137006Y12617D01*
X139600Y12617D01*
X141997Y11624D01*
X143831Y9790D01*
X143950Y9503D01*
X143987Y9442D01*
X144017Y9377D01*
X144052Y9338D01*
X144079Y9294D01*
X144135Y9248D01*
X144183Y9196D01*
X144229Y9170D01*
X144269Y9137D01*
X144336Y9112D01*
X144399Y9077D01*
X144450Y9068D01*
X144498Y9049D01*
X144570Y9046D01*
X144641Y9033D01*
X144692Y9041D01*
X144744Y9039D01*
X144813Y9059D01*
X144884Y9069D01*
X144930Y9093D01*
X144980Y9107D01*
X145039Y9148D01*
X145103Y9181D01*
X145140Y9218D01*
X145182Y9247D01*
X145225Y9305D01*
X145275Y9356D01*
X145310Y9419D01*
X145329Y9445D01*
X145336Y9467D01*
X145356Y9503D01*
X145475Y9790D01*
X147309Y11624D01*
X149706Y12617D01*
X152300Y12617D01*
X154697Y11624D01*
X156531Y9790D01*
X156650Y9503D01*
X156687Y9442D01*
X156717Y9377D01*
X156752Y9338D01*
X156779Y9294D01*
X156835Y9248D01*
X156883Y9196D01*
X156929Y9170D01*
X156969Y9137D01*
X157036Y9112D01*
X157099Y9077D01*
X157150Y9068D01*
X157198Y9049D01*
X157270Y9046D01*
X157341Y9033D01*
X157392Y9041D01*
X157444Y9039D01*
X157513Y9059D01*
X157584Y9069D01*
X157630Y9093D01*
X157680Y9107D01*
X157739Y9148D01*
X157803Y9181D01*
X157840Y9218D01*
X157882Y9247D01*
X157925Y9305D01*
X157975Y9356D01*
X158010Y9419D01*
X158029Y9445D01*
X158036Y9467D01*
X158056Y9503D01*
X158175Y9790D01*
X160009Y11624D01*
X162406Y12617D01*
X165000Y12617D01*
X167397Y11624D01*
X169231Y9790D01*
X169956Y8040D01*
X170017Y7940D01*
X170077Y7840D01*
X170082Y7836D01*
X170086Y7831D01*
X170175Y7756D01*
X170264Y7680D01*
X170270Y7678D01*
X170275Y7674D01*
X170383Y7632D01*
X170492Y7588D01*
X170500Y7587D01*
X170505Y7586D01*
X170523Y7585D01*
X170659Y7570D01*
X233858Y7570D01*
X233878Y7573D01*
G37*
%LPC*%
G36*
X62774Y88407D02*
X62774Y88407D01*
X60848Y90333D01*
X60848Y93055D01*
X62774Y94981D01*
X64405Y94981D01*
X64425Y94984D01*
X64444Y94982D01*
X64546Y95004D01*
X64648Y95020D01*
X64665Y95030D01*
X64685Y95034D01*
X64774Y95087D01*
X64865Y95136D01*
X64879Y95150D01*
X64896Y95160D01*
X64963Y95239D01*
X65035Y95314D01*
X65043Y95332D01*
X65056Y95347D01*
X65095Y95443D01*
X65138Y95537D01*
X65140Y95557D01*
X65148Y95575D01*
X65166Y95742D01*
X65166Y97044D01*
X65163Y97064D01*
X65165Y97083D01*
X65143Y97185D01*
X65127Y97287D01*
X65117Y97304D01*
X65113Y97324D01*
X65060Y97413D01*
X65011Y97504D01*
X64997Y97518D01*
X64987Y97535D01*
X64908Y97602D01*
X64833Y97674D01*
X64815Y97682D01*
X64800Y97695D01*
X64704Y97734D01*
X64610Y97777D01*
X64590Y97779D01*
X64572Y97787D01*
X64405Y97805D01*
X62901Y97805D01*
X60975Y99731D01*
X60975Y102453D01*
X62901Y104379D01*
X63897Y104379D01*
X63917Y104382D01*
X63936Y104380D01*
X64038Y104402D01*
X64140Y104418D01*
X64157Y104428D01*
X64177Y104432D01*
X64266Y104485D01*
X64357Y104534D01*
X64371Y104548D01*
X64388Y104558D01*
X64455Y104637D01*
X64527Y104712D01*
X64535Y104730D01*
X64548Y104745D01*
X64587Y104841D01*
X64630Y104935D01*
X64632Y104955D01*
X64640Y104973D01*
X64658Y105140D01*
X64658Y107204D01*
X64655Y107224D01*
X64657Y107243D01*
X64635Y107345D01*
X64619Y107447D01*
X64609Y107464D01*
X64605Y107484D01*
X64552Y107573D01*
X64503Y107664D01*
X64489Y107678D01*
X64479Y107695D01*
X64400Y107762D01*
X64325Y107834D01*
X64307Y107842D01*
X64292Y107855D01*
X64196Y107894D01*
X64102Y107937D01*
X64082Y107939D01*
X64064Y107947D01*
X63897Y107965D01*
X63282Y107965D01*
X61356Y109891D01*
X61356Y112613D01*
X63282Y114539D01*
X64151Y114539D01*
X64171Y114542D01*
X64190Y114540D01*
X64292Y114562D01*
X64394Y114578D01*
X64411Y114588D01*
X64431Y114592D01*
X64520Y114645D01*
X64611Y114694D01*
X64625Y114708D01*
X64642Y114718D01*
X64709Y114797D01*
X64781Y114872D01*
X64789Y114890D01*
X64802Y114905D01*
X64841Y115001D01*
X64884Y115095D01*
X64886Y115115D01*
X64894Y115133D01*
X64912Y115300D01*
X64912Y116348D01*
X64909Y116368D01*
X64911Y116387D01*
X64889Y116489D01*
X64873Y116591D01*
X64863Y116608D01*
X64859Y116628D01*
X64806Y116717D01*
X64757Y116808D01*
X64743Y116822D01*
X64733Y116839D01*
X64654Y116906D01*
X64579Y116978D01*
X64561Y116986D01*
X64546Y116999D01*
X64450Y117038D01*
X64356Y117081D01*
X64336Y117083D01*
X64318Y117091D01*
X64151Y117109D01*
X63028Y117109D01*
X61102Y119035D01*
X61102Y121757D01*
X63028Y123683D01*
X64024Y123683D01*
X64044Y123686D01*
X64063Y123684D01*
X64165Y123706D01*
X64267Y123722D01*
X64284Y123732D01*
X64304Y123736D01*
X64393Y123789D01*
X64484Y123838D01*
X64498Y123852D01*
X64515Y123862D01*
X64582Y123941D01*
X64654Y124016D01*
X64662Y124034D01*
X64675Y124049D01*
X64714Y124145D01*
X64757Y124239D01*
X64759Y124259D01*
X64767Y124277D01*
X64785Y124444D01*
X64785Y127218D01*
X66711Y129144D01*
X69433Y129144D01*
X71359Y127218D01*
X71359Y124496D01*
X69433Y122570D01*
X68437Y122570D01*
X68417Y122567D01*
X68398Y122569D01*
X68296Y122547D01*
X68194Y122531D01*
X68177Y122521D01*
X68157Y122517D01*
X68068Y122464D01*
X67977Y122415D01*
X67963Y122401D01*
X67946Y122391D01*
X67879Y122312D01*
X67807Y122237D01*
X67799Y122219D01*
X67786Y122204D01*
X67747Y122108D01*
X67704Y122014D01*
X67702Y121994D01*
X67694Y121976D01*
X67676Y121809D01*
X67676Y119872D01*
X67679Y119852D01*
X67677Y119833D01*
X67699Y119731D01*
X67715Y119629D01*
X67725Y119612D01*
X67729Y119592D01*
X67782Y119503D01*
X67831Y119412D01*
X67845Y119398D01*
X67855Y119381D01*
X67934Y119314D01*
X68009Y119242D01*
X68027Y119234D01*
X68042Y119221D01*
X68138Y119182D01*
X68232Y119139D01*
X68252Y119137D01*
X68270Y119129D01*
X68437Y119111D01*
X69560Y119111D01*
X71486Y117185D01*
X71486Y114463D01*
X69560Y112537D01*
X68691Y112537D01*
X68671Y112534D01*
X68652Y112536D01*
X68550Y112514D01*
X68448Y112498D01*
X68431Y112488D01*
X68411Y112484D01*
X68322Y112431D01*
X68231Y112382D01*
X68217Y112368D01*
X68200Y112358D01*
X68133Y112279D01*
X68061Y112204D01*
X68053Y112186D01*
X68040Y112171D01*
X68001Y112075D01*
X67958Y111981D01*
X67956Y111961D01*
X67948Y111943D01*
X67930Y111776D01*
X67930Y109966D01*
X67933Y109946D01*
X67931Y109927D01*
X67953Y109825D01*
X67969Y109723D01*
X67979Y109706D01*
X67983Y109686D01*
X68036Y109597D01*
X68085Y109506D01*
X68099Y109492D01*
X68109Y109475D01*
X68188Y109408D01*
X68263Y109336D01*
X68281Y109328D01*
X68296Y109315D01*
X68392Y109276D01*
X68486Y109233D01*
X68506Y109231D01*
X68524Y109223D01*
X68691Y109205D01*
X69306Y109205D01*
X71232Y107279D01*
X71232Y104557D01*
X69306Y102631D01*
X68310Y102631D01*
X68290Y102628D01*
X68271Y102630D01*
X68169Y102608D01*
X68067Y102592D01*
X68050Y102582D01*
X68030Y102578D01*
X67941Y102525D01*
X67850Y102476D01*
X67836Y102462D01*
X67819Y102452D01*
X67752Y102373D01*
X67680Y102298D01*
X67672Y102280D01*
X67659Y102265D01*
X67620Y102169D01*
X67577Y102075D01*
X67575Y102055D01*
X67567Y102037D01*
X67549Y101870D01*
X67549Y100187D01*
X67552Y100167D01*
X67550Y100148D01*
X67572Y100046D01*
X67588Y99944D01*
X67598Y99927D01*
X67602Y99907D01*
X67655Y99818D01*
X67704Y99727D01*
X67718Y99713D01*
X67728Y99696D01*
X67807Y99629D01*
X67882Y99557D01*
X67900Y99549D01*
X67915Y99536D01*
X68011Y99497D01*
X68105Y99454D01*
X68125Y99452D01*
X68143Y99444D01*
X68310Y99426D01*
X69814Y99426D01*
X71740Y97500D01*
X71740Y94778D01*
X69814Y92852D01*
X68183Y92852D01*
X68163Y92849D01*
X68144Y92851D01*
X68042Y92829D01*
X67940Y92813D01*
X67923Y92803D01*
X67903Y92799D01*
X67814Y92746D01*
X67723Y92697D01*
X67709Y92683D01*
X67692Y92673D01*
X67625Y92594D01*
X67553Y92519D01*
X67545Y92501D01*
X67532Y92486D01*
X67493Y92390D01*
X67450Y92296D01*
X67448Y92276D01*
X67440Y92258D01*
X67422Y92091D01*
X67422Y90333D01*
X65496Y88407D01*
X62774Y88407D01*
G37*
%LPD*%
%LPC*%
G36*
X106970Y137556D02*
X106970Y137556D01*
X105044Y139482D01*
X105044Y140224D01*
X105041Y140244D01*
X105043Y140263D01*
X105021Y140365D01*
X105005Y140467D01*
X104995Y140484D01*
X104991Y140504D01*
X104938Y140593D01*
X104889Y140684D01*
X104875Y140698D01*
X104865Y140715D01*
X104786Y140782D01*
X104711Y140854D01*
X104693Y140862D01*
X104678Y140875D01*
X104582Y140914D01*
X104488Y140957D01*
X104468Y140959D01*
X104450Y140967D01*
X104283Y140985D01*
X102473Y140985D01*
X102453Y140982D01*
X102434Y140984D01*
X102332Y140962D01*
X102230Y140946D01*
X102213Y140936D01*
X102193Y140932D01*
X102104Y140879D01*
X102013Y140830D01*
X101999Y140816D01*
X101982Y140806D01*
X101915Y140727D01*
X101843Y140652D01*
X101835Y140634D01*
X101822Y140619D01*
X101783Y140523D01*
X101740Y140429D01*
X101738Y140409D01*
X101730Y140391D01*
X101712Y140224D01*
X101712Y139863D01*
X99786Y137937D01*
X97064Y137937D01*
X95138Y139863D01*
X95138Y142585D01*
X97064Y144511D01*
X99584Y144511D01*
X99604Y144514D01*
X99623Y144512D01*
X99725Y144534D01*
X99827Y144550D01*
X99844Y144560D01*
X99864Y144564D01*
X99953Y144617D01*
X100044Y144666D01*
X100058Y144680D01*
X100075Y144690D01*
X100142Y144769D01*
X100214Y144844D01*
X100222Y144862D01*
X100235Y144877D01*
X100274Y144973D01*
X100317Y145067D01*
X100319Y145087D01*
X100327Y145105D01*
X100345Y145272D01*
X100345Y145633D01*
X102271Y147559D01*
X104993Y147559D01*
X106919Y145633D01*
X106919Y144891D01*
X106922Y144871D01*
X106920Y144852D01*
X106942Y144750D01*
X106958Y144648D01*
X106968Y144631D01*
X106972Y144611D01*
X107025Y144522D01*
X107074Y144431D01*
X107088Y144417D01*
X107098Y144400D01*
X107177Y144333D01*
X107252Y144261D01*
X107270Y144253D01*
X107285Y144240D01*
X107381Y144201D01*
X107475Y144158D01*
X107495Y144156D01*
X107513Y144148D01*
X107680Y144130D01*
X109490Y144130D01*
X109510Y144133D01*
X109529Y144131D01*
X109631Y144153D01*
X109733Y144169D01*
X109750Y144179D01*
X109770Y144183D01*
X109859Y144236D01*
X109950Y144285D01*
X109964Y144299D01*
X109981Y144309D01*
X110048Y144388D01*
X110120Y144463D01*
X110128Y144481D01*
X110141Y144496D01*
X110180Y144592D01*
X110223Y144686D01*
X110225Y144706D01*
X110233Y144724D01*
X110251Y144891D01*
X110251Y146014D01*
X112177Y147940D01*
X114899Y147940D01*
X116825Y146014D01*
X116825Y145018D01*
X116828Y144998D01*
X116826Y144979D01*
X116848Y144877D01*
X116864Y144775D01*
X116874Y144758D01*
X116878Y144738D01*
X116931Y144649D01*
X116980Y144558D01*
X116994Y144544D01*
X117004Y144527D01*
X117083Y144460D01*
X117158Y144388D01*
X117176Y144380D01*
X117191Y144367D01*
X117287Y144328D01*
X117381Y144285D01*
X117401Y144283D01*
X117419Y144275D01*
X117586Y144257D01*
X119269Y144257D01*
X119289Y144260D01*
X119308Y144258D01*
X119410Y144280D01*
X119512Y144296D01*
X119529Y144306D01*
X119549Y144310D01*
X119638Y144363D01*
X119729Y144412D01*
X119743Y144426D01*
X119760Y144436D01*
X119827Y144515D01*
X119899Y144590D01*
X119907Y144608D01*
X119920Y144623D01*
X119959Y144719D01*
X120002Y144813D01*
X120004Y144833D01*
X120012Y144851D01*
X120030Y145018D01*
X120030Y145887D01*
X121956Y147813D01*
X124678Y147813D01*
X126604Y145887D01*
X126604Y145272D01*
X126607Y145252D01*
X126605Y145233D01*
X126627Y145131D01*
X126643Y145029D01*
X126653Y145012D01*
X126657Y144992D01*
X126710Y144903D01*
X126759Y144812D01*
X126773Y144798D01*
X126783Y144781D01*
X126862Y144714D01*
X126937Y144642D01*
X126955Y144634D01*
X126970Y144621D01*
X127066Y144582D01*
X127160Y144539D01*
X127180Y144537D01*
X127198Y144529D01*
X127365Y144511D01*
X129781Y144511D01*
X129782Y144510D01*
X129881Y144480D01*
X129901Y144481D01*
X129920Y144476D01*
X130023Y144484D01*
X130127Y144486D01*
X130146Y144493D01*
X130166Y144495D01*
X130260Y144535D01*
X130358Y144571D01*
X130374Y144583D01*
X130392Y144591D01*
X130523Y144696D01*
X132370Y146543D01*
X135092Y146543D01*
X137018Y144617D01*
X137018Y141895D01*
X135092Y139969D01*
X132220Y139969D01*
X132219Y139969D01*
X132120Y140000D01*
X132100Y139999D01*
X132081Y140004D01*
X131978Y139996D01*
X131874Y139994D01*
X131855Y139987D01*
X131836Y139985D01*
X131741Y139945D01*
X131643Y139909D01*
X131628Y139897D01*
X131609Y139889D01*
X131478Y139784D01*
X129631Y137937D01*
X126909Y137937D01*
X124983Y139863D01*
X124983Y140478D01*
X124980Y140498D01*
X124982Y140517D01*
X124960Y140619D01*
X124944Y140721D01*
X124934Y140738D01*
X124930Y140758D01*
X124877Y140847D01*
X124828Y140938D01*
X124814Y140952D01*
X124804Y140969D01*
X124725Y141036D01*
X124650Y141108D01*
X124632Y141116D01*
X124617Y141129D01*
X124521Y141168D01*
X124427Y141211D01*
X124407Y141213D01*
X124389Y141221D01*
X124222Y141239D01*
X122158Y141239D01*
X122138Y141236D01*
X122119Y141238D01*
X122017Y141216D01*
X121915Y141200D01*
X121898Y141190D01*
X121878Y141186D01*
X121789Y141133D01*
X121698Y141084D01*
X121684Y141070D01*
X121667Y141060D01*
X121600Y140981D01*
X121528Y140906D01*
X121520Y140888D01*
X121507Y140873D01*
X121468Y140777D01*
X121425Y140683D01*
X121423Y140663D01*
X121415Y140645D01*
X121397Y140478D01*
X121397Y139609D01*
X119471Y137683D01*
X116749Y137683D01*
X114823Y139609D01*
X114823Y140605D01*
X114820Y140625D01*
X114822Y140644D01*
X114800Y140746D01*
X114784Y140848D01*
X114774Y140865D01*
X114770Y140885D01*
X114717Y140974D01*
X114668Y141065D01*
X114654Y141079D01*
X114644Y141096D01*
X114565Y141163D01*
X114490Y141235D01*
X114472Y141243D01*
X114457Y141256D01*
X114361Y141295D01*
X114267Y141338D01*
X114247Y141340D01*
X114229Y141348D01*
X114062Y141366D01*
X112379Y141366D01*
X112359Y141363D01*
X112340Y141365D01*
X112238Y141343D01*
X112136Y141327D01*
X112119Y141317D01*
X112099Y141313D01*
X112010Y141260D01*
X111919Y141211D01*
X111905Y141197D01*
X111888Y141187D01*
X111821Y141108D01*
X111749Y141033D01*
X111741Y141015D01*
X111728Y141000D01*
X111689Y140904D01*
X111646Y140810D01*
X111644Y140790D01*
X111636Y140772D01*
X111618Y140605D01*
X111618Y139482D01*
X109692Y137556D01*
X106970Y137556D01*
G37*
%LPD*%
%LPC*%
G36*
X155230Y87772D02*
X155230Y87772D01*
X153304Y89698D01*
X153304Y92091D01*
X153303Y92102D01*
X153303Y92108D01*
X153302Y92116D01*
X153303Y92130D01*
X153281Y92232D01*
X153265Y92334D01*
X153255Y92351D01*
X153251Y92371D01*
X153198Y92460D01*
X153149Y92551D01*
X153135Y92565D01*
X153125Y92582D01*
X153046Y92649D01*
X152971Y92721D01*
X152953Y92729D01*
X152938Y92742D01*
X152842Y92781D01*
X152748Y92824D01*
X152728Y92826D01*
X152710Y92834D01*
X152543Y92852D01*
X152055Y92852D01*
X150129Y94778D01*
X150129Y97500D01*
X152055Y99426D01*
X152543Y99426D01*
X152563Y99429D01*
X152582Y99427D01*
X152684Y99449D01*
X152786Y99465D01*
X152803Y99475D01*
X152823Y99479D01*
X152912Y99532D01*
X153003Y99581D01*
X153017Y99595D01*
X153034Y99605D01*
X153101Y99684D01*
X153173Y99759D01*
X153181Y99777D01*
X153194Y99792D01*
X153233Y99888D01*
X153276Y99982D01*
X153278Y100002D01*
X153286Y100020D01*
X153304Y100187D01*
X153304Y101870D01*
X153301Y101890D01*
X153303Y101909D01*
X153281Y102011D01*
X153265Y102113D01*
X153255Y102130D01*
X153251Y102150D01*
X153198Y102239D01*
X153149Y102330D01*
X153135Y102344D01*
X153125Y102361D01*
X153046Y102428D01*
X152971Y102500D01*
X152953Y102508D01*
X152938Y102521D01*
X152842Y102560D01*
X152748Y102603D01*
X152728Y102605D01*
X152710Y102613D01*
X152543Y102631D01*
X152182Y102631D01*
X150256Y104557D01*
X150256Y107279D01*
X152182Y109205D01*
X152670Y109205D01*
X152690Y109208D01*
X152709Y109206D01*
X152811Y109228D01*
X152913Y109244D01*
X152930Y109254D01*
X152950Y109258D01*
X153039Y109311D01*
X153130Y109360D01*
X153144Y109374D01*
X153161Y109384D01*
X153228Y109463D01*
X153300Y109538D01*
X153308Y109556D01*
X153321Y109571D01*
X153360Y109667D01*
X153403Y109761D01*
X153405Y109781D01*
X153413Y109799D01*
X153431Y109966D01*
X153431Y112030D01*
X153428Y112050D01*
X153430Y112069D01*
X153408Y112171D01*
X153392Y112273D01*
X153382Y112290D01*
X153378Y112310D01*
X153325Y112399D01*
X153276Y112490D01*
X153262Y112504D01*
X153252Y112521D01*
X153173Y112588D01*
X153098Y112660D01*
X153080Y112668D01*
X153065Y112681D01*
X152969Y112720D01*
X152875Y112763D01*
X152855Y112765D01*
X152837Y112773D01*
X152670Y112791D01*
X152182Y112791D01*
X150256Y114717D01*
X150256Y117439D01*
X152357Y119540D01*
X152369Y119556D01*
X152384Y119569D01*
X152440Y119656D01*
X152501Y119740D01*
X152506Y119759D01*
X152517Y119776D01*
X152543Y119876D01*
X152573Y119975D01*
X152572Y119995D01*
X152577Y120014D01*
X152569Y120117D01*
X152567Y120221D01*
X152560Y120240D01*
X152558Y120259D01*
X152518Y120354D01*
X152482Y120452D01*
X152470Y120468D01*
X152462Y120486D01*
X152415Y120544D01*
X152415Y123431D01*
X152416Y123432D01*
X152446Y123531D01*
X152445Y123551D01*
X152450Y123570D01*
X152442Y123673D01*
X152440Y123777D01*
X152433Y123796D01*
X152431Y123816D01*
X152391Y123910D01*
X152355Y124008D01*
X152343Y124024D01*
X152335Y124042D01*
X152230Y124173D01*
X150383Y126020D01*
X150383Y128742D01*
X152309Y130668D01*
X155031Y130668D01*
X156957Y128742D01*
X156957Y125870D01*
X156957Y125869D01*
X156926Y125770D01*
X156927Y125750D01*
X156922Y125731D01*
X156930Y125628D01*
X156932Y125524D01*
X156939Y125505D01*
X156941Y125486D01*
X156981Y125391D01*
X157017Y125293D01*
X157029Y125278D01*
X157037Y125259D01*
X157142Y125128D01*
X158989Y123281D01*
X158989Y120559D01*
X156888Y118458D01*
X156876Y118442D01*
X156861Y118429D01*
X156829Y118380D01*
X156828Y118379D01*
X156827Y118377D01*
X156805Y118342D01*
X156744Y118258D01*
X156739Y118239D01*
X156728Y118222D01*
X156702Y118122D01*
X156672Y118023D01*
X156673Y118003D01*
X156668Y117984D01*
X156676Y117881D01*
X156678Y117777D01*
X156685Y117758D01*
X156687Y117738D01*
X156727Y117644D01*
X156763Y117546D01*
X156775Y117530D01*
X156783Y117512D01*
X156830Y117454D01*
X156830Y115300D01*
X156833Y115280D01*
X156831Y115261D01*
X156853Y115159D01*
X156869Y115057D01*
X156879Y115040D01*
X156883Y115020D01*
X156936Y114931D01*
X156985Y114840D01*
X156999Y114826D01*
X157009Y114809D01*
X157088Y114742D01*
X157163Y114670D01*
X157181Y114662D01*
X157196Y114649D01*
X157292Y114610D01*
X157386Y114567D01*
X157406Y114565D01*
X157424Y114557D01*
X157591Y114539D01*
X158079Y114539D01*
X160005Y112613D01*
X160005Y109891D01*
X158079Y107965D01*
X157591Y107965D01*
X157571Y107962D01*
X157552Y107964D01*
X157450Y107942D01*
X157348Y107926D01*
X157331Y107916D01*
X157311Y107912D01*
X157222Y107859D01*
X157131Y107810D01*
X157117Y107796D01*
X157100Y107786D01*
X157033Y107707D01*
X156961Y107632D01*
X156953Y107614D01*
X156940Y107599D01*
X156901Y107503D01*
X156858Y107409D01*
X156856Y107389D01*
X156848Y107371D01*
X156830Y107204D01*
X156830Y105013D01*
X156833Y104993D01*
X156831Y104974D01*
X156853Y104872D01*
X156869Y104770D01*
X156879Y104753D01*
X156883Y104733D01*
X156936Y104644D01*
X156985Y104553D01*
X156999Y104539D01*
X157009Y104522D01*
X157088Y104455D01*
X157163Y104383D01*
X157181Y104375D01*
X157196Y104362D01*
X157292Y104323D01*
X157386Y104280D01*
X157406Y104278D01*
X157424Y104270D01*
X157591Y104252D01*
X157952Y104252D01*
X159878Y102326D01*
X159878Y99604D01*
X157952Y97678D01*
X157464Y97678D01*
X157444Y97675D01*
X157425Y97677D01*
X157323Y97655D01*
X157221Y97639D01*
X157204Y97629D01*
X157184Y97625D01*
X157095Y97572D01*
X157004Y97523D01*
X156990Y97509D01*
X156973Y97499D01*
X156906Y97420D01*
X156834Y97345D01*
X156826Y97327D01*
X156813Y97312D01*
X156774Y97216D01*
X156731Y97122D01*
X156729Y97102D01*
X156721Y97084D01*
X156703Y96917D01*
X156703Y95107D01*
X156706Y95090D01*
X156704Y95074D01*
X156704Y95072D01*
X156704Y95068D01*
X156726Y94966D01*
X156742Y94864D01*
X156752Y94847D01*
X156756Y94827D01*
X156809Y94738D01*
X156858Y94647D01*
X156872Y94633D01*
X156882Y94616D01*
X156961Y94549D01*
X157036Y94477D01*
X157054Y94469D01*
X157069Y94456D01*
X157165Y94417D01*
X157259Y94374D01*
X157279Y94372D01*
X157297Y94364D01*
X157464Y94346D01*
X157952Y94346D01*
X159878Y92420D01*
X159878Y89698D01*
X157952Y87772D01*
X155230Y87772D01*
G37*
%LPD*%
%LPC*%
G36*
X94158Y40766D02*
X94158Y40766D01*
X92074Y42850D01*
X92074Y45796D01*
X94280Y48002D01*
X94333Y48076D01*
X94393Y48146D01*
X94405Y48176D01*
X94424Y48202D01*
X94451Y48289D01*
X94485Y48374D01*
X94489Y48415D01*
X94496Y48437D01*
X94495Y48469D01*
X94503Y48541D01*
X94503Y50435D01*
X94500Y50455D01*
X94502Y50474D01*
X94480Y50576D01*
X94464Y50678D01*
X94454Y50695D01*
X94450Y50715D01*
X94397Y50804D01*
X94348Y50895D01*
X94334Y50909D01*
X94324Y50926D01*
X94245Y50993D01*
X94170Y51065D01*
X94152Y51073D01*
X94137Y51086D01*
X94041Y51125D01*
X93947Y51168D01*
X93927Y51170D01*
X93909Y51178D01*
X93742Y51196D01*
X92619Y51196D01*
X90693Y53122D01*
X90693Y55844D01*
X92619Y57770D01*
X95341Y57770D01*
X97267Y55844D01*
X97267Y54086D01*
X97270Y54066D01*
X97268Y54047D01*
X97290Y53945D01*
X97306Y53843D01*
X97316Y53826D01*
X97320Y53806D01*
X97373Y53717D01*
X97422Y53626D01*
X97436Y53612D01*
X97446Y53595D01*
X97525Y53528D01*
X97600Y53456D01*
X97618Y53448D01*
X97633Y53435D01*
X97729Y53396D01*
X97823Y53353D01*
X97843Y53351D01*
X97861Y53343D01*
X98028Y53325D01*
X99187Y53325D01*
X99203Y53317D01*
X99245Y53287D01*
X99314Y53266D01*
X99379Y53236D01*
X99431Y53230D01*
X99480Y53214D01*
X99552Y53216D01*
X99623Y53208D01*
X99674Y53220D01*
X99726Y53221D01*
X99794Y53245D01*
X99864Y53261D01*
X99909Y53287D01*
X99957Y53305D01*
X100013Y53350D01*
X100075Y53387D01*
X100109Y53426D01*
X100149Y53459D01*
X100188Y53519D01*
X100235Y53574D01*
X100254Y53622D01*
X100282Y53666D01*
X100300Y53735D01*
X100327Y53802D01*
X100335Y53873D01*
X100343Y53904D01*
X100341Y53928D01*
X100345Y53969D01*
X100345Y54574D01*
X102271Y56500D01*
X104993Y56500D01*
X105650Y55843D01*
X105708Y55802D01*
X105760Y55752D01*
X105807Y55730D01*
X105849Y55700D01*
X105918Y55679D01*
X105983Y55649D01*
X106035Y55643D01*
X106085Y55627D01*
X106156Y55629D01*
X106227Y55621D01*
X106278Y55633D01*
X106330Y55634D01*
X106398Y55658D01*
X106468Y55674D01*
X106513Y55700D01*
X106561Y55718D01*
X106617Y55763D01*
X106679Y55800D01*
X106713Y55839D01*
X106753Y55872D01*
X106792Y55932D01*
X106839Y55987D01*
X106858Y56035D01*
X106886Y56079D01*
X106904Y56148D01*
X106931Y56215D01*
X106939Y56286D01*
X106947Y56317D01*
X106945Y56341D01*
X106949Y56382D01*
X106949Y56733D01*
X108875Y58659D01*
X111597Y58659D01*
X113523Y56733D01*
X113523Y54011D01*
X111597Y52085D01*
X108875Y52085D01*
X108218Y52742D01*
X108160Y52783D01*
X108108Y52833D01*
X108061Y52855D01*
X108019Y52885D01*
X107950Y52906D01*
X107885Y52936D01*
X107833Y52942D01*
X107783Y52958D01*
X107712Y52956D01*
X107641Y52964D01*
X107590Y52952D01*
X107538Y52951D01*
X107470Y52927D01*
X107400Y52911D01*
X107355Y52885D01*
X107307Y52867D01*
X107251Y52822D01*
X107189Y52785D01*
X107155Y52746D01*
X107115Y52713D01*
X107076Y52653D01*
X107029Y52598D01*
X107010Y52550D01*
X106982Y52506D01*
X106964Y52437D01*
X106937Y52370D01*
X106929Y52299D01*
X106921Y52268D01*
X106923Y52244D01*
X106919Y52203D01*
X106919Y51852D01*
X104993Y49926D01*
X102235Y49926D01*
X102219Y49934D01*
X102177Y49964D01*
X102108Y49985D01*
X102043Y50015D01*
X101991Y50021D01*
X101942Y50037D01*
X101870Y50035D01*
X101799Y50043D01*
X101748Y50031D01*
X101696Y50030D01*
X101628Y50006D01*
X101558Y49990D01*
X101513Y49964D01*
X101465Y49946D01*
X101409Y49901D01*
X101347Y49864D01*
X101313Y49825D01*
X101273Y49792D01*
X101234Y49732D01*
X101187Y49677D01*
X101168Y49629D01*
X101140Y49585D01*
X101122Y49516D01*
X101095Y49449D01*
X101087Y49378D01*
X101079Y49347D01*
X101081Y49323D01*
X101077Y49282D01*
X101077Y48677D01*
X99230Y46830D01*
X99219Y46814D01*
X99203Y46802D01*
X99147Y46714D01*
X99087Y46630D01*
X99081Y46611D01*
X99070Y46595D01*
X99045Y46494D01*
X99014Y46395D01*
X99015Y46375D01*
X99010Y46356D01*
X99018Y46253D01*
X99021Y46150D01*
X99028Y46131D01*
X99029Y46111D01*
X99070Y46016D01*
X99105Y45918D01*
X99118Y45903D01*
X99126Y45885D01*
X99188Y45807D01*
X99188Y42850D01*
X97104Y40766D01*
X94158Y40766D01*
G37*
%LPD*%
%LPC*%
G36*
X75855Y54879D02*
X75855Y54879D01*
X73929Y56805D01*
X73929Y59527D01*
X74951Y60549D01*
X74962Y60565D01*
X74978Y60577D01*
X75034Y60665D01*
X75094Y60748D01*
X75100Y60767D01*
X75111Y60784D01*
X75136Y60885D01*
X75166Y60984D01*
X75166Y61003D01*
X75171Y61023D01*
X75163Y61126D01*
X75160Y61229D01*
X75153Y61248D01*
X75152Y61268D01*
X75111Y61363D01*
X75076Y61460D01*
X75063Y61476D01*
X75055Y61494D01*
X74951Y61625D01*
X73436Y63140D01*
X73420Y63151D01*
X73408Y63167D01*
X73321Y63223D01*
X73237Y63283D01*
X73217Y63289D01*
X73201Y63300D01*
X73100Y63325D01*
X73001Y63355D01*
X72982Y63355D01*
X72962Y63360D01*
X72859Y63352D01*
X72756Y63349D01*
X72737Y63342D01*
X72717Y63341D01*
X72622Y63300D01*
X72525Y63265D01*
X72509Y63252D01*
X72491Y63244D01*
X72360Y63140D01*
X71211Y61991D01*
X68489Y61991D01*
X66563Y63917D01*
X66563Y65167D01*
X66560Y65187D01*
X66562Y65206D01*
X66540Y65308D01*
X66524Y65410D01*
X66514Y65427D01*
X66510Y65447D01*
X66457Y65536D01*
X66408Y65627D01*
X66394Y65641D01*
X66384Y65658D01*
X66305Y65725D01*
X66230Y65797D01*
X66212Y65805D01*
X66197Y65818D01*
X66101Y65857D01*
X66007Y65900D01*
X65987Y65902D01*
X65969Y65910D01*
X65802Y65928D01*
X64171Y65928D01*
X62245Y67854D01*
X62245Y70576D01*
X64171Y72502D01*
X66893Y72502D01*
X68819Y70576D01*
X68819Y69326D01*
X68822Y69306D01*
X68820Y69287D01*
X68842Y69185D01*
X68858Y69083D01*
X68868Y69066D01*
X68872Y69046D01*
X68925Y68957D01*
X68974Y68866D01*
X68988Y68852D01*
X68998Y68835D01*
X69077Y68768D01*
X69152Y68696D01*
X69170Y68688D01*
X69185Y68675D01*
X69281Y68636D01*
X69375Y68593D01*
X69395Y68591D01*
X69413Y68583D01*
X69580Y68565D01*
X71211Y68565D01*
X73122Y66654D01*
X73138Y66643D01*
X73150Y66627D01*
X73238Y66571D01*
X73321Y66511D01*
X73340Y66505D01*
X73357Y66494D01*
X73458Y66469D01*
X73557Y66439D01*
X73576Y66439D01*
X73596Y66434D01*
X73699Y66442D01*
X73802Y66445D01*
X73821Y66452D01*
X73841Y66453D01*
X73936Y66494D01*
X74033Y66529D01*
X74049Y66542D01*
X74067Y66550D01*
X74198Y66654D01*
X75347Y67803D01*
X78069Y67803D01*
X79995Y65877D01*
X79995Y63155D01*
X78973Y62133D01*
X78962Y62117D01*
X78946Y62105D01*
X78916Y62057D01*
X78906Y62047D01*
X78897Y62029D01*
X78890Y62017D01*
X78830Y61934D01*
X78824Y61915D01*
X78813Y61898D01*
X78788Y61797D01*
X78758Y61698D01*
X78758Y61679D01*
X78753Y61659D01*
X78761Y61556D01*
X78764Y61453D01*
X78771Y61434D01*
X78772Y61414D01*
X78813Y61319D01*
X78848Y61222D01*
X78861Y61206D01*
X78869Y61188D01*
X78973Y61057D01*
X80503Y59527D01*
X80503Y56805D01*
X78577Y54879D01*
X75855Y54879D01*
G37*
%LPD*%
%LPC*%
G36*
X28118Y92455D02*
X28118Y92455D01*
X26034Y94539D01*
X26034Y97485D01*
X28118Y99569D01*
X31064Y99569D01*
X31720Y98913D01*
X31736Y98902D01*
X31748Y98886D01*
X31836Y98830D01*
X31919Y98770D01*
X31938Y98764D01*
X31955Y98753D01*
X32056Y98728D01*
X32155Y98697D01*
X32174Y98698D01*
X32194Y98693D01*
X32297Y98701D01*
X32400Y98704D01*
X32419Y98711D01*
X32439Y98712D01*
X32534Y98753D01*
X32631Y98788D01*
X32647Y98801D01*
X32665Y98808D01*
X32796Y98913D01*
X33452Y99569D01*
X36398Y99569D01*
X37054Y98913D01*
X37070Y98902D01*
X37082Y98886D01*
X37170Y98830D01*
X37253Y98770D01*
X37272Y98764D01*
X37289Y98753D01*
X37390Y98728D01*
X37489Y98697D01*
X37508Y98698D01*
X37528Y98693D01*
X37631Y98701D01*
X37734Y98704D01*
X37753Y98711D01*
X37773Y98712D01*
X37868Y98753D01*
X37965Y98788D01*
X37981Y98801D01*
X37999Y98808D01*
X38130Y98913D01*
X38786Y99569D01*
X41732Y99569D01*
X43816Y97485D01*
X43816Y94539D01*
X41732Y92455D01*
X38786Y92455D01*
X38130Y93111D01*
X38114Y93122D01*
X38102Y93138D01*
X38014Y93194D01*
X37931Y93254D01*
X37912Y93260D01*
X37895Y93271D01*
X37794Y93296D01*
X37695Y93327D01*
X37676Y93326D01*
X37656Y93331D01*
X37553Y93323D01*
X37450Y93320D01*
X37431Y93313D01*
X37411Y93312D01*
X37316Y93271D01*
X37219Y93236D01*
X37203Y93223D01*
X37185Y93216D01*
X37054Y93111D01*
X36398Y92455D01*
X33452Y92455D01*
X32796Y93111D01*
X32780Y93122D01*
X32768Y93138D01*
X32680Y93194D01*
X32597Y93254D01*
X32578Y93260D01*
X32561Y93271D01*
X32460Y93296D01*
X32361Y93327D01*
X32342Y93326D01*
X32322Y93331D01*
X32219Y93323D01*
X32116Y93320D01*
X32097Y93313D01*
X32077Y93312D01*
X31982Y93271D01*
X31885Y93236D01*
X31869Y93223D01*
X31851Y93216D01*
X31720Y93111D01*
X31064Y92455D01*
X28118Y92455D01*
G37*
%LPD*%
%LPC*%
G36*
X65202Y139572D02*
X65202Y139572D01*
X63118Y141656D01*
X63118Y144602D01*
X63964Y145448D01*
X63976Y145464D01*
X63991Y145477D01*
X64048Y145564D01*
X64108Y145648D01*
X64114Y145667D01*
X64124Y145684D01*
X64150Y145784D01*
X64180Y145883D01*
X64180Y145903D01*
X64184Y145922D01*
X64176Y146025D01*
X64174Y146129D01*
X64167Y146148D01*
X64165Y146168D01*
X64125Y146262D01*
X64089Y146360D01*
X64077Y146376D01*
X64069Y146394D01*
X63964Y146525D01*
X63118Y147371D01*
X63118Y150317D01*
X65202Y152401D01*
X68148Y152401D01*
X70232Y150317D01*
X70232Y147371D01*
X69386Y146525D01*
X69374Y146509D01*
X69359Y146496D01*
X69302Y146409D01*
X69242Y146325D01*
X69236Y146306D01*
X69226Y146289D01*
X69200Y146189D01*
X69170Y146090D01*
X69170Y146070D01*
X69166Y146051D01*
X69174Y145948D01*
X69176Y145844D01*
X69183Y145825D01*
X69185Y145806D01*
X69225Y145711D01*
X69261Y145613D01*
X69273Y145597D01*
X69281Y145579D01*
X69386Y145448D01*
X70232Y144602D01*
X70232Y141656D01*
X68148Y139572D01*
X65202Y139572D01*
G37*
%LPD*%
%LPC*%
G36*
X32944Y126237D02*
X32944Y126237D01*
X30860Y128321D01*
X30860Y131267D01*
X32944Y133351D01*
X35890Y133351D01*
X36609Y132632D01*
X36625Y132620D01*
X36638Y132605D01*
X36702Y132563D01*
X36747Y132525D01*
X36772Y132515D01*
X36809Y132488D01*
X36828Y132482D01*
X36845Y132472D01*
X36938Y132448D01*
X36975Y132433D01*
X36995Y132431D01*
X37044Y132416D01*
X37064Y132416D01*
X37083Y132412D01*
X37135Y132416D01*
X37142Y132415D01*
X37153Y132415D01*
X37180Y132419D01*
X37186Y132420D01*
X37290Y132422D01*
X37309Y132429D01*
X37329Y132431D01*
X37377Y132451D01*
X37396Y132454D01*
X37436Y132476D01*
X37521Y132507D01*
X37537Y132519D01*
X37555Y132527D01*
X37597Y132561D01*
X37614Y132570D01*
X37631Y132588D01*
X37686Y132632D01*
X38532Y133478D01*
X41478Y133478D01*
X43562Y131394D01*
X43562Y128448D01*
X41478Y126364D01*
X38532Y126364D01*
X37813Y127083D01*
X37797Y127095D01*
X37784Y127110D01*
X37697Y127166D01*
X37613Y127227D01*
X37594Y127233D01*
X37577Y127243D01*
X37477Y127269D01*
X37378Y127299D01*
X37358Y127299D01*
X37339Y127303D01*
X37236Y127295D01*
X37132Y127293D01*
X37113Y127286D01*
X37094Y127284D01*
X36999Y127244D01*
X36901Y127208D01*
X36885Y127196D01*
X36867Y127188D01*
X36736Y127083D01*
X35890Y126237D01*
X32944Y126237D01*
G37*
%LPD*%
%LPC*%
G36*
X67742Y49783D02*
X67742Y49783D01*
X65658Y51867D01*
X65658Y52959D01*
X65655Y52979D01*
X65657Y52998D01*
X65635Y53100D01*
X65619Y53202D01*
X65609Y53219D01*
X65605Y53239D01*
X65552Y53328D01*
X65503Y53419D01*
X65489Y53433D01*
X65479Y53450D01*
X65400Y53517D01*
X65325Y53589D01*
X65307Y53597D01*
X65292Y53610D01*
X65196Y53649D01*
X65102Y53692D01*
X65082Y53694D01*
X65064Y53702D01*
X64897Y53720D01*
X64059Y53720D01*
X61975Y55804D01*
X61975Y58750D01*
X64059Y60834D01*
X67005Y60834D01*
X69089Y58750D01*
X69089Y57658D01*
X69092Y57638D01*
X69090Y57619D01*
X69112Y57517D01*
X69128Y57415D01*
X69138Y57398D01*
X69142Y57378D01*
X69195Y57289D01*
X69244Y57198D01*
X69258Y57184D01*
X69268Y57167D01*
X69347Y57100D01*
X69422Y57028D01*
X69440Y57020D01*
X69455Y57007D01*
X69551Y56968D01*
X69645Y56925D01*
X69665Y56923D01*
X69683Y56915D01*
X69850Y56897D01*
X70688Y56897D01*
X72772Y54813D01*
X72772Y51867D01*
X70688Y49783D01*
X67742Y49783D01*
G37*
%LPD*%
%LPC*%
G36*
X148133Y59562D02*
X148133Y59562D01*
X146049Y61646D01*
X146049Y64592D01*
X148133Y66676D01*
X151079Y66676D01*
X153163Y64592D01*
X153163Y61646D01*
X151079Y59562D01*
X148133Y59562D01*
G37*
%LPD*%
%LPC*%
G36*
X116392Y36458D02*
X116392Y36458D01*
X114309Y38541D01*
X114309Y41488D01*
X116392Y43571D01*
X119339Y43571D01*
X121422Y41488D01*
X121422Y38541D01*
X119339Y36458D01*
X116392Y36458D01*
G37*
%LPD*%
%LPC*%
G36*
X85784Y151657D02*
X85784Y151657D01*
X83712Y153729D01*
X83712Y156659D01*
X85784Y158731D01*
X88714Y158731D01*
X90786Y156659D01*
X90786Y153729D01*
X88714Y151657D01*
X85784Y151657D01*
G37*
%LPD*%
%LPC*%
G36*
X142426Y140862D02*
X142426Y140862D01*
X140354Y142934D01*
X140354Y145864D01*
X142426Y147936D01*
X145356Y147936D01*
X147428Y145864D01*
X147428Y142934D01*
X145356Y140862D01*
X142426Y140862D01*
G37*
%LPD*%
%LPC*%
G36*
X76236Y129682D02*
X76236Y129682D01*
X74310Y131608D01*
X74310Y134330D01*
X76236Y136256D01*
X78958Y136256D01*
X80884Y134330D01*
X80884Y131608D01*
X78958Y129682D01*
X76236Y129682D01*
G37*
%LPD*%
%LPC*%
G36*
X84491Y49164D02*
X84491Y49164D01*
X82565Y51090D01*
X82565Y53812D01*
X84491Y55738D01*
X87213Y55738D01*
X89139Y53812D01*
X89139Y51090D01*
X87213Y49164D01*
X84491Y49164D01*
G37*
%LPD*%
%LPC*%
G36*
X73696Y16017D02*
X73696Y16017D01*
X71770Y17943D01*
X71770Y20665D01*
X73696Y22591D01*
X76418Y22591D01*
X78344Y20665D01*
X78344Y17943D01*
X76418Y16017D01*
X73696Y16017D01*
G37*
%LPD*%
D10*
X112903Y6096D03*
X125603Y6096D03*
X138303Y6096D03*
X151003Y6096D03*
X163703Y6096D03*
X100203Y6096D03*
X87503Y6096D03*
X74803Y6096D03*
X62103Y6096D03*
X49403Y6096D03*
X36703Y6096D03*
X24003Y6096D03*
X11303Y6096D03*
X112903Y172466D03*
X125603Y172466D03*
X138303Y172466D03*
X151003Y172466D03*
X163703Y172466D03*
X100203Y172466D03*
X87503Y172466D03*
X74803Y172466D03*
X62103Y172466D03*
X49403Y172466D03*
X36703Y172466D03*
X24003Y172466D03*
X11303Y172466D03*
X3048Y82804D03*
X3048Y70104D03*
X3048Y57404D03*
X3048Y44704D03*
X3048Y32004D03*
X3048Y95504D03*
X3048Y108204D03*
X3048Y120904D03*
X3048Y133604D03*
X3048Y146304D03*
D11*
X65532Y69215D03*
D12*
X117865Y40014D03*
X149606Y63119D03*
X34925Y96012D03*
X29591Y96012D03*
X40259Y96012D03*
X66675Y148844D03*
X65532Y57277D03*
X69215Y53340D03*
X95631Y44323D03*
X66675Y143129D03*
D13*
X143891Y144399D03*
X87249Y155194D03*
D12*
X124206Y111887D03*
X110871Y98552D03*
X97536Y111887D03*
X110871Y111887D03*
X124206Y98552D03*
X124206Y85217D03*
X110871Y85217D03*
X97536Y85217D03*
X97536Y98552D03*
D11*
X163830Y129921D03*
D12*
X64643Y137287D03*
D11*
X95377Y32385D03*
X150114Y39370D03*
D12*
X97536Y122301D03*
X110490Y122428D03*
X124206Y122301D03*
X97409Y74676D03*
X110871Y74676D03*
X124460Y74676D03*
D11*
X204470Y54610D03*
D13*
X36322Y27178D03*
X37846Y49657D03*
X21717Y95885D03*
D11*
X190500Y168910D03*
X190500Y135890D03*
X190500Y129540D03*
X162560Y62230D03*
X162560Y53340D03*
X162560Y40640D03*
X190500Y162560D03*
X190500Y154940D03*
X190500Y148590D03*
X190500Y142240D03*
X7620Y156210D03*
X6350Y17780D03*
X11430Y87630D03*
X11430Y62230D03*
X119380Y165100D03*
X107950Y165100D03*
X20955Y142748D03*
X21590Y127381D03*
X118364Y26797D03*
X148971Y22352D03*
X187960Y41656D03*
D12*
X87376Y122301D03*
X87376Y111887D03*
X87376Y98552D03*
X87376Y85217D03*
X87249Y74676D03*
X134366Y122301D03*
X134366Y111887D03*
D11*
X231140Y74930D03*
X231140Y82550D03*
X231140Y91440D03*
X223520Y91440D03*
X223520Y82550D03*
X223520Y74930D03*
X204470Y63500D03*
X195580Y48260D03*
X187960Y48260D03*
X187960Y54610D03*
X195580Y54610D03*
X223520Y99060D03*
X223520Y106680D03*
X223520Y113030D03*
X223520Y120650D03*
X223520Y128270D03*
X231140Y128270D03*
X231140Y120650D03*
X231140Y113030D03*
X231140Y106680D03*
X231140Y99060D03*
X208280Y113030D03*
X208280Y120650D03*
X95377Y23495D03*
X187960Y34036D03*
X187960Y26416D03*
X187960Y18796D03*
X187960Y11176D03*
X200660Y36576D03*
X200660Y28956D03*
X200660Y21336D03*
X228600Y28956D03*
X228600Y36576D03*
X228600Y21336D03*
X195707Y11176D03*
X231140Y11176D03*
X223520Y67310D03*
X223520Y59690D03*
X223520Y52070D03*
X204470Y48260D03*
X231140Y67310D03*
X231140Y59690D03*
X231140Y52070D03*
X215900Y82550D03*
X215900Y91440D03*
X215900Y99060D03*
X215900Y106680D03*
X215900Y113030D03*
X215900Y120650D03*
X215900Y128270D03*
X208280Y128270D03*
X199390Y128270D03*
X199390Y135890D03*
X199390Y142240D03*
X199390Y148590D03*
X199390Y154940D03*
X199390Y162560D03*
X199390Y168910D03*
X208280Y135890D03*
X208280Y142240D03*
X208280Y148590D03*
X208280Y154940D03*
X208280Y162560D03*
X208280Y168910D03*
X215900Y135890D03*
X223520Y135890D03*
X231140Y135890D03*
X215900Y142240D03*
X223520Y142240D03*
X231140Y142240D03*
X215900Y148590D03*
X223520Y148590D03*
X231140Y148590D03*
X215900Y154940D03*
X215900Y162560D03*
X215900Y168910D03*
X223520Y154940D03*
X223520Y162560D03*
X223520Y168910D03*
X231140Y154940D03*
X231140Y162560D03*
X231140Y168910D03*
X208280Y106680D03*
X208280Y99060D03*
X199390Y120650D03*
X199390Y113030D03*
X199390Y106680D03*
X199390Y99060D03*
X190500Y120650D03*
X190500Y113030D03*
X190500Y106680D03*
X190500Y99060D03*
X223647Y11176D03*
X177800Y99060D03*
X179070Y106680D03*
X179070Y113030D03*
X179070Y120650D03*
X168910Y99060D03*
X168910Y106680D03*
X168910Y113030D03*
X168910Y120650D03*
X182880Y168910D03*
X173990Y168910D03*
X190500Y92710D03*
X190500Y85090D03*
X195580Y63500D03*
X187960Y63500D03*
X203454Y11303D03*
D12*
X40005Y129921D03*
X34417Y129794D03*
D11*
X75057Y19304D03*
X68072Y125857D03*
X77597Y132969D03*
X153416Y96139D03*
X156591Y100965D03*
X153543Y105918D03*
X156718Y111252D03*
X153543Y116078D03*
X155702Y121920D03*
X133731Y143256D03*
X128270Y141224D03*
X123317Y144526D03*
X118110Y140970D03*
X113538Y144653D03*
X108331Y140843D03*
D13*
X24130Y43180D03*
D14*
X24130Y85090D01*
X15240Y93980D01*
X15240Y153670D01*
X25400Y163830D02*
X93980Y163830D01*
X100203Y170053D01*
X25400Y163830D02*
X15240Y153670D01*
X100203Y170053D02*
X100203Y172466D01*
D11*
X103632Y144272D03*
X98425Y141224D03*
X64389Y120396D03*
X68199Y115824D03*
X64643Y111252D03*
X67945Y105918D03*
X64262Y101092D03*
X68453Y96139D03*
X64135Y91694D03*
X69850Y65278D03*
X76708Y64516D03*
X77216Y58166D03*
X85852Y52451D03*
X93980Y54483D03*
X97790Y50038D03*
X103632Y53213D03*
X110236Y55372D03*
X156591Y91059D03*
X153670Y127381D03*
M02*
