G04 EAGLE Gerber RS-274X export*
G75*
%MOMM*%
%FSLAX34Y34*%
%LPD*%
%INBottom Copper*%
%IPPOS*%
%AMOC8*
5,1,8,0,0,1.08239X$1,22.5*%
G01*
%ADD10C,1.050000*%
%ADD11C,0.450000*%
%ADD12C,0.152400*%
%ADD13C,0.457200*%
%ADD14C,0.453200*%
%ADD15C,0.406400*%

G36*
X234289Y7581D02*
X234289Y7581D01*
X234340Y7583D01*
X234372Y7601D01*
X234408Y7609D01*
X234447Y7642D01*
X234492Y7666D01*
X234513Y7696D01*
X234541Y7719D01*
X234562Y7766D01*
X234592Y7808D01*
X234600Y7850D01*
X234612Y7878D01*
X234611Y7908D01*
X234619Y7950D01*
X234619Y102870D01*
X234608Y102920D01*
X234606Y102971D01*
X234588Y103003D01*
X234580Y103039D01*
X234547Y103078D01*
X234523Y103123D01*
X234493Y103144D01*
X234470Y103172D01*
X234423Y103193D01*
X234381Y103223D01*
X234339Y103231D01*
X234311Y103243D01*
X234281Y103242D01*
X234239Y103250D01*
X195960Y103250D01*
X195960Y170866D01*
X195949Y170916D01*
X195947Y170967D01*
X195929Y170999D01*
X195921Y171035D01*
X195888Y171074D01*
X195864Y171119D01*
X195834Y171140D01*
X195811Y171168D01*
X195764Y171189D01*
X195722Y171219D01*
X195680Y171227D01*
X195652Y171239D01*
X195622Y171238D01*
X195580Y171246D01*
X170510Y171246D01*
X170448Y171232D01*
X170385Y171225D01*
X170365Y171212D01*
X170341Y171207D01*
X170292Y171166D01*
X170238Y171132D01*
X170224Y171110D01*
X170207Y171097D01*
X170192Y171062D01*
X170159Y171012D01*
X169231Y168772D01*
X167397Y166938D01*
X165000Y165945D01*
X162406Y165945D01*
X161070Y166499D01*
X161007Y166509D01*
X160946Y166527D01*
X160922Y166523D01*
X160899Y166527D01*
X160838Y166508D01*
X160775Y166497D01*
X160753Y166482D01*
X160733Y166476D01*
X160705Y166450D01*
X160655Y166416D01*
X151083Y156844D01*
X138922Y156844D01*
X138848Y156827D01*
X138773Y156814D01*
X138763Y156807D01*
X138753Y156805D01*
X138724Y156781D01*
X138653Y156733D01*
X135875Y153955D01*
X135835Y153891D01*
X135791Y153829D01*
X135789Y153817D01*
X135784Y153808D01*
X135780Y153771D01*
X135764Y153686D01*
X135764Y146360D01*
X135775Y146310D01*
X135777Y146260D01*
X135789Y146238D01*
X135794Y146211D01*
X135801Y146201D01*
X135803Y146191D01*
X135827Y146162D01*
X135845Y146135D01*
X135860Y146108D01*
X135867Y146103D01*
X135875Y146091D01*
X137252Y144714D01*
X137252Y141798D01*
X135189Y139735D01*
X132265Y139735D01*
X132242Y139749D01*
X132205Y139784D01*
X132169Y139795D01*
X132138Y139814D01*
X132087Y139819D01*
X132038Y139833D01*
X132002Y139827D01*
X131966Y139831D01*
X131918Y139812D01*
X131868Y139804D01*
X131832Y139780D01*
X131804Y139769D01*
X131783Y139746D01*
X131748Y139723D01*
X129728Y137703D01*
X126812Y137703D01*
X124749Y139766D01*
X124749Y140625D01*
X124738Y140675D01*
X124736Y140726D01*
X124718Y140758D01*
X124710Y140794D01*
X124677Y140833D01*
X124653Y140878D01*
X124623Y140899D01*
X124600Y140927D01*
X124553Y140948D01*
X124511Y140978D01*
X124469Y140986D01*
X124441Y140998D01*
X124411Y140997D01*
X124369Y141005D01*
X122011Y141005D01*
X121961Y140994D01*
X121910Y140992D01*
X121878Y140974D01*
X121842Y140966D01*
X121803Y140933D01*
X121758Y140909D01*
X121737Y140879D01*
X121709Y140856D01*
X121688Y140809D01*
X121658Y140767D01*
X121650Y140725D01*
X121638Y140697D01*
X121639Y140667D01*
X121631Y140625D01*
X121631Y139512D01*
X119568Y137449D01*
X116652Y137449D01*
X114589Y139512D01*
X114589Y140752D01*
X114578Y140802D01*
X114576Y140853D01*
X114558Y140885D01*
X114550Y140921D01*
X114517Y140960D01*
X114493Y141005D01*
X114463Y141026D01*
X114440Y141054D01*
X114393Y141075D01*
X114351Y141105D01*
X114309Y141113D01*
X114281Y141125D01*
X114251Y141124D01*
X114209Y141132D01*
X112232Y141132D01*
X112182Y141121D01*
X112131Y141119D01*
X112099Y141101D01*
X112063Y141093D01*
X112024Y141060D01*
X111979Y141036D01*
X111958Y141006D01*
X111930Y140983D01*
X111909Y140936D01*
X111879Y140894D01*
X111871Y140852D01*
X111859Y140824D01*
X111860Y140794D01*
X111852Y140752D01*
X111852Y139385D01*
X109789Y137322D01*
X106873Y137322D01*
X104810Y139385D01*
X104810Y140371D01*
X104799Y140421D01*
X104797Y140472D01*
X104779Y140504D01*
X104771Y140540D01*
X104738Y140579D01*
X104714Y140624D01*
X104684Y140645D01*
X104661Y140673D01*
X104614Y140694D01*
X104572Y140724D01*
X104530Y140732D01*
X104502Y140744D01*
X104472Y140743D01*
X104430Y140751D01*
X102326Y140751D01*
X102276Y140740D01*
X102225Y140738D01*
X102193Y140720D01*
X102157Y140712D01*
X102118Y140679D01*
X102073Y140655D01*
X102052Y140625D01*
X102024Y140602D01*
X102003Y140555D01*
X101973Y140513D01*
X101965Y140471D01*
X101953Y140443D01*
X101954Y140413D01*
X101946Y140371D01*
X101946Y139766D01*
X99883Y137703D01*
X96967Y137703D01*
X94904Y139766D01*
X94904Y142682D01*
X96281Y144059D01*
X96321Y144124D01*
X96365Y144186D01*
X96367Y144198D01*
X96372Y144206D01*
X96376Y144243D01*
X96392Y144328D01*
X96392Y151401D01*
X96375Y151475D01*
X96362Y151549D01*
X96355Y151559D01*
X96353Y151569D01*
X96329Y151598D01*
X96281Y151669D01*
X91435Y156515D01*
X91413Y156529D01*
X91397Y156549D01*
X91340Y156574D01*
X91288Y156607D01*
X91262Y156609D01*
X91238Y156620D01*
X91177Y156617D01*
X91115Y156623D01*
X91091Y156614D01*
X91065Y156613D01*
X91011Y156584D01*
X90953Y156562D01*
X90936Y156543D01*
X90913Y156530D01*
X90878Y156480D01*
X90836Y156435D01*
X90828Y156410D01*
X90813Y156389D01*
X90797Y156304D01*
X90786Y156268D01*
X90788Y156259D01*
X90786Y156247D01*
X90786Y153729D01*
X88714Y151657D01*
X85784Y151657D01*
X83712Y153729D01*
X83712Y156659D01*
X84391Y157338D01*
X84405Y157360D01*
X84425Y157376D01*
X84450Y157433D01*
X84483Y157485D01*
X84485Y157511D01*
X84496Y157535D01*
X84494Y157596D01*
X84499Y157658D01*
X84490Y157682D01*
X84489Y157708D01*
X84460Y157762D01*
X84438Y157820D01*
X84419Y157837D01*
X84407Y157860D01*
X84356Y157895D01*
X84311Y157937D01*
X84286Y157945D01*
X84265Y157960D01*
X84180Y157976D01*
X84145Y157987D01*
X84135Y157985D01*
X84123Y157987D01*
X78660Y157987D01*
X72770Y163877D01*
X72770Y165996D01*
X72756Y166058D01*
X72749Y166121D01*
X72736Y166141D01*
X72731Y166165D01*
X72690Y166214D01*
X72656Y166267D01*
X72634Y166282D01*
X72621Y166298D01*
X72586Y166314D01*
X72536Y166347D01*
X71109Y166938D01*
X69275Y168772D01*
X68804Y169909D01*
X68789Y169930D01*
X68782Y169954D01*
X68739Y169999D01*
X68703Y170049D01*
X68680Y170062D01*
X68663Y170080D01*
X68605Y170102D01*
X68550Y170131D01*
X68524Y170131D01*
X68500Y170140D01*
X68439Y170134D01*
X68377Y170136D01*
X68354Y170125D01*
X68328Y170122D01*
X68276Y170089D01*
X68220Y170063D01*
X68203Y170043D01*
X68182Y170030D01*
X68134Y169958D01*
X68111Y169929D01*
X68109Y169919D01*
X68102Y169909D01*
X67631Y168772D01*
X66452Y167593D01*
X66425Y167550D01*
X66390Y167512D01*
X66380Y167477D01*
X66360Y167446D01*
X66355Y167395D01*
X66341Y167346D01*
X66347Y167310D01*
X66344Y167273D01*
X66362Y167226D01*
X66371Y167175D01*
X66394Y167140D01*
X66405Y167111D01*
X66428Y167090D01*
X66452Y167055D01*
X79630Y153877D01*
X79630Y136073D01*
X79642Y136019D01*
X79643Y135994D01*
X79650Y135981D01*
X79660Y135924D01*
X79667Y135914D01*
X79669Y135904D01*
X79693Y135875D01*
X79741Y135804D01*
X81118Y134427D01*
X81118Y131511D01*
X79055Y129448D01*
X76139Y129448D01*
X74076Y131511D01*
X74076Y132260D01*
X74070Y132285D01*
X74073Y132310D01*
X74051Y132368D01*
X74037Y132428D01*
X74020Y132448D01*
X74011Y132472D01*
X73966Y132514D01*
X73927Y132562D01*
X73903Y132572D01*
X73884Y132590D01*
X73825Y132608D01*
X73768Y132633D01*
X73743Y132632D01*
X73718Y132639D01*
X73657Y132629D01*
X73595Y132626D01*
X73573Y132614D01*
X73547Y132609D01*
X73476Y132561D01*
X73443Y132543D01*
X73437Y132535D01*
X73427Y132528D01*
X70172Y129274D01*
X70145Y129230D01*
X70111Y129193D01*
X70100Y129158D01*
X70081Y129126D01*
X70076Y129076D01*
X70062Y129027D01*
X70068Y128990D01*
X70064Y128954D01*
X70082Y128906D01*
X70091Y128856D01*
X70115Y128821D01*
X70126Y128792D01*
X70148Y128771D01*
X70172Y128736D01*
X71593Y127315D01*
X71593Y124399D01*
X69530Y122336D01*
X68290Y122336D01*
X68240Y122325D01*
X68189Y122323D01*
X68157Y122305D01*
X68121Y122297D01*
X68082Y122264D01*
X68037Y122240D01*
X68016Y122210D01*
X67988Y122187D01*
X67967Y122140D01*
X67937Y122098D01*
X67929Y122056D01*
X67917Y122028D01*
X67918Y121998D01*
X67910Y121956D01*
X67910Y119725D01*
X67921Y119675D01*
X67923Y119624D01*
X67941Y119592D01*
X67949Y119556D01*
X67982Y119517D01*
X68006Y119472D01*
X68036Y119451D01*
X68059Y119423D01*
X68106Y119402D01*
X68148Y119372D01*
X68190Y119364D01*
X68218Y119352D01*
X68248Y119353D01*
X68290Y119345D01*
X69657Y119345D01*
X71720Y117282D01*
X71720Y114366D01*
X69657Y112303D01*
X68544Y112303D01*
X68494Y112292D01*
X68443Y112290D01*
X68411Y112272D01*
X68375Y112264D01*
X68336Y112231D01*
X68291Y112207D01*
X68270Y112177D01*
X68242Y112154D01*
X68221Y112107D01*
X68191Y112065D01*
X68183Y112023D01*
X68171Y111995D01*
X68172Y111965D01*
X68164Y111923D01*
X68164Y109819D01*
X68175Y109769D01*
X68177Y109718D01*
X68195Y109686D01*
X68203Y109650D01*
X68236Y109611D01*
X68260Y109566D01*
X68290Y109545D01*
X68313Y109517D01*
X68360Y109496D01*
X68402Y109466D01*
X68444Y109458D01*
X68472Y109446D01*
X68502Y109447D01*
X68544Y109439D01*
X69403Y109439D01*
X71466Y107376D01*
X71466Y104460D01*
X69403Y102397D01*
X68163Y102397D01*
X68113Y102386D01*
X68062Y102384D01*
X68030Y102366D01*
X67994Y102358D01*
X67955Y102325D01*
X67910Y102301D01*
X67889Y102271D01*
X67861Y102248D01*
X67840Y102201D01*
X67810Y102159D01*
X67802Y102117D01*
X67790Y102089D01*
X67791Y102059D01*
X67783Y102017D01*
X67783Y100040D01*
X67794Y99990D01*
X67796Y99939D01*
X67814Y99907D01*
X67822Y99871D01*
X67855Y99832D01*
X67879Y99787D01*
X67909Y99766D01*
X67932Y99738D01*
X67979Y99717D01*
X68021Y99687D01*
X68063Y99679D01*
X68091Y99667D01*
X68121Y99668D01*
X68163Y99660D01*
X69911Y99660D01*
X71974Y97597D01*
X71974Y94681D01*
X69911Y92618D01*
X68036Y92618D01*
X67986Y92607D01*
X67935Y92605D01*
X67903Y92587D01*
X67867Y92579D01*
X67828Y92546D01*
X67783Y92522D01*
X67762Y92492D01*
X67734Y92469D01*
X67713Y92422D01*
X67683Y92380D01*
X67675Y92338D01*
X67663Y92310D01*
X67664Y92280D01*
X67656Y92238D01*
X67656Y90236D01*
X65593Y88173D01*
X62677Y88173D01*
X61300Y89550D01*
X61235Y89590D01*
X61173Y89634D01*
X61161Y89636D01*
X61153Y89641D01*
X61116Y89645D01*
X61031Y89661D01*
X59928Y89661D01*
X59854Y89644D01*
X59779Y89631D01*
X59769Y89624D01*
X59759Y89622D01*
X59730Y89598D01*
X59659Y89550D01*
X50880Y80771D01*
X9518Y80771D01*
X9456Y80757D01*
X9393Y80750D01*
X9373Y80737D01*
X9349Y80732D01*
X9300Y80691D01*
X9247Y80657D01*
X9232Y80635D01*
X9216Y80622D01*
X9200Y80587D01*
X9167Y80537D01*
X8576Y79110D01*
X6742Y77276D01*
X5605Y76805D01*
X5584Y76790D01*
X5560Y76783D01*
X5515Y76740D01*
X5465Y76704D01*
X5452Y76681D01*
X5434Y76664D01*
X5412Y76606D01*
X5383Y76551D01*
X5383Y76525D01*
X5374Y76501D01*
X5380Y76440D01*
X5378Y76378D01*
X5389Y76355D01*
X5392Y76329D01*
X5425Y76277D01*
X5451Y76221D01*
X5471Y76204D01*
X5484Y76183D01*
X5556Y76135D01*
X5585Y76112D01*
X5595Y76110D01*
X5605Y76103D01*
X6742Y75632D01*
X8576Y73798D01*
X9167Y72371D01*
X9204Y72320D01*
X9234Y72264D01*
X9254Y72250D01*
X9268Y72231D01*
X9324Y72201D01*
X9376Y72164D01*
X9402Y72159D01*
X9421Y72149D01*
X9459Y72148D01*
X9518Y72137D01*
X11256Y72137D01*
X21051Y62342D01*
X21115Y62302D01*
X21177Y62258D01*
X21189Y62256D01*
X21198Y62251D01*
X21235Y62247D01*
X21320Y62231D01*
X55374Y62231D01*
X55448Y62248D01*
X55523Y62261D01*
X55533Y62268D01*
X55543Y62270D01*
X55572Y62294D01*
X55643Y62342D01*
X61759Y68458D01*
X61900Y68599D01*
X61940Y68664D01*
X61984Y68726D01*
X61986Y68738D01*
X61991Y68746D01*
X61995Y68783D01*
X62011Y68868D01*
X62011Y70673D01*
X64074Y72736D01*
X66990Y72736D01*
X69053Y70673D01*
X69053Y69179D01*
X69064Y69129D01*
X69066Y69078D01*
X69084Y69046D01*
X69092Y69010D01*
X69125Y68971D01*
X69149Y68926D01*
X69179Y68905D01*
X69202Y68877D01*
X69249Y68856D01*
X69291Y68826D01*
X69333Y68818D01*
X69361Y68806D01*
X69391Y68807D01*
X69433Y68799D01*
X71308Y68799D01*
X73391Y66716D01*
X73434Y66689D01*
X73472Y66654D01*
X73507Y66644D01*
X73538Y66625D01*
X73589Y66620D01*
X73638Y66605D01*
X73674Y66611D01*
X73711Y66608D01*
X73758Y66626D01*
X73809Y66635D01*
X73844Y66659D01*
X73873Y66670D01*
X73894Y66692D01*
X73929Y66716D01*
X75250Y68037D01*
X78166Y68037D01*
X80229Y65974D01*
X80229Y63058D01*
X79035Y61864D01*
X79008Y61821D01*
X78973Y61783D01*
X78963Y61748D01*
X78944Y61717D01*
X78939Y61666D01*
X78924Y61617D01*
X78930Y61581D01*
X78927Y61544D01*
X78945Y61497D01*
X78954Y61446D01*
X78978Y61411D01*
X78989Y61382D01*
X79011Y61361D01*
X79035Y61326D01*
X80737Y59624D01*
X80737Y56708D01*
X79585Y55556D01*
X79545Y55492D01*
X79502Y55430D01*
X79499Y55418D01*
X79494Y55409D01*
X79490Y55372D01*
X79474Y55287D01*
X79474Y50417D01*
X79480Y50392D01*
X79477Y50366D01*
X79499Y50308D01*
X79513Y50248D01*
X79530Y50228D01*
X79539Y50204D01*
X79584Y50162D01*
X79624Y50114D01*
X79647Y50104D01*
X79666Y50086D01*
X79725Y50069D01*
X79782Y50044D01*
X79808Y50045D01*
X79832Y50037D01*
X79893Y50048D01*
X79955Y50050D01*
X79978Y50062D01*
X80003Y50067D01*
X80074Y50115D01*
X80107Y50133D01*
X80113Y50141D01*
X80123Y50148D01*
X82220Y52245D01*
X82260Y52309D01*
X82304Y52371D01*
X82306Y52383D01*
X82311Y52392D01*
X82315Y52429D01*
X82331Y52514D01*
X82331Y53909D01*
X84394Y55972D01*
X87310Y55972D01*
X89373Y53909D01*
X89373Y52017D01*
X89379Y51992D01*
X89376Y51967D01*
X89398Y51909D01*
X89412Y51849D01*
X89429Y51829D01*
X89438Y51805D01*
X89483Y51763D01*
X89522Y51715D01*
X89546Y51705D01*
X89565Y51687D01*
X89624Y51669D01*
X89681Y51644D01*
X89706Y51645D01*
X89731Y51638D01*
X89792Y51648D01*
X89854Y51651D01*
X89876Y51663D01*
X89902Y51668D01*
X89973Y51716D01*
X90006Y51734D01*
X90012Y51742D01*
X90022Y51749D01*
X90610Y52336D01*
X90637Y52380D01*
X90671Y52417D01*
X90682Y52453D01*
X90701Y52484D01*
X90706Y52534D01*
X90720Y52583D01*
X90714Y52620D01*
X90718Y52656D01*
X90700Y52704D01*
X90691Y52754D01*
X90667Y52789D01*
X90656Y52818D01*
X90634Y52839D01*
X90610Y52874D01*
X90459Y53025D01*
X90459Y55941D01*
X92522Y58004D01*
X95438Y58004D01*
X97501Y55941D01*
X97501Y53939D01*
X97512Y53889D01*
X97514Y53838D01*
X97532Y53806D01*
X97540Y53770D01*
X97573Y53731D01*
X97597Y53686D01*
X97627Y53665D01*
X97650Y53637D01*
X97697Y53616D01*
X97739Y53586D01*
X97781Y53578D01*
X97809Y53566D01*
X97839Y53567D01*
X97881Y53559D01*
X99248Y53559D01*
X99462Y53345D01*
X99484Y53331D01*
X99500Y53311D01*
X99557Y53286D01*
X99609Y53254D01*
X99635Y53251D01*
X99659Y53241D01*
X99720Y53243D01*
X99782Y53237D01*
X99806Y53246D01*
X99832Y53247D01*
X99886Y53277D01*
X99944Y53299D01*
X99961Y53318D01*
X99984Y53330D01*
X100019Y53380D01*
X100061Y53426D01*
X100069Y53450D01*
X100084Y53472D01*
X100100Y53556D01*
X100111Y53592D01*
X100109Y53602D01*
X100111Y53614D01*
X100111Y54671D01*
X102174Y56734D01*
X105090Y56734D01*
X106066Y55758D01*
X106088Y55744D01*
X106104Y55724D01*
X106161Y55699D01*
X106213Y55667D01*
X106239Y55664D01*
X106263Y55654D01*
X106324Y55656D01*
X106386Y55650D01*
X106410Y55659D01*
X106436Y55660D01*
X106490Y55690D01*
X106548Y55712D01*
X106565Y55731D01*
X106588Y55743D01*
X106623Y55793D01*
X106665Y55839D01*
X106673Y55863D01*
X106688Y55885D01*
X106704Y55969D01*
X106715Y56005D01*
X106713Y56015D01*
X106715Y56027D01*
X106715Y56830D01*
X108778Y58893D01*
X111694Y58893D01*
X113757Y56830D01*
X113757Y53914D01*
X112380Y52537D01*
X112340Y52472D01*
X112296Y52410D01*
X112294Y52398D01*
X112289Y52390D01*
X112285Y52353D01*
X112269Y52268D01*
X112269Y47545D01*
X99394Y34670D01*
X86598Y34670D01*
X86524Y34653D01*
X86449Y34640D01*
X86439Y34633D01*
X86429Y34631D01*
X86400Y34607D01*
X86329Y34559D01*
X75244Y23474D01*
X75230Y23452D01*
X75210Y23436D01*
X75185Y23379D01*
X75152Y23327D01*
X75150Y23301D01*
X75139Y23277D01*
X75142Y23216D01*
X75136Y23154D01*
X75145Y23130D01*
X75146Y23104D01*
X75175Y23050D01*
X75197Y22992D01*
X75216Y22975D01*
X75229Y22952D01*
X75279Y22917D01*
X75324Y22875D01*
X75349Y22867D01*
X75370Y22852D01*
X75455Y22836D01*
X75491Y22825D01*
X75500Y22827D01*
X75512Y22825D01*
X76515Y22825D01*
X78578Y20762D01*
X78578Y17846D01*
X76515Y15783D01*
X73599Y15783D01*
X71536Y17846D01*
X71536Y18849D01*
X71530Y18874D01*
X71533Y18899D01*
X71511Y18957D01*
X71497Y19017D01*
X71480Y19037D01*
X71471Y19061D01*
X71426Y19103D01*
X71387Y19151D01*
X71363Y19161D01*
X71344Y19179D01*
X71285Y19197D01*
X71228Y19222D01*
X71203Y19221D01*
X71178Y19228D01*
X71117Y19218D01*
X71055Y19215D01*
X71033Y19203D01*
X71007Y19198D01*
X70936Y19150D01*
X70903Y19132D01*
X70897Y19124D01*
X70887Y19117D01*
X64500Y12730D01*
X64480Y12698D01*
X64452Y12671D01*
X64434Y12625D01*
X64409Y12583D01*
X64405Y12545D01*
X64391Y12509D01*
X64397Y12460D01*
X64392Y12411D01*
X64406Y12375D01*
X64410Y12336D01*
X64436Y12295D01*
X64454Y12249D01*
X64482Y12222D01*
X64502Y12190D01*
X64553Y12156D01*
X64581Y12131D01*
X64601Y12125D01*
X64623Y12110D01*
X65797Y11624D01*
X67631Y9790D01*
X68102Y8653D01*
X68117Y8632D01*
X68124Y8608D01*
X68167Y8563D01*
X68203Y8513D01*
X68226Y8500D01*
X68243Y8482D01*
X68301Y8460D01*
X68356Y8431D01*
X68381Y8430D01*
X68406Y8422D01*
X68467Y8428D01*
X68529Y8426D01*
X68552Y8437D01*
X68578Y8440D01*
X68630Y8473D01*
X68686Y8499D01*
X68703Y8519D01*
X68724Y8532D01*
X68772Y8605D01*
X68795Y8633D01*
X68798Y8643D01*
X68804Y8653D01*
X69275Y9790D01*
X71109Y11624D01*
X73506Y12617D01*
X75243Y12617D01*
X75317Y12634D01*
X75392Y12647D01*
X75402Y12654D01*
X75412Y12656D01*
X75441Y12680D01*
X75512Y12728D01*
X78406Y15622D01*
X86884Y15622D01*
X86958Y15639D01*
X87033Y15652D01*
X87043Y15659D01*
X87053Y15661D01*
X87082Y15685D01*
X87153Y15733D01*
X90725Y19305D01*
X101207Y19305D01*
X101281Y19322D01*
X101355Y19335D01*
X101366Y19342D01*
X101375Y19344D01*
X101404Y19368D01*
X101476Y19416D01*
X106444Y24385D01*
X119396Y24385D01*
X119470Y24402D01*
X119545Y24415D01*
X119555Y24422D01*
X119565Y24424D01*
X119594Y24448D01*
X119665Y24496D01*
X129047Y33878D01*
X129087Y33942D01*
X129131Y34004D01*
X129133Y34016D01*
X129138Y34025D01*
X129142Y34062D01*
X129158Y34147D01*
X129158Y103032D01*
X144323Y118196D01*
X144363Y118261D01*
X144407Y118323D01*
X144409Y118335D01*
X144414Y118343D01*
X144418Y118380D01*
X144434Y118465D01*
X144434Y121020D01*
X150038Y126624D01*
X150078Y126688D01*
X150122Y126750D01*
X150124Y126762D01*
X150129Y126771D01*
X150133Y126808D01*
X150149Y126893D01*
X150149Y128839D01*
X152212Y130902D01*
X155128Y130902D01*
X157191Y128839D01*
X157191Y125915D01*
X157177Y125892D01*
X157142Y125855D01*
X157131Y125819D01*
X157112Y125788D01*
X157107Y125737D01*
X157093Y125688D01*
X157099Y125652D01*
X157095Y125616D01*
X157114Y125568D01*
X157122Y125518D01*
X157146Y125482D01*
X157157Y125454D01*
X157180Y125433D01*
X157203Y125398D01*
X159223Y123378D01*
X159223Y120462D01*
X157160Y118399D01*
X157119Y118399D01*
X157094Y118393D01*
X157068Y118396D01*
X157010Y118374D01*
X156950Y118360D01*
X156930Y118343D01*
X156906Y118334D01*
X156864Y118289D01*
X156816Y118250D01*
X156806Y118226D01*
X156788Y118207D01*
X156771Y118148D01*
X156746Y118091D01*
X156746Y118066D01*
X156739Y118041D01*
X156750Y117980D01*
X156752Y117918D01*
X156764Y117896D01*
X156769Y117870D01*
X156817Y117799D01*
X156835Y117766D01*
X156843Y117760D01*
X156850Y117750D01*
X157064Y117536D01*
X157064Y115153D01*
X157075Y115103D01*
X157077Y115052D01*
X157095Y115020D01*
X157103Y114984D01*
X157136Y114945D01*
X157160Y114900D01*
X157190Y114879D01*
X157213Y114851D01*
X157260Y114830D01*
X157302Y114800D01*
X157344Y114792D01*
X157372Y114780D01*
X157402Y114781D01*
X157444Y114773D01*
X158176Y114773D01*
X160239Y112710D01*
X160239Y109794D01*
X158176Y107731D01*
X157444Y107731D01*
X157394Y107720D01*
X157343Y107718D01*
X157311Y107700D01*
X157275Y107692D01*
X157236Y107659D01*
X157191Y107635D01*
X157170Y107605D01*
X157142Y107582D01*
X157121Y107535D01*
X157091Y107493D01*
X157083Y107451D01*
X157071Y107423D01*
X157072Y107393D01*
X157064Y107351D01*
X157064Y104866D01*
X157075Y104816D01*
X157077Y104765D01*
X157095Y104733D01*
X157103Y104697D01*
X157136Y104658D01*
X157160Y104613D01*
X157190Y104592D01*
X157213Y104564D01*
X157260Y104543D01*
X157302Y104513D01*
X157344Y104505D01*
X157372Y104493D01*
X157402Y104494D01*
X157444Y104486D01*
X158049Y104486D01*
X160112Y102423D01*
X160112Y99507D01*
X158049Y97444D01*
X157317Y97444D01*
X157267Y97433D01*
X157216Y97431D01*
X157184Y97413D01*
X157148Y97405D01*
X157109Y97372D01*
X157064Y97348D01*
X157043Y97318D01*
X157015Y97295D01*
X156994Y97248D01*
X156964Y97206D01*
X156956Y97164D01*
X156944Y97136D01*
X156945Y97106D01*
X156937Y97064D01*
X156937Y94960D01*
X156948Y94910D01*
X156950Y94859D01*
X156968Y94827D01*
X156976Y94791D01*
X157009Y94752D01*
X157033Y94707D01*
X157063Y94686D01*
X157086Y94658D01*
X157133Y94637D01*
X157175Y94607D01*
X157217Y94599D01*
X157245Y94587D01*
X157275Y94588D01*
X157317Y94580D01*
X158049Y94580D01*
X160112Y92517D01*
X160112Y89601D01*
X159751Y89240D01*
X159711Y89175D01*
X159667Y89113D01*
X159665Y89101D01*
X159660Y89093D01*
X159656Y89056D01*
X159650Y89022D01*
X159647Y89016D01*
X159647Y89008D01*
X159640Y88971D01*
X159640Y20685D01*
X159657Y20611D01*
X159670Y20536D01*
X159677Y20526D01*
X159679Y20516D01*
X159703Y20487D01*
X159751Y20416D01*
X165736Y14431D01*
X165736Y12566D01*
X165750Y12504D01*
X165757Y12441D01*
X165770Y12421D01*
X165775Y12397D01*
X165816Y12348D01*
X165850Y12295D01*
X165872Y12280D01*
X165885Y12264D01*
X165920Y12248D01*
X165970Y12215D01*
X167397Y11624D01*
X169231Y9790D01*
X170053Y7804D01*
X170090Y7753D01*
X170121Y7697D01*
X170140Y7683D01*
X170154Y7664D01*
X170211Y7634D01*
X170262Y7597D01*
X170289Y7592D01*
X170307Y7582D01*
X170345Y7581D01*
X170405Y7570D01*
X234239Y7570D01*
X234289Y7581D01*
G37*
G36*
X58716Y115831D02*
X58716Y115831D01*
X58741Y115828D01*
X58798Y115850D01*
X58858Y115864D01*
X58859Y115864D01*
X58879Y115881D01*
X58903Y115890D01*
X58944Y115934D01*
X58992Y115973D01*
X58992Y115974D01*
X58993Y115974D01*
X59004Y115998D01*
X59021Y116017D01*
X59038Y116075D01*
X59064Y116131D01*
X59064Y116132D01*
X59064Y116133D01*
X59063Y116159D01*
X59070Y116183D01*
X59060Y116243D01*
X59058Y116304D01*
X59057Y116305D01*
X59057Y116306D01*
X59045Y116329D01*
X59040Y116354D01*
X58993Y116423D01*
X58975Y116457D01*
X58974Y116458D01*
X58969Y116462D01*
X58966Y116464D01*
X58959Y116474D01*
X57657Y117776D01*
X57657Y147082D01*
X57640Y147156D01*
X57627Y147231D01*
X57620Y147241D01*
X57618Y147251D01*
X57594Y147280D01*
X57546Y147351D01*
X54006Y150891D01*
X53942Y150931D01*
X53880Y150975D01*
X53868Y150977D01*
X53859Y150982D01*
X53822Y150986D01*
X53737Y151002D01*
X50452Y151002D01*
X39387Y162067D01*
X39322Y162107D01*
X39260Y162151D01*
X39248Y162153D01*
X39240Y162158D01*
X39203Y162162D01*
X39118Y162178D01*
X27352Y162178D01*
X23780Y165750D01*
X23716Y165790D01*
X23654Y165834D01*
X23642Y165836D01*
X23633Y165841D01*
X23596Y165845D01*
X23511Y165861D01*
X23144Y165861D01*
X23124Y165874D01*
X23062Y165918D01*
X23050Y165920D01*
X23041Y165925D01*
X23004Y165929D01*
X22920Y165945D01*
X22706Y165945D01*
X20309Y166938D01*
X18475Y168772D01*
X18004Y169909D01*
X17989Y169930D01*
X17982Y169954D01*
X17939Y169999D01*
X17903Y170049D01*
X17881Y170062D01*
X17863Y170080D01*
X17805Y170102D01*
X17750Y170131D01*
X17724Y170131D01*
X17700Y170140D01*
X17639Y170134D01*
X17577Y170136D01*
X17554Y170125D01*
X17528Y170122D01*
X17476Y170089D01*
X17420Y170063D01*
X17403Y170043D01*
X17382Y170030D01*
X17334Y169958D01*
X17311Y169929D01*
X17309Y169919D01*
X17302Y169909D01*
X16999Y169179D01*
X16998Y169170D01*
X16993Y169163D01*
X16984Y169086D01*
X16971Y169008D01*
X16974Y169000D01*
X16973Y168991D01*
X17016Y168852D01*
X36641Y132622D01*
X36667Y132593D01*
X36707Y132534D01*
X36879Y132362D01*
X36922Y132335D01*
X36959Y132301D01*
X36995Y132290D01*
X37026Y132271D01*
X37077Y132266D01*
X37126Y132252D01*
X37162Y132258D01*
X37198Y132254D01*
X37246Y132273D01*
X37296Y132281D01*
X37332Y132305D01*
X37360Y132316D01*
X37381Y132338D01*
X37416Y132362D01*
X38532Y133478D01*
X41478Y133478D01*
X43562Y131394D01*
X43562Y128448D01*
X41478Y126364D01*
X38532Y126364D01*
X37543Y127353D01*
X37500Y127380D01*
X37463Y127414D01*
X37427Y127425D01*
X37396Y127444D01*
X37345Y127449D01*
X37296Y127463D01*
X37260Y127457D01*
X37224Y127461D01*
X37176Y127442D01*
X37126Y127434D01*
X37090Y127410D01*
X37062Y127399D01*
X37041Y127376D01*
X37006Y127353D01*
X35890Y126237D01*
X34882Y126237D01*
X34860Y126232D01*
X34839Y126235D01*
X34804Y126224D01*
X34735Y126237D01*
X32944Y126237D01*
X32230Y126951D01*
X32212Y126962D01*
X32198Y126979D01*
X32166Y126996D01*
X32127Y127054D01*
X30860Y128321D01*
X30860Y128522D01*
X30847Y128579D01*
X30847Y128590D01*
X30843Y128597D01*
X30830Y128671D01*
X30823Y128681D01*
X30821Y128691D01*
X30797Y128720D01*
X30749Y128791D01*
X30733Y128807D01*
X30733Y129564D01*
X30728Y129585D01*
X30731Y129607D01*
X30701Y129701D01*
X30694Y129733D01*
X30690Y129738D01*
X30687Y129745D01*
X11187Y165746D01*
X11157Y165779D01*
X11136Y165818D01*
X11101Y165843D01*
X11072Y165876D01*
X11031Y165892D01*
X10995Y165918D01*
X10944Y165928D01*
X10911Y165941D01*
X10886Y165939D01*
X10852Y165945D01*
X10006Y165945D01*
X7609Y166938D01*
X5775Y168772D01*
X4847Y171012D01*
X4810Y171063D01*
X4780Y171119D01*
X4761Y171133D01*
X4746Y171152D01*
X4690Y171182D01*
X4638Y171219D01*
X4612Y171224D01*
X4593Y171234D01*
X4556Y171235D01*
X4496Y171246D01*
X4394Y171246D01*
X4344Y171235D01*
X4293Y171233D01*
X4261Y171215D01*
X4225Y171207D01*
X4186Y171174D01*
X4141Y171150D01*
X4120Y171120D01*
X4092Y171097D01*
X4071Y171050D01*
X4041Y171008D01*
X4033Y170966D01*
X4021Y170938D01*
X4022Y170908D01*
X4014Y170866D01*
X4014Y140505D01*
X4025Y140455D01*
X4027Y140404D01*
X4045Y140372D01*
X4053Y140336D01*
X4086Y140297D01*
X4110Y140252D01*
X4140Y140231D01*
X4163Y140203D01*
X4210Y140182D01*
X4252Y140152D01*
X4294Y140144D01*
X4322Y140132D01*
X4328Y140132D01*
X6742Y139132D01*
X8576Y137298D01*
X9569Y134901D01*
X9569Y132307D01*
X9462Y132048D01*
X9455Y132011D01*
X9443Y131984D01*
X9444Y131961D01*
X9433Y131925D01*
X9437Y131901D01*
X9433Y131877D01*
X9449Y131826D01*
X9450Y131811D01*
X9454Y131802D01*
X9463Y131754D01*
X9478Y131732D01*
X9484Y131712D01*
X9510Y131684D01*
X9544Y131634D01*
X13463Y127715D01*
X13463Y121791D01*
X13480Y121717D01*
X13493Y121642D01*
X13500Y121632D01*
X13502Y121622D01*
X13526Y121593D01*
X13574Y121522D01*
X19160Y115936D01*
X19225Y115896D01*
X19287Y115852D01*
X19299Y115850D01*
X19307Y115845D01*
X19344Y115841D01*
X19429Y115825D01*
X58691Y115825D01*
X58716Y115831D01*
G37*
G36*
X58820Y36848D02*
X58820Y36848D01*
X58894Y36861D01*
X58905Y36868D01*
X58914Y36870D01*
X58943Y36894D01*
X59014Y36942D01*
X72503Y50431D01*
X72543Y50495D01*
X72587Y50557D01*
X72589Y50569D01*
X72595Y50578D01*
X72598Y50615D01*
X72615Y50700D01*
X72615Y50792D01*
X72609Y50817D01*
X72611Y50842D01*
X72589Y50900D01*
X72575Y50960D01*
X72559Y50980D01*
X72549Y51004D01*
X72504Y51046D01*
X72465Y51094D01*
X72441Y51104D01*
X72422Y51122D01*
X72363Y51140D01*
X72307Y51165D01*
X72281Y51164D01*
X72256Y51171D01*
X72195Y51161D01*
X72134Y51158D01*
X72111Y51146D01*
X72086Y51141D01*
X72014Y51093D01*
X71981Y51075D01*
X71976Y51067D01*
X71965Y51060D01*
X70688Y49783D01*
X67742Y49783D01*
X65658Y51867D01*
X65658Y53340D01*
X65647Y53390D01*
X65645Y53441D01*
X65627Y53473D01*
X65619Y53509D01*
X65586Y53548D01*
X65562Y53593D01*
X65532Y53614D01*
X65509Y53642D01*
X65462Y53663D01*
X65420Y53693D01*
X65378Y53701D01*
X65350Y53713D01*
X65320Y53712D01*
X65278Y53720D01*
X64059Y53720D01*
X61975Y55804D01*
X61975Y58056D01*
X61969Y58081D01*
X61972Y58106D01*
X61950Y58164D01*
X61936Y58224D01*
X61919Y58244D01*
X61910Y58268D01*
X61865Y58310D01*
X61826Y58358D01*
X61802Y58368D01*
X61783Y58386D01*
X61724Y58404D01*
X61667Y58429D01*
X61642Y58428D01*
X61617Y58435D01*
X61556Y58425D01*
X61494Y58422D01*
X61472Y58410D01*
X61446Y58405D01*
X61375Y58357D01*
X61342Y58339D01*
X61336Y58331D01*
X61326Y58324D01*
X58373Y55371D01*
X9518Y55371D01*
X9456Y55357D01*
X9393Y55350D01*
X9373Y55337D01*
X9349Y55332D01*
X9300Y55291D01*
X9247Y55257D01*
X9232Y55235D01*
X9216Y55222D01*
X9200Y55187D01*
X9167Y55137D01*
X8576Y53710D01*
X6742Y51876D01*
X5605Y51405D01*
X5584Y51390D01*
X5560Y51383D01*
X5515Y51340D01*
X5465Y51304D01*
X5452Y51281D01*
X5434Y51264D01*
X5412Y51206D01*
X5383Y51151D01*
X5383Y51125D01*
X5374Y51101D01*
X5380Y51040D01*
X5378Y50978D01*
X5389Y50955D01*
X5392Y50929D01*
X5425Y50877D01*
X5451Y50821D01*
X5471Y50804D01*
X5484Y50783D01*
X5556Y50735D01*
X5585Y50712D01*
X5595Y50710D01*
X5605Y50703D01*
X6742Y50232D01*
X8576Y48398D01*
X9167Y46971D01*
X9204Y46920D01*
X9234Y46864D01*
X9254Y46850D01*
X9268Y46831D01*
X9324Y46801D01*
X9376Y46764D01*
X9402Y46759D01*
X9421Y46749D01*
X9459Y46748D01*
X9518Y46737D01*
X12399Y46737D01*
X22194Y36942D01*
X22258Y36902D01*
X22320Y36858D01*
X22332Y36856D01*
X22341Y36851D01*
X22378Y36847D01*
X22463Y36831D01*
X58746Y36831D01*
X58820Y36848D01*
G37*
G36*
X47955Y87648D02*
X47955Y87648D01*
X48030Y87661D01*
X48040Y87668D01*
X48050Y87670D01*
X48079Y87694D01*
X48150Y87742D01*
X58417Y98009D01*
X61448Y98009D01*
X61473Y98015D01*
X61499Y98012D01*
X61557Y98034D01*
X61617Y98048D01*
X61637Y98065D01*
X61661Y98074D01*
X61703Y98119D01*
X61751Y98158D01*
X61761Y98182D01*
X61779Y98201D01*
X61796Y98260D01*
X61821Y98317D01*
X61821Y98342D01*
X61828Y98367D01*
X61817Y98428D01*
X61815Y98490D01*
X61803Y98512D01*
X61798Y98538D01*
X61750Y98609D01*
X61732Y98642D01*
X61724Y98648D01*
X61717Y98658D01*
X60741Y99634D01*
X60741Y101580D01*
X60724Y101654D01*
X60711Y101729D01*
X60704Y101739D01*
X60702Y101749D01*
X60678Y101778D01*
X60630Y101849D01*
X56419Y106060D01*
X56355Y106100D01*
X56293Y106144D01*
X56281Y106146D01*
X56272Y106151D01*
X56235Y106155D01*
X56150Y106171D01*
X9518Y106171D01*
X9456Y106157D01*
X9393Y106150D01*
X9373Y106137D01*
X9349Y106132D01*
X9300Y106091D01*
X9247Y106057D01*
X9232Y106035D01*
X9216Y106022D01*
X9200Y105987D01*
X9167Y105937D01*
X8576Y104510D01*
X6742Y102676D01*
X5605Y102205D01*
X5584Y102190D01*
X5560Y102183D01*
X5515Y102140D01*
X5465Y102104D01*
X5452Y102081D01*
X5434Y102064D01*
X5412Y102006D01*
X5383Y101951D01*
X5383Y101925D01*
X5374Y101901D01*
X5380Y101840D01*
X5378Y101778D01*
X5389Y101755D01*
X5392Y101729D01*
X5425Y101677D01*
X5451Y101621D01*
X5471Y101604D01*
X5484Y101583D01*
X5556Y101535D01*
X5585Y101512D01*
X5595Y101509D01*
X5605Y101503D01*
X6742Y101032D01*
X8576Y99198D01*
X9167Y97771D01*
X9204Y97720D01*
X9234Y97664D01*
X9254Y97650D01*
X9268Y97631D01*
X9324Y97601D01*
X9376Y97564D01*
X9402Y97559D01*
X9421Y97549D01*
X9459Y97548D01*
X9518Y97537D01*
X11256Y97537D01*
X21051Y87742D01*
X21115Y87702D01*
X21177Y87658D01*
X21189Y87656D01*
X21198Y87651D01*
X21235Y87647D01*
X21320Y87631D01*
X47881Y87631D01*
X47955Y87648D01*
G37*
G36*
X4663Y7584D02*
X4663Y7584D01*
X4726Y7591D01*
X4747Y7604D01*
X4770Y7609D01*
X4819Y7650D01*
X4873Y7684D01*
X4888Y7706D01*
X4904Y7719D01*
X4919Y7754D01*
X4953Y7804D01*
X5775Y9790D01*
X7609Y11624D01*
X10006Y12617D01*
X10220Y12617D01*
X10294Y12634D01*
X10368Y12647D01*
X10378Y12654D01*
X10388Y12656D01*
X10417Y12680D01*
X10488Y12728D01*
X14652Y16892D01*
X28196Y16892D01*
X28270Y16909D01*
X28345Y16922D01*
X28355Y16929D01*
X28365Y16931D01*
X28394Y16955D01*
X28465Y17003D01*
X33561Y22099D01*
X51916Y22099D01*
X51990Y22116D01*
X52065Y22129D01*
X52075Y22136D01*
X52085Y22138D01*
X52114Y22162D01*
X52185Y22210D01*
X59297Y29322D01*
X59311Y29344D01*
X59331Y29360D01*
X59356Y29417D01*
X59389Y29469D01*
X59391Y29495D01*
X59402Y29519D01*
X59399Y29580D01*
X59405Y29642D01*
X59396Y29666D01*
X59395Y29692D01*
X59366Y29746D01*
X59344Y29804D01*
X59325Y29821D01*
X59312Y29844D01*
X59262Y29879D01*
X59217Y29921D01*
X59192Y29929D01*
X59171Y29944D01*
X59086Y29960D01*
X59050Y29971D01*
X59040Y29969D01*
X59028Y29971D01*
X9518Y29971D01*
X9456Y29957D01*
X9393Y29950D01*
X9373Y29937D01*
X9349Y29932D01*
X9300Y29891D01*
X9247Y29857D01*
X9232Y29835D01*
X9216Y29822D01*
X9200Y29787D01*
X9167Y29737D01*
X8576Y28310D01*
X6742Y26476D01*
X4314Y25470D01*
X4293Y25470D01*
X4261Y25452D01*
X4225Y25444D01*
X4186Y25411D01*
X4141Y25387D01*
X4120Y25357D01*
X4092Y25334D01*
X4071Y25287D01*
X4041Y25245D01*
X4033Y25203D01*
X4021Y25175D01*
X4022Y25145D01*
X4014Y25103D01*
X4014Y7950D01*
X4025Y7900D01*
X4027Y7849D01*
X4045Y7817D01*
X4053Y7781D01*
X4086Y7742D01*
X4110Y7697D01*
X4140Y7676D01*
X4163Y7648D01*
X4210Y7627D01*
X4252Y7597D01*
X4294Y7589D01*
X4322Y7577D01*
X4352Y7578D01*
X4394Y7570D01*
X4601Y7570D01*
X4663Y7584D01*
G37*
G36*
X144667Y8428D02*
X144667Y8428D01*
X144729Y8426D01*
X144752Y8437D01*
X144778Y8440D01*
X144830Y8473D01*
X144886Y8499D01*
X144903Y8519D01*
X144924Y8532D01*
X144972Y8604D01*
X144995Y8633D01*
X144997Y8643D01*
X145004Y8653D01*
X145475Y9790D01*
X147309Y11624D01*
X148736Y12215D01*
X148787Y12252D01*
X148843Y12282D01*
X148857Y12302D01*
X148876Y12316D01*
X148906Y12372D01*
X148943Y12424D01*
X148948Y12450D01*
X148958Y12469D01*
X148959Y12507D01*
X148970Y12566D01*
X148970Y16717D01*
X152669Y20416D01*
X152709Y20480D01*
X152753Y20542D01*
X152755Y20554D01*
X152760Y20563D01*
X152764Y20600D01*
X152780Y20685D01*
X152780Y60345D01*
X152774Y60370D01*
X152777Y60396D01*
X152755Y60454D01*
X152741Y60514D01*
X152724Y60534D01*
X152715Y60558D01*
X152670Y60600D01*
X152631Y60648D01*
X152607Y60658D01*
X152588Y60676D01*
X152529Y60693D01*
X152472Y60719D01*
X152447Y60718D01*
X152422Y60725D01*
X152361Y60714D01*
X152299Y60712D01*
X152277Y60700D01*
X152251Y60695D01*
X152180Y60647D01*
X152147Y60629D01*
X152141Y60621D01*
X152131Y60614D01*
X151079Y59562D01*
X148133Y59562D01*
X147970Y59725D01*
X147948Y59739D01*
X147932Y59759D01*
X147875Y59784D01*
X147823Y59817D01*
X147797Y59819D01*
X147773Y59830D01*
X147712Y59827D01*
X147650Y59833D01*
X147626Y59824D01*
X147600Y59823D01*
X147546Y59793D01*
X147488Y59771D01*
X147471Y59753D01*
X147448Y59740D01*
X147413Y59690D01*
X147371Y59644D01*
X147363Y59620D01*
X147348Y59599D01*
X147332Y59514D01*
X147321Y59478D01*
X147323Y59468D01*
X147321Y59456D01*
X147321Y25193D01*
X140447Y18319D01*
X140407Y18255D01*
X140363Y18193D01*
X140361Y18181D01*
X140356Y18172D01*
X140352Y18135D01*
X140336Y18050D01*
X140336Y12566D01*
X140350Y12504D01*
X140357Y12441D01*
X140370Y12421D01*
X140375Y12397D01*
X140416Y12348D01*
X140450Y12295D01*
X140472Y12280D01*
X140485Y12264D01*
X140520Y12248D01*
X140570Y12215D01*
X141997Y11624D01*
X143831Y9790D01*
X144302Y8653D01*
X144317Y8632D01*
X144324Y8608D01*
X144367Y8563D01*
X144403Y8513D01*
X144425Y8500D01*
X144443Y8482D01*
X144501Y8460D01*
X144556Y8431D01*
X144582Y8430D01*
X144606Y8422D01*
X144667Y8428D01*
G37*
%LPC*%
G36*
X28118Y92455D02*
X28118Y92455D01*
X26034Y94539D01*
X26034Y97485D01*
X28118Y99569D01*
X31064Y99569D01*
X31989Y98644D01*
X32032Y98617D01*
X32070Y98582D01*
X32105Y98572D01*
X32136Y98552D01*
X32187Y98548D01*
X32236Y98533D01*
X32272Y98539D01*
X32309Y98536D01*
X32356Y98554D01*
X32407Y98563D01*
X32442Y98587D01*
X32471Y98598D01*
X32492Y98620D01*
X32527Y98644D01*
X33452Y99569D01*
X36398Y99569D01*
X37323Y98644D01*
X37366Y98617D01*
X37404Y98582D01*
X37439Y98572D01*
X37470Y98552D01*
X37521Y98548D01*
X37570Y98533D01*
X37606Y98539D01*
X37643Y98536D01*
X37690Y98554D01*
X37741Y98563D01*
X37776Y98587D01*
X37805Y98598D01*
X37826Y98620D01*
X37861Y98644D01*
X38786Y99569D01*
X41732Y99569D01*
X43816Y97485D01*
X43816Y94539D01*
X41732Y92455D01*
X38786Y92455D01*
X37861Y93380D01*
X37818Y93407D01*
X37780Y93442D01*
X37745Y93452D01*
X37714Y93472D01*
X37663Y93476D01*
X37614Y93491D01*
X37578Y93485D01*
X37541Y93488D01*
X37494Y93470D01*
X37443Y93461D01*
X37408Y93437D01*
X37379Y93426D01*
X37358Y93404D01*
X37323Y93380D01*
X36398Y92455D01*
X33452Y92455D01*
X32527Y93380D01*
X32484Y93407D01*
X32446Y93442D01*
X32411Y93452D01*
X32380Y93472D01*
X32329Y93476D01*
X32280Y93491D01*
X32244Y93485D01*
X32207Y93488D01*
X32160Y93470D01*
X32109Y93461D01*
X32074Y93437D01*
X32045Y93426D01*
X32024Y93404D01*
X31989Y93380D01*
X31064Y92455D01*
X28118Y92455D01*
G37*
%LPD*%
G36*
X62142Y131440D02*
X62142Y131440D01*
X62204Y131443D01*
X62226Y131455D01*
X62252Y131460D01*
X62323Y131508D01*
X62356Y131526D01*
X62362Y131534D01*
X62372Y131541D01*
X69611Y138780D01*
X69651Y138844D01*
X69695Y138906D01*
X69697Y138918D01*
X69702Y138927D01*
X69706Y138964D01*
X69722Y139048D01*
X69722Y140228D01*
X69716Y140253D01*
X69719Y140279D01*
X69697Y140337D01*
X69683Y140397D01*
X69666Y140417D01*
X69657Y140441D01*
X69612Y140483D01*
X69573Y140531D01*
X69549Y140541D01*
X69530Y140559D01*
X69471Y140576D01*
X69414Y140602D01*
X69389Y140601D01*
X69364Y140608D01*
X69303Y140597D01*
X69241Y140595D01*
X69219Y140583D01*
X69193Y140578D01*
X69122Y140530D01*
X69089Y140512D01*
X69083Y140504D01*
X69073Y140497D01*
X68148Y139572D01*
X65202Y139572D01*
X63118Y141656D01*
X63118Y144602D01*
X64234Y145718D01*
X64246Y145737D01*
X64261Y145750D01*
X64272Y145773D01*
X64295Y145798D01*
X64306Y145834D01*
X64325Y145865D01*
X64328Y145900D01*
X64332Y145908D01*
X64332Y145922D01*
X64344Y145965D01*
X64338Y146001D01*
X64342Y146037D01*
X64326Y146079D01*
X64326Y146081D01*
X64323Y146086D01*
X64315Y146135D01*
X64291Y146171D01*
X64280Y146199D01*
X64258Y146220D01*
X64234Y146255D01*
X63118Y147371D01*
X63118Y150317D01*
X65202Y152401D01*
X65549Y152401D01*
X65574Y152407D01*
X65599Y152404D01*
X65657Y152426D01*
X65717Y152440D01*
X65737Y152457D01*
X65761Y152466D01*
X65803Y152511D01*
X65851Y152550D01*
X65861Y152574D01*
X65879Y152593D01*
X65897Y152652D01*
X65922Y152709D01*
X65921Y152734D01*
X65928Y152759D01*
X65918Y152820D01*
X65915Y152882D01*
X65903Y152904D01*
X65898Y152930D01*
X65850Y153001D01*
X65832Y153034D01*
X65824Y153040D01*
X65817Y153050D01*
X65182Y153685D01*
X65118Y153725D01*
X65056Y153769D01*
X65044Y153771D01*
X65035Y153776D01*
X64998Y153780D01*
X64913Y153796D01*
X57768Y153796D01*
X57743Y153790D01*
X57718Y153793D01*
X57660Y153771D01*
X57600Y153757D01*
X57580Y153740D01*
X57556Y153731D01*
X57514Y153686D01*
X57466Y153647D01*
X57456Y153623D01*
X57438Y153604D01*
X57420Y153545D01*
X57395Y153488D01*
X57396Y153463D01*
X57389Y153438D01*
X57399Y153377D01*
X57402Y153315D01*
X57414Y153293D01*
X57419Y153267D01*
X57467Y153196D01*
X57485Y153163D01*
X57493Y153157D01*
X57500Y153147D01*
X60421Y150226D01*
X61723Y148924D01*
X61723Y131809D01*
X61729Y131784D01*
X61726Y131759D01*
X61748Y131701D01*
X61762Y131641D01*
X61779Y131621D01*
X61788Y131597D01*
X61833Y131555D01*
X61872Y131507D01*
X61896Y131497D01*
X61915Y131479D01*
X61974Y131461D01*
X62031Y131436D01*
X62056Y131437D01*
X62081Y131430D01*
X62142Y131440D01*
G37*
G36*
X17314Y84843D02*
X17314Y84843D01*
X17339Y84840D01*
X17397Y84862D01*
X17457Y84876D01*
X17477Y84893D01*
X17501Y84902D01*
X17543Y84947D01*
X17591Y84986D01*
X17601Y85010D01*
X17619Y85029D01*
X17637Y85088D01*
X17662Y85145D01*
X17661Y85170D01*
X17668Y85195D01*
X17658Y85256D01*
X17655Y85318D01*
X17643Y85340D01*
X17638Y85366D01*
X17590Y85437D01*
X17572Y85470D01*
X17564Y85476D01*
X17557Y85486D01*
X9757Y93287D01*
X9724Y93307D01*
X9698Y93335D01*
X9651Y93352D01*
X9609Y93378D01*
X9571Y93382D01*
X9535Y93395D01*
X9486Y93390D01*
X9437Y93395D01*
X9401Y93381D01*
X9363Y93377D01*
X9321Y93351D01*
X9275Y93333D01*
X9249Y93305D01*
X9216Y93284D01*
X9183Y93234D01*
X9157Y93206D01*
X9151Y93186D01*
X9136Y93163D01*
X8576Y91810D01*
X6742Y89976D01*
X5605Y89505D01*
X5584Y89490D01*
X5560Y89483D01*
X5515Y89440D01*
X5465Y89404D01*
X5452Y89381D01*
X5434Y89364D01*
X5412Y89306D01*
X5383Y89251D01*
X5383Y89225D01*
X5374Y89201D01*
X5380Y89140D01*
X5378Y89078D01*
X5389Y89055D01*
X5392Y89029D01*
X5425Y88977D01*
X5451Y88921D01*
X5471Y88904D01*
X5484Y88883D01*
X5556Y88835D01*
X5585Y88812D01*
X5595Y88809D01*
X5605Y88803D01*
X6742Y88332D01*
X8576Y86498D01*
X9167Y85071D01*
X9204Y85020D01*
X9234Y84964D01*
X9254Y84950D01*
X9268Y84931D01*
X9324Y84901D01*
X9376Y84864D01*
X9402Y84859D01*
X9421Y84849D01*
X9459Y84848D01*
X9518Y84837D01*
X17289Y84837D01*
X17314Y84843D01*
G37*
G36*
X17314Y59443D02*
X17314Y59443D01*
X17339Y59440D01*
X17397Y59462D01*
X17457Y59476D01*
X17477Y59493D01*
X17501Y59502D01*
X17543Y59547D01*
X17591Y59586D01*
X17601Y59610D01*
X17619Y59629D01*
X17637Y59688D01*
X17662Y59745D01*
X17661Y59770D01*
X17668Y59795D01*
X17658Y59856D01*
X17655Y59918D01*
X17643Y59940D01*
X17638Y59966D01*
X17590Y60037D01*
X17572Y60070D01*
X17564Y60076D01*
X17557Y60086D01*
X9757Y67887D01*
X9724Y67907D01*
X9698Y67935D01*
X9651Y67952D01*
X9609Y67978D01*
X9571Y67982D01*
X9535Y67995D01*
X9486Y67990D01*
X9437Y67995D01*
X9401Y67981D01*
X9363Y67977D01*
X9321Y67951D01*
X9275Y67933D01*
X9249Y67905D01*
X9216Y67884D01*
X9183Y67834D01*
X9157Y67806D01*
X9151Y67786D01*
X9136Y67763D01*
X8576Y66410D01*
X6742Y64576D01*
X5605Y64105D01*
X5584Y64090D01*
X5560Y64083D01*
X5515Y64040D01*
X5465Y64004D01*
X5452Y63981D01*
X5434Y63964D01*
X5412Y63906D01*
X5383Y63851D01*
X5383Y63825D01*
X5374Y63801D01*
X5380Y63740D01*
X5378Y63678D01*
X5389Y63655D01*
X5392Y63629D01*
X5425Y63577D01*
X5451Y63521D01*
X5471Y63504D01*
X5484Y63483D01*
X5556Y63435D01*
X5585Y63412D01*
X5595Y63410D01*
X5605Y63403D01*
X6742Y62932D01*
X8576Y61098D01*
X9167Y59671D01*
X9204Y59620D01*
X9234Y59564D01*
X9254Y59550D01*
X9268Y59531D01*
X9324Y59501D01*
X9376Y59464D01*
X9402Y59459D01*
X9421Y59449D01*
X9459Y59448D01*
X9518Y59437D01*
X17289Y59437D01*
X17314Y59443D01*
G37*
%LPC*%
G36*
X116392Y36458D02*
X116392Y36458D01*
X114309Y38541D01*
X114309Y41488D01*
X116392Y43571D01*
X119339Y43571D01*
X121422Y41488D01*
X121422Y38541D01*
X119339Y36458D01*
X116392Y36458D01*
G37*
%LPD*%
%LPC*%
G36*
X142426Y140862D02*
X142426Y140862D01*
X140354Y142934D01*
X140354Y145864D01*
X142426Y147936D01*
X145356Y147936D01*
X147428Y145864D01*
X147428Y142934D01*
X145356Y140862D01*
X142426Y140862D01*
G37*
%LPD*%
%LPC*%
G36*
X22665Y39643D02*
X22665Y39643D01*
X20593Y41715D01*
X20593Y44645D01*
X22665Y46717D01*
X25595Y46717D01*
X27667Y44645D01*
X27667Y41715D01*
X25595Y39643D01*
X22665Y39643D01*
G37*
%LPD*%
D10*
X112903Y6096D03*
X125603Y6096D03*
X138303Y6096D03*
X151003Y6096D03*
X163703Y6096D03*
X100203Y6096D03*
X87503Y6096D03*
X74803Y6096D03*
X62103Y6096D03*
X49403Y6096D03*
X36703Y6096D03*
X24003Y6096D03*
X11303Y6096D03*
X112903Y172466D03*
X125603Y172466D03*
X138303Y172466D03*
X151003Y172466D03*
X163703Y172466D03*
X100203Y172466D03*
X87503Y172466D03*
X74803Y172466D03*
X62103Y172466D03*
X49403Y172466D03*
X36703Y172466D03*
X24003Y172466D03*
X11303Y172466D03*
X3048Y82804D03*
X3048Y70104D03*
X3048Y57404D03*
X3048Y44704D03*
X3048Y32004D03*
X3048Y95504D03*
X3048Y108204D03*
X3048Y120904D03*
X3048Y133604D03*
X3048Y146304D03*
D11*
X65532Y69215D03*
D12*
X10414Y70104D02*
X3048Y70104D01*
X56374Y60198D02*
X63903Y67727D01*
X64044Y67727D01*
X65532Y69215D01*
X20320Y60198D02*
X10414Y70104D01*
X20320Y60198D02*
X56374Y60198D01*
D13*
X117865Y40014D03*
X149606Y63119D03*
X34925Y96012D03*
X29591Y96012D03*
X40259Y96012D03*
X66675Y148844D03*
X65532Y57277D03*
X69215Y53340D03*
X95631Y44323D03*
X66675Y143129D03*
D14*
X143891Y144399D03*
X87249Y155194D03*
D13*
X124206Y111887D03*
X110871Y98552D03*
X97536Y111887D03*
X110871Y111887D03*
X124206Y98552D03*
X124206Y85217D03*
X110871Y85217D03*
X97536Y85217D03*
X97536Y98552D03*
D11*
X163830Y129921D03*
D13*
X64643Y137287D03*
D11*
X95377Y32385D03*
X150114Y39370D03*
D13*
X97536Y122301D03*
X110490Y122428D03*
X124206Y122301D03*
X97409Y74676D03*
X110871Y74676D03*
X124460Y74676D03*
D11*
X204470Y54610D03*
D14*
X36322Y27178D03*
X37846Y49657D03*
X21717Y95885D03*
D11*
X190500Y135890D03*
X162560Y62230D03*
X162560Y53340D03*
X162560Y40640D03*
X190500Y162560D03*
X190500Y154940D03*
X190500Y148590D03*
X190500Y142240D03*
X7620Y156210D03*
X6350Y17780D03*
X11430Y87630D03*
X11430Y62230D03*
X20828Y139446D03*
X20447Y128016D03*
X118364Y26797D03*
X148971Y22352D03*
X187960Y41656D03*
D13*
X87376Y122301D03*
X87376Y111887D03*
X87376Y98552D03*
X87376Y85217D03*
X87249Y74676D03*
X134366Y122301D03*
X134366Y111887D03*
D11*
X231140Y74930D03*
X231140Y82550D03*
X231140Y91440D03*
X223520Y91440D03*
X223520Y82550D03*
X223520Y74930D03*
X204470Y63500D03*
X195580Y48260D03*
X187960Y48260D03*
X187960Y54610D03*
X195580Y54610D03*
X223520Y99060D03*
X231140Y99060D03*
X95377Y23495D03*
X187960Y34036D03*
X187960Y26416D03*
X187960Y18796D03*
X187960Y11176D03*
X200660Y36576D03*
X200660Y28956D03*
X200660Y21336D03*
X228600Y28956D03*
X228600Y36576D03*
X228600Y21336D03*
X195707Y11176D03*
X231140Y11176D03*
X223520Y67310D03*
X223520Y59690D03*
X223520Y52070D03*
X204470Y48260D03*
X231140Y67310D03*
X231140Y59690D03*
X231140Y52070D03*
X215900Y82550D03*
X215900Y91440D03*
X215900Y99060D03*
X208280Y99060D03*
X199390Y99060D03*
X190500Y114427D03*
X190500Y106680D03*
X190500Y99060D03*
X223647Y11176D03*
X177800Y99060D03*
X179070Y106680D03*
X179070Y114427D03*
X168910Y99060D03*
X168910Y106680D03*
X169037Y114427D03*
X190500Y92710D03*
X190500Y85090D03*
X195580Y63500D03*
X187960Y63500D03*
X203454Y11303D03*
X190373Y129032D03*
X172593Y168148D03*
X180594Y168275D03*
D13*
X40005Y129921D03*
X34417Y129794D03*
D11*
X75057Y19304D03*
D15*
X34417Y129794D02*
X34036Y130175D01*
X11557Y172466D02*
X11303Y172466D01*
X34417Y129794D01*
D11*
X221361Y130810D03*
X221234Y161671D03*
D12*
X221107Y161544D02*
X221107Y131064D01*
X221361Y130810D01*
X221107Y161544D02*
X221234Y161671D01*
D11*
X68072Y125857D03*
D12*
X67691Y129667D02*
X74676Y136652D01*
X67691Y129667D02*
X67691Y126238D01*
X68072Y125857D01*
X49403Y163322D02*
X49403Y172466D01*
X49403Y163322D02*
X53848Y158877D01*
X67310Y158877D01*
X74676Y151511D01*
X74676Y136652D01*
D11*
X77597Y132969D03*
D12*
X77597Y153035D01*
X62103Y168529D02*
X62103Y172466D01*
X62103Y168529D02*
X77597Y153035D01*
D11*
X153416Y96139D03*
D12*
X153152Y96139D01*
X154813Y19685D02*
X151003Y15875D01*
X151003Y6096D01*
X152146Y96139D02*
X153416Y96139D01*
X152146Y96139D02*
X151892Y95885D01*
X154813Y86487D02*
X154813Y19685D01*
X151892Y89408D02*
X151892Y95885D01*
X151892Y89408D02*
X154813Y86487D01*
D11*
X156591Y100965D03*
D12*
X156353Y101203D01*
X145288Y94996D02*
X145288Y26035D01*
X145288Y94996D02*
X151495Y101203D01*
X156353Y101203D01*
X138303Y19050D02*
X138303Y6096D01*
X138303Y19050D02*
X145288Y26035D01*
D11*
X153543Y105918D03*
D12*
X153416Y106045D01*
X151741Y106045D01*
X142367Y96671D01*
X142367Y27065D01*
X125603Y10301D02*
X125603Y6096D01*
X125603Y10301D02*
X142367Y27065D01*
D11*
X156718Y111252D03*
D12*
X139573Y98210D02*
X139573Y28223D01*
X139573Y98210D02*
X151564Y110200D01*
X155666Y110200D01*
X139573Y28223D02*
X125193Y13843D01*
X155666Y110200D02*
X156718Y111252D01*
X112903Y9271D02*
X112903Y6096D01*
X112903Y9271D02*
X117475Y13843D01*
X125193Y13843D01*
D11*
X225552Y145034D03*
X153543Y116078D03*
D12*
X136779Y29380D02*
X124163Y16764D01*
X136779Y29380D02*
X136779Y99875D01*
X151868Y114964D01*
X152429Y114964D02*
X153543Y116078D01*
X152429Y114964D02*
X151868Y114964D01*
X100203Y7366D02*
X100203Y6096D01*
X109601Y16764D02*
X124163Y16764D01*
X109601Y16764D02*
X100203Y7366D01*
D11*
X225425Y151511D03*
X155702Y121920D03*
D12*
X87503Y9017D02*
X87503Y6096D01*
X87503Y9017D02*
X92964Y14478D01*
X103364Y14478D01*
X108444Y19558D01*
X121920Y19558D01*
X133985Y31623D01*
X154142Y120360D02*
X155702Y121920D01*
X154142Y120360D02*
X151769Y120360D01*
X149261Y117852D01*
X149261Y116308D01*
X133985Y101032D02*
X133985Y31623D01*
X133985Y101032D02*
X149261Y116308D01*
D11*
X133731Y143256D03*
D12*
X133731Y154686D01*
X137922Y158877D01*
X150241Y158877D01*
X163703Y172339D02*
X163703Y172466D01*
X163703Y172339D02*
X150241Y158877D01*
D11*
X128270Y141224D03*
D12*
X128159Y141335D01*
X128270Y158496D02*
X131826Y162052D01*
X145415Y162052D01*
X128270Y158496D02*
X128270Y141224D01*
X151003Y167640D02*
X151003Y172466D01*
X151003Y167640D02*
X145415Y162052D01*
D11*
X123317Y144526D03*
D12*
X123317Y157988D01*
X130429Y165100D02*
X134747Y165100D01*
X130429Y165100D02*
X123317Y157988D01*
X138303Y168656D02*
X138303Y172466D01*
X138303Y168656D02*
X134747Y165100D01*
D11*
X118110Y140970D03*
D12*
X118618Y141478D01*
X125603Y165227D02*
X125603Y172466D01*
X125603Y165227D02*
X118110Y157734D01*
X118110Y141986D01*
X118618Y141478D01*
D11*
X113538Y144653D03*
D12*
X113538Y171831D02*
X112903Y172466D01*
X113538Y171831D02*
X113538Y144653D01*
D11*
X108331Y140843D03*
D12*
X108331Y157607D01*
X100711Y171958D02*
X100203Y172466D01*
X100711Y165227D02*
X108331Y157607D01*
X100711Y165227D02*
X100711Y171958D01*
D14*
X24130Y43180D03*
D11*
X103632Y144272D03*
D12*
X103886Y144526D01*
X103886Y157353D01*
X87503Y166878D02*
X87503Y172466D01*
X87503Y166878D02*
X91567Y162814D01*
X98425Y162814D02*
X103886Y157353D01*
X98425Y162814D02*
X91567Y162814D01*
D11*
X98425Y141224D03*
D12*
X98425Y152400D01*
X74803Y164719D02*
X74803Y172466D01*
X90805Y160020D02*
X98425Y152400D01*
X79502Y160020D02*
X74803Y164719D01*
X79502Y160020D02*
X90805Y160020D01*
D11*
X64389Y120396D03*
D12*
X63389Y121396D01*
X63389Y129683D01*
X71755Y138049D01*
X36703Y171577D02*
X36703Y172466D01*
X52451Y155829D02*
X65913Y155829D01*
X71755Y149987D01*
X71755Y138049D01*
X52451Y155829D02*
X36703Y171577D01*
D11*
X68199Y115824D03*
D12*
X67929Y116094D01*
X59690Y148082D02*
X54737Y153035D01*
X59690Y118618D02*
X62484Y115824D01*
X68199Y115824D01*
X59690Y118618D02*
X59690Y148082D01*
X24003Y168402D02*
X24003Y172466D01*
X24003Y168402D02*
X24003Y167894D01*
X51294Y153035D02*
X54737Y153035D01*
X28194Y164211D02*
X24003Y168402D01*
X40118Y164211D02*
X51294Y153035D01*
X40118Y164211D02*
X28194Y164211D01*
D11*
X64643Y111252D03*
D12*
X62005Y111252D01*
X59465Y113792D01*
X18429Y113792D01*
X11430Y120791D02*
X11430Y126873D01*
X11430Y120791D02*
X18429Y113792D01*
X4699Y133604D02*
X3048Y133604D01*
X4699Y133604D02*
X11430Y126873D01*
D11*
X67945Y105918D03*
D12*
X67818Y106045D01*
X67945Y105918D02*
X63387Y105918D01*
X58307Y110998D01*
X17272Y110998D01*
X7366Y120904D02*
X3048Y120904D01*
X7366Y120904D02*
X17272Y110998D01*
D11*
X64262Y101092D03*
D12*
X57150Y108204D01*
X3048Y108204D01*
D11*
X68453Y96139D03*
D12*
X68290Y95976D01*
X59259Y95976D01*
X10414Y95504D02*
X3048Y95504D01*
X10414Y95504D02*
X20320Y85598D01*
X48881Y85598D01*
X59259Y95976D01*
D11*
X64135Y91694D03*
D12*
X58928Y91694D01*
X50038Y82804D02*
X3048Y82804D01*
X50038Y82804D02*
X58928Y91694D01*
D11*
X69850Y65278D03*
D12*
X57531Y57404D02*
X3048Y57404D01*
X69505Y64933D02*
X69850Y65278D01*
X69505Y64933D02*
X65060Y64933D01*
X57531Y57404D01*
D11*
X76708Y64516D03*
D12*
X11557Y44704D02*
X3048Y44704D01*
X11557Y44704D02*
X21463Y34798D01*
X59745Y34798D02*
X74647Y49700D01*
X74647Y54679D01*
X72934Y56392D01*
X72934Y59940D01*
X76708Y63714D02*
X76708Y64516D01*
X76708Y63714D02*
X72934Y59940D01*
X59745Y34798D02*
X21463Y34798D01*
D11*
X77216Y58166D03*
D12*
X77216Y58039D01*
X60903Y32004D02*
X3048Y32004D01*
X60903Y32004D02*
X77441Y48543D01*
X77441Y57814D01*
X77216Y58039D01*
D11*
X85852Y52451D03*
D12*
X11303Y10668D02*
X11303Y6096D01*
X15494Y14859D02*
X29196Y14859D01*
X34403Y20066D02*
X52916Y20066D01*
X85301Y52451D02*
X85852Y52451D01*
X85301Y52451D02*
X52916Y20066D01*
X15494Y14859D02*
X11303Y10668D01*
X29196Y14859D02*
X34403Y20066D01*
D11*
X93980Y54483D03*
D12*
X93980Y52832D01*
X86233Y45085D01*
X81886Y45085D01*
X35560Y17272D02*
X24384Y6096D01*
X24003Y6096D01*
X35560Y17272D02*
X54073Y17272D01*
X81886Y45085D01*
D11*
X97790Y50038D03*
D12*
X87884Y42291D02*
X83044Y42291D01*
X91313Y45720D02*
X91313Y46112D01*
X95239Y50038D01*
X97790Y50038D01*
X91313Y45720D02*
X87884Y42291D01*
X45085Y14478D02*
X36703Y6096D01*
X45085Y14478D02*
X53594Y14478D01*
X53848Y14224D01*
X54977Y14224D01*
X83044Y42291D01*
D11*
X103632Y53213D03*
D12*
X103632Y45847D02*
X97282Y39497D01*
X103632Y45847D02*
X103632Y53213D01*
X84201Y39497D02*
X50800Y6096D01*
X49403Y6096D01*
X84201Y39497D02*
X97282Y39497D01*
D11*
X110236Y55372D03*
D12*
X110109Y55372D01*
X98552Y36703D02*
X85598Y36703D01*
X98552Y36703D02*
X110236Y48387D01*
X110236Y55372D01*
X62103Y13208D02*
X62103Y6096D01*
X62103Y13208D02*
X85598Y36703D01*
D11*
X156591Y91059D03*
D12*
X157607Y19685D02*
X163703Y13589D01*
X163703Y6096D01*
X157607Y90043D02*
X156591Y91059D01*
X157607Y90043D02*
X157607Y19685D01*
D11*
X153670Y127381D03*
D12*
X153646Y127381D01*
X153670Y127381D02*
X153416Y127381D01*
X120396Y22352D02*
X107286Y22352D01*
X102206Y17272D01*
X87884Y13589D02*
X79248Y13589D01*
X74803Y9144D01*
X91567Y17272D02*
X102206Y17272D01*
X91567Y17272D02*
X87884Y13589D01*
X74803Y9144D02*
X74803Y6096D01*
X146467Y120178D02*
X153670Y127381D01*
X146467Y120178D02*
X146467Y117466D01*
X131191Y102190D01*
X131191Y33147D01*
X120396Y22352D01*
M02*
