G04 EAGLE Gerber RS-274X export*
G75*
%MOMM*%
%FSLAX34Y34*%
%LPD*%
%INTop Copper*%
%IPPOS*%
%AMOC8*
5,1,8,0,0,1.08239X$1,22.5*%
G01*
%ADD10C,0.130000*%
%ADD11C,0.152400*%
%ADD12R,0.850000X0.300000*%
%ADD13R,0.300000X0.850000*%
%ADD14C,0.157500*%
%ADD15C,0.280800*%
%ADD16C,0.500000*%
%ADD17C,0.402900*%
%ADD18R,1.000000X1.800000*%
%ADD19R,0.850000X0.950000*%
%ADD20C,0.270000*%
%ADD21R,0.900000X1.000000*%
%ADD22C,0.300000*%
%ADD23C,1.050000*%
%ADD24R,0.850000X2.200000*%
%ADD25R,1.000000X1.050000*%
%ADD26C,0.450000*%
%ADD27C,0.304800*%
%ADD28C,0.457200*%
%ADD29C,0.431800*%
%ADD30C,0.609600*%
%ADD31C,0.406400*%
%ADD32C,0.254000*%
%ADD33C,0.330200*%
%ADD34C,0.453200*%
%ADD35C,0.508000*%
%ADD36C,0.203200*%
%ADD37C,0.200000*%

G36*
X207491Y7573D02*
X207491Y7573D01*
X207510Y7571D01*
X207612Y7593D01*
X207714Y7609D01*
X207731Y7619D01*
X207751Y7623D01*
X207840Y7676D01*
X207931Y7725D01*
X207945Y7739D01*
X207962Y7749D01*
X208029Y7828D01*
X208101Y7903D01*
X208109Y7921D01*
X208122Y7936D01*
X208161Y8032D01*
X208204Y8126D01*
X208206Y8146D01*
X208214Y8164D01*
X208232Y8331D01*
X208232Y17780D01*
X208229Y17800D01*
X208231Y17819D01*
X208209Y17921D01*
X208193Y18023D01*
X208183Y18040D01*
X208179Y18060D01*
X208126Y18149D01*
X208077Y18240D01*
X208063Y18254D01*
X208053Y18271D01*
X207974Y18338D01*
X207899Y18410D01*
X207881Y18418D01*
X207866Y18431D01*
X207770Y18470D01*
X207676Y18513D01*
X207656Y18515D01*
X207638Y18523D01*
X207471Y18541D01*
X205963Y18541D01*
X205739Y18765D01*
X205739Y37877D01*
X205963Y38101D01*
X207471Y38101D01*
X207491Y38104D01*
X207510Y38102D01*
X207612Y38124D01*
X207714Y38140D01*
X207731Y38150D01*
X207751Y38154D01*
X207840Y38207D01*
X207931Y38256D01*
X207945Y38270D01*
X207962Y38280D01*
X208029Y38359D01*
X208101Y38434D01*
X208109Y38452D01*
X208122Y38467D01*
X208161Y38563D01*
X208204Y38657D01*
X208206Y38677D01*
X208214Y38695D01*
X208232Y38862D01*
X208232Y49347D01*
X208977Y50092D01*
X210058Y50092D01*
X210078Y50095D01*
X210097Y50093D01*
X210199Y50115D01*
X210301Y50131D01*
X210318Y50141D01*
X210338Y50145D01*
X210427Y50198D01*
X210518Y50247D01*
X210532Y50261D01*
X210549Y50271D01*
X210616Y50350D01*
X210688Y50425D01*
X210696Y50443D01*
X210709Y50458D01*
X210747Y50554D01*
X210791Y50648D01*
X210793Y50668D01*
X210801Y50686D01*
X210819Y50853D01*
X210819Y51270D01*
X210805Y51360D01*
X210797Y51451D01*
X210785Y51481D01*
X210780Y51513D01*
X210737Y51594D01*
X210701Y51678D01*
X210675Y51710D01*
X210664Y51730D01*
X210641Y51752D01*
X210596Y51808D01*
X209851Y52553D01*
X209851Y57425D01*
X211197Y58771D01*
X211209Y58787D01*
X211225Y58799D01*
X211281Y58887D01*
X211341Y58970D01*
X211347Y58989D01*
X211358Y59006D01*
X211383Y59107D01*
X211413Y59206D01*
X211413Y59225D01*
X211418Y59245D01*
X211410Y59348D01*
X211407Y59451D01*
X211400Y59470D01*
X211399Y59490D01*
X211358Y59585D01*
X211323Y59682D01*
X211310Y59698D01*
X211302Y59716D01*
X211216Y59824D01*
X211215Y59826D01*
X211214Y59827D01*
X211197Y59847D01*
X209851Y61193D01*
X209851Y66065D01*
X211106Y67320D01*
X211159Y67394D01*
X211219Y67463D01*
X211231Y67493D01*
X211250Y67519D01*
X211277Y67606D01*
X211311Y67691D01*
X211315Y67732D01*
X211322Y67754D01*
X211321Y67787D01*
X211329Y67858D01*
X211329Y69433D01*
X211315Y69523D01*
X211307Y69614D01*
X211295Y69644D01*
X211290Y69676D01*
X211247Y69757D01*
X211211Y69840D01*
X211185Y69873D01*
X211174Y69893D01*
X211151Y69915D01*
X211106Y69971D01*
X210342Y70735D01*
X210326Y70747D01*
X210314Y70763D01*
X210226Y70819D01*
X210143Y70879D01*
X210124Y70885D01*
X210107Y70896D01*
X210006Y70921D01*
X209907Y70951D01*
X209888Y70951D01*
X209868Y70956D01*
X209765Y70948D01*
X209662Y70945D01*
X209643Y70938D01*
X209623Y70937D01*
X209528Y70896D01*
X209431Y70861D01*
X209415Y70848D01*
X209397Y70840D01*
X209266Y70735D01*
X207920Y69389D01*
X203048Y69389D01*
X201795Y70642D01*
X201721Y70695D01*
X201652Y70755D01*
X201622Y70767D01*
X201596Y70786D01*
X201509Y70813D01*
X201424Y70847D01*
X201383Y70851D01*
X201361Y70858D01*
X201328Y70857D01*
X201257Y70865D01*
X200063Y70865D01*
X199973Y70851D01*
X199882Y70843D01*
X199852Y70831D01*
X199820Y70826D01*
X199739Y70783D01*
X199656Y70747D01*
X199623Y70721D01*
X199603Y70710D01*
X199581Y70687D01*
X199525Y70642D01*
X198145Y69262D01*
X193273Y69262D01*
X191927Y70608D01*
X191911Y70620D01*
X191899Y70636D01*
X191811Y70692D01*
X191728Y70752D01*
X191709Y70758D01*
X191692Y70769D01*
X191591Y70794D01*
X191492Y70824D01*
X191473Y70824D01*
X191453Y70829D01*
X191350Y70821D01*
X191247Y70818D01*
X191228Y70811D01*
X191208Y70810D01*
X191113Y70769D01*
X191016Y70734D01*
X191000Y70721D01*
X190982Y70713D01*
X190851Y70608D01*
X189505Y69262D01*
X185271Y69262D01*
X185167Y69245D01*
X185062Y69233D01*
X185042Y69225D01*
X185028Y69223D01*
X185001Y69208D01*
X184907Y69169D01*
X181661Y67398D01*
X181601Y67351D01*
X181535Y67312D01*
X181504Y67276D01*
X181467Y67247D01*
X181425Y67183D01*
X181375Y67125D01*
X181358Y67081D01*
X181332Y67042D01*
X181312Y66968D01*
X181283Y66897D01*
X181276Y66834D01*
X181268Y66804D01*
X181270Y66778D01*
X181265Y66730D01*
X181265Y65082D01*
X179730Y63547D01*
X174858Y63547D01*
X173512Y64893D01*
X173496Y64905D01*
X173484Y64921D01*
X173396Y64977D01*
X173313Y65037D01*
X173294Y65043D01*
X173277Y65054D01*
X173176Y65079D01*
X173077Y65109D01*
X173058Y65109D01*
X173038Y65114D01*
X172935Y65106D01*
X172832Y65103D01*
X172813Y65096D01*
X172793Y65095D01*
X172698Y65054D01*
X172601Y65019D01*
X172585Y65006D01*
X172567Y64998D01*
X172436Y64893D01*
X171672Y64129D01*
X171619Y64056D01*
X171559Y63986D01*
X171547Y63956D01*
X171528Y63930D01*
X171501Y63843D01*
X171467Y63758D01*
X171463Y63717D01*
X171456Y63695D01*
X171457Y63662D01*
X171449Y63591D01*
X171449Y61758D01*
X171463Y61668D01*
X171471Y61577D01*
X171483Y61547D01*
X171488Y61515D01*
X171531Y61435D01*
X171567Y61351D01*
X171593Y61318D01*
X171604Y61298D01*
X171627Y61276D01*
X171672Y61220D01*
X172436Y60456D01*
X172452Y60444D01*
X172464Y60428D01*
X172552Y60372D01*
X172635Y60312D01*
X172654Y60306D01*
X172671Y60295D01*
X172772Y60270D01*
X172871Y60240D01*
X172890Y60240D01*
X172910Y60235D01*
X173013Y60243D01*
X173116Y60246D01*
X173135Y60253D01*
X173155Y60254D01*
X173250Y60295D01*
X173347Y60330D01*
X173363Y60343D01*
X173381Y60351D01*
X173512Y60456D01*
X174858Y61802D01*
X179730Y61802D01*
X181265Y60267D01*
X181265Y54795D01*
X180439Y53969D01*
X180386Y53895D01*
X180326Y53826D01*
X180314Y53796D01*
X180295Y53770D01*
X180268Y53683D01*
X180234Y53598D01*
X180230Y53557D01*
X180223Y53535D01*
X180224Y53502D01*
X180216Y53431D01*
X180216Y51217D01*
X180230Y51127D01*
X180238Y51036D01*
X180250Y51006D01*
X180255Y50974D01*
X180298Y50893D01*
X180334Y50809D01*
X180360Y50777D01*
X180371Y50757D01*
X180394Y50735D01*
X180439Y50679D01*
X181392Y49726D01*
X181392Y44254D01*
X179857Y42719D01*
X174985Y42719D01*
X173450Y44254D01*
X173450Y49726D01*
X174403Y50679D01*
X174456Y50753D01*
X174516Y50822D01*
X174528Y50852D01*
X174547Y50878D01*
X174574Y50965D01*
X174608Y51050D01*
X174612Y51091D01*
X174619Y51113D01*
X174618Y51146D01*
X174626Y51217D01*
X174626Y53177D01*
X174612Y53267D01*
X174604Y53358D01*
X174592Y53388D01*
X174587Y53420D01*
X174544Y53501D01*
X174508Y53585D01*
X174482Y53617D01*
X174471Y53637D01*
X174448Y53659D01*
X174403Y53715D01*
X173512Y54606D01*
X173496Y54618D01*
X173484Y54634D01*
X173397Y54690D01*
X173313Y54750D01*
X173293Y54756D01*
X173277Y54767D01*
X173176Y54792D01*
X173077Y54822D01*
X173058Y54822D01*
X173038Y54827D01*
X172935Y54819D01*
X172832Y54816D01*
X172813Y54809D01*
X172793Y54808D01*
X172698Y54767D01*
X172601Y54732D01*
X172585Y54719D01*
X172567Y54711D01*
X172436Y54606D01*
X171090Y53260D01*
X166218Y53260D01*
X164683Y54795D01*
X164683Y60267D01*
X165636Y61220D01*
X165689Y61294D01*
X165749Y61363D01*
X165761Y61393D01*
X165780Y61419D01*
X165807Y61506D01*
X165841Y61591D01*
X165845Y61632D01*
X165852Y61654D01*
X165851Y61687D01*
X165859Y61758D01*
X165859Y63591D01*
X165845Y63681D01*
X165837Y63772D01*
X165825Y63802D01*
X165820Y63834D01*
X165777Y63915D01*
X165741Y63999D01*
X165715Y64031D01*
X165704Y64051D01*
X165681Y64073D01*
X165636Y64129D01*
X164460Y65305D01*
X164415Y65338D01*
X164350Y65400D01*
X164332Y65408D01*
X164317Y65421D01*
X164278Y65437D01*
X164261Y65449D01*
X164210Y65464D01*
X164127Y65503D01*
X164107Y65505D01*
X164089Y65513D01*
X164033Y65519D01*
X164025Y65521D01*
X164014Y65521D01*
X163922Y65531D01*
X158184Y65531D01*
X155173Y68542D01*
X155099Y68595D01*
X155029Y68655D01*
X154999Y68667D01*
X154973Y68686D01*
X154886Y68713D01*
X154801Y68747D01*
X154760Y68751D01*
X154738Y68758D01*
X154706Y68757D01*
X154634Y68765D01*
X150947Y68765D01*
X150857Y68751D01*
X150766Y68743D01*
X150736Y68731D01*
X150704Y68726D01*
X150623Y68683D01*
X150539Y68647D01*
X150507Y68621D01*
X150487Y68610D01*
X150464Y68587D01*
X150408Y68542D01*
X150147Y68281D01*
X143231Y68281D01*
X143160Y68270D01*
X143088Y68268D01*
X143039Y68250D01*
X142988Y68242D01*
X142925Y68208D01*
X142857Y68183D01*
X142817Y68151D01*
X142771Y68126D01*
X142721Y68075D01*
X142665Y68030D01*
X142637Y67986D01*
X142601Y67948D01*
X142571Y67883D01*
X142532Y67823D01*
X142520Y67772D01*
X142498Y67725D01*
X142490Y67654D01*
X142472Y67584D01*
X142476Y67532D01*
X142471Y67481D01*
X142486Y67410D01*
X142491Y67339D01*
X142512Y67291D01*
X142523Y67240D01*
X142560Y67179D01*
X142588Y67113D01*
X142633Y67057D01*
X142649Y67029D01*
X142667Y67014D01*
X142693Y66982D01*
X145027Y64647D01*
X145044Y64635D01*
X145056Y64620D01*
X145143Y64564D01*
X145227Y64503D01*
X145246Y64498D01*
X145263Y64487D01*
X145363Y64461D01*
X145462Y64431D01*
X145482Y64432D01*
X145501Y64427D01*
X145604Y64435D01*
X145708Y64437D01*
X145727Y64444D01*
X145747Y64446D01*
X145841Y64486D01*
X145939Y64522D01*
X145955Y64534D01*
X145973Y64542D01*
X146104Y64647D01*
X148133Y66676D01*
X151079Y66676D01*
X153163Y64592D01*
X153163Y59549D01*
X153177Y59459D01*
X153185Y59368D01*
X153197Y59338D01*
X153202Y59306D01*
X153245Y59226D01*
X153281Y59142D01*
X153307Y59110D01*
X153318Y59089D01*
X153341Y59067D01*
X153386Y59011D01*
X154131Y58266D01*
X154131Y53458D01*
X152564Y51891D01*
X147131Y51891D01*
X147061Y51880D01*
X146989Y51878D01*
X146940Y51860D01*
X146889Y51852D01*
X146825Y51818D01*
X146758Y51793D01*
X146717Y51761D01*
X146671Y51736D01*
X146622Y51685D01*
X146566Y51640D01*
X146538Y51596D01*
X146502Y51558D01*
X146472Y51493D01*
X146433Y51433D01*
X146420Y51382D01*
X146398Y51335D01*
X146390Y51264D01*
X146373Y51194D01*
X146377Y51142D01*
X146371Y51091D01*
X146386Y51020D01*
X146392Y50949D01*
X146412Y50901D01*
X146423Y50850D01*
X146460Y50789D01*
X146488Y50723D01*
X146533Y50667D01*
X146549Y50639D01*
X146567Y50624D01*
X146593Y50592D01*
X146813Y50372D01*
X146813Y35180D01*
X143955Y32322D01*
X143902Y32248D01*
X143842Y32179D01*
X143830Y32148D01*
X143811Y32122D01*
X143784Y32035D01*
X143750Y31950D01*
X143746Y31909D01*
X143739Y31887D01*
X143740Y31855D01*
X143732Y31784D01*
X143732Y24177D01*
X142987Y23432D01*
X133435Y23432D01*
X132690Y24177D01*
X132690Y34729D01*
X133435Y35474D01*
X141042Y35474D01*
X141132Y35488D01*
X141223Y35496D01*
X141252Y35508D01*
X141284Y35513D01*
X141365Y35556D01*
X141449Y35592D01*
X141481Y35618D01*
X141502Y35629D01*
X141524Y35652D01*
X141580Y35697D01*
X142524Y36641D01*
X142577Y36715D01*
X142637Y36784D01*
X142649Y36815D01*
X142668Y36841D01*
X142695Y36928D01*
X142729Y37013D01*
X142733Y37053D01*
X142740Y37076D01*
X142739Y37108D01*
X142747Y37179D01*
X142747Y48373D01*
X142733Y48463D01*
X142725Y48554D01*
X142713Y48583D01*
X142708Y48615D01*
X142665Y48696D01*
X142629Y48780D01*
X142603Y48812D01*
X142592Y48833D01*
X142569Y48855D01*
X142524Y48911D01*
X140351Y51084D01*
X140277Y51137D01*
X140208Y51197D01*
X140177Y51209D01*
X140151Y51228D01*
X140064Y51255D01*
X139979Y51289D01*
X139938Y51293D01*
X139916Y51300D01*
X139884Y51299D01*
X139813Y51307D01*
X136826Y51307D01*
X135412Y52721D01*
X132752Y55381D01*
X131703Y56430D01*
X131645Y56472D01*
X131593Y56521D01*
X131546Y56543D01*
X131504Y56574D01*
X131435Y56595D01*
X131370Y56625D01*
X131318Y56631D01*
X131268Y56646D01*
X131197Y56644D01*
X131126Y56652D01*
X131075Y56641D01*
X131023Y56640D01*
X130955Y56615D01*
X130885Y56600D01*
X130840Y56573D01*
X130792Y56555D01*
X130736Y56510D01*
X130674Y56474D01*
X130640Y56434D01*
X130600Y56401D01*
X130561Y56341D01*
X130514Y56287D01*
X130495Y56238D01*
X130467Y56194D01*
X130449Y56125D01*
X130422Y56058D01*
X130414Y55987D01*
X130406Y55956D01*
X130408Y55933D01*
X130404Y55892D01*
X130404Y51329D01*
X130348Y51273D01*
X130306Y51215D01*
X130257Y51163D01*
X130235Y51116D01*
X130204Y51074D01*
X130183Y51005D01*
X130153Y50940D01*
X130147Y50888D01*
X130132Y50838D01*
X130134Y50767D01*
X130126Y50696D01*
X130137Y50645D01*
X130138Y50593D01*
X130163Y50525D01*
X130178Y50455D01*
X130205Y50410D01*
X130223Y50362D01*
X130268Y50306D01*
X130304Y50244D01*
X130344Y50210D01*
X130377Y50170D01*
X130437Y50131D01*
X130491Y50084D01*
X130540Y50065D01*
X130583Y50037D01*
X130653Y50019D01*
X130720Y49992D01*
X130791Y49984D01*
X130822Y49976D01*
X130845Y49978D01*
X130886Y49974D01*
X131487Y49974D01*
X132232Y49229D01*
X132232Y38677D01*
X131487Y37932D01*
X121935Y37932D01*
X121912Y37955D01*
X121896Y37966D01*
X121884Y37982D01*
X121797Y38038D01*
X121713Y38098D01*
X121693Y38104D01*
X121677Y38115D01*
X121576Y38140D01*
X121477Y38171D01*
X121457Y38170D01*
X121438Y38175D01*
X121335Y38167D01*
X121232Y38164D01*
X121213Y38157D01*
X121193Y38156D01*
X121098Y38115D01*
X121001Y38080D01*
X120985Y38067D01*
X120967Y38060D01*
X120836Y37955D01*
X119339Y36458D01*
X116392Y36458D01*
X114289Y38561D01*
X114287Y38586D01*
X114274Y38616D01*
X114269Y38648D01*
X114226Y38729D01*
X114190Y38813D01*
X114165Y38845D01*
X114154Y38865D01*
X114130Y38888D01*
X114086Y38944D01*
X112791Y40238D01*
X112717Y40291D01*
X112647Y40351D01*
X112617Y40363D01*
X112591Y40382D01*
X112504Y40409D01*
X112419Y40443D01*
X112378Y40447D01*
X112356Y40454D01*
X112324Y40453D01*
X112253Y40461D01*
X109437Y40461D01*
X107853Y42045D01*
X107837Y42057D01*
X107825Y42072D01*
X107737Y42128D01*
X107654Y42189D01*
X107635Y42194D01*
X107618Y42205D01*
X107517Y42231D01*
X107418Y42261D01*
X107399Y42260D01*
X107379Y42265D01*
X107276Y42257D01*
X107173Y42255D01*
X107154Y42248D01*
X107134Y42246D01*
X107039Y42206D01*
X106942Y42170D01*
X106926Y42158D01*
X106908Y42150D01*
X106777Y42045D01*
X105193Y40461D01*
X99785Y40461D01*
X99340Y40906D01*
X99266Y40959D01*
X99197Y41019D01*
X99166Y41031D01*
X99140Y41050D01*
X99053Y41077D01*
X98968Y41111D01*
X98928Y41115D01*
X98905Y41122D01*
X98873Y41121D01*
X98802Y41129D01*
X97783Y41129D01*
X97692Y41115D01*
X97602Y41107D01*
X97572Y41095D01*
X97540Y41090D01*
X97459Y41047D01*
X97375Y41011D01*
X97343Y40985D01*
X97322Y40974D01*
X97300Y40951D01*
X97244Y40906D01*
X97104Y40766D01*
X93932Y40766D01*
X93912Y40763D01*
X93893Y40765D01*
X93791Y40743D01*
X93689Y40727D01*
X93672Y40717D01*
X93652Y40713D01*
X93563Y40660D01*
X93472Y40611D01*
X93458Y40597D01*
X93441Y40587D01*
X93374Y40508D01*
X93302Y40433D01*
X93294Y40415D01*
X93281Y40400D01*
X93242Y40304D01*
X93199Y40210D01*
X93197Y40190D01*
X93189Y40172D01*
X93171Y40005D01*
X93171Y35333D01*
X91589Y33751D01*
X91553Y33743D01*
X91451Y33727D01*
X91434Y33717D01*
X91414Y33713D01*
X91325Y33660D01*
X91234Y33611D01*
X91220Y33597D01*
X91203Y33587D01*
X91136Y33508D01*
X91064Y33433D01*
X91056Y33415D01*
X91043Y33400D01*
X91004Y33304D01*
X90961Y33210D01*
X90959Y33190D01*
X90951Y33172D01*
X90933Y33005D01*
X90933Y32305D01*
X78801Y20173D01*
X78748Y20099D01*
X78688Y20030D01*
X78676Y19999D01*
X78657Y19973D01*
X78630Y19886D01*
X78596Y19801D01*
X78592Y19760D01*
X78585Y19738D01*
X78586Y19706D01*
X78578Y19635D01*
X78578Y17846D01*
X76515Y15783D01*
X73599Y15783D01*
X71536Y17846D01*
X71536Y20762D01*
X73599Y22825D01*
X75388Y22825D01*
X75478Y22839D01*
X75569Y22847D01*
X75598Y22859D01*
X75630Y22864D01*
X75711Y22907D01*
X75795Y22943D01*
X75827Y22969D01*
X75848Y22980D01*
X75870Y23003D01*
X75926Y23048D01*
X85882Y33004D01*
X85894Y33020D01*
X85909Y33032D01*
X85965Y33120D01*
X86026Y33203D01*
X86031Y33222D01*
X86042Y33239D01*
X86068Y33340D01*
X86098Y33439D01*
X86097Y33459D01*
X86102Y33478D01*
X86094Y33581D01*
X86092Y33684D01*
X86085Y33703D01*
X86083Y33723D01*
X86043Y33818D01*
X86007Y33915D01*
X85995Y33931D01*
X85987Y33949D01*
X85882Y34080D01*
X84629Y35333D01*
X84629Y40141D01*
X85987Y41499D01*
X85999Y41515D01*
X86014Y41527D01*
X86070Y41615D01*
X86131Y41698D01*
X86136Y41717D01*
X86147Y41734D01*
X86173Y41835D01*
X86203Y41934D01*
X86202Y41953D01*
X86207Y41973D01*
X86199Y42076D01*
X86197Y42179D01*
X86190Y42198D01*
X86188Y42218D01*
X86148Y42313D01*
X86112Y42410D01*
X86100Y42426D01*
X86092Y42444D01*
X85987Y42575D01*
X84612Y43950D01*
X84596Y43962D01*
X84584Y43977D01*
X84496Y44033D01*
X84413Y44094D01*
X84394Y44099D01*
X84377Y44110D01*
X84276Y44136D01*
X84177Y44166D01*
X84158Y44165D01*
X84138Y44170D01*
X84035Y44162D01*
X83932Y44160D01*
X83913Y44153D01*
X83893Y44151D01*
X83798Y44111D01*
X83701Y44075D01*
X83685Y44063D01*
X83667Y44055D01*
X83536Y43950D01*
X81825Y42239D01*
X76417Y42239D01*
X74850Y43806D01*
X74850Y48614D01*
X75679Y49442D01*
X75690Y49458D01*
X75706Y49471D01*
X75762Y49558D01*
X75822Y49642D01*
X75828Y49661D01*
X75839Y49678D01*
X75864Y49778D01*
X75895Y49877D01*
X75894Y49897D01*
X75899Y49916D01*
X75891Y50019D01*
X75888Y50123D01*
X75881Y50142D01*
X75880Y50162D01*
X75839Y50256D01*
X75804Y50354D01*
X75791Y50370D01*
X75784Y50388D01*
X75679Y50519D01*
X74071Y52126D01*
X74013Y52168D01*
X73961Y52218D01*
X73914Y52240D01*
X73872Y52270D01*
X73803Y52291D01*
X73738Y52321D01*
X73686Y52327D01*
X73636Y52342D01*
X73565Y52340D01*
X73494Y52348D01*
X73443Y52337D01*
X73391Y52336D01*
X73323Y52311D01*
X73253Y52296D01*
X73209Y52269D01*
X73160Y52251D01*
X73104Y52207D01*
X73042Y52170D01*
X73008Y52130D01*
X72968Y52098D01*
X72929Y52037D01*
X72882Y51983D01*
X72878Y51973D01*
X72868Y51963D01*
X72815Y51889D01*
X72755Y51819D01*
X72743Y51789D01*
X72724Y51763D01*
X72697Y51676D01*
X72663Y51591D01*
X72659Y51550D01*
X72652Y51528D01*
X72653Y51496D01*
X72645Y51424D01*
X72645Y49516D01*
X72659Y49426D01*
X72667Y49335D01*
X72679Y49305D01*
X72684Y49273D01*
X72727Y49193D01*
X72763Y49109D01*
X72789Y49077D01*
X72800Y49056D01*
X72823Y49034D01*
X72868Y48978D01*
X73232Y48614D01*
X73232Y43806D01*
X71665Y42239D01*
X66257Y42239D01*
X64690Y43806D01*
X64690Y48614D01*
X65562Y49486D01*
X65615Y49560D01*
X65675Y49629D01*
X65687Y49660D01*
X65706Y49686D01*
X65733Y49773D01*
X65767Y49858D01*
X65771Y49898D01*
X65778Y49921D01*
X65777Y49953D01*
X65785Y50024D01*
X65785Y51424D01*
X65771Y51514D01*
X65763Y51606D01*
X65751Y51635D01*
X65746Y51667D01*
X65703Y51748D01*
X65667Y51832D01*
X65658Y51843D01*
X65658Y51985D01*
X65644Y52075D01*
X65636Y52166D01*
X65624Y52196D01*
X65619Y52228D01*
X65576Y52308D01*
X65540Y52392D01*
X65514Y52425D01*
X65503Y52445D01*
X65480Y52467D01*
X65435Y52523D01*
X64461Y53497D01*
X64387Y53550D01*
X64318Y53610D01*
X64288Y53622D01*
X64262Y53641D01*
X64175Y53668D01*
X64090Y53702D01*
X64076Y53703D01*
X61874Y55905D01*
X61857Y55917D01*
X61845Y55933D01*
X61758Y55989D01*
X61674Y56049D01*
X61655Y56055D01*
X61638Y56066D01*
X61538Y56091D01*
X61439Y56121D01*
X61419Y56121D01*
X61399Y56126D01*
X61296Y56118D01*
X61193Y56115D01*
X61174Y56108D01*
X61154Y56107D01*
X61059Y56066D01*
X60962Y56031D01*
X60946Y56018D01*
X60928Y56010D01*
X60797Y55905D01*
X60783Y55891D01*
X52659Y55891D01*
X50450Y58100D01*
X50450Y70424D01*
X52659Y72633D01*
X57316Y72633D01*
X57406Y72647D01*
X57497Y72655D01*
X57527Y72667D01*
X57559Y72672D01*
X57639Y72715D01*
X57723Y72751D01*
X57756Y72777D01*
X57776Y72788D01*
X57798Y72811D01*
X57854Y72856D01*
X60418Y75420D01*
X60460Y75478D01*
X60510Y75530D01*
X60532Y75577D01*
X60562Y75619D01*
X60583Y75688D01*
X60613Y75753D01*
X60619Y75805D01*
X60634Y75855D01*
X60632Y75926D01*
X60640Y75997D01*
X60629Y76048D01*
X60628Y76100D01*
X60603Y76168D01*
X60588Y76238D01*
X60561Y76283D01*
X60543Y76331D01*
X60499Y76387D01*
X60462Y76449D01*
X60422Y76483D01*
X60390Y76523D01*
X60329Y76562D01*
X60275Y76609D01*
X60227Y76628D01*
X60183Y76656D01*
X60113Y76674D01*
X60047Y76701D01*
X59975Y76709D01*
X59944Y76717D01*
X59921Y76715D01*
X59880Y76719D01*
X51643Y76719D01*
X49434Y78928D01*
X49434Y91252D01*
X51643Y93461D01*
X59767Y93461D01*
X59806Y93421D01*
X59823Y93410D01*
X59835Y93394D01*
X59922Y93338D01*
X60006Y93278D01*
X60025Y93272D01*
X60042Y93261D01*
X60142Y93236D01*
X60241Y93205D01*
X60261Y93206D01*
X60281Y93201D01*
X60384Y93209D01*
X60487Y93212D01*
X60506Y93218D01*
X60526Y93220D01*
X60621Y93260D01*
X60718Y93296D01*
X60734Y93308D01*
X60752Y93316D01*
X60883Y93421D01*
X62677Y95215D01*
X64171Y95215D01*
X64191Y95218D01*
X64210Y95216D01*
X64312Y95238D01*
X64414Y95254D01*
X64431Y95264D01*
X64451Y95268D01*
X64540Y95321D01*
X64631Y95370D01*
X64645Y95384D01*
X64662Y95394D01*
X64729Y95473D01*
X64801Y95548D01*
X64809Y95566D01*
X64822Y95581D01*
X64861Y95677D01*
X64904Y95771D01*
X64906Y95791D01*
X64914Y95809D01*
X64932Y95976D01*
X64932Y96810D01*
X64929Y96830D01*
X64931Y96849D01*
X64909Y96951D01*
X64893Y97053D01*
X64883Y97070D01*
X64879Y97090D01*
X64826Y97179D01*
X64777Y97270D01*
X64763Y97284D01*
X64753Y97301D01*
X64674Y97368D01*
X64599Y97440D01*
X64581Y97448D01*
X64566Y97461D01*
X64470Y97500D01*
X64376Y97543D01*
X64356Y97545D01*
X64338Y97553D01*
X64171Y97571D01*
X62804Y97571D01*
X60741Y99634D01*
X60741Y102550D01*
X62804Y104613D01*
X63663Y104613D01*
X63683Y104616D01*
X63702Y104614D01*
X63804Y104636D01*
X63906Y104652D01*
X63923Y104662D01*
X63943Y104666D01*
X64032Y104719D01*
X64123Y104768D01*
X64137Y104782D01*
X64154Y104792D01*
X64221Y104871D01*
X64293Y104946D01*
X64301Y104964D01*
X64314Y104979D01*
X64353Y105075D01*
X64396Y105169D01*
X64398Y105189D01*
X64406Y105207D01*
X64424Y105374D01*
X64424Y106970D01*
X64421Y106990D01*
X64423Y107009D01*
X64401Y107111D01*
X64385Y107213D01*
X64375Y107230D01*
X64371Y107250D01*
X64318Y107339D01*
X64269Y107430D01*
X64255Y107444D01*
X64245Y107461D01*
X64166Y107528D01*
X64091Y107600D01*
X64073Y107608D01*
X64058Y107621D01*
X63962Y107660D01*
X63868Y107703D01*
X63848Y107705D01*
X63830Y107713D01*
X63663Y107731D01*
X63185Y107731D01*
X61122Y109794D01*
X61122Y112710D01*
X63185Y114773D01*
X63917Y114773D01*
X63937Y114776D01*
X63956Y114774D01*
X64058Y114796D01*
X64160Y114812D01*
X64177Y114822D01*
X64197Y114826D01*
X64286Y114879D01*
X64377Y114928D01*
X64391Y114942D01*
X64408Y114952D01*
X64475Y115031D01*
X64547Y115106D01*
X64555Y115124D01*
X64568Y115139D01*
X64607Y115235D01*
X64650Y115329D01*
X64652Y115349D01*
X64660Y115367D01*
X64678Y115534D01*
X64678Y116114D01*
X64675Y116134D01*
X64677Y116153D01*
X64655Y116255D01*
X64639Y116357D01*
X64629Y116374D01*
X64625Y116394D01*
X64572Y116483D01*
X64523Y116574D01*
X64509Y116588D01*
X64499Y116605D01*
X64420Y116672D01*
X64345Y116744D01*
X64327Y116752D01*
X64312Y116765D01*
X64216Y116804D01*
X64122Y116847D01*
X64102Y116849D01*
X64084Y116857D01*
X63917Y116875D01*
X62931Y116875D01*
X60868Y118938D01*
X60868Y121854D01*
X62931Y123917D01*
X63790Y123917D01*
X63810Y123920D01*
X63829Y123918D01*
X63931Y123940D01*
X64033Y123956D01*
X64050Y123966D01*
X64070Y123970D01*
X64159Y124023D01*
X64250Y124072D01*
X64264Y124086D01*
X64281Y124096D01*
X64348Y124175D01*
X64420Y124250D01*
X64428Y124268D01*
X64441Y124283D01*
X64480Y124379D01*
X64523Y124473D01*
X64525Y124493D01*
X64533Y124511D01*
X64551Y124678D01*
X64551Y127315D01*
X66614Y129378D01*
X69530Y129378D01*
X70302Y128606D01*
X70318Y128595D01*
X70330Y128579D01*
X70418Y128523D01*
X70501Y128463D01*
X70520Y128457D01*
X70537Y128446D01*
X70638Y128421D01*
X70737Y128390D01*
X70756Y128391D01*
X70776Y128386D01*
X70879Y128394D01*
X70982Y128397D01*
X71001Y128404D01*
X71021Y128405D01*
X71116Y128446D01*
X71213Y128481D01*
X71229Y128494D01*
X71247Y128502D01*
X71378Y128606D01*
X71595Y128823D01*
X74926Y128823D01*
X74997Y128834D01*
X75069Y128836D01*
X75118Y128854D01*
X75169Y128862D01*
X75232Y128896D01*
X75300Y128921D01*
X75340Y128953D01*
X75387Y128978D01*
X75436Y129030D01*
X75492Y129074D01*
X75520Y129118D01*
X75556Y129156D01*
X75586Y129221D01*
X75625Y129281D01*
X75638Y129332D01*
X75660Y129379D01*
X75667Y129450D01*
X75685Y129520D01*
X75681Y129572D01*
X75687Y129623D01*
X75671Y129694D01*
X75666Y129765D01*
X75645Y129813D01*
X75634Y129864D01*
X75598Y129925D01*
X75569Y129991D01*
X75525Y130047D01*
X75508Y130075D01*
X75490Y130090D01*
X75465Y130122D01*
X74076Y131511D01*
X74076Y134427D01*
X76139Y136490D01*
X79055Y136490D01*
X79301Y136244D01*
X79359Y136202D01*
X79411Y136153D01*
X79458Y136131D01*
X79500Y136101D01*
X79569Y136080D01*
X79634Y136049D01*
X79686Y136044D01*
X79736Y136028D01*
X79807Y136030D01*
X79878Y136022D01*
X79929Y136033D01*
X79981Y136035D01*
X80049Y136059D01*
X80119Y136075D01*
X80164Y136101D01*
X80212Y136119D01*
X80268Y136164D01*
X80330Y136201D01*
X80364Y136240D01*
X80404Y136273D01*
X80443Y136333D01*
X80490Y136388D01*
X80509Y136436D01*
X80537Y136480D01*
X80555Y136549D01*
X80582Y136616D01*
X80590Y136687D01*
X80598Y136718D01*
X80596Y136742D01*
X80600Y136783D01*
X80600Y137828D01*
X81345Y138573D01*
X84727Y138573D01*
X84798Y138584D01*
X84870Y138586D01*
X84919Y138604D01*
X84970Y138612D01*
X85033Y138646D01*
X85101Y138671D01*
X85141Y138703D01*
X85187Y138728D01*
X85237Y138780D01*
X85293Y138824D01*
X85321Y138868D01*
X85357Y138906D01*
X85387Y138971D01*
X85426Y139031D01*
X85438Y139082D01*
X85460Y139129D01*
X85468Y139200D01*
X85486Y139270D01*
X85482Y139322D01*
X85487Y139373D01*
X85472Y139444D01*
X85467Y139515D01*
X85446Y139563D01*
X85435Y139614D01*
X85398Y139675D01*
X85370Y139741D01*
X85325Y139797D01*
X85309Y139825D01*
X85291Y139840D01*
X85265Y139872D01*
X82819Y142318D01*
X82745Y142371D01*
X82676Y142431D01*
X82646Y142443D01*
X82620Y142462D01*
X82532Y142489D01*
X82448Y142523D01*
X82407Y142527D01*
X82385Y142534D01*
X82352Y142533D01*
X82281Y142541D01*
X79874Y142541D01*
X78307Y144108D01*
X78307Y149516D01*
X79874Y151083D01*
X84521Y151083D01*
X84591Y151094D01*
X84663Y151096D01*
X84712Y151114D01*
X84764Y151122D01*
X84827Y151156D01*
X84894Y151181D01*
X84935Y151213D01*
X84981Y151238D01*
X85030Y151290D01*
X85086Y151334D01*
X85114Y151378D01*
X85150Y151416D01*
X85180Y151481D01*
X85219Y151541D01*
X85232Y151592D01*
X85254Y151639D01*
X85262Y151710D01*
X85279Y151780D01*
X85275Y151832D01*
X85281Y151883D01*
X85266Y151954D01*
X85260Y152025D01*
X85240Y152073D01*
X85229Y152124D01*
X85192Y152185D01*
X85164Y152251D01*
X85119Y152307D01*
X85103Y152335D01*
X85085Y152350D01*
X85059Y152382D01*
X83712Y153729D01*
X83712Y156659D01*
X85784Y158731D01*
X88714Y158731D01*
X90804Y156641D01*
X90808Y156589D01*
X90820Y156560D01*
X90825Y156528D01*
X90836Y156507D01*
X90839Y156495D01*
X90869Y156444D01*
X90904Y156363D01*
X90930Y156331D01*
X90941Y156310D01*
X90961Y156291D01*
X90965Y156284D01*
X90972Y156278D01*
X91009Y156232D01*
X92026Y155215D01*
X92100Y155162D01*
X92169Y155102D01*
X92200Y155090D01*
X92226Y155071D01*
X92313Y155044D01*
X92398Y155010D01*
X92439Y155006D01*
X92461Y154999D01*
X92493Y155000D01*
X92564Y154992D01*
X96049Y154992D01*
X97616Y153425D01*
X97616Y148617D01*
X96363Y147364D01*
X96310Y147290D01*
X96250Y147221D01*
X96238Y147190D01*
X96219Y147164D01*
X96192Y147077D01*
X96158Y146992D01*
X96154Y146952D01*
X96147Y146929D01*
X96148Y146897D01*
X96140Y146826D01*
X96140Y145506D01*
X96143Y145486D01*
X96141Y145467D01*
X96163Y145365D01*
X96179Y145263D01*
X96189Y145246D01*
X96193Y145226D01*
X96246Y145137D01*
X96295Y145046D01*
X96309Y145032D01*
X96319Y145015D01*
X96398Y144948D01*
X96473Y144876D01*
X96491Y144868D01*
X96506Y144855D01*
X96602Y144816D01*
X96696Y144773D01*
X96716Y144771D01*
X96734Y144763D01*
X96901Y144745D01*
X99350Y144745D01*
X99370Y144748D01*
X99389Y144746D01*
X99491Y144768D01*
X99593Y144784D01*
X99610Y144794D01*
X99630Y144798D01*
X99719Y144851D01*
X99810Y144900D01*
X99824Y144914D01*
X99841Y144924D01*
X99908Y145003D01*
X99980Y145078D01*
X99988Y145096D01*
X100001Y145111D01*
X100040Y145207D01*
X100083Y145301D01*
X100085Y145321D01*
X100093Y145339D01*
X100111Y145506D01*
X100111Y145730D01*
X102174Y147793D01*
X105090Y147793D01*
X107153Y145730D01*
X107153Y145125D01*
X107156Y145105D01*
X107154Y145086D01*
X107176Y144984D01*
X107192Y144882D01*
X107202Y144865D01*
X107206Y144845D01*
X107259Y144756D01*
X107308Y144665D01*
X107322Y144651D01*
X107332Y144634D01*
X107411Y144567D01*
X107486Y144495D01*
X107504Y144487D01*
X107519Y144474D01*
X107615Y144435D01*
X107709Y144392D01*
X107729Y144390D01*
X107747Y144382D01*
X107914Y144364D01*
X109256Y144364D01*
X109276Y144367D01*
X109295Y144365D01*
X109397Y144387D01*
X109499Y144403D01*
X109516Y144413D01*
X109536Y144417D01*
X109625Y144470D01*
X109716Y144519D01*
X109730Y144533D01*
X109747Y144543D01*
X109814Y144622D01*
X109886Y144697D01*
X109894Y144715D01*
X109907Y144730D01*
X109946Y144826D01*
X109989Y144920D01*
X109991Y144940D01*
X109999Y144958D01*
X110017Y145125D01*
X110017Y146111D01*
X112080Y148174D01*
X114996Y148174D01*
X117059Y146111D01*
X117059Y145252D01*
X117062Y145232D01*
X117060Y145213D01*
X117082Y145111D01*
X117098Y145009D01*
X117108Y144992D01*
X117112Y144972D01*
X117165Y144883D01*
X117214Y144792D01*
X117228Y144778D01*
X117238Y144761D01*
X117317Y144694D01*
X117392Y144622D01*
X117410Y144614D01*
X117425Y144601D01*
X117521Y144562D01*
X117615Y144519D01*
X117635Y144517D01*
X117653Y144509D01*
X117820Y144491D01*
X119035Y144491D01*
X119055Y144494D01*
X119074Y144492D01*
X119176Y144514D01*
X119278Y144530D01*
X119295Y144540D01*
X119315Y144544D01*
X119404Y144597D01*
X119495Y144646D01*
X119509Y144660D01*
X119526Y144670D01*
X119593Y144749D01*
X119665Y144824D01*
X119673Y144842D01*
X119686Y144857D01*
X119725Y144953D01*
X119768Y145047D01*
X119770Y145067D01*
X119778Y145085D01*
X119796Y145252D01*
X119796Y145984D01*
X121859Y148047D01*
X124775Y148047D01*
X126838Y145984D01*
X126838Y145506D01*
X126841Y145486D01*
X126839Y145467D01*
X126861Y145365D01*
X126877Y145263D01*
X126887Y145246D01*
X126891Y145226D01*
X126944Y145137D01*
X126993Y145046D01*
X127007Y145032D01*
X127017Y145015D01*
X127096Y144948D01*
X127171Y144876D01*
X127189Y144868D01*
X127204Y144855D01*
X127300Y144816D01*
X127394Y144773D01*
X127414Y144771D01*
X127432Y144763D01*
X127599Y144745D01*
X129925Y144745D01*
X130015Y144759D01*
X130106Y144767D01*
X130136Y144779D01*
X130168Y144784D01*
X130249Y144827D01*
X130333Y144863D01*
X130365Y144889D01*
X130385Y144900D01*
X130408Y144923D01*
X130464Y144968D01*
X132273Y146777D01*
X133271Y146777D01*
X133291Y146780D01*
X133310Y146778D01*
X133412Y146800D01*
X133514Y146816D01*
X133531Y146826D01*
X133551Y146830D01*
X133640Y146883D01*
X133731Y146932D01*
X133745Y146946D01*
X133762Y146956D01*
X133829Y147035D01*
X133901Y147110D01*
X133909Y147128D01*
X133922Y147143D01*
X133961Y147239D01*
X134004Y147333D01*
X134006Y147353D01*
X134014Y147371D01*
X134032Y147538D01*
X134032Y152155D01*
X135599Y153722D01*
X141007Y153722D01*
X142574Y152155D01*
X142574Y150466D01*
X142588Y150376D01*
X142596Y150285D01*
X142608Y150256D01*
X142613Y150224D01*
X142656Y150143D01*
X142692Y150059D01*
X142718Y150027D01*
X142729Y150006D01*
X142752Y149984D01*
X142797Y149928D01*
X144566Y148159D01*
X144640Y148106D01*
X144709Y148046D01*
X144740Y148034D01*
X144766Y148015D01*
X144853Y147988D01*
X144938Y147954D01*
X144979Y147950D01*
X145001Y147943D01*
X145033Y147944D01*
X145104Y147936D01*
X145356Y147936D01*
X147428Y145864D01*
X147428Y142934D01*
X145356Y140862D01*
X142331Y140862D01*
X142311Y140859D01*
X142292Y140861D01*
X142190Y140839D01*
X142088Y140823D01*
X142071Y140813D01*
X142051Y140809D01*
X141962Y140756D01*
X141871Y140707D01*
X141857Y140693D01*
X141840Y140683D01*
X141773Y140604D01*
X141701Y140529D01*
X141693Y140511D01*
X141680Y140496D01*
X141641Y140400D01*
X141598Y140306D01*
X141596Y140286D01*
X141588Y140268D01*
X141570Y140101D01*
X141570Y140009D01*
X141389Y139828D01*
X141336Y139754D01*
X141276Y139685D01*
X141264Y139654D01*
X141245Y139628D01*
X141218Y139541D01*
X141184Y139456D01*
X141180Y139416D01*
X141173Y139393D01*
X141174Y139361D01*
X141166Y139290D01*
X141166Y131735D01*
X141160Y131722D01*
X141156Y131681D01*
X141149Y131659D01*
X141150Y131626D01*
X141142Y131555D01*
X141142Y129584D01*
X141145Y129564D01*
X141143Y129545D01*
X141165Y129443D01*
X141181Y129341D01*
X141191Y129324D01*
X141195Y129304D01*
X141248Y129215D01*
X141297Y129124D01*
X141311Y129110D01*
X141321Y129093D01*
X141400Y129026D01*
X141475Y128954D01*
X141493Y128946D01*
X141508Y128933D01*
X141604Y128894D01*
X141698Y128851D01*
X141718Y128849D01*
X141736Y128841D01*
X141903Y128823D01*
X149817Y128823D01*
X149907Y128837D01*
X149998Y128845D01*
X150028Y128857D01*
X150060Y128862D01*
X150141Y128905D01*
X150225Y128941D01*
X150257Y128967D01*
X150277Y128978D01*
X150300Y129001D01*
X150356Y129046D01*
X152212Y130902D01*
X152908Y130902D01*
X152928Y130905D01*
X152947Y130903D01*
X153049Y130925D01*
X153151Y130941D01*
X153168Y130951D01*
X153188Y130955D01*
X153277Y131008D01*
X153368Y131057D01*
X153382Y131071D01*
X153399Y131081D01*
X153466Y131160D01*
X153538Y131235D01*
X153546Y131253D01*
X153559Y131268D01*
X153598Y131364D01*
X153641Y131458D01*
X153643Y131478D01*
X153651Y131496D01*
X153669Y131663D01*
X153669Y132602D01*
X153655Y132692D01*
X153647Y132783D01*
X153635Y132813D01*
X153630Y132845D01*
X153587Y132925D01*
X153551Y133009D01*
X153525Y133041D01*
X153514Y133062D01*
X153491Y133084D01*
X153446Y133140D01*
X151749Y134837D01*
X151749Y140245D01*
X153096Y141592D01*
X153138Y141650D01*
X153187Y141702D01*
X153209Y141749D01*
X153240Y141791D01*
X153261Y141860D01*
X153291Y141925D01*
X153297Y141977D01*
X153312Y142027D01*
X153310Y142098D01*
X153318Y142169D01*
X153307Y142220D01*
X153306Y142272D01*
X153281Y142340D01*
X153266Y142410D01*
X153239Y142455D01*
X153221Y142503D01*
X153176Y142559D01*
X153140Y142621D01*
X153100Y142655D01*
X153067Y142695D01*
X153007Y142734D01*
X152953Y142781D01*
X152904Y142800D01*
X152861Y142828D01*
X152791Y142846D01*
X152725Y142873D01*
X152653Y142881D01*
X152622Y142889D01*
X152599Y142887D01*
X152558Y142891D01*
X151011Y142891D01*
X150266Y143636D01*
X150266Y162688D01*
X151011Y163433D01*
X162063Y163433D01*
X162839Y162657D01*
X162913Y162604D01*
X162983Y162544D01*
X163013Y162532D01*
X163039Y162513D01*
X163126Y162486D01*
X163211Y162452D01*
X163252Y162448D01*
X163274Y162441D01*
X163306Y162442D01*
X163378Y162434D01*
X174696Y162434D01*
X174786Y162448D01*
X174877Y162456D01*
X174907Y162468D01*
X174939Y162473D01*
X175020Y162516D01*
X175104Y162552D01*
X175136Y162578D01*
X175156Y162589D01*
X175179Y162612D01*
X175235Y162657D01*
X176011Y163433D01*
X187063Y163433D01*
X187808Y162688D01*
X187808Y143636D01*
X187063Y142891D01*
X185389Y142891D01*
X185318Y142880D01*
X185247Y142878D01*
X185198Y142860D01*
X185146Y142852D01*
X185083Y142818D01*
X185016Y142793D01*
X184975Y142761D01*
X184929Y142736D01*
X184880Y142684D01*
X184824Y142640D01*
X184796Y142596D01*
X184760Y142558D01*
X184729Y142493D01*
X184691Y142433D01*
X184678Y142382D01*
X184656Y142335D01*
X184648Y142264D01*
X184631Y142194D01*
X184635Y142142D01*
X184629Y142091D01*
X184644Y142020D01*
X184650Y141949D01*
X184670Y141901D01*
X184681Y141850D01*
X184718Y141789D01*
X184746Y141723D01*
X184791Y141667D01*
X184807Y141639D01*
X184825Y141624D01*
X184851Y141592D01*
X186198Y140245D01*
X186198Y134837D01*
X184483Y133122D01*
X184430Y133048D01*
X184370Y132979D01*
X184358Y132948D01*
X184339Y132922D01*
X184312Y132835D01*
X184278Y132750D01*
X184274Y132710D01*
X184267Y132687D01*
X184268Y132655D01*
X184260Y132584D01*
X184260Y132490D01*
X179150Y127380D01*
X171210Y127380D01*
X171120Y127366D01*
X171029Y127358D01*
X171000Y127346D01*
X170968Y127341D01*
X170887Y127298D01*
X170803Y127262D01*
X170771Y127236D01*
X170750Y127225D01*
X170728Y127202D01*
X170672Y127157D01*
X166086Y122571D01*
X166033Y122497D01*
X165973Y122428D01*
X165961Y122397D01*
X165942Y122371D01*
X165915Y122284D01*
X165881Y122199D01*
X165877Y122158D01*
X165870Y122136D01*
X165871Y122104D01*
X165863Y122033D01*
X165863Y93805D01*
X165866Y93785D01*
X165864Y93766D01*
X165886Y93664D01*
X165902Y93562D01*
X165912Y93545D01*
X165916Y93525D01*
X165969Y93436D01*
X166018Y93345D01*
X166032Y93331D01*
X166042Y93314D01*
X166121Y93247D01*
X166196Y93175D01*
X166214Y93167D01*
X166229Y93154D01*
X166325Y93115D01*
X166419Y93072D01*
X166439Y93070D01*
X166457Y93062D01*
X166624Y93044D01*
X171090Y93044D01*
X172625Y91509D01*
X172625Y86037D01*
X171545Y84957D01*
X171497Y84891D01*
X171490Y84884D01*
X171488Y84880D01*
X171432Y84814D01*
X171420Y84784D01*
X171401Y84758D01*
X171374Y84671D01*
X171340Y84586D01*
X171336Y84545D01*
X171329Y84523D01*
X171330Y84490D01*
X171322Y84419D01*
X171322Y82713D01*
X171336Y82623D01*
X171344Y82532D01*
X171356Y82502D01*
X171361Y82470D01*
X171404Y82389D01*
X171440Y82306D01*
X171466Y82273D01*
X171477Y82253D01*
X171500Y82231D01*
X171545Y82175D01*
X172309Y81411D01*
X172325Y81399D01*
X172337Y81383D01*
X172425Y81327D01*
X172508Y81267D01*
X172527Y81261D01*
X172544Y81250D01*
X172645Y81225D01*
X172744Y81195D01*
X172763Y81195D01*
X172783Y81190D01*
X172886Y81198D01*
X172989Y81201D01*
X173008Y81208D01*
X173028Y81209D01*
X173123Y81250D01*
X173220Y81285D01*
X173236Y81298D01*
X173254Y81306D01*
X173385Y81411D01*
X174731Y82757D01*
X179603Y82757D01*
X181138Y81222D01*
X181138Y80357D01*
X181150Y80279D01*
X181154Y80201D01*
X181170Y80159D01*
X181177Y80114D01*
X181214Y80045D01*
X181243Y79971D01*
X181271Y79937D01*
X181293Y79897D01*
X181350Y79843D01*
X181400Y79782D01*
X181449Y79748D01*
X181471Y79728D01*
X181496Y79716D01*
X181538Y79687D01*
X184865Y77895D01*
X184963Y77861D01*
X185059Y77822D01*
X185083Y77820D01*
X185097Y77815D01*
X185129Y77814D01*
X185226Y77804D01*
X189505Y77804D01*
X190851Y76458D01*
X190867Y76446D01*
X190879Y76430D01*
X190967Y76374D01*
X191050Y76314D01*
X191069Y76308D01*
X191086Y76297D01*
X191187Y76272D01*
X191286Y76242D01*
X191305Y76242D01*
X191325Y76237D01*
X191428Y76245D01*
X191531Y76248D01*
X191550Y76255D01*
X191570Y76256D01*
X191665Y76297D01*
X191762Y76332D01*
X191778Y76345D01*
X191796Y76353D01*
X191927Y76458D01*
X193273Y77804D01*
X198145Y77804D01*
X199271Y76678D01*
X199345Y76625D01*
X199414Y76565D01*
X199444Y76553D01*
X199470Y76534D01*
X199557Y76507D01*
X199642Y76473D01*
X199683Y76469D01*
X199705Y76462D01*
X199738Y76463D01*
X199809Y76455D01*
X201257Y76455D01*
X201347Y76469D01*
X201438Y76477D01*
X201468Y76489D01*
X201500Y76494D01*
X201581Y76537D01*
X201664Y76573D01*
X201697Y76599D01*
X201717Y76610D01*
X201739Y76633D01*
X201795Y76678D01*
X202466Y77349D01*
X202519Y77423D01*
X202579Y77492D01*
X202591Y77522D01*
X202610Y77548D01*
X202637Y77635D01*
X202671Y77720D01*
X202675Y77761D01*
X202682Y77783D01*
X202681Y77816D01*
X202689Y77887D01*
X202689Y79085D01*
X202675Y79175D01*
X202667Y79266D01*
X202655Y79296D01*
X202650Y79328D01*
X202607Y79409D01*
X202571Y79492D01*
X202545Y79525D01*
X202534Y79545D01*
X202511Y79567D01*
X202466Y79623D01*
X200961Y81128D01*
X200961Y86000D01*
X202496Y87535D01*
X207968Y87535D01*
X209503Y86000D01*
X209503Y81128D01*
X208502Y80127D01*
X208449Y80053D01*
X208389Y79984D01*
X208377Y79954D01*
X208358Y79928D01*
X208331Y79841D01*
X208297Y79756D01*
X208293Y79715D01*
X208286Y79693D01*
X208287Y79660D01*
X208279Y79589D01*
X208279Y77887D01*
X208293Y77797D01*
X208301Y77706D01*
X208313Y77676D01*
X208318Y77644D01*
X208361Y77564D01*
X208397Y77480D01*
X208423Y77447D01*
X208434Y77427D01*
X208457Y77405D01*
X208502Y77349D01*
X209266Y76585D01*
X209282Y76573D01*
X209294Y76557D01*
X209382Y76501D01*
X209465Y76441D01*
X209484Y76435D01*
X209501Y76424D01*
X209602Y76399D01*
X209701Y76369D01*
X209720Y76369D01*
X209740Y76364D01*
X209843Y76372D01*
X209946Y76375D01*
X209965Y76382D01*
X209985Y76383D01*
X210080Y76424D01*
X210177Y76459D01*
X210193Y76472D01*
X210211Y76480D01*
X210342Y76585D01*
X211688Y77931D01*
X216560Y77931D01*
X218095Y76396D01*
X218095Y70924D01*
X217142Y69971D01*
X217089Y69897D01*
X217029Y69828D01*
X217017Y69798D01*
X216998Y69772D01*
X216971Y69685D01*
X216937Y69600D01*
X216933Y69559D01*
X216926Y69537D01*
X216927Y69504D01*
X216919Y69433D01*
X216919Y67854D01*
X216933Y67764D01*
X216941Y67673D01*
X216953Y67643D01*
X216958Y67611D01*
X217001Y67530D01*
X217037Y67447D01*
X217063Y67414D01*
X217074Y67394D01*
X217097Y67372D01*
X217142Y67316D01*
X218393Y66065D01*
X218393Y61193D01*
X217047Y59847D01*
X217035Y59831D01*
X217019Y59819D01*
X216988Y59771D01*
X216981Y59763D01*
X216975Y59749D01*
X216963Y59731D01*
X216903Y59648D01*
X216897Y59629D01*
X216886Y59612D01*
X216861Y59511D01*
X216831Y59412D01*
X216831Y59393D01*
X216826Y59373D01*
X216834Y59270D01*
X216837Y59167D01*
X216844Y59148D01*
X216845Y59128D01*
X216886Y59033D01*
X216921Y58936D01*
X216934Y58920D01*
X216942Y58902D01*
X217047Y58771D01*
X218393Y57425D01*
X218393Y52553D01*
X217648Y51808D01*
X217595Y51734D01*
X217535Y51665D01*
X217523Y51635D01*
X217504Y51609D01*
X217477Y51522D01*
X217443Y51437D01*
X217439Y51396D01*
X217432Y51374D01*
X217433Y51341D01*
X217425Y51270D01*
X217425Y50853D01*
X217428Y50833D01*
X217426Y50814D01*
X217448Y50712D01*
X217464Y50610D01*
X217474Y50593D01*
X217478Y50573D01*
X217531Y50484D01*
X217580Y50393D01*
X217594Y50379D01*
X217604Y50362D01*
X217683Y50295D01*
X217758Y50223D01*
X217776Y50215D01*
X217791Y50202D01*
X217887Y50163D01*
X217981Y50120D01*
X218001Y50118D01*
X218019Y50110D01*
X218186Y50092D01*
X220029Y50092D01*
X220774Y49347D01*
X220774Y38862D01*
X220777Y38842D01*
X220775Y38823D01*
X220797Y38721D01*
X220813Y38619D01*
X220823Y38602D01*
X220827Y38582D01*
X220880Y38493D01*
X220929Y38402D01*
X220943Y38388D01*
X220953Y38371D01*
X221032Y38304D01*
X221107Y38232D01*
X221125Y38224D01*
X221140Y38211D01*
X221236Y38172D01*
X221330Y38129D01*
X221350Y38127D01*
X221368Y38119D01*
X221535Y38101D01*
X223084Y38101D01*
X223307Y37877D01*
X223307Y18765D01*
X223084Y18541D01*
X221535Y18541D01*
X221515Y18538D01*
X221496Y18540D01*
X221394Y18518D01*
X221292Y18502D01*
X221275Y18492D01*
X221255Y18488D01*
X221166Y18435D01*
X221075Y18386D01*
X221061Y18372D01*
X221044Y18362D01*
X220977Y18283D01*
X220905Y18208D01*
X220897Y18190D01*
X220884Y18175D01*
X220845Y18079D01*
X220802Y17985D01*
X220800Y17965D01*
X220792Y17947D01*
X220774Y17780D01*
X220774Y8331D01*
X220777Y8311D01*
X220775Y8292D01*
X220797Y8190D01*
X220813Y8088D01*
X220823Y8071D01*
X220827Y8051D01*
X220880Y7962D01*
X220929Y7871D01*
X220943Y7857D01*
X220953Y7840D01*
X221032Y7773D01*
X221107Y7701D01*
X221125Y7693D01*
X221140Y7680D01*
X221236Y7641D01*
X221330Y7598D01*
X221350Y7596D01*
X221368Y7588D01*
X221535Y7570D01*
X233858Y7570D01*
X233878Y7573D01*
X233897Y7571D01*
X233999Y7593D01*
X234101Y7609D01*
X234118Y7619D01*
X234138Y7623D01*
X234227Y7676D01*
X234318Y7725D01*
X234332Y7739D01*
X234349Y7749D01*
X234416Y7828D01*
X234488Y7903D01*
X234496Y7921D01*
X234509Y7936D01*
X234548Y8032D01*
X234591Y8126D01*
X234593Y8146D01*
X234601Y8164D01*
X234619Y8331D01*
X234619Y170485D01*
X234617Y170502D01*
X234618Y170517D01*
X234618Y170519D01*
X234618Y170524D01*
X234596Y170626D01*
X234580Y170728D01*
X234570Y170745D01*
X234566Y170765D01*
X234513Y170854D01*
X234464Y170945D01*
X234450Y170959D01*
X234440Y170976D01*
X234361Y171043D01*
X234286Y171115D01*
X234268Y171123D01*
X234253Y171136D01*
X234157Y171175D01*
X234063Y171218D01*
X234043Y171220D01*
X234025Y171228D01*
X233858Y171246D01*
X170764Y171246D01*
X170650Y171227D01*
X170533Y171210D01*
X170528Y171208D01*
X170522Y171207D01*
X170419Y171152D01*
X170314Y171099D01*
X170310Y171094D01*
X170304Y171091D01*
X170224Y171007D01*
X170142Y170923D01*
X170138Y170917D01*
X170135Y170913D01*
X170127Y170896D01*
X170061Y170776D01*
X169231Y168772D01*
X167397Y166938D01*
X165000Y165945D01*
X162406Y165945D01*
X160009Y166938D01*
X158175Y168772D01*
X158056Y169059D01*
X158018Y169120D01*
X157989Y169185D01*
X157954Y169224D01*
X157927Y169268D01*
X157871Y169314D01*
X157823Y169366D01*
X157777Y169392D01*
X157737Y169425D01*
X157670Y169451D01*
X157607Y169485D01*
X157556Y169494D01*
X157508Y169513D01*
X157436Y169516D01*
X157365Y169529D01*
X157314Y169521D01*
X157262Y169523D01*
X157193Y169503D01*
X157122Y169493D01*
X157076Y169469D01*
X157026Y169455D01*
X156967Y169414D01*
X156903Y169381D01*
X156866Y169344D01*
X156824Y169315D01*
X156781Y169257D01*
X156731Y169206D01*
X156696Y169143D01*
X156677Y169117D01*
X156669Y169095D01*
X156650Y169059D01*
X156531Y168772D01*
X154697Y166938D01*
X152300Y165945D01*
X149706Y165945D01*
X147309Y166938D01*
X145475Y168772D01*
X145356Y169059D01*
X145318Y169120D01*
X145289Y169185D01*
X145254Y169224D01*
X145227Y169268D01*
X145171Y169314D01*
X145123Y169366D01*
X145077Y169392D01*
X145037Y169425D01*
X144970Y169451D01*
X144907Y169485D01*
X144856Y169494D01*
X144808Y169513D01*
X144736Y169516D01*
X144665Y169529D01*
X144614Y169521D01*
X144562Y169523D01*
X144493Y169503D01*
X144422Y169493D01*
X144376Y169469D01*
X144326Y169455D01*
X144267Y169414D01*
X144203Y169381D01*
X144166Y169344D01*
X144124Y169315D01*
X144081Y169257D01*
X144031Y169206D01*
X143996Y169143D01*
X143977Y169117D01*
X143969Y169095D01*
X143950Y169059D01*
X143831Y168772D01*
X141997Y166938D01*
X139600Y165945D01*
X137006Y165945D01*
X134609Y166938D01*
X132775Y168772D01*
X132656Y169059D01*
X132618Y169120D01*
X132589Y169185D01*
X132554Y169224D01*
X132527Y169268D01*
X132471Y169314D01*
X132423Y169366D01*
X132377Y169392D01*
X132337Y169425D01*
X132270Y169451D01*
X132207Y169485D01*
X132156Y169494D01*
X132108Y169513D01*
X132036Y169516D01*
X131965Y169529D01*
X131914Y169521D01*
X131862Y169523D01*
X131793Y169503D01*
X131722Y169493D01*
X131676Y169469D01*
X131626Y169455D01*
X131567Y169414D01*
X131503Y169381D01*
X131466Y169344D01*
X131424Y169315D01*
X131381Y169257D01*
X131331Y169206D01*
X131296Y169143D01*
X131277Y169117D01*
X131269Y169095D01*
X131250Y169059D01*
X131131Y168772D01*
X129297Y166938D01*
X126900Y165945D01*
X124306Y165945D01*
X121909Y166938D01*
X120075Y168772D01*
X119956Y169059D01*
X119918Y169120D01*
X119889Y169185D01*
X119854Y169224D01*
X119827Y169268D01*
X119771Y169314D01*
X119723Y169366D01*
X119677Y169392D01*
X119637Y169425D01*
X119570Y169451D01*
X119507Y169485D01*
X119456Y169494D01*
X119408Y169513D01*
X119336Y169516D01*
X119265Y169529D01*
X119214Y169521D01*
X119162Y169523D01*
X119093Y169503D01*
X119022Y169493D01*
X118976Y169469D01*
X118926Y169455D01*
X118867Y169414D01*
X118803Y169381D01*
X118766Y169344D01*
X118724Y169315D01*
X118681Y169257D01*
X118631Y169206D01*
X118596Y169143D01*
X118577Y169117D01*
X118569Y169095D01*
X118550Y169059D01*
X118431Y168772D01*
X116597Y166938D01*
X114200Y165945D01*
X111606Y165945D01*
X109209Y166938D01*
X107375Y168772D01*
X107256Y169059D01*
X107219Y169120D01*
X107189Y169185D01*
X107154Y169224D01*
X107127Y169268D01*
X107071Y169314D01*
X107023Y169366D01*
X106977Y169392D01*
X106937Y169425D01*
X106870Y169450D01*
X106807Y169485D01*
X106756Y169494D01*
X106708Y169513D01*
X106636Y169516D01*
X106565Y169529D01*
X106514Y169521D01*
X106462Y169523D01*
X106393Y169503D01*
X106322Y169493D01*
X106276Y169469D01*
X106226Y169455D01*
X106167Y169414D01*
X106103Y169381D01*
X106066Y169344D01*
X106024Y169315D01*
X105981Y169257D01*
X105931Y169206D01*
X105896Y169143D01*
X105877Y169117D01*
X105870Y169095D01*
X105850Y169059D01*
X105731Y168772D01*
X103897Y166938D01*
X101500Y165945D01*
X98906Y165945D01*
X96509Y166938D01*
X94675Y168772D01*
X94556Y169059D01*
X94519Y169120D01*
X94489Y169185D01*
X94454Y169224D01*
X94427Y169268D01*
X94371Y169314D01*
X94323Y169366D01*
X94277Y169392D01*
X94237Y169425D01*
X94170Y169450D01*
X94107Y169485D01*
X94056Y169494D01*
X94008Y169513D01*
X93936Y169516D01*
X93865Y169529D01*
X93814Y169521D01*
X93762Y169523D01*
X93693Y169503D01*
X93622Y169493D01*
X93576Y169469D01*
X93526Y169455D01*
X93467Y169414D01*
X93403Y169381D01*
X93366Y169344D01*
X93324Y169315D01*
X93281Y169257D01*
X93231Y169206D01*
X93196Y169143D01*
X93177Y169117D01*
X93170Y169095D01*
X93150Y169059D01*
X93031Y168772D01*
X91197Y166938D01*
X88800Y165945D01*
X86206Y165945D01*
X83809Y166938D01*
X81975Y168772D01*
X81856Y169059D01*
X81819Y169120D01*
X81789Y169185D01*
X81754Y169224D01*
X81727Y169268D01*
X81671Y169314D01*
X81623Y169366D01*
X81577Y169392D01*
X81537Y169425D01*
X81470Y169450D01*
X81407Y169485D01*
X81356Y169494D01*
X81308Y169513D01*
X81236Y169516D01*
X81165Y169529D01*
X81114Y169521D01*
X81062Y169523D01*
X80993Y169503D01*
X80922Y169493D01*
X80876Y169469D01*
X80826Y169455D01*
X80767Y169414D01*
X80703Y169381D01*
X80666Y169344D01*
X80624Y169315D01*
X80581Y169257D01*
X80531Y169206D01*
X80496Y169143D01*
X80477Y169117D01*
X80470Y169095D01*
X80450Y169059D01*
X80331Y168772D01*
X78497Y166938D01*
X76100Y165945D01*
X73506Y165945D01*
X71109Y166938D01*
X69275Y168772D01*
X69156Y169059D01*
X69119Y169120D01*
X69089Y169185D01*
X69054Y169224D01*
X69027Y169268D01*
X68971Y169314D01*
X68923Y169366D01*
X68877Y169392D01*
X68837Y169425D01*
X68770Y169450D01*
X68707Y169485D01*
X68656Y169494D01*
X68608Y169513D01*
X68536Y169516D01*
X68465Y169529D01*
X68414Y169521D01*
X68362Y169523D01*
X68293Y169503D01*
X68222Y169493D01*
X68176Y169469D01*
X68126Y169455D01*
X68067Y169414D01*
X68003Y169381D01*
X67966Y169344D01*
X67924Y169315D01*
X67881Y169257D01*
X67831Y169206D01*
X67796Y169143D01*
X67777Y169117D01*
X67770Y169095D01*
X67750Y169059D01*
X67631Y168772D01*
X65797Y166938D01*
X63400Y165945D01*
X60806Y165945D01*
X58409Y166938D01*
X56575Y168772D01*
X56456Y169059D01*
X56419Y169120D01*
X56389Y169185D01*
X56354Y169224D01*
X56327Y169268D01*
X56271Y169314D01*
X56223Y169366D01*
X56177Y169392D01*
X56137Y169425D01*
X56070Y169450D01*
X56007Y169485D01*
X55956Y169494D01*
X55908Y169513D01*
X55836Y169516D01*
X55765Y169529D01*
X55714Y169521D01*
X55662Y169523D01*
X55593Y169503D01*
X55522Y169493D01*
X55476Y169469D01*
X55426Y169455D01*
X55367Y169414D01*
X55303Y169381D01*
X55266Y169344D01*
X55224Y169315D01*
X55181Y169257D01*
X55131Y169206D01*
X55096Y169143D01*
X55077Y169117D01*
X55070Y169095D01*
X55050Y169059D01*
X54931Y168772D01*
X53097Y166938D01*
X50700Y165945D01*
X48106Y165945D01*
X45709Y166938D01*
X43875Y168772D01*
X43756Y169059D01*
X43719Y169120D01*
X43689Y169185D01*
X43654Y169224D01*
X43627Y169268D01*
X43572Y169314D01*
X43523Y169366D01*
X43477Y169392D01*
X43437Y169425D01*
X43370Y169450D01*
X43307Y169485D01*
X43256Y169494D01*
X43208Y169513D01*
X43136Y169516D01*
X43065Y169529D01*
X43014Y169521D01*
X42962Y169523D01*
X42893Y169503D01*
X42822Y169493D01*
X42776Y169469D01*
X42726Y169455D01*
X42667Y169414D01*
X42603Y169381D01*
X42566Y169344D01*
X42524Y169315D01*
X42481Y169257D01*
X42431Y169206D01*
X42396Y169143D01*
X42377Y169117D01*
X42370Y169095D01*
X42350Y169059D01*
X42231Y168772D01*
X40397Y166938D01*
X38000Y165945D01*
X35406Y165945D01*
X33009Y166938D01*
X31175Y168772D01*
X31056Y169059D01*
X31019Y169120D01*
X30989Y169185D01*
X30954Y169224D01*
X30927Y169268D01*
X30872Y169314D01*
X30823Y169366D01*
X30777Y169392D01*
X30737Y169425D01*
X30670Y169450D01*
X30607Y169485D01*
X30556Y169494D01*
X30508Y169513D01*
X30436Y169516D01*
X30365Y169529D01*
X30314Y169521D01*
X30262Y169523D01*
X30193Y169503D01*
X30122Y169493D01*
X30076Y169469D01*
X30026Y169455D01*
X29967Y169414D01*
X29903Y169381D01*
X29866Y169344D01*
X29824Y169315D01*
X29781Y169257D01*
X29731Y169206D01*
X29696Y169143D01*
X29677Y169117D01*
X29670Y169095D01*
X29650Y169059D01*
X29531Y168772D01*
X27697Y166938D01*
X25300Y165945D01*
X22706Y165945D01*
X20309Y166938D01*
X18475Y168772D01*
X18356Y169059D01*
X18319Y169120D01*
X18289Y169185D01*
X18254Y169224D01*
X18227Y169268D01*
X18172Y169314D01*
X18123Y169366D01*
X18077Y169392D01*
X18037Y169425D01*
X17970Y169450D01*
X17907Y169485D01*
X17856Y169494D01*
X17808Y169513D01*
X17736Y169516D01*
X17665Y169529D01*
X17614Y169521D01*
X17562Y169523D01*
X17493Y169503D01*
X17422Y169493D01*
X17376Y169469D01*
X17326Y169455D01*
X17267Y169414D01*
X17203Y169381D01*
X17166Y169344D01*
X17124Y169315D01*
X17081Y169257D01*
X17031Y169206D01*
X16996Y169143D01*
X16977Y169117D01*
X16970Y169095D01*
X16950Y169059D01*
X16831Y168772D01*
X14997Y166938D01*
X12600Y165945D01*
X10006Y165945D01*
X7609Y166938D01*
X5775Y168772D01*
X5478Y169489D01*
X5427Y169572D01*
X5381Y169657D01*
X5362Y169675D01*
X5349Y169698D01*
X5274Y169760D01*
X5203Y169827D01*
X5179Y169838D01*
X5159Y169855D01*
X5068Y169889D01*
X4980Y169930D01*
X4954Y169933D01*
X4930Y169943D01*
X4832Y169947D01*
X4736Y169958D01*
X4710Y169952D01*
X4684Y169953D01*
X4590Y169926D01*
X4495Y169905D01*
X4473Y169892D01*
X4448Y169885D01*
X4368Y169829D01*
X4284Y169779D01*
X4267Y169759D01*
X4246Y169744D01*
X4187Y169666D01*
X4124Y169592D01*
X4114Y169568D01*
X4099Y169547D01*
X4069Y169454D01*
X4032Y169364D01*
X4029Y169332D01*
X4023Y169313D01*
X4023Y169280D01*
X4014Y169197D01*
X4014Y140771D01*
X4016Y140758D01*
X4015Y140749D01*
X4025Y140702D01*
X4033Y140656D01*
X4050Y140540D01*
X4052Y140534D01*
X4053Y140528D01*
X4108Y140425D01*
X4161Y140320D01*
X4166Y140316D01*
X4169Y140310D01*
X4253Y140231D01*
X4337Y140148D01*
X4343Y140145D01*
X4347Y140141D01*
X4364Y140133D01*
X4484Y140067D01*
X6742Y139132D01*
X8576Y137298D01*
X9569Y134901D01*
X9569Y132307D01*
X8576Y129910D01*
X6742Y128076D01*
X6455Y127957D01*
X6394Y127920D01*
X6329Y127890D01*
X6290Y127855D01*
X6246Y127828D01*
X6200Y127773D01*
X6148Y127724D01*
X6122Y127678D01*
X6089Y127638D01*
X6064Y127571D01*
X6029Y127508D01*
X6020Y127457D01*
X6001Y127409D01*
X5998Y127337D01*
X5985Y127266D01*
X5993Y127215D01*
X5991Y127163D01*
X6011Y127094D01*
X6021Y127023D01*
X6045Y126977D01*
X6059Y126927D01*
X6100Y126868D01*
X6133Y126804D01*
X6170Y126767D01*
X6199Y126725D01*
X6257Y126682D01*
X6308Y126632D01*
X6371Y126597D01*
X6397Y126578D01*
X6419Y126571D01*
X6455Y126551D01*
X6742Y126432D01*
X8576Y124598D01*
X9569Y122201D01*
X9569Y119607D01*
X8576Y117210D01*
X6742Y115376D01*
X6455Y115257D01*
X6394Y115220D01*
X6329Y115190D01*
X6290Y115155D01*
X6246Y115128D01*
X6200Y115073D01*
X6148Y115024D01*
X6122Y114978D01*
X6089Y114938D01*
X6064Y114871D01*
X6029Y114808D01*
X6020Y114757D01*
X6001Y114709D01*
X5998Y114637D01*
X5985Y114566D01*
X5993Y114515D01*
X5991Y114463D01*
X6011Y114394D01*
X6021Y114323D01*
X6045Y114277D01*
X6059Y114227D01*
X6100Y114168D01*
X6133Y114104D01*
X6170Y114067D01*
X6199Y114025D01*
X6257Y113982D01*
X6308Y113932D01*
X6371Y113897D01*
X6397Y113878D01*
X6419Y113871D01*
X6455Y113851D01*
X6742Y113732D01*
X8576Y111898D01*
X9569Y109501D01*
X9569Y106907D01*
X8576Y104510D01*
X6742Y102676D01*
X6455Y102557D01*
X6394Y102520D01*
X6329Y102490D01*
X6290Y102455D01*
X6246Y102428D01*
X6200Y102373D01*
X6148Y102324D01*
X6122Y102278D01*
X6089Y102238D01*
X6064Y102171D01*
X6029Y102108D01*
X6020Y102057D01*
X6001Y102009D01*
X5998Y101937D01*
X5985Y101866D01*
X5993Y101815D01*
X5991Y101763D01*
X6011Y101694D01*
X6021Y101623D01*
X6045Y101577D01*
X6059Y101527D01*
X6100Y101468D01*
X6133Y101404D01*
X6170Y101367D01*
X6199Y101325D01*
X6257Y101282D01*
X6308Y101232D01*
X6371Y101197D01*
X6397Y101178D01*
X6419Y101171D01*
X6455Y101151D01*
X6742Y101032D01*
X8576Y99198D01*
X9569Y96801D01*
X9569Y94207D01*
X8576Y91810D01*
X6742Y89976D01*
X6455Y89857D01*
X6394Y89820D01*
X6329Y89790D01*
X6290Y89755D01*
X6246Y89728D01*
X6200Y89673D01*
X6148Y89624D01*
X6122Y89578D01*
X6089Y89538D01*
X6064Y89471D01*
X6029Y89408D01*
X6020Y89357D01*
X6001Y89309D01*
X5998Y89237D01*
X5985Y89166D01*
X5993Y89115D01*
X5991Y89063D01*
X6011Y88994D01*
X6021Y88923D01*
X6045Y88877D01*
X6059Y88827D01*
X6100Y88768D01*
X6133Y88704D01*
X6170Y88667D01*
X6199Y88625D01*
X6257Y88582D01*
X6308Y88532D01*
X6371Y88497D01*
X6397Y88478D01*
X6419Y88471D01*
X6455Y88451D01*
X6742Y88332D01*
X8576Y86498D01*
X9569Y84101D01*
X9569Y81507D01*
X8576Y79110D01*
X6742Y77276D01*
X6455Y77157D01*
X6394Y77120D01*
X6329Y77090D01*
X6290Y77055D01*
X6246Y77028D01*
X6200Y76973D01*
X6148Y76924D01*
X6122Y76878D01*
X6089Y76838D01*
X6064Y76771D01*
X6029Y76708D01*
X6020Y76657D01*
X6001Y76609D01*
X5998Y76537D01*
X5985Y76466D01*
X5993Y76415D01*
X5991Y76363D01*
X6011Y76294D01*
X6021Y76223D01*
X6045Y76177D01*
X6059Y76127D01*
X6100Y76068D01*
X6133Y76004D01*
X6170Y75967D01*
X6199Y75925D01*
X6257Y75882D01*
X6308Y75832D01*
X6371Y75797D01*
X6397Y75778D01*
X6419Y75771D01*
X6455Y75751D01*
X6742Y75632D01*
X8576Y73798D01*
X9569Y71401D01*
X9569Y68807D01*
X8576Y66410D01*
X6742Y64576D01*
X6455Y64457D01*
X6394Y64420D01*
X6329Y64390D01*
X6290Y64355D01*
X6246Y64328D01*
X6200Y64273D01*
X6148Y64224D01*
X6122Y64178D01*
X6089Y64138D01*
X6064Y64071D01*
X6029Y64008D01*
X6020Y63957D01*
X6001Y63909D01*
X5998Y63837D01*
X5985Y63766D01*
X5993Y63715D01*
X5991Y63663D01*
X6011Y63594D01*
X6021Y63523D01*
X6045Y63477D01*
X6059Y63427D01*
X6100Y63368D01*
X6133Y63304D01*
X6170Y63267D01*
X6199Y63225D01*
X6257Y63182D01*
X6308Y63132D01*
X6371Y63097D01*
X6397Y63078D01*
X6419Y63071D01*
X6455Y63051D01*
X6742Y62932D01*
X8576Y61098D01*
X9569Y58701D01*
X9569Y56107D01*
X8576Y53710D01*
X6742Y51876D01*
X6455Y51757D01*
X6394Y51720D01*
X6329Y51690D01*
X6290Y51655D01*
X6246Y51628D01*
X6200Y51573D01*
X6148Y51524D01*
X6122Y51478D01*
X6089Y51438D01*
X6064Y51371D01*
X6029Y51308D01*
X6020Y51257D01*
X6001Y51209D01*
X5998Y51137D01*
X5985Y51066D01*
X5993Y51015D01*
X5991Y50963D01*
X6011Y50894D01*
X6021Y50823D01*
X6045Y50777D01*
X6059Y50727D01*
X6100Y50668D01*
X6133Y50604D01*
X6170Y50567D01*
X6199Y50525D01*
X6257Y50482D01*
X6308Y50432D01*
X6371Y50397D01*
X6397Y50378D01*
X6419Y50371D01*
X6455Y50351D01*
X6742Y50232D01*
X8576Y48398D01*
X8587Y48372D01*
X8638Y48289D01*
X8684Y48203D01*
X8703Y48185D01*
X8716Y48163D01*
X8791Y48101D01*
X8862Y48034D01*
X8886Y48023D01*
X8906Y48006D01*
X8997Y47971D01*
X9085Y47930D01*
X9111Y47927D01*
X9135Y47918D01*
X9233Y47914D01*
X9329Y47903D01*
X9355Y47908D01*
X9381Y47907D01*
X9475Y47934D01*
X9570Y47955D01*
X9592Y47969D01*
X9617Y47976D01*
X9697Y48031D01*
X9781Y48081D01*
X9798Y48101D01*
X9819Y48116D01*
X9878Y48194D01*
X9941Y48268D01*
X9951Y48292D01*
X9966Y48313D01*
X9996Y48406D01*
X10023Y48471D01*
X10023Y48472D01*
X10023Y48473D01*
X10033Y48496D01*
X10036Y48529D01*
X10042Y48547D01*
X10042Y48569D01*
X10796Y49323D01*
X20848Y49323D01*
X21593Y48578D01*
X21593Y47478D01*
X21596Y47458D01*
X21594Y47439D01*
X21616Y47337D01*
X21632Y47235D01*
X21642Y47218D01*
X21646Y47198D01*
X21699Y47109D01*
X21748Y47018D01*
X21762Y47004D01*
X21772Y46987D01*
X21851Y46920D01*
X21926Y46848D01*
X21944Y46840D01*
X21959Y46827D01*
X22055Y46788D01*
X22149Y46745D01*
X22169Y46743D01*
X22187Y46735D01*
X22354Y46717D01*
X25595Y46717D01*
X27004Y45308D01*
X27078Y45255D01*
X27147Y45195D01*
X27178Y45183D01*
X27204Y45164D01*
X27291Y45137D01*
X27376Y45103D01*
X27417Y45099D01*
X27439Y45092D01*
X27471Y45093D01*
X27542Y45085D01*
X50290Y45085D01*
X50310Y45088D01*
X50329Y45086D01*
X50431Y45108D01*
X50533Y45124D01*
X50550Y45134D01*
X50570Y45138D01*
X50659Y45191D01*
X50750Y45240D01*
X50764Y45254D01*
X50781Y45264D01*
X50848Y45343D01*
X50920Y45418D01*
X50928Y45436D01*
X50941Y45451D01*
X50980Y45547D01*
X51023Y45641D01*
X51025Y45661D01*
X51033Y45679D01*
X51051Y45846D01*
X51051Y48578D01*
X51796Y49323D01*
X61848Y49323D01*
X62593Y48578D01*
X62593Y37526D01*
X61848Y36781D01*
X51796Y36781D01*
X51051Y37526D01*
X51051Y40258D01*
X51048Y40278D01*
X51050Y40297D01*
X51028Y40399D01*
X51012Y40501D01*
X51002Y40518D01*
X50998Y40538D01*
X50945Y40627D01*
X50896Y40718D01*
X50882Y40732D01*
X50872Y40749D01*
X50793Y40816D01*
X50718Y40888D01*
X50700Y40896D01*
X50685Y40909D01*
X50589Y40948D01*
X50495Y40991D01*
X50475Y40993D01*
X50457Y41001D01*
X50290Y41019D01*
X27286Y41019D01*
X27196Y41005D01*
X27105Y40997D01*
X27076Y40985D01*
X27044Y40980D01*
X26963Y40937D01*
X26879Y40901D01*
X26847Y40875D01*
X26826Y40864D01*
X26804Y40841D01*
X26748Y40796D01*
X25595Y39643D01*
X22354Y39643D01*
X22334Y39640D01*
X22315Y39642D01*
X22213Y39620D01*
X22111Y39604D01*
X22094Y39594D01*
X22074Y39590D01*
X21985Y39537D01*
X21894Y39488D01*
X21880Y39474D01*
X21863Y39464D01*
X21796Y39385D01*
X21724Y39310D01*
X21716Y39292D01*
X21703Y39277D01*
X21664Y39181D01*
X21621Y39087D01*
X21619Y39067D01*
X21611Y39049D01*
X21593Y38882D01*
X21593Y37526D01*
X20848Y36781D01*
X10796Y36781D01*
X10051Y37526D01*
X10051Y40745D01*
X10036Y40841D01*
X10026Y40938D01*
X10016Y40962D01*
X10012Y40988D01*
X9966Y41074D01*
X9926Y41163D01*
X9909Y41182D01*
X9896Y41205D01*
X9826Y41272D01*
X9760Y41344D01*
X9737Y41356D01*
X9718Y41374D01*
X9630Y41415D01*
X9544Y41462D01*
X9519Y41467D01*
X9495Y41478D01*
X9398Y41489D01*
X9302Y41506D01*
X9276Y41502D01*
X9251Y41505D01*
X9155Y41484D01*
X9059Y41470D01*
X9036Y41458D01*
X9010Y41453D01*
X8926Y41403D01*
X8840Y41359D01*
X8821Y41340D01*
X8799Y41327D01*
X8736Y41252D01*
X8668Y41183D01*
X8652Y41155D01*
X8639Y41140D01*
X8627Y41109D01*
X8587Y41036D01*
X8576Y41010D01*
X6742Y39176D01*
X6455Y39057D01*
X6394Y39020D01*
X6329Y38990D01*
X6290Y38955D01*
X6246Y38928D01*
X6200Y38873D01*
X6148Y38824D01*
X6122Y38778D01*
X6089Y38738D01*
X6064Y38671D01*
X6029Y38608D01*
X6020Y38557D01*
X6001Y38509D01*
X5998Y38437D01*
X5985Y38366D01*
X5993Y38315D01*
X5991Y38263D01*
X6011Y38194D01*
X6021Y38123D01*
X6045Y38077D01*
X6059Y38027D01*
X6100Y37968D01*
X6133Y37904D01*
X6170Y37867D01*
X6199Y37825D01*
X6257Y37782D01*
X6308Y37732D01*
X6371Y37697D01*
X6397Y37678D01*
X6419Y37671D01*
X6455Y37651D01*
X6742Y37532D01*
X8576Y35698D01*
X9569Y33301D01*
X9569Y30707D01*
X8576Y28310D01*
X6742Y26476D01*
X4484Y25541D01*
X4384Y25479D01*
X4284Y25419D01*
X4280Y25414D01*
X4275Y25411D01*
X4200Y25321D01*
X4124Y25232D01*
X4122Y25226D01*
X4118Y25222D01*
X4076Y25113D01*
X4032Y25004D01*
X4031Y24997D01*
X4030Y24992D01*
X4029Y24974D01*
X4014Y24837D01*
X4014Y9365D01*
X4029Y9269D01*
X4039Y9172D01*
X4049Y9148D01*
X4053Y9122D01*
X4099Y9036D01*
X4139Y8947D01*
X4156Y8928D01*
X4169Y8905D01*
X4239Y8838D01*
X4305Y8766D01*
X4328Y8753D01*
X4347Y8735D01*
X4435Y8694D01*
X4521Y8647D01*
X4546Y8643D01*
X4570Y8632D01*
X4667Y8621D01*
X4763Y8603D01*
X4789Y8607D01*
X4814Y8604D01*
X4909Y8625D01*
X5006Y8639D01*
X5029Y8651D01*
X5055Y8657D01*
X5139Y8707D01*
X5225Y8751D01*
X5243Y8769D01*
X5266Y8783D01*
X5329Y8857D01*
X5397Y8926D01*
X5413Y8955D01*
X5426Y8970D01*
X5438Y9001D01*
X5478Y9073D01*
X5775Y9790D01*
X7609Y11624D01*
X10006Y12617D01*
X12600Y12617D01*
X14997Y11624D01*
X16831Y9790D01*
X16950Y9503D01*
X16988Y9442D01*
X17017Y9377D01*
X17052Y9338D01*
X17079Y9294D01*
X17135Y9248D01*
X17183Y9196D01*
X17229Y9170D01*
X17269Y9137D01*
X17336Y9111D01*
X17399Y9077D01*
X17450Y9068D01*
X17498Y9049D01*
X17570Y9046D01*
X17641Y9033D01*
X17692Y9041D01*
X17744Y9039D01*
X17813Y9059D01*
X17884Y9069D01*
X17930Y9093D01*
X17980Y9107D01*
X18039Y9148D01*
X18103Y9181D01*
X18140Y9218D01*
X18182Y9247D01*
X18225Y9305D01*
X18275Y9356D01*
X18310Y9419D01*
X18329Y9445D01*
X18337Y9467D01*
X18356Y9503D01*
X18475Y9790D01*
X20309Y11624D01*
X22706Y12617D01*
X25300Y12617D01*
X27697Y11624D01*
X29531Y9790D01*
X29650Y9503D01*
X29688Y9442D01*
X29717Y9377D01*
X29752Y9338D01*
X29779Y9294D01*
X29835Y9248D01*
X29883Y9196D01*
X29929Y9170D01*
X29969Y9137D01*
X30036Y9111D01*
X30099Y9077D01*
X30150Y9068D01*
X30198Y9049D01*
X30270Y9046D01*
X30341Y9033D01*
X30392Y9041D01*
X30444Y9039D01*
X30513Y9059D01*
X30584Y9069D01*
X30630Y9093D01*
X30680Y9107D01*
X30739Y9148D01*
X30803Y9181D01*
X30840Y9218D01*
X30882Y9247D01*
X30925Y9305D01*
X30975Y9356D01*
X31010Y9419D01*
X31029Y9445D01*
X31037Y9467D01*
X31056Y9503D01*
X31175Y9790D01*
X33009Y11624D01*
X35406Y12617D01*
X38000Y12617D01*
X40397Y11624D01*
X42231Y9790D01*
X42350Y9503D01*
X42388Y9442D01*
X42417Y9377D01*
X42452Y9338D01*
X42479Y9294D01*
X42535Y9248D01*
X42583Y9196D01*
X42629Y9170D01*
X42669Y9137D01*
X42736Y9111D01*
X42799Y9077D01*
X42850Y9068D01*
X42898Y9049D01*
X42970Y9046D01*
X43041Y9033D01*
X43092Y9041D01*
X43144Y9039D01*
X43213Y9059D01*
X43284Y9069D01*
X43330Y9093D01*
X43380Y9107D01*
X43439Y9148D01*
X43503Y9181D01*
X43540Y9218D01*
X43582Y9247D01*
X43625Y9305D01*
X43675Y9356D01*
X43710Y9419D01*
X43729Y9445D01*
X43737Y9467D01*
X43756Y9503D01*
X43875Y9790D01*
X45709Y11624D01*
X48106Y12617D01*
X50700Y12617D01*
X53097Y11624D01*
X54931Y9790D01*
X55050Y9503D01*
X55088Y9442D01*
X55117Y9377D01*
X55152Y9338D01*
X55179Y9294D01*
X55235Y9248D01*
X55283Y9196D01*
X55329Y9170D01*
X55369Y9137D01*
X55436Y9111D01*
X55499Y9077D01*
X55550Y9068D01*
X55598Y9049D01*
X55670Y9046D01*
X55741Y9033D01*
X55792Y9041D01*
X55844Y9039D01*
X55913Y9059D01*
X55984Y9069D01*
X56030Y9093D01*
X56080Y9107D01*
X56139Y9148D01*
X56203Y9181D01*
X56240Y9218D01*
X56282Y9247D01*
X56325Y9305D01*
X56375Y9356D01*
X56410Y9419D01*
X56429Y9445D01*
X56437Y9467D01*
X56456Y9503D01*
X56575Y9790D01*
X58409Y11624D01*
X60806Y12617D01*
X63400Y12617D01*
X65797Y11624D01*
X67631Y9790D01*
X67750Y9503D01*
X67788Y9442D01*
X67817Y9377D01*
X67852Y9338D01*
X67879Y9294D01*
X67935Y9248D01*
X67983Y9196D01*
X68029Y9170D01*
X68069Y9137D01*
X68136Y9111D01*
X68199Y9077D01*
X68250Y9068D01*
X68298Y9049D01*
X68370Y9046D01*
X68441Y9033D01*
X68492Y9041D01*
X68544Y9039D01*
X68613Y9059D01*
X68684Y9069D01*
X68730Y9093D01*
X68780Y9107D01*
X68839Y9148D01*
X68903Y9181D01*
X68940Y9218D01*
X68982Y9247D01*
X69025Y9305D01*
X69075Y9356D01*
X69110Y9419D01*
X69129Y9445D01*
X69137Y9467D01*
X69156Y9503D01*
X69275Y9790D01*
X71109Y11624D01*
X73506Y12617D01*
X76100Y12617D01*
X77291Y12123D01*
X77405Y12097D01*
X77518Y12068D01*
X77524Y12069D01*
X77531Y12067D01*
X77647Y12078D01*
X77763Y12087D01*
X77769Y12090D01*
X77775Y12090D01*
X77883Y12138D01*
X77990Y12184D01*
X77995Y12188D01*
X78000Y12190D01*
X78014Y12203D01*
X78121Y12288D01*
X84231Y18399D01*
X85645Y19813D01*
X149297Y19813D01*
X149387Y19827D01*
X149478Y19835D01*
X149508Y19847D01*
X149540Y19852D01*
X149621Y19895D01*
X149705Y19931D01*
X149737Y19957D01*
X149757Y19968D01*
X149780Y19991D01*
X149836Y20036D01*
X151813Y22013D01*
X151824Y22029D01*
X151840Y22041D01*
X151896Y22128D01*
X151956Y22212D01*
X151962Y22231D01*
X151973Y22248D01*
X151998Y22349D01*
X152028Y22447D01*
X152028Y22467D01*
X152033Y22487D01*
X152025Y22590D01*
X152022Y22693D01*
X152015Y22712D01*
X152014Y22732D01*
X151973Y22827D01*
X151938Y22924D01*
X151925Y22940D01*
X151917Y22958D01*
X151813Y23089D01*
X150332Y24569D01*
X150332Y30041D01*
X151867Y31576D01*
X156739Y31576D01*
X158085Y30230D01*
X158101Y30218D01*
X158113Y30202D01*
X158201Y30146D01*
X158284Y30086D01*
X158303Y30080D01*
X158320Y30069D01*
X158421Y30044D01*
X158520Y30014D01*
X158539Y30014D01*
X158559Y30009D01*
X158662Y30017D01*
X158765Y30020D01*
X158784Y30027D01*
X158804Y30028D01*
X158899Y30069D01*
X158996Y30104D01*
X159012Y30117D01*
X159030Y30125D01*
X159161Y30230D01*
X160507Y31576D01*
X165379Y31576D01*
X166097Y30857D01*
X166114Y30845D01*
X166126Y30830D01*
X166213Y30774D01*
X166297Y30713D01*
X166316Y30707D01*
X166333Y30697D01*
X166433Y30671D01*
X166532Y30641D01*
X166552Y30641D01*
X166572Y30637D01*
X166675Y30645D01*
X166778Y30647D01*
X166797Y30654D01*
X166817Y30656D01*
X166912Y30696D01*
X167009Y30732D01*
X167025Y30744D01*
X167043Y30752D01*
X167174Y30857D01*
X170107Y33790D01*
X170133Y33790D01*
X170153Y33793D01*
X170172Y33791D01*
X170274Y33813D01*
X170376Y33829D01*
X170393Y33839D01*
X170413Y33843D01*
X170502Y33896D01*
X170593Y33945D01*
X170607Y33959D01*
X170624Y33969D01*
X170691Y34048D01*
X170763Y34123D01*
X170771Y34141D01*
X170784Y34156D01*
X170823Y34252D01*
X170866Y34346D01*
X170868Y34366D01*
X170876Y34384D01*
X170894Y34551D01*
X170894Y36405D01*
X172517Y38028D01*
X181813Y38028D01*
X183436Y36405D01*
X183436Y27109D01*
X181813Y25486D01*
X172517Y25486D01*
X170881Y27122D01*
X170881Y27132D01*
X170863Y27181D01*
X170855Y27232D01*
X170821Y27296D01*
X170796Y27363D01*
X170764Y27404D01*
X170739Y27450D01*
X170687Y27499D01*
X170643Y27555D01*
X170599Y27583D01*
X170561Y27619D01*
X170496Y27649D01*
X170436Y27688D01*
X170385Y27701D01*
X170338Y27723D01*
X170267Y27731D01*
X170197Y27748D01*
X170145Y27744D01*
X170094Y27750D01*
X170023Y27735D01*
X169952Y27729D01*
X169904Y27709D01*
X169853Y27698D01*
X169792Y27661D01*
X169726Y27633D01*
X169670Y27588D01*
X169642Y27572D01*
X169627Y27554D01*
X169595Y27528D01*
X167137Y25070D01*
X167084Y24996D01*
X167024Y24927D01*
X167012Y24896D01*
X166993Y24870D01*
X166966Y24783D01*
X166932Y24698D01*
X166928Y24657D01*
X166921Y24635D01*
X166922Y24603D01*
X166918Y24574D01*
X165379Y23034D01*
X160507Y23034D01*
X159161Y24380D01*
X159145Y24392D01*
X159133Y24408D01*
X159045Y24464D01*
X158962Y24524D01*
X158943Y24530D01*
X158926Y24541D01*
X158825Y24566D01*
X158726Y24596D01*
X158707Y24596D01*
X158687Y24601D01*
X158584Y24593D01*
X158481Y24590D01*
X158462Y24583D01*
X158442Y24582D01*
X158347Y24541D01*
X158250Y24506D01*
X158234Y24493D01*
X158216Y24485D01*
X158085Y24380D01*
X156559Y22854D01*
X156506Y22780D01*
X156446Y22711D01*
X156434Y22681D01*
X156415Y22655D01*
X156388Y22568D01*
X156354Y22483D01*
X156350Y22442D01*
X156343Y22420D01*
X156344Y22387D01*
X156336Y22316D01*
X156336Y20786D01*
X151297Y15747D01*
X87644Y15747D01*
X87554Y15733D01*
X87463Y15725D01*
X87434Y15713D01*
X87402Y15708D01*
X87321Y15665D01*
X87237Y15629D01*
X87205Y15603D01*
X87184Y15592D01*
X87162Y15569D01*
X87106Y15524D01*
X85485Y13903D01*
X85428Y13824D01*
X85366Y13749D01*
X85357Y13725D01*
X85342Y13704D01*
X85313Y13611D01*
X85278Y13520D01*
X85277Y13493D01*
X85269Y13469D01*
X85272Y13371D01*
X85268Y13274D01*
X85275Y13249D01*
X85276Y13223D01*
X85309Y13131D01*
X85336Y13038D01*
X85351Y13016D01*
X85360Y12992D01*
X85421Y12915D01*
X85476Y12836D01*
X85497Y12820D01*
X85514Y12800D01*
X85596Y12747D01*
X85674Y12689D01*
X85699Y12681D01*
X85721Y12667D01*
X85815Y12643D01*
X85908Y12613D01*
X85934Y12613D01*
X85959Y12607D01*
X86056Y12614D01*
X86154Y12615D01*
X86159Y12617D01*
X88800Y12617D01*
X91197Y11624D01*
X93031Y9790D01*
X93150Y9503D01*
X93187Y9442D01*
X93217Y9377D01*
X93252Y9338D01*
X93279Y9294D01*
X93334Y9248D01*
X93383Y9196D01*
X93429Y9170D01*
X93469Y9137D01*
X93536Y9112D01*
X93599Y9077D01*
X93650Y9068D01*
X93698Y9049D01*
X93770Y9046D01*
X93841Y9033D01*
X93892Y9041D01*
X93944Y9039D01*
X94013Y9059D01*
X94084Y9069D01*
X94130Y9093D01*
X94180Y9107D01*
X94239Y9148D01*
X94303Y9181D01*
X94340Y9218D01*
X94382Y9247D01*
X94425Y9305D01*
X94475Y9356D01*
X94510Y9419D01*
X94529Y9445D01*
X94536Y9467D01*
X94556Y9503D01*
X94675Y9790D01*
X96509Y11624D01*
X98906Y12617D01*
X101500Y12617D01*
X103897Y11624D01*
X105731Y9790D01*
X105850Y9503D01*
X105887Y9442D01*
X105917Y9377D01*
X105952Y9338D01*
X105979Y9294D01*
X106034Y9248D01*
X106083Y9196D01*
X106129Y9170D01*
X106169Y9137D01*
X106236Y9112D01*
X106299Y9077D01*
X106350Y9068D01*
X106398Y9049D01*
X106470Y9046D01*
X106541Y9033D01*
X106592Y9041D01*
X106644Y9039D01*
X106713Y9059D01*
X106784Y9069D01*
X106830Y9093D01*
X106880Y9107D01*
X106939Y9148D01*
X107003Y9181D01*
X107040Y9218D01*
X107082Y9247D01*
X107125Y9305D01*
X107175Y9356D01*
X107210Y9419D01*
X107229Y9445D01*
X107236Y9467D01*
X107256Y9503D01*
X107375Y9790D01*
X109209Y11624D01*
X111606Y12617D01*
X114200Y12617D01*
X116597Y11624D01*
X118431Y9790D01*
X118550Y9503D01*
X118587Y9442D01*
X118617Y9377D01*
X118652Y9338D01*
X118679Y9294D01*
X118734Y9248D01*
X118783Y9196D01*
X118829Y9170D01*
X118869Y9137D01*
X118936Y9112D01*
X118999Y9077D01*
X119050Y9068D01*
X119098Y9049D01*
X119170Y9046D01*
X119241Y9033D01*
X119292Y9041D01*
X119344Y9039D01*
X119413Y9059D01*
X119484Y9069D01*
X119530Y9093D01*
X119580Y9107D01*
X119639Y9148D01*
X119703Y9181D01*
X119740Y9218D01*
X119782Y9247D01*
X119825Y9305D01*
X119875Y9356D01*
X119910Y9419D01*
X119929Y9445D01*
X119936Y9467D01*
X119956Y9503D01*
X120075Y9790D01*
X121909Y11624D01*
X124306Y12617D01*
X126900Y12617D01*
X129297Y11624D01*
X131131Y9790D01*
X131250Y9503D01*
X131287Y9442D01*
X131317Y9377D01*
X131352Y9338D01*
X131379Y9294D01*
X131434Y9248D01*
X131483Y9196D01*
X131529Y9170D01*
X131569Y9137D01*
X131636Y9112D01*
X131699Y9077D01*
X131750Y9068D01*
X131798Y9049D01*
X131870Y9046D01*
X131941Y9033D01*
X131992Y9041D01*
X132044Y9039D01*
X132113Y9059D01*
X132184Y9069D01*
X132230Y9093D01*
X132280Y9107D01*
X132339Y9148D01*
X132403Y9181D01*
X132440Y9218D01*
X132482Y9247D01*
X132525Y9305D01*
X132575Y9356D01*
X132610Y9419D01*
X132629Y9445D01*
X132636Y9467D01*
X132656Y9503D01*
X132775Y9790D01*
X134609Y11624D01*
X137006Y12617D01*
X139600Y12617D01*
X141997Y11624D01*
X143831Y9790D01*
X143950Y9503D01*
X143987Y9442D01*
X144017Y9377D01*
X144052Y9338D01*
X144079Y9294D01*
X144134Y9248D01*
X144183Y9196D01*
X144229Y9170D01*
X144269Y9137D01*
X144336Y9112D01*
X144399Y9077D01*
X144450Y9068D01*
X144498Y9049D01*
X144570Y9046D01*
X144641Y9033D01*
X144692Y9041D01*
X144744Y9039D01*
X144813Y9059D01*
X144884Y9069D01*
X144930Y9093D01*
X144980Y9107D01*
X145039Y9148D01*
X145103Y9181D01*
X145140Y9218D01*
X145182Y9247D01*
X145225Y9305D01*
X145275Y9356D01*
X145310Y9419D01*
X145329Y9445D01*
X145336Y9467D01*
X145356Y9503D01*
X145475Y9790D01*
X147309Y11624D01*
X149706Y12617D01*
X152300Y12617D01*
X154697Y11624D01*
X156531Y9790D01*
X156650Y9503D01*
X156687Y9442D01*
X156717Y9377D01*
X156752Y9338D01*
X156779Y9294D01*
X156834Y9248D01*
X156883Y9196D01*
X156929Y9170D01*
X156969Y9137D01*
X157036Y9112D01*
X157099Y9077D01*
X157150Y9068D01*
X157198Y9049D01*
X157270Y9046D01*
X157341Y9033D01*
X157392Y9041D01*
X157444Y9039D01*
X157513Y9059D01*
X157584Y9069D01*
X157630Y9093D01*
X157680Y9107D01*
X157739Y9148D01*
X157803Y9181D01*
X157840Y9218D01*
X157882Y9247D01*
X157925Y9305D01*
X157975Y9356D01*
X158010Y9419D01*
X158029Y9445D01*
X158036Y9467D01*
X158056Y9503D01*
X158175Y9790D01*
X160009Y11624D01*
X162406Y12617D01*
X165000Y12617D01*
X167397Y11624D01*
X169231Y9790D01*
X169956Y8040D01*
X170017Y7940D01*
X170077Y7840D01*
X170082Y7836D01*
X170086Y7831D01*
X170175Y7756D01*
X170264Y7680D01*
X170270Y7678D01*
X170275Y7674D01*
X170383Y7632D01*
X170492Y7588D01*
X170500Y7587D01*
X170505Y7586D01*
X170523Y7585D01*
X170659Y7570D01*
X207471Y7570D01*
X207491Y7573D01*
G37*
G36*
X135910Y69425D02*
X135910Y69425D01*
X136013Y69428D01*
X136032Y69435D01*
X136052Y69436D01*
X136147Y69477D01*
X136244Y69512D01*
X136260Y69525D01*
X136278Y69533D01*
X136329Y69573D01*
X139089Y69573D01*
X139109Y69576D01*
X139128Y69574D01*
X139230Y69596D01*
X139332Y69612D01*
X139349Y69622D01*
X139369Y69626D01*
X139458Y69679D01*
X139549Y69728D01*
X139563Y69742D01*
X139580Y69752D01*
X139647Y69831D01*
X139719Y69906D01*
X139727Y69924D01*
X139740Y69939D01*
X139779Y70035D01*
X139822Y70129D01*
X139824Y70149D01*
X139832Y70167D01*
X139850Y70334D01*
X139850Y73101D01*
X139869Y73130D01*
X139929Y73213D01*
X139935Y73232D01*
X139946Y73249D01*
X139971Y73350D01*
X140002Y73448D01*
X140001Y73468D01*
X140006Y73488D01*
X139998Y73591D01*
X139995Y73694D01*
X139988Y73713D01*
X139987Y73733D01*
X139946Y73828D01*
X139911Y73925D01*
X139898Y73941D01*
X139890Y73959D01*
X139850Y74010D01*
X139850Y78101D01*
X139869Y78130D01*
X139929Y78213D01*
X139935Y78232D01*
X139946Y78249D01*
X139971Y78350D01*
X140002Y78448D01*
X140001Y78468D01*
X140006Y78488D01*
X139998Y78591D01*
X139995Y78694D01*
X139988Y78713D01*
X139987Y78733D01*
X139946Y78828D01*
X139911Y78925D01*
X139898Y78941D01*
X139890Y78959D01*
X139850Y79010D01*
X139850Y83101D01*
X139869Y83130D01*
X139929Y83213D01*
X139935Y83232D01*
X139946Y83249D01*
X139971Y83350D01*
X140002Y83448D01*
X140001Y83468D01*
X140006Y83488D01*
X139998Y83591D01*
X139995Y83694D01*
X139988Y83713D01*
X139987Y83733D01*
X139946Y83828D01*
X139911Y83925D01*
X139898Y83941D01*
X139890Y83959D01*
X139850Y84010D01*
X139850Y88101D01*
X139869Y88130D01*
X139929Y88213D01*
X139935Y88232D01*
X139946Y88249D01*
X139971Y88350D01*
X140002Y88448D01*
X140001Y88468D01*
X140006Y88488D01*
X139998Y88591D01*
X139995Y88694D01*
X139988Y88713D01*
X139987Y88733D01*
X139946Y88828D01*
X139911Y88925D01*
X139898Y88941D01*
X139890Y88959D01*
X139850Y89010D01*
X139850Y93101D01*
X139869Y93130D01*
X139929Y93213D01*
X139935Y93232D01*
X139946Y93249D01*
X139971Y93350D01*
X140002Y93448D01*
X140001Y93468D01*
X140006Y93488D01*
X139998Y93591D01*
X139995Y93694D01*
X139988Y93713D01*
X139987Y93733D01*
X139946Y93828D01*
X139911Y93925D01*
X139898Y93941D01*
X139890Y93959D01*
X139850Y94010D01*
X139850Y98101D01*
X139869Y98130D01*
X139929Y98213D01*
X139935Y98232D01*
X139946Y98249D01*
X139971Y98350D01*
X140002Y98448D01*
X140001Y98468D01*
X140006Y98488D01*
X139998Y98591D01*
X139995Y98694D01*
X139988Y98713D01*
X139987Y98733D01*
X139946Y98828D01*
X139911Y98925D01*
X139898Y98941D01*
X139890Y98959D01*
X139850Y99010D01*
X139850Y103101D01*
X139869Y103130D01*
X139929Y103213D01*
X139935Y103232D01*
X139946Y103249D01*
X139971Y103350D01*
X140002Y103448D01*
X140001Y103468D01*
X140006Y103488D01*
X139998Y103591D01*
X139995Y103694D01*
X139988Y103713D01*
X139987Y103733D01*
X139946Y103828D01*
X139911Y103925D01*
X139898Y103941D01*
X139890Y103959D01*
X139850Y104010D01*
X139850Y108101D01*
X139869Y108130D01*
X139929Y108213D01*
X139935Y108232D01*
X139946Y108249D01*
X139971Y108350D01*
X140002Y108448D01*
X140001Y108468D01*
X140006Y108488D01*
X139998Y108591D01*
X139995Y108694D01*
X139988Y108713D01*
X139987Y108733D01*
X139946Y108828D01*
X139911Y108925D01*
X139898Y108941D01*
X139890Y108959D01*
X139850Y109010D01*
X139850Y113101D01*
X139869Y113130D01*
X139929Y113213D01*
X139935Y113232D01*
X139946Y113249D01*
X139971Y113350D01*
X140002Y113448D01*
X140001Y113468D01*
X140006Y113488D01*
X139998Y113591D01*
X139995Y113694D01*
X139988Y113713D01*
X139987Y113733D01*
X139946Y113828D01*
X139911Y113925D01*
X139898Y113941D01*
X139890Y113959D01*
X139850Y114010D01*
X139850Y118101D01*
X139869Y118130D01*
X139929Y118213D01*
X139935Y118232D01*
X139946Y118249D01*
X139971Y118350D01*
X140002Y118448D01*
X140001Y118468D01*
X140006Y118488D01*
X139998Y118591D01*
X139995Y118694D01*
X139988Y118713D01*
X139987Y118733D01*
X139946Y118828D01*
X139911Y118925D01*
X139898Y118941D01*
X139890Y118959D01*
X139850Y119010D01*
X139850Y123101D01*
X139869Y123130D01*
X139929Y123213D01*
X139935Y123232D01*
X139946Y123249D01*
X139971Y123350D01*
X140002Y123448D01*
X140001Y123468D01*
X140006Y123488D01*
X139998Y123591D01*
X139995Y123694D01*
X139988Y123713D01*
X139987Y123733D01*
X139946Y123828D01*
X139911Y123925D01*
X139898Y123941D01*
X139890Y123959D01*
X139850Y124010D01*
X139850Y126770D01*
X139847Y126790D01*
X139849Y126809D01*
X139827Y126911D01*
X139811Y127013D01*
X139801Y127030D01*
X139797Y127050D01*
X139744Y127139D01*
X139695Y127230D01*
X139681Y127244D01*
X139671Y127261D01*
X139592Y127328D01*
X139517Y127400D01*
X139499Y127408D01*
X139484Y127421D01*
X139388Y127460D01*
X139294Y127503D01*
X139274Y127505D01*
X139256Y127513D01*
X139089Y127531D01*
X136322Y127531D01*
X136293Y127550D01*
X136210Y127610D01*
X136191Y127616D01*
X136174Y127627D01*
X136073Y127652D01*
X135975Y127683D01*
X135955Y127682D01*
X135935Y127687D01*
X135832Y127679D01*
X135729Y127676D01*
X135710Y127669D01*
X135690Y127668D01*
X135595Y127627D01*
X135498Y127592D01*
X135482Y127579D01*
X135464Y127571D01*
X135413Y127531D01*
X131322Y127531D01*
X131293Y127550D01*
X131210Y127610D01*
X131191Y127616D01*
X131174Y127627D01*
X131073Y127652D01*
X130975Y127683D01*
X130955Y127682D01*
X130935Y127687D01*
X130832Y127679D01*
X130729Y127676D01*
X130710Y127669D01*
X130690Y127668D01*
X130595Y127627D01*
X130498Y127592D01*
X130482Y127579D01*
X130464Y127571D01*
X130413Y127531D01*
X126322Y127531D01*
X126293Y127550D01*
X126210Y127610D01*
X126191Y127616D01*
X126174Y127627D01*
X126073Y127652D01*
X125975Y127683D01*
X125955Y127682D01*
X125935Y127687D01*
X125832Y127679D01*
X125729Y127676D01*
X125710Y127669D01*
X125690Y127668D01*
X125595Y127627D01*
X125498Y127592D01*
X125482Y127579D01*
X125464Y127571D01*
X125413Y127531D01*
X121322Y127531D01*
X121293Y127550D01*
X121210Y127610D01*
X121191Y127616D01*
X121174Y127627D01*
X121073Y127652D01*
X120975Y127683D01*
X120955Y127682D01*
X120935Y127687D01*
X120832Y127679D01*
X120729Y127676D01*
X120710Y127669D01*
X120690Y127668D01*
X120595Y127627D01*
X120498Y127592D01*
X120482Y127579D01*
X120464Y127571D01*
X120413Y127531D01*
X116322Y127531D01*
X116293Y127550D01*
X116210Y127610D01*
X116191Y127616D01*
X116174Y127627D01*
X116073Y127652D01*
X115975Y127683D01*
X115955Y127682D01*
X115935Y127687D01*
X115832Y127679D01*
X115729Y127676D01*
X115710Y127669D01*
X115690Y127668D01*
X115595Y127627D01*
X115498Y127592D01*
X115482Y127579D01*
X115464Y127571D01*
X115413Y127531D01*
X111322Y127531D01*
X111293Y127550D01*
X111210Y127610D01*
X111191Y127616D01*
X111174Y127627D01*
X111073Y127652D01*
X110975Y127683D01*
X110955Y127682D01*
X110935Y127687D01*
X110832Y127679D01*
X110729Y127676D01*
X110710Y127669D01*
X110690Y127668D01*
X110595Y127627D01*
X110498Y127592D01*
X110482Y127579D01*
X110464Y127571D01*
X110413Y127531D01*
X106322Y127531D01*
X106293Y127550D01*
X106210Y127610D01*
X106191Y127616D01*
X106174Y127627D01*
X106073Y127652D01*
X105975Y127683D01*
X105955Y127682D01*
X105935Y127687D01*
X105832Y127679D01*
X105729Y127676D01*
X105710Y127669D01*
X105690Y127668D01*
X105595Y127627D01*
X105498Y127592D01*
X105482Y127579D01*
X105464Y127571D01*
X105413Y127531D01*
X101322Y127531D01*
X101293Y127550D01*
X101210Y127610D01*
X101191Y127616D01*
X101174Y127627D01*
X101073Y127652D01*
X100975Y127683D01*
X100955Y127682D01*
X100935Y127687D01*
X100832Y127679D01*
X100729Y127676D01*
X100710Y127669D01*
X100690Y127668D01*
X100595Y127627D01*
X100498Y127592D01*
X100482Y127579D01*
X100464Y127571D01*
X100413Y127531D01*
X96322Y127531D01*
X96293Y127550D01*
X96210Y127610D01*
X96191Y127616D01*
X96174Y127627D01*
X96073Y127652D01*
X95975Y127683D01*
X95955Y127682D01*
X95935Y127687D01*
X95832Y127679D01*
X95729Y127676D01*
X95710Y127669D01*
X95690Y127668D01*
X95595Y127627D01*
X95498Y127592D01*
X95482Y127579D01*
X95464Y127571D01*
X95413Y127531D01*
X91322Y127531D01*
X91293Y127550D01*
X91210Y127610D01*
X91191Y127616D01*
X91174Y127627D01*
X91073Y127652D01*
X90975Y127683D01*
X90955Y127682D01*
X90935Y127687D01*
X90832Y127679D01*
X90729Y127676D01*
X90710Y127669D01*
X90690Y127668D01*
X90595Y127627D01*
X90498Y127592D01*
X90482Y127579D01*
X90464Y127571D01*
X90413Y127531D01*
X86322Y127531D01*
X86293Y127550D01*
X86210Y127610D01*
X86191Y127616D01*
X86174Y127627D01*
X86073Y127652D01*
X85975Y127683D01*
X85955Y127682D01*
X85935Y127687D01*
X85832Y127679D01*
X85729Y127676D01*
X85710Y127669D01*
X85690Y127668D01*
X85595Y127627D01*
X85498Y127592D01*
X85482Y127579D01*
X85464Y127571D01*
X85413Y127531D01*
X82653Y127531D01*
X82633Y127528D01*
X82614Y127530D01*
X82512Y127508D01*
X82410Y127492D01*
X82393Y127482D01*
X82373Y127478D01*
X82284Y127425D01*
X82193Y127376D01*
X82179Y127362D01*
X82162Y127352D01*
X82095Y127273D01*
X82023Y127198D01*
X82015Y127180D01*
X82002Y127165D01*
X81963Y127069D01*
X81920Y126975D01*
X81918Y126955D01*
X81910Y126937D01*
X81892Y126770D01*
X81892Y124003D01*
X81873Y123974D01*
X81813Y123891D01*
X81807Y123872D01*
X81796Y123855D01*
X81771Y123754D01*
X81740Y123656D01*
X81741Y123636D01*
X81736Y123616D01*
X81744Y123513D01*
X81747Y123410D01*
X81754Y123391D01*
X81755Y123371D01*
X81796Y123276D01*
X81831Y123179D01*
X81844Y123163D01*
X81852Y123145D01*
X81892Y123094D01*
X81892Y119003D01*
X81873Y118974D01*
X81813Y118891D01*
X81807Y118872D01*
X81796Y118855D01*
X81771Y118754D01*
X81740Y118656D01*
X81741Y118636D01*
X81736Y118616D01*
X81744Y118513D01*
X81747Y118410D01*
X81754Y118391D01*
X81755Y118371D01*
X81796Y118276D01*
X81831Y118179D01*
X81844Y118163D01*
X81852Y118145D01*
X81892Y118094D01*
X81892Y114003D01*
X81873Y113974D01*
X81813Y113891D01*
X81807Y113872D01*
X81796Y113855D01*
X81771Y113754D01*
X81740Y113655D01*
X81741Y113635D01*
X81736Y113616D01*
X81744Y113513D01*
X81747Y113410D01*
X81754Y113391D01*
X81755Y113371D01*
X81796Y113276D01*
X81831Y113179D01*
X81844Y113163D01*
X81852Y113145D01*
X81892Y113094D01*
X81892Y109003D01*
X81873Y108974D01*
X81813Y108891D01*
X81807Y108872D01*
X81796Y108855D01*
X81771Y108754D01*
X81740Y108656D01*
X81741Y108636D01*
X81736Y108616D01*
X81744Y108513D01*
X81747Y108410D01*
X81754Y108391D01*
X81755Y108371D01*
X81796Y108276D01*
X81831Y108179D01*
X81844Y108163D01*
X81852Y108145D01*
X81892Y108094D01*
X81892Y104003D01*
X81873Y103974D01*
X81813Y103891D01*
X81807Y103872D01*
X81796Y103855D01*
X81771Y103754D01*
X81740Y103656D01*
X81741Y103636D01*
X81736Y103616D01*
X81744Y103513D01*
X81747Y103410D01*
X81754Y103391D01*
X81755Y103371D01*
X81796Y103276D01*
X81831Y103179D01*
X81844Y103163D01*
X81852Y103145D01*
X81892Y103094D01*
X81892Y99003D01*
X81873Y98974D01*
X81813Y98891D01*
X81807Y98872D01*
X81796Y98855D01*
X81771Y98754D01*
X81740Y98656D01*
X81741Y98636D01*
X81736Y98616D01*
X81744Y98513D01*
X81747Y98410D01*
X81754Y98391D01*
X81755Y98371D01*
X81796Y98276D01*
X81831Y98179D01*
X81844Y98163D01*
X81852Y98145D01*
X81892Y98094D01*
X81892Y94003D01*
X81873Y93974D01*
X81813Y93891D01*
X81807Y93872D01*
X81796Y93855D01*
X81771Y93754D01*
X81740Y93656D01*
X81741Y93636D01*
X81736Y93616D01*
X81744Y93513D01*
X81747Y93410D01*
X81754Y93391D01*
X81755Y93371D01*
X81796Y93276D01*
X81831Y93179D01*
X81844Y93163D01*
X81852Y93145D01*
X81892Y93094D01*
X81892Y89003D01*
X81873Y88974D01*
X81813Y88891D01*
X81807Y88872D01*
X81796Y88855D01*
X81771Y88754D01*
X81740Y88656D01*
X81741Y88636D01*
X81736Y88616D01*
X81744Y88513D01*
X81747Y88410D01*
X81754Y88391D01*
X81755Y88371D01*
X81796Y88276D01*
X81831Y88179D01*
X81844Y88163D01*
X81852Y88145D01*
X81892Y88094D01*
X81892Y84003D01*
X81873Y83974D01*
X81813Y83891D01*
X81807Y83872D01*
X81796Y83855D01*
X81771Y83754D01*
X81740Y83656D01*
X81741Y83636D01*
X81736Y83616D01*
X81744Y83513D01*
X81747Y83410D01*
X81754Y83391D01*
X81755Y83371D01*
X81796Y83276D01*
X81831Y83179D01*
X81844Y83163D01*
X81852Y83145D01*
X81892Y83094D01*
X81892Y79003D01*
X81873Y78974D01*
X81813Y78891D01*
X81807Y78872D01*
X81796Y78855D01*
X81771Y78754D01*
X81740Y78656D01*
X81741Y78636D01*
X81736Y78616D01*
X81744Y78513D01*
X81747Y78410D01*
X81754Y78391D01*
X81755Y78371D01*
X81796Y78276D01*
X81831Y78179D01*
X81844Y78163D01*
X81852Y78145D01*
X81892Y78094D01*
X81892Y74003D01*
X81873Y73974D01*
X81813Y73891D01*
X81807Y73872D01*
X81796Y73855D01*
X81771Y73754D01*
X81740Y73656D01*
X81741Y73636D01*
X81736Y73616D01*
X81744Y73513D01*
X81747Y73410D01*
X81754Y73391D01*
X81755Y73371D01*
X81796Y73276D01*
X81831Y73179D01*
X81844Y73163D01*
X81852Y73145D01*
X81892Y73094D01*
X81892Y70334D01*
X81895Y70314D01*
X81893Y70295D01*
X81915Y70193D01*
X81931Y70091D01*
X81941Y70074D01*
X81945Y70054D01*
X81998Y69965D01*
X82047Y69874D01*
X82061Y69860D01*
X82071Y69843D01*
X82150Y69776D01*
X82225Y69704D01*
X82243Y69696D01*
X82258Y69683D01*
X82354Y69644D01*
X82448Y69601D01*
X82468Y69599D01*
X82486Y69591D01*
X82653Y69573D01*
X85420Y69573D01*
X85449Y69554D01*
X85532Y69494D01*
X85551Y69488D01*
X85568Y69477D01*
X85669Y69452D01*
X85767Y69421D01*
X85787Y69422D01*
X85807Y69417D01*
X85910Y69425D01*
X86013Y69428D01*
X86032Y69435D01*
X86052Y69436D01*
X86147Y69477D01*
X86244Y69512D01*
X86260Y69525D01*
X86278Y69533D01*
X86329Y69573D01*
X90420Y69573D01*
X90449Y69554D01*
X90532Y69494D01*
X90551Y69488D01*
X90568Y69477D01*
X90669Y69452D01*
X90767Y69421D01*
X90787Y69422D01*
X90807Y69417D01*
X90910Y69425D01*
X91013Y69428D01*
X91032Y69435D01*
X91052Y69436D01*
X91147Y69477D01*
X91244Y69512D01*
X91260Y69525D01*
X91278Y69533D01*
X91329Y69573D01*
X95420Y69573D01*
X95449Y69554D01*
X95532Y69494D01*
X95551Y69488D01*
X95568Y69477D01*
X95669Y69452D01*
X95767Y69421D01*
X95787Y69422D01*
X95807Y69417D01*
X95910Y69425D01*
X96013Y69428D01*
X96032Y69435D01*
X96052Y69436D01*
X96147Y69477D01*
X96244Y69512D01*
X96260Y69525D01*
X96278Y69533D01*
X96329Y69573D01*
X100420Y69573D01*
X100449Y69554D01*
X100532Y69494D01*
X100551Y69488D01*
X100568Y69477D01*
X100669Y69452D01*
X100767Y69421D01*
X100787Y69422D01*
X100807Y69417D01*
X100910Y69425D01*
X101013Y69428D01*
X101032Y69435D01*
X101052Y69436D01*
X101147Y69477D01*
X101244Y69512D01*
X101260Y69525D01*
X101278Y69533D01*
X101329Y69573D01*
X105420Y69573D01*
X105449Y69554D01*
X105532Y69494D01*
X105551Y69488D01*
X105568Y69477D01*
X105669Y69452D01*
X105767Y69421D01*
X105787Y69422D01*
X105807Y69417D01*
X105910Y69425D01*
X106013Y69428D01*
X106032Y69435D01*
X106052Y69436D01*
X106147Y69477D01*
X106244Y69512D01*
X106260Y69525D01*
X106278Y69533D01*
X106329Y69573D01*
X110420Y69573D01*
X110449Y69554D01*
X110532Y69494D01*
X110551Y69488D01*
X110568Y69477D01*
X110669Y69452D01*
X110767Y69421D01*
X110787Y69422D01*
X110807Y69417D01*
X110910Y69425D01*
X111013Y69428D01*
X111032Y69435D01*
X111052Y69436D01*
X111147Y69477D01*
X111244Y69512D01*
X111260Y69525D01*
X111278Y69533D01*
X111329Y69573D01*
X115420Y69573D01*
X115449Y69554D01*
X115532Y69494D01*
X115551Y69488D01*
X115568Y69477D01*
X115669Y69452D01*
X115767Y69421D01*
X115787Y69422D01*
X115807Y69417D01*
X115910Y69425D01*
X116013Y69428D01*
X116032Y69435D01*
X116052Y69436D01*
X116147Y69477D01*
X116244Y69512D01*
X116260Y69525D01*
X116278Y69533D01*
X116329Y69573D01*
X120420Y69573D01*
X120449Y69554D01*
X120532Y69494D01*
X120551Y69488D01*
X120568Y69477D01*
X120669Y69452D01*
X120767Y69421D01*
X120787Y69422D01*
X120807Y69417D01*
X120910Y69425D01*
X121013Y69428D01*
X121032Y69435D01*
X121052Y69436D01*
X121147Y69477D01*
X121244Y69512D01*
X121260Y69525D01*
X121278Y69533D01*
X121329Y69573D01*
X125420Y69573D01*
X125449Y69554D01*
X125532Y69494D01*
X125551Y69488D01*
X125568Y69477D01*
X125669Y69452D01*
X125767Y69421D01*
X125787Y69422D01*
X125807Y69417D01*
X125910Y69425D01*
X126013Y69428D01*
X126032Y69435D01*
X126052Y69436D01*
X126147Y69477D01*
X126244Y69512D01*
X126260Y69525D01*
X126278Y69533D01*
X126329Y69573D01*
X130420Y69573D01*
X130449Y69554D01*
X130532Y69494D01*
X130551Y69488D01*
X130568Y69477D01*
X130669Y69452D01*
X130767Y69421D01*
X130787Y69422D01*
X130807Y69417D01*
X130910Y69425D01*
X131013Y69428D01*
X131032Y69435D01*
X131052Y69436D01*
X131147Y69477D01*
X131244Y69512D01*
X131260Y69525D01*
X131278Y69533D01*
X131329Y69573D01*
X135420Y69573D01*
X135449Y69554D01*
X135532Y69494D01*
X135551Y69488D01*
X135568Y69477D01*
X135669Y69452D01*
X135767Y69421D01*
X135787Y69422D01*
X135807Y69417D01*
X135910Y69425D01*
G37*
%LPC*%
G36*
X32943Y76719D02*
X32943Y76719D01*
X30734Y78928D01*
X30734Y90932D01*
X30731Y90952D01*
X30733Y90971D01*
X30711Y91073D01*
X30695Y91175D01*
X30685Y91192D01*
X30681Y91212D01*
X30628Y91301D01*
X30579Y91392D01*
X30565Y91406D01*
X30555Y91423D01*
X30476Y91490D01*
X30401Y91562D01*
X30383Y91570D01*
X30368Y91583D01*
X30272Y91622D01*
X30178Y91665D01*
X30158Y91667D01*
X30140Y91675D01*
X29973Y91693D01*
X28183Y91693D01*
X25653Y94223D01*
X25653Y97801D01*
X28183Y100331D01*
X29846Y100331D01*
X29866Y100334D01*
X29885Y100332D01*
X29987Y100354D01*
X30089Y100370D01*
X30106Y100380D01*
X30126Y100384D01*
X30215Y100437D01*
X30306Y100486D01*
X30320Y100500D01*
X30337Y100510D01*
X30404Y100589D01*
X30476Y100664D01*
X30484Y100682D01*
X30497Y100697D01*
X30536Y100793D01*
X30579Y100887D01*
X30581Y100907D01*
X30589Y100925D01*
X30607Y101092D01*
X30607Y112842D01*
X32816Y115051D01*
X40940Y115051D01*
X43149Y112842D01*
X43149Y100518D01*
X43043Y100412D01*
X43031Y100396D01*
X43016Y100384D01*
X42960Y100296D01*
X42899Y100213D01*
X42894Y100194D01*
X42883Y100177D01*
X42857Y100076D01*
X42827Y99977D01*
X42828Y99958D01*
X42823Y99938D01*
X42831Y99835D01*
X42833Y99732D01*
X42840Y99713D01*
X42842Y99693D01*
X42882Y99598D01*
X42918Y99501D01*
X42930Y99485D01*
X42938Y99467D01*
X43043Y99336D01*
X44578Y97801D01*
X44578Y94223D01*
X42979Y92625D01*
X42968Y92609D01*
X42952Y92596D01*
X42896Y92509D01*
X42836Y92425D01*
X42830Y92406D01*
X42819Y92389D01*
X42794Y92289D01*
X42763Y92190D01*
X42764Y92170D01*
X42759Y92151D01*
X42767Y92048D01*
X42770Y91944D01*
X42777Y91925D01*
X42778Y91905D01*
X42819Y91811D01*
X42854Y91713D01*
X42867Y91697D01*
X42875Y91679D01*
X42948Y91587D01*
X42954Y91578D01*
X42960Y91572D01*
X42979Y91548D01*
X43276Y91252D01*
X43276Y78928D01*
X41067Y76719D01*
X32943Y76719D01*
G37*
%LPD*%
%LPC*%
G36*
X52265Y124501D02*
X52265Y124501D01*
X50824Y125942D01*
X50750Y125995D01*
X50680Y126055D01*
X50650Y126067D01*
X50624Y126086D01*
X50537Y126113D01*
X50452Y126147D01*
X50411Y126151D01*
X50389Y126158D01*
X50357Y126157D01*
X50285Y126165D01*
X42970Y126165D01*
X42880Y126151D01*
X42789Y126143D01*
X42759Y126131D01*
X42727Y126126D01*
X42646Y126083D01*
X42562Y126047D01*
X42530Y126021D01*
X42510Y126010D01*
X42488Y125987D01*
X42483Y125983D01*
X32839Y125983D01*
X30606Y128216D01*
X30606Y131372D01*
X32839Y133605D01*
X37084Y133605D01*
X37104Y133608D01*
X37123Y133606D01*
X37225Y133628D01*
X37327Y133644D01*
X37344Y133654D01*
X37364Y133658D01*
X37453Y133711D01*
X37544Y133760D01*
X37558Y133774D01*
X37575Y133784D01*
X37642Y133863D01*
X37714Y133938D01*
X37722Y133956D01*
X37735Y133971D01*
X37774Y134067D01*
X37817Y134161D01*
X37819Y134181D01*
X37827Y134199D01*
X37845Y134366D01*
X37845Y135781D01*
X37842Y135801D01*
X37844Y135820D01*
X37822Y135922D01*
X37806Y136024D01*
X37796Y136041D01*
X37792Y136061D01*
X37739Y136150D01*
X37690Y136241D01*
X37676Y136255D01*
X37666Y136272D01*
X37587Y136339D01*
X37512Y136411D01*
X37494Y136419D01*
X37479Y136432D01*
X37383Y136471D01*
X37289Y136514D01*
X37269Y136516D01*
X37251Y136524D01*
X37084Y136542D01*
X35056Y136542D01*
X34966Y136528D01*
X34875Y136520D01*
X34845Y136508D01*
X34813Y136503D01*
X34733Y136460D01*
X34649Y136424D01*
X34617Y136398D01*
X34596Y136387D01*
X34574Y136364D01*
X34518Y136319D01*
X34073Y135874D01*
X28665Y135874D01*
X27098Y137441D01*
X27098Y142249D01*
X28665Y143816D01*
X34073Y143816D01*
X34518Y143371D01*
X34592Y143318D01*
X34661Y143258D01*
X34692Y143246D01*
X34718Y143227D01*
X34805Y143200D01*
X34890Y143166D01*
X34930Y143162D01*
X34953Y143155D01*
X34985Y143156D01*
X35056Y143148D01*
X37969Y143148D01*
X38059Y143162D01*
X38150Y143170D01*
X38180Y143182D01*
X38212Y143187D01*
X38292Y143230D01*
X38376Y143266D01*
X38408Y143292D01*
X38429Y143303D01*
X38451Y143326D01*
X38507Y143371D01*
X38952Y143816D01*
X44360Y143816D01*
X45927Y142249D01*
X45927Y137441D01*
X45690Y137204D01*
X45637Y137130D01*
X45577Y137061D01*
X45565Y137030D01*
X45546Y137004D01*
X45519Y136917D01*
X45485Y136832D01*
X45481Y136792D01*
X45474Y136769D01*
X45475Y136737D01*
X45467Y136666D01*
X45467Y134548D01*
X45470Y134528D01*
X45468Y134509D01*
X45490Y134407D01*
X45506Y134305D01*
X45516Y134288D01*
X45520Y134268D01*
X45573Y134179D01*
X45622Y134088D01*
X45636Y134074D01*
X45646Y134057D01*
X45725Y133990D01*
X45800Y133918D01*
X45818Y133910D01*
X45833Y133897D01*
X45929Y133858D01*
X46023Y133815D01*
X46043Y133813D01*
X46061Y133805D01*
X46228Y133787D01*
X50793Y133787D01*
X50884Y133801D01*
X50974Y133809D01*
X51004Y133821D01*
X51036Y133826D01*
X51117Y133869D01*
X51201Y133905D01*
X51233Y133931D01*
X51254Y133942D01*
X51276Y133965D01*
X51332Y134010D01*
X52265Y134943D01*
X60257Y134943D01*
X62182Y133018D01*
X62182Y126426D01*
X60257Y124501D01*
X52265Y124501D01*
G37*
%LPD*%
G36*
X163940Y126396D02*
X163940Y126396D01*
X164011Y126402D01*
X164059Y126422D01*
X164110Y126433D01*
X164171Y126470D01*
X164237Y126498D01*
X164293Y126543D01*
X164321Y126559D01*
X164336Y126577D01*
X164368Y126603D01*
X167797Y130032D01*
X169211Y131446D01*
X177151Y131446D01*
X177241Y131460D01*
X177332Y131468D01*
X177361Y131480D01*
X177393Y131485D01*
X177474Y131528D01*
X177558Y131564D01*
X177590Y131590D01*
X177611Y131601D01*
X177633Y131624D01*
X177689Y131669D01*
X179019Y132998D01*
X179030Y133014D01*
X179046Y133027D01*
X179102Y133114D01*
X179162Y133198D01*
X179168Y133217D01*
X179179Y133234D01*
X179204Y133334D01*
X179234Y133433D01*
X179234Y133453D01*
X179239Y133472D01*
X179231Y133575D01*
X179228Y133679D01*
X179221Y133698D01*
X179220Y133718D01*
X179179Y133812D01*
X179144Y133910D01*
X179131Y133926D01*
X179123Y133944D01*
X179019Y134075D01*
X178256Y134837D01*
X178256Y140245D01*
X179603Y141592D01*
X179645Y141650D01*
X179694Y141702D01*
X179716Y141749D01*
X179747Y141791D01*
X179768Y141860D01*
X179798Y141925D01*
X179804Y141977D01*
X179819Y142027D01*
X179817Y142098D01*
X179825Y142169D01*
X179814Y142220D01*
X179813Y142272D01*
X179788Y142340D01*
X179773Y142410D01*
X179746Y142455D01*
X179728Y142503D01*
X179683Y142559D01*
X179647Y142621D01*
X179607Y142655D01*
X179574Y142695D01*
X179514Y142734D01*
X179460Y142781D01*
X179411Y142800D01*
X179368Y142828D01*
X179298Y142846D01*
X179232Y142873D01*
X179160Y142881D01*
X179129Y142889D01*
X179106Y142887D01*
X179065Y142891D01*
X176011Y142891D01*
X175108Y143794D01*
X175034Y143847D01*
X174964Y143907D01*
X174934Y143919D01*
X174908Y143938D01*
X174821Y143965D01*
X174736Y143999D01*
X174695Y144003D01*
X174673Y144010D01*
X174641Y144009D01*
X174569Y144017D01*
X163505Y144017D01*
X163415Y144003D01*
X163324Y143995D01*
X163294Y143983D01*
X163262Y143978D01*
X163181Y143935D01*
X163097Y143899D01*
X163065Y143873D01*
X163045Y143862D01*
X163022Y143839D01*
X162966Y143794D01*
X162063Y142891D01*
X158882Y142891D01*
X158811Y142880D01*
X158740Y142878D01*
X158691Y142860D01*
X158639Y142852D01*
X158576Y142818D01*
X158509Y142793D01*
X158468Y142761D01*
X158422Y142736D01*
X158373Y142684D01*
X158317Y142640D01*
X158289Y142596D01*
X158253Y142558D01*
X158222Y142493D01*
X158184Y142433D01*
X158171Y142382D01*
X158149Y142335D01*
X158141Y142264D01*
X158124Y142194D01*
X158128Y142142D01*
X158122Y142091D01*
X158137Y142020D01*
X158143Y141949D01*
X158163Y141901D01*
X158174Y141850D01*
X158211Y141789D01*
X158239Y141723D01*
X158284Y141667D01*
X158300Y141639D01*
X158318Y141624D01*
X158344Y141592D01*
X159691Y140245D01*
X159691Y134837D01*
X158039Y133186D01*
X158028Y133170D01*
X158012Y133157D01*
X157956Y133070D01*
X157896Y132986D01*
X157890Y132967D01*
X157879Y132950D01*
X157854Y132850D01*
X157824Y132751D01*
X157824Y132731D01*
X157819Y132712D01*
X157827Y132609D01*
X157830Y132505D01*
X157837Y132486D01*
X157838Y132467D01*
X157879Y132372D01*
X157914Y132274D01*
X157927Y132258D01*
X157935Y132240D01*
X158039Y132109D01*
X163080Y127068D01*
X163082Y126999D01*
X163100Y126950D01*
X163108Y126899D01*
X163142Y126835D01*
X163167Y126768D01*
X163199Y126727D01*
X163224Y126681D01*
X163276Y126632D01*
X163320Y126576D01*
X163364Y126548D01*
X163402Y126512D01*
X163467Y126482D01*
X163527Y126443D01*
X163578Y126430D01*
X163625Y126408D01*
X163696Y126400D01*
X163766Y126383D01*
X163818Y126387D01*
X163869Y126381D01*
X163940Y126396D01*
G37*
%LPC*%
G36*
X65202Y139572D02*
X65202Y139572D01*
X63266Y141508D01*
X63192Y141561D01*
X63122Y141621D01*
X63092Y141633D01*
X63066Y141652D01*
X62979Y141679D01*
X62894Y141713D01*
X62853Y141717D01*
X62831Y141724D01*
X62799Y141723D01*
X62727Y141731D01*
X61403Y141731D01*
X61312Y141717D01*
X61222Y141709D01*
X61192Y141697D01*
X61160Y141692D01*
X61079Y141649D01*
X60995Y141613D01*
X60963Y141587D01*
X60942Y141576D01*
X60920Y141553D01*
X60864Y141508D01*
X60257Y140901D01*
X52265Y140901D01*
X50340Y142826D01*
X50340Y149418D01*
X52265Y151343D01*
X60257Y151343D01*
X61819Y149781D01*
X61877Y149739D01*
X61929Y149690D01*
X61976Y149668D01*
X62018Y149638D01*
X62087Y149617D01*
X62152Y149586D01*
X62204Y149581D01*
X62254Y149565D01*
X62325Y149567D01*
X62396Y149559D01*
X62447Y149570D01*
X62499Y149572D01*
X62567Y149596D01*
X62637Y149612D01*
X62682Y149638D01*
X62730Y149656D01*
X62786Y149701D01*
X62848Y149738D01*
X62882Y149777D01*
X62922Y149810D01*
X62961Y149870D01*
X63008Y149925D01*
X63027Y149973D01*
X63055Y150017D01*
X63073Y150086D01*
X63100Y150153D01*
X63108Y150224D01*
X63116Y150255D01*
X63114Y150279D01*
X63118Y150317D01*
X65202Y152401D01*
X68148Y152401D01*
X70232Y150317D01*
X70232Y147371D01*
X69386Y146525D01*
X69374Y146509D01*
X69359Y146496D01*
X69302Y146409D01*
X69242Y146325D01*
X69236Y146306D01*
X69226Y146289D01*
X69200Y146189D01*
X69170Y146090D01*
X69170Y146070D01*
X69166Y146051D01*
X69174Y145948D01*
X69176Y145844D01*
X69183Y145825D01*
X69185Y145805D01*
X69225Y145711D01*
X69261Y145613D01*
X69273Y145597D01*
X69281Y145579D01*
X69386Y145448D01*
X70232Y144602D01*
X70232Y141656D01*
X68148Y139572D01*
X65202Y139572D01*
G37*
%LPD*%
D10*
X236601Y173228D02*
X309060Y173228D01*
X309060Y5588D02*
X236601Y5588D01*
X289560Y6238D02*
X289560Y172578D01*
X286368Y147228D01*
X292752Y147228D01*
X289560Y172578D01*
X288260Y147228D01*
X290860Y147228D02*
X289560Y172578D01*
X286960Y147228D01*
X292160Y147228D02*
X289560Y172578D01*
X286368Y31588D02*
X289560Y6238D01*
X286368Y31588D02*
X292752Y31588D01*
X289560Y6238D01*
X288260Y31588D01*
X290860Y31588D02*
X289560Y6238D01*
X286960Y31588D01*
X292160Y31588D02*
X289560Y6238D01*
D11*
X270409Y58260D02*
X266797Y62776D01*
X283053Y62776D01*
X283053Y67291D02*
X283053Y58260D01*
X274022Y73891D02*
X274022Y79310D01*
X274024Y79428D01*
X274030Y79546D01*
X274039Y79664D01*
X274053Y79781D01*
X274070Y79898D01*
X274091Y80015D01*
X274116Y80130D01*
X274145Y80245D01*
X274178Y80359D01*
X274214Y80471D01*
X274254Y80582D01*
X274297Y80692D01*
X274344Y80801D01*
X274394Y80908D01*
X274449Y81013D01*
X274506Y81116D01*
X274567Y81217D01*
X274631Y81317D01*
X274698Y81414D01*
X274768Y81509D01*
X274842Y81601D01*
X274918Y81692D01*
X274998Y81779D01*
X275080Y81864D01*
X275165Y81946D01*
X275252Y82026D01*
X275343Y82102D01*
X275435Y82176D01*
X275530Y82246D01*
X275627Y82313D01*
X275727Y82377D01*
X275828Y82438D01*
X275931Y82495D01*
X276036Y82550D01*
X276143Y82600D01*
X276252Y82647D01*
X276362Y82690D01*
X276473Y82730D01*
X276585Y82766D01*
X276699Y82799D01*
X276814Y82828D01*
X276929Y82853D01*
X277046Y82874D01*
X277163Y82891D01*
X277280Y82905D01*
X277398Y82914D01*
X277516Y82920D01*
X277634Y82922D01*
X278537Y82922D01*
X278537Y82923D02*
X278670Y82921D01*
X278802Y82915D01*
X278934Y82905D01*
X279066Y82892D01*
X279198Y82874D01*
X279328Y82853D01*
X279459Y82828D01*
X279588Y82799D01*
X279716Y82766D01*
X279844Y82730D01*
X279970Y82690D01*
X280095Y82646D01*
X280219Y82598D01*
X280341Y82547D01*
X280462Y82492D01*
X280581Y82434D01*
X280699Y82372D01*
X280814Y82307D01*
X280928Y82238D01*
X281039Y82167D01*
X281148Y82091D01*
X281255Y82013D01*
X281360Y81932D01*
X281462Y81847D01*
X281562Y81760D01*
X281659Y81670D01*
X281754Y81577D01*
X281845Y81481D01*
X281934Y81383D01*
X282020Y81282D01*
X282103Y81178D01*
X282183Y81072D01*
X282259Y80964D01*
X282333Y80854D01*
X282403Y80741D01*
X282470Y80627D01*
X282533Y80510D01*
X282593Y80392D01*
X282650Y80272D01*
X282703Y80150D01*
X282752Y80027D01*
X282798Y79903D01*
X282840Y79777D01*
X282878Y79650D01*
X282913Y79522D01*
X282944Y79393D01*
X282971Y79264D01*
X282994Y79133D01*
X283014Y79002D01*
X283029Y78870D01*
X283041Y78738D01*
X283049Y78606D01*
X283053Y78473D01*
X283053Y78341D01*
X283049Y78208D01*
X283041Y78076D01*
X283029Y77944D01*
X283014Y77812D01*
X282994Y77681D01*
X282971Y77550D01*
X282944Y77421D01*
X282913Y77292D01*
X282878Y77164D01*
X282840Y77037D01*
X282798Y76911D01*
X282752Y76787D01*
X282703Y76664D01*
X282650Y76542D01*
X282593Y76422D01*
X282533Y76304D01*
X282470Y76187D01*
X282403Y76073D01*
X282333Y75960D01*
X282259Y75850D01*
X282183Y75742D01*
X282103Y75636D01*
X282020Y75532D01*
X281934Y75431D01*
X281845Y75333D01*
X281754Y75237D01*
X281659Y75144D01*
X281562Y75054D01*
X281462Y74967D01*
X281360Y74882D01*
X281255Y74801D01*
X281148Y74723D01*
X281039Y74647D01*
X280928Y74576D01*
X280814Y74507D01*
X280699Y74442D01*
X280581Y74380D01*
X280462Y74322D01*
X280341Y74267D01*
X280219Y74216D01*
X280095Y74168D01*
X279970Y74124D01*
X279844Y74084D01*
X279716Y74048D01*
X279588Y74015D01*
X279459Y73986D01*
X279328Y73961D01*
X279198Y73940D01*
X279066Y73922D01*
X278934Y73909D01*
X278802Y73899D01*
X278670Y73893D01*
X278537Y73891D01*
X274022Y73891D01*
X273845Y73893D01*
X273667Y73900D01*
X273490Y73911D01*
X273314Y73926D01*
X273138Y73945D01*
X272962Y73969D01*
X272787Y73997D01*
X272612Y74030D01*
X272439Y74067D01*
X272266Y74108D01*
X272095Y74153D01*
X271925Y74202D01*
X271756Y74256D01*
X271588Y74313D01*
X271422Y74375D01*
X271257Y74441D01*
X271094Y74511D01*
X270933Y74585D01*
X270774Y74662D01*
X270616Y74744D01*
X270461Y74830D01*
X270308Y74919D01*
X270157Y75012D01*
X270008Y75109D01*
X269862Y75209D01*
X269718Y75313D01*
X269577Y75420D01*
X269439Y75531D01*
X269303Y75645D01*
X269170Y75763D01*
X269040Y75883D01*
X268913Y76007D01*
X268789Y76134D01*
X268669Y76264D01*
X268551Y76397D01*
X268437Y76532D01*
X268326Y76671D01*
X268219Y76812D01*
X268115Y76956D01*
X268015Y77102D01*
X267918Y77251D01*
X267825Y77402D01*
X267736Y77555D01*
X267650Y77710D01*
X267568Y77868D01*
X267491Y78027D01*
X267417Y78188D01*
X267347Y78351D01*
X267281Y78516D01*
X267219Y78682D01*
X267162Y78850D01*
X267108Y79019D01*
X267059Y79189D01*
X267014Y79360D01*
X266973Y79533D01*
X266936Y79706D01*
X266903Y79881D01*
X266875Y80056D01*
X266851Y80232D01*
X266832Y80408D01*
X266817Y80584D01*
X266806Y80761D01*
X266799Y80939D01*
X266797Y81116D01*
X282150Y88897D02*
X283053Y88897D01*
X282150Y88897D02*
X282150Y89800D01*
X283053Y89800D01*
X283053Y88897D01*
X268603Y95775D02*
X266797Y95775D01*
X266797Y104806D01*
X283053Y100290D01*
X274022Y111406D02*
X274022Y116825D01*
X274024Y116943D01*
X274030Y117061D01*
X274039Y117179D01*
X274053Y117296D01*
X274070Y117413D01*
X274091Y117530D01*
X274116Y117645D01*
X274145Y117760D01*
X274178Y117874D01*
X274214Y117986D01*
X274254Y118097D01*
X274297Y118207D01*
X274344Y118316D01*
X274394Y118423D01*
X274449Y118528D01*
X274506Y118631D01*
X274567Y118732D01*
X274631Y118832D01*
X274698Y118929D01*
X274768Y119024D01*
X274842Y119116D01*
X274918Y119207D01*
X274998Y119294D01*
X275080Y119379D01*
X275165Y119461D01*
X275252Y119541D01*
X275343Y119617D01*
X275435Y119691D01*
X275530Y119761D01*
X275627Y119828D01*
X275727Y119892D01*
X275828Y119953D01*
X275931Y120010D01*
X276036Y120065D01*
X276143Y120115D01*
X276252Y120162D01*
X276362Y120205D01*
X276473Y120245D01*
X276585Y120281D01*
X276699Y120314D01*
X276814Y120343D01*
X276929Y120368D01*
X277046Y120389D01*
X277163Y120406D01*
X277280Y120420D01*
X277398Y120429D01*
X277516Y120435D01*
X277634Y120437D01*
X278537Y120437D01*
X278537Y120438D02*
X278670Y120436D01*
X278802Y120430D01*
X278934Y120420D01*
X279066Y120407D01*
X279198Y120389D01*
X279328Y120368D01*
X279459Y120343D01*
X279588Y120314D01*
X279716Y120281D01*
X279844Y120245D01*
X279970Y120205D01*
X280095Y120161D01*
X280219Y120113D01*
X280341Y120062D01*
X280462Y120007D01*
X280581Y119949D01*
X280699Y119887D01*
X280814Y119822D01*
X280928Y119753D01*
X281039Y119682D01*
X281148Y119606D01*
X281255Y119528D01*
X281360Y119447D01*
X281462Y119362D01*
X281562Y119275D01*
X281659Y119185D01*
X281754Y119092D01*
X281845Y118996D01*
X281934Y118898D01*
X282020Y118797D01*
X282103Y118693D01*
X282183Y118587D01*
X282259Y118479D01*
X282333Y118369D01*
X282403Y118256D01*
X282470Y118142D01*
X282533Y118025D01*
X282593Y117907D01*
X282650Y117787D01*
X282703Y117665D01*
X282752Y117542D01*
X282798Y117418D01*
X282840Y117292D01*
X282878Y117165D01*
X282913Y117037D01*
X282944Y116908D01*
X282971Y116779D01*
X282994Y116648D01*
X283014Y116517D01*
X283029Y116385D01*
X283041Y116253D01*
X283049Y116121D01*
X283053Y115988D01*
X283053Y115856D01*
X283049Y115723D01*
X283041Y115591D01*
X283029Y115459D01*
X283014Y115327D01*
X282994Y115196D01*
X282971Y115065D01*
X282944Y114936D01*
X282913Y114807D01*
X282878Y114679D01*
X282840Y114552D01*
X282798Y114426D01*
X282752Y114302D01*
X282703Y114179D01*
X282650Y114057D01*
X282593Y113937D01*
X282533Y113819D01*
X282470Y113702D01*
X282403Y113588D01*
X282333Y113475D01*
X282259Y113365D01*
X282183Y113257D01*
X282103Y113151D01*
X282020Y113047D01*
X281934Y112946D01*
X281845Y112848D01*
X281754Y112752D01*
X281659Y112659D01*
X281562Y112569D01*
X281462Y112482D01*
X281360Y112397D01*
X281255Y112316D01*
X281148Y112238D01*
X281039Y112162D01*
X280928Y112091D01*
X280814Y112022D01*
X280699Y111957D01*
X280581Y111895D01*
X280462Y111837D01*
X280341Y111782D01*
X280219Y111731D01*
X280095Y111683D01*
X279970Y111639D01*
X279844Y111599D01*
X279716Y111563D01*
X279588Y111530D01*
X279459Y111501D01*
X279328Y111476D01*
X279198Y111455D01*
X279066Y111437D01*
X278934Y111424D01*
X278802Y111414D01*
X278670Y111408D01*
X278537Y111406D01*
X274022Y111406D01*
X273845Y111408D01*
X273667Y111415D01*
X273490Y111426D01*
X273314Y111441D01*
X273138Y111460D01*
X272962Y111484D01*
X272787Y111512D01*
X272612Y111545D01*
X272439Y111582D01*
X272266Y111623D01*
X272095Y111668D01*
X271925Y111717D01*
X271756Y111771D01*
X271588Y111828D01*
X271422Y111890D01*
X271257Y111956D01*
X271094Y112026D01*
X270933Y112100D01*
X270774Y112177D01*
X270616Y112259D01*
X270461Y112345D01*
X270308Y112434D01*
X270157Y112527D01*
X270008Y112624D01*
X269862Y112724D01*
X269718Y112828D01*
X269577Y112935D01*
X269439Y113046D01*
X269303Y113160D01*
X269170Y113278D01*
X269040Y113398D01*
X268913Y113522D01*
X268789Y113649D01*
X268669Y113779D01*
X268551Y113912D01*
X268437Y114047D01*
X268326Y114186D01*
X268219Y114327D01*
X268115Y114471D01*
X268015Y114617D01*
X267918Y114766D01*
X267825Y114917D01*
X267736Y115070D01*
X267650Y115225D01*
X267568Y115383D01*
X267491Y115542D01*
X267417Y115703D01*
X267347Y115866D01*
X267281Y116031D01*
X267219Y116197D01*
X267162Y116365D01*
X267108Y116534D01*
X267059Y116704D01*
X267014Y116875D01*
X266973Y117048D01*
X266936Y117221D01*
X266903Y117396D01*
X266875Y117571D01*
X266851Y117747D01*
X266832Y117923D01*
X266817Y118099D01*
X266806Y118276D01*
X266799Y118454D01*
X266797Y118631D01*
D10*
X2032Y5588D02*
X2032Y-49980D01*
X236601Y-49980D02*
X236601Y5588D01*
X235951Y-30480D02*
X2682Y-30480D01*
X28032Y-27288D01*
X28032Y-33672D01*
X2682Y-30480D01*
X28032Y-29180D01*
X28032Y-31780D02*
X2682Y-30480D01*
X28032Y-27880D01*
X28032Y-33080D02*
X2682Y-30480D01*
X210601Y-27288D02*
X235951Y-30480D01*
X210601Y-27288D02*
X210601Y-33672D01*
X235951Y-30480D01*
X210601Y-29180D01*
X210601Y-31780D02*
X235951Y-30480D01*
X210601Y-27880D01*
X210601Y-33080D02*
X235951Y-30480D01*
D11*
X97200Y-11781D02*
X97198Y-11656D01*
X97192Y-11531D01*
X97183Y-11406D01*
X97169Y-11282D01*
X97152Y-11158D01*
X97131Y-11034D01*
X97106Y-10912D01*
X97077Y-10790D01*
X97045Y-10669D01*
X97009Y-10549D01*
X96969Y-10430D01*
X96926Y-10313D01*
X96879Y-10197D01*
X96828Y-10082D01*
X96774Y-9970D01*
X96716Y-9858D01*
X96656Y-9749D01*
X96591Y-9642D01*
X96524Y-9536D01*
X96453Y-9433D01*
X96379Y-9332D01*
X96302Y-9233D01*
X96222Y-9137D01*
X96139Y-9043D01*
X96054Y-8952D01*
X95965Y-8863D01*
X95874Y-8778D01*
X95780Y-8695D01*
X95684Y-8615D01*
X95585Y-8538D01*
X95484Y-8464D01*
X95381Y-8393D01*
X95275Y-8326D01*
X95168Y-8261D01*
X95059Y-8201D01*
X94947Y-8143D01*
X94835Y-8089D01*
X94720Y-8038D01*
X94604Y-7991D01*
X94487Y-7948D01*
X94368Y-7908D01*
X94248Y-7872D01*
X94127Y-7840D01*
X94005Y-7811D01*
X93883Y-7786D01*
X93759Y-7765D01*
X93635Y-7748D01*
X93511Y-7734D01*
X93386Y-7725D01*
X93261Y-7719D01*
X93136Y-7717D01*
X92993Y-7719D01*
X92851Y-7725D01*
X92708Y-7735D01*
X92566Y-7748D01*
X92425Y-7766D01*
X92283Y-7787D01*
X92143Y-7812D01*
X92003Y-7841D01*
X91864Y-7874D01*
X91726Y-7911D01*
X91589Y-7951D01*
X91454Y-7995D01*
X91319Y-8043D01*
X91186Y-8095D01*
X91054Y-8150D01*
X90924Y-8209D01*
X90796Y-8271D01*
X90669Y-8337D01*
X90544Y-8406D01*
X90421Y-8478D01*
X90300Y-8554D01*
X90182Y-8633D01*
X90065Y-8716D01*
X89951Y-8801D01*
X89839Y-8890D01*
X89730Y-8981D01*
X89623Y-9076D01*
X89518Y-9173D01*
X89417Y-9274D01*
X89318Y-9377D01*
X89222Y-9482D01*
X89129Y-9591D01*
X89039Y-9702D01*
X88952Y-9815D01*
X88868Y-9930D01*
X88788Y-10048D01*
X88710Y-10168D01*
X88636Y-10290D01*
X88566Y-10414D01*
X88498Y-10540D01*
X88435Y-10668D01*
X88374Y-10797D01*
X88317Y-10928D01*
X88264Y-11060D01*
X88215Y-11194D01*
X88169Y-11329D01*
X95845Y-14942D02*
X95939Y-14850D01*
X96029Y-14756D01*
X96117Y-14659D01*
X96202Y-14559D01*
X96284Y-14457D01*
X96362Y-14352D01*
X96438Y-14245D01*
X96510Y-14136D01*
X96579Y-14025D01*
X96645Y-13911D01*
X96707Y-13796D01*
X96766Y-13679D01*
X96821Y-13560D01*
X96872Y-13440D01*
X96920Y-13318D01*
X96965Y-13195D01*
X97005Y-13071D01*
X97042Y-12945D01*
X97075Y-12818D01*
X97104Y-12691D01*
X97130Y-12562D01*
X97151Y-12433D01*
X97169Y-12303D01*
X97182Y-12173D01*
X97192Y-12043D01*
X97198Y-11912D01*
X97200Y-11781D01*
X95845Y-14942D02*
X88169Y-23973D01*
X97200Y-23973D01*
X103800Y-23973D02*
X108315Y-23973D01*
X108448Y-23971D01*
X108580Y-23965D01*
X108712Y-23955D01*
X108844Y-23942D01*
X108976Y-23924D01*
X109106Y-23903D01*
X109237Y-23878D01*
X109366Y-23849D01*
X109494Y-23816D01*
X109622Y-23780D01*
X109748Y-23740D01*
X109873Y-23696D01*
X109997Y-23648D01*
X110119Y-23597D01*
X110240Y-23542D01*
X110359Y-23484D01*
X110477Y-23422D01*
X110592Y-23357D01*
X110706Y-23288D01*
X110817Y-23217D01*
X110926Y-23141D01*
X111033Y-23063D01*
X111138Y-22982D01*
X111240Y-22897D01*
X111340Y-22810D01*
X111437Y-22720D01*
X111532Y-22627D01*
X111623Y-22531D01*
X111712Y-22433D01*
X111798Y-22332D01*
X111881Y-22228D01*
X111961Y-22122D01*
X112037Y-22014D01*
X112111Y-21904D01*
X112181Y-21791D01*
X112248Y-21677D01*
X112311Y-21560D01*
X112371Y-21442D01*
X112428Y-21322D01*
X112481Y-21200D01*
X112530Y-21077D01*
X112576Y-20953D01*
X112618Y-20827D01*
X112656Y-20700D01*
X112691Y-20572D01*
X112722Y-20443D01*
X112749Y-20314D01*
X112772Y-20183D01*
X112792Y-20052D01*
X112807Y-19920D01*
X112819Y-19788D01*
X112827Y-19656D01*
X112831Y-19523D01*
X112831Y-19391D01*
X112827Y-19258D01*
X112819Y-19126D01*
X112807Y-18994D01*
X112792Y-18862D01*
X112772Y-18731D01*
X112749Y-18600D01*
X112722Y-18471D01*
X112691Y-18342D01*
X112656Y-18214D01*
X112618Y-18087D01*
X112576Y-17961D01*
X112530Y-17837D01*
X112481Y-17714D01*
X112428Y-17592D01*
X112371Y-17472D01*
X112311Y-17354D01*
X112248Y-17237D01*
X112181Y-17123D01*
X112111Y-17010D01*
X112037Y-16900D01*
X111961Y-16792D01*
X111881Y-16686D01*
X111798Y-16582D01*
X111712Y-16481D01*
X111623Y-16383D01*
X111532Y-16287D01*
X111437Y-16194D01*
X111340Y-16104D01*
X111240Y-16017D01*
X111138Y-15932D01*
X111033Y-15851D01*
X110926Y-15773D01*
X110817Y-15697D01*
X110706Y-15626D01*
X110592Y-15557D01*
X110477Y-15492D01*
X110359Y-15430D01*
X110240Y-15372D01*
X110119Y-15317D01*
X109997Y-15266D01*
X109873Y-15218D01*
X109748Y-15174D01*
X109622Y-15134D01*
X109494Y-15098D01*
X109366Y-15065D01*
X109237Y-15036D01*
X109106Y-15011D01*
X108976Y-14990D01*
X108844Y-14972D01*
X108712Y-14959D01*
X108580Y-14949D01*
X108448Y-14943D01*
X108315Y-14941D01*
X109218Y-7717D02*
X103800Y-7717D01*
X109218Y-7717D02*
X109337Y-7719D01*
X109457Y-7725D01*
X109576Y-7735D01*
X109694Y-7749D01*
X109813Y-7766D01*
X109930Y-7788D01*
X110047Y-7813D01*
X110162Y-7843D01*
X110277Y-7876D01*
X110391Y-7913D01*
X110503Y-7953D01*
X110614Y-7998D01*
X110723Y-8046D01*
X110831Y-8097D01*
X110937Y-8152D01*
X111041Y-8211D01*
X111143Y-8273D01*
X111243Y-8338D01*
X111341Y-8407D01*
X111437Y-8479D01*
X111530Y-8554D01*
X111620Y-8631D01*
X111708Y-8712D01*
X111793Y-8796D01*
X111875Y-8883D01*
X111955Y-8972D01*
X112031Y-9064D01*
X112105Y-9158D01*
X112175Y-9255D01*
X112242Y-9353D01*
X112306Y-9454D01*
X112366Y-9558D01*
X112423Y-9663D01*
X112476Y-9770D01*
X112526Y-9878D01*
X112572Y-9988D01*
X112614Y-10100D01*
X112653Y-10213D01*
X112688Y-10327D01*
X112719Y-10442D01*
X112747Y-10559D01*
X112770Y-10676D01*
X112790Y-10793D01*
X112806Y-10912D01*
X112818Y-11031D01*
X112826Y-11150D01*
X112830Y-11269D01*
X112830Y-11389D01*
X112826Y-11508D01*
X112818Y-11627D01*
X112806Y-11746D01*
X112790Y-11865D01*
X112770Y-11982D01*
X112747Y-12099D01*
X112719Y-12216D01*
X112688Y-12331D01*
X112653Y-12445D01*
X112614Y-12558D01*
X112572Y-12670D01*
X112526Y-12780D01*
X112476Y-12888D01*
X112423Y-12995D01*
X112366Y-13100D01*
X112306Y-13204D01*
X112242Y-13305D01*
X112175Y-13403D01*
X112105Y-13500D01*
X112031Y-13594D01*
X111955Y-13686D01*
X111875Y-13775D01*
X111793Y-13862D01*
X111708Y-13946D01*
X111620Y-14027D01*
X111530Y-14104D01*
X111437Y-14179D01*
X111341Y-14251D01*
X111243Y-14320D01*
X111143Y-14385D01*
X111041Y-14447D01*
X110937Y-14506D01*
X110831Y-14561D01*
X110723Y-14612D01*
X110614Y-14660D01*
X110503Y-14705D01*
X110391Y-14745D01*
X110277Y-14782D01*
X110162Y-14815D01*
X110047Y-14845D01*
X109930Y-14870D01*
X109813Y-14892D01*
X109694Y-14909D01*
X109576Y-14923D01*
X109457Y-14933D01*
X109337Y-14939D01*
X109218Y-14941D01*
X109218Y-14942D02*
X105606Y-14942D01*
X118806Y-23070D02*
X118806Y-23973D01*
X118806Y-23070D02*
X119709Y-23070D01*
X119709Y-23973D01*
X118806Y-23973D01*
X125683Y-20361D02*
X129296Y-7717D01*
X125683Y-20361D02*
X134715Y-20361D01*
X132005Y-23973D02*
X132005Y-16748D01*
X141315Y-14942D02*
X146733Y-14942D01*
X146851Y-14944D01*
X146969Y-14950D01*
X147087Y-14959D01*
X147204Y-14973D01*
X147321Y-14990D01*
X147438Y-15011D01*
X147553Y-15036D01*
X147668Y-15065D01*
X147782Y-15098D01*
X147894Y-15134D01*
X148005Y-15174D01*
X148115Y-15217D01*
X148224Y-15264D01*
X148331Y-15314D01*
X148436Y-15369D01*
X148539Y-15426D01*
X148640Y-15487D01*
X148740Y-15551D01*
X148837Y-15618D01*
X148932Y-15688D01*
X149024Y-15762D01*
X149115Y-15838D01*
X149202Y-15918D01*
X149287Y-16000D01*
X149369Y-16085D01*
X149449Y-16172D01*
X149525Y-16263D01*
X149599Y-16355D01*
X149669Y-16450D01*
X149736Y-16547D01*
X149800Y-16647D01*
X149861Y-16748D01*
X149918Y-16851D01*
X149973Y-16956D01*
X150023Y-17063D01*
X150070Y-17172D01*
X150113Y-17282D01*
X150153Y-17393D01*
X150189Y-17505D01*
X150222Y-17619D01*
X150251Y-17734D01*
X150276Y-17849D01*
X150297Y-17966D01*
X150314Y-18083D01*
X150328Y-18200D01*
X150337Y-18318D01*
X150343Y-18436D01*
X150345Y-18554D01*
X150346Y-18554D02*
X150346Y-19457D01*
X150344Y-19590D01*
X150338Y-19722D01*
X150328Y-19854D01*
X150315Y-19986D01*
X150297Y-20118D01*
X150276Y-20248D01*
X150251Y-20379D01*
X150222Y-20508D01*
X150189Y-20636D01*
X150153Y-20764D01*
X150113Y-20890D01*
X150069Y-21015D01*
X150021Y-21139D01*
X149970Y-21261D01*
X149915Y-21382D01*
X149857Y-21501D01*
X149795Y-21619D01*
X149730Y-21734D01*
X149661Y-21848D01*
X149590Y-21959D01*
X149514Y-22068D01*
X149436Y-22175D01*
X149355Y-22280D01*
X149270Y-22382D01*
X149183Y-22482D01*
X149093Y-22579D01*
X149000Y-22674D01*
X148904Y-22765D01*
X148806Y-22854D01*
X148705Y-22940D01*
X148601Y-23023D01*
X148495Y-23103D01*
X148387Y-23179D01*
X148277Y-23253D01*
X148164Y-23323D01*
X148050Y-23390D01*
X147933Y-23453D01*
X147815Y-23513D01*
X147695Y-23570D01*
X147573Y-23623D01*
X147450Y-23672D01*
X147326Y-23718D01*
X147200Y-23760D01*
X147073Y-23798D01*
X146945Y-23833D01*
X146816Y-23864D01*
X146687Y-23891D01*
X146556Y-23914D01*
X146425Y-23934D01*
X146293Y-23949D01*
X146161Y-23961D01*
X146029Y-23969D01*
X145896Y-23973D01*
X145764Y-23973D01*
X145631Y-23969D01*
X145499Y-23961D01*
X145367Y-23949D01*
X145235Y-23934D01*
X145104Y-23914D01*
X144973Y-23891D01*
X144844Y-23864D01*
X144715Y-23833D01*
X144587Y-23798D01*
X144460Y-23760D01*
X144334Y-23718D01*
X144210Y-23672D01*
X144087Y-23623D01*
X143965Y-23570D01*
X143845Y-23513D01*
X143727Y-23453D01*
X143610Y-23390D01*
X143496Y-23323D01*
X143383Y-23253D01*
X143273Y-23179D01*
X143165Y-23103D01*
X143059Y-23023D01*
X142955Y-22940D01*
X142854Y-22854D01*
X142756Y-22765D01*
X142660Y-22674D01*
X142567Y-22579D01*
X142477Y-22482D01*
X142390Y-22382D01*
X142305Y-22280D01*
X142224Y-22175D01*
X142146Y-22068D01*
X142070Y-21959D01*
X141999Y-21848D01*
X141930Y-21734D01*
X141865Y-21619D01*
X141803Y-21501D01*
X141745Y-21382D01*
X141690Y-21261D01*
X141639Y-21139D01*
X141591Y-21015D01*
X141547Y-20890D01*
X141507Y-20764D01*
X141471Y-20636D01*
X141438Y-20508D01*
X141409Y-20379D01*
X141384Y-20248D01*
X141363Y-20118D01*
X141345Y-19986D01*
X141332Y-19854D01*
X141322Y-19722D01*
X141316Y-19590D01*
X141314Y-19457D01*
X141315Y-19457D02*
X141315Y-14942D01*
X141317Y-14765D01*
X141324Y-14587D01*
X141335Y-14410D01*
X141350Y-14234D01*
X141369Y-14058D01*
X141393Y-13882D01*
X141421Y-13707D01*
X141454Y-13532D01*
X141491Y-13359D01*
X141532Y-13186D01*
X141577Y-13015D01*
X141626Y-12845D01*
X141680Y-12676D01*
X141737Y-12508D01*
X141799Y-12342D01*
X141865Y-12177D01*
X141935Y-12014D01*
X142009Y-11853D01*
X142086Y-11694D01*
X142168Y-11536D01*
X142254Y-11381D01*
X142343Y-11228D01*
X142436Y-11077D01*
X142533Y-10928D01*
X142633Y-10782D01*
X142737Y-10638D01*
X142844Y-10497D01*
X142955Y-10359D01*
X143069Y-10223D01*
X143187Y-10090D01*
X143307Y-9960D01*
X143431Y-9833D01*
X143558Y-9709D01*
X143688Y-9589D01*
X143821Y-9471D01*
X143956Y-9357D01*
X144095Y-9246D01*
X144236Y-9139D01*
X144380Y-9035D01*
X144526Y-8935D01*
X144675Y-8838D01*
X144826Y-8745D01*
X144979Y-8656D01*
X145134Y-8570D01*
X145292Y-8488D01*
X145451Y-8411D01*
X145612Y-8337D01*
X145775Y-8267D01*
X145940Y-8201D01*
X146106Y-8139D01*
X146274Y-8082D01*
X146443Y-8028D01*
X146613Y-7979D01*
X146784Y-7934D01*
X146957Y-7893D01*
X147130Y-7856D01*
X147305Y-7823D01*
X147480Y-7795D01*
X147656Y-7771D01*
X147832Y-7752D01*
X148008Y-7737D01*
X148185Y-7726D01*
X148363Y-7719D01*
X148540Y-7717D01*
D12*
X145371Y71052D03*
X145371Y76052D03*
X145371Y81052D03*
X145371Y86052D03*
X145371Y91052D03*
X145371Y96052D03*
X145371Y101052D03*
X145371Y106052D03*
X145371Y111052D03*
X145371Y116052D03*
X145371Y121052D03*
X145371Y126052D03*
D13*
X138371Y133052D03*
X133371Y133052D03*
X128371Y133052D03*
X123371Y133052D03*
X118371Y133052D03*
X113371Y133052D03*
X108371Y133052D03*
X103371Y133052D03*
X98371Y133052D03*
X93371Y133052D03*
X88371Y133052D03*
X83371Y133052D03*
D12*
X76371Y126052D03*
X76371Y121052D03*
X76371Y116052D03*
X76371Y111052D03*
X76371Y106052D03*
X76371Y101052D03*
X76371Y96052D03*
X76371Y91052D03*
X76371Y86052D03*
X76371Y81052D03*
X76371Y76052D03*
X76371Y71052D03*
D13*
X83371Y64052D03*
X88371Y64052D03*
X93371Y64052D03*
X98371Y64052D03*
X103371Y64052D03*
X108371Y64052D03*
X113371Y64052D03*
X118371Y64052D03*
X123371Y64052D03*
X128371Y64052D03*
X133371Y64052D03*
X138371Y64052D03*
D14*
X85408Y73089D02*
X85408Y124015D01*
X136334Y124015D01*
X136334Y73089D01*
X85408Y73089D01*
X85408Y74585D02*
X136334Y74585D01*
X136334Y76081D02*
X85408Y76081D01*
X85408Y77577D02*
X136334Y77577D01*
X136334Y79073D02*
X85408Y79073D01*
X85408Y80569D02*
X136334Y80569D01*
X136334Y82065D02*
X85408Y82065D01*
X85408Y83561D02*
X136334Y83561D01*
X136334Y85057D02*
X85408Y85057D01*
X85408Y86553D02*
X136334Y86553D01*
X136334Y88049D02*
X85408Y88049D01*
X85408Y89545D02*
X136334Y89545D01*
X136334Y91041D02*
X85408Y91041D01*
X85408Y92537D02*
X136334Y92537D01*
X136334Y94033D02*
X85408Y94033D01*
X85408Y95529D02*
X136334Y95529D01*
X136334Y97025D02*
X85408Y97025D01*
X85408Y98521D02*
X136334Y98521D01*
X136334Y100017D02*
X85408Y100017D01*
X85408Y101513D02*
X136334Y101513D01*
X136334Y103009D02*
X85408Y103009D01*
X85408Y104505D02*
X136334Y104505D01*
X136334Y106001D02*
X85408Y106001D01*
X85408Y107497D02*
X136334Y107497D01*
X136334Y108993D02*
X85408Y108993D01*
X85408Y110489D02*
X136334Y110489D01*
X136334Y111985D02*
X85408Y111985D01*
X85408Y113481D02*
X136334Y113481D01*
X136334Y114977D02*
X85408Y114977D01*
X85408Y116473D02*
X136334Y116473D01*
X136334Y117969D02*
X85408Y117969D01*
X85408Y119465D02*
X136334Y119465D01*
X136334Y120961D02*
X85408Y120961D01*
X85408Y122457D02*
X136334Y122457D01*
X136334Y123953D02*
X85408Y123953D01*
D15*
X43252Y147149D02*
X43252Y149741D01*
X43252Y147149D02*
X40060Y147149D01*
X40060Y149741D01*
X43252Y149741D01*
X40060Y141141D02*
X40060Y138549D01*
X40060Y141141D02*
X43252Y141141D01*
X43252Y138549D01*
X40060Y138549D01*
X32965Y147149D02*
X32965Y149741D01*
X32965Y147149D02*
X29773Y147149D01*
X29773Y149741D01*
X32965Y149741D01*
X29773Y141141D02*
X29773Y138549D01*
X29773Y141141D02*
X32965Y141141D01*
X32965Y138549D01*
X29773Y138549D01*
X90496Y47633D02*
X90496Y45041D01*
X87304Y45041D01*
X87304Y47633D01*
X90496Y47633D01*
X87304Y39033D02*
X87304Y36441D01*
X87304Y39033D02*
X90496Y39033D01*
X90496Y36441D01*
X87304Y36441D01*
X77525Y36314D02*
X77525Y38906D01*
X80717Y38906D01*
X80717Y36314D01*
X77525Y36314D01*
X80717Y44914D02*
X80717Y47506D01*
X80717Y44914D02*
X77525Y44914D01*
X77525Y47506D01*
X80717Y47506D01*
X74974Y148408D02*
X72382Y148408D01*
X74974Y148408D02*
X74974Y145216D01*
X72382Y145216D01*
X72382Y148408D01*
X72382Y147884D02*
X74974Y147884D01*
X80982Y145216D02*
X83574Y145216D01*
X80982Y145216D02*
X80982Y148408D01*
X83574Y148408D01*
X83574Y145216D01*
X83574Y147884D02*
X80982Y147884D01*
X172331Y139137D02*
X174923Y139137D01*
X174923Y135945D01*
X172331Y135945D01*
X172331Y139137D01*
X172331Y138613D02*
X174923Y138613D01*
X180931Y135945D02*
X183523Y135945D01*
X180931Y135945D02*
X180931Y139137D01*
X183523Y139137D01*
X183523Y135945D01*
X183523Y138613D02*
X180931Y138613D01*
X165616Y135945D02*
X163024Y135945D01*
X163024Y139137D01*
X165616Y139137D01*
X165616Y135945D01*
X165616Y138613D02*
X163024Y138613D01*
X157016Y139137D02*
X154424Y139137D01*
X157016Y139137D02*
X157016Y135945D01*
X154424Y135945D01*
X154424Y139137D01*
X154424Y138613D02*
X157016Y138613D01*
X136707Y148455D02*
X136707Y151047D01*
X139899Y151047D01*
X139899Y148455D01*
X136707Y148455D01*
X139899Y157055D02*
X139899Y159647D01*
X139899Y157055D02*
X136707Y157055D01*
X136707Y159647D01*
X139899Y159647D01*
X91749Y152317D02*
X91749Y149725D01*
X91749Y152317D02*
X94941Y152317D01*
X94941Y149725D01*
X91749Y149725D01*
X94941Y158325D02*
X94941Y160917D01*
X94941Y158325D02*
X91749Y158325D01*
X91749Y160917D01*
X94941Y160917D01*
X104085Y45728D02*
X104085Y43136D01*
X100893Y43136D01*
X100893Y45728D01*
X104085Y45728D01*
X100893Y37128D02*
X100893Y34536D01*
X100893Y37128D02*
X104085Y37128D01*
X104085Y34536D01*
X100893Y34536D01*
X70557Y44914D02*
X70557Y47506D01*
X70557Y44914D02*
X67365Y44914D01*
X67365Y47506D01*
X70557Y47506D01*
X67365Y38906D02*
X67365Y36314D01*
X67365Y38906D02*
X70557Y38906D01*
X70557Y36314D01*
X67365Y36314D01*
D16*
X59221Y59662D02*
X54221Y59662D01*
X54221Y68862D01*
X59221Y68862D01*
X59221Y59662D01*
X59221Y64412D02*
X54221Y64412D01*
X40521Y68862D02*
X35521Y68862D01*
X40521Y68862D02*
X40521Y59662D01*
X35521Y59662D01*
X35521Y68862D01*
X35521Y64412D02*
X40521Y64412D01*
X39378Y111280D02*
X34378Y111280D01*
X39378Y111280D02*
X39378Y102080D01*
X34378Y102080D01*
X34378Y111280D01*
X34378Y106830D02*
X39378Y106830D01*
X53078Y102080D02*
X58078Y102080D01*
X53078Y102080D02*
X53078Y111280D01*
X58078Y111280D01*
X58078Y102080D01*
X58078Y106830D02*
X53078Y106830D01*
D15*
X113737Y45728D02*
X113737Y43136D01*
X110545Y43136D01*
X110545Y45728D01*
X113737Y45728D01*
X110545Y37128D02*
X110545Y34536D01*
X110545Y37128D02*
X113737Y37128D01*
X113737Y34536D01*
X110545Y34536D01*
X151456Y54566D02*
X151456Y57158D01*
X151456Y54566D02*
X148264Y54566D01*
X148264Y57158D01*
X151456Y57158D01*
X148264Y48558D02*
X148264Y45966D01*
X148264Y48558D02*
X151456Y48558D01*
X151456Y45966D01*
X148264Y45966D01*
D17*
X53625Y127786D02*
X53625Y131658D01*
X58897Y131658D01*
X58897Y127786D01*
X53625Y127786D01*
X53625Y131614D02*
X58897Y131614D01*
X58897Y144186D02*
X58897Y148058D01*
X58897Y144186D02*
X53625Y144186D01*
X53625Y148058D01*
X58897Y148058D01*
X58897Y148014D02*
X53625Y148014D01*
D16*
X53205Y80490D02*
X58205Y80490D01*
X53205Y80490D02*
X53205Y89690D01*
X58205Y89690D01*
X58205Y80490D01*
X58205Y85240D02*
X53205Y85240D01*
X39505Y89690D02*
X34505Y89690D01*
X39505Y89690D02*
X39505Y80490D01*
X34505Y80490D01*
X34505Y89690D01*
X34505Y85240D02*
X39505Y85240D01*
D18*
X181537Y153162D03*
X156537Y153162D03*
D19*
X138211Y29453D03*
X138211Y43953D03*
X126711Y43953D03*
X126711Y29453D03*
D20*
X167177Y76836D02*
X169877Y76836D01*
X167177Y76836D02*
X167177Y80136D01*
X169877Y80136D01*
X169877Y76836D01*
X169877Y79401D02*
X167177Y79401D01*
X175817Y76836D02*
X178517Y76836D01*
X175817Y76836D02*
X175817Y80136D01*
X178517Y80136D01*
X178517Y76836D01*
X178517Y79401D02*
X175817Y79401D01*
X170004Y87123D02*
X167304Y87123D01*
X167304Y90423D01*
X170004Y90423D01*
X170004Y87123D01*
X170004Y89688D02*
X167304Y89688D01*
X175944Y87123D02*
X178644Y87123D01*
X175944Y87123D02*
X175944Y90423D01*
X178644Y90423D01*
X178644Y87123D01*
X178644Y89688D02*
X175944Y89688D01*
X176071Y48640D02*
X178771Y48640D01*
X178771Y45340D01*
X176071Y45340D01*
X176071Y48640D01*
X176071Y47905D02*
X178771Y47905D01*
X170131Y48640D02*
X167431Y48640D01*
X170131Y48640D02*
X170131Y45340D01*
X167431Y45340D01*
X167431Y48640D01*
X167431Y47905D02*
X170131Y47905D01*
X170004Y66168D02*
X167304Y66168D01*
X167304Y69468D01*
X170004Y69468D01*
X170004Y66168D01*
X170004Y68733D02*
X167304Y68733D01*
X175944Y66168D02*
X178644Y66168D01*
X175944Y66168D02*
X175944Y69468D01*
X178644Y69468D01*
X178644Y66168D01*
X178644Y68733D02*
X175944Y68733D01*
X206882Y82214D02*
X206882Y84914D01*
X206882Y82214D02*
X203582Y82214D01*
X203582Y84914D01*
X206882Y84914D01*
X206882Y84779D02*
X203582Y84779D01*
X206882Y90854D02*
X206882Y93554D01*
X206882Y90854D02*
X203582Y90854D01*
X203582Y93554D01*
X206882Y93554D01*
X206882Y93419D02*
X203582Y93419D01*
X212472Y64979D02*
X212472Y62279D01*
X212472Y64979D02*
X215772Y64979D01*
X215772Y62279D01*
X212472Y62279D01*
X212472Y64844D02*
X215772Y64844D01*
X212472Y56339D02*
X212472Y53639D01*
X212472Y56339D02*
X215772Y56339D01*
X215772Y53639D01*
X212472Y53639D01*
X212472Y56204D02*
X215772Y56204D01*
X170004Y55881D02*
X167304Y55881D01*
X167304Y59181D01*
X170004Y59181D01*
X170004Y55881D01*
X170004Y58446D02*
X167304Y58446D01*
X175944Y55881D02*
X178644Y55881D01*
X175944Y55881D02*
X175944Y59181D01*
X178644Y59181D01*
X178644Y55881D01*
X178644Y58446D02*
X175944Y58446D01*
X185719Y71883D02*
X188419Y71883D01*
X185719Y71883D02*
X185719Y75183D01*
X188419Y75183D01*
X188419Y71883D01*
X188419Y74448D02*
X185719Y74448D01*
X194359Y71883D02*
X197059Y71883D01*
X194359Y71883D02*
X194359Y75183D01*
X197059Y75183D01*
X197059Y71883D01*
X197059Y74448D02*
X194359Y74448D01*
X204134Y72010D02*
X206834Y72010D01*
X204134Y72010D02*
X204134Y75310D01*
X206834Y75310D01*
X206834Y72010D01*
X206834Y74575D02*
X204134Y74575D01*
X212774Y72010D02*
X215474Y72010D01*
X212774Y72010D02*
X212774Y75310D01*
X215474Y75310D01*
X215474Y72010D01*
X215474Y74575D02*
X212774Y74575D01*
D21*
X56822Y43052D03*
X56822Y27052D03*
X15822Y27052D03*
X15822Y43052D03*
D20*
X152953Y25655D02*
X155653Y25655D01*
X152953Y25655D02*
X152953Y28955D01*
X155653Y28955D01*
X155653Y25655D01*
X155653Y28220D02*
X152953Y28220D01*
X161593Y25655D02*
X164293Y25655D01*
X161593Y25655D02*
X161593Y28955D01*
X164293Y28955D01*
X164293Y25655D01*
X164293Y28220D02*
X161593Y28220D01*
D22*
X173665Y17717D02*
X180665Y17717D01*
X180665Y10717D01*
X173665Y10717D01*
X173665Y17717D01*
X173665Y13567D02*
X180665Y13567D01*
X180665Y16417D02*
X173665Y16417D01*
X173665Y35257D02*
X180665Y35257D01*
X180665Y28257D01*
X173665Y28257D01*
X173665Y35257D01*
X173665Y31107D02*
X180665Y31107D01*
X180665Y33957D02*
X173665Y33957D01*
D23*
X112903Y6096D03*
X125603Y6096D03*
X138303Y6096D03*
X151003Y6096D03*
X163703Y6096D03*
X100203Y6096D03*
X87503Y6096D03*
X74803Y6096D03*
X62103Y6096D03*
X49403Y6096D03*
X36703Y6096D03*
X24003Y6096D03*
X11303Y6096D03*
X112903Y172466D03*
X125603Y172466D03*
X138303Y172466D03*
X151003Y172466D03*
X163703Y172466D03*
X100203Y172466D03*
X87503Y172466D03*
X74803Y172466D03*
X62103Y172466D03*
X49403Y172466D03*
X36703Y172466D03*
X24003Y172466D03*
X11303Y172466D03*
X3048Y82804D03*
X3048Y70104D03*
X3048Y57404D03*
X3048Y44704D03*
X3048Y32004D03*
X3048Y95504D03*
X3048Y108204D03*
X3048Y120904D03*
X3048Y133604D03*
X3048Y146304D03*
D24*
X200753Y28321D03*
X228253Y28321D03*
D25*
X214503Y43571D03*
X214503Y13071D03*
D11*
X133371Y64052D02*
X133350Y64031D01*
X133477Y63904D01*
X133371Y64052D02*
X133371Y57637D01*
X137668Y53340D02*
X140970Y53340D01*
X144780Y49530D01*
X144780Y36022D02*
X138211Y29453D01*
X137668Y53340D02*
X133371Y57637D01*
X144780Y49530D02*
X144780Y36022D01*
X128117Y63798D02*
X128371Y64052D01*
X128371Y52171D01*
X126711Y50511D02*
X126711Y43953D01*
X126711Y50511D02*
X128371Y52171D01*
X126711Y43953D02*
X124784Y42026D01*
X145371Y86052D02*
X145498Y86179D01*
X158325Y86179D01*
X161036Y88890D01*
X161036Y126238D01*
X155702Y131572D01*
X155702Y137523D01*
X155720Y137541D01*
X155720Y152345D01*
X156537Y153162D01*
X148362Y81052D02*
X145371Y81052D01*
X157149Y81052D01*
X163830Y87733D01*
X182227Y137541D02*
X182227Y152472D01*
X181537Y153162D01*
X170053Y129413D02*
X163830Y123190D01*
X170053Y129413D02*
X178308Y129413D01*
X182227Y133332D01*
X163830Y123190D02*
X163830Y87733D01*
X182227Y133332D02*
X182227Y137541D01*
X88900Y46337D02*
X79248Y46337D01*
X79121Y46210D01*
X76173Y75854D02*
X76371Y76052D01*
D26*
X65532Y69215D03*
D11*
X65532Y70739D01*
X70647Y75854D02*
X76173Y75854D01*
X70647Y75854D02*
X65532Y70739D01*
X65532Y69215D02*
X65532Y63540D01*
X79248Y49824D02*
X79248Y46337D01*
X79248Y49824D02*
X65532Y63540D01*
D27*
X56667Y86052D02*
X76371Y86052D01*
X56667Y86052D02*
X55705Y85090D01*
D28*
X117865Y40014D03*
D27*
X123371Y54664D02*
X123371Y64052D01*
X113139Y44432D02*
X112141Y44432D01*
X113139Y44432D02*
X123371Y54664D01*
X113448Y44432D02*
X112141Y44432D01*
D29*
X113448Y44432D02*
X117865Y40014D01*
D27*
X138371Y64052D02*
X141670Y64052D01*
X149860Y55862D01*
D30*
X36878Y106680D02*
X35433Y105235D01*
D31*
X149606Y63119D02*
X149860Y62865D01*
X149860Y55862D01*
D28*
X149606Y63119D03*
D30*
X36878Y96012D02*
X36878Y106680D01*
X38148Y96139D02*
X38148Y86233D01*
X37005Y85090D01*
X38021Y96012D02*
X38148Y96139D01*
X34925Y96012D02*
X29972Y96012D01*
D28*
X34925Y96012D03*
X29591Y96012D03*
D30*
X34925Y96012D02*
X35052Y96139D01*
D28*
X40259Y96012D03*
D30*
X36878Y96012D02*
X34925Y96012D01*
X38021Y96012D02*
X40259Y96012D01*
D11*
X38021Y96012D02*
X29591Y96012D01*
D28*
X66675Y148844D03*
D27*
X63953Y146122D02*
X56261Y146122D01*
D31*
X63953Y146122D02*
X66675Y148844D01*
D27*
X70003Y81052D02*
X76371Y81052D01*
D32*
X56721Y67770D02*
X56721Y64262D01*
D27*
X56721Y67770D02*
X70003Y81052D01*
D29*
X65532Y57610D02*
X65532Y57277D01*
X65532Y57610D02*
X58880Y64262D01*
D27*
X56721Y64262D01*
D28*
X65532Y57277D03*
X69215Y53340D03*
D29*
X69215Y46464D01*
D27*
X68961Y46210D01*
X118371Y56268D02*
X118371Y64052D01*
D28*
X95631Y44323D03*
X66675Y143129D03*
D31*
X65151Y144653D01*
D33*
X57730Y144653D01*
D11*
X56261Y146122D01*
D29*
X69215Y53594D02*
X69215Y53340D01*
X69215Y53594D02*
X65532Y57277D01*
D27*
X95631Y44323D02*
X95740Y44432D01*
D31*
X102489Y44432D01*
D27*
X108679Y49926D02*
X112029Y49926D01*
X103185Y44432D02*
X102489Y44432D01*
X103185Y44432D02*
X108679Y49926D01*
X112029Y49926D02*
X118371Y56268D01*
X138371Y133052D02*
X138371Y140763D01*
X138775Y141167D01*
X138775Y149279D01*
X138303Y149751D01*
D34*
X143891Y144399D03*
D31*
X143655Y144399D02*
X138303Y149751D01*
X143655Y144399D02*
X143891Y144399D01*
D27*
X93371Y133052D02*
X93345Y133078D01*
X93345Y151021D01*
D31*
X91549Y151021D01*
D34*
X87249Y155194D03*
D31*
X87376Y155194D01*
X91549Y151021D01*
D28*
X124206Y111887D03*
X110871Y98552D03*
X97536Y111887D03*
X110871Y111887D03*
X124206Y98552D03*
X124206Y85217D03*
X110871Y85217D03*
X97536Y85217D03*
X97536Y98552D03*
D26*
X163830Y129921D03*
D28*
X64643Y137287D03*
D26*
X95377Y32385D03*
X150114Y39370D03*
D28*
X97536Y122301D03*
X110490Y122428D03*
X124206Y122301D03*
X97409Y74676D03*
X110871Y74676D03*
X124460Y74676D03*
D26*
X204470Y54610D03*
D11*
X138211Y43953D02*
X126711Y29453D01*
D34*
X36322Y27178D03*
X37846Y49657D03*
X21717Y95885D03*
D26*
X190500Y168910D03*
X190500Y135890D03*
X190500Y129540D03*
X162560Y62230D03*
X162560Y53340D03*
X162560Y40640D03*
X190500Y162560D03*
X190500Y154940D03*
X190500Y148590D03*
X190500Y142240D03*
X7620Y156210D03*
X6350Y17780D03*
X11430Y87630D03*
X11430Y62230D03*
X119380Y165100D03*
X107950Y165100D03*
X20955Y142748D03*
X21590Y127381D03*
X118364Y26797D03*
X148971Y22352D03*
X187960Y41656D03*
D28*
X87376Y122301D03*
X87376Y111887D03*
X87376Y98552D03*
X87376Y85217D03*
X87249Y74676D03*
X134366Y122301D03*
X134366Y111887D03*
D26*
X231140Y74930D03*
X231140Y82550D03*
X231140Y91440D03*
X223520Y91440D03*
X223520Y82550D03*
X223520Y74930D03*
X204470Y63500D03*
X195580Y48260D03*
X187960Y48260D03*
X187960Y54610D03*
X195580Y54610D03*
X223520Y99060D03*
X223520Y106680D03*
X223520Y113030D03*
X223520Y120650D03*
X223520Y128270D03*
X231140Y128270D03*
X231140Y120650D03*
X231140Y113030D03*
X231140Y106680D03*
X231140Y99060D03*
X208280Y113030D03*
X208280Y120650D03*
X95377Y23495D03*
X187960Y34036D03*
X187960Y26416D03*
X187960Y18796D03*
X187960Y11176D03*
X200660Y36576D03*
X200660Y28956D03*
X200660Y21336D03*
X228600Y28956D03*
X228600Y36576D03*
X228600Y21336D03*
X195707Y11176D03*
X231140Y11176D03*
X223520Y67310D03*
X223520Y59690D03*
X223520Y52070D03*
X204470Y48260D03*
X231140Y67310D03*
X231140Y59690D03*
X231140Y52070D03*
X215900Y82550D03*
X215900Y91440D03*
X215900Y99060D03*
X215900Y106680D03*
X215900Y113030D03*
X215900Y120650D03*
X215900Y128270D03*
X208280Y128270D03*
X199390Y128270D03*
X199390Y135890D03*
X199390Y142240D03*
X199390Y148590D03*
X199390Y154940D03*
X199390Y162560D03*
X199390Y168910D03*
X208280Y135890D03*
X208280Y142240D03*
X208280Y148590D03*
X208280Y154940D03*
X208280Y162560D03*
X208280Y168910D03*
X215900Y135890D03*
X223520Y135890D03*
X231140Y135890D03*
X215900Y142240D03*
X223520Y142240D03*
X231140Y142240D03*
X215900Y148590D03*
X223520Y148590D03*
X231140Y148590D03*
X215900Y154940D03*
X215900Y162560D03*
X215900Y168910D03*
X223520Y154940D03*
X223520Y162560D03*
X223520Y168910D03*
X231140Y154940D03*
X231140Y162560D03*
X231140Y168910D03*
X208280Y106680D03*
X208280Y99060D03*
X199390Y120650D03*
X199390Y113030D03*
X199390Y106680D03*
X199390Y99060D03*
X190500Y120650D03*
X190500Y113030D03*
X190500Y106680D03*
X190500Y99060D03*
X223647Y11176D03*
X177800Y99060D03*
X179070Y106680D03*
X179070Y113030D03*
X179070Y120650D03*
X168910Y99060D03*
X168910Y106680D03*
X168910Y113030D03*
X168910Y120650D03*
X182880Y168910D03*
X173990Y168910D03*
X190500Y92710D03*
X190500Y85090D03*
X195580Y63500D03*
X187960Y63500D03*
X203454Y11303D03*
D27*
X88371Y133052D02*
X88371Y140719D01*
X82278Y146812D01*
D35*
X56261Y129722D02*
X56007Y129976D01*
X40060Y129976D01*
X40005Y129921D01*
D28*
X40005Y129921D03*
X34417Y129794D03*
D35*
X39243Y129794D02*
X40894Y129794D01*
X39243Y129794D02*
X34417Y129794D01*
D31*
X31369Y139845D02*
X41656Y139845D01*
D35*
X41656Y130556D01*
D31*
X40894Y129794D01*
X40005Y129921D02*
X39370Y129921D01*
X39243Y129794D01*
D26*
X75057Y19304D03*
D11*
X88900Y33147D01*
X88900Y37737D01*
X76371Y126052D02*
X68267Y126052D01*
X68072Y125857D01*
D26*
X68072Y125857D03*
D11*
X77680Y133052D02*
X83371Y133052D01*
X77680Y133052D02*
X77597Y132969D01*
D26*
X77597Y132969D03*
D36*
X145371Y71052D02*
X155897Y71052D01*
X159131Y67818D01*
X168654Y67818D01*
D27*
X168654Y57531D01*
X168527Y78486D02*
X168527Y79729D01*
D36*
X157205Y76052D02*
X145371Y76052D01*
X157205Y76052D02*
X159639Y78486D01*
X168527Y78486D01*
D27*
X168910Y78869D01*
X168527Y78486D02*
X168527Y88646D01*
X168654Y88773D01*
X177874Y78486D02*
X187069Y73533D01*
X177874Y78486D02*
X177167Y78486D01*
X178133Y68657D02*
X187069Y73533D01*
X178133Y68657D02*
X177294Y67818D01*
X177294Y57531D02*
X177421Y57404D01*
X177421Y46990D01*
D31*
X214122Y43952D02*
X214122Y54989D01*
X214122Y43952D02*
X214503Y43571D01*
D27*
X195834Y73408D02*
X195709Y73533D01*
X195453Y73789D01*
X195836Y73660D02*
X205484Y73660D01*
X195836Y73660D02*
X195709Y73533D01*
X205484Y83312D02*
X205232Y83564D01*
X205484Y83312D02*
X205484Y73660D01*
X214122Y73662D02*
X214124Y73660D01*
X214124Y63631D01*
X214122Y63629D01*
D37*
X153329Y96052D02*
X145371Y96052D01*
X153329Y96052D02*
X153416Y96139D01*
D26*
X153416Y96139D03*
D37*
X156591Y101052D02*
X145371Y101052D01*
X156591Y101052D02*
X156591Y100965D01*
D26*
X156591Y100965D03*
D37*
X153409Y106052D02*
X145371Y106052D01*
X153409Y106052D02*
X153543Y105918D01*
D26*
X153543Y105918D03*
D37*
X156518Y111052D02*
X145371Y111052D01*
X156518Y111052D02*
X156718Y111252D01*
D26*
X156718Y111252D03*
D37*
X153517Y116052D02*
X145371Y116052D01*
X153517Y116052D02*
X153543Y116078D01*
D26*
X153543Y116078D03*
D37*
X154834Y121052D02*
X145371Y121052D01*
X154834Y121052D02*
X155702Y121920D01*
D26*
X155702Y121920D03*
D11*
X133371Y133052D02*
X133371Y143256D01*
X133731Y143256D01*
D26*
X133731Y143256D03*
D11*
X128371Y141123D02*
X128371Y133052D01*
X128371Y141123D02*
X128270Y141224D01*
D26*
X128270Y141224D03*
D11*
X123371Y144472D02*
X123371Y133052D01*
X123371Y144472D02*
X123317Y144526D01*
D26*
X123317Y144526D03*
D11*
X118371Y140709D02*
X118371Y133052D01*
X118371Y140709D02*
X118110Y140970D01*
D26*
X118110Y140970D03*
X113538Y144653D03*
D11*
X113371Y144486D02*
X113371Y133052D01*
X113371Y144486D02*
X113538Y144653D01*
X108371Y140803D02*
X108371Y133052D01*
X108371Y140803D02*
X108331Y140843D01*
D26*
X108331Y140843D03*
D11*
X108331Y140857D01*
X17399Y43052D02*
X15822Y43052D01*
X56694Y43180D02*
X56822Y43052D01*
X17399Y43052D02*
X16383Y44068D01*
X56566Y43052D02*
X56694Y43180D01*
D34*
X24130Y43180D03*
D11*
X24258Y43052D01*
X56566Y43052D01*
X24130Y43180D02*
X24002Y43052D01*
X15822Y43052D01*
X103371Y133052D02*
X103371Y144011D01*
X103632Y144272D01*
D26*
X103632Y144272D03*
D11*
X98371Y141170D02*
X98371Y133052D01*
X98371Y141170D02*
X98425Y141224D01*
D26*
X98425Y141224D03*
D11*
X76371Y121052D02*
X76244Y121179D01*
X65172Y121179D02*
X64389Y120396D01*
X65172Y121179D02*
X76244Y121179D01*
D26*
X64389Y120396D03*
D11*
X68427Y116052D02*
X76371Y116052D01*
X68427Y116052D02*
X68199Y115824D01*
D26*
X68199Y115824D03*
D11*
X64843Y111052D02*
X76371Y111052D01*
X64843Y111052D02*
X64643Y111252D01*
D26*
X64643Y111252D03*
D11*
X68079Y106052D02*
X76371Y106052D01*
X68079Y106052D02*
X67945Y105918D01*
D26*
X67945Y105918D03*
D11*
X64302Y101052D02*
X76371Y101052D01*
X64302Y101052D02*
X64262Y101092D01*
D26*
X64262Y101092D03*
D11*
X68540Y96052D02*
X76371Y96052D01*
X68540Y96052D02*
X68453Y96139D01*
D26*
X68453Y96139D03*
D11*
X64777Y91052D02*
X76371Y91052D01*
X64777Y91052D02*
X64135Y91694D01*
D26*
X64135Y91694D03*
D11*
X71814Y71052D02*
X76371Y71052D01*
X71814Y71052D02*
X69850Y69088D01*
X69850Y65278D01*
D26*
X69850Y65278D03*
D11*
X82311Y62992D02*
X83371Y64052D01*
X77172Y64052D02*
X76708Y64516D01*
D26*
X76708Y64516D03*
D11*
X77172Y64052D02*
X83371Y64052D01*
X88371Y64052D02*
X88371Y59669D01*
X86106Y57404D02*
X77978Y57404D01*
X77216Y58166D01*
X86106Y57404D02*
X88371Y59669D01*
D26*
X77216Y58166D03*
X85852Y52451D03*
D11*
X85852Y52461D02*
X93371Y59980D01*
X85852Y52461D02*
X85852Y52451D01*
X93371Y59980D02*
X93371Y64052D01*
X98371Y64052D02*
X98371Y59382D01*
X93980Y54991D01*
X93980Y54483D01*
D26*
X93980Y54483D03*
D11*
X103371Y59185D02*
X103371Y64052D01*
D26*
X97790Y50038D03*
D11*
X99330Y51578D01*
X99330Y55144D01*
X103371Y59185D01*
D26*
X103632Y53213D03*
D11*
X103394Y54636D02*
X108008Y59249D01*
X103394Y53451D02*
X103632Y53213D01*
X103394Y53451D02*
X103394Y54636D01*
X108008Y59249D02*
X108371Y64052D01*
X113371Y64052D02*
X113371Y58329D01*
X110008Y54966D01*
D26*
X110236Y55372D03*
D11*
X109919Y55055D02*
X110008Y54966D01*
X109919Y55055D02*
X110236Y55372D01*
D37*
X145371Y91052D02*
X156584Y91052D01*
X156591Y91059D01*
D26*
X156591Y91059D03*
D37*
X152341Y126052D02*
X145371Y126052D01*
X152341Y126052D02*
X153670Y127381D01*
D26*
X153670Y127381D03*
D11*
X86487Y17780D02*
X74803Y6096D01*
X150455Y17780D02*
X154303Y21628D01*
X154303Y27305D01*
X150455Y17780D02*
X86487Y17780D01*
X162943Y27305D02*
X166497Y27305D01*
X170949Y31757D02*
X177165Y31757D01*
X170949Y31757D02*
X166497Y27305D01*
M02*
