G04 EAGLE Gerber RS-274X export*
G75*
%MOMM*%
%FSLAX34Y34*%
%LPD*%
%INSilkscreen Top*%
%IPPOS*%
%AMOC8*
5,1,8,0,0,1.08239X$1,22.5*%
G01*
%ADD10C,0.250000*%
%ADD11C,0.076200*%
%ADD12C,0.120000*%
%ADD13C,0.100000*%
%ADD14C,0.200000*%
%ADD15C,0.050800*%
%ADD16C,0.203200*%
%ADD17C,0.127000*%


D10*
X148371Y63552D02*
X148373Y63622D01*
X148379Y63692D01*
X148389Y63761D01*
X148402Y63830D01*
X148420Y63898D01*
X148441Y63965D01*
X148466Y64030D01*
X148495Y64094D01*
X148527Y64157D01*
X148563Y64217D01*
X148602Y64275D01*
X148644Y64331D01*
X148689Y64385D01*
X148737Y64436D01*
X148788Y64484D01*
X148842Y64529D01*
X148898Y64571D01*
X148956Y64610D01*
X149016Y64646D01*
X149079Y64678D01*
X149143Y64707D01*
X149208Y64732D01*
X149275Y64753D01*
X149343Y64771D01*
X149412Y64784D01*
X149481Y64794D01*
X149551Y64800D01*
X149621Y64802D01*
X149691Y64800D01*
X149761Y64794D01*
X149830Y64784D01*
X149899Y64771D01*
X149967Y64753D01*
X150034Y64732D01*
X150099Y64707D01*
X150163Y64678D01*
X150226Y64646D01*
X150286Y64610D01*
X150344Y64571D01*
X150400Y64529D01*
X150454Y64484D01*
X150505Y64436D01*
X150553Y64385D01*
X150598Y64331D01*
X150640Y64275D01*
X150679Y64217D01*
X150715Y64157D01*
X150747Y64094D01*
X150776Y64030D01*
X150801Y63965D01*
X150822Y63898D01*
X150840Y63830D01*
X150853Y63761D01*
X150863Y63692D01*
X150869Y63622D01*
X150871Y63552D01*
X150869Y63482D01*
X150863Y63412D01*
X150853Y63343D01*
X150840Y63274D01*
X150822Y63206D01*
X150801Y63139D01*
X150776Y63074D01*
X150747Y63010D01*
X150715Y62947D01*
X150679Y62887D01*
X150640Y62829D01*
X150598Y62773D01*
X150553Y62719D01*
X150505Y62668D01*
X150454Y62620D01*
X150400Y62575D01*
X150344Y62533D01*
X150286Y62494D01*
X150226Y62458D01*
X150163Y62426D01*
X150099Y62397D01*
X150034Y62372D01*
X149967Y62351D01*
X149899Y62333D01*
X149830Y62320D01*
X149761Y62310D01*
X149691Y62304D01*
X149621Y62302D01*
X149551Y62304D01*
X149481Y62310D01*
X149412Y62320D01*
X149343Y62333D01*
X149275Y62351D01*
X149208Y62372D01*
X149143Y62397D01*
X149079Y62426D01*
X149016Y62458D01*
X148956Y62494D01*
X148898Y62533D01*
X148842Y62575D01*
X148788Y62620D01*
X148737Y62668D01*
X148689Y62719D01*
X148644Y62773D01*
X148602Y62829D01*
X148563Y62887D01*
X148527Y62947D01*
X148495Y63010D01*
X148466Y63074D01*
X148441Y63139D01*
X148420Y63206D01*
X148402Y63274D01*
X148389Y63343D01*
X148379Y63412D01*
X148373Y63482D01*
X148371Y63552D01*
D11*
X104699Y95123D02*
X104699Y101981D01*
X103937Y95123D02*
X105461Y95123D01*
X105461Y101981D02*
X103937Y101981D01*
X109782Y95123D02*
X111306Y95123D01*
X109782Y95123D02*
X109705Y95125D01*
X109628Y95131D01*
X109551Y95141D01*
X109475Y95154D01*
X109400Y95172D01*
X109326Y95193D01*
X109253Y95218D01*
X109181Y95247D01*
X109111Y95279D01*
X109042Y95314D01*
X108976Y95354D01*
X108911Y95396D01*
X108849Y95442D01*
X108789Y95491D01*
X108732Y95542D01*
X108677Y95597D01*
X108626Y95654D01*
X108577Y95714D01*
X108531Y95776D01*
X108489Y95841D01*
X108449Y95907D01*
X108414Y95976D01*
X108382Y96046D01*
X108353Y96118D01*
X108328Y96191D01*
X108307Y96265D01*
X108289Y96340D01*
X108276Y96416D01*
X108266Y96493D01*
X108260Y96570D01*
X108258Y96647D01*
X108258Y100457D01*
X108260Y100534D01*
X108266Y100611D01*
X108276Y100688D01*
X108289Y100764D01*
X108307Y100839D01*
X108328Y100913D01*
X108353Y100986D01*
X108382Y101058D01*
X108414Y101128D01*
X108449Y101197D01*
X108489Y101263D01*
X108531Y101328D01*
X108577Y101390D01*
X108626Y101450D01*
X108677Y101507D01*
X108732Y101562D01*
X108789Y101613D01*
X108849Y101662D01*
X108911Y101708D01*
X108976Y101750D01*
X109042Y101790D01*
X109111Y101825D01*
X109181Y101857D01*
X109253Y101886D01*
X109326Y101911D01*
X109400Y101932D01*
X109475Y101950D01*
X109551Y101963D01*
X109628Y101973D01*
X109705Y101979D01*
X109782Y101981D01*
X111306Y101981D01*
X113995Y95123D02*
X115900Y95123D01*
X115985Y95125D01*
X116071Y95131D01*
X116156Y95140D01*
X116240Y95154D01*
X116324Y95171D01*
X116407Y95192D01*
X116489Y95216D01*
X116569Y95244D01*
X116649Y95276D01*
X116727Y95312D01*
X116803Y95350D01*
X116877Y95393D01*
X116949Y95438D01*
X117020Y95487D01*
X117088Y95539D01*
X117153Y95593D01*
X117216Y95651D01*
X117277Y95712D01*
X117335Y95775D01*
X117389Y95840D01*
X117441Y95908D01*
X117490Y95979D01*
X117535Y96051D01*
X117578Y96125D01*
X117616Y96201D01*
X117652Y96279D01*
X117684Y96359D01*
X117712Y96439D01*
X117736Y96521D01*
X117757Y96604D01*
X117774Y96688D01*
X117788Y96772D01*
X117797Y96857D01*
X117803Y96943D01*
X117805Y97028D01*
X117803Y97113D01*
X117797Y97199D01*
X117788Y97284D01*
X117774Y97368D01*
X117757Y97452D01*
X117736Y97535D01*
X117712Y97617D01*
X117684Y97697D01*
X117652Y97777D01*
X117616Y97855D01*
X117578Y97931D01*
X117535Y98005D01*
X117490Y98077D01*
X117441Y98148D01*
X117389Y98216D01*
X117335Y98281D01*
X117277Y98344D01*
X117216Y98405D01*
X117153Y98463D01*
X117088Y98517D01*
X117020Y98569D01*
X116949Y98618D01*
X116877Y98663D01*
X116803Y98706D01*
X116727Y98744D01*
X116649Y98780D01*
X116569Y98812D01*
X116489Y98840D01*
X116407Y98864D01*
X116324Y98885D01*
X116240Y98902D01*
X116156Y98916D01*
X116071Y98925D01*
X115985Y98931D01*
X115900Y98933D01*
X116281Y101981D02*
X113995Y101981D01*
X116281Y101981D02*
X116358Y101979D01*
X116435Y101973D01*
X116512Y101963D01*
X116588Y101950D01*
X116663Y101932D01*
X116737Y101911D01*
X116810Y101886D01*
X116882Y101857D01*
X116952Y101825D01*
X117021Y101790D01*
X117087Y101750D01*
X117152Y101708D01*
X117214Y101662D01*
X117274Y101613D01*
X117331Y101562D01*
X117386Y101507D01*
X117437Y101450D01*
X117486Y101390D01*
X117532Y101328D01*
X117574Y101263D01*
X117614Y101197D01*
X117649Y101128D01*
X117681Y101058D01*
X117710Y100986D01*
X117735Y100913D01*
X117756Y100839D01*
X117774Y100764D01*
X117787Y100688D01*
X117797Y100611D01*
X117803Y100534D01*
X117805Y100457D01*
X117803Y100380D01*
X117797Y100303D01*
X117787Y100226D01*
X117774Y100150D01*
X117756Y100075D01*
X117735Y100001D01*
X117710Y99928D01*
X117681Y99856D01*
X117649Y99786D01*
X117614Y99717D01*
X117574Y99651D01*
X117532Y99586D01*
X117486Y99524D01*
X117437Y99464D01*
X117386Y99407D01*
X117331Y99352D01*
X117274Y99301D01*
X117214Y99252D01*
X117152Y99206D01*
X117087Y99164D01*
X117021Y99124D01*
X116952Y99089D01*
X116882Y99057D01*
X116810Y99028D01*
X116737Y99003D01*
X116663Y98982D01*
X116588Y98964D01*
X116512Y98951D01*
X116435Y98941D01*
X116358Y98935D01*
X116281Y98933D01*
X114757Y98933D01*
X45212Y155575D02*
X45212Y157099D01*
X45212Y155575D02*
X45210Y155498D01*
X45204Y155421D01*
X45194Y155344D01*
X45181Y155268D01*
X45163Y155193D01*
X45142Y155119D01*
X45117Y155046D01*
X45088Y154974D01*
X45056Y154904D01*
X45021Y154835D01*
X44981Y154769D01*
X44939Y154704D01*
X44893Y154642D01*
X44844Y154582D01*
X44793Y154525D01*
X44738Y154470D01*
X44681Y154419D01*
X44621Y154370D01*
X44559Y154324D01*
X44494Y154282D01*
X44428Y154242D01*
X44359Y154207D01*
X44289Y154175D01*
X44217Y154146D01*
X44144Y154121D01*
X44070Y154100D01*
X43995Y154082D01*
X43919Y154069D01*
X43842Y154059D01*
X43765Y154053D01*
X43688Y154051D01*
X39878Y154051D01*
X39801Y154053D01*
X39724Y154059D01*
X39647Y154069D01*
X39571Y154082D01*
X39496Y154100D01*
X39422Y154121D01*
X39349Y154146D01*
X39277Y154175D01*
X39207Y154207D01*
X39138Y154242D01*
X39072Y154282D01*
X39007Y154324D01*
X38945Y154370D01*
X38885Y154419D01*
X38828Y154470D01*
X38773Y154525D01*
X38722Y154582D01*
X38673Y154642D01*
X38627Y154704D01*
X38585Y154769D01*
X38545Y154835D01*
X38510Y154904D01*
X38478Y154974D01*
X38449Y155046D01*
X38424Y155119D01*
X38403Y155193D01*
X38385Y155268D01*
X38372Y155344D01*
X38362Y155421D01*
X38356Y155498D01*
X38354Y155575D01*
X38354Y157099D01*
X39878Y159788D02*
X38354Y161693D01*
X45212Y161693D01*
X45212Y159788D02*
X45212Y163598D01*
X34544Y157204D02*
X34544Y155680D01*
X34542Y155603D01*
X34536Y155526D01*
X34526Y155449D01*
X34513Y155373D01*
X34495Y155298D01*
X34474Y155224D01*
X34449Y155151D01*
X34420Y155079D01*
X34388Y155009D01*
X34353Y154940D01*
X34313Y154874D01*
X34271Y154809D01*
X34225Y154747D01*
X34176Y154687D01*
X34125Y154630D01*
X34070Y154575D01*
X34013Y154524D01*
X33953Y154475D01*
X33891Y154429D01*
X33826Y154387D01*
X33760Y154347D01*
X33691Y154312D01*
X33621Y154280D01*
X33549Y154251D01*
X33476Y154226D01*
X33402Y154205D01*
X33327Y154187D01*
X33251Y154174D01*
X33174Y154164D01*
X33097Y154158D01*
X33020Y154156D01*
X29210Y154156D01*
X29133Y154158D01*
X29056Y154164D01*
X28979Y154174D01*
X28903Y154187D01*
X28828Y154205D01*
X28754Y154226D01*
X28681Y154251D01*
X28609Y154280D01*
X28539Y154312D01*
X28470Y154347D01*
X28404Y154387D01*
X28339Y154429D01*
X28277Y154475D01*
X28217Y154524D01*
X28160Y154575D01*
X28105Y154630D01*
X28054Y154687D01*
X28005Y154747D01*
X27959Y154809D01*
X27917Y154874D01*
X27877Y154940D01*
X27842Y155009D01*
X27810Y155079D01*
X27781Y155151D01*
X27756Y155224D01*
X27735Y155298D01*
X27717Y155373D01*
X27704Y155449D01*
X27694Y155526D01*
X27688Y155603D01*
X27686Y155680D01*
X27686Y157204D01*
X27686Y161989D02*
X27688Y162071D01*
X27694Y162152D01*
X27703Y162233D01*
X27717Y162314D01*
X27734Y162393D01*
X27755Y162472D01*
X27780Y162550D01*
X27809Y162626D01*
X27841Y162701D01*
X27877Y162775D01*
X27916Y162847D01*
X27958Y162916D01*
X28004Y162984D01*
X28053Y163049D01*
X28105Y163112D01*
X28160Y163172D01*
X28218Y163230D01*
X28278Y163285D01*
X28341Y163337D01*
X28406Y163386D01*
X28474Y163432D01*
X28544Y163474D01*
X28615Y163513D01*
X28689Y163549D01*
X28764Y163581D01*
X28840Y163610D01*
X28918Y163635D01*
X28997Y163656D01*
X29076Y163673D01*
X29157Y163687D01*
X29238Y163696D01*
X29319Y163702D01*
X29401Y163704D01*
X27686Y161989D02*
X27688Y161897D01*
X27694Y161805D01*
X27703Y161713D01*
X27717Y161621D01*
X27734Y161531D01*
X27755Y161441D01*
X27780Y161352D01*
X27809Y161264D01*
X27841Y161177D01*
X27877Y161092D01*
X27916Y161009D01*
X27959Y160927D01*
X28005Y160847D01*
X28055Y160769D01*
X28107Y160693D01*
X28163Y160620D01*
X28222Y160549D01*
X28284Y160480D01*
X28349Y160414D01*
X28416Y160351D01*
X28486Y160291D01*
X28558Y160233D01*
X28633Y160179D01*
X28710Y160128D01*
X28789Y160080D01*
X28870Y160036D01*
X28953Y159995D01*
X29037Y159957D01*
X29123Y159923D01*
X29210Y159893D01*
X30735Y163132D02*
X30676Y163191D01*
X30615Y163247D01*
X30552Y163300D01*
X30486Y163351D01*
X30418Y163398D01*
X30348Y163442D01*
X30276Y163483D01*
X30202Y163521D01*
X30127Y163555D01*
X30050Y163586D01*
X29972Y163613D01*
X29892Y163637D01*
X29812Y163658D01*
X29731Y163674D01*
X29649Y163687D01*
X29567Y163697D01*
X29484Y163702D01*
X29401Y163704D01*
X30734Y163132D02*
X34544Y159893D01*
X34544Y163703D01*
X85979Y20243D02*
X92837Y20243D01*
X85979Y20243D02*
X85979Y22148D01*
X85981Y22233D01*
X85987Y22319D01*
X85996Y22404D01*
X86010Y22488D01*
X86027Y22572D01*
X86048Y22655D01*
X86072Y22737D01*
X86100Y22817D01*
X86132Y22897D01*
X86168Y22975D01*
X86206Y23051D01*
X86249Y23125D01*
X86294Y23197D01*
X86343Y23268D01*
X86395Y23336D01*
X86449Y23401D01*
X86507Y23464D01*
X86568Y23525D01*
X86631Y23583D01*
X86696Y23637D01*
X86764Y23689D01*
X86835Y23738D01*
X86907Y23783D01*
X86981Y23826D01*
X87057Y23864D01*
X87135Y23900D01*
X87215Y23932D01*
X87295Y23960D01*
X87377Y23984D01*
X87460Y24005D01*
X87544Y24022D01*
X87628Y24036D01*
X87713Y24045D01*
X87799Y24051D01*
X87884Y24053D01*
X87969Y24051D01*
X88055Y24045D01*
X88140Y24036D01*
X88224Y24022D01*
X88308Y24005D01*
X88391Y23984D01*
X88473Y23960D01*
X88553Y23932D01*
X88633Y23900D01*
X88711Y23864D01*
X88787Y23826D01*
X88861Y23783D01*
X88933Y23738D01*
X89004Y23689D01*
X89072Y23637D01*
X89137Y23583D01*
X89200Y23525D01*
X89261Y23464D01*
X89319Y23401D01*
X89373Y23336D01*
X89425Y23268D01*
X89474Y23197D01*
X89519Y23125D01*
X89562Y23051D01*
X89600Y22975D01*
X89636Y22897D01*
X89668Y22817D01*
X89696Y22737D01*
X89720Y22655D01*
X89741Y22572D01*
X89758Y22488D01*
X89772Y22404D01*
X89781Y22319D01*
X89787Y22233D01*
X89789Y22148D01*
X89789Y20243D01*
X89789Y22529D02*
X92837Y24053D01*
X87503Y27051D02*
X85979Y28956D01*
X92837Y28956D01*
X92837Y27051D02*
X92837Y30861D01*
X82423Y25124D02*
X82423Y23600D01*
X82421Y23523D01*
X82415Y23446D01*
X82405Y23369D01*
X82392Y23293D01*
X82374Y23218D01*
X82353Y23144D01*
X82328Y23071D01*
X82299Y22999D01*
X82267Y22929D01*
X82232Y22860D01*
X82192Y22794D01*
X82150Y22729D01*
X82104Y22667D01*
X82055Y22607D01*
X82004Y22550D01*
X81949Y22495D01*
X81892Y22444D01*
X81832Y22395D01*
X81770Y22349D01*
X81705Y22307D01*
X81639Y22267D01*
X81570Y22232D01*
X81500Y22200D01*
X81428Y22171D01*
X81355Y22146D01*
X81281Y22125D01*
X81206Y22107D01*
X81130Y22094D01*
X81053Y22084D01*
X80976Y22078D01*
X80899Y22076D01*
X77089Y22076D01*
X77012Y22078D01*
X76935Y22084D01*
X76858Y22094D01*
X76782Y22107D01*
X76707Y22125D01*
X76633Y22146D01*
X76560Y22171D01*
X76488Y22200D01*
X76418Y22232D01*
X76349Y22267D01*
X76283Y22307D01*
X76218Y22349D01*
X76156Y22395D01*
X76096Y22444D01*
X76039Y22495D01*
X75984Y22550D01*
X75933Y22607D01*
X75884Y22667D01*
X75838Y22729D01*
X75796Y22794D01*
X75756Y22860D01*
X75721Y22929D01*
X75689Y22999D01*
X75660Y23071D01*
X75635Y23144D01*
X75614Y23218D01*
X75596Y23293D01*
X75583Y23369D01*
X75573Y23446D01*
X75567Y23523D01*
X75565Y23600D01*
X75565Y25124D01*
X82423Y27813D02*
X82423Y30099D01*
X82421Y30176D01*
X82415Y30253D01*
X82405Y30330D01*
X82392Y30406D01*
X82374Y30481D01*
X82353Y30555D01*
X82328Y30628D01*
X82299Y30700D01*
X82267Y30770D01*
X82232Y30839D01*
X82192Y30905D01*
X82150Y30970D01*
X82104Y31032D01*
X82055Y31092D01*
X82004Y31149D01*
X81949Y31204D01*
X81892Y31255D01*
X81832Y31304D01*
X81770Y31350D01*
X81705Y31392D01*
X81639Y31432D01*
X81570Y31467D01*
X81500Y31499D01*
X81428Y31528D01*
X81355Y31553D01*
X81281Y31574D01*
X81206Y31592D01*
X81130Y31605D01*
X81053Y31615D01*
X80976Y31621D01*
X80899Y31623D01*
X80137Y31623D01*
X80060Y31621D01*
X79983Y31615D01*
X79906Y31605D01*
X79830Y31592D01*
X79755Y31574D01*
X79681Y31553D01*
X79608Y31528D01*
X79536Y31499D01*
X79466Y31467D01*
X79397Y31432D01*
X79331Y31392D01*
X79266Y31350D01*
X79204Y31304D01*
X79144Y31255D01*
X79087Y31204D01*
X79032Y31149D01*
X78981Y31092D01*
X78932Y31032D01*
X78886Y30970D01*
X78844Y30905D01*
X78804Y30839D01*
X78769Y30770D01*
X78737Y30700D01*
X78708Y30628D01*
X78683Y30555D01*
X78662Y30481D01*
X78644Y30406D01*
X78631Y30330D01*
X78621Y30253D01*
X78615Y30176D01*
X78613Y30099D01*
X78613Y27813D01*
X75565Y27813D01*
X75565Y31623D01*
X75057Y152400D02*
X76581Y152400D01*
X75057Y152400D02*
X74980Y152402D01*
X74903Y152408D01*
X74826Y152418D01*
X74750Y152431D01*
X74675Y152449D01*
X74601Y152470D01*
X74528Y152495D01*
X74456Y152524D01*
X74386Y152556D01*
X74317Y152591D01*
X74251Y152631D01*
X74186Y152673D01*
X74124Y152719D01*
X74064Y152768D01*
X74007Y152819D01*
X73952Y152874D01*
X73901Y152931D01*
X73852Y152991D01*
X73806Y153053D01*
X73764Y153118D01*
X73724Y153184D01*
X73689Y153253D01*
X73657Y153323D01*
X73628Y153395D01*
X73603Y153468D01*
X73582Y153542D01*
X73564Y153617D01*
X73551Y153693D01*
X73541Y153770D01*
X73535Y153847D01*
X73533Y153924D01*
X73533Y157734D01*
X73535Y157811D01*
X73541Y157888D01*
X73551Y157965D01*
X73564Y158041D01*
X73582Y158116D01*
X73603Y158190D01*
X73628Y158263D01*
X73657Y158335D01*
X73689Y158405D01*
X73724Y158474D01*
X73764Y158540D01*
X73806Y158605D01*
X73852Y158667D01*
X73901Y158727D01*
X73952Y158784D01*
X74007Y158839D01*
X74064Y158890D01*
X74124Y158939D01*
X74186Y158985D01*
X74251Y159027D01*
X74317Y159067D01*
X74386Y159102D01*
X74456Y159134D01*
X74528Y159163D01*
X74601Y159188D01*
X74675Y159209D01*
X74750Y159227D01*
X74826Y159240D01*
X74903Y159250D01*
X74980Y159256D01*
X75057Y159258D01*
X76581Y159258D01*
X79270Y154305D02*
X79272Y154390D01*
X79278Y154476D01*
X79287Y154561D01*
X79301Y154645D01*
X79318Y154729D01*
X79339Y154812D01*
X79363Y154894D01*
X79391Y154974D01*
X79423Y155054D01*
X79459Y155132D01*
X79497Y155208D01*
X79540Y155282D01*
X79585Y155354D01*
X79634Y155425D01*
X79686Y155493D01*
X79740Y155558D01*
X79798Y155621D01*
X79859Y155682D01*
X79922Y155740D01*
X79987Y155794D01*
X80055Y155846D01*
X80126Y155895D01*
X80198Y155940D01*
X80272Y155983D01*
X80348Y156021D01*
X80426Y156057D01*
X80506Y156089D01*
X80586Y156117D01*
X80668Y156141D01*
X80751Y156162D01*
X80835Y156179D01*
X80919Y156193D01*
X81004Y156202D01*
X81090Y156208D01*
X81175Y156210D01*
X81260Y156208D01*
X81346Y156202D01*
X81431Y156193D01*
X81515Y156179D01*
X81599Y156162D01*
X81682Y156141D01*
X81764Y156117D01*
X81844Y156089D01*
X81924Y156057D01*
X82002Y156021D01*
X82078Y155983D01*
X82152Y155940D01*
X82224Y155895D01*
X82295Y155846D01*
X82363Y155794D01*
X82428Y155740D01*
X82491Y155682D01*
X82552Y155621D01*
X82610Y155558D01*
X82664Y155493D01*
X82716Y155425D01*
X82765Y155354D01*
X82810Y155282D01*
X82853Y155208D01*
X82891Y155132D01*
X82927Y155054D01*
X82959Y154974D01*
X82987Y154894D01*
X83011Y154812D01*
X83032Y154729D01*
X83049Y154645D01*
X83063Y154561D01*
X83072Y154476D01*
X83078Y154390D01*
X83080Y154305D01*
X83078Y154220D01*
X83072Y154134D01*
X83063Y154049D01*
X83049Y153965D01*
X83032Y153881D01*
X83011Y153798D01*
X82987Y153716D01*
X82959Y153636D01*
X82927Y153556D01*
X82891Y153478D01*
X82853Y153402D01*
X82810Y153328D01*
X82765Y153256D01*
X82716Y153185D01*
X82664Y153117D01*
X82610Y153052D01*
X82552Y152989D01*
X82491Y152928D01*
X82428Y152870D01*
X82363Y152816D01*
X82295Y152764D01*
X82224Y152715D01*
X82152Y152670D01*
X82078Y152627D01*
X82002Y152589D01*
X81924Y152553D01*
X81844Y152521D01*
X81764Y152493D01*
X81682Y152469D01*
X81599Y152448D01*
X81515Y152431D01*
X81431Y152417D01*
X81346Y152408D01*
X81260Y152402D01*
X81175Y152400D01*
X81090Y152402D01*
X81004Y152408D01*
X80919Y152417D01*
X80835Y152431D01*
X80751Y152448D01*
X80668Y152469D01*
X80586Y152493D01*
X80506Y152521D01*
X80426Y152553D01*
X80348Y152589D01*
X80272Y152627D01*
X80198Y152670D01*
X80126Y152715D01*
X80055Y152764D01*
X79987Y152816D01*
X79922Y152870D01*
X79859Y152928D01*
X79798Y152989D01*
X79740Y153052D01*
X79686Y153117D01*
X79634Y153185D01*
X79585Y153256D01*
X79540Y153328D01*
X79497Y153402D01*
X79459Y153478D01*
X79423Y153556D01*
X79391Y153636D01*
X79363Y153716D01*
X79339Y153798D01*
X79318Y153881D01*
X79301Y153965D01*
X79287Y154049D01*
X79278Y154134D01*
X79272Y154220D01*
X79270Y154305D01*
X79651Y157734D02*
X79653Y157811D01*
X79659Y157888D01*
X79669Y157965D01*
X79682Y158041D01*
X79700Y158116D01*
X79721Y158190D01*
X79746Y158263D01*
X79775Y158335D01*
X79807Y158405D01*
X79842Y158474D01*
X79882Y158540D01*
X79924Y158605D01*
X79970Y158667D01*
X80019Y158727D01*
X80070Y158784D01*
X80125Y158839D01*
X80182Y158890D01*
X80242Y158939D01*
X80304Y158985D01*
X80369Y159027D01*
X80435Y159067D01*
X80504Y159102D01*
X80574Y159134D01*
X80646Y159163D01*
X80719Y159188D01*
X80793Y159209D01*
X80868Y159227D01*
X80944Y159240D01*
X81021Y159250D01*
X81098Y159256D01*
X81175Y159258D01*
X81252Y159256D01*
X81329Y159250D01*
X81406Y159240D01*
X81482Y159227D01*
X81557Y159209D01*
X81631Y159188D01*
X81704Y159163D01*
X81776Y159134D01*
X81846Y159102D01*
X81915Y159067D01*
X81981Y159027D01*
X82046Y158985D01*
X82108Y158939D01*
X82168Y158890D01*
X82225Y158839D01*
X82280Y158784D01*
X82331Y158727D01*
X82380Y158667D01*
X82426Y158605D01*
X82468Y158540D01*
X82508Y158474D01*
X82543Y158405D01*
X82575Y158335D01*
X82604Y158263D01*
X82629Y158190D01*
X82650Y158116D01*
X82668Y158041D01*
X82681Y157965D01*
X82691Y157888D01*
X82697Y157811D01*
X82699Y157734D01*
X82697Y157657D01*
X82691Y157580D01*
X82681Y157503D01*
X82668Y157427D01*
X82650Y157352D01*
X82629Y157278D01*
X82604Y157205D01*
X82575Y157133D01*
X82543Y157063D01*
X82508Y156994D01*
X82468Y156928D01*
X82426Y156863D01*
X82380Y156801D01*
X82331Y156741D01*
X82280Y156684D01*
X82225Y156629D01*
X82168Y156578D01*
X82108Y156529D01*
X82046Y156483D01*
X81981Y156441D01*
X81915Y156401D01*
X81846Y156366D01*
X81776Y156334D01*
X81704Y156305D01*
X81631Y156280D01*
X81557Y156259D01*
X81482Y156241D01*
X81406Y156228D01*
X81329Y156218D01*
X81252Y156212D01*
X81175Y156210D01*
X81098Y156212D01*
X81021Y156218D01*
X80944Y156228D01*
X80868Y156241D01*
X80793Y156259D01*
X80719Y156280D01*
X80646Y156305D01*
X80574Y156334D01*
X80504Y156366D01*
X80435Y156401D01*
X80369Y156441D01*
X80304Y156483D01*
X80242Y156529D01*
X80182Y156578D01*
X80125Y156629D01*
X80070Y156684D01*
X80019Y156741D01*
X79970Y156801D01*
X79924Y156863D01*
X79882Y156928D01*
X79842Y156994D01*
X79807Y157063D01*
X79775Y157133D01*
X79746Y157205D01*
X79721Y157278D01*
X79700Y157352D01*
X79682Y157427D01*
X79669Y157503D01*
X79659Y157580D01*
X79653Y157657D01*
X79651Y157734D01*
X175238Y124841D02*
X176762Y124841D01*
X175238Y124841D02*
X175161Y124843D01*
X175084Y124849D01*
X175007Y124859D01*
X174931Y124872D01*
X174856Y124890D01*
X174782Y124911D01*
X174709Y124936D01*
X174637Y124965D01*
X174567Y124997D01*
X174498Y125032D01*
X174432Y125072D01*
X174367Y125114D01*
X174305Y125160D01*
X174245Y125209D01*
X174188Y125260D01*
X174133Y125315D01*
X174082Y125372D01*
X174033Y125432D01*
X173987Y125494D01*
X173945Y125559D01*
X173905Y125625D01*
X173870Y125694D01*
X173838Y125764D01*
X173809Y125836D01*
X173784Y125909D01*
X173763Y125983D01*
X173745Y126058D01*
X173732Y126134D01*
X173722Y126211D01*
X173716Y126288D01*
X173714Y126365D01*
X173714Y130175D01*
X173716Y130252D01*
X173722Y130329D01*
X173732Y130406D01*
X173745Y130482D01*
X173763Y130557D01*
X173784Y130631D01*
X173809Y130704D01*
X173838Y130776D01*
X173870Y130846D01*
X173905Y130915D01*
X173945Y130981D01*
X173987Y131046D01*
X174033Y131108D01*
X174082Y131168D01*
X174133Y131225D01*
X174188Y131280D01*
X174245Y131331D01*
X174305Y131380D01*
X174367Y131426D01*
X174432Y131468D01*
X174498Y131508D01*
X174567Y131543D01*
X174637Y131575D01*
X174709Y131604D01*
X174782Y131629D01*
X174856Y131650D01*
X174931Y131668D01*
X175007Y131681D01*
X175084Y131691D01*
X175161Y131697D01*
X175238Y131699D01*
X176762Y131699D01*
X179451Y128651D02*
X181737Y128651D01*
X181814Y128649D01*
X181891Y128643D01*
X181968Y128633D01*
X182044Y128620D01*
X182119Y128602D01*
X182193Y128581D01*
X182266Y128556D01*
X182338Y128527D01*
X182408Y128495D01*
X182477Y128460D01*
X182543Y128420D01*
X182608Y128378D01*
X182670Y128332D01*
X182730Y128283D01*
X182787Y128232D01*
X182842Y128177D01*
X182893Y128120D01*
X182942Y128060D01*
X182988Y127998D01*
X183030Y127933D01*
X183070Y127867D01*
X183105Y127798D01*
X183137Y127728D01*
X183166Y127656D01*
X183191Y127583D01*
X183212Y127509D01*
X183230Y127434D01*
X183243Y127358D01*
X183253Y127281D01*
X183259Y127204D01*
X183261Y127127D01*
X183261Y126746D01*
X183259Y126661D01*
X183253Y126575D01*
X183244Y126490D01*
X183230Y126406D01*
X183213Y126322D01*
X183192Y126239D01*
X183168Y126157D01*
X183140Y126077D01*
X183108Y125997D01*
X183072Y125919D01*
X183034Y125843D01*
X182991Y125769D01*
X182946Y125697D01*
X182897Y125626D01*
X182845Y125558D01*
X182791Y125493D01*
X182733Y125430D01*
X182672Y125369D01*
X182609Y125311D01*
X182544Y125257D01*
X182476Y125205D01*
X182405Y125156D01*
X182333Y125111D01*
X182259Y125068D01*
X182183Y125030D01*
X182105Y124994D01*
X182025Y124962D01*
X181945Y124934D01*
X181863Y124910D01*
X181780Y124889D01*
X181696Y124872D01*
X181612Y124858D01*
X181527Y124849D01*
X181441Y124843D01*
X181356Y124841D01*
X181271Y124843D01*
X181185Y124849D01*
X181100Y124858D01*
X181016Y124872D01*
X180932Y124889D01*
X180849Y124910D01*
X180767Y124934D01*
X180687Y124962D01*
X180607Y124994D01*
X180529Y125030D01*
X180453Y125068D01*
X180379Y125111D01*
X180307Y125156D01*
X180236Y125205D01*
X180168Y125257D01*
X180103Y125311D01*
X180040Y125369D01*
X179979Y125430D01*
X179921Y125493D01*
X179867Y125558D01*
X179815Y125626D01*
X179766Y125697D01*
X179721Y125769D01*
X179678Y125843D01*
X179640Y125919D01*
X179604Y125997D01*
X179572Y126077D01*
X179544Y126157D01*
X179520Y126239D01*
X179499Y126322D01*
X179482Y126406D01*
X179468Y126490D01*
X179459Y126575D01*
X179453Y126661D01*
X179451Y126746D01*
X179451Y128651D01*
X179453Y128760D01*
X179459Y128868D01*
X179468Y128977D01*
X179482Y129085D01*
X179499Y129192D01*
X179521Y129299D01*
X179546Y129405D01*
X179574Y129510D01*
X179607Y129614D01*
X179643Y129716D01*
X179683Y129817D01*
X179726Y129917D01*
X179773Y130015D01*
X179824Y130112D01*
X179878Y130206D01*
X179935Y130299D01*
X179995Y130389D01*
X180059Y130478D01*
X180126Y130564D01*
X180195Y130647D01*
X180268Y130728D01*
X180344Y130806D01*
X180422Y130882D01*
X180503Y130955D01*
X180586Y131024D01*
X180672Y131091D01*
X180761Y131155D01*
X180851Y131215D01*
X180944Y131272D01*
X181038Y131326D01*
X181135Y131377D01*
X181233Y131424D01*
X181333Y131467D01*
X181434Y131507D01*
X181536Y131543D01*
X181640Y131576D01*
X181745Y131604D01*
X181851Y131629D01*
X181958Y131651D01*
X182065Y131668D01*
X182173Y131682D01*
X182282Y131691D01*
X182390Y131697D01*
X182499Y131699D01*
X159639Y125222D02*
X158115Y125222D01*
X158038Y125224D01*
X157961Y125230D01*
X157884Y125240D01*
X157808Y125253D01*
X157733Y125271D01*
X157659Y125292D01*
X157586Y125317D01*
X157514Y125346D01*
X157444Y125378D01*
X157375Y125413D01*
X157309Y125453D01*
X157244Y125495D01*
X157182Y125541D01*
X157122Y125590D01*
X157065Y125641D01*
X157010Y125696D01*
X156959Y125753D01*
X156910Y125813D01*
X156864Y125875D01*
X156822Y125940D01*
X156782Y126006D01*
X156747Y126075D01*
X156715Y126145D01*
X156686Y126217D01*
X156661Y126290D01*
X156640Y126364D01*
X156622Y126439D01*
X156609Y126515D01*
X156599Y126592D01*
X156593Y126669D01*
X156591Y126746D01*
X156591Y130556D01*
X156593Y130633D01*
X156599Y130710D01*
X156609Y130787D01*
X156622Y130863D01*
X156640Y130938D01*
X156661Y131012D01*
X156686Y131085D01*
X156715Y131157D01*
X156747Y131227D01*
X156782Y131296D01*
X156822Y131362D01*
X156864Y131427D01*
X156910Y131489D01*
X156959Y131549D01*
X157010Y131606D01*
X157065Y131661D01*
X157122Y131712D01*
X157182Y131761D01*
X157244Y131807D01*
X157309Y131849D01*
X157375Y131889D01*
X157444Y131924D01*
X157514Y131956D01*
X157586Y131985D01*
X157659Y132010D01*
X157733Y132031D01*
X157808Y132049D01*
X157884Y132062D01*
X157961Y132072D01*
X158038Y132078D01*
X158115Y132080D01*
X159639Y132080D01*
X162328Y132080D02*
X162328Y131318D01*
X162328Y132080D02*
X166138Y132080D01*
X164233Y125222D01*
X132842Y148209D02*
X132842Y149733D01*
X132842Y148209D02*
X132840Y148132D01*
X132834Y148055D01*
X132824Y147978D01*
X132811Y147902D01*
X132793Y147827D01*
X132772Y147753D01*
X132747Y147680D01*
X132718Y147608D01*
X132686Y147538D01*
X132651Y147469D01*
X132611Y147403D01*
X132569Y147338D01*
X132523Y147276D01*
X132474Y147216D01*
X132423Y147159D01*
X132368Y147104D01*
X132311Y147053D01*
X132251Y147004D01*
X132189Y146958D01*
X132124Y146916D01*
X132058Y146876D01*
X131989Y146841D01*
X131919Y146809D01*
X131847Y146780D01*
X131774Y146755D01*
X131700Y146734D01*
X131625Y146716D01*
X131549Y146703D01*
X131472Y146693D01*
X131395Y146687D01*
X131318Y146685D01*
X127508Y146685D01*
X127431Y146687D01*
X127354Y146693D01*
X127277Y146703D01*
X127201Y146716D01*
X127126Y146734D01*
X127052Y146755D01*
X126979Y146780D01*
X126907Y146809D01*
X126837Y146841D01*
X126768Y146876D01*
X126702Y146916D01*
X126637Y146958D01*
X126575Y147004D01*
X126515Y147053D01*
X126458Y147104D01*
X126403Y147159D01*
X126352Y147216D01*
X126303Y147276D01*
X126257Y147338D01*
X126215Y147403D01*
X126175Y147469D01*
X126140Y147538D01*
X126108Y147608D01*
X126079Y147680D01*
X126054Y147753D01*
X126033Y147827D01*
X126015Y147902D01*
X126002Y147978D01*
X125992Y148055D01*
X125986Y148132D01*
X125984Y148209D01*
X125984Y149733D01*
X127508Y152422D02*
X125984Y154327D01*
X132842Y154327D01*
X132842Y152422D02*
X132842Y156232D01*
X127508Y159280D02*
X125984Y161185D01*
X132842Y161185D01*
X132842Y159280D02*
X132842Y163090D01*
X106299Y150876D02*
X106299Y149352D01*
X106297Y149275D01*
X106291Y149198D01*
X106281Y149121D01*
X106268Y149045D01*
X106250Y148970D01*
X106229Y148896D01*
X106204Y148823D01*
X106175Y148751D01*
X106143Y148681D01*
X106108Y148612D01*
X106068Y148546D01*
X106026Y148481D01*
X105980Y148419D01*
X105931Y148359D01*
X105880Y148302D01*
X105825Y148247D01*
X105768Y148196D01*
X105708Y148147D01*
X105646Y148101D01*
X105581Y148059D01*
X105515Y148019D01*
X105446Y147984D01*
X105376Y147952D01*
X105304Y147923D01*
X105231Y147898D01*
X105157Y147877D01*
X105082Y147859D01*
X105006Y147846D01*
X104929Y147836D01*
X104852Y147830D01*
X104775Y147828D01*
X100965Y147828D01*
X100888Y147830D01*
X100811Y147836D01*
X100734Y147846D01*
X100658Y147859D01*
X100583Y147877D01*
X100509Y147898D01*
X100436Y147923D01*
X100364Y147952D01*
X100294Y147984D01*
X100225Y148019D01*
X100159Y148059D01*
X100094Y148101D01*
X100032Y148147D01*
X99972Y148196D01*
X99915Y148247D01*
X99860Y148302D01*
X99809Y148359D01*
X99760Y148419D01*
X99714Y148481D01*
X99672Y148546D01*
X99632Y148612D01*
X99597Y148681D01*
X99565Y148751D01*
X99536Y148823D01*
X99511Y148896D01*
X99490Y148970D01*
X99472Y149045D01*
X99459Y149121D01*
X99449Y149198D01*
X99443Y149275D01*
X99441Y149352D01*
X99441Y150876D01*
X100965Y153565D02*
X99441Y155470D01*
X106299Y155470D01*
X106299Y153565D02*
X106299Y157375D01*
X99441Y162519D02*
X99443Y162601D01*
X99449Y162682D01*
X99458Y162763D01*
X99472Y162844D01*
X99489Y162923D01*
X99510Y163002D01*
X99535Y163080D01*
X99564Y163156D01*
X99596Y163231D01*
X99632Y163305D01*
X99671Y163377D01*
X99713Y163446D01*
X99759Y163514D01*
X99808Y163579D01*
X99860Y163642D01*
X99915Y163702D01*
X99973Y163760D01*
X100033Y163815D01*
X100096Y163867D01*
X100161Y163916D01*
X100229Y163962D01*
X100299Y164004D01*
X100370Y164043D01*
X100444Y164079D01*
X100519Y164111D01*
X100595Y164140D01*
X100673Y164165D01*
X100752Y164186D01*
X100831Y164203D01*
X100912Y164217D01*
X100993Y164226D01*
X101074Y164232D01*
X101156Y164234D01*
X99441Y162519D02*
X99443Y162427D01*
X99449Y162335D01*
X99458Y162243D01*
X99472Y162151D01*
X99489Y162061D01*
X99510Y161971D01*
X99535Y161882D01*
X99564Y161794D01*
X99596Y161707D01*
X99632Y161622D01*
X99671Y161539D01*
X99714Y161457D01*
X99760Y161377D01*
X99810Y161299D01*
X99862Y161223D01*
X99918Y161150D01*
X99977Y161079D01*
X100039Y161010D01*
X100104Y160944D01*
X100171Y160881D01*
X100241Y160821D01*
X100313Y160763D01*
X100388Y160709D01*
X100465Y160658D01*
X100544Y160610D01*
X100625Y160566D01*
X100708Y160525D01*
X100792Y160487D01*
X100878Y160453D01*
X100965Y160423D01*
X102490Y163662D02*
X102431Y163721D01*
X102370Y163777D01*
X102307Y163830D01*
X102241Y163881D01*
X102173Y163928D01*
X102103Y163972D01*
X102031Y164013D01*
X101957Y164051D01*
X101882Y164085D01*
X101805Y164116D01*
X101727Y164143D01*
X101647Y164167D01*
X101567Y164188D01*
X101486Y164204D01*
X101404Y164217D01*
X101322Y164227D01*
X101239Y164232D01*
X101156Y164234D01*
X102489Y163662D02*
X106299Y160423D01*
X106299Y164233D01*
X106807Y16996D02*
X106807Y15472D01*
X106805Y15395D01*
X106799Y15318D01*
X106789Y15241D01*
X106776Y15165D01*
X106758Y15090D01*
X106737Y15016D01*
X106712Y14943D01*
X106683Y14871D01*
X106651Y14801D01*
X106616Y14732D01*
X106576Y14666D01*
X106534Y14601D01*
X106488Y14539D01*
X106439Y14479D01*
X106388Y14422D01*
X106333Y14367D01*
X106276Y14316D01*
X106216Y14267D01*
X106154Y14221D01*
X106089Y14179D01*
X106023Y14139D01*
X105954Y14104D01*
X105884Y14072D01*
X105812Y14043D01*
X105739Y14018D01*
X105665Y13997D01*
X105590Y13979D01*
X105514Y13966D01*
X105437Y13956D01*
X105360Y13950D01*
X105283Y13948D01*
X101473Y13948D01*
X101396Y13950D01*
X101319Y13956D01*
X101242Y13966D01*
X101166Y13979D01*
X101091Y13997D01*
X101017Y14018D01*
X100944Y14043D01*
X100872Y14072D01*
X100802Y14104D01*
X100733Y14139D01*
X100667Y14179D01*
X100602Y14221D01*
X100540Y14267D01*
X100480Y14316D01*
X100423Y14367D01*
X100368Y14422D01*
X100317Y14479D01*
X100268Y14539D01*
X100222Y14601D01*
X100180Y14666D01*
X100140Y14732D01*
X100105Y14801D01*
X100073Y14871D01*
X100044Y14943D01*
X100019Y15016D01*
X99998Y15090D01*
X99980Y15165D01*
X99967Y15241D01*
X99957Y15318D01*
X99951Y15395D01*
X99949Y15472D01*
X99949Y16996D01*
X101473Y19685D02*
X99949Y21590D01*
X106807Y21590D01*
X106807Y19685D02*
X106807Y23495D01*
X106807Y26543D02*
X106807Y28448D01*
X106805Y28533D01*
X106799Y28619D01*
X106790Y28704D01*
X106776Y28788D01*
X106759Y28872D01*
X106738Y28955D01*
X106714Y29037D01*
X106686Y29117D01*
X106654Y29197D01*
X106618Y29275D01*
X106580Y29351D01*
X106537Y29425D01*
X106492Y29497D01*
X106443Y29568D01*
X106391Y29636D01*
X106337Y29701D01*
X106279Y29764D01*
X106218Y29825D01*
X106155Y29883D01*
X106090Y29937D01*
X106022Y29989D01*
X105951Y30038D01*
X105879Y30083D01*
X105805Y30126D01*
X105729Y30164D01*
X105651Y30200D01*
X105571Y30232D01*
X105491Y30260D01*
X105409Y30284D01*
X105326Y30305D01*
X105242Y30322D01*
X105158Y30336D01*
X105073Y30345D01*
X104987Y30351D01*
X104902Y30353D01*
X104817Y30351D01*
X104731Y30345D01*
X104646Y30336D01*
X104562Y30322D01*
X104478Y30305D01*
X104395Y30284D01*
X104313Y30260D01*
X104233Y30232D01*
X104153Y30200D01*
X104075Y30164D01*
X103999Y30126D01*
X103925Y30083D01*
X103853Y30038D01*
X103782Y29989D01*
X103714Y29937D01*
X103649Y29883D01*
X103586Y29825D01*
X103525Y29764D01*
X103467Y29701D01*
X103413Y29636D01*
X103361Y29568D01*
X103312Y29497D01*
X103267Y29425D01*
X103224Y29351D01*
X103186Y29275D01*
X103150Y29197D01*
X103118Y29117D01*
X103090Y29037D01*
X103066Y28955D01*
X103045Y28872D01*
X103028Y28788D01*
X103014Y28704D01*
X103005Y28619D01*
X102999Y28533D01*
X102997Y28448D01*
X99949Y28829D02*
X99949Y26543D01*
X99949Y28829D02*
X99951Y28906D01*
X99957Y28983D01*
X99967Y29060D01*
X99980Y29136D01*
X99998Y29211D01*
X100019Y29285D01*
X100044Y29358D01*
X100073Y29430D01*
X100105Y29500D01*
X100140Y29569D01*
X100180Y29635D01*
X100222Y29700D01*
X100268Y29762D01*
X100317Y29822D01*
X100368Y29879D01*
X100423Y29934D01*
X100480Y29985D01*
X100540Y30034D01*
X100602Y30080D01*
X100667Y30122D01*
X100733Y30162D01*
X100802Y30197D01*
X100872Y30229D01*
X100944Y30258D01*
X101017Y30283D01*
X101091Y30304D01*
X101166Y30322D01*
X101242Y30335D01*
X101319Y30345D01*
X101396Y30351D01*
X101473Y30353D01*
X101550Y30351D01*
X101627Y30345D01*
X101704Y30335D01*
X101780Y30322D01*
X101855Y30304D01*
X101929Y30283D01*
X102002Y30258D01*
X102074Y30229D01*
X102144Y30197D01*
X102213Y30162D01*
X102279Y30122D01*
X102344Y30080D01*
X102406Y30034D01*
X102466Y29985D01*
X102523Y29934D01*
X102578Y29879D01*
X102629Y29822D01*
X102678Y29762D01*
X102724Y29700D01*
X102766Y29635D01*
X102806Y29569D01*
X102841Y29500D01*
X102873Y29430D01*
X102902Y29358D01*
X102927Y29285D01*
X102948Y29211D01*
X102966Y29136D01*
X102979Y29060D01*
X102989Y28983D01*
X102995Y28906D01*
X102997Y28829D01*
X102997Y27305D01*
X72898Y18012D02*
X72898Y16488D01*
X72896Y16411D01*
X72890Y16334D01*
X72880Y16257D01*
X72867Y16181D01*
X72849Y16106D01*
X72828Y16032D01*
X72803Y15959D01*
X72774Y15887D01*
X72742Y15817D01*
X72707Y15748D01*
X72667Y15682D01*
X72625Y15617D01*
X72579Y15555D01*
X72530Y15495D01*
X72479Y15438D01*
X72424Y15383D01*
X72367Y15332D01*
X72307Y15283D01*
X72245Y15237D01*
X72180Y15195D01*
X72114Y15155D01*
X72045Y15120D01*
X71975Y15088D01*
X71903Y15059D01*
X71830Y15034D01*
X71756Y15013D01*
X71681Y14995D01*
X71605Y14982D01*
X71528Y14972D01*
X71451Y14966D01*
X71374Y14964D01*
X67564Y14964D01*
X67487Y14966D01*
X67410Y14972D01*
X67333Y14982D01*
X67257Y14995D01*
X67182Y15013D01*
X67108Y15034D01*
X67035Y15059D01*
X66963Y15088D01*
X66893Y15120D01*
X66824Y15155D01*
X66758Y15195D01*
X66693Y15237D01*
X66631Y15283D01*
X66571Y15332D01*
X66514Y15383D01*
X66459Y15438D01*
X66408Y15495D01*
X66359Y15555D01*
X66313Y15617D01*
X66271Y15682D01*
X66231Y15748D01*
X66196Y15817D01*
X66164Y15887D01*
X66135Y15959D01*
X66110Y16032D01*
X66089Y16106D01*
X66071Y16181D01*
X66058Y16257D01*
X66048Y16334D01*
X66042Y16411D01*
X66040Y16488D01*
X66040Y18012D01*
X67564Y20701D02*
X66040Y22606D01*
X72898Y22606D01*
X72898Y20701D02*
X72898Y24511D01*
X72898Y27559D02*
X72898Y29845D01*
X72896Y29922D01*
X72890Y29999D01*
X72880Y30076D01*
X72867Y30152D01*
X72849Y30227D01*
X72828Y30301D01*
X72803Y30374D01*
X72774Y30446D01*
X72742Y30516D01*
X72707Y30585D01*
X72667Y30651D01*
X72625Y30716D01*
X72579Y30778D01*
X72530Y30838D01*
X72479Y30895D01*
X72424Y30950D01*
X72367Y31001D01*
X72307Y31050D01*
X72245Y31096D01*
X72180Y31138D01*
X72114Y31178D01*
X72045Y31213D01*
X71975Y31245D01*
X71903Y31274D01*
X71830Y31299D01*
X71756Y31320D01*
X71681Y31338D01*
X71605Y31351D01*
X71528Y31361D01*
X71451Y31367D01*
X71374Y31369D01*
X70612Y31369D01*
X70535Y31367D01*
X70458Y31361D01*
X70381Y31351D01*
X70305Y31338D01*
X70230Y31320D01*
X70156Y31299D01*
X70083Y31274D01*
X70011Y31245D01*
X69941Y31213D01*
X69872Y31178D01*
X69806Y31138D01*
X69741Y31096D01*
X69679Y31050D01*
X69619Y31001D01*
X69562Y30950D01*
X69507Y30895D01*
X69456Y30838D01*
X69407Y30778D01*
X69361Y30716D01*
X69319Y30651D01*
X69279Y30585D01*
X69244Y30516D01*
X69212Y30446D01*
X69183Y30374D01*
X69158Y30301D01*
X69137Y30227D01*
X69119Y30152D01*
X69106Y30076D01*
X69096Y29999D01*
X69090Y29922D01*
X69088Y29845D01*
X69088Y27559D01*
X66040Y27559D01*
X66040Y31369D01*
D12*
X49921Y57262D02*
X44821Y57262D01*
X44821Y71262D02*
X49921Y71262D01*
D11*
X16764Y60452D02*
X15240Y60452D01*
X15163Y60454D01*
X15086Y60460D01*
X15009Y60470D01*
X14933Y60483D01*
X14858Y60501D01*
X14784Y60522D01*
X14711Y60547D01*
X14639Y60576D01*
X14569Y60608D01*
X14500Y60643D01*
X14434Y60683D01*
X14369Y60725D01*
X14307Y60771D01*
X14247Y60820D01*
X14190Y60871D01*
X14135Y60926D01*
X14084Y60983D01*
X14035Y61043D01*
X13989Y61105D01*
X13947Y61170D01*
X13907Y61236D01*
X13872Y61305D01*
X13840Y61375D01*
X13811Y61447D01*
X13786Y61520D01*
X13765Y61594D01*
X13747Y61669D01*
X13734Y61745D01*
X13724Y61822D01*
X13718Y61899D01*
X13716Y61976D01*
X13716Y65786D01*
X13718Y65863D01*
X13724Y65940D01*
X13734Y66017D01*
X13747Y66093D01*
X13765Y66168D01*
X13786Y66242D01*
X13811Y66315D01*
X13840Y66387D01*
X13872Y66457D01*
X13907Y66526D01*
X13947Y66592D01*
X13989Y66657D01*
X14035Y66719D01*
X14084Y66779D01*
X14135Y66836D01*
X14190Y66891D01*
X14247Y66942D01*
X14307Y66991D01*
X14369Y67037D01*
X14434Y67079D01*
X14500Y67119D01*
X14569Y67154D01*
X14639Y67186D01*
X14711Y67215D01*
X14784Y67240D01*
X14858Y67261D01*
X14933Y67279D01*
X15009Y67292D01*
X15086Y67302D01*
X15163Y67308D01*
X15240Y67310D01*
X16764Y67310D01*
X19453Y65786D02*
X21358Y67310D01*
X21358Y60452D01*
X19453Y60452D02*
X23263Y60452D01*
X26311Y61976D02*
X27835Y67310D01*
X26311Y61976D02*
X30121Y61976D01*
X28978Y63500D02*
X28978Y60452D01*
D12*
X43678Y113680D02*
X48778Y113680D01*
X48778Y99680D02*
X43678Y99680D01*
D11*
X14605Y103759D02*
X13081Y103759D01*
X13004Y103761D01*
X12927Y103767D01*
X12850Y103777D01*
X12774Y103790D01*
X12699Y103808D01*
X12625Y103829D01*
X12552Y103854D01*
X12480Y103883D01*
X12410Y103915D01*
X12341Y103950D01*
X12275Y103990D01*
X12210Y104032D01*
X12148Y104078D01*
X12088Y104127D01*
X12031Y104178D01*
X11976Y104233D01*
X11925Y104290D01*
X11876Y104350D01*
X11830Y104412D01*
X11788Y104477D01*
X11748Y104543D01*
X11713Y104612D01*
X11681Y104682D01*
X11652Y104754D01*
X11627Y104827D01*
X11606Y104901D01*
X11588Y104976D01*
X11575Y105052D01*
X11565Y105129D01*
X11559Y105206D01*
X11557Y105283D01*
X11557Y109093D01*
X11559Y109170D01*
X11565Y109247D01*
X11575Y109324D01*
X11588Y109400D01*
X11606Y109475D01*
X11627Y109549D01*
X11652Y109622D01*
X11681Y109694D01*
X11713Y109764D01*
X11748Y109833D01*
X11788Y109899D01*
X11830Y109964D01*
X11876Y110026D01*
X11925Y110086D01*
X11976Y110143D01*
X12031Y110198D01*
X12088Y110249D01*
X12148Y110298D01*
X12210Y110344D01*
X12275Y110386D01*
X12341Y110426D01*
X12410Y110461D01*
X12480Y110493D01*
X12552Y110522D01*
X12625Y110547D01*
X12699Y110568D01*
X12774Y110586D01*
X12850Y110599D01*
X12927Y110609D01*
X13004Y110615D01*
X13081Y110617D01*
X14605Y110617D01*
X17294Y109093D02*
X19199Y110617D01*
X19199Y103759D01*
X17294Y103759D02*
X21104Y103759D01*
X24152Y107569D02*
X26438Y107569D01*
X26515Y107567D01*
X26592Y107561D01*
X26669Y107551D01*
X26745Y107538D01*
X26820Y107520D01*
X26894Y107499D01*
X26967Y107474D01*
X27039Y107445D01*
X27109Y107413D01*
X27178Y107378D01*
X27244Y107338D01*
X27309Y107296D01*
X27371Y107250D01*
X27431Y107201D01*
X27488Y107150D01*
X27543Y107095D01*
X27594Y107038D01*
X27643Y106978D01*
X27689Y106916D01*
X27731Y106851D01*
X27771Y106785D01*
X27806Y106716D01*
X27838Y106646D01*
X27867Y106574D01*
X27892Y106501D01*
X27913Y106427D01*
X27931Y106352D01*
X27944Y106276D01*
X27954Y106199D01*
X27960Y106122D01*
X27962Y106045D01*
X27962Y105664D01*
X27960Y105579D01*
X27954Y105493D01*
X27945Y105408D01*
X27931Y105324D01*
X27914Y105240D01*
X27893Y105157D01*
X27869Y105075D01*
X27841Y104995D01*
X27809Y104915D01*
X27773Y104837D01*
X27735Y104761D01*
X27692Y104687D01*
X27647Y104615D01*
X27598Y104544D01*
X27546Y104476D01*
X27492Y104411D01*
X27434Y104348D01*
X27373Y104287D01*
X27310Y104229D01*
X27245Y104175D01*
X27177Y104123D01*
X27106Y104074D01*
X27034Y104029D01*
X26960Y103986D01*
X26884Y103948D01*
X26806Y103912D01*
X26726Y103880D01*
X26646Y103852D01*
X26564Y103828D01*
X26481Y103807D01*
X26397Y103790D01*
X26313Y103776D01*
X26228Y103767D01*
X26142Y103761D01*
X26057Y103759D01*
X25972Y103761D01*
X25886Y103767D01*
X25801Y103776D01*
X25717Y103790D01*
X25633Y103807D01*
X25550Y103828D01*
X25468Y103852D01*
X25388Y103880D01*
X25308Y103912D01*
X25230Y103948D01*
X25154Y103986D01*
X25080Y104029D01*
X25008Y104074D01*
X24937Y104123D01*
X24869Y104175D01*
X24804Y104229D01*
X24741Y104287D01*
X24680Y104348D01*
X24622Y104411D01*
X24568Y104476D01*
X24516Y104544D01*
X24467Y104615D01*
X24422Y104687D01*
X24379Y104761D01*
X24341Y104837D01*
X24305Y104915D01*
X24273Y104995D01*
X24245Y105075D01*
X24221Y105157D01*
X24200Y105240D01*
X24183Y105324D01*
X24169Y105408D01*
X24160Y105493D01*
X24154Y105579D01*
X24152Y105664D01*
X24152Y107569D01*
X24154Y107678D01*
X24160Y107786D01*
X24169Y107895D01*
X24183Y108003D01*
X24200Y108110D01*
X24222Y108217D01*
X24247Y108323D01*
X24275Y108428D01*
X24308Y108532D01*
X24344Y108634D01*
X24384Y108735D01*
X24427Y108835D01*
X24474Y108933D01*
X24525Y109030D01*
X24579Y109124D01*
X24636Y109217D01*
X24696Y109307D01*
X24760Y109396D01*
X24827Y109482D01*
X24896Y109565D01*
X24969Y109646D01*
X25045Y109724D01*
X25123Y109800D01*
X25204Y109873D01*
X25287Y109942D01*
X25373Y110009D01*
X25462Y110073D01*
X25552Y110133D01*
X25645Y110190D01*
X25739Y110244D01*
X25836Y110295D01*
X25934Y110342D01*
X26034Y110385D01*
X26135Y110425D01*
X26237Y110461D01*
X26341Y110494D01*
X26446Y110522D01*
X26552Y110547D01*
X26659Y110569D01*
X26766Y110586D01*
X26874Y110600D01*
X26983Y110609D01*
X27091Y110615D01*
X27200Y110617D01*
X116459Y16869D02*
X116459Y15345D01*
X116457Y15268D01*
X116451Y15191D01*
X116441Y15114D01*
X116428Y15038D01*
X116410Y14963D01*
X116389Y14889D01*
X116364Y14816D01*
X116335Y14744D01*
X116303Y14674D01*
X116268Y14605D01*
X116228Y14539D01*
X116186Y14474D01*
X116140Y14412D01*
X116091Y14352D01*
X116040Y14295D01*
X115985Y14240D01*
X115928Y14189D01*
X115868Y14140D01*
X115806Y14094D01*
X115741Y14052D01*
X115675Y14012D01*
X115606Y13977D01*
X115536Y13945D01*
X115464Y13916D01*
X115391Y13891D01*
X115317Y13870D01*
X115242Y13852D01*
X115166Y13839D01*
X115089Y13829D01*
X115012Y13823D01*
X114935Y13821D01*
X111125Y13821D01*
X111048Y13823D01*
X110971Y13829D01*
X110894Y13839D01*
X110818Y13852D01*
X110743Y13870D01*
X110669Y13891D01*
X110596Y13916D01*
X110524Y13945D01*
X110454Y13977D01*
X110385Y14012D01*
X110319Y14052D01*
X110254Y14094D01*
X110192Y14140D01*
X110132Y14189D01*
X110075Y14240D01*
X110020Y14295D01*
X109969Y14352D01*
X109920Y14412D01*
X109874Y14474D01*
X109832Y14539D01*
X109792Y14605D01*
X109757Y14674D01*
X109725Y14744D01*
X109696Y14816D01*
X109671Y14889D01*
X109650Y14963D01*
X109632Y15038D01*
X109619Y15114D01*
X109609Y15191D01*
X109603Y15268D01*
X109601Y15345D01*
X109601Y16869D01*
X111125Y19558D02*
X109601Y21463D01*
X116459Y21463D01*
X116459Y19558D02*
X116459Y23368D01*
X110363Y26416D02*
X109601Y26416D01*
X109601Y30226D01*
X116459Y28321D01*
X149225Y34798D02*
X150749Y34798D01*
X149225Y34798D02*
X149148Y34800D01*
X149071Y34806D01*
X148994Y34816D01*
X148918Y34829D01*
X148843Y34847D01*
X148769Y34868D01*
X148696Y34893D01*
X148624Y34922D01*
X148554Y34954D01*
X148485Y34989D01*
X148419Y35029D01*
X148354Y35071D01*
X148292Y35117D01*
X148232Y35166D01*
X148175Y35217D01*
X148120Y35272D01*
X148069Y35329D01*
X148020Y35389D01*
X147974Y35451D01*
X147932Y35516D01*
X147892Y35582D01*
X147857Y35651D01*
X147825Y35721D01*
X147796Y35793D01*
X147771Y35866D01*
X147750Y35940D01*
X147732Y36015D01*
X147719Y36091D01*
X147709Y36168D01*
X147703Y36245D01*
X147701Y36322D01*
X147701Y40132D01*
X147703Y40209D01*
X147709Y40286D01*
X147719Y40363D01*
X147732Y40439D01*
X147750Y40514D01*
X147771Y40588D01*
X147796Y40661D01*
X147825Y40733D01*
X147857Y40803D01*
X147892Y40872D01*
X147932Y40938D01*
X147974Y41003D01*
X148020Y41065D01*
X148069Y41125D01*
X148120Y41182D01*
X148175Y41237D01*
X148232Y41288D01*
X148292Y41337D01*
X148354Y41383D01*
X148419Y41425D01*
X148485Y41465D01*
X148554Y41500D01*
X148624Y41532D01*
X148696Y41561D01*
X148769Y41586D01*
X148843Y41607D01*
X148918Y41625D01*
X148994Y41638D01*
X149071Y41648D01*
X149148Y41654D01*
X149225Y41656D01*
X150749Y41656D01*
X153438Y40132D02*
X155343Y41656D01*
X155343Y34798D01*
X153438Y34798D02*
X157248Y34798D01*
X160296Y36703D02*
X160298Y36788D01*
X160304Y36874D01*
X160313Y36959D01*
X160327Y37043D01*
X160344Y37127D01*
X160365Y37210D01*
X160389Y37292D01*
X160417Y37372D01*
X160449Y37452D01*
X160485Y37530D01*
X160523Y37606D01*
X160566Y37680D01*
X160611Y37752D01*
X160660Y37823D01*
X160712Y37891D01*
X160766Y37956D01*
X160824Y38019D01*
X160885Y38080D01*
X160948Y38138D01*
X161013Y38192D01*
X161081Y38244D01*
X161152Y38293D01*
X161224Y38338D01*
X161298Y38381D01*
X161374Y38419D01*
X161452Y38455D01*
X161532Y38487D01*
X161612Y38515D01*
X161694Y38539D01*
X161777Y38560D01*
X161861Y38577D01*
X161945Y38591D01*
X162030Y38600D01*
X162116Y38606D01*
X162201Y38608D01*
X162286Y38606D01*
X162372Y38600D01*
X162457Y38591D01*
X162541Y38577D01*
X162625Y38560D01*
X162708Y38539D01*
X162790Y38515D01*
X162870Y38487D01*
X162950Y38455D01*
X163028Y38419D01*
X163104Y38381D01*
X163178Y38338D01*
X163250Y38293D01*
X163321Y38244D01*
X163389Y38192D01*
X163454Y38138D01*
X163517Y38080D01*
X163578Y38019D01*
X163636Y37956D01*
X163690Y37891D01*
X163742Y37823D01*
X163791Y37752D01*
X163836Y37680D01*
X163879Y37606D01*
X163917Y37530D01*
X163953Y37452D01*
X163985Y37372D01*
X164013Y37292D01*
X164037Y37210D01*
X164058Y37127D01*
X164075Y37043D01*
X164089Y36959D01*
X164098Y36874D01*
X164104Y36788D01*
X164106Y36703D01*
X164104Y36618D01*
X164098Y36532D01*
X164089Y36447D01*
X164075Y36363D01*
X164058Y36279D01*
X164037Y36196D01*
X164013Y36114D01*
X163985Y36034D01*
X163953Y35954D01*
X163917Y35876D01*
X163879Y35800D01*
X163836Y35726D01*
X163791Y35654D01*
X163742Y35583D01*
X163690Y35515D01*
X163636Y35450D01*
X163578Y35387D01*
X163517Y35326D01*
X163454Y35268D01*
X163389Y35214D01*
X163321Y35162D01*
X163250Y35113D01*
X163178Y35068D01*
X163104Y35025D01*
X163028Y34987D01*
X162950Y34951D01*
X162870Y34919D01*
X162790Y34891D01*
X162708Y34867D01*
X162625Y34846D01*
X162541Y34829D01*
X162457Y34815D01*
X162372Y34806D01*
X162286Y34800D01*
X162201Y34798D01*
X162116Y34800D01*
X162030Y34806D01*
X161945Y34815D01*
X161861Y34829D01*
X161777Y34846D01*
X161694Y34867D01*
X161612Y34891D01*
X161532Y34919D01*
X161452Y34951D01*
X161374Y34987D01*
X161298Y35025D01*
X161224Y35068D01*
X161152Y35113D01*
X161081Y35162D01*
X161013Y35214D01*
X160948Y35268D01*
X160885Y35326D01*
X160824Y35387D01*
X160766Y35450D01*
X160712Y35515D01*
X160660Y35583D01*
X160611Y35654D01*
X160566Y35726D01*
X160523Y35800D01*
X160485Y35876D01*
X160449Y35954D01*
X160417Y36034D01*
X160389Y36114D01*
X160365Y36196D01*
X160344Y36279D01*
X160327Y36363D01*
X160313Y36447D01*
X160304Y36532D01*
X160298Y36618D01*
X160296Y36703D01*
X160677Y40132D02*
X160679Y40209D01*
X160685Y40286D01*
X160695Y40363D01*
X160708Y40439D01*
X160726Y40514D01*
X160747Y40588D01*
X160772Y40661D01*
X160801Y40733D01*
X160833Y40803D01*
X160868Y40872D01*
X160908Y40938D01*
X160950Y41003D01*
X160996Y41065D01*
X161045Y41125D01*
X161096Y41182D01*
X161151Y41237D01*
X161208Y41288D01*
X161268Y41337D01*
X161330Y41383D01*
X161395Y41425D01*
X161461Y41465D01*
X161530Y41500D01*
X161600Y41532D01*
X161672Y41561D01*
X161745Y41586D01*
X161819Y41607D01*
X161894Y41625D01*
X161970Y41638D01*
X162047Y41648D01*
X162124Y41654D01*
X162201Y41656D01*
X162278Y41654D01*
X162355Y41648D01*
X162432Y41638D01*
X162508Y41625D01*
X162583Y41607D01*
X162657Y41586D01*
X162730Y41561D01*
X162802Y41532D01*
X162872Y41500D01*
X162941Y41465D01*
X163007Y41425D01*
X163072Y41383D01*
X163134Y41337D01*
X163194Y41288D01*
X163251Y41237D01*
X163306Y41182D01*
X163357Y41125D01*
X163406Y41065D01*
X163452Y41003D01*
X163494Y40938D01*
X163534Y40872D01*
X163569Y40803D01*
X163601Y40733D01*
X163630Y40661D01*
X163655Y40588D01*
X163676Y40514D01*
X163694Y40439D01*
X163707Y40363D01*
X163717Y40286D01*
X163723Y40209D01*
X163725Y40132D01*
X163723Y40055D01*
X163717Y39978D01*
X163707Y39901D01*
X163694Y39825D01*
X163676Y39750D01*
X163655Y39676D01*
X163630Y39603D01*
X163601Y39531D01*
X163569Y39461D01*
X163534Y39392D01*
X163494Y39326D01*
X163452Y39261D01*
X163406Y39199D01*
X163357Y39139D01*
X163306Y39082D01*
X163251Y39027D01*
X163194Y38976D01*
X163134Y38927D01*
X163072Y38881D01*
X163007Y38839D01*
X162941Y38799D01*
X162872Y38764D01*
X162802Y38732D01*
X162730Y38703D01*
X162657Y38678D01*
X162583Y38657D01*
X162508Y38639D01*
X162432Y38626D01*
X162355Y38616D01*
X162278Y38610D01*
X162201Y38608D01*
X162124Y38610D01*
X162047Y38616D01*
X161970Y38626D01*
X161894Y38639D01*
X161819Y38657D01*
X161745Y38678D01*
X161672Y38703D01*
X161600Y38732D01*
X161530Y38764D01*
X161461Y38799D01*
X161395Y38839D01*
X161330Y38881D01*
X161268Y38927D01*
X161208Y38976D01*
X161151Y39027D01*
X161096Y39082D01*
X161045Y39139D01*
X160996Y39199D01*
X160950Y39261D01*
X160908Y39326D01*
X160868Y39392D01*
X160833Y39461D01*
X160801Y39531D01*
X160772Y39603D01*
X160747Y39676D01*
X160726Y39750D01*
X160708Y39825D01*
X160695Y39901D01*
X160685Y39978D01*
X160679Y40055D01*
X160677Y40132D01*
D12*
X60761Y135471D02*
X60761Y140373D01*
X51761Y140373D02*
X51761Y135471D01*
D11*
X51562Y154305D02*
X58420Y154305D01*
X58420Y157353D01*
X53086Y160005D02*
X51562Y161910D01*
X58420Y161910D01*
X58420Y160005D02*
X58420Y163815D01*
D12*
X48905Y78090D02*
X43805Y78090D01*
X43805Y92090D02*
X48905Y92090D01*
D11*
X18542Y89280D02*
X18542Y82042D01*
X21759Y82042D01*
X28548Y87471D02*
X28546Y87555D01*
X28540Y87638D01*
X28531Y87721D01*
X28517Y87804D01*
X28500Y87885D01*
X28479Y87966D01*
X28454Y88046D01*
X28426Y88125D01*
X28394Y88202D01*
X28358Y88278D01*
X28319Y88352D01*
X28277Y88424D01*
X28231Y88494D01*
X28182Y88562D01*
X28130Y88627D01*
X28076Y88690D01*
X28018Y88751D01*
X27957Y88809D01*
X27894Y88863D01*
X27829Y88915D01*
X27761Y88964D01*
X27691Y89010D01*
X27619Y89052D01*
X27545Y89091D01*
X27469Y89127D01*
X27392Y89159D01*
X27313Y89187D01*
X27233Y89212D01*
X27152Y89233D01*
X27071Y89250D01*
X26988Y89264D01*
X26905Y89273D01*
X26822Y89279D01*
X26738Y89281D01*
X26738Y89280D02*
X26644Y89278D01*
X26550Y89272D01*
X26456Y89263D01*
X26362Y89249D01*
X26270Y89232D01*
X26178Y89211D01*
X26087Y89187D01*
X25997Y89159D01*
X25908Y89127D01*
X25820Y89091D01*
X25735Y89052D01*
X25650Y89010D01*
X25568Y88964D01*
X25487Y88915D01*
X25409Y88863D01*
X25333Y88807D01*
X25259Y88749D01*
X25187Y88687D01*
X25118Y88623D01*
X25052Y88556D01*
X24988Y88486D01*
X24928Y88414D01*
X24870Y88339D01*
X24815Y88262D01*
X24764Y88183D01*
X24716Y88102D01*
X24671Y88019D01*
X24629Y87935D01*
X24591Y87848D01*
X24557Y87760D01*
X24526Y87671D01*
X27945Y86063D02*
X28007Y86125D01*
X28066Y86189D01*
X28122Y86257D01*
X28175Y86326D01*
X28225Y86398D01*
X28272Y86472D01*
X28315Y86548D01*
X28355Y86626D01*
X28391Y86705D01*
X28423Y86786D01*
X28452Y86869D01*
X28478Y86953D01*
X28499Y87037D01*
X28517Y87123D01*
X28530Y87209D01*
X28540Y87296D01*
X28546Y87384D01*
X28548Y87471D01*
X27944Y86063D02*
X24526Y82042D01*
X28548Y82042D01*
D13*
X165037Y145662D02*
X173037Y145662D01*
X173037Y160662D02*
X165037Y160662D01*
D11*
X162647Y156591D02*
X164933Y153353D01*
X167219Y156591D01*
X164933Y153353D02*
X164933Y149733D01*
X171982Y156592D02*
X172064Y156590D01*
X172145Y156584D01*
X172226Y156575D01*
X172307Y156561D01*
X172386Y156544D01*
X172465Y156523D01*
X172543Y156498D01*
X172619Y156469D01*
X172694Y156437D01*
X172768Y156401D01*
X172840Y156362D01*
X172909Y156320D01*
X172977Y156274D01*
X173042Y156225D01*
X173105Y156173D01*
X173165Y156118D01*
X173223Y156060D01*
X173278Y156000D01*
X173330Y155937D01*
X173379Y155872D01*
X173425Y155804D01*
X173467Y155735D01*
X173506Y155663D01*
X173542Y155589D01*
X173574Y155514D01*
X173603Y155438D01*
X173628Y155360D01*
X173649Y155281D01*
X173666Y155202D01*
X173680Y155121D01*
X173689Y155040D01*
X173695Y154959D01*
X173697Y154877D01*
X171982Y156591D02*
X171890Y156589D01*
X171798Y156583D01*
X171706Y156574D01*
X171614Y156560D01*
X171524Y156543D01*
X171434Y156522D01*
X171345Y156497D01*
X171257Y156468D01*
X171170Y156436D01*
X171085Y156400D01*
X171002Y156361D01*
X170920Y156318D01*
X170840Y156272D01*
X170762Y156222D01*
X170686Y156170D01*
X170613Y156114D01*
X170542Y156055D01*
X170473Y155993D01*
X170407Y155928D01*
X170344Y155861D01*
X170284Y155791D01*
X170226Y155719D01*
X170172Y155644D01*
X170121Y155567D01*
X170073Y155488D01*
X170029Y155407D01*
X169988Y155324D01*
X169950Y155240D01*
X169916Y155154D01*
X169886Y155067D01*
X173125Y153543D02*
X173184Y153602D01*
X173240Y153663D01*
X173293Y153726D01*
X173344Y153792D01*
X173391Y153860D01*
X173435Y153930D01*
X173476Y154002D01*
X173514Y154076D01*
X173548Y154151D01*
X173579Y154228D01*
X173606Y154306D01*
X173630Y154386D01*
X173651Y154466D01*
X173667Y154547D01*
X173680Y154629D01*
X173690Y154711D01*
X173695Y154794D01*
X173697Y154877D01*
X173125Y153543D02*
X169886Y149733D01*
X173696Y149733D01*
D14*
X138461Y23243D02*
X138523Y23241D01*
X138584Y23235D01*
X138645Y23226D01*
X138705Y23213D01*
X138764Y23196D01*
X138822Y23175D01*
X138879Y23151D01*
X138934Y23124D01*
X138987Y23093D01*
X139039Y23059D01*
X139088Y23022D01*
X139135Y22982D01*
X139179Y22939D01*
X139220Y22894D01*
X139259Y22846D01*
X139295Y22795D01*
X139327Y22743D01*
X139356Y22689D01*
X139382Y22633D01*
X139404Y22575D01*
X139423Y22517D01*
X139438Y22457D01*
X139449Y22396D01*
X139457Y22335D01*
X139461Y22274D01*
X139461Y22212D01*
X139457Y22151D01*
X139449Y22090D01*
X139438Y22029D01*
X139423Y21969D01*
X139404Y21911D01*
X139382Y21853D01*
X139356Y21797D01*
X139327Y21743D01*
X139295Y21691D01*
X139259Y21640D01*
X139220Y21592D01*
X139179Y21547D01*
X139135Y21504D01*
X139088Y21464D01*
X139039Y21427D01*
X138987Y21393D01*
X138934Y21362D01*
X138879Y21335D01*
X138822Y21311D01*
X138764Y21290D01*
X138705Y21273D01*
X138645Y21260D01*
X138584Y21251D01*
X138523Y21245D01*
X138461Y21243D01*
X138399Y21245D01*
X138338Y21251D01*
X138277Y21260D01*
X138217Y21273D01*
X138158Y21290D01*
X138100Y21311D01*
X138043Y21335D01*
X137988Y21362D01*
X137935Y21393D01*
X137883Y21427D01*
X137834Y21464D01*
X137787Y21504D01*
X137743Y21547D01*
X137702Y21592D01*
X137663Y21640D01*
X137627Y21691D01*
X137595Y21743D01*
X137566Y21797D01*
X137540Y21853D01*
X137518Y21911D01*
X137499Y21969D01*
X137484Y22029D01*
X137473Y22090D01*
X137465Y22151D01*
X137461Y22212D01*
X137461Y22274D01*
X137465Y22335D01*
X137473Y22396D01*
X137484Y22457D01*
X137499Y22517D01*
X137518Y22575D01*
X137540Y22633D01*
X137566Y22689D01*
X137595Y22743D01*
X137627Y22795D01*
X137663Y22846D01*
X137702Y22894D01*
X137743Y22939D01*
X137787Y22982D01*
X137834Y23022D01*
X137883Y23059D01*
X137935Y23093D01*
X137988Y23124D01*
X138043Y23151D01*
X138100Y23175D01*
X138158Y23196D01*
X138217Y23213D01*
X138277Y23226D01*
X138338Y23235D01*
X138399Y23241D01*
X138461Y23243D01*
D11*
X127000Y18479D02*
X124714Y21717D01*
X127000Y18479D02*
X129286Y21717D01*
X127000Y18479D02*
X127000Y14859D01*
X131953Y20193D02*
X133858Y21717D01*
X133858Y14859D01*
X131953Y14859D02*
X135763Y14859D01*
D15*
X168173Y95200D02*
X168173Y102312D01*
X168173Y95200D02*
X171334Y95200D01*
X173876Y95200D02*
X175851Y95200D01*
X175938Y95202D01*
X176026Y95208D01*
X176113Y95217D01*
X176199Y95231D01*
X176285Y95248D01*
X176369Y95269D01*
X176453Y95294D01*
X176536Y95323D01*
X176617Y95355D01*
X176697Y95390D01*
X176775Y95429D01*
X176852Y95472D01*
X176926Y95518D01*
X176998Y95567D01*
X177068Y95619D01*
X177136Y95675D01*
X177201Y95733D01*
X177264Y95794D01*
X177323Y95858D01*
X177380Y95925D01*
X177434Y95993D01*
X177485Y96065D01*
X177532Y96138D01*
X177577Y96213D01*
X177618Y96291D01*
X177655Y96370D01*
X177689Y96450D01*
X177719Y96532D01*
X177746Y96615D01*
X177769Y96700D01*
X177788Y96785D01*
X177803Y96871D01*
X177815Y96958D01*
X177823Y97045D01*
X177827Y97132D01*
X177827Y97220D01*
X177823Y97307D01*
X177815Y97394D01*
X177803Y97481D01*
X177788Y97567D01*
X177769Y97652D01*
X177746Y97737D01*
X177719Y97820D01*
X177689Y97902D01*
X177655Y97982D01*
X177618Y98061D01*
X177577Y98139D01*
X177532Y98214D01*
X177485Y98287D01*
X177434Y98359D01*
X177380Y98427D01*
X177323Y98494D01*
X177264Y98558D01*
X177201Y98619D01*
X177136Y98677D01*
X177068Y98733D01*
X176998Y98785D01*
X176926Y98834D01*
X176852Y98880D01*
X176775Y98923D01*
X176697Y98962D01*
X176617Y98997D01*
X176536Y99029D01*
X176453Y99058D01*
X176369Y99083D01*
X176285Y99104D01*
X176199Y99121D01*
X176113Y99135D01*
X176026Y99144D01*
X175938Y99150D01*
X175851Y99152D01*
X176246Y102312D02*
X173876Y102312D01*
X176246Y102312D02*
X176325Y102310D01*
X176403Y102304D01*
X176481Y102294D01*
X176559Y102281D01*
X176636Y102263D01*
X176712Y102242D01*
X176786Y102217D01*
X176860Y102188D01*
X176932Y102156D01*
X177002Y102120D01*
X177070Y102080D01*
X177136Y102037D01*
X177200Y101991D01*
X177262Y101942D01*
X177321Y101890D01*
X177377Y101835D01*
X177431Y101777D01*
X177481Y101717D01*
X177529Y101654D01*
X177573Y101589D01*
X177614Y101522D01*
X177652Y101453D01*
X177686Y101382D01*
X177717Y101309D01*
X177744Y101235D01*
X177767Y101160D01*
X177786Y101084D01*
X177802Y101006D01*
X177814Y100928D01*
X177822Y100850D01*
X177826Y100771D01*
X177826Y100693D01*
X177822Y100614D01*
X177814Y100536D01*
X177802Y100458D01*
X177786Y100380D01*
X177767Y100304D01*
X177744Y100229D01*
X177717Y100155D01*
X177686Y100082D01*
X177652Y100011D01*
X177614Y99942D01*
X177573Y99875D01*
X177529Y99810D01*
X177481Y99747D01*
X177431Y99687D01*
X177377Y99629D01*
X177321Y99574D01*
X177262Y99522D01*
X177200Y99473D01*
X177136Y99427D01*
X177070Y99384D01*
X177002Y99344D01*
X176932Y99308D01*
X176860Y99276D01*
X176786Y99247D01*
X176712Y99222D01*
X176636Y99201D01*
X176559Y99183D01*
X176481Y99170D01*
X176403Y99160D01*
X176325Y99154D01*
X176246Y99152D01*
X176246Y99151D02*
X174666Y99151D01*
X171334Y104344D02*
X169753Y104344D01*
X169675Y104346D01*
X169598Y104352D01*
X169521Y104361D01*
X169445Y104374D01*
X169369Y104391D01*
X169294Y104412D01*
X169221Y104436D01*
X169148Y104464D01*
X169077Y104496D01*
X169008Y104531D01*
X168941Y104569D01*
X168875Y104610D01*
X168812Y104655D01*
X168751Y104703D01*
X168692Y104753D01*
X168636Y104807D01*
X168582Y104863D01*
X168532Y104922D01*
X168484Y104983D01*
X168439Y105046D01*
X168398Y105112D01*
X168360Y105179D01*
X168325Y105248D01*
X168293Y105319D01*
X168265Y105392D01*
X168241Y105465D01*
X168220Y105540D01*
X168203Y105616D01*
X168190Y105692D01*
X168181Y105769D01*
X168175Y105846D01*
X168173Y105924D01*
X168173Y109876D01*
X168175Y109954D01*
X168181Y110031D01*
X168190Y110108D01*
X168203Y110184D01*
X168220Y110260D01*
X168241Y110335D01*
X168265Y110408D01*
X168293Y110481D01*
X168325Y110552D01*
X168360Y110621D01*
X168398Y110688D01*
X168439Y110754D01*
X168484Y110817D01*
X168532Y110878D01*
X168582Y110937D01*
X168636Y110993D01*
X168692Y111047D01*
X168751Y111097D01*
X168812Y111145D01*
X168875Y111190D01*
X168941Y111231D01*
X169008Y111269D01*
X169077Y111304D01*
X169148Y111336D01*
X169221Y111364D01*
X169294Y111388D01*
X169369Y111409D01*
X169445Y111426D01*
X169521Y111439D01*
X169598Y111448D01*
X169675Y111454D01*
X169753Y111456D01*
X171334Y111456D01*
X173906Y104344D02*
X175882Y104344D01*
X175969Y104346D01*
X176057Y104352D01*
X176144Y104361D01*
X176230Y104375D01*
X176316Y104392D01*
X176400Y104413D01*
X176484Y104438D01*
X176567Y104467D01*
X176648Y104499D01*
X176728Y104534D01*
X176806Y104573D01*
X176883Y104616D01*
X176957Y104662D01*
X177029Y104711D01*
X177099Y104763D01*
X177167Y104819D01*
X177232Y104877D01*
X177295Y104938D01*
X177354Y105002D01*
X177411Y105069D01*
X177465Y105137D01*
X177516Y105209D01*
X177563Y105282D01*
X177608Y105357D01*
X177649Y105435D01*
X177686Y105514D01*
X177720Y105594D01*
X177750Y105676D01*
X177777Y105759D01*
X177800Y105844D01*
X177819Y105929D01*
X177834Y106015D01*
X177846Y106102D01*
X177854Y106189D01*
X177858Y106276D01*
X177858Y106364D01*
X177854Y106451D01*
X177846Y106538D01*
X177834Y106625D01*
X177819Y106711D01*
X177800Y106796D01*
X177777Y106881D01*
X177750Y106964D01*
X177720Y107046D01*
X177686Y107126D01*
X177649Y107205D01*
X177608Y107283D01*
X177563Y107358D01*
X177516Y107431D01*
X177465Y107503D01*
X177411Y107571D01*
X177354Y107638D01*
X177295Y107702D01*
X177232Y107763D01*
X177167Y107821D01*
X177099Y107877D01*
X177029Y107929D01*
X176957Y107978D01*
X176883Y108024D01*
X176806Y108067D01*
X176728Y108106D01*
X176648Y108141D01*
X176567Y108173D01*
X176484Y108202D01*
X176400Y108227D01*
X176316Y108248D01*
X176230Y108265D01*
X176144Y108279D01*
X176057Y108288D01*
X175969Y108294D01*
X175882Y108296D01*
X176277Y111456D02*
X173906Y111456D01*
X176277Y111456D02*
X176356Y111454D01*
X176434Y111448D01*
X176512Y111438D01*
X176590Y111425D01*
X176667Y111407D01*
X176743Y111386D01*
X176817Y111361D01*
X176891Y111332D01*
X176963Y111300D01*
X177033Y111264D01*
X177101Y111224D01*
X177167Y111181D01*
X177231Y111135D01*
X177293Y111086D01*
X177352Y111034D01*
X177408Y110979D01*
X177462Y110921D01*
X177512Y110861D01*
X177560Y110798D01*
X177604Y110733D01*
X177645Y110666D01*
X177683Y110597D01*
X177717Y110526D01*
X177748Y110453D01*
X177775Y110379D01*
X177798Y110304D01*
X177817Y110228D01*
X177833Y110150D01*
X177845Y110072D01*
X177853Y109994D01*
X177857Y109915D01*
X177857Y109837D01*
X177853Y109758D01*
X177845Y109680D01*
X177833Y109602D01*
X177817Y109524D01*
X177798Y109448D01*
X177775Y109373D01*
X177748Y109299D01*
X177717Y109226D01*
X177683Y109155D01*
X177645Y109086D01*
X177604Y109019D01*
X177560Y108954D01*
X177512Y108891D01*
X177462Y108831D01*
X177408Y108773D01*
X177352Y108718D01*
X177293Y108666D01*
X177231Y108617D01*
X177167Y108571D01*
X177101Y108528D01*
X177033Y108488D01*
X176963Y108452D01*
X176891Y108420D01*
X176817Y108391D01*
X176743Y108366D01*
X176667Y108345D01*
X176590Y108327D01*
X176512Y108314D01*
X176434Y108304D01*
X176356Y108298D01*
X176277Y108296D01*
X176277Y108295D02*
X174696Y108295D01*
X190729Y45978D02*
X190729Y44397D01*
X190727Y44319D01*
X190721Y44242D01*
X190712Y44165D01*
X190699Y44089D01*
X190682Y44013D01*
X190661Y43938D01*
X190637Y43865D01*
X190609Y43792D01*
X190577Y43721D01*
X190542Y43652D01*
X190504Y43585D01*
X190463Y43519D01*
X190418Y43456D01*
X190370Y43395D01*
X190320Y43336D01*
X190266Y43280D01*
X190210Y43226D01*
X190151Y43176D01*
X190090Y43128D01*
X190027Y43083D01*
X189961Y43042D01*
X189894Y43004D01*
X189825Y42969D01*
X189754Y42937D01*
X189681Y42909D01*
X189608Y42885D01*
X189533Y42864D01*
X189457Y42847D01*
X189381Y42834D01*
X189304Y42825D01*
X189227Y42819D01*
X189149Y42817D01*
X185197Y42817D01*
X185197Y42816D02*
X185119Y42818D01*
X185042Y42824D01*
X184965Y42833D01*
X184889Y42846D01*
X184813Y42863D01*
X184738Y42884D01*
X184664Y42908D01*
X184592Y42936D01*
X184521Y42968D01*
X184452Y43003D01*
X184384Y43041D01*
X184319Y43082D01*
X184255Y43127D01*
X184194Y43175D01*
X184135Y43226D01*
X184079Y43279D01*
X184026Y43335D01*
X183975Y43394D01*
X183927Y43455D01*
X183882Y43519D01*
X183841Y43584D01*
X183803Y43652D01*
X183768Y43721D01*
X183736Y43792D01*
X183708Y43864D01*
X183684Y43938D01*
X183663Y44013D01*
X183646Y44089D01*
X183633Y44165D01*
X183624Y44242D01*
X183618Y44319D01*
X183616Y44397D01*
X183617Y44397D02*
X183617Y45978D01*
X183617Y50130D02*
X189149Y48550D01*
X189149Y52501D01*
X187568Y51316D02*
X190729Y51316D01*
X171969Y113234D02*
X170388Y113234D01*
X170310Y113236D01*
X170233Y113242D01*
X170156Y113251D01*
X170080Y113264D01*
X170004Y113281D01*
X169929Y113302D01*
X169856Y113326D01*
X169783Y113354D01*
X169712Y113386D01*
X169643Y113421D01*
X169576Y113459D01*
X169510Y113500D01*
X169447Y113545D01*
X169386Y113593D01*
X169327Y113643D01*
X169271Y113697D01*
X169217Y113753D01*
X169167Y113812D01*
X169119Y113873D01*
X169074Y113936D01*
X169033Y114002D01*
X168995Y114069D01*
X168960Y114138D01*
X168928Y114209D01*
X168900Y114282D01*
X168876Y114355D01*
X168855Y114430D01*
X168838Y114506D01*
X168825Y114582D01*
X168816Y114659D01*
X168810Y114736D01*
X168808Y114814D01*
X168808Y118766D01*
X168810Y118844D01*
X168816Y118921D01*
X168825Y118998D01*
X168838Y119074D01*
X168855Y119150D01*
X168876Y119225D01*
X168900Y119298D01*
X168928Y119371D01*
X168960Y119442D01*
X168995Y119511D01*
X169033Y119578D01*
X169074Y119644D01*
X169119Y119707D01*
X169167Y119768D01*
X169217Y119827D01*
X169271Y119883D01*
X169327Y119937D01*
X169386Y119987D01*
X169447Y120035D01*
X169510Y120080D01*
X169576Y120121D01*
X169643Y120159D01*
X169712Y120194D01*
X169783Y120226D01*
X169856Y120254D01*
X169929Y120278D01*
X170004Y120299D01*
X170080Y120316D01*
X170156Y120329D01*
X170233Y120338D01*
X170310Y120344D01*
X170388Y120346D01*
X171969Y120346D01*
X176122Y116395D02*
X178492Y116395D01*
X176122Y116395D02*
X176044Y116397D01*
X175967Y116403D01*
X175890Y116412D01*
X175814Y116425D01*
X175738Y116442D01*
X175663Y116463D01*
X175590Y116487D01*
X175517Y116515D01*
X175446Y116547D01*
X175377Y116582D01*
X175310Y116620D01*
X175244Y116661D01*
X175181Y116706D01*
X175120Y116754D01*
X175061Y116804D01*
X175005Y116858D01*
X174951Y116914D01*
X174901Y116973D01*
X174853Y117034D01*
X174808Y117097D01*
X174767Y117163D01*
X174729Y117230D01*
X174694Y117299D01*
X174662Y117370D01*
X174634Y117443D01*
X174610Y117516D01*
X174589Y117591D01*
X174572Y117667D01*
X174559Y117743D01*
X174550Y117820D01*
X174544Y117897D01*
X174542Y117975D01*
X174541Y117975D02*
X174541Y118370D01*
X174543Y118457D01*
X174549Y118545D01*
X174558Y118632D01*
X174572Y118718D01*
X174589Y118804D01*
X174610Y118888D01*
X174635Y118972D01*
X174664Y119055D01*
X174696Y119136D01*
X174731Y119216D01*
X174770Y119294D01*
X174813Y119371D01*
X174859Y119445D01*
X174908Y119517D01*
X174960Y119587D01*
X175016Y119655D01*
X175074Y119720D01*
X175135Y119783D01*
X175199Y119842D01*
X175266Y119899D01*
X175334Y119953D01*
X175406Y120004D01*
X175479Y120051D01*
X175554Y120096D01*
X175632Y120137D01*
X175711Y120174D01*
X175791Y120208D01*
X175873Y120238D01*
X175956Y120265D01*
X176041Y120288D01*
X176126Y120307D01*
X176212Y120322D01*
X176299Y120334D01*
X176386Y120342D01*
X176473Y120346D01*
X176561Y120346D01*
X176648Y120342D01*
X176735Y120334D01*
X176822Y120322D01*
X176908Y120307D01*
X176993Y120288D01*
X177078Y120265D01*
X177161Y120238D01*
X177243Y120208D01*
X177323Y120174D01*
X177402Y120137D01*
X177480Y120096D01*
X177555Y120051D01*
X177628Y120004D01*
X177700Y119953D01*
X177768Y119899D01*
X177835Y119842D01*
X177899Y119783D01*
X177960Y119720D01*
X178018Y119655D01*
X178074Y119587D01*
X178126Y119517D01*
X178175Y119445D01*
X178221Y119371D01*
X178264Y119294D01*
X178303Y119216D01*
X178338Y119136D01*
X178370Y119055D01*
X178399Y118972D01*
X178424Y118888D01*
X178445Y118804D01*
X178462Y118718D01*
X178476Y118632D01*
X178485Y118545D01*
X178491Y118457D01*
X178493Y118370D01*
X178492Y118370D02*
X178492Y116395D01*
X178490Y116285D01*
X178484Y116174D01*
X178475Y116065D01*
X178461Y115955D01*
X178444Y115846D01*
X178423Y115738D01*
X178398Y115630D01*
X178370Y115524D01*
X178337Y115418D01*
X178301Y115314D01*
X178262Y115211D01*
X178219Y115109D01*
X178172Y115009D01*
X178122Y114911D01*
X178069Y114814D01*
X178012Y114720D01*
X177952Y114627D01*
X177888Y114537D01*
X177822Y114449D01*
X177752Y114363D01*
X177680Y114280D01*
X177605Y114199D01*
X177527Y114121D01*
X177446Y114046D01*
X177363Y113974D01*
X177277Y113904D01*
X177189Y113838D01*
X177099Y113774D01*
X177006Y113714D01*
X176911Y113657D01*
X176815Y113604D01*
X176717Y113554D01*
X176617Y113507D01*
X176515Y113464D01*
X176412Y113425D01*
X176308Y113389D01*
X176202Y113356D01*
X176096Y113328D01*
X175988Y113303D01*
X175880Y113282D01*
X175771Y113265D01*
X175661Y113251D01*
X175552Y113242D01*
X175441Y113236D01*
X175331Y113234D01*
X208128Y54487D02*
X208128Y52906D01*
X208126Y52828D01*
X208120Y52751D01*
X208111Y52674D01*
X208098Y52598D01*
X208081Y52522D01*
X208060Y52447D01*
X208036Y52374D01*
X208008Y52301D01*
X207976Y52230D01*
X207941Y52161D01*
X207903Y52094D01*
X207862Y52028D01*
X207817Y51965D01*
X207769Y51904D01*
X207719Y51845D01*
X207665Y51789D01*
X207609Y51735D01*
X207550Y51685D01*
X207489Y51637D01*
X207426Y51592D01*
X207360Y51551D01*
X207293Y51513D01*
X207224Y51478D01*
X207153Y51446D01*
X207080Y51418D01*
X207007Y51394D01*
X206932Y51373D01*
X206856Y51356D01*
X206780Y51343D01*
X206703Y51334D01*
X206626Y51328D01*
X206548Y51326D01*
X202596Y51326D01*
X202596Y51325D02*
X202518Y51327D01*
X202441Y51333D01*
X202364Y51342D01*
X202288Y51355D01*
X202212Y51372D01*
X202137Y51393D01*
X202063Y51417D01*
X201991Y51445D01*
X201920Y51477D01*
X201851Y51512D01*
X201783Y51550D01*
X201718Y51591D01*
X201654Y51636D01*
X201593Y51684D01*
X201534Y51735D01*
X201478Y51788D01*
X201425Y51844D01*
X201374Y51903D01*
X201326Y51964D01*
X201281Y52028D01*
X201240Y52093D01*
X201202Y52161D01*
X201167Y52230D01*
X201135Y52301D01*
X201107Y52373D01*
X201083Y52447D01*
X201062Y52522D01*
X201045Y52598D01*
X201032Y52674D01*
X201023Y52751D01*
X201017Y52828D01*
X201015Y52906D01*
X201016Y52906D02*
X201016Y54487D01*
X202596Y57059D02*
X201016Y59034D01*
X208128Y59034D01*
X208128Y57059D02*
X208128Y61010D01*
X204572Y63917D02*
X204424Y63919D01*
X204277Y63924D01*
X204129Y63934D01*
X203982Y63947D01*
X203835Y63963D01*
X203689Y63984D01*
X203544Y64008D01*
X203398Y64036D01*
X203254Y64067D01*
X203111Y64102D01*
X202968Y64141D01*
X202827Y64183D01*
X202686Y64229D01*
X202547Y64278D01*
X202409Y64331D01*
X202272Y64387D01*
X202137Y64447D01*
X202004Y64510D01*
X202004Y64509D02*
X201933Y64535D01*
X201864Y64565D01*
X201796Y64599D01*
X201730Y64636D01*
X201666Y64676D01*
X201604Y64720D01*
X201545Y64766D01*
X201488Y64816D01*
X201434Y64869D01*
X201382Y64924D01*
X201334Y64982D01*
X201288Y65042D01*
X201246Y65105D01*
X201207Y65170D01*
X201171Y65236D01*
X201139Y65305D01*
X201111Y65374D01*
X201086Y65446D01*
X201065Y65518D01*
X201047Y65592D01*
X201034Y65666D01*
X201024Y65741D01*
X201018Y65816D01*
X201016Y65892D01*
X201018Y65968D01*
X201024Y66043D01*
X201034Y66118D01*
X201047Y66192D01*
X201065Y66266D01*
X201086Y66338D01*
X201111Y66410D01*
X201139Y66479D01*
X201171Y66548D01*
X201207Y66614D01*
X201246Y66679D01*
X201288Y66742D01*
X201334Y66802D01*
X201382Y66860D01*
X201434Y66915D01*
X201488Y66968D01*
X201545Y67018D01*
X201604Y67064D01*
X201666Y67108D01*
X201730Y67148D01*
X201796Y67185D01*
X201864Y67219D01*
X201933Y67249D01*
X202004Y67275D01*
X202137Y67338D01*
X202272Y67398D01*
X202409Y67454D01*
X202547Y67507D01*
X202686Y67556D01*
X202827Y67602D01*
X202968Y67644D01*
X203111Y67683D01*
X203254Y67718D01*
X203398Y67749D01*
X203544Y67777D01*
X203689Y67801D01*
X203835Y67822D01*
X203982Y67838D01*
X204129Y67851D01*
X204277Y67861D01*
X204424Y67866D01*
X204572Y67868D01*
X204572Y63917D02*
X204720Y63919D01*
X204867Y63924D01*
X205015Y63934D01*
X205162Y63947D01*
X205309Y63963D01*
X205455Y63984D01*
X205600Y64008D01*
X205746Y64036D01*
X205890Y64067D01*
X206033Y64102D01*
X206176Y64141D01*
X206317Y64183D01*
X206458Y64229D01*
X206597Y64278D01*
X206735Y64331D01*
X206872Y64387D01*
X207007Y64447D01*
X207140Y64510D01*
X207140Y64509D02*
X207211Y64535D01*
X207280Y64565D01*
X207348Y64599D01*
X207414Y64636D01*
X207478Y64676D01*
X207540Y64720D01*
X207599Y64766D01*
X207656Y64816D01*
X207710Y64869D01*
X207762Y64924D01*
X207810Y64982D01*
X207856Y65042D01*
X207898Y65105D01*
X207937Y65170D01*
X207973Y65236D01*
X208005Y65305D01*
X208033Y65375D01*
X208058Y65446D01*
X208079Y65518D01*
X208097Y65592D01*
X208110Y65666D01*
X208120Y65741D01*
X208126Y65816D01*
X208128Y65892D01*
X207140Y67275D02*
X207007Y67338D01*
X206872Y67398D01*
X206735Y67454D01*
X206597Y67507D01*
X206458Y67556D01*
X206317Y67602D01*
X206176Y67644D01*
X206033Y67683D01*
X205890Y67718D01*
X205746Y67749D01*
X205600Y67777D01*
X205455Y67801D01*
X205309Y67822D01*
X205162Y67838D01*
X205015Y67851D01*
X204867Y67861D01*
X204720Y67866D01*
X204572Y67868D01*
X207140Y67275D02*
X207211Y67249D01*
X207280Y67219D01*
X207348Y67185D01*
X207414Y67148D01*
X207478Y67108D01*
X207540Y67064D01*
X207599Y67018D01*
X207656Y66968D01*
X207710Y66915D01*
X207762Y66860D01*
X207810Y66802D01*
X207856Y66742D01*
X207898Y66679D01*
X207937Y66614D01*
X207973Y66548D01*
X208005Y66479D01*
X208033Y66409D01*
X208058Y66338D01*
X208079Y66266D01*
X208097Y66192D01*
X208110Y66118D01*
X208120Y66043D01*
X208126Y65968D01*
X208128Y65892D01*
X206548Y64312D02*
X202596Y67473D01*
X226391Y52793D02*
X226391Y51212D01*
X226389Y51134D01*
X226383Y51057D01*
X226374Y50980D01*
X226361Y50904D01*
X226344Y50828D01*
X226323Y50753D01*
X226299Y50680D01*
X226271Y50607D01*
X226239Y50536D01*
X226204Y50467D01*
X226166Y50400D01*
X226125Y50334D01*
X226080Y50271D01*
X226032Y50210D01*
X225982Y50151D01*
X225928Y50095D01*
X225872Y50041D01*
X225813Y49991D01*
X225752Y49943D01*
X225689Y49898D01*
X225623Y49857D01*
X225556Y49819D01*
X225487Y49784D01*
X225416Y49752D01*
X225343Y49724D01*
X225270Y49700D01*
X225195Y49679D01*
X225119Y49662D01*
X225043Y49649D01*
X224966Y49640D01*
X224889Y49634D01*
X224811Y49632D01*
X220859Y49632D01*
X220781Y49634D01*
X220704Y49640D01*
X220627Y49649D01*
X220551Y49662D01*
X220475Y49679D01*
X220400Y49700D01*
X220326Y49724D01*
X220254Y49752D01*
X220183Y49784D01*
X220114Y49819D01*
X220046Y49857D01*
X219981Y49898D01*
X219917Y49943D01*
X219856Y49991D01*
X219797Y50042D01*
X219741Y50095D01*
X219688Y50151D01*
X219637Y50210D01*
X219589Y50271D01*
X219544Y50335D01*
X219503Y50400D01*
X219465Y50468D01*
X219430Y50537D01*
X219398Y50608D01*
X219370Y50680D01*
X219346Y50754D01*
X219325Y50829D01*
X219308Y50905D01*
X219295Y50981D01*
X219286Y51058D01*
X219280Y51135D01*
X219278Y51213D01*
X219279Y51212D02*
X219279Y52793D01*
X220859Y55365D02*
X219279Y57341D01*
X226391Y57341D01*
X226391Y59316D02*
X226391Y55365D01*
X223230Y63804D02*
X223230Y66174D01*
X223230Y63804D02*
X223228Y63726D01*
X223222Y63649D01*
X223213Y63572D01*
X223200Y63496D01*
X223183Y63420D01*
X223162Y63345D01*
X223138Y63272D01*
X223110Y63199D01*
X223078Y63128D01*
X223043Y63059D01*
X223005Y62992D01*
X222964Y62926D01*
X222919Y62863D01*
X222871Y62802D01*
X222821Y62743D01*
X222767Y62687D01*
X222711Y62633D01*
X222652Y62583D01*
X222591Y62535D01*
X222528Y62490D01*
X222462Y62449D01*
X222395Y62411D01*
X222326Y62376D01*
X222255Y62344D01*
X222182Y62316D01*
X222109Y62292D01*
X222034Y62271D01*
X221958Y62254D01*
X221882Y62241D01*
X221805Y62232D01*
X221728Y62226D01*
X221650Y62224D01*
X221650Y62223D02*
X221255Y62223D01*
X221168Y62225D01*
X221080Y62231D01*
X220993Y62240D01*
X220907Y62254D01*
X220821Y62271D01*
X220737Y62292D01*
X220653Y62317D01*
X220570Y62346D01*
X220489Y62378D01*
X220409Y62413D01*
X220331Y62452D01*
X220254Y62495D01*
X220180Y62541D01*
X220108Y62590D01*
X220038Y62642D01*
X219970Y62698D01*
X219905Y62756D01*
X219842Y62817D01*
X219783Y62881D01*
X219726Y62948D01*
X219672Y63016D01*
X219621Y63088D01*
X219574Y63161D01*
X219529Y63236D01*
X219488Y63314D01*
X219451Y63393D01*
X219417Y63473D01*
X219387Y63555D01*
X219360Y63638D01*
X219337Y63723D01*
X219318Y63808D01*
X219303Y63894D01*
X219291Y63981D01*
X219283Y64068D01*
X219279Y64155D01*
X219279Y64243D01*
X219283Y64330D01*
X219291Y64417D01*
X219303Y64504D01*
X219318Y64590D01*
X219337Y64675D01*
X219360Y64760D01*
X219387Y64843D01*
X219417Y64925D01*
X219451Y65005D01*
X219488Y65084D01*
X219529Y65162D01*
X219574Y65237D01*
X219621Y65310D01*
X219672Y65382D01*
X219726Y65450D01*
X219783Y65517D01*
X219842Y65581D01*
X219905Y65642D01*
X219970Y65700D01*
X220038Y65756D01*
X220108Y65808D01*
X220180Y65857D01*
X220254Y65903D01*
X220331Y65946D01*
X220409Y65985D01*
X220489Y66020D01*
X220570Y66052D01*
X220653Y66081D01*
X220737Y66106D01*
X220821Y66127D01*
X220907Y66144D01*
X220993Y66158D01*
X221080Y66167D01*
X221168Y66173D01*
X221255Y66175D01*
X221255Y66174D02*
X223230Y66174D01*
X223340Y66172D01*
X223451Y66166D01*
X223560Y66157D01*
X223670Y66143D01*
X223779Y66126D01*
X223887Y66105D01*
X223995Y66080D01*
X224101Y66052D01*
X224207Y66019D01*
X224311Y65983D01*
X224414Y65944D01*
X224516Y65901D01*
X224616Y65854D01*
X224714Y65804D01*
X224811Y65751D01*
X224905Y65694D01*
X224998Y65634D01*
X225088Y65570D01*
X225176Y65504D01*
X225262Y65434D01*
X225345Y65362D01*
X225426Y65287D01*
X225504Y65209D01*
X225579Y65128D01*
X225651Y65045D01*
X225721Y64959D01*
X225787Y64871D01*
X225851Y64781D01*
X225911Y64688D01*
X225968Y64594D01*
X226021Y64497D01*
X226071Y64399D01*
X226118Y64299D01*
X226161Y64197D01*
X226200Y64094D01*
X226236Y63990D01*
X226269Y63884D01*
X226297Y63778D01*
X226322Y63670D01*
X226343Y63562D01*
X226360Y63453D01*
X226374Y63343D01*
X226383Y63234D01*
X226389Y63123D01*
X226391Y63013D01*
X162712Y52782D02*
X155580Y52782D01*
X162712Y52782D02*
X162712Y55952D01*
X161127Y58500D02*
X155580Y60084D01*
X161127Y58500D02*
X161127Y62462D01*
X159542Y61273D02*
X162712Y61273D01*
X187350Y79071D02*
X187350Y86183D01*
X187350Y79071D02*
X190511Y79071D01*
X193053Y79071D02*
X195423Y79071D01*
X195501Y79073D01*
X195578Y79079D01*
X195655Y79088D01*
X195731Y79101D01*
X195807Y79118D01*
X195882Y79139D01*
X195955Y79163D01*
X196028Y79191D01*
X196099Y79223D01*
X196168Y79258D01*
X196235Y79296D01*
X196301Y79337D01*
X196364Y79382D01*
X196425Y79430D01*
X196484Y79480D01*
X196540Y79534D01*
X196594Y79590D01*
X196644Y79649D01*
X196692Y79710D01*
X196737Y79773D01*
X196778Y79839D01*
X196816Y79906D01*
X196851Y79975D01*
X196883Y80046D01*
X196911Y80119D01*
X196935Y80192D01*
X196956Y80267D01*
X196973Y80343D01*
X196986Y80419D01*
X196995Y80496D01*
X197001Y80573D01*
X197003Y80651D01*
X197004Y80651D02*
X197004Y81442D01*
X197003Y81442D02*
X197001Y81520D01*
X196995Y81597D01*
X196986Y81674D01*
X196973Y81750D01*
X196956Y81826D01*
X196935Y81901D01*
X196911Y81974D01*
X196883Y82047D01*
X196851Y82118D01*
X196816Y82187D01*
X196778Y82254D01*
X196737Y82320D01*
X196692Y82383D01*
X196644Y82444D01*
X196594Y82503D01*
X196540Y82559D01*
X196484Y82613D01*
X196425Y82663D01*
X196364Y82711D01*
X196301Y82756D01*
X196235Y82797D01*
X196168Y82835D01*
X196099Y82870D01*
X196028Y82902D01*
X195955Y82930D01*
X195882Y82954D01*
X195807Y82975D01*
X195731Y82992D01*
X195655Y83005D01*
X195578Y83014D01*
X195501Y83020D01*
X195423Y83022D01*
X193053Y83022D01*
X193053Y86183D01*
X197004Y86183D01*
X206906Y86691D02*
X206906Y79579D01*
X210067Y79579D01*
X212609Y83530D02*
X214980Y83530D01*
X215058Y83528D01*
X215135Y83522D01*
X215212Y83513D01*
X215288Y83500D01*
X215364Y83483D01*
X215439Y83462D01*
X215512Y83438D01*
X215585Y83410D01*
X215656Y83378D01*
X215725Y83343D01*
X215792Y83305D01*
X215858Y83264D01*
X215921Y83219D01*
X215982Y83171D01*
X216041Y83121D01*
X216097Y83067D01*
X216151Y83011D01*
X216201Y82952D01*
X216249Y82891D01*
X216294Y82828D01*
X216335Y82762D01*
X216373Y82695D01*
X216408Y82626D01*
X216440Y82555D01*
X216468Y82482D01*
X216492Y82409D01*
X216513Y82334D01*
X216530Y82258D01*
X216543Y82182D01*
X216552Y82105D01*
X216558Y82028D01*
X216560Y81950D01*
X216560Y81555D01*
X216558Y81468D01*
X216552Y81380D01*
X216543Y81293D01*
X216529Y81207D01*
X216512Y81121D01*
X216491Y81037D01*
X216466Y80953D01*
X216437Y80870D01*
X216405Y80789D01*
X216370Y80709D01*
X216331Y80631D01*
X216288Y80554D01*
X216242Y80480D01*
X216193Y80408D01*
X216141Y80338D01*
X216085Y80270D01*
X216027Y80205D01*
X215966Y80142D01*
X215902Y80083D01*
X215835Y80026D01*
X215767Y79972D01*
X215695Y79921D01*
X215622Y79874D01*
X215547Y79829D01*
X215469Y79788D01*
X215390Y79751D01*
X215310Y79717D01*
X215228Y79687D01*
X215145Y79660D01*
X215060Y79637D01*
X214975Y79618D01*
X214889Y79603D01*
X214802Y79591D01*
X214715Y79583D01*
X214628Y79579D01*
X214540Y79579D01*
X214453Y79583D01*
X214366Y79591D01*
X214279Y79603D01*
X214193Y79618D01*
X214108Y79637D01*
X214023Y79660D01*
X213940Y79687D01*
X213858Y79717D01*
X213778Y79751D01*
X213699Y79788D01*
X213621Y79829D01*
X213546Y79874D01*
X213473Y79921D01*
X213401Y79972D01*
X213333Y80026D01*
X213266Y80083D01*
X213202Y80142D01*
X213141Y80205D01*
X213083Y80270D01*
X213027Y80338D01*
X212975Y80408D01*
X212926Y80480D01*
X212880Y80554D01*
X212837Y80631D01*
X212798Y80709D01*
X212763Y80789D01*
X212731Y80870D01*
X212702Y80953D01*
X212677Y81037D01*
X212656Y81121D01*
X212639Y81207D01*
X212625Y81293D01*
X212616Y81380D01*
X212610Y81468D01*
X212608Y81555D01*
X212609Y81555D02*
X212609Y83530D01*
X212611Y83640D01*
X212617Y83750D01*
X212626Y83860D01*
X212640Y83970D01*
X212657Y84079D01*
X212678Y84187D01*
X212703Y84295D01*
X212731Y84401D01*
X212764Y84507D01*
X212800Y84611D01*
X212839Y84714D01*
X212882Y84816D01*
X212929Y84916D01*
X212979Y85014D01*
X213032Y85110D01*
X213089Y85205D01*
X213149Y85298D01*
X213213Y85388D01*
X213279Y85476D01*
X213349Y85562D01*
X213421Y85645D01*
X213496Y85726D01*
X213574Y85804D01*
X213655Y85879D01*
X213738Y85951D01*
X213824Y86021D01*
X213912Y86087D01*
X214002Y86151D01*
X214095Y86211D01*
X214189Y86267D01*
X214286Y86321D01*
X214384Y86371D01*
X214484Y86418D01*
X214586Y86461D01*
X214689Y86500D01*
X214793Y86536D01*
X214899Y86569D01*
X215005Y86597D01*
X215113Y86622D01*
X215221Y86643D01*
X215330Y86660D01*
X215440Y86674D01*
X215549Y86683D01*
X215660Y86689D01*
X215770Y86691D01*
D16*
X49702Y21052D02*
X22942Y21052D01*
X22942Y49052D02*
X49702Y49052D01*
X15322Y36352D02*
X15322Y33752D01*
X57322Y33752D02*
X57322Y36352D01*
D17*
X28272Y35052D02*
X28274Y35250D01*
X28282Y35447D01*
X28294Y35644D01*
X28311Y35841D01*
X28333Y36037D01*
X28359Y36233D01*
X28391Y36428D01*
X28427Y36622D01*
X28468Y36816D01*
X28513Y37008D01*
X28564Y37199D01*
X28619Y37389D01*
X28678Y37577D01*
X28743Y37764D01*
X28811Y37949D01*
X28885Y38133D01*
X28963Y38314D01*
X29045Y38494D01*
X29132Y38671D01*
X29223Y38847D01*
X29318Y39020D01*
X29417Y39191D01*
X29521Y39359D01*
X29629Y39524D01*
X29740Y39687D01*
X29856Y39847D01*
X29976Y40005D01*
X30099Y40159D01*
X30226Y40310D01*
X30357Y40458D01*
X30492Y40603D01*
X30630Y40744D01*
X30771Y40882D01*
X30916Y41017D01*
X31064Y41148D01*
X31215Y41275D01*
X31369Y41398D01*
X31527Y41518D01*
X31687Y41634D01*
X31850Y41745D01*
X32015Y41853D01*
X32183Y41957D01*
X32354Y42056D01*
X32527Y42151D01*
X32703Y42242D01*
X32880Y42329D01*
X33060Y42411D01*
X33241Y42489D01*
X33425Y42563D01*
X33610Y42631D01*
X33797Y42696D01*
X33985Y42755D01*
X34175Y42810D01*
X34366Y42861D01*
X34558Y42906D01*
X34752Y42947D01*
X34946Y42983D01*
X35141Y43015D01*
X35337Y43041D01*
X35533Y43063D01*
X35730Y43080D01*
X35927Y43092D01*
X36124Y43100D01*
X36322Y43102D01*
X36520Y43100D01*
X36717Y43092D01*
X36914Y43080D01*
X37111Y43063D01*
X37307Y43041D01*
X37503Y43015D01*
X37698Y42983D01*
X37892Y42947D01*
X38086Y42906D01*
X38278Y42861D01*
X38469Y42810D01*
X38659Y42755D01*
X38847Y42696D01*
X39034Y42631D01*
X39219Y42563D01*
X39403Y42489D01*
X39584Y42411D01*
X39764Y42329D01*
X39941Y42242D01*
X40117Y42151D01*
X40290Y42056D01*
X40461Y41957D01*
X40629Y41853D01*
X40794Y41745D01*
X40957Y41634D01*
X41117Y41518D01*
X41275Y41398D01*
X41429Y41275D01*
X41580Y41148D01*
X41728Y41017D01*
X41873Y40882D01*
X42014Y40744D01*
X42152Y40603D01*
X42287Y40458D01*
X42418Y40310D01*
X42545Y40159D01*
X42668Y40005D01*
X42788Y39847D01*
X42904Y39687D01*
X43015Y39524D01*
X43123Y39359D01*
X43227Y39191D01*
X43326Y39020D01*
X43421Y38847D01*
X43512Y38671D01*
X43599Y38494D01*
X43681Y38314D01*
X43759Y38133D01*
X43833Y37949D01*
X43901Y37764D01*
X43966Y37577D01*
X44025Y37389D01*
X44080Y37199D01*
X44131Y37008D01*
X44176Y36816D01*
X44217Y36622D01*
X44253Y36428D01*
X44285Y36233D01*
X44311Y36037D01*
X44333Y35841D01*
X44350Y35644D01*
X44362Y35447D01*
X44370Y35250D01*
X44372Y35052D01*
X44370Y34854D01*
X44362Y34657D01*
X44350Y34460D01*
X44333Y34263D01*
X44311Y34067D01*
X44285Y33871D01*
X44253Y33676D01*
X44217Y33482D01*
X44176Y33288D01*
X44131Y33096D01*
X44080Y32905D01*
X44025Y32715D01*
X43966Y32527D01*
X43901Y32340D01*
X43833Y32155D01*
X43759Y31971D01*
X43681Y31790D01*
X43599Y31610D01*
X43512Y31433D01*
X43421Y31257D01*
X43326Y31084D01*
X43227Y30913D01*
X43123Y30745D01*
X43015Y30580D01*
X42904Y30417D01*
X42788Y30257D01*
X42668Y30099D01*
X42545Y29945D01*
X42418Y29794D01*
X42287Y29646D01*
X42152Y29501D01*
X42014Y29360D01*
X41873Y29222D01*
X41728Y29087D01*
X41580Y28956D01*
X41429Y28829D01*
X41275Y28706D01*
X41117Y28586D01*
X40957Y28470D01*
X40794Y28359D01*
X40629Y28251D01*
X40461Y28147D01*
X40290Y28048D01*
X40117Y27953D01*
X39941Y27862D01*
X39764Y27775D01*
X39584Y27693D01*
X39403Y27615D01*
X39219Y27541D01*
X39034Y27473D01*
X38847Y27408D01*
X38659Y27349D01*
X38469Y27294D01*
X38278Y27243D01*
X38086Y27198D01*
X37892Y27157D01*
X37698Y27121D01*
X37503Y27089D01*
X37307Y27063D01*
X37111Y27041D01*
X36914Y27024D01*
X36717Y27012D01*
X36520Y27004D01*
X36322Y27002D01*
X36124Y27004D01*
X35927Y27012D01*
X35730Y27024D01*
X35533Y27041D01*
X35337Y27063D01*
X35141Y27089D01*
X34946Y27121D01*
X34752Y27157D01*
X34558Y27198D01*
X34366Y27243D01*
X34175Y27294D01*
X33985Y27349D01*
X33797Y27408D01*
X33610Y27473D01*
X33425Y27541D01*
X33241Y27615D01*
X33060Y27693D01*
X32880Y27775D01*
X32703Y27862D01*
X32527Y27953D01*
X32354Y28048D01*
X32183Y28147D01*
X32015Y28251D01*
X31850Y28359D01*
X31687Y28470D01*
X31527Y28586D01*
X31369Y28706D01*
X31215Y28829D01*
X31064Y28956D01*
X30916Y29087D01*
X30771Y29222D01*
X30630Y29360D01*
X30492Y29501D01*
X30357Y29646D01*
X30226Y29794D01*
X30099Y29945D01*
X29976Y30099D01*
X29856Y30257D01*
X29740Y30417D01*
X29629Y30580D01*
X29521Y30745D01*
X29417Y30913D01*
X29318Y31084D01*
X29223Y31257D01*
X29132Y31433D01*
X29045Y31610D01*
X28963Y31790D01*
X28885Y31971D01*
X28811Y32155D01*
X28743Y32340D01*
X28678Y32527D01*
X28619Y32715D01*
X28564Y32905D01*
X28513Y33096D01*
X28468Y33288D01*
X28427Y33482D01*
X28391Y33676D01*
X28359Y33871D01*
X28333Y34067D01*
X28311Y34263D01*
X28294Y34460D01*
X28282Y34657D01*
X28274Y34854D01*
X28272Y35052D01*
X28369Y16397D02*
X29710Y16397D01*
X29710Y16398D02*
X29781Y16396D01*
X29853Y16390D01*
X29923Y16381D01*
X29993Y16368D01*
X30063Y16351D01*
X30131Y16330D01*
X30198Y16306D01*
X30264Y16278D01*
X30328Y16247D01*
X30391Y16212D01*
X30451Y16174D01*
X30510Y16133D01*
X30566Y16089D01*
X30620Y16042D01*
X30671Y15993D01*
X30719Y15940D01*
X30765Y15885D01*
X30807Y15828D01*
X30847Y15768D01*
X30883Y15707D01*
X30916Y15643D01*
X30945Y15578D01*
X30971Y15512D01*
X30994Y15444D01*
X31013Y15375D01*
X31028Y15305D01*
X31039Y15235D01*
X31047Y15164D01*
X31051Y15093D01*
X31051Y15021D01*
X31047Y14950D01*
X31039Y14879D01*
X31028Y14809D01*
X31013Y14739D01*
X30994Y14670D01*
X30971Y14602D01*
X30945Y14536D01*
X30916Y14471D01*
X30883Y14407D01*
X30847Y14346D01*
X30807Y14286D01*
X30765Y14229D01*
X30719Y14174D01*
X30671Y14121D01*
X30620Y14072D01*
X30566Y14025D01*
X30510Y13981D01*
X30451Y13940D01*
X30391Y13902D01*
X30328Y13867D01*
X30264Y13836D01*
X30198Y13808D01*
X30131Y13784D01*
X30063Y13763D01*
X29993Y13746D01*
X29923Y13733D01*
X29853Y13724D01*
X29781Y13718D01*
X29710Y13716D01*
X28369Y13716D01*
X28369Y18542D01*
X29710Y18542D01*
X29775Y18540D01*
X29839Y18534D01*
X29903Y18524D01*
X29967Y18511D01*
X30029Y18493D01*
X30090Y18472D01*
X30150Y18448D01*
X30208Y18419D01*
X30265Y18387D01*
X30319Y18352D01*
X30371Y18314D01*
X30421Y18272D01*
X30468Y18228D01*
X30512Y18181D01*
X30554Y18131D01*
X30592Y18079D01*
X30627Y18025D01*
X30659Y17968D01*
X30688Y17910D01*
X30712Y17850D01*
X30733Y17789D01*
X30751Y17727D01*
X30764Y17663D01*
X30774Y17599D01*
X30780Y17535D01*
X30782Y17470D01*
X30780Y17405D01*
X30774Y17341D01*
X30764Y17277D01*
X30751Y17213D01*
X30733Y17151D01*
X30712Y17090D01*
X30688Y17030D01*
X30659Y16972D01*
X30627Y16915D01*
X30592Y16861D01*
X30554Y16809D01*
X30512Y16759D01*
X30468Y16712D01*
X30421Y16668D01*
X30371Y16626D01*
X30319Y16588D01*
X30265Y16553D01*
X30208Y16521D01*
X30150Y16492D01*
X30090Y16468D01*
X30029Y16447D01*
X29967Y16429D01*
X29903Y16416D01*
X29839Y16406D01*
X29775Y16400D01*
X29710Y16398D01*
X34501Y18542D02*
X34501Y13716D01*
X33161Y18542D02*
X35842Y18542D01*
X38464Y18542D02*
X38464Y13716D01*
X41145Y13716D02*
X38464Y18542D01*
X41145Y18542D02*
X41145Y13716D01*
X44133Y17470D02*
X45474Y18542D01*
X45474Y13716D01*
X44133Y13716D02*
X46815Y13716D01*
D11*
X152806Y14555D02*
X152806Y21921D01*
X154852Y21921D01*
X154941Y21919D01*
X155030Y21913D01*
X155119Y21903D01*
X155207Y21890D01*
X155295Y21873D01*
X155382Y21851D01*
X155467Y21826D01*
X155552Y21798D01*
X155635Y21765D01*
X155717Y21729D01*
X155797Y21690D01*
X155875Y21647D01*
X155951Y21601D01*
X156026Y21551D01*
X156098Y21498D01*
X156167Y21442D01*
X156234Y21383D01*
X156299Y21322D01*
X156360Y21257D01*
X156419Y21190D01*
X156475Y21121D01*
X156528Y21049D01*
X156578Y20974D01*
X156624Y20898D01*
X156667Y20820D01*
X156706Y20740D01*
X156742Y20658D01*
X156775Y20575D01*
X156803Y20490D01*
X156828Y20405D01*
X156850Y20318D01*
X156867Y20230D01*
X156880Y20142D01*
X156890Y20053D01*
X156896Y19964D01*
X156898Y19875D01*
X156896Y19786D01*
X156890Y19697D01*
X156880Y19608D01*
X156867Y19520D01*
X156850Y19432D01*
X156828Y19345D01*
X156803Y19260D01*
X156775Y19175D01*
X156742Y19092D01*
X156706Y19010D01*
X156667Y18930D01*
X156624Y18852D01*
X156578Y18776D01*
X156528Y18701D01*
X156475Y18629D01*
X156419Y18560D01*
X156360Y18493D01*
X156299Y18428D01*
X156234Y18367D01*
X156167Y18308D01*
X156098Y18252D01*
X156026Y18199D01*
X155951Y18149D01*
X155875Y18103D01*
X155797Y18060D01*
X155717Y18021D01*
X155635Y17985D01*
X155552Y17952D01*
X155467Y17924D01*
X155382Y17899D01*
X155295Y17877D01*
X155207Y17860D01*
X155119Y17847D01*
X155030Y17837D01*
X154941Y17831D01*
X154852Y17829D01*
X152806Y17829D01*
X155261Y17829D02*
X156898Y14555D01*
X164163Y20080D02*
X164161Y20165D01*
X164155Y20250D01*
X164145Y20334D01*
X164132Y20418D01*
X164114Y20502D01*
X164093Y20584D01*
X164068Y20665D01*
X164039Y20745D01*
X164006Y20824D01*
X163970Y20901D01*
X163930Y20976D01*
X163887Y21050D01*
X163841Y21121D01*
X163791Y21190D01*
X163738Y21257D01*
X163682Y21321D01*
X163623Y21382D01*
X163562Y21441D01*
X163498Y21497D01*
X163431Y21550D01*
X163362Y21600D01*
X163291Y21646D01*
X163217Y21689D01*
X163142Y21729D01*
X163065Y21765D01*
X162986Y21798D01*
X162906Y21827D01*
X162825Y21852D01*
X162743Y21873D01*
X162659Y21891D01*
X162575Y21904D01*
X162491Y21914D01*
X162406Y21920D01*
X162321Y21922D01*
X162321Y21921D02*
X162225Y21919D01*
X162129Y21913D01*
X162034Y21903D01*
X161939Y21890D01*
X161844Y21872D01*
X161751Y21851D01*
X161658Y21826D01*
X161567Y21797D01*
X161476Y21765D01*
X161387Y21729D01*
X161300Y21689D01*
X161214Y21646D01*
X161130Y21600D01*
X161048Y21550D01*
X160968Y21496D01*
X160891Y21440D01*
X160816Y21380D01*
X160743Y21318D01*
X160673Y21252D01*
X160605Y21184D01*
X160540Y21113D01*
X160479Y21040D01*
X160420Y20964D01*
X160364Y20885D01*
X160312Y20805D01*
X160263Y20722D01*
X160217Y20638D01*
X160175Y20552D01*
X160137Y20464D01*
X160102Y20375D01*
X160070Y20284D01*
X163548Y18648D02*
X163608Y18707D01*
X163665Y18769D01*
X163720Y18833D01*
X163771Y18900D01*
X163820Y18969D01*
X163866Y19039D01*
X163909Y19112D01*
X163949Y19186D01*
X163985Y19262D01*
X164018Y19340D01*
X164048Y19419D01*
X164075Y19499D01*
X164098Y19580D01*
X164117Y19662D01*
X164133Y19744D01*
X164146Y19828D01*
X164155Y19912D01*
X164160Y19996D01*
X164162Y20080D01*
X163548Y18647D02*
X160070Y14555D01*
X164162Y14555D01*
D17*
X172403Y7112D02*
X181928Y7112D01*
X194249Y41702D02*
X207249Y41702D01*
X194249Y41702D02*
X194249Y15702D01*
X234249Y15702D02*
X234249Y41702D01*
X221249Y41702D01*
X207249Y15702D02*
X194249Y15702D01*
X221249Y15702D02*
X234249Y15702D01*
X207249Y42702D02*
X194249Y42702D01*
X221249Y42702D02*
X234249Y42702D01*
X207249Y43702D02*
X194249Y43702D01*
X221249Y43702D02*
X234249Y43702D01*
X194249Y43702D02*
X194249Y41702D01*
X207249Y41702D02*
X207249Y43702D01*
X221249Y43702D02*
X221249Y41702D01*
X234249Y41702D02*
X234249Y43702D01*
M02*
