G04 EAGLE Gerber RS-274X export*
G75*
%MOMM*%
%FSLAX34Y34*%
%LPD*%
%INSolderpaste Top*%
%IPPOS*%
%AMOC8*
5,1,8,0,0,1.08239X$1,22.5*%
G01*
%ADD10R,0.850000X0.300000*%
%ADD11R,0.300000X0.850000*%
%ADD12R,1.000000X1.000000*%
%ADD13C,0.280800*%
%ADD14C,0.500000*%
%ADD15C,0.402900*%
%ADD16R,1.000000X1.800000*%
%ADD17R,0.850000X0.950000*%
%ADD18C,0.270000*%
%ADD19R,0.900000X1.000000*%
%ADD20C,0.300000*%
%ADD21R,0.850000X2.200000*%
%ADD22R,1.000000X1.050000*%


D10*
X145371Y71052D03*
X145371Y76052D03*
X145371Y81052D03*
X145371Y86052D03*
X145371Y91052D03*
X145371Y96052D03*
X145371Y101052D03*
X145371Y106052D03*
X145371Y111052D03*
X145371Y116052D03*
X145371Y121052D03*
X145371Y126052D03*
D11*
X138371Y133052D03*
X133371Y133052D03*
X128371Y133052D03*
X123371Y133052D03*
X118371Y133052D03*
X113371Y133052D03*
X108371Y133052D03*
X103371Y133052D03*
X98371Y133052D03*
X93371Y133052D03*
X88371Y133052D03*
X83371Y133052D03*
D10*
X76371Y126052D03*
X76371Y121052D03*
X76371Y116052D03*
X76371Y111052D03*
X76371Y106052D03*
X76371Y101052D03*
X76371Y96052D03*
X76371Y91052D03*
X76371Y86052D03*
X76371Y81052D03*
X76371Y76052D03*
X76371Y71052D03*
D11*
X83371Y64052D03*
X88371Y64052D03*
X93371Y64052D03*
X98371Y64052D03*
X103371Y64052D03*
X108371Y64052D03*
X113371Y64052D03*
X118371Y64052D03*
X123371Y64052D03*
X128371Y64052D03*
X133371Y64052D03*
X138371Y64052D03*
D12*
X130871Y78552D03*
X117621Y78552D03*
X104121Y78552D03*
X90871Y78552D03*
X130871Y91802D03*
X130871Y105302D03*
X130871Y118552D03*
X90871Y118552D03*
X104121Y118552D03*
X117621Y118552D03*
X117621Y105302D03*
X117621Y91802D03*
X104121Y91802D03*
X90871Y91802D03*
X104121Y105302D03*
X90871Y105302D03*
D13*
X43252Y147149D02*
X43252Y149741D01*
X43252Y147149D02*
X40060Y147149D01*
X40060Y149741D01*
X43252Y149741D01*
X40060Y141141D02*
X40060Y138549D01*
X40060Y141141D02*
X43252Y141141D01*
X43252Y138549D01*
X40060Y138549D01*
X32965Y147149D02*
X32965Y149741D01*
X32965Y147149D02*
X29773Y147149D01*
X29773Y149741D01*
X32965Y149741D01*
X29773Y141141D02*
X29773Y138549D01*
X29773Y141141D02*
X32965Y141141D01*
X32965Y138549D01*
X29773Y138549D01*
X90496Y47633D02*
X90496Y45041D01*
X87304Y45041D01*
X87304Y47633D01*
X90496Y47633D01*
X87304Y39033D02*
X87304Y36441D01*
X87304Y39033D02*
X90496Y39033D01*
X90496Y36441D01*
X87304Y36441D01*
X77525Y36314D02*
X77525Y38906D01*
X80717Y38906D01*
X80717Y36314D01*
X77525Y36314D01*
X80717Y44914D02*
X80717Y47506D01*
X80717Y44914D02*
X77525Y44914D01*
X77525Y47506D01*
X80717Y47506D01*
X74974Y148408D02*
X72382Y148408D01*
X74974Y148408D02*
X74974Y145216D01*
X72382Y145216D01*
X72382Y148408D01*
X72382Y147884D02*
X74974Y147884D01*
X80982Y145216D02*
X83574Y145216D01*
X80982Y145216D02*
X80982Y148408D01*
X83574Y148408D01*
X83574Y145216D01*
X83574Y147884D02*
X80982Y147884D01*
X172331Y139137D02*
X174923Y139137D01*
X174923Y135945D01*
X172331Y135945D01*
X172331Y139137D01*
X172331Y138613D02*
X174923Y138613D01*
X180931Y135945D02*
X183523Y135945D01*
X180931Y135945D02*
X180931Y139137D01*
X183523Y139137D01*
X183523Y135945D01*
X183523Y138613D02*
X180931Y138613D01*
X165616Y135945D02*
X163024Y135945D01*
X163024Y139137D01*
X165616Y139137D01*
X165616Y135945D01*
X165616Y138613D02*
X163024Y138613D01*
X157016Y139137D02*
X154424Y139137D01*
X157016Y139137D02*
X157016Y135945D01*
X154424Y135945D01*
X154424Y139137D01*
X154424Y138613D02*
X157016Y138613D01*
X136707Y148455D02*
X136707Y151047D01*
X139899Y151047D01*
X139899Y148455D01*
X136707Y148455D01*
X139899Y157055D02*
X139899Y159647D01*
X139899Y157055D02*
X136707Y157055D01*
X136707Y159647D01*
X139899Y159647D01*
X91749Y152317D02*
X91749Y149725D01*
X91749Y152317D02*
X94941Y152317D01*
X94941Y149725D01*
X91749Y149725D01*
X94941Y158325D02*
X94941Y160917D01*
X94941Y158325D02*
X91749Y158325D01*
X91749Y160917D01*
X94941Y160917D01*
X104085Y45728D02*
X104085Y43136D01*
X100893Y43136D01*
X100893Y45728D01*
X104085Y45728D01*
X100893Y37128D02*
X100893Y34536D01*
X100893Y37128D02*
X104085Y37128D01*
X104085Y34536D01*
X100893Y34536D01*
X70557Y44914D02*
X70557Y47506D01*
X70557Y44914D02*
X67365Y44914D01*
X67365Y47506D01*
X70557Y47506D01*
X67365Y38906D02*
X67365Y36314D01*
X67365Y38906D02*
X70557Y38906D01*
X70557Y36314D01*
X67365Y36314D01*
D14*
X59221Y59662D02*
X54221Y59662D01*
X54221Y68862D01*
X59221Y68862D01*
X59221Y59662D01*
X59221Y64412D02*
X54221Y64412D01*
X40521Y68862D02*
X35521Y68862D01*
X40521Y68862D02*
X40521Y59662D01*
X35521Y59662D01*
X35521Y68862D01*
X35521Y64412D02*
X40521Y64412D01*
X39378Y111280D02*
X34378Y111280D01*
X39378Y111280D02*
X39378Y102080D01*
X34378Y102080D01*
X34378Y111280D01*
X34378Y106830D02*
X39378Y106830D01*
X53078Y102080D02*
X58078Y102080D01*
X53078Y102080D02*
X53078Y111280D01*
X58078Y111280D01*
X58078Y102080D01*
X58078Y106830D02*
X53078Y106830D01*
D13*
X113737Y45728D02*
X113737Y43136D01*
X110545Y43136D01*
X110545Y45728D01*
X113737Y45728D01*
X110545Y37128D02*
X110545Y34536D01*
X110545Y37128D02*
X113737Y37128D01*
X113737Y34536D01*
X110545Y34536D01*
X151456Y54566D02*
X151456Y57158D01*
X151456Y54566D02*
X148264Y54566D01*
X148264Y57158D01*
X151456Y57158D01*
X148264Y48558D02*
X148264Y45966D01*
X148264Y48558D02*
X151456Y48558D01*
X151456Y45966D01*
X148264Y45966D01*
D15*
X53625Y127786D02*
X53625Y131658D01*
X58897Y131658D01*
X58897Y127786D01*
X53625Y127786D01*
X53625Y131614D02*
X58897Y131614D01*
X58897Y144186D02*
X58897Y148058D01*
X58897Y144186D02*
X53625Y144186D01*
X53625Y148058D01*
X58897Y148058D01*
X58897Y148014D02*
X53625Y148014D01*
D14*
X53205Y80490D02*
X58205Y80490D01*
X53205Y80490D02*
X53205Y89690D01*
X58205Y89690D01*
X58205Y80490D01*
X58205Y85240D02*
X53205Y85240D01*
X39505Y89690D02*
X34505Y89690D01*
X39505Y89690D02*
X39505Y80490D01*
X34505Y80490D01*
X34505Y89690D01*
X34505Y85240D02*
X39505Y85240D01*
D16*
X181537Y153162D03*
X156537Y153162D03*
D17*
X138211Y29453D03*
X138211Y43953D03*
X126711Y43953D03*
X126711Y29453D03*
D18*
X167177Y76836D02*
X169877Y76836D01*
X167177Y76836D02*
X167177Y80136D01*
X169877Y80136D01*
X169877Y76836D01*
X169877Y79401D02*
X167177Y79401D01*
X175817Y76836D02*
X178517Y76836D01*
X175817Y76836D02*
X175817Y80136D01*
X178517Y80136D01*
X178517Y76836D01*
X178517Y79401D02*
X175817Y79401D01*
X170004Y87123D02*
X167304Y87123D01*
X167304Y90423D01*
X170004Y90423D01*
X170004Y87123D01*
X170004Y89688D02*
X167304Y89688D01*
X175944Y87123D02*
X178644Y87123D01*
X175944Y87123D02*
X175944Y90423D01*
X178644Y90423D01*
X178644Y87123D01*
X178644Y89688D02*
X175944Y89688D01*
X176071Y48640D02*
X178771Y48640D01*
X178771Y45340D01*
X176071Y45340D01*
X176071Y48640D01*
X176071Y47905D02*
X178771Y47905D01*
X170131Y48640D02*
X167431Y48640D01*
X170131Y48640D02*
X170131Y45340D01*
X167431Y45340D01*
X167431Y48640D01*
X167431Y47905D02*
X170131Y47905D01*
X170004Y66168D02*
X167304Y66168D01*
X167304Y69468D01*
X170004Y69468D01*
X170004Y66168D01*
X170004Y68733D02*
X167304Y68733D01*
X175944Y66168D02*
X178644Y66168D01*
X175944Y66168D02*
X175944Y69468D01*
X178644Y69468D01*
X178644Y66168D01*
X178644Y68733D02*
X175944Y68733D01*
X206882Y82214D02*
X206882Y84914D01*
X206882Y82214D02*
X203582Y82214D01*
X203582Y84914D01*
X206882Y84914D01*
X206882Y84779D02*
X203582Y84779D01*
X206882Y90854D02*
X206882Y93554D01*
X206882Y90854D02*
X203582Y90854D01*
X203582Y93554D01*
X206882Y93554D01*
X206882Y93419D02*
X203582Y93419D01*
X212472Y64979D02*
X212472Y62279D01*
X212472Y64979D02*
X215772Y64979D01*
X215772Y62279D01*
X212472Y62279D01*
X212472Y64844D02*
X215772Y64844D01*
X212472Y56339D02*
X212472Y53639D01*
X212472Y56339D02*
X215772Y56339D01*
X215772Y53639D01*
X212472Y53639D01*
X212472Y56204D02*
X215772Y56204D01*
X170004Y55881D02*
X167304Y55881D01*
X167304Y59181D01*
X170004Y59181D01*
X170004Y55881D01*
X170004Y58446D02*
X167304Y58446D01*
X175944Y55881D02*
X178644Y55881D01*
X175944Y55881D02*
X175944Y59181D01*
X178644Y59181D01*
X178644Y55881D01*
X178644Y58446D02*
X175944Y58446D01*
X185719Y71883D02*
X188419Y71883D01*
X185719Y71883D02*
X185719Y75183D01*
X188419Y75183D01*
X188419Y71883D01*
X188419Y74448D02*
X185719Y74448D01*
X194359Y71883D02*
X197059Y71883D01*
X194359Y71883D02*
X194359Y75183D01*
X197059Y75183D01*
X197059Y71883D01*
X197059Y74448D02*
X194359Y74448D01*
X204134Y72010D02*
X206834Y72010D01*
X204134Y72010D02*
X204134Y75310D01*
X206834Y75310D01*
X206834Y72010D01*
X206834Y74575D02*
X204134Y74575D01*
X212774Y72010D02*
X215474Y72010D01*
X212774Y72010D02*
X212774Y75310D01*
X215474Y75310D01*
X215474Y72010D01*
X215474Y74575D02*
X212774Y74575D01*
D19*
X56822Y43052D03*
X56822Y27052D03*
X15822Y27052D03*
X15822Y43052D03*
D18*
X152953Y25655D02*
X155653Y25655D01*
X152953Y25655D02*
X152953Y28955D01*
X155653Y28955D01*
X155653Y25655D01*
X155653Y28220D02*
X152953Y28220D01*
X161593Y25655D02*
X164293Y25655D01*
X161593Y25655D02*
X161593Y28955D01*
X164293Y28955D01*
X164293Y25655D01*
X164293Y28220D02*
X161593Y28220D01*
D20*
X173665Y17717D02*
X180665Y17717D01*
X180665Y10717D01*
X173665Y10717D01*
X173665Y17717D01*
X173665Y13567D02*
X180665Y13567D01*
X180665Y16417D02*
X173665Y16417D01*
X173665Y35257D02*
X180665Y35257D01*
X180665Y28257D01*
X173665Y28257D01*
X173665Y35257D01*
X173665Y31107D02*
X180665Y31107D01*
X180665Y33957D02*
X173665Y33957D01*
D21*
X200753Y28321D03*
X228253Y28321D03*
D22*
X214503Y43571D03*
X214503Y13071D03*
M02*
