G04 EAGLE Gerber RS-274X export*
G75*
%MOMM*%
%FSLAX34Y34*%
%LPD*%
%INSoldermask Top*%
%IPPOS*%
%AMOC8*
5,1,8,0,0,1.08239X$1,22.5*%
G01*
%ADD10R,0.977000X0.427000*%
%ADD11R,0.427000X0.977000*%
%ADD12C,0.268850*%
%ADD13C,0.406869*%
%ADD14C,0.631119*%
%ADD15C,0.531859*%
%ADD16R,1.127000X1.927000*%
%ADD17R,0.977000X1.077000*%
%ADD18C,0.400200*%
%ADD19R,1.027000X1.127000*%
%ADD20C,0.428259*%
%ADD21C,1.177000*%
%ADD22R,0.977000X2.327000*%
%ADD23R,1.127000X1.177000*%


D10*
X145371Y71052D03*
X145371Y76052D03*
X145371Y81052D03*
X145371Y86052D03*
X145371Y91052D03*
X145371Y96052D03*
X145371Y101052D03*
X145371Y106052D03*
X145371Y111052D03*
X145371Y116052D03*
X145371Y121052D03*
X145371Y126052D03*
D11*
X138371Y133052D03*
X133371Y133052D03*
X128371Y133052D03*
X123371Y133052D03*
X118371Y133052D03*
X113371Y133052D03*
X108371Y133052D03*
X103371Y133052D03*
X98371Y133052D03*
X93371Y133052D03*
X88371Y133052D03*
X83371Y133052D03*
D10*
X76371Y126052D03*
X76371Y121052D03*
X76371Y116052D03*
X76371Y111052D03*
X76371Y106052D03*
X76371Y101052D03*
X76371Y96052D03*
X76371Y91052D03*
X76371Y86052D03*
X76371Y81052D03*
X76371Y76052D03*
X76371Y71052D03*
D11*
X83371Y64052D03*
X88371Y64052D03*
X93371Y64052D03*
X98371Y64052D03*
X103371Y64052D03*
X108371Y64052D03*
X113371Y64052D03*
X118371Y64052D03*
X123371Y64052D03*
X128371Y64052D03*
X133371Y64052D03*
X138371Y64052D03*
D12*
X85330Y73011D02*
X85330Y124093D01*
X136412Y124093D01*
X136412Y73011D01*
X85330Y73011D01*
X85330Y75566D02*
X136412Y75566D01*
X136412Y78121D02*
X85330Y78121D01*
X85330Y80676D02*
X136412Y80676D01*
X136412Y83231D02*
X85330Y83231D01*
X85330Y85786D02*
X136412Y85786D01*
X136412Y88341D02*
X85330Y88341D01*
X85330Y90896D02*
X136412Y90896D01*
X136412Y93451D02*
X85330Y93451D01*
X85330Y96006D02*
X136412Y96006D01*
X136412Y98561D02*
X85330Y98561D01*
X85330Y101116D02*
X136412Y101116D01*
X136412Y103671D02*
X85330Y103671D01*
X85330Y106226D02*
X136412Y106226D01*
X136412Y108781D02*
X85330Y108781D01*
X85330Y111336D02*
X136412Y111336D01*
X136412Y113891D02*
X85330Y113891D01*
X85330Y116446D02*
X136412Y116446D01*
X136412Y119001D02*
X85330Y119001D01*
X85330Y121556D02*
X136412Y121556D01*
D13*
X43257Y147144D02*
X43257Y149746D01*
X43257Y147144D02*
X40055Y147144D01*
X40055Y149746D01*
X43257Y149746D01*
X40055Y141146D02*
X40055Y138544D01*
X40055Y141146D02*
X43257Y141146D01*
X43257Y138544D01*
X40055Y138544D01*
X32970Y147144D02*
X32970Y149746D01*
X32970Y147144D02*
X29768Y147144D01*
X29768Y149746D01*
X32970Y149746D01*
X29768Y141146D02*
X29768Y138544D01*
X29768Y141146D02*
X32970Y141146D01*
X32970Y138544D01*
X29768Y138544D01*
X90501Y47638D02*
X90501Y45036D01*
X87299Y45036D01*
X87299Y47638D01*
X90501Y47638D01*
X87299Y39038D02*
X87299Y36436D01*
X87299Y39038D02*
X90501Y39038D01*
X90501Y36436D01*
X87299Y36436D01*
X77520Y36309D02*
X77520Y38911D01*
X80722Y38911D01*
X80722Y36309D01*
X77520Y36309D01*
X80722Y44909D02*
X80722Y47511D01*
X80722Y44909D02*
X77520Y44909D01*
X77520Y47511D01*
X80722Y47511D01*
X74979Y148413D02*
X72377Y148413D01*
X74979Y148413D02*
X74979Y145211D01*
X72377Y145211D01*
X72377Y148413D01*
X80977Y145211D02*
X83579Y145211D01*
X80977Y145211D02*
X80977Y148413D01*
X83579Y148413D01*
X83579Y145211D01*
X172326Y139142D02*
X174928Y139142D01*
X174928Y135940D01*
X172326Y135940D01*
X172326Y139142D01*
X180926Y135940D02*
X183528Y135940D01*
X180926Y135940D02*
X180926Y139142D01*
X183528Y139142D01*
X183528Y135940D01*
X165621Y135940D02*
X163019Y135940D01*
X163019Y139142D01*
X165621Y139142D01*
X165621Y135940D01*
X157021Y139142D02*
X154419Y139142D01*
X157021Y139142D02*
X157021Y135940D01*
X154419Y135940D01*
X154419Y139142D01*
X136702Y148450D02*
X136702Y151052D01*
X139904Y151052D01*
X139904Y148450D01*
X136702Y148450D01*
X139904Y157050D02*
X139904Y159652D01*
X139904Y157050D02*
X136702Y157050D01*
X136702Y159652D01*
X139904Y159652D01*
X91744Y152322D02*
X91744Y149720D01*
X91744Y152322D02*
X94946Y152322D01*
X94946Y149720D01*
X91744Y149720D01*
X94946Y158320D02*
X94946Y160922D01*
X94946Y158320D02*
X91744Y158320D01*
X91744Y160922D01*
X94946Y160922D01*
X104090Y45733D02*
X104090Y43131D01*
X100888Y43131D01*
X100888Y45733D01*
X104090Y45733D01*
X100888Y37133D02*
X100888Y34531D01*
X100888Y37133D02*
X104090Y37133D01*
X104090Y34531D01*
X100888Y34531D01*
X70562Y44909D02*
X70562Y47511D01*
X70562Y44909D02*
X67360Y44909D01*
X67360Y47511D01*
X70562Y47511D01*
X67360Y38911D02*
X67360Y36309D01*
X67360Y38911D02*
X70562Y38911D01*
X70562Y36309D01*
X67360Y36309D01*
D14*
X59201Y59682D02*
X54241Y59682D01*
X54241Y68842D01*
X59201Y68842D01*
X59201Y59682D01*
X59201Y65677D02*
X54241Y65677D01*
X40501Y68842D02*
X35541Y68842D01*
X40501Y68842D02*
X40501Y59682D01*
X35541Y59682D01*
X35541Y68842D01*
X35541Y65677D02*
X40501Y65677D01*
X39358Y111260D02*
X34398Y111260D01*
X39358Y111260D02*
X39358Y102100D01*
X34398Y102100D01*
X34398Y111260D01*
X34398Y108095D02*
X39358Y108095D01*
X53098Y102100D02*
X58058Y102100D01*
X53098Y102100D02*
X53098Y111260D01*
X58058Y111260D01*
X58058Y102100D01*
X58058Y108095D02*
X53098Y108095D01*
D13*
X113742Y45733D02*
X113742Y43131D01*
X110540Y43131D01*
X110540Y45733D01*
X113742Y45733D01*
X110540Y37133D02*
X110540Y34531D01*
X110540Y37133D02*
X113742Y37133D01*
X113742Y34531D01*
X110540Y34531D01*
X151461Y54561D02*
X151461Y57163D01*
X151461Y54561D02*
X148259Y54561D01*
X148259Y57163D01*
X151461Y57163D01*
X148259Y48563D02*
X148259Y45961D01*
X148259Y48563D02*
X151461Y48563D01*
X151461Y45961D01*
X148259Y45961D01*
D15*
X53635Y127796D02*
X53635Y131648D01*
X58887Y131648D01*
X58887Y127796D01*
X53635Y127796D01*
X58887Y144196D02*
X58887Y148048D01*
X58887Y144196D02*
X53635Y144196D01*
X53635Y148048D01*
X58887Y148048D01*
D14*
X58185Y80510D02*
X53225Y80510D01*
X53225Y89670D01*
X58185Y89670D01*
X58185Y80510D01*
X58185Y86505D02*
X53225Y86505D01*
X39485Y89670D02*
X34525Y89670D01*
X39485Y89670D02*
X39485Y80510D01*
X34525Y80510D01*
X34525Y89670D01*
X34525Y86505D02*
X39485Y86505D01*
D16*
X181537Y153162D03*
X156537Y153162D03*
D17*
X138211Y29453D03*
X138211Y43953D03*
X126711Y43953D03*
X126711Y29453D03*
D18*
X167193Y76852D02*
X169861Y76852D01*
X167193Y76852D02*
X167193Y80120D01*
X169861Y80120D01*
X169861Y76852D01*
X175833Y76852D02*
X178501Y76852D01*
X175833Y76852D02*
X175833Y80120D01*
X178501Y80120D01*
X178501Y76852D01*
X169988Y87139D02*
X167320Y87139D01*
X167320Y90407D01*
X169988Y90407D01*
X169988Y87139D01*
X175960Y87139D02*
X178628Y87139D01*
X175960Y87139D02*
X175960Y90407D01*
X178628Y90407D01*
X178628Y87139D01*
X178755Y48624D02*
X176087Y48624D01*
X178755Y48624D02*
X178755Y45356D01*
X176087Y45356D01*
X176087Y48624D01*
X170115Y48624D02*
X167447Y48624D01*
X170115Y48624D02*
X170115Y45356D01*
X167447Y45356D01*
X167447Y48624D01*
X167320Y66184D02*
X169988Y66184D01*
X167320Y66184D02*
X167320Y69452D01*
X169988Y69452D01*
X169988Y66184D01*
X175960Y66184D02*
X178628Y66184D01*
X175960Y66184D02*
X175960Y69452D01*
X178628Y69452D01*
X178628Y66184D01*
X206866Y82230D02*
X206866Y84898D01*
X206866Y82230D02*
X203598Y82230D01*
X203598Y84898D01*
X206866Y84898D01*
X206866Y90870D02*
X206866Y93538D01*
X206866Y90870D02*
X203598Y90870D01*
X203598Y93538D01*
X206866Y93538D01*
X212488Y64963D02*
X212488Y62295D01*
X212488Y64963D02*
X215756Y64963D01*
X215756Y62295D01*
X212488Y62295D01*
X212488Y56323D02*
X212488Y53655D01*
X212488Y56323D02*
X215756Y56323D01*
X215756Y53655D01*
X212488Y53655D01*
X169988Y55897D02*
X167320Y55897D01*
X167320Y59165D01*
X169988Y59165D01*
X169988Y55897D01*
X175960Y55897D02*
X178628Y55897D01*
X175960Y55897D02*
X175960Y59165D01*
X178628Y59165D01*
X178628Y55897D01*
X185735Y71899D02*
X188403Y71899D01*
X185735Y71899D02*
X185735Y75167D01*
X188403Y75167D01*
X188403Y71899D01*
X194375Y71899D02*
X197043Y71899D01*
X194375Y71899D02*
X194375Y75167D01*
X197043Y75167D01*
X197043Y71899D01*
X204150Y72026D02*
X206818Y72026D01*
X204150Y72026D02*
X204150Y75294D01*
X206818Y75294D01*
X206818Y72026D01*
X212790Y72026D02*
X215458Y72026D01*
X212790Y72026D02*
X212790Y75294D01*
X215458Y75294D01*
X215458Y72026D01*
D19*
X56822Y43052D03*
X56822Y27052D03*
X15822Y27052D03*
X15822Y43052D03*
D18*
X152969Y25671D02*
X155637Y25671D01*
X152969Y25671D02*
X152969Y28939D01*
X155637Y28939D01*
X155637Y25671D01*
X161609Y25671D02*
X164277Y25671D01*
X161609Y25671D02*
X161609Y28939D01*
X164277Y28939D01*
X164277Y25671D01*
D20*
X173671Y17711D02*
X180659Y17711D01*
X180659Y10723D01*
X173671Y10723D01*
X173671Y17711D01*
X173671Y14792D02*
X180659Y14792D01*
X180659Y35251D02*
X173671Y35251D01*
X180659Y35251D02*
X180659Y28263D01*
X173671Y28263D01*
X173671Y35251D01*
X173671Y32332D02*
X180659Y32332D01*
D21*
X112903Y6096D03*
X125603Y6096D03*
X138303Y6096D03*
X151003Y6096D03*
X163703Y6096D03*
X100203Y6096D03*
X87503Y6096D03*
X74803Y6096D03*
X62103Y6096D03*
X49403Y6096D03*
X36703Y6096D03*
X24003Y6096D03*
X11303Y6096D03*
X112903Y172466D03*
X125603Y172466D03*
X138303Y172466D03*
X151003Y172466D03*
X163703Y172466D03*
X100203Y172466D03*
X87503Y172466D03*
X74803Y172466D03*
X62103Y172466D03*
X49403Y172466D03*
X36703Y172466D03*
X24003Y172466D03*
X11303Y172466D03*
X3048Y82804D03*
X3048Y70104D03*
X3048Y57404D03*
X3048Y44704D03*
X3048Y32004D03*
X3048Y95504D03*
X3048Y108204D03*
X3048Y120904D03*
X3048Y133604D03*
X3048Y146304D03*
D22*
X200753Y28321D03*
X228253Y28321D03*
D23*
X214503Y43571D03*
X214503Y13071D03*
M02*
