M48
;GenerationSoftware,Autodesk,EAGLE,9.6.2*%
;CreationDate,2021-10-08T21:56:14Z*%
FMAT,2
ICI,OFF
METRIC,TZ,000.000
T4C0.200
T3C0.250
T2C0.254
T1C0.700
%
G90
M71
T1
X10020Y16866
X10020Y229
X8750Y229
X7480Y229
X6210Y229
X2400Y229
X1130Y229
X11290Y16866
X4940Y229
X12560Y16866
X13830Y16866
X15100Y16866
X16370Y16866
X8750Y16866
X7480Y16866
X6210Y16866
X4940Y16866
X3670Y16866
X2400Y16866
X1130Y16866
X305Y6629
X305Y5359
X305Y4089
X305Y2819
X12560Y229
X305Y14249
X305Y9169
X305Y10439
X305Y11709
X305Y12979
X3670Y229
X11290Y229
X305Y7899
X13830Y229
X15100Y229
X16370Y229
T2
X11787Y3620
X14961Y5931
X3492Y9220
X2959Y9220
X4026Y9220
X6667Y14503
X6553Y5347
X9563Y4051
X6667Y13932
X12421Y11849
X9741Y7087
X12421Y10808
X11087Y9474
X9754Y10808
X6921Y4953
X12421Y9474
X12421Y8141
X11087Y8141
X9754Y8141
X9754Y9474
X11087Y7087
X6464Y13348
X9754Y11849
X11049Y11862
X4000Y12611
X3442Y12598
X12446Y7087
X11087Y10808
T3
X19050Y13970
X19050Y13335
X16256Y5842
X18415Y12446
X17971Y12014
X16891Y11557
X16891Y10922
X16891Y10287
X17526Y10287
X18783Y10274
X21044Y14605
X18199Y10274
X17539Y10897
X17551Y11557
X16891Y9652
X17526Y9639
X18225Y9639
X18809Y9639
X18834Y8928
X18847Y8280
X17729Y3175
X17056Y3188
X16370Y3175
X19317Y12446
X18796Y11976
X20384Y1270
X18390Y16497
X17717Y16510
X3632Y2337
X3785Y4585
X2172Y9208
X14389Y14059
X8725Y15138
X18771Y10947
X18415Y11430
X20955Y635
X20955Y1270
X20955Y1905
X20955Y2540
X20955Y3175
X20955Y3810
X20955Y4445
X20955Y5080
X20955Y5715
X20955Y6350
X20955Y6985
X20955Y7620
X20955Y8255
X20955Y8890
X20955Y9525
X20955Y10160
X18771Y12878
X20955Y10795
X20955Y11430
X20396Y635
X16256Y4064
X16256Y4953
X18415Y3175
X18415Y3810
X20955Y13208
X20955Y15875
X20955Y16510
X20320Y16510
X19685Y16510
X19050Y16510
X19050Y15875
X19050Y15240
X19050Y14605
T4
X20320Y7620
X20320Y8255
X20320Y8890
X20320Y9525
X20320Y10160
X7506Y1549
X6807Y12205
X7760Y12916
X15342Y9233
X15659Y9716
X15354Y10211
X15672Y10744
X15354Y11227
X15570Y11811
X13373Y13945
X12827Y13741
X12332Y14072
X11811Y13716
X11354Y14084
X10833Y13703
X10363Y14046
X9843Y13741
X6439Y11659
X6820Y11201
X20320Y10795
X6794Y10211
X6426Y9728
X6845Y9233
X6413Y8788
X6985Y6147
X7671Y6071
X7722Y5436
X8585Y4864
X9398Y5067
X9779Y4623
X10363Y4940
X11024Y5156
X15659Y8725
X15367Y12357
X20320Y13208
X19685Y13208
X19685Y13843
X20320Y13843
X20320Y14478
X6553Y6540
X19685Y15113
X20320Y15113
X19685Y15875
X20320Y15875
X20320Y2540
X16383Y12611
X18847Y7645
X19050Y1880
X19050Y2540
X18402Y1880
X18415Y2540
X9538Y2857
X15011Y3556
X19685Y1905
X20320Y1905
X20320Y3175
X20320Y3810
X20320Y4445
X19685Y3175
X19685Y2540
X19050Y3175
X19050Y3810
X19050Y4445
X19685Y3810
X20320Y5080
X19685Y14478
X20320Y5715
X20320Y6350
X20320Y6985
X6464Y10744
M30