M48
;GenerationSoftware,Autodesk,EAGLE,9.6.2*%
;CreationDate,2021-11-13T20:07:57Z*%
FMAT,2
ICI,OFF
METRIC,TZ,000.000
T4C0.200
T3C0.250
T2C0.254
T1C0.700
%
G90
M71
T1
X1130Y16866
X12560Y229
X10020Y229
X15100Y229
X11290Y229
X6210Y229
X305Y14249
X13830Y229
X16370Y229
X8750Y229
X7480Y229
X4940Y229
X3670Y229
X2400Y229
X1130Y229
X11290Y16866
X12560Y16866
X13830Y16866
X15100Y16866
X16370Y16866
X10020Y16866
X8750Y16866
X7480Y16866
X6210Y16866
X4940Y16866
X3670Y16866
X2400Y16866
X305Y7899
X305Y6629
X305Y5359
X305Y4089
X305Y2819
X305Y9169
X305Y10439
X305Y11709
X305Y12979
T2
X8738Y8141
X8725Y7087
X13437Y11849
X9563Y4051
X4000Y12611
X3442Y12598
X13437Y10808
X11049Y11862
X11787Y3620
X14961Y5931
X3492Y9220
X2959Y9220
X4026Y9220
X6667Y14503
X6553Y5347
X6921Y4953
X6667Y13932
X12421Y10808
X11087Y9474
X9754Y10808
X11087Y10808
X12421Y9474
X12421Y8141
X11087Y8141
X9754Y8141
X11087Y7087
X9754Y9474
X6464Y13348
X9754Y11849
X12421Y11849
X9741Y7087
X12446Y7087
X8738Y11849
X8738Y10808
X8738Y9474
T3
X3785Y4585
X3632Y2337
X21044Y14605
X2172Y9208
X8725Y15138
X2413Y3937
X14389Y14059
T4
X20955Y7620
X20955Y8255
X20955Y8890
X20955Y9525
X20955Y10160
X20955Y10795
X20955Y11557
X20955Y13208
X20955Y15875
X20955Y16510
X20320Y16510
X19685Y16510
X19050Y16510
X18415Y16510
X17780Y16510
X17196Y16497
X19050Y13208
X19050Y12573
X18669Y12065
X18034Y12065
X17399Y12065
X16891Y11684
X16891Y11049
X16891Y10414
X16891Y9779
X17526Y9779
X18161Y9779
X18796Y9779
X18796Y9144
X18796Y8382
X18796Y7747
X18796Y10414
X18796Y11176
X6553Y6540
X18415Y4445
X18415Y3810
X18415Y3175
X17780Y3175
X17145Y3175
X16510Y3175
X16256Y5842
X16256Y4953
X16256Y3683
X19050Y15875
X19050Y15113
X19050Y14478
X19050Y13843
X762Y15240
X635Y1397
X1143Y8382
X1143Y5842
X11938Y16129
X10795Y16129
X2159Y13881
X2159Y12357
X11836Y2299
X9360Y1791
X14897Y1854
X19050Y2515
X19685Y2540
X19050Y3150
X19685Y3175
X19050Y3785
X19685Y3810
X16383Y12611
X9538Y2857
X15011Y3556
X19685Y1905
X20320Y1905
X20320Y2540
X20320Y3175
X20320Y3810
X20320Y4445
X7506Y1549
X6807Y12205
X7760Y12916
X15342Y9233
X15659Y9716
X15354Y10211
X15672Y10744
X15354Y11227
X15570Y11811
X13373Y13945
X12827Y13741
X12332Y14072
X11811Y13716
X11354Y14084
X10833Y13703
X20320Y5080
X10363Y14046
X20320Y5715
X6439Y11659
X6820Y11201
X6464Y10744
X6794Y10211
X6426Y9728
X6845Y9233
X6413Y8788
X6985Y6147
X7671Y6071
X7722Y5436
X8585Y4864
X9398Y5067
X9779Y4623
X10363Y4940
X11024Y5156
X15659Y8725
X15367Y12357
X16764Y1270
X20320Y6350
X20320Y6985
X20320Y7620
X20320Y8255
X20320Y8890
X20320Y9525
X20320Y10160
X20320Y10795
X18415Y5080
X20320Y13208
X19685Y13208
X19685Y13843
X20320Y13843
X20320Y14478
X19685Y14478
X19685Y15113
X20320Y15113
X19685Y15875
X20320Y15875
X19050Y1880
X18402Y1880
X18415Y2540
X20955Y1270
X20955Y635
X20447Y1270
X20447Y635
X20955Y2540
X20955Y1905
X20955Y3175
X20955Y3810
X20955Y4445
X20955Y5080
X20955Y5715
X20955Y6350
X20955Y6985
X9843Y13741
M30